<?xml version="1.0" encoding="UTF-8" standalone="no"?>
<!-- Created with Inkscape (http://www.inkscape.org/) -->

<svg
   xmlns:dc="http://purl.org/dc/elements/1.1/"
   xmlns:cc="http://creativecommons.org/ns#"
   xmlns:rdf="http://www.w3.org/1999/02/22-rdf-syntax-ns#"
   xmlns:svg="http://www.w3.org/2000/svg"
   xmlns="http://www.w3.org/2000/svg"
   xmlns:sodipodi="http://sodipodi.sourceforge.net/DTD/sodipodi-0.dtd"
   xmlns:inkscape="http://www.inkscape.org/namespaces/inkscape"
   width="587.93823"
   height="140.75082"
   viewBox="0 0 155.55865 37.24032"
   version="1.1"
   id="svg8"
   inkscape:version="0.92+devel (unknown)"
   sodipodi:docname="game-over-text.svg">
  <defs
     id="defs2" />
  <sodipodi:namedview
     id="base"
     pagecolor="#ffffff"
     bordercolor="#666666"
     borderopacity="1.0"
     inkscape:pageopacity="0.0"
     inkscape:pageshadow="2"
     inkscape:zoom="1.4"
     inkscape:cx="287.08556"
     inkscape:cy="-27.954121"
     inkscape:document-units="px"
     inkscape:current-layer="layer1"
     inkscape:document-rotation="0"
     showgrid="false"
     units="px" />
  <metadata
     id="metadata5">
    <rdf:RDF>
      <cc:Work
         rdf:about="">
        <dc:format>image/svg+xml</dc:format>
        <dc:type
           rdf:resource="http://purl.org/dc/dcmitype/StillImage" />
        <dc:title></dc:title>
      </cc:Work>
    </rdf:RDF>
  </metadata>
  <g
     inkscape:label="Layer 1"
     inkscape:groupmode="layer"
     id="layer1"
     transform="translate(-4.9329378,-107.18136)">
    <g
       aria-label="Game Over !"
       transform="matrix(0.26458333,0,0,0.26458333,78.055106,16.488485)"
       style="font-style:normal;font-weight:normal;font-size:40px;line-height:125%;font-family:sans-serif;letter-spacing:0px;word-spacing:0px;fill:#aa0044;fill-opacity:1;stroke:none;stroke-width:1px;stroke-linecap:butt;stroke-linejoin:miter;stroke-opacity:1"
       id="flowRoot10">
      <path
         d="m -235.61653,346.12848 q 6.66666,-0.10417 10.9375,2.39583 4.375,2.5 7.08333,5.9375 2.70833,3.4375 4.16667,6.97917 1.45833,3.4375 2.29166,5.41667 0.20834,0.52083 0.83334,1.35416 0.52083,0.72917 1.45833,1.77084 1.04167,0.9375 2.60417,2.1875 -3.22917,0.10417 -5.72917,0.20833 -2.5,0 -4.27083,0.10417 -1.97917,0.10417 -3.54167,0.20833 -1.5625,0.10417 -3.85417,0.3125 -2.08333,0.20834 -5.10416,0.41667 -3.02084,0.20833 -7.39584,0.625 2.60417,-3.125 4.0625,-5.52083 1.5625,-2.50001 2.29167,-4.37501 0.83333,-1.97916 0.9375,-3.4375 0.20833,-1.45833 -0.10417,-2.5 -0.625,-2.39583 -3.22916,-3.4375 -7.5,-2.08333 -13.125,3.33334 -5.52084,5.3125 -7.91667,17.5 -1.14584,6.04167 -2.1875,12.60417 -0.9375,6.45833 -0.72917,11.875 0.20833,5.3125 2.08333,8.64583 1.875,3.33333 6.45834,3.125 4.47917,-0.20833 7.60417,-1.45833 3.125,-1.35417 5,-3.125 1.875,-1.875 2.60416,-3.95834 0.83334,-2.1875 0.625,-4.0625 -0.41666,-1.45833 -2.1875,-3.125 -1.5625,-1.45833 -4.6875,-3.22916 -3.125,-1.875 -8.95833,-3.85417 5.52083,-0.3125 9.0625,-0.41667 3.64583,-0.20833 5.72917,-0.41666 2.5,-0.20834 3.85416,-0.3125 1.25,-0.10417 3.64584,-0.20834 2.08333,-0.10416 5.3125,-0.10416 3.33333,0 8.33333,-0.10417 -1.875,1.875 -2.91667,3.4375 -0.52083,0.83333 -0.9375,1.45833 -0.41666,1.04167 -0.3125,4.27084 0,2.70833 0.41667,8.02083 0.41667,5.20833 1.5625,14.27083 l -13.85417,1.875 0.625,-14.0625 q -2.39583,5.72917 -6.04166,8.54167 -3.54167,2.8125 -6.77084,3.95833 -3.85416,1.35417 -8.02083,1.25 -5.41667,-0.52083 -10.83334,-2.5 -5.41666,-1.97916 -9.58333,-6.04166 -4.16667,-4.16667 -6.45833,-10.72917 -2.1875,-6.5625 -1.35417,-16.25 0.9375,-9.6875 4.58333,-16.875 3.75,-7.29167 9.27084,-12.08334 5.52083,-4.79166 12.39583,-7.1875 6.97917,-2.5 14.27084,-2.70833 z"
         style="font-style:normal;font-variant:normal;font-weight:normal;font-stretch:normal;font-size:106.66667175px;font-family:'Lakki Reddy';-inkscape-font-specification:'Lakki Reddy';fill:#aa0044"
         id="path19"
         inkscape:connector-curvature="0" />
      <path
         d="m -198.42903,379.14932 q 0.52083,-0.625 0.625,-2.29167 0.20833,-1.77083 0.83333,-3.95833 0.72917,-2.1875 2.39584,-4.58334 1.66666,-2.39583 5.41666,-4.47917 3.64584,-2.08333 7.08334,-2.5 3.4375,-0.41666 6.5625,0.3125 3.125,0.72917 5.83333,2.29167 2.8125,1.5625 5.10417,3.4375 1.5625,1.25 2.5,3.64584 0.9375,2.29166 1.45833,5.20833 0.52083,2.91667 0.72917,6.14583 0.3125,3.125 0.41666,6.14584 0.10417,2.91666 0.10417,5.41666 0.10417,2.39584 0.41667,3.95834 0.41666,2.29166 1.45833,3.95833 1.04167,1.5625 2.29167,2.70833 1.25,1.04167 2.5,1.66667 1.25,0.625 2.1875,0.9375 0.625,0.3125 1.14583,0.41667 1.04167,0.41666 1.45833,0 -0.625,1.45833 -1.14583,2.5 -0.52083,1.04166 -0.83333,1.77083 -0.41667,0.83333 -0.72917,1.35417 -0.3125,0.625 -0.72917,1.14583 -0.3125,0.52083 -0.83333,1.14583 -0.52083,0.625 -1.04167,1.35417 -1.35416,-0.52083 -2.60416,-1.25 -1.14584,-0.72917 -2.08334,-1.35417 -1.14583,-0.72916 -2.08333,-1.45833 -0.9375,-0.72917 -1.77083,-1.66667 -0.72917,-0.83333 -1.5625,-1.77083 -0.72917,-0.9375 -1.25,-2.08333 -0.625,1.35416 -3.02084,3.85416 -2.29166,2.5 -6.04166,4.58334 -3.75,1.97916 -8.75,2.8125 -4.89584,0.83333 -10.83334,-1.14584 -2.60416,-0.83333 -4.89583,-2.39583 -2.29167,-1.66667 -3.95833,-3.95833 -1.5625,-2.29167 -2.29167,-5.20834 -0.625,-3.02083 0.10417,-6.66666 0.72916,-3.64584 2.60416,-6.14584 1.875,-2.5 4.47917,-4.0625 2.60417,-1.5625 5.83333,-2.39583 3.22917,-0.83333 6.66667,-1.14583 2.70833,-0.10417 5.41667,0.3125 2.29166,0.41666 4.79166,1.5625 2.5,1.04166 4.27084,3.22916 -0.10417,-5.52083 -0.41667,-8.75 -0.20833,-3.33333 -0.41667,-5.10416 -0.41666,-2.08334 -0.72916,-2.91667 -0.52084,-0.72917 -1.14584,-1.66667 -0.52083,-0.9375 -1.35416,-1.66666 -0.83334,-0.83334 -2.08334,-1.35417 -1.25,-0.52083 -2.91666,-0.41667 -1.77084,0.10417 -2.8125,0.9375 -1.04167,0.83334 -1.66667,1.97917 -0.52083,1.04167 -0.625,2.29167 -0.10417,1.25 0.10417,2.1875 0.20833,0.625 0.625,1.35416 0.41666,0.625 1.14583,1.35417 0.72917,0.72917 1.97917,1.25 -2.39584,0.3125 -4.27084,0.52083 -1.875,0.10417 -3.22916,0.3125 -1.5625,0.20834 -2.70834,0.3125 -1.14583,0.10417 -2.70833,0.41667 -1.35417,0.20833 -3.33333,0.52083 -1.97917,0.3125 -4.58334,0.83334 0.625,-0.72917 1.14584,-1.35417 0.52083,-0.72917 0.9375,-1.25 0.41666,-0.625 0.83333,-1.14583 z m 15.625,12.39583 q -1.875,0.10417 -3.75,0.9375 -1.875,0.72917 -3.33333,2.1875 -1.45834,1.35417 -2.5,3.22917 -0.9375,1.77083 -0.9375,3.95833 0,2.1875 1.04166,3.85417 1.14584,1.5625 2.91667,2.60416 1.875,1.04167 3.95833,1.25 2.1875,0.20834 4.27084,-0.41666 1.97916,-0.72917 3.75,-2.29167 1.77083,-1.66667 3.02083,-3.54167 1.25,-1.97916 1.77083,-3.85416 0.52084,-1.97917 0.10417,-3.22917 -0.83333,-2.70833 -3.75,-3.75 -2.91667,-1.14583 -6.5625,-0.9375 z"
         style="font-style:normal;font-variant:normal;font-weight:normal;font-stretch:normal;font-size:106.66667175px;font-family:'Lakki Reddy';-inkscape-font-specification:'Lakki Reddy';fill:#aa0044"
         id="path21"
         inkscape:connector-curvature="0" />
      <path
         d="m -149.47069,371.96182 q 2.39583,-0.20834 4.0625,-0.41667 1.77083,-0.20833 2.91666,-0.41667 1.35417,-0.20833 2.29167,-0.41666 0.9375,-0.10417 2.08333,-0.41667 1.04167,-0.20833 2.29167,-0.52083 1.35417,-0.41667 2.91667,-0.9375 l -0.625,13.22916 q 2.29166,-3.64583 5.3125,-5.52083 3.02083,-1.97917 5.72917,-2.91667 3.22916,-1.14583 6.45833,-1.35416 3.33333,0.10416 6.14583,1.04166 2.39584,0.83334 4.79167,2.60417 2.5,1.77083 3.85417,5.20833 3.541663,-3.64583 6.979163,-5.625 3.541667,-2.08333 6.25,-3.125 3.229167,-1.14583 6.041667,-1.35416 3.75,-0.10417 6.875001,1.25 3.229166,1.35416 5.625,3.4375 2.395833,1.97916 3.854167,4.27083 1.458333,2.1875 1.666667,3.85417 0.3125,2.29166 -0.312501,5.9375 -0.625,3.54166 -1.458333,7.29166 -0.833333,3.64584 -1.5625,6.77084 -0.625,3.02083 -0.520833,4.27083 0.3125,1.04167 1.458333,2.5 1.041667,1.25 3.020834,3.125 2.083333,1.77083 5.9375,4.16667 -3.333334,-0.10417 -5.9375,-0.20834 -2.500001,-0.10416 -4.270834,-0.3125 -2.083333,-0.20833 -3.645834,-0.3125 -1.25,0 -3.020833,-0.20833 -1.458333,-0.10417 -3.854167,-0.3125 -2.291667,-0.20833 -5.3125,-0.41667 1.145833,-0.3125 1.875,-1.14583 0.729167,-0.9375 1.25,-1.77083 0.520833,-1.04167 0.833333,-2.29167 0.208334,-1.04167 0.416667,-3.33333 0.208333,-2.29167 0.3125,-5.20834 0.208333,-2.91666 0.208333,-6.14583 0.104167,-3.22917 0,-6.14583 -0.104166,-2.91667 -0.416666,-5.3125 -0.3125,-2.39584 -0.833334,-3.64584 -0.416666,-0.9375 -1.458333,-1.45833 -1.041667,-0.625 -2.395833,-0.72917 -1.354167,-0.20833 -2.708334,0.10417 -1.354167,0.20833 -2.395833,0.83333 -0.9375,0.72917 -2.5,1.97917 -1.354167,1.14583 -3.541667,3.125 -2.1875,1.97917 -5.52083,5 -0.3125,6.5625 -0.52084,10.625 -0.10416,3.95833 -0.20833,6.04167 -0.10417,2.5 -0.10417,3.4375 -0.10416,0.83333 0.10417,1.5625 0.20833,1.5625 1.249999,2.91666 -1.249999,-0.3125 -2.708329,-0.41666 -1.35417,-0.10417 -2.5,-0.20834 -1.35417,-0.10416 -2.70834,-0.10416 -1.14583,0 -2.5,0.10416 -1.14583,0.10417 -2.8125,0.3125 -1.66666,0.10417 -3.64583,0.3125 0.83333,-0.52083 1.35417,-1.25 0.52083,-0.72916 0.83333,-1.35416 0.41667,-0.72917 0.625,-1.35417 0.10417,-0.625 0.41667,-3.02083 0.3125,-2.5 0.41666,-5.83334 0.10417,-3.33333 0,-6.97916 -0.10416,-3.75 -0.72916,-6.77084 -0.625,-3.125 -1.97917,-5.10416 -1.25,-1.97917 -3.33333,-1.77084 -2.5,0.20834 -5.10417,1.25 -2.1875,0.83334 -4.6875,2.5 -2.5,1.66667 -4.6875,4.47917 -0.41667,7.8125 -0.52084,12.39583 0,4.58334 0.10417,6.97917 0.10417,2.8125 0.20833,3.85417 0.10417,0.72916 0.52084,1.45833 0.3125,0.625 0.72916,1.45833 0.52084,0.83334 1.14584,1.5625 l -16.5625,-0.83333 q 0.83333,-0.41667 1.45833,-1.04167 0.625,-0.72916 1.04167,-1.45833 0.41666,-0.83333 0.83333,-1.66667 0.3125,-0.72916 0.52083,-3.4375 0.3125,-2.70833 0.52084,-6.35416 0.20833,-3.75 0.3125,-7.8125 0.20833,-4.16667 0.20833,-7.70834 0.10417,-3.64583 0.10417,-6.14583 0,-2.60417 -0.10417,-3.125 -0.3125,-1.04167 -1.14583,-2.1875 -0.72917,-0.83333 -1.97917,-1.77083 -1.25,-1.04167 -3.33333,-1.5625 z"
         style="font-style:normal;font-variant:normal;font-weight:normal;font-stretch:normal;font-size:106.66667175px;font-family:'Lakki Reddy';-inkscape-font-specification:'Lakki Reddy';fill:#aa0044"
         id="path23"
         inkscape:connector-curvature="0" />
      <path
         d="m -29.783197,404.56598 q 2.916667,0 5.416667,-0.625 2.083334,-0.52083 3.958334,-1.66666 1.979167,-1.25 2.604167,-3.64584 2.083333,0.41667 3.541666,0.72917 1.458334,0.20833 2.500001,0.41667 1.145833,0.3125 1.9791663,0.41666 0.8333334,0.20834 1.9791667,0.41667 1.0416668,0.20833 2.5000002,0.52083 1.5625,0.20834 3.6458335,0.625 -1.5625001,-0.20833 -3.2291669,0.3125 -1.5625,0.52084 -3.0208334,1.14584 -1.6666668,0.72916 -3.1250004,1.77083 -0.9375,0.625 -2.1875,1.875 -1.145833,1.25 -3.333333,2.39583 -2.1875,1.14584 -5.833334,1.97917 -3.541667,0.72917 -9.166667,0.52083 -6.770834,-0.20833 -11.354167,-2.39583 -4.583334,-2.29167 -7.395834,-5.52083 -2.8125,-3.33334 -4.0625,-7.1875 -1.25,-3.85417 -1.354167,-7.1875 -0.104167,-3.33334 1.979167,-6.97917 2.083333,-3.64583 5.833333,-6.66667 3.854167,-3.02083 9.270834,-4.89583 5.416667,-1.97917 11.875001,-1.97917 3.75,0 6.875,0.9375 3.229167,0.83334 5.833334,2.29167 2.708333,1.45833 4.6875,3.33333 1.9791667,1.77084 3.3333335,3.64584 1.3541667,1.97916 2.2916667,4.16666 0.8333334,1.875 1.3541668,4.27084 0.5208333,2.39583 0.3125,4.89583 -7.9166671,0.20833 -12.812501,0.3125 -4.791667,0.10417 -7.5,0.10417 h -4.6875 -3.541667 q -1.875,0 -4.895834,0.10416 -3.020833,0.10417 -7.395833,0.3125 0.520833,4.16667 2.604166,6.45834 2.187501,2.1875 4.583334,3.33333 2.708334,1.25 5.9375,1.45833 z m -9.375,-18.75 q 3.333333,0.20834 5.520833,0.3125 2.291667,0.10417 3.750001,0.20834 1.5625,0.10416 2.5,0.10416 h 2.604167 q 2.604166,0 9.6875,-0.3125 -0.3125,-4.58333 -1.979167,-6.97916 -1.5625,-2.39584 -3.333333,-3.54167 -2.083334,-1.25 -4.583334,-1.45833 -6.770833,0.10416 -10.104167,2.8125 -3.229167,2.70833 -4.0625,8.85416 z"
         style="font-style:normal;font-variant:normal;font-weight:normal;font-stretch:normal;font-size:106.66667175px;font-family:'Lakki Reddy';-inkscape-font-specification:'Lakki Reddy';fill:#aa0044"
         id="path25"
         inkscape:connector-curvature="0" />
      <path
         d="m 65.425142,342.79515 q 5.625001,0.20833 11.354167,2.08333 5.833334,1.77083 10.729168,5.83333 4.895833,3.95834 8.333333,10.3125 3.437501,6.25 4.27083,15.31251 0.72917,7.39583 -1.874996,14.6875 -2.5,7.1875 -6.979167,13.22916 -4.479167,6.04167 -10.312501,10.3125 -5.833333,4.16667 -11.666667,5.52084 -3.541667,0.83333 -7.8125,0.20833 -4.166667,-0.72917 -8.541667,-2.60417 -4.270834,-1.97916 -8.437501,-5 -4.0625,-3.02083 -7.395833,-6.875 -3.333334,-3.95833 -5.625001,-8.54166 -2.1875,-4.58334 -2.708333,-9.58334 -0.520834,-4.16666 -0.104167,-9.16666 0.520834,-5.10417 1.979167,-10.10417 1.5625,-5.10417 4.270833,-9.79167 2.812501,-4.79167 7.083334,-8.33333 4.270834,-3.64584 10.000001,-5.625 5.833333,-2.08334 13.4375,-1.875 z m -18.645834,42.1875 q -1.458333,11.14583 2.083333,17.91667 3.645834,6.77083 10.937501,8.22916 3.541667,0.72917 6.770834,-1.45833 3.333333,-2.29167 6.041667,-6.5625 2.708333,-4.27083 4.6875,-10 1.979167,-5.72917 2.916667,-11.97917 0.9375,-6.25 0.104166,-11.25 -0.729166,-5.10417 -2.604167,-8.64583 -1.875,-3.64584 -4.583333,-5.625 -2.604167,-1.97917 -5.416667,-2.1875 -4.895834,-0.3125 -8.541667,2.60416 -3.645834,2.8125 -6.145834,7.39584 -2.5,4.58333 -4.0625,10.3125 -1.458333,5.72917 -2.1875,11.25 z"
         style="font-style:normal;font-variant:normal;font-weight:normal;font-stretch:normal;font-size:106.66667175px;font-family:'Lakki Reddy';-inkscape-font-specification:'Lakki Reddy';fill:#aa0044"
         id="path27"
         inkscape:connector-curvature="0" />
      <path
         d="m 97.091827,363.94098 q 1.770834,0.3125 3.645833,0.52083 1.77083,0.10417 3.22917,0.20834 1.66666,0.10416 3.22916,0.10416 1.5625,0 3.54167,-0.10416 1.66667,-0.10417 3.95833,-0.3125 2.39584,-0.20834 5.20834,-0.625 -1.66667,0.9375 -2.60417,1.97916 -0.9375,1.04167 -1.45833,1.875 -0.625,1.04167 -0.83334,1.87501 -0.20833,0.83333 0.10417,3.4375 0.3125,2.60416 0.83333,6.04166 0.625,3.4375 1.35417,7.1875 0.72917,3.75 1.45833,6.875 0.83334,3.125 1.45834,5.20834 0.72916,2.08333 1.14583,1.97916 0.41667,0 1.25,-2.08333 0.9375,-2.08333 2.08334,-5.10417 1.14583,-3.125 2.39583,-6.77083 1.25,-3.75 2.1875,-6.97917 0.9375,-3.22916 1.45833,-5.41666 0.625,-2.29167 0.52084,-2.70834 -0.3125,-0.41666 -0.72917,-1.14583 -0.72917,-1.14583 -3.22917,-3.95834 3.02084,0.20834 5.20834,0.41667 2.1875,0.10417 3.54166,0.3125 1.5625,0.20833 2.5,0.3125 0.9375,0.10417 2.70834,0 1.45833,0 3.85416,-0.10417 2.5,-0.20833 6.14584,-0.625 -2.70834,1.5625 -4.47917,2.81251 -1.66667,1.14583 -2.60417,1.97916 -1.14583,1.04167 -1.66666,1.77084 -0.72917,1.35416 -2.60417,6.45833 -0.83333,2.1875 -2.08333,5.41667 -1.14584,3.22916 -2.8125,7.8125 -1.5625,4.47916 -3.75,10.52083 -2.1875,6.04167 -4.89584,13.85417 l -10.10417,1.04166 q -1.97916,-6.5625 -3.22916,-10.9375 -1.14584,-4.47916 -1.875,-7.1875 -0.83334,-3.125 -1.25,-4.89583 -0.52084,-1.97917 -1.25,-5.72917 -0.72917,-3.85416 -1.45834,-7.8125 -0.72916,-3.95833 -1.45833,-7.08333 -0.72917,-3.22917 -1.14583,-3.95833 -0.41667,-0.52084 -1.45834,-1.45834 -0.83333,-0.83333 -2.29166,-1.97917 -1.458336,-1.25 -3.750003,-3.02083 z"
         style="font-style:normal;font-variant:normal;font-weight:normal;font-stretch:normal;font-size:106.66667175px;font-family:'Lakki Reddy';-inkscape-font-specification:'Lakki Reddy';fill:#aa0044"
         id="path29"
         inkscape:connector-curvature="0" />
      <path
         d="m 173.13348,404.56598 q 2.91666,0 5.41666,-0.625 2.08334,-0.52083 3.95834,-1.66666 1.97916,-1.25 2.60416,-3.64584 2.08334,0.41667 3.54167,0.72917 1.45833,0.20833 2.5,0.41667 1.14583,0.3125 1.97917,0.41666 0.83333,0.20834 1.97916,0.41667 1.04167,0.20833 2.5,0.52083 1.5625,0.20834 3.64584,0.625 -1.5625,-0.20833 -3.22917,0.3125 -1.5625,0.52084 -3.02083,1.14584 -1.66667,0.72916 -3.125,1.77083 -0.9375,0.625 -2.1875,1.875 -1.14584,1.25 -3.33334,2.39583 -2.1875,1.14584 -5.83333,1.97917 -3.54167,0.72917 -9.16667,0.52083 -6.77083,-0.20833 -11.35417,-2.39583 -4.58333,-2.29167 -7.39583,-5.52083 -2.8125,-3.33334 -4.0625,-7.1875 -1.25,-3.85417 -1.35417,-7.1875 -0.10416,-3.33334 1.97917,-6.97917 2.08333,-3.64583 5.83333,-6.66667 3.85417,-3.02083 9.27084,-4.89583 5.41666,-1.97917 11.875,-1.97917 3.75,0 6.875,0.9375 3.22917,0.83334 5.83333,2.29167 2.70834,1.45833 4.6875,3.33333 1.97917,1.77084 3.33334,3.64584 1.35416,1.97916 2.29166,4.16666 0.83334,1.875 1.35417,4.27084 0.52083,2.39583 0.3125,4.89583 -7.91667,0.20833 -12.8125,0.3125 -4.79167,0.10417 -7.5,0.10417 h -4.6875 -3.54167 q -1.875,0 -4.89583,0.10416 -3.02084,0.10417 -7.39584,0.3125 0.52084,4.16667 2.60417,6.45834 2.1875,2.1875 4.58333,3.33333 2.70834,1.25 5.93751,1.45833 z m -9.37501,-18.75 q 3.33334,0.20834 5.52084,0.3125 2.29167,0.10417 3.75,0.20834 1.5625,0.10416 2.5,0.10416 h 2.60417 q 2.60416,0 9.6875,-0.3125 -0.3125,-4.58333 -1.97917,-6.97916 -1.5625,-2.39584 -3.33333,-3.54167 -2.08334,-1.25 -4.58334,-1.45833 -6.77083,0.10416 -10.10417,2.8125 -3.22916,2.70833 -4.0625,8.85416 z"
         style="font-style:normal;font-variant:normal;font-weight:normal;font-stretch:normal;font-size:106.66667175px;font-family:'Lakki Reddy';-inkscape-font-specification:'Lakki Reddy';fill:#aa0044"
         id="path31"
         inkscape:connector-curvature="0" />
      <path
         d="m 203.96682,371.44098 q 1.97916,0.10417 3.54166,0.10417 1.66667,-0.10417 2.8125,-0.20833 1.35417,-0.10417 2.39584,-0.20834 1.5625,-0.20833 3.22916,-0.52083 1.45834,-0.20833 3.02084,-0.52083 1.66666,-0.41667 3.22916,-0.9375 -0.625,1.5625 -1.04166,2.70833 -0.41667,1.14583 -0.625,1.97917 -0.3125,0.9375 -0.3125,1.5625 -0.10417,0.72916 -0.10417,1.77083 -0.10417,1.77083 0,5.72917 5.41667,-4.6875 9.0625,-7.29167 3.75,-2.60417 5.9375,-4.0625 2.60417,-1.66667 4.0625,-2.1875 3.85417,-0.625 6.77084,1.77083 1.25,1.04167 2.39583,2.8125 1.14583,1.66667 1.97917,4.47917 0.83333,2.8125 1.25,6.77083 0.41666,3.85417 0.10416,9.27084 -2.1875,0.20833 -3.95833,0.41666 -1.66667,0.20834 -2.8125,0.3125 -1.35417,0.20834 -2.5,0.20834 l -2.8125,0.3125 q -1.45833,0.20833 -3.64583,0.41666 -2.08334,0.10417 -5.10417,0.41667 4.375,-3.54167 5.625,-6.14583 1.35417,-2.70834 1.14583,-4.47917 -0.20833,-1.97917 -1.875,-3.4375 -1.97916,-1.14583 -4.27083,-0.83333 -1.97917,0.20833 -4.58333,1.77083 -2.60417,1.5625 -5.52084,5.83333 0.20833,6.66667 0.41667,11.04167 0.3125,4.375 0.52083,7.08333 0.3125,3.125 0.52083,4.89584 0.3125,1.5625 1.25,3.33333 0.72917,1.45833 2.08334,3.22917 1.35417,1.77083 3.54167,3.54166 -4.58334,-0.20833 -7.50001,0 -1.77083,0.10417 -3.125,0.20834 -1.45833,0.20833 -3.125,0.41666 -1.45833,0.20834 -3.4375,0.41667 -1.875,0.3125 -4.16666,0.625 0.83333,-1.14583 1.35416,-2.70833 0.52084,-1.45834 0.83334,-2.8125 0.41666,-1.5625 0.625,-3.22917 0.10416,-1.45833 0.10416,-4.375 0.10417,-2.91667 -0.10416,-6.5625 -0.10417,-3.75 -0.3125,-7.70833 -0.20834,-4.0625 -0.52084,-7.60417 -0.3125,-3.54167 -0.72916,-6.14583 -0.3125,-2.70834 -0.72917,-3.75 -0.52083,-1.25 -1.25,-2.5 -0.625,-1.14584 -1.5625,-2.39584 -0.9375,-1.35416 -2.08333,-2.8125 z"
         style="font-style:normal;font-variant:normal;font-weight:normal;font-stretch:normal;font-size:106.66667175px;font-family:'Lakki Reddy';-inkscape-font-specification:'Lakki Reddy';fill:#aa0044"
         id="path33"
         inkscape:connector-curvature="0" />
      <path
         d="m 288.13348,346.23265 q 1.97917,0.52083 3.75,0.83333 1.77084,0.20833 3.125,0.41667 1.5625,0.20833 2.91667,0.3125 1.45833,0.10416 3.4375,0.20833 1.77083,0.10417 4.27084,0.10417 2.5,0 5.9375,0 -3.02084,7.1875 -4.89584,12.1875 -1.875,4.89583 -2.91666,8.125 -1.14584,3.75 -1.66667,6.14583 -0.41667,2.39584 -1.04167,5.83334 -0.52083,3.02083 -1.45833,7.39583 -0.9375,4.375 -2.08334,10.41667 l -9.16666,-0.41667 q 0.83333,-5.52083 1.14583,-9.375 0.3125,-3.95833 0.52083,-6.5625 0.20834,-3.02083 0.20834,-5 0,-2.08333 -0.3125,-6.25 -0.20834,-3.4375 -0.625,-9.27084 -0.41667,-5.9375 -1.14584,-15.10416 z m 11.45834,59.89583 q 0.72916,1.14584 0.83333,2.60417 0.20833,1.35417 -0.20833,2.8125 -0.3125,1.35417 -1.35417,2.60417 -0.9375,1.25 -2.60417,1.97916 -3.33333,1.5625 -5.9375,0.83334 -2.60416,-0.83334 -3.85416,-2.70834 -0.72917,-1.04166 -0.83334,-2.29166 0,-1.35417 0.52084,-2.60417 0.52083,-1.35417 1.66666,-2.5 1.14584,-1.14583 2.91667,-1.875 3.4375,-1.45833 5.625,-1.04167 2.29167,0.41667 3.22917,2.1875 z"
         style="font-style:normal;font-variant:normal;font-weight:normal;font-stretch:normal;font-size:106.66667175px;font-family:'Lakki Reddy';-inkscape-font-specification:'Lakki Reddy';fill:#aa0044"
         id="path35"
         inkscape:connector-curvature="0" />
    </g>
    <g
       aria-label="killed by:"
       transform="matrix(0.15845451,0,0,0.15845451,35.509945,120.86915)"
       style="font-style:normal;font-weight:normal;font-size:40px;line-height:125%;font-family:sans-serif;letter-spacing:0px;word-spacing:0px;fill:#ffaacc;fill-opacity:1;stroke:none;stroke-width:1px;stroke-linecap:butt;stroke-linejoin:miter;stroke-opacity:1"
       id="flowRoot38">
      <path
         d="m 211.00195,111.61221 q 0.42969,0.19531 1.01563,0.27344 0.625,0.0781 1.17187,0.0781 0.66407,0 1.36719,-0.0391 0.70313,-0.0391 1.71875,-0.15625 0.82031,-0.0781 2.03125,-0.19531 1.21094,-0.11719 2.69531,-0.3125 -0.54687,0.27343 -0.9375,0.58593 -0.39062,0.3125 -0.66406,0.625 -0.3125,0.35157 -0.50781,0.70313 -0.27344,0.46875 -0.74219,1.64062 -0.42969,1.13282 -0.89844,2.53907 -0.42968,1.40625 -0.78125,2.85156 -0.3125,1.44531 -0.35156,2.46094 -0.0391,0.85937 -0.0781,1.95312 -0.0391,0.9375 -0.0781,2.30469 -0.0391,1.36719 -0.0781,3.125 2.8125,-2.03125 4.33593,-3.24219 1.52344,-1.25 2.22657,-1.91406 0.82031,-0.74219 0.97656,-1.05469 -0.0391,-0.23437 -0.19531,-0.50781 -0.19532,-0.23438 -0.54688,-0.54688 -0.35156,-0.3125 -1.05469,-0.70312 1.01563,0.11719 1.75782,0.15625 0.78125,0.0391 1.32812,0.0781 0.625,0.0391 1.09375,0 0.50781,0 1.25,-0.0391 1.28906,-0.0391 3.98438,-0.11719 -2.61719,1.36719 -4.14063,2.34375 -0.85937,0.54688 -1.52344,1.01563 -0.66406,0.50781 -1.36718,1.05469 -0.625,0.46875 -1.44532,1.09375 -0.78125,0.625 -1.5625,1.32812 1.36719,2.22656 2.38282,3.67188 1.05468,1.44531 1.75781,2.34375 0.82031,1.05468 1.44531,1.67968 0.625,0.58594 1.64063,1.32813 0.85937,0.66406 2.22656,1.5625 1.40625,0.85937 3.39844,1.99219 -1.01563,-0.19532 -1.95313,-0.27344 -0.9375,-0.0391 -1.60156,0 -0.82031,0.0391 -1.48438,0.15625 -0.70312,0.15625 -1.5625,0.39062 -0.74218,0.19532 -1.75781,0.50782 -0.97656,0.35156 -2.14844,0.89843 0.74219,-0.54687 1.09375,-1.05468 0.39063,-0.46875 0.54688,-0.78125 0.15625,-0.39063 0.11719,-0.66407 -0.19532,-0.39062 -0.89844,-1.60156 -0.66406,-1.01562 -1.95313,-2.96875 -1.28906,-1.95312 -3.67187,-5.3125 -0.11719,0.0391 -0.39063,0.23438 -0.23437,0.19531 -0.70312,0.54687 -0.46875,0.3125 -1.25,0.9375 l 1.05469,6.83594 q -0.35157,0.15625 -0.78125,0.27344 -0.39063,0.11718 -0.74219,0.19531 -0.42969,0.11719 -0.85938,0.15625 -0.42968,0.0391 -1.01562,0.15625 -0.50781,0.0781 -1.21094,0.19531 -0.70312,0.15625 -1.60156,0.35156 0.50781,-0.35156 0.82031,-0.82031 0.3125,-0.42969 0.50781,-0.82031 0.19532,-0.42969 0.35157,-0.89844 0.0781,-0.39062 0.15625,-2.03125 0.11718,-1.64062 0.19531,-3.90625 0.0781,-2.30469 0.11719,-4.92187 0.0781,-2.61719 0.0781,-4.92188 0,-2.34375 -0.0391,-4.0625 -0.0391,-1.75781 -0.15625,-2.26562 -0.19531,-0.625 -0.46875,-1.32813 -0.23438,-0.625 -0.66406,-1.40625 -0.39063,-0.82031 -0.97657,-1.75781 z"
         style="font-style:normal;font-variant:normal;font-weight:normal;font-stretch:normal;font-family:'Lakki Reddy';-inkscape-font-specification:'Lakki Reddy';fill:#ffaacc"
         id="path46"
         inkscape:connector-curvature="0" />
      <path
         d="m 229.67383,122.31533 7.1875,0.0781 q -0.625,2.38281 -0.9375,4.0625 -0.27344,1.67969 -0.35156,2.8125 -0.15625,1.28906 -0.0781,2.1875 0.11719,0.82031 0.39063,1.75781 0.23437,0.78125 0.70312,1.79688 0.46875,1.01562 1.25,2.03125 -0.46875,-0.15625 -1.01562,-0.23438 -0.54688,-0.0781 -1.01563,-0.11719 -0.54687,-0.0391 -1.09375,0 -0.54687,0.0391 -1.21094,0.11719 -0.54687,0.0781 -1.32812,0.19531 -0.78125,0.11719 -1.64063,0.3125 0.58594,-1.75781 0.89844,-3.04687 0.35156,-1.28906 0.50781,-2.14844 0.15625,-1.01562 0.19532,-1.64062 0,-0.78125 0,-1.75782 0,-1.01562 0,-1.95312 0,-0.9375 -0.0391,-1.64063 -0.0391,-0.74218 -0.15625,-0.9375 l -0.39062,-0.39062 q -0.23438,-0.19531 -0.70313,-0.54688 -0.42968,-0.39062 -1.17187,-0.9375 z m 2.77344,-6.01562 q 0.82031,-0.42969 1.64062,-0.23438 0.85938,0.19532 1.32813,0.74219 0.46875,0.54688 0.3125,1.28906 -0.11719,0.74219 -1.25,1.44532 -1.13282,0.66406 -1.99219,0.46875 -0.85938,-0.19532 -1.21094,-0.82032 -0.35156,-0.625 -0.11719,-1.44531 0.23438,-0.85937 1.28907,-1.44531 z"
         style="font-style:normal;font-variant:normal;font-weight:normal;font-stretch:normal;font-family:'Lakki Reddy';-inkscape-font-specification:'Lakki Reddy';fill:#ffaacc"
         id="path48"
         inkscape:connector-curvature="0" />
      <path
         d="m 240.18164,140.87002 q 0.39063,-0.58594 0.625,-1.09375 0.23438,-0.50781 0.39063,-0.85937 0.15625,-0.42969 0.23437,-0.78125 0.0391,-0.23438 0.0391,-1.36719 0,-1.13281 -0.0781,-2.85156 -0.0391,-1.71875 -0.11719,-3.86719 -0.0391,-2.14844 -0.15625,-4.375 -0.0781,-2.22656 -0.19531,-4.33594 -0.0781,-2.10937 -0.15625,-3.78906 -0.0781,-1.71875 -0.15625,-2.8125 -0.0781,-1.09375 -0.11719,-1.25 -0.0781,-0.23438 -0.27344,-0.46875 -0.39062,-0.46875 -1.32812,-0.89844 1.99219,-0.50781 3.04687,-0.82031 0.625,-0.15625 1.09375,-0.3125 0.42969,-0.15625 0.85938,-0.3125 0.35156,-0.15625 0.78125,-0.35156 0.42969,-0.23438 0.78125,-0.50782 -0.19531,1.13282 -0.3125,2.1875 -0.11719,1.05469 -0.19531,1.95313 -0.0781,1.01562 -0.0781,1.95312 -0.19531,1.91407 -0.23437,4.17969 0,2.22656 0.0391,4.53125 0.0391,2.30469 0.15625,4.49219 0.11719,2.1875 0.23437,3.98437 0.15625,1.75782 0.27344,3.00782 0.15625,1.21093 0.23438,1.5625 0.15625,0.58593 0.3125,1.13281 0.15625,0.46875 0.35156,0.97656 0.19531,0.54688 0.46875,0.85938 h -3.78906 q -0.50782,0 -0.97657,0.0391 -0.42968,0.0391 -0.89843,0.0781 -0.46875,0.0391 -0.85938,0.11719 z"
         style="font-style:normal;font-variant:normal;font-weight:normal;font-stretch:normal;font-family:'Lakki Reddy';-inkscape-font-specification:'Lakki Reddy';fill:#ffaacc"
         id="path50"
         inkscape:connector-curvature="0" />
      <path
         d="m 249.00977,140.87002 q 0.39062,-0.58594 0.625,-1.09375 0.23437,-0.50781 0.39062,-0.85937 0.15625,-0.42969 0.23438,-0.78125 0.0391,-0.23438 0.0391,-1.36719 0,-1.13281 -0.0781,-2.85156 -0.0391,-1.71875 -0.11718,-3.86719 -0.0391,-2.14844 -0.15625,-4.375 -0.0781,-2.22656 -0.19532,-4.33594 -0.0781,-2.10937 -0.15625,-3.78906 -0.0781,-1.71875 -0.15625,-2.8125 -0.0781,-1.09375 -0.11718,-1.25 -0.0781,-0.23438 -0.27344,-0.46875 -0.39063,-0.46875 -1.32813,-0.89844 1.99219,-0.50781 3.04688,-0.82031 0.625,-0.15625 1.09375,-0.3125 0.42969,-0.15625 0.85937,-0.3125 0.35157,-0.15625 0.78125,-0.35156 0.42969,-0.23438 0.78125,-0.50782 -0.19531,1.13282 -0.3125,2.1875 -0.11718,1.05469 -0.19531,1.95313 -0.0781,1.01562 -0.0781,1.95312 -0.19532,1.91407 -0.23438,4.17969 0,2.22656 0.0391,4.53125 0.0391,2.30469 0.15625,4.49219 0.11719,2.1875 0.23438,3.98437 0.15625,1.75782 0.27344,3.00782 0.15625,1.21093 0.23437,1.5625 0.15625,0.58593 0.3125,1.13281 0.15625,0.46875 0.35156,0.97656 0.19532,0.54688 0.46875,0.85938 h -3.78906 q -0.50781,0 -0.97656,0.0391 -0.42969,0.0391 -0.89844,0.0781 -0.46875,0.0391 -0.85937,0.11719 z"
         style="font-style:normal;font-variant:normal;font-weight:normal;font-stretch:normal;font-family:'Lakki Reddy';-inkscape-font-specification:'Lakki Reddy';fill:#ffaacc"
         id="path52"
         inkscape:connector-curvature="0" />
      <path
         d="m 267.0957,133.48721 q 1.09375,0 2.03125,-0.23438 0.78125,-0.19531 1.48438,-0.625 0.74219,-0.46875 0.97656,-1.36718 0.78125,0.15625 1.32813,0.27343 0.54687,0.0781 0.9375,0.15625 0.42968,0.11719 0.74218,0.15625 0.3125,0.0781 0.74219,0.15625 0.39063,0.0781 0.9375,0.19532 0.58594,0.0781 1.36719,0.23437 -0.58594,-0.0781 -1.21094,0.11719 -0.58594,0.19531 -1.13281,0.42969 -0.625,0.27343 -1.17188,0.66406 -0.35156,0.23437 -0.82031,0.70312 -0.42969,0.46875 -1.25,0.89844 -0.82031,0.42969 -2.1875,0.74219 -1.32812,0.27344 -3.4375,0.19531 -2.53906,-0.0781 -4.25781,-0.89844 -1.71875,-0.85937 -2.77344,-2.07031 -1.05469,-1.25 -1.52344,-2.69531 -0.46875,-1.44531 -0.50781,-2.69531 -0.0391,-1.25 0.74219,-2.61719 0.78125,-1.36719 2.1875,-2.5 1.44531,-1.13281 3.47656,-1.83594 2.03125,-0.74219 4.45313,-0.74219 1.40625,0 2.57812,0.35157 1.21094,0.3125 2.1875,0.85937 1.01563,0.54688 1.75781,1.25 0.74219,0.66406 1.25,1.36719 0.50782,0.74219 0.85938,1.5625 0.3125,0.70312 0.50781,1.60156 0.19531,0.89844 0.11719,1.83594 -2.96875,0.0781 -4.80469,0.11719 -1.79687,0.0391 -2.8125,0.0391 h -1.75781 -1.32813 q -0.70312,0 -1.83593,0.0391 -1.13282,0.0391 -2.77344,0.11719 0.19531,1.5625 0.97656,2.42187 0.82031,0.82032 1.71875,1.25 1.01563,0.46875 2.22656,0.54688 z m -3.51562,-7.03125 q 1.25,0.0781 2.07031,0.11719 0.85938,0.0391 1.40625,0.0781 0.58594,0.0391 0.9375,0.0391 h 0.97656 q 0.97657,0 3.63282,-0.11718 -0.11719,-1.71875 -0.74219,-2.61719 -0.58594,-0.89844 -1.25,-1.32813 -0.78125,-0.46875 -1.71875,-0.54687 -2.53906,0.0391 -3.78906,1.05469 -1.21094,1.01562 -1.52344,3.32031 z"
         style="font-style:normal;font-variant:normal;font-weight:normal;font-stretch:normal;font-family:'Lakki Reddy';-inkscape-font-specification:'Lakki Reddy';fill:#ffaacc"
         id="path54"
         inkscape:connector-curvature="0" />
      <path
         d="m 298.22852,109.8544 q 0.74218,0.0391 1.60156,0.0391 0.74219,0 1.67969,0.0391 0.97656,0 2.03125,-0.0781 -0.9375,0.42968 -1.64063,1.25 -0.70312,0.82031 -1.13281,1.64062 -0.54688,0.97656 -0.89844,2.03125 -0.19531,0.625 -0.3125,2.22656 -0.11719,1.5625 -0.19531,3.67188 -0.0391,2.10937 -0.0391,4.45312 0,2.34375 0.0391,4.49219 0.0391,2.10938 0.11719,3.75 0.0781,1.64063 0.19531,2.30469 0.15625,0.78125 0.39062,1.48437 0.19532,0.625 0.50782,1.28907 0.3125,0.625 0.78125,1.01562 l -3.98438,1.79688 q -0.3125,-0.42969 -0.50781,-0.89844 -0.19531,-0.42969 -0.3125,-0.78125 -0.15625,-0.42969 -0.19531,-0.78125 -0.0781,-0.46875 -0.15625,-1.01563 -0.0781,-0.58593 -0.19532,-1.09375 -0.0781,-0.54687 -0.11718,-0.89843 -0.0391,-0.35157 0,-0.42969 0.0391,-0.0781 -0.46875,0.70312 -0.50782,0.74219 -1.52344,1.75782 -0.97656,0.97656 -2.42188,1.91406 -1.44531,0.89844 -3.24218,1.13281 -1.83594,0.23438 -3.39844,-0.70312 -1.52344,-0.9375 -2.61719,-2.61719 -1.09375,-1.71875 -1.67969,-3.94531 -0.54687,-2.26563 -0.42968,-4.60938 0.0781,-1.5625 0.70312,-2.77344 0.625,-1.25 1.5625,-2.14843 0.97656,-0.9375 2.10938,-1.5625 1.17187,-0.66407 2.26562,-1.09375 1.13281,-0.42969 2.10938,-0.625 0.97656,-0.19532 1.5625,-0.27344 0.70312,-0.0391 1.60156,0.23437 0.78125,0.23438 1.79687,0.78125 1.05469,0.54688 2.34375,1.64063 -0.23437,-3.90625 -0.42968,-6.25 -0.19532,-2.38281 -0.39063,-3.63281 -0.19531,-1.48438 -0.35156,-2.03125 -0.19531,-0.39063 -0.50781,-0.78125 -0.27344,-0.3125 -0.70313,-0.625 -0.39062,-0.35157 -0.9375,-0.54688 1.01563,0.19531 1.95313,0.27344 0.9375,0.0781 1.71875,0.15625 0.89843,0.0781 1.71875,0.11719 z m -9.80469,14.57031 q -0.74219,0.27344 -1.21094,0.9375 -0.42969,0.66406 -0.70312,1.60156 -0.27344,0.89844 -0.39063,1.95313 -0.0781,1.01562 -0.11719,1.99218 0,0.9375 0,1.71875 0,0.78125 0,1.17188 0,0.23437 0.0781,0.85937 0.11719,0.58594 0.46875,1.25 0.35156,0.625 0.97656,1.13282 0.66406,0.50781 1.75781,0.50781 0.89844,-0.0781 1.91407,-0.625 0.89843,-0.46875 2.03125,-1.48438 1.17187,-1.05468 2.5,-3.00781 -0.0781,-1.25 -0.11719,-2.07031 0,-0.82031 -0.0391,-1.32813 -0.0391,-0.58593 -0.0391,-0.9375 v -0.58593 q 0,-0.23438 0,-0.50782 0,-0.27343 0.0391,-0.50781 -1.09375,-0.78125 -1.95313,-1.32812 -0.82031,-0.58594 -1.64062,-0.85938 -0.78125,-0.3125 -1.64063,-0.27344 -0.82031,0 -1.91406,0.39063 z"
         style="font-style:normal;font-variant:normal;font-weight:normal;font-stretch:normal;font-family:'Lakki Reddy';-inkscape-font-specification:'Lakki Reddy';fill:#ffaacc"
         id="path56"
         inkscape:connector-curvature="0" />
      <path
         d="m 312.4082,112.3544 q 0.89844,0.23437 1.64063,0.35156 0.78125,0.0781 1.32812,0.11719 0.66407,0.0391 1.21094,0.0391 0.54688,0 1.36719,-0.0781 1.44531,-0.11718 4.10156,-0.58593 -0.42969,0.3125 -0.82031,0.625 -0.35156,0.27343 -0.625,0.54687 l -0.58594,0.58594 q -0.50781,0.70312 -1.01562,2.38281 -0.42969,1.44531 -0.9375,4.0625 -0.46875,2.61719 -0.85938,6.95313 1.91406,-1.875 3.59375,-2.8125 1.71875,-0.97657 3.00781,-1.40625 1.52344,-0.46875 2.77344,-0.50782 1.60156,0.11719 2.77344,0.66407 1.21094,0.50781 2.03125,1.25 0.85937,0.70312 1.36719,1.48437 0.54687,0.74219 0.82031,1.32813 0.15625,0.39062 0.23437,1.44531 0.11719,1.01562 0.0391,2.34375 -0.0781,1.32812 -0.42969,2.8125 -0.3125,1.44531 -1.05469,2.69531 -0.70312,1.21094 -1.875,2.03125 -1.13281,0.82031 -2.85156,0.89844 -1.99219,0 -3.86719,-0.46875 -1.60156,-0.39063 -3.39844,-1.36719 -1.75781,-1.01562 -3.00781,-2.89062 0,0.46875 0,0.9375 0,0.42968 0.0391,0.74218 0.0391,0.42969 0.0781,0.74219 0.0391,0.35156 0.19531,0.74219 0.11719,0.3125 0.35156,0.78125 0.27344,0.42969 0.70313,0.85937 -0.42969,-0.0391 -0.85938,-0.0391 -0.42968,-0.0391 -0.85937,0 -0.46875,0.0391 -0.9375,0.0781 -0.46875,0.0391 -0.97656,0.11718 -0.42969,0.0781 -1.01563,0.19532 -0.58594,0.11718 -1.21094,0.27343 0.11719,-0.35156 0.19532,-1.01562 0.0781,-0.70313 0.15625,-1.52344 0.11718,-0.85937 0.15625,-1.79687 0.0781,-0.9375 0.15625,-1.875 0.15625,-2.14844 0.27343,-4.6875 0.11719,-3.94532 0.0391,-7.34375 -0.0391,-1.44532 -0.15625,-2.92969 -0.0781,-1.48438 -0.23438,-2.77344 -0.15625,-1.32812 -0.42969,-2.34375 -0.23437,-1.05469 -0.625,-1.64062 z m 5.07813,19.02343 q 0.625,1.13282 1.32812,1.95313 0.70313,0.78125 1.40625,1.32812 0.70313,0.54688 1.36719,0.85938 0.70313,0.3125 1.32813,0.46875 1.44531,0.39062 2.85156,0.0781 1.40625,-0.39062 2.1875,-1.5625 0.78125,-1.17187 1.21094,-2.65625 0.19531,-0.70312 0.23437,-1.79687 0.0781,-1.09375 -0.23437,-2.10938 -0.27344,-1.05468 -1.01563,-1.83593 -0.74219,-0.82032 -2.14844,-0.97657 -0.97656,0 -2.26562,0.54688 -1.13281,0.46875 -2.69531,1.5625 -1.5625,1.05469 -3.55469,3.16406 z"
         style="font-style:normal;font-variant:normal;font-weight:normal;font-stretch:normal;font-family:'Lakki Reddy';-inkscape-font-specification:'Lakki Reddy';fill:#ffaacc"
         id="path58"
         inkscape:connector-curvature="0" />
      <path
         d="m 333.69727,119.81533 q 0.78125,0.11719 1.40625,0.19532 0.58593,0.0391 1.05468,0.0781 0.50782,0.0391 0.97657,0.0391 0.42968,0 1.09375,-0.0391 0.54687,-0.0391 1.40625,-0.0781 0.89843,-0.0781 2.10937,-0.19532 -0.0781,0.15625 -0.3125,0.97657 -0.23437,0.78125 -0.46875,1.95312 -0.23437,1.13281 -0.42969,2.53906 -0.15625,1.36719 -0.15625,2.73438 0.0391,1.32812 0.35157,2.53906 0.3125,1.17188 1.01562,1.91406 1.48438,1.52344 2.61719,1.83594 1.17187,0.3125 2.03125,-0.0781 0.85937,-0.39063 1.40625,-1.17188 0.54687,-0.78125 0.78125,-1.44531 0.58594,-1.79688 0.70312,-3.78906 0.0781,-1.71875 -0.27343,-3.82813 -0.35157,-2.10937 -1.67969,-4.29687 1.01562,0.0781 1.75781,0.11718 0.74219,0.0391 1.28906,0.0781 0.625,0.0391 1.09375,0.0781 0.42969,0.0391 1.01563,0 0.50781,0 1.21094,-0.0391 0.74218,-0.0781 1.64062,-0.15625 0.15625,3.82813 0.27344,6.83594 0.11719,2.96875 0.15625,5.27344 0.0781,2.26562 0.0781,3.94531 0,1.64062 0,2.77344 -0.0391,2.69531 -0.23437,3.55468 -0.3125,1.21094 -1.13281,2.42188 -0.78125,1.21094 -1.99219,2.14844 -1.21094,0.97656 -2.8125,1.48437 -1.5625,0.54688 -3.4375,0.39063 -1.83594,-0.15625 -2.92969,-0.50782 -1.05469,-0.3125 -1.67969,-0.74218 -0.58593,-0.42969 -0.85937,-0.89844 -0.23438,-0.46875 -0.35156,-0.97656 -0.11719,-0.46875 -0.23438,-0.89844 -0.11719,-0.42969 -0.46875,-0.74219 -0.42969,-0.35156 -0.89844,-0.70312 -0.42968,-0.3125 -0.9375,-0.625 -0.46875,-0.3125 -0.9375,-0.50782 l 8.32032,-0.46875 q -0.35157,0.46875 -0.50782,0.85938 -0.15625,0.39062 -0.19531,0.66406 -0.0391,0.35156 0.0391,0.58594 0.15625,0.46875 0.54688,1.01562 0.42969,0.58594 1.09375,0.89844 0.66406,0.35156 1.5625,0.23438 0.9375,-0.11719 2.10937,-0.97657 0.97657,-0.74218 1.64063,-2.38281 0.54687,-1.40625 0.85937,-3.94531 0.3125,-2.53906 -0.11718,-6.67969 -0.70313,2.42188 -1.91407,3.71094 -1.21093,1.28906 -2.42187,1.875 -1.40625,0.70312 -2.92969,0.74219 -2.03125,-0.0781 -3.47656,-0.50782 -1.44531,-0.46875 -2.38281,-1.25 -0.9375,-0.78125 -1.48438,-1.83593 -0.50781,-1.09375 -0.74219,-2.42188 -0.23437,-1.32812 -0.23437,-2.65625 0,-1.36719 0,-2.53906 0.0391,-1.17188 0.0391,-2.10938 0,-0.97656 -0.19531,-1.5625 -0.23438,-0.58593 -0.625,-1.17187 -0.3125,-0.50781 -0.85938,-1.09375 -0.58593,-0.625 -1.36718,-1.17188 z"
         style="font-style:normal;font-variant:normal;font-weight:normal;font-stretch:normal;font-family:'Lakki Reddy';-inkscape-font-specification:'Lakki Reddy';fill:#ffaacc"
         id="path60"
         inkscape:connector-curvature="0" />
      <path
         d="m 362.25195,135.4794 q 1.40625,-0.19532 2.1875,0.46875 0.82032,0.66406 0.78125,1.83593 -0.0391,0.58594 -0.23437,0.9375 -0.19531,0.35157 -0.54688,0.54688 -0.3125,0.15625 -0.78125,0.27344 -0.42968,0.0781 -1.01562,0.15625 -0.58594,0.11718 -1.13281,-0.0391 -0.54688,-0.19531 -0.97657,-0.54687 -0.42968,-0.35156 -0.70312,-0.78125 -0.23438,-0.42969 -0.23438,-0.85938 0,-0.46875 0.23438,-0.78125 0.27344,-0.35156 0.66406,-0.58593 0.42969,-0.27344 0.85938,-0.39063 0.46875,-0.15625 0.89843,-0.23437 z m 2.5,-9.02344 q 0.27344,0.46875 0.3125,1.01562 0.0781,0.50782 -0.0781,1.01563 -0.15625,0.50781 -0.54688,0.97656 -0.35156,0.46875 -0.9375,0.74219 -1.25,0.58594 -2.22656,0.3125 -0.97656,-0.27344 -1.48437,-1.01563 -0.27344,-0.39062 -0.3125,-0.85937 0,-0.50781 0.19531,-0.97656 0.23437,-0.50782 0.66406,-0.9375 0.42969,-0.42969 1.09375,-0.70313 1.28906,-0.54687 2.10938,-0.35156 0.85937,0.15625 1.21093,0.78125 z"
         style="font-style:normal;font-variant:normal;font-weight:normal;font-stretch:normal;font-family:'Lakki Reddy';-inkscape-font-specification:'Lakki Reddy';fill:#ffaacc"
         id="path62"
         inkscape:connector-curvature="0" />
    </g>
  </g>
</svg>
