<?xml version="1.0" encoding="UTF-8" standalone="no"?>
<!-- Created with Inkscape (http://www.inkscape.org/) -->

<svg
   xmlns:dc="http://purl.org/dc/elements/1.1/"
   xmlns:cc="http://creativecommons.org/ns#"
   xmlns:rdf="http://www.w3.org/1999/02/22-rdf-syntax-ns#"
   xmlns:svg="http://www.w3.org/2000/svg"
   xmlns="http://www.w3.org/2000/svg"
   xmlns:sodipodi="http://sodipodi.sourceforge.net/DTD/sodipodi-0.dtd"
   xmlns:inkscape="http://www.inkscape.org/namespaces/inkscape"
   width="155.44356"
   height="126.74041"
   viewBox="0 0 41.127775 33.533401"
   version="1.1"
   id="svg8"
   inkscape:version="0.92.1 r15371"
   sodipodi:docname="eagle.svg">
  <defs
     id="defs2">
    <inkscape:path-effect
       effect="spiro"
       id="path-effect4662"
       is_visible="true" />
    <inkscape:path-effect
       effect="spiro"
       id="path-effect4658"
       is_visible="true" />
    <inkscape:path-effect
       effect="spiro"
       id="path-effect4619"
       is_visible="true" />
  </defs>
  <sodipodi:namedview
     id="base"
     pagecolor="#ffffff"
     bordercolor="#666666"
     borderopacity="1.0"
     inkscape:pageopacity="0.0"
     inkscape:pageshadow="2"
     inkscape:zoom="2"
     inkscape:cx="-133.66484"
     inkscape:cy="60.36524"
     inkscape:document-units="px"
     inkscape:current-layer="layer1"
     showgrid="false"
     units="px"
     inkscape:window-width="1920"
     inkscape:window-height="1018"
     inkscape:window-x="-8"
     inkscape:window-y="-8"
     inkscape:window-maximized="1"
     inkscape:snap-global="false"
     showguides="false" />
  <metadata
     id="metadata5">
    <rdf:RDF>
      <cc:Work
         rdf:about="">
        <dc:format>image/svg+xml</dc:format>
        <dc:type
           rdf:resource="http://purl.org/dc/dcmitype/StillImage" />
        <dc:title />
      </cc:Work>
    </rdf:RDF>
  </metadata>
  <g
     inkscape:label="Layer 1"
     inkscape:groupmode="layer"
     id="layer1"
     transform="translate(-53.631436,-164.86473)">
    <path
       style="fill:#502d16;fill-rule:evenodd;stroke:none;stroke-width:0.20438963;stroke-linecap:butt;stroke-linejoin:miter;stroke-miterlimit:4;stroke-dasharray:none;stroke-opacity:1"
       d="m 63.523827,183.94893 c 2.720923,-2.53597 -5.640894,-9.24539 -4.135209,-11.69086 0.803189,-1.30469 0.803386,-7.38736 2.267368,-7.39334 -0.06119,0.13781 -0.493801,1.68727 0.530259,0.76183 0.221119,-0.19974 -0.03414,1.27889 0.776956,1.08583 0.155139,1.49569 0.394854,0.10974 0.458053,0.36251 0.302962,1.21188 0.632392,0.19877 0.617559,0.40894 -0.08488,1.20188 0.573504,0.23361 0.535012,0.51389 -0.139462,1.01584 0.640249,0.30895 0.57457,0.49847 -0.313751,0.90335 0.511715,0.33588 0.435411,0.54405 -0.289688,0.79054 0.48886,0.19159 0.43199,0.43456 -0.226718,0.96894 0.406238,0.49192 0.399655,0.68316 -0.0223,0.64852 0.377504,0.36335 0.555827,0.62378 3.240122,4.73181 3.577873,10.30602 3.630648,11.87605 0.02173,1.77884 -0.45916,3.76975 -2.860452,4.41951 -2.068508,-0.28563 -2.624233,-0.91973 -4.217551,-3.12847 z"
       id="path4644-7"
       inkscape:connector-curvature="0"
       sodipodi:nodetypes="cscscssssssssccc" />
    <path
       style="fill:#502d16;fill-rule:evenodd;stroke:none;stroke-width:0.12827154;stroke-linecap:butt;stroke-linejoin:miter;stroke-miterlimit:4;stroke-dasharray:none;stroke-opacity:1"
       d="m 76.620294,188.0742 c -0.391489,0.57474 -3.110419,1.17011 -3.288895,2.76405 1.907989,3.67825 3.347975,3.02533 6.104746,3.78855 0.930197,0.2331 2.953562,1.04954 2.561286,0.0289 -0.08505,-0.19945 -0.449372,-0.33241 -0.410864,-0.58894 0.0375,-0.24983 0.484122,-0.10634 0.538957,-0.35109 0.07052,-0.31471 -0.487148,-0.52969 -0.40384,-0.83943 0.07701,-0.2863 0.579592,-0.0531 0.671371,-0.33242 0.101201,-0.30802 -0.398955,-0.59816 -0.318957,-0.91587 0.06549,-0.26008 0.705449,-0.22581 0.556816,-0.42468 -1.127362,-1.50829 -5.765421,-3.44406 -6.01062,-3.12904 z"
       id="path4644-55"
       inkscape:connector-curvature="0"
       sodipodi:nodetypes="ccccaaaaascc" />
    <path
       style="fill:#502d16;fill-rule:evenodd;stroke:none;stroke-width:0.24136123;stroke-linecap:butt;stroke-linejoin:miter;stroke-miterlimit:4;stroke-dasharray:none;stroke-opacity:1"
       d="m 74.287831,180.69342 c 5.768713,0.27011 5.054934,-9.30243 9.46979,-9.78117 2.355267,-0.25549 9.491511,-3.92205 11.00159,-2.95781 -0.224499,0.0426 -2.486452,0.69065 -0.349336,0.80979 0.461351,0.0258 -1.535407,0.74836 -0.476165,1.16819 -1.595427,1.00418 0.276657,0.32719 0.04495,0.52135 -1.110679,0.93082 0.416089,0.5379 0.154302,0.65478 -1.497171,0.6684 0.314745,0.51997 -0.05362,0.66349 -1.334935,0.52014 0.294906,0.6095 0.005,0.68032 -1.381917,0.33713 0.13133,0.54077 -0.191227,0.61581 -1.22487,0.28504 0.277151,0.43867 -0.06631,0.54755 -1.369505,0.4342 -0.16002,0.5651 -0.39113,0.67603 -0.783732,0.37619 -0.03865,0.4686 -0.161152,0.74348 -2.224572,4.99443 -8.417334,8.57791 -10.205069,9.55923 -2.064577,1.08666 -4.893999,1.96889 -8.121694,0.77308 -1.788645,-1.53968 -1.615311,-2.28931 -0.65993,-4.67411 z"
       id="path4644"
       inkscape:connector-curvature="0"
       sodipodi:nodetypes="cscscssssssssccc" />
    <circle
       style="fill:#502d16;fill-opacity:1;stroke:none;stroke-width:0.14615224;stroke-miterlimit:4;stroke-dasharray:none;stroke-opacity:1"
       id="path815"
       cx="70.924446"
       cy="187.48405"
       r="9.732399" />
    <path
       style="fill:#784421;fill-opacity:1;stroke:none;stroke-width:0.13061272;stroke-miterlimit:4;stroke-dasharray:none;stroke-opacity:1"
       d="m 79.040261,187.38076 c 0.01762,1.4339 -0.711288,2.9902 -1.650668,3.89319 -1.506351,1.44798 -4.203331,1.89867 -6.675135,2.23288 -2.541208,0.26817 -5.936301,-0.39193 -7.659536,-1.65522 -1.415803,-1.12653 -1.344012,-3.70645 -1.37999,-5.15486 -0.0761,-3.06348 4.021221,-8.72726 8.925095,-8.72726 4.903881,0 8.440234,3.31991 8.440234,9.41127 z"
       id="circle4619"
       inkscape:connector-curvature="0"
       sodipodi:nodetypes="csccssc" />
    <path
       style="fill:#784421;fill-opacity:1;stroke:none;stroke-width:0.10594843;stroke-miterlimit:4;stroke-dasharray:none;stroke-opacity:1"
       d="m 91.478272,169.47358 c 0.809242,0.004 0.497973,3.56319 -0.339872,5.90104 -1.078014,2.26145 -3.052789,4.19542 -4.253382,5.3716 -0.846841,0.57943 -6.597741,4.58866 -9.353006,4.53872 -2.430304,-0.0441 -0.682456,-3.89573 -1.023575,-4.08569 2.676123,-0.96134 5.763368,-8.84363 6.760124,-9.08025 4.449028,-1.46424 6.116215,-2.66676 8.209711,-2.64542 z"
       id="circle4619-8-5"
       inkscape:connector-curvature="0"
       sodipodi:nodetypes="cccsccc"
       inkscape:transform-center-x="-1.6253127"
       inkscape:transform-center-y="-3.5570878" />
    <path
       style="fill:#c8ab37;fill-rule:evenodd;stroke:none;stroke-width:0.06550759;stroke-linecap:butt;stroke-linejoin:miter;stroke-miterlimit:4;stroke-dasharray:none;stroke-opacity:1"
       d="m 66.920325,196.01372 c 0.987334,0.15604 -0.06807,1.92986 -1.192976,2.26577 -0.139427,0.0416 0.09756,-0.77515 -0.04431,-0.77149 -0.183552,0.005 -0.655678,0.77581 -0.829296,0.68509 -0.142194,-0.15732 0.189945,-0.83188 0.167158,-1.00954 -0.0087,-0.0676 -0.699556,0.62428 -0.693638,0.55599 0.09307,-1.07404 2.156612,-2.49114 2.593063,-1.72582 z"
       id="path4644-5"
       inkscape:connector-curvature="0"
       sodipodi:nodetypes="csscssc" />
    <path
       style="fill:#a0892c;fill-rule:evenodd;stroke:none;stroke-width:0.06400829;stroke-linecap:butt;stroke-linejoin:miter;stroke-miterlimit:4;stroke-dasharray:none;stroke-opacity:1"
       d="m 75.117463,196.131 c -0.942656,0.15604 0.06499,1.92986 1.138993,2.26577 0.133117,0.0416 -0.107639,-0.88437 0.02781,-0.88071 0.175246,0.005 0.640503,0.88503 0.806265,0.79431 0.13576,-0.15732 -0.211948,-0.97666 -0.190192,-1.15432 0.0083,-0.0676 0.698499,0.76906 0.692848,0.70077 -0.08886,-1.07404 -2.059023,-2.49114 -2.475724,-1.72582 z"
       id="path4644-5-4"
       inkscape:connector-curvature="0"
       sodipodi:nodetypes="csscssc" />
    <path
       style="fill:#ececec;fill-opacity:1;stroke:none;stroke-width:0.06788995;stroke-miterlimit:4;stroke-dasharray:none;stroke-opacity:1"
       d="m 94.155813,167.91674 c -0.302767,0.29266 -1.492443,0.676 -1.734603,0.86772 -2.200898,1.52846 -6.865264,3.91591 -6.302673,2.54169 0.670329,-0.74439 7.179832,-3.56271 8.037276,-3.40941 z"
       id="circle4619-8-5-4"
       inkscape:connector-curvature="0"
       sodipodi:nodetypes="cccc"
       inkscape:transform-center-x="3.3908543"
       inkscape:transform-center-y="0.059886449" />
    <path
       style="fill:#ececec;fill-opacity:1;stroke:none;stroke-width:0.06354016;stroke-miterlimit:4;stroke-dasharray:none;stroke-opacity:1"
       d="m 94.154109,168.85797 c -0.312506,0.24481 -1.488888,0.51575 -1.735989,0.67338 -2.231411,1.23972 -6.903146,3.09926 -6.2666,1.89587 0.69838,-0.62894 7.183623,-2.76118 8.002589,-2.56925 z"
       id="circle4619-8-5-4-1"
       inkscape:connector-curvature="0"
       sodipodi:nodetypes="cccc"
       inkscape:transform-center-x="3.2768215"
       inkscape:transform-center-y="-0.15111836" />
    <path
       style="fill:#ececec;fill-opacity:1;stroke:none;stroke-width:0.05905166;stroke-miterlimit:4;stroke-dasharray:none;stroke-opacity:1"
       d="m 93.72532,169.88606 c -0.296356,0.21866 -1.383716,0.42841 -1.616488,0.56741 -2.094035,1.08209 -5.967805,2.71352 -5.901713,1.55886 0.197147,-0.57177 2.233938,-1.35902 4.139293,-1.87167 1.401167,-0.377 3.065123,-0.34476 3.378908,-0.2546 z"
       id="circle4619-8-5-4-7"
       inkscape:connector-curvature="0"
       sodipodi:nodetypes="cccsc"
       inkscape:transform-center-x="2.9856332"
       inkscape:transform-center-y="-0.26543503" />
    <ellipse
       style="opacity:1;fill:#502d16;fill-opacity:1;stroke:none;stroke-width:0.07521256;stroke-miterlimit:4;stroke-dasharray:none;stroke-opacity:1"
       id="path4624"
       cx="66.080444"
       cy="196.11119"
       rx="1.5847902"
       ry="1.4203308" />
    <ellipse
       style="opacity:1;fill:#502d16;fill-opacity:1;stroke:none;stroke-width:0.08176155;stroke-miterlimit:4;stroke-dasharray:none;stroke-opacity:1"
       id="path4624-2"
       cx="75.693832"
       cy="196.11121"
       rx="1.7791514"
       ry="1.495085" />
    <ellipse
       style="opacity:1;fill:#784421;fill-opacity:1;stroke:none;stroke-width:0.05498541;stroke-miterlimit:4;stroke-dasharray:none;stroke-opacity:1"
       id="path4624-2-0"
       cx="75.574234"
       cy="195.96169"
       rx="1.1661665"
       ry="1.0316086" />
    <path
       style="fill:#ececec;fill-opacity:1;stroke:none;stroke-width:0.05557522;stroke-miterlimit:4;stroke-dasharray:none;stroke-opacity:1"
       d="m 93.687499,170.59988 c -0.21224,0.32659 -1.180094,0.56591 -1.519839,0.732 -2.149158,0.65492 -5.248087,2.0878 -5.567498,1.33077 -0.169193,-0.4872 2.100136,-1.50001 3.925333,-1.97402 1.34222,-0.34858 2.668946,0.057 3.162004,-0.0887 z"
       id="circle4619-8-5-4-7-3"
       inkscape:connector-curvature="0"
       sodipodi:nodetypes="cccsc"
       inkscape:transform-center-x="2.8600283"
       inkscape:transform-center-y="-0.24542715" />
    <path
       style="fill:#ececec;fill-opacity:1;stroke:none;stroke-width:0.05557522;stroke-miterlimit:4;stroke-dasharray:none;stroke-opacity:1"
       d="m 93.863902,171.15411 c -0.21224,0.32659 -1.180094,0.56591 -1.519839,0.732 -2.149158,0.65492 -5.248087,2.0878 -5.567498,1.33077 -0.169193,-0.4872 2.100136,-1.50001 3.925333,-1.97402 1.34222,-0.34858 2.668946,0.057 3.162004,-0.0887 z"
       id="circle4619-8-5-4-7-3-6"
       inkscape:connector-curvature="0"
       sodipodi:nodetypes="cccsc"
       inkscape:transform-center-x="2.8600283"
       inkscape:transform-center-y="-0.24542715" />
    <path
       style="fill:#ececec;fill-opacity:1;stroke:none;stroke-width:0.05035363;stroke-miterlimit:4;stroke-dasharray:none;stroke-opacity:1"
       d="m 93.868301,171.72903 c 0.140009,0.10559 -1.084514,0.57022 -1.391301,0.6894 -1.785411,0.59491 -4.877212,2.00077 -5.11368,1.23531 -0.122344,-0.49162 2.39422,-1.50067 3.907723,-1.92376 1.113005,-0.31113 2.14108,-0.11005 2.597256,-9e-4 z"
       id="circle4619-8-5-4-7-3-63"
       inkscape:connector-curvature="0"
       sodipodi:nodetypes="cccscc"
       inkscape:transform-center-x="2.3346852"
       inkscape:transform-center-y="-0.34510077" />
    <path
       style="fill:#ececec;fill-opacity:1;stroke:none;stroke-width:0.05035363;stroke-miterlimit:4;stroke-dasharray:none;stroke-opacity:1"
       d="m 93.785805,172.39261 c 0.129961,0.11773 -1.131336,0.47053 -1.447585,0.56168 -1.831619,0.43218 -5.037169,1.55474 -5.203947,0.77113 -0.07771,-0.50062 2.519301,-1.27961 4.064681,-1.56509 1.136447,-0.20993 2.142313,0.0827 2.586845,0.23233 z"
       id="circle4619-8-5-4-7-3-63-6"
       inkscape:connector-curvature="0"
       sodipodi:nodetypes="cccscc"
       inkscape:transform-center-x="2.2912458"
       inkscape:transform-center-y="-0.59962309" />
    <path
       style="fill:#ececec;fill-opacity:1;stroke:none;stroke-width:0.05035363;stroke-miterlimit:4;stroke-dasharray:none;stroke-opacity:1"
       d="m 93.68651,172.9495 c 0.13553,0.11128 -1.107127,0.52497 -1.418571,0.63139 -1.808445,0.5207 -4.95564,1.79775 -5.160311,1.02318 -0.101948,-0.49625 2.454121,-1.40057 3.983798,-1.76082 1.124899,-0.26493 2.143798,-0.0216 2.59508,0.1063 z"
       id="circle4619-8-5-4-7-3-63-0"
       inkscape:connector-curvature="0"
       sodipodi:nodetypes="cccscc"
       inkscape:transform-center-x="2.3169986"
       inkscape:transform-center-y="-0.46086136" />
    <path
       style="fill:#ececec;fill-opacity:1;stroke:none;stroke-width:0.04627864;stroke-miterlimit:4;stroke-dasharray:none;stroke-opacity:1"
       d="m 93.620064,173.539 c 0.102338,0.12678 -0.981754,0.3879 -1.253736,0.45606 -1.569416,0.29928 -4.338336,1.18826 -4.43122,0.39469 -0.03504,-0.50491 2.200298,-1.09502 3.51964,-1.26856 0.970221,-0.12762 1.799885,0.23659 2.165308,0.41786 z"
       id="circle4619-8-5-4-7-3-63-02"
       inkscape:connector-curvature="0"
       sodipodi:nodetypes="cccscc"
       inkscape:transform-center-x="1.8950278"
       inkscape:transform-center-y="-0.80740492" />
    <path
       style="fill:#ececec;fill-opacity:1;stroke:none;stroke-width:0.0449027;stroke-miterlimit:4;stroke-dasharray:none;stroke-opacity:1"
       d="m 93.221006,174.22638 c 0.08363,0.14032 -0.954437,0.24652 -1.215123,0.27579 -1.495318,0.0755 -4.167743,0.56724 -4.1793,-0.23378 0.01513,-0.50626 2.160474,-0.77654 3.410123,-0.76256 0.918971,0.0103 1.659917,0.48903 1.984288,0.7206 z"
       id="circle4619-8-5-4-7-3-63-5"
       inkscape:connector-curvature="0"
       sodipodi:nodetypes="cccscc"
       inkscape:transform-center-x="1.7011359"
       inkscape:transform-center-y="-1.143066" />
    <path
       style="fill:#ececec;fill-opacity:1;stroke:none;stroke-width:0.0441326;stroke-miterlimit:4;stroke-dasharray:none;stroke-opacity:1"
       d="m 93.185805,175.01263 c 0.0481,0.16381 -0.938545,-0.0924 -1.186865,-0.15426 -1.404909,-0.44354 -3.990966,-0.89326 -3.832791,-1.66749 0.120813,-0.48159 2.170581,-9.2e-4 3.328412,0.4439 0.851449,0.32712 1.438751,1.04325 1.691222,1.37789 z"
       id="circle4619-8-5-4-7-3-63-8"
       inkscape:connector-curvature="0"
       sodipodi:nodetypes="cccscc"
       inkscape:transform-center-x="1.3723144"
       inkscape:transform-center-y="-1.6312795" />
    <path
       transform="matrix(0.76412591,0.64506712,-0.73091914,0.68246407,0,0)"
       style="opacity:1;fill:#ececec;fill-opacity:1;stroke:none;stroke-width:0.04542093;stroke-miterlimit:4;stroke-dasharray:none;stroke-opacity:1"
       d="m 189.03345,76.942218 2.23141,-2.324091 c 0,0 1.11965,-0.147091 0.94554,0.02884 -0.12897,0.130325 0.4335,0.07981 0.56387,0.224315 0.0668,0.074 -0.29692,0.463829 -0.26558,0.572176 0.0472,0.163087 0.45363,0.06541 0.51897,0.220177 0.0872,0.206536 -0.41149,0.471517 -0.43916,0.668473 -0.023,0.163803 0.42578,0.107838 0.50396,0.253303 0.0782,0.145464 -0.38691,0.302548 -0.44807,0.532906 -0.0334,0.125969 0.55675,0.04144 0.54005,0.186756 -0.0133,0.115957 -0.3928,0.401686 -0.44875,0.673775 -0.0342,0.16634 0.42592,0.220852 0.53107,0.41764 0.0905,0.169302 -0.48563,0.342898 -0.42918,0.55493 0.0444,0.166831 0.44473,0.187755 0.55427,0.382299 0.10025,0.178032 -0.51352,0.285989 -0.46598,0.521428 0.023,0.11375 0.54004,0.220961 0.56428,0.343978 0.0202,0.102304 -0.40002,0.239945 -0.45903,0.45248 -0.0591,0.212816 0.44407,0.288876 0.50172,0.591646 0.0409,0.214921 -0.488,0.522488 -0.49042,0.752928 -0.005,0.506991 0.36809,0.599864 0.40218,0.922775 0.0242,0.229203 -0.70806,0.47143 -0.71644,0.730266 -0.006,0.174985 0.38493,0.75743 0.37297,0.942139 -0.0127,0.196715 -0.61716,0.606913 -0.64028,0.806603 -0.0178,0.153504 0.44785,0.500373 0.42945,0.652423 -0.0223,0.184573 -0.53967,0.316651 -0.56869,0.494739 -0.0252,0.154851 0.32597,0.491947 0.30243,0.641326 -0.0255,0.162106 -0.4571,0.40086 -0.48648,0.552198 -0.0351,0.180718 0.14648,0.510791 0.16933,0.701711 0.14452,1.20775 -0.51852,1.300751 -1.13287,1.418678 -0.69362,0.133143 -1.63447,-0.324159 -2.05658,-0.961452 -0.28429,-0.429217 -0.19082,-0.800369 -0.35122,-1.351927 -0.0434,-0.149331 0.26013,-0.384667 0.22379,-0.541061 -0.0557,-0.239493 -0.17149,-0.20547 -0.21484,-0.458245 -0.0244,-0.14215 0.19181,-0.281402 0.23167,-0.448325 0.0899,-0.376349 -0.13548,-0.266888 -0.087,-0.736063 0.0181,-0.175717 0.33372,-0.362214 0.34864,-0.550078 0.0168,-0.211133 -0.0601,-0.457089 0.0472,-0.671611 0.0702,-0.140244 0.33102,-0.23417 0.35975,-0.41021 0.0301,-0.18431 -0.2129,-0.526812 -0.16303,-0.704177 0.0581,-0.20652 0.31233,-0.285083 0.34401,-0.503881 0.0223,-0.15418 -0.26421,-0.438525 -0.24052,-0.588697 0.0445,-0.282166 0.2194,-0.430833 0.23805,-0.711007 0.0107,-0.160362 -0.31746,-0.445634 -0.30675,-0.598516 0.0176,-0.251296 0.29231,-0.429514 0.28829,-0.656375 -0.005,-0.276018 -0.25957,-0.254404 -0.2668,-0.495477 -0.005,-0.181789 0.0772,-0.368311 0.0604,-0.526038 -0.0365,-0.343262 -0.50027,-0.224383 -0.52439,-0.525556 -0.0554,-0.69112 -0.0712,-1.478121 -0.0712,-1.478121 z"
       id="rect4800"
       inkscape:connector-curvature="0"
       sodipodi:nodetypes="ccssssszssssssssssssssssssssassssssssssssssssssc" />
    <path
       style="fill:#502d16;fill-opacity:1;stroke:none;stroke-width:0.13867928;stroke-miterlimit:4;stroke-dasharray:none;stroke-opacity:1"
       d="m 63.282178,180.58643 c 0.933374,0.34162 3.686024,1.67992 4.041495,2.14175 1.465456,1.90394 -0.0858,5.40244 -2.924115,6.33103 -3.767767,-1.13968 -6.504091,-3.07725 -7.60793,-6.23454 -0.571302,-1.63406 1.547826,-4.0473 6.49055,-2.23824 z"
       id="circle4619-8-8"
       inkscape:connector-curvature="0"
       sodipodi:nodetypes="sscss"
       inkscape:transform-center-x="3.2939802"
       inkscape:transform-center-y="-2.9810005" />
    <path
       style="fill:#784421;fill-opacity:1;stroke:none;stroke-width:0.13867928;stroke-miterlimit:4;stroke-dasharray:none;stroke-opacity:1"
       d="m 63.304967,180.59447 c 0.93337,0.34162 3.920768,2.01517 4.237121,2.30938 1.739542,1.61775 0.637999,4.85764 -2.200315,5.78623 -5.039317,-1.18158 -7.423519,-2.70008 -8.527357,-5.85737 -0.571303,-1.63406 1.547826,-4.0473 6.490551,-2.23824 z"
       id="circle4619-8-8-4"
       inkscape:connector-curvature="0"
       sodipodi:nodetypes="sscss"
       inkscape:transform-center-x="3.2939803"
       inkscape:transform-center-y="-2.9810009" />
    <path
       style="fill:#a0892c;fill-opacity:1;stroke:none;stroke-width:0.10785437;stroke-miterlimit:4;stroke-dasharray:none;stroke-opacity:1"
       d="m 58.503859,182.08706 c 1.588031,0.39022 1.922446,1.44459 1.758985,2.89951 -1.980774,1.99493 -2.911392,1.23948 -4.29163,2.11338 -0.868688,0.54999 -1.321257,0.58878 -1.642602,2.03118 -0.143712,0.6451 -0.916294,-1.46546 -0.636706,-2.82877 0.410664,-2.00243 3.142013,-4.16327 4.811953,-4.2153 z"
       id="circle4619-8-8-4-1"
       inkscape:connector-curvature="0"
       sodipodi:nodetypes="ccsssc"
       inkscape:transform-center-x="2.6501601"
       inkscape:transform-center-y="-1.0177201" />
    <ellipse
       style="fill:#ffffff;fill-opacity:1;stroke:#000000;stroke-width:0.18494569;stroke-miterlimit:4;stroke-dasharray:none;stroke-opacity:1"
       id="circle819"
       cx="61.389843"
       cy="182.83766"
       rx="1.4901533"
       ry="1.4644022" />
    <ellipse
       style="fill:#000000;fill-opacity:1;stroke:none;stroke-width:0.00792857;stroke-miterlimit:4;stroke-dasharray:none;stroke-opacity:1"
       id="circle829-0"
       cx="60.764011"
       cy="182.6666"
       rx="0.51518655"
       ry="0.54106736" />
    <ellipse
       cy="182.60028"
       cx="60.612247"
       id="circle831-3"
       style="fill:#ffffff;fill-opacity:1;stroke:none;stroke-width:0.00275081;stroke-miterlimit:4;stroke-dasharray:none;stroke-opacity:1"
       rx="0.1939784"
       ry="0.17298062" />
    <ellipse
       style="fill:#ffffff;fill-opacity:1;stroke:#000000;stroke-width:0.18494569;stroke-miterlimit:4;stroke-dasharray:none;stroke-opacity:1"
       id="circle819-1"
       cx="58.433735"
       cy="181.75847"
       rx="1.4901533"
       ry="1.4644022" />
    <ellipse
       style="fill:#000000;fill-opacity:1;stroke:none;stroke-width:0.00792857;stroke-miterlimit:4;stroke-dasharray:none;stroke-opacity:1"
       id="circle829-0-6"
       cx="57.807903"
       cy="181.5874"
       rx="0.51518655"
       ry="0.54106736" />
    <ellipse
       cy="181.52109"
       cx="57.656139"
       id="circle831-3-3"
       style="fill:#ffffff;fill-opacity:1;stroke:none;stroke-width:0.00275081;stroke-miterlimit:4;stroke-dasharray:none;stroke-opacity:1"
       rx="0.1939784"
       ry="0.17298062" />
    <rect
       style="opacity:1;fill:#502d16;fill-opacity:1;stroke:none;stroke-width:0.03884494;stroke-miterlimit:4;stroke-dasharray:none;stroke-opacity:1"
       id="rect4872"
       width="3.4395833"
       height="1.3229166"
       x="132.87485"
       y="132.81433"
       transform="rotate(27.263341)" />
    <rect
       style="opacity:1;fill:#502d16;fill-opacity:1;stroke:none;stroke-width:0.03884494;stroke-miterlimit:4;stroke-dasharray:none;stroke-opacity:1"
       id="rect4872-4"
       width="3.4395833"
       height="1.3229167"
       x="-65.952911"
       y="-181.28024"
       transform="rotate(-179.32626)" />
  </g>
</svg>
