<?xml version="1.0" encoding="UTF-8" standalone="no"?>
<!-- Created with Inkscape (http://www.inkscape.org/) -->

<svg
   xmlns:dc="http://purl.org/dc/elements/1.1/"
   xmlns:cc="http://creativecommons.org/ns#"
   xmlns:rdf="http://www.w3.org/1999/02/22-rdf-syntax-ns#"
   xmlns:svg="http://www.w3.org/2000/svg"
   xmlns="http://www.w3.org/2000/svg"
   xmlns:xlink="http://www.w3.org/1999/xlink"
   xmlns:sodipodi="http://sodipodi.sourceforge.net/DTD/sodipodi-0.dtd"
   xmlns:inkscape="http://www.inkscape.org/namespaces/inkscape"
   width="545.43207mm"
   height="308.26291mm"
   viewBox="0 0 545.43206 308.26291"
   version="1.1"
   id="svg8"
   inkscape:version="0.92+devel (unknown)"
   sodipodi:docname="sky.svg"
   inkscape:export-filename="/home/tom/Pictures/sky.svg.png"
   inkscape:export-xdpi="90"
   inkscape:export-ydpi="90">
  <defs
     id="defs2">
    <linearGradient
       inkscape:collect="always"
       id="linearGradient998">
      <stop
         style="stop-color:#a0ccda;stop-opacity:1;"
         offset="0"
         id="stop994" />
      <stop
         style="stop-color:#98dab6;stop-opacity:1"
         offset="1"
         id="stop996" />
    </linearGradient>
    <linearGradient
       inkscape:collect="always"
       id="linearGradient839">
      <stop
         style="stop-color:#ffffff;stop-opacity:1;"
         offset="0"
         id="stop835" />
      <stop
         style="stop-color:#ffffff;stop-opacity:0;"
         offset="1"
         id="stop837" />
    </linearGradient>
    <linearGradient
       inkscape:collect="always"
       id="linearGradient864">
      <stop
         style="stop-color:#ff6600;stop-opacity:1;"
         offset="0"
         id="stop860" />
      <stop
         style="stop-color:#ff6600;stop-opacity:0;"
         offset="1"
         id="stop862" />
    </linearGradient>
    <linearGradient
       inkscape:collect="always"
       id="linearGradient856">
      <stop
         style="stop-color:#a0ccda;stop-opacity:1;"
         offset="0"
         id="stop852" />
      <stop
         style="stop-color:#a0ccda;stop-opacity:0;"
         offset="1"
         id="stop854" />
    </linearGradient>
    <linearGradient
       inkscape:collect="always"
       xlink:href="#linearGradient856"
       id="linearGradient858"
       x1="499.30008"
       y1="272.57343"
       x2="499.30008"
       y2="442.27905"
       gradientUnits="userSpaceOnUse" />
    <linearGradient
       inkscape:collect="always"
       xlink:href="#linearGradient864"
       id="linearGradient866"
       x1="256.65839"
       y1="353.86816"
       x2="683.58569"
       y2="353.86816"
       gradientUnits="userSpaceOnUse" />
    <linearGradient
       inkscape:collect="always"
       xlink:href="#linearGradient839"
       id="linearGradient841"
       x1="119.88285"
       y1="70.386185"
       x2="120.38848"
       y2="123.35387"
       gradientUnits="userSpaceOnUse"
       gradientTransform="translate(170.93838,6.2868634)" />
    <linearGradient
       gradientTransform="matrix(3.7795276,0,0,3.7795276,-218.27251,-265.84898)"
       inkscape:collect="always"
       xlink:href="#linearGradient839"
       id="linearGradient841-3"
       x1="119.88285"
       y1="70.386185"
       x2="120.38848"
       y2="123.35387"
       gradientUnits="userSpaceOnUse" />
    <linearGradient
       inkscape:collect="always"
       xlink:href="#linearGradient839"
       id="linearGradient923"
       gradientUnits="userSpaceOnUse"
       x1="201.57382"
       y1="29.282484"
       x2="201.57382"
       y2="54.932011"
       gradientTransform="matrix(1.5791542,0,0,1.5791542,90.066394,59.730303)" />
    <linearGradient
       inkscape:collect="always"
       xlink:href="#linearGradient839"
       id="linearGradient841-36"
       x1="119.88285"
       y1="70.386185"
       x2="120.38848"
       y2="123.35387"
       gradientUnits="userSpaceOnUse"
       gradientTransform="matrix(3.7795276,0,0,3.7795276,-218.27247,-265.84898)" />
    <linearGradient
       inkscape:collect="always"
       xlink:href="#linearGradient839"
       id="linearGradient939"
       gradientUnits="userSpaceOnUse"
       gradientTransform="matrix(0.26458333,0,0,0.26458333,70.212249,23.177117)"
       x1="119.88285"
       y1="191.81471"
       x2="119.88285"
       y2="773.35388" />
    <linearGradient
       inkscape:collect="always"
       xlink:href="#linearGradient998"
       id="linearGradient1000"
       x1="349.46344"
       y1="-5.167294"
       x2="349.46344"
       y2="446.96414"
       gradientUnits="userSpaceOnUse"
       gradientTransform="matrix(1,0,0,0.93738275,0,-0.38845899)" />
    <linearGradient
       inkscape:collect="always"
       xlink:href="#linearGradient839"
       id="linearGradient1045"
       gradientUnits="userSpaceOnUse"
       gradientTransform="matrix(1.3672015,0,0,1.3672015,367.48333,46.149616)"
       x1="119.88285"
       y1="70.386185"
       x2="120.38848"
       y2="123.35387" />
  </defs>
  <sodipodi:namedview
     id="base"
     pagecolor="#ffffff"
     bordercolor="#666666"
     borderopacity="1.0"
     inkscape:pageopacity="0.0"
     inkscape:pageshadow="2"
     inkscape:zoom="0.35"
     inkscape:cx="1255.2464"
     inkscape:cy="543.73522"
     inkscape:document-units="mm"
     inkscape:current-layer="layer1"
     inkscape:document-rotation="0"
     showgrid="false"
     inkscape:snap-global="false" />
  <metadata
     id="metadata5">
    <rdf:RDF>
      <cc:Work
         rdf:about="">
        <dc:format>image/svg+xml</dc:format>
        <dc:type
           rdf:resource="http://purl.org/dc/dcmitype/StillImage" />
        <dc:title />
      </cc:Work>
    </rdf:RDF>
  </metadata>
  <g
     inkscape:groupmode="layer"
     id="layer2"
     inkscape:label="Layer 2"
     transform="translate(29.985835,-52.767273)"
     sodipodi:insensitive="true">
    <rect
       style="vector-effect:none;fill:url(#linearGradient1000);fill-opacity:1;stroke:none;stroke-width:0.65289152"
       id="rect30"
       width="922.63885"
       height="424.10974"
       x="-65.136566"
       y="-6.2037053" />
  </g>
  <g
     inkscape:label="Layer 1"
     inkscape:groupmode="layer"
     id="layer1"
     transform="translate(29.985835,-52.767273)">
    <path
       style="font-variation-settings:normal;opacity:1;vector-effect:none;fill:#ffffff;fill-opacity:1;stroke:#ffffff;stroke-width:0.35506749;stroke-linecap:butt;stroke-linejoin:miter;stroke-miterlimit:4;stroke-dasharray:none;stroke-dashoffset:0;stroke-opacity:0"
       d="M 96.599609,624.41797 A 167.61178,167.61178 0 0 0 -71.011719,792.03125 167.61178,167.61178 0 0 0 -30.212891,901.32031 237.47131,237.47131 0 0 0 207.23047,1138.0156 237.47131,237.47131 0 0 0 437.2168,958.5 a 88.26633,88.26633 0 0 0 23.00781,-3.87305 119.51826,119.51826 0 0 0 117.04297,95.92185 119.51826,119.51826 0 0 0 35.8164,-5.6328 191.10042,191.10042 0 0 0 181.40625,131.7656 191.10042,191.10042 0 0 0 3.17188,-0.1113 318.27995,318.27995 0 0 0 -0.0527,1.0567 318.27995,318.27995 0 0 0 318.28119,318.2792 318.27995,318.27995 0 0 0 287.1406,-181.8867 205.36997,205.36997 0 0 0 131.5469,47.7207 205.36997,205.36997 0 0 0 136.586,-52.3379 157.9881,157.9881 0 0 0 117.4101,52.5586 157.9881,157.9881 0 0 0 107.4356,-42.3379 183.19123,183.19123 0 0 0 105.2285,33.3575 183.19123,183.19123 0 0 0 183.1914,-183.1914 183.19123,183.19123 0 0 0 -49.1524,-124.6407 76.700199,76.700199 0 0 0 25.3555,-56.86129 76.700199,76.700199 0 0 0 -76.6992,-76.69922 76.700199,76.700199 0 0 0 -62.0918,31.79883 96.303629,96.303629 0 0 0 -81.1406,50.48633 72.779515,72.779515 0 0 0 -21.7481,-3.33985 72.779515,72.779515 0 0 0 -72.4707,66.6035 157.9881,157.9881 0 0 0 -55.039,-11.0078 72.779515,72.779515 0 0 0 -65.8907,-42.0684 72.779515,72.779515 0 0 0 -18.3203,2.3946 90.600809,90.600809 0 0 0 -86.6797,-64.50198 90.600809,90.600809 0 0 0 -30.8515,5.5 96.303622,96.303622 0 0 0 -72.7188,-33.3457 96.303622,96.303622 0 0 0 -73.1269,33.69336 90.600809,90.600809 0 0 0 -52.793,-17.06836 90.600809,90.600809 0 0 0 -26.9512,4.20313 90.600809,90.600809 0 0 0 -83.5957,-66.82227 43.017945,43.017945 0 0 0 -12.8496,-25.41797 28.048054,28.048054 0 0 0 1.5117,-8.99609 28.048054,28.048054 0 0 0 -28.0488,-28.04883 28.048054,28.048054 0 0 0 -28.0488,28.04883 28.048054,28.048054 0 0 0 0.3945,4.65625 43.017945,43.017945 0 0 0 -10.5703,10.4043 100.58074,100.58074 0 0 0 -65.6953,-24.49024 100.58074,100.58074 0 0 0 -74.4649,33.14063 125.5723,125.5723 0 0 0 -66.76751,-90.85743 100.87324,100.87324 0 0 0 -11.15039,-31.83789 63.572626,63.572626 0 0 0 1.0586,-11.24804 63.572626,63.572626 0 0 0 -63.57227,-63.57227 63.572626,63.572626 0 0 0 -51.00586,25.75195 100.87324,100.87324 0 0 0 -75.66406,97.59571 100.87324,100.87324 0 0 0 0.76367,11.33398 191.10042,191.10042 0 0 0 -1.91602,-0.0957 191.10042,191.10042 0 0 0 -131.88281,52.91015 119.51826,119.51826 0 0 0 -85.33984,-35.8789 119.51826,119.51826 0 0 0 -64.2793,18.77734 88.26633,88.26633 0 0 0 -78.6582,-48.21875 88.26633,88.26633 0 0 0 -20.22461,2.45703 237.47131,237.47131 0 0 0 -35.46485,-48.22656 88.26633,88.26633 0 0 0 -88.15429,-85.11133 88.26633,88.26633 0 0 0 -48.69336,14.70899 237.47131,237.47131 0 0 0 -34.5625,-2.82617 237.47131,237.47131 0 0 0 -3.49219,0.12304 167.61178,167.61178 0 0 0 -107.138671,-38.77734 z"
       transform="scale(0.26458333)"
       id="path941"
       inkscape:connector-curvature="0" />
    <path
       style="fill:#4c99b0;fill-opacity:1;fill-rule:evenodd;stroke:none;stroke-width:0.11539774px;stroke-linecap:butt;stroke-linejoin:miter;stroke-opacity:1"
       d="m 196.20438,267.73239 -0.25308,-1.93803 4.42779,-0.32656 -3.01585,-2.95269 1.51238,-0.0998 -2.54409,-2.73704 1.87322,0.0157 -1.82423,-2.18423 0.95574,-0.11077 -2.23501,-1.85672 1.19794,-0.0144 -2.03987,-2.31207 0.92917,-0.0793 -1.76189,-2.48203 -1.0306,2.66175 0.80808,-0.12744 -1.36735,2.48576 1.27762,-0.109 -1.63183,2.12809 1.01876,-0.0577 -1.61134,2.7113 1.72735,-0.32285 -2.1889,3.14079 1.44441,-0.21096 -1.96337,3.38479 4.56813,-0.27727 0.1125,1.83304 z"
       id="path1029"
       inkscape:connector-curvature="0"
       sodipodi:nodetypes="cccccccccccccccccccccccccccc" />
    <path
       style="font-variation-settings:normal;opacity:1;vector-effect:none;fill:url(#linearGradient939);fill-opacity:1;stroke:#ffffff;stroke-width:0.09394494;stroke-linecap:butt;stroke-linejoin:miter;stroke-miterlimit:4;stroke-dasharray:none;stroke-dashoffset:0;stroke-opacity:0"
       d="m 134.67539,72.419753 c -4.39327,2.64e-4 -7.95458,3.561802 -7.95456,7.955071 8e-4,1.274894 0.30789,2.530938 0.89555,3.662309 -1.52891,1.973792 -2.36084,4.398502 -2.36574,6.895185 2.6e-4,0.650303 0.0569,1.299358 0.16898,1.939932 -5.69937,2.873656 -9.29482,8.71184 -9.29607,15.09469 0.006,2.81899 0.71641,5.59179 2.06705,8.06617 -1.37604,1.92644 -2.56237,3.98154 -3.54241,6.13657 -6.01225,0.29712 -10.73526,5.25674 -10.73837,11.27632 0.003,5.00008 3.29233,9.40344 8.08633,10.82415 0.32291,1.65275 0.75922,3.28131 1.30586,4.87412 -1.5416,1.03907 -3.04385,2.13537 -4.5036,3.28662 -6.31997,-3.27414 -13.331166,-4.98977 -20.448878,-5.00383 -7.961228,0.0186 -15.77267,2.16567 -22.624973,6.21874 -2.355665,-5.00671 -7.388496,-8.20493 -12.921693,-8.21138 -1.712742,0.002 -3.411108,0.31263 -5.014165,0.9157 -0.189254,-1.76342 -0.831172,-3.44796 -1.863453,-4.89014 1.420341,-1.28506 2.232007,-3.11014 2.235006,-5.02553 -0.0012,-2.21916 -1.08652,-4.29775 -2.906799,-5.5671 0.07772,-0.32786 0.117765,-0.66352 0.119373,-1.00046 1.1e-5,-2.44618 -1.983011,-4.4292 -4.429188,-4.42919 -2.446176,-1e-5 -4.429198,1.98301 -4.429186,4.42919 6.88e-4,0.53079 0.09679,1.05712 0.283704,1.55391 -1.412117,1.28477 -2.218282,3.10454 -2.221054,5.01365 1.75e-4,0.38257 0.03267,0.76444 0.09715,1.14153 -4.379353,1.28473 -7.388805,5.30112 -7.391796,9.86503 2.9e-5,5.68175 4.605992,10.28772 10.287743,10.28775 0.368777,-0.004 0.737072,-0.0278 1.103292,-0.0713 -0.106885,0.68691 -0.163535,1.3807 -0.169499,2.07584 0.0029,0.19581 0.0098,0.39153 0.02067,0.58705 -3.600912,-1.10419 -7.346094,-1.66639 -11.112499,-1.66812 -6.154433,0.008 -12.214752,1.51134 -17.658871,4.38165 -7.172957,-7.72538 -17.235172,-12.12039 -27.777113,-12.13259 -20.96714,1e-4 -37.96427,16.99746 -37.96409,37.96459 1e-4,20.96695 16.99715,37.96399 37.96409,37.96409 6.15443,-0.008 11.504572,-4.42366 17.65886803,-4.38164 39.07156597,0.26676 277.32873097,1.23098 346.99700097,1.23098 19.21822,0 21.20479,-4.85102 24.22581,-15.83681 0.46609,0.11487 0.93818,0.20192 1.41374,0.26085 0.47559,0.0589 0.95465,0.0897 1.43468,0.0921 3.75574,-0.006 7.29787,-1.74736 9.59578,-4.71806 1.46746,0.97958 3.19193,1.50316 4.9563,1.50482 4.93874,1.7e-4 8.9425,-4.00336 8.9426,-8.94209 -1e-4,-4.93873 -4.00386,-8.94226 -8.9426,-8.94209 -1.76135,0.002 -3.48286,0.52436 -4.94855,1.5012 -2.30031,-2.97149 -5.8457,-4.71193 -9.60353,-4.71443 -0.52112,0.005 -1.04137,0.0435 -1.55755,0.11524 -3.92718,-6.95117 -11.28837,-11.25411 -19.27219,-11.26546 -7.73618,0.0111 -14.90716,4.0538 -18.92134,10.66705 -3.1296,-1.11535 -6.42583,-1.69129 -9.74823,-1.70326 -3.86148,0.009 -7.68326,0.77967 -11.24635,2.26808 -3.97822,-4.44178 -8.81602,-8.03053 -14.22082,-10.54923 1.62419,-3.32846 2.47345,-6.98155 2.48406,-10.68513 3e-5,-13.54486 -10.98025,-24.52514 -24.5251,-24.52512 -3.11105,0.003 -6.19306,0.59855 -9.08162,1.7539 -2.42758,-2.78948 -5.94235,-4.3936 -9.64024,-4.39973 -3.11036,0.006 -6.11231,1.14344 -8.44548,3.20032 -3.67861,-4.14506 -8.95274,-6.52122 -14.49472,-6.53035 -9.55636,0.0117 -17.68424,6.97342 -19.1642,16.4145 -3.27284,2.25959 -6.27376,4.8896 -8.94312,7.83776 -4.34059,-4.13585 -9.16368,-7.73366 -14.36502,-10.71562 0.7904,-1.84848 1.1984,-3.83785 1.19941,-5.84822 -0.008,-6.70961 -4.50095,-12.58568 -10.97401,-14.35158 0.50393,-1.50897 0.76283,-3.08894 0.76688,-4.67982 -1.6e-4,-8.22548 -6.66819,-14.89351 -14.89366,-14.89366 -0.52453,0.006 -1.0484,0.0389 -1.56942,0.0997 -5.66694,-3.47096 -12.17025,-5.33747 -18.81538,-5.40019 -0.61163,-1.2819 -1.38234,-2.481629 -2.29392,-3.570839 1.20922,-1.838553 1.8551,-3.990271 1.85828,-6.190837 -0.005,-3.878496 -2.00037,-7.482981 -5.28391,-9.54722 0.0454,-0.334891 0.0694,-0.672333 0.0718,-1.010274 1e-5,-4.39347 -3.5616,-7.955087 -7.95507,-7.955071 z M 411.78765,174.62436 c -2.12071,4e-5 -3.83981,1.71937 -3.83955,3.84008 0,0.23847 0.0238,0.47635 0.0687,0.71055 -0.0974,-0.007 -0.19489,-0.0119 -0.2925,-0.0145 -3.58177,3e-5 -6.48536,2.90362 -6.48539,6.48538 3e-5,3.58177 2.90362,6.48536 6.48539,6.48539 3.58177,-3e-5 6.48536,-2.90362 6.48539,-6.48539 -0.003,-1.27571 -0.37912,-2.52264 -1.08572,-3.58478 1.50379,-0.55831 2.50203,-1.9926 2.50322,-3.59668 2.7e-4,-2.12073 -1.71886,-3.84006 -3.83958,-3.84008 z"
       id="path846"
       inkscape:connector-curvature="0"
       sodipodi:nodetypes="cccccccccccccccccccccccccccccccccccsscsccccccccccccccccccccccccccccccccccccccccccccc" />
    <path
       style="vector-effect:none;fill:url(#linearGradient841);fill-opacity:1;stroke:#ffffff;stroke-width:0.09394495;stroke-opacity:0"
       d="m 290.82122,76.673044 c -4.32301,-1.06e-4 -7.82753,3.504417 -7.82743,7.82743 8e-4,3.130672 1.86679,5.959802 4.74441,7.192842 -1.07378,1.87952 -1.64009,4.00606 -1.6433,6.17068 0.002,0.21031 0.01,0.42053 0.0227,0.63046 -0.24556,-0.0167 -0.49141,-0.029 -0.73742,-0.0367 -10.07976,0.0116 -18.60534,7.458744 -19.97191,17.445444 -1.64068,-0.80987 -3.44493,-1.23357 -5.27461,-1.23869 -1.26288,0.005 -2.51701,0.20971 -3.71605,0.60616 -1.66211,-3.25968 -5.01181,-5.31193 -8.67079,-5.31232 -3.48252,0.003 -6.69793,1.86695 -8.43204,4.88703 -0.8656,-0.32032 -1.78076,-0.48597 -2.70371,-0.48938 -4.34898,-8e-5 -7.87454,3.52548 -7.87446,7.87447 -8e-5,4.34897 3.52548,7.87453 7.87446,7.87445 7.53147,-0.0684 66.12041,0.008 87.22497,-0.0375 4.58848,-0.01 7.195,-2.03155 8.57848,-4.83971 0.90742,0.48907 1.92197,0.74546 2.95279,0.74621 3.44253,4e-5 6.23326,-2.79069 6.23321,-6.23321 5e-5,-3.44254 -2.79068,-6.23327 -6.23321,-6.23322 -1.57513,0.002 -3.09113,0.60012 -4.24315,1.67431 -2.05434,-2.96817 -5.43259,-4.74147 -9.04234,-4.74647 -0.63983,5.3e-4 -1.27838,0.057 -1.90841,0.16847 -1.0923,-4.88756 -4.61314,-8.87438 -9.32812,-10.56267 0.13128,-0.718374 0.19924,-1.446874 0.20309,-2.177134 -5.3e-4,-6.88186 -5.5732,-12.463774 -12.45505,-12.475723 0.0351,-0.294656 0.0534,-0.591066 0.0548,-0.887799 1e-4,-4.322812 -3.5041,-7.82725 -7.82692,-7.82743 z"
       id="path10"
       inkscape:connector-curvature="0"
       sodipodi:nodetypes="ccccccccccccccscccccccccccc" />
    <path
       style="font-variation-settings:normal;opacity:1;vector-effect:none;fill:url(#linearGradient923);fill-opacity:1;stroke:#ffffff;stroke-width:0.14835358;stroke-linecap:butt;stroke-linejoin:miter;stroke-miterlimit:4;stroke-dasharray:none;stroke-dashoffset:0;stroke-opacity:0"
       d="m 405.03055,103.93986 c -2.08966,1.6e-4 -3.7835,1.69437 -3.78321,3.78403 10e-4,0.13637 0.009,0.27258 0.026,0.40802 -2.43613,1.92989 -3.85661,4.86735 -3.85665,7.97526 3.7e-4,0.23771 0.009,0.47532 0.026,0.71241 -5.20506,1.25875 -9.31905,5.23968 -10.7482,10.40057 -0.31332,-0.0298 -0.6278,-0.0455 -0.94253,-0.0473 -3.10149,0.002 -8.36836,4.40477 -8.06177,10.40301 -1.52262,-1.61469 -3.64313,-2.5309 -5.8625,-2.53302 -1.12559,0.003 -2.23804,0.24208 -3.26583,0.70099 -1.17257,-1.40707 -2.90885,-2.22156 -4.74045,-2.22374 -3.41334,1.6e-4 -6.18024,2.76742 -6.17994,6.18077 8.3e-4,0.0365 0.003,0.0729 0.005,0.10934 -1.37956,0.65612 -2.25929,2.04666 -2.26127,3.5743 -4.1e-4,2.18931 1.77425,3.96433 3.96356,3.96437 1.25533,-0.002 2.4356,-0.59812 3.18179,-1.60761 0.42449,0.0918 0.85749,0.13855 1.29181,0.13955 0.14323,-1.9e-4 0.28638,-0.005 0.42923,-0.0155 22.4616,-0.8067 63.74133,-0.0451 93.14156,0.31989 0.51383,0.15454 1.04741,0.23344 1.58396,0.2342 2.55568,-0.003 4.77582,-1.75834 5.36879,-4.24427 0.17391,0.0271 0.34955,0.0416 0.52554,0.0433 2.00944,-1.7e-4 3.63825,-1.62934 3.63796,-3.63878 -1.7e-4,-2.00911 -1.62883,-3.63779 -3.63796,-3.63795 -1.09944,0.001 -2.1394,0.49936 -2.82924,1.35546 -0.90737,-0.60616 -1.97388,-0.93014 -3.06509,-0.93111 -0.98099,0.002 -1.9437,0.26562 -2.78926,0.76301 -1.76496,-2.11696 -4.37773,-3.34235 -7.13391,-3.34581 -1.28212,0.004 -2.54958,0.27291 -3.72283,0.78993 -1.6324,-4.18401 -5.66376,-6.93864 -10.15494,-6.93887 -2.4881,0.001 -4.9009,0.8536 -6.83767,2.41551 -0.6264,-0.41301 -1.2827,-0.77879 -1.96343,-1.09433 0.0158,-0.19853 0.0253,-0.39745 0.0294,-0.59653 -0.003,-5.11196 -3.65144,-9.49474 -8.67788,-10.42586 0.0248,-0.27462 0.0384,-0.55013 0.0407,-0.82584 -0.005,-5.30956 -4.09107,-9.72301 -9.38458,-10.13535 -0.65196,-1.24829 -1.94325,-2.03118 -3.35152,-2.03197 z"
       id="path845"
       inkscape:connector-curvature="0"
       sodipodi:nodetypes="ccccccccccccccccccccccccccccccccccccc" />
    <path
       style="fill:#4c99b0;fill-opacity:1;fill-rule:evenodd;stroke:none;stroke-width:0.26458332px;stroke-linecap:butt;stroke-linejoin:miter;stroke-opacity:1"
       d="m 43.565862,237.38046 56.529918,-3.20723 19.05142,18.0447 25.67135,4.93446 15.12234,17.40182 16.30344,-5.07813 20.57977,-2.40543 15.23436,3.20723 10.95805,9.35442 7.48355,14.43257 26.45968,1.33633 12.82895,-4.54358 14.16529,-2.40541 13.63072,1.60362 9.62171,6.68173 19.51069,32.60688 55.32477,16.57069 30.20147,-5.34537 16.5707,-7.75081 10.95806,-11.22532 14.43255,-6.41448 h 24.32153 l 14.96708,5.07812 26.99422,-1.06907 17.10526,3.4745 v 98.08829 H -49.261897 V 234.53144 Z"
       id="path34"
       inkscape:connector-curvature="0" />
    <path
       style="fill:#336e81;fill-opacity:1;fill-rule:evenodd;stroke:none;stroke-width:0.26458332px;stroke-linecap:butt;stroke-linejoin:miter;stroke-opacity:1"
       d="m -15.910342,163.24897 30.468725,-2.13815 1.285843,-7.916 13.096216,-0.80181 2.405425,10.69078 13.096206,5.61266 10.452793,25.62859 14.165286,4.54358 10.69078,14.69983 5.474245,20.55838 16.837983,10.95805 1.60362,22.45064 10.15624,10.4235 9.65493,19.27667 26.23546,3.74176 20.57976,-4.00904 22.31889,4.81086 6.68174,10.15625 6.1472,14.43254 h 12.56167 l 2.67269,-6.41448 16.03617,-1.33633 6.94901,9.35443 17.70269,13.00215 33.40869,-3.47451 6.14719,-7.21627 18.44162,2.40543 6.41445,10.95804 22.98518,2.67269 26.19242,-16.83798 21.74492,-6.33108 17.37251,-0.26726 3.47451,13.09621 28.0633,9.08717 31.01988,-6.65154 27.79601,10.95806 28.63411,5.34538 1.86553,62.24822 H -37.793117 V 163.49457 Z"
       id="path925"
       inkscape:connector-curvature="0"
       sodipodi:nodetypes="ccccccccccccccccccccccccccccccccccccccccc" />
    <path
       sodipodi:nodetypes="cccccccccccccccccccccccccccc"
       inkscape:connector-curvature="0"
       id="path1006"
       d="m -169.99828,320.96978 -0.20044,-4.47674 10.1789,0.11691 -6.31424,-7.33319 3.4745,0.0668 -5.27857,-6.74856 3.89833,-0.99287 -4.11974,-5.29815 3.12628,-0.56289 -5.122,-3.92128 2.79012,-0.83681 -4.33979,-2.88393 2.18849,-0.63644 -4.72232,-3.80785 -1.94267,5.76283 2.14274,-0.4904 -2.70599,4.48033 2.32932,-0.33905 -4.44979,4.89795 2.57485,-0.78365 -4.2095,5.87992 4.00905,-0.4009 -5.61267,6.74854 3.34088,-0.20045 -5.14495,7.34991 10.48989,0.25685 -0.10022,4.2095 z"
       style="fill:#000000;fill-rule:evenodd;stroke:none;stroke-width:0.26458332px;stroke-linecap:butt;stroke-linejoin:miter;stroke-opacity:1" />
    <path
       sodipodi:nodetypes="ccccccccccccccccccccccccccccc"
       inkscape:connector-curvature="0"
       id="path1008"
       d="m -212.31157,320.66311 -1.46661,-6.08916 11.08667,0.0575 -5.95584,-5.66136 4.53756,-0.12219 -6.34163,-6.55957 4.27631,0.40092 -3.74177,-5.3454 2.20497,-0.0668 -4.74403,-4.67723 2.73951,0.20045 -4.20949,-5.67946 h 2.13815 l -3.54132,-6.01356 -0.92889,3.40707 -1.94426,2.47284 1.87089,-0.13364 -3.60814,5.41221 h 2.93997 l -4.14268,4.54359 2.33861,0.0668 -4.2095,5.87992 4.00905,-0.4009 -6.27413,7.3155 4.00234,-0.76741 -5.14495,6.1472 10.62352,-0.27769 -0.23385,5.94675 z"
       style="fill:#000000;fill-rule:evenodd;stroke:none;stroke-width:0.26458332px;stroke-linecap:butt;stroke-linejoin:miter;stroke-opacity:1" />
    <path
       style="fill:#000000;fill-rule:evenodd;stroke:none;stroke-width:0.26458332px;stroke-linecap:butt;stroke-linejoin:miter;stroke-opacity:1"
       d="m -132.95795,317.74219 -0.20044,-4.47674 10.17889,0.11691 -6.31424,-7.33319 3.4745,0.0668 -5.27856,-6.74856 4.2763,0.40092 -3.74177,-5.3454 2.20497,-0.0668 -4.74402,-4.67723 2.7395,0.20045 -4.20948,-5.67946 h 2.13815 l -3.54132,-6.01356 -2.87315,5.87991 1.87089,-0.13364 -3.60814,5.41221 h 2.93997 l -4.14268,4.54359 2.33861,0.0668 -4.2095,5.87992 4.00905,-0.4009 -5.61267,6.74854 3.34088,-0.20045 -5.14495,7.34991 10.48989,0.25685 -0.10022,4.2095 z"
       id="path1004"
       inkscape:connector-curvature="0"
       sodipodi:nodetypes="cccccccccccccccccccccccccccc" />
    <path
       sodipodi:nodetypes="cccccccccccccccccccccccccccc"
       inkscape:connector-curvature="0"
       id="path1013"
       d="m 167.86832,301.30948 -0.65072,-4.98316 11.38495,-0.83965 -7.7545,-7.59213 3.88873,-0.25657 -6.5415,-7.03761 4.81651,0.0404 -4.69055,-5.61622 2.45744,-0.28482 -5.74677,-4.77407 3.0802,-0.0371 -5.24501,-5.94492 2.38914,-0.20381 -4.53027,-6.38192 -2.64994,6.84403 2.07778,-0.32767 -3.51579,6.3915 3.28509,-0.28025 -4.19587,5.47185 2.6195,-0.14829 -4.14316,6.97143 4.44146,-0.83012 -5.62824,8.07577 3.71395,-0.54244 -5.0483,8.70314 11.74579,-0.71292 0.28927,4.71321 z"
       style="fill:#336e81;fill-opacity:1;fill-rule:evenodd;stroke:none;stroke-width:0.2967166px;stroke-linecap:butt;stroke-linejoin:miter;stroke-opacity:1" />
    <path
       style="fill:#336e81;fill-opacity:1;fill-rule:evenodd;stroke:none;stroke-width:0.26458332px;stroke-linecap:butt;stroke-linejoin:miter;stroke-opacity:1"
       d="m 183.77288,304.66613 0.68419,-4.42869 9.95698,2.11714 -4.74817,-8.43209 3.39346,0.74904 -3.84776,-7.65514 4.01748,-0.20654 -2.99692,-6.00509 3.17592,0.0631 -4.25046,-4.85231 2.90022,-0.27155 -3.68762,-3.68135 2.27093,-0.19346 -3.88091,-4.66246 -3.03843,5.26802 2.19734,-0.0593 -3.53453,3.86042 2.3505,0.12583 -5.32641,3.92681 2.6787,-0.26178 -5.284,4.93687 4.00957,0.39564 -6.83064,5.51247 3.31503,0.46072 -6.49037,6.1941 10.23436,2.31553 -0.9264,4.10752 z"
       id="path1015"
       inkscape:connector-curvature="0"
       sodipodi:nodetypes="cccccccccccccccccccccccccccc" />
    <path
       style="fill:#336e81;fill-opacity:1;fill-rule:evenodd;stroke:none;stroke-width:0.26458332px;stroke-linecap:butt;stroke-linejoin:miter;stroke-opacity:1"
       d="m 400.75674,326.82164 -0.77382,-6.21531 11.01015,1.30164 -5.2827,-6.29414 4.5226,0.38794 -5.56523,-7.22998 4.20428,0.87842 -3.11808,-5.73164 2.19853,0.18113 -4.18902,-5.18019 2.6997,0.5067 -3.54536,-6.11609 2.12464,0.24001 -2.8439,-6.37308 -1.30547,3.28127 -2.20956,2.23896 1.87407,0.0772 -4.19287,4.97298 2.92139,0.33002 -4.62653,4.04985 2.31634,0.32889 -4.84293,5.37023 4.02871,0.0517 -7.05566,6.56498 4.06319,-0.31329 -5.80247,5.53082 10.58755,0.91658 -0.89991,5.88291 z"
       id="path1017"
       inkscape:connector-curvature="0"
       sodipodi:nodetypes="ccccccccccccccccccccccccccccc" />
    <path
       style="fill:#336e81;fill-opacity:1;fill-rule:evenodd;stroke:none;stroke-width:0.27056807px;stroke-linecap:butt;stroke-linejoin:miter;stroke-opacity:1"
       d="m 387.87323,329.57634 -0.59337,-4.54402 10.38164,-0.76565 -7.07113,-6.92306 3.54603,-0.23396 -5.96502,-6.41741 4.39205,0.0369 -4.27719,-5.12128 2.24088,-0.25972 -5.24033,-4.35335 2.80875,-0.0339 -4.78279,-5.42101 2.17859,-0.18585 -4.13103,-5.8195 -2.41641,6.24088 1.89467,-0.29879 -3.20596,5.82824 2.99559,-0.25555 -3.8261,4.98963 2.38866,-0.13521 -3.77804,6.35706 4.05005,-0.75696 -5.13225,7.36408 3.38665,-0.49464 -4.60341,7.93617 10.71068,-0.65009 0.26378,4.29784 z"
       id="path1021"
       inkscape:connector-curvature="0"
       sodipodi:nodetypes="cccccccccccccccccccccccccccc" />
    <path
       style="fill:#336e81;fill-opacity:1;fill-rule:evenodd;stroke:none;stroke-width:0.26764265px;stroke-linecap:butt;stroke-linejoin:miter;stroke-opacity:1"
       d="m 304.45119,333.12624 -0.34062,-4.52023 10.29542,-0.19544 -6.61026,-7.21997 3.5151,-0.0395 -5.54506,-6.66077 4.33609,0.27365 -3.94799,-5.28941 2.22737,-0.13548 -4.94077,-4.58293 2.77606,0.11831 -4.43118,-5.61276 2.16187,-0.0658 -3.76591,-5.97115 -2.72384,6.03367 1.88753,-0.19278 -3.4814,5.58345 2.97258,-0.0906 -4.04862,4.72164 2.36661,-0.005 -4.07502,6.07486 4.04118,-0.52889 -5.46697,6.99636 3.37175,-0.30562 -4.97554,7.58998 10.61417,-0.0635 0.0284,4.25928 z"
       id="path1023"
       inkscape:connector-curvature="0"
       sodipodi:nodetypes="cccccccccccccccccccccccccccc" />
    <path
       sodipodi:nodetypes="cccccccccccccccccccccccccccc"
       inkscape:connector-curvature="0"
       id="path1025"
       d="m 145.88576,302.23613 -0.24548,-3.25758 7.41956,-0.14085 -4.76379,-5.20318 2.53322,-0.0285 -3.99614,-4.80019 3.12487,0.19721 -2.84518,-3.8119 1.60519,-0.0976 -3.56065,-3.30276 2.00062,0.0853 -3.1934,-4.04492 1.55798,-0.0474 -2.71396,-4.30321 -1.96298,4.34826 1.36028,-0.13893 -2.50893,4.02381 2.14224,-0.0653 -2.91771,3.40273 1.70554,-0.004 -2.93673,4.37794 2.91234,-0.38115 -3.93986,5.04204 2.42991,-0.22025 -3.5857,5.46984 7.64927,-0.0458 0.0205,3.06952 z"
       style="fill:#336e81;fill-opacity:1;fill-rule:evenodd;stroke:none;stroke-width:0.192881px;stroke-linecap:butt;stroke-linejoin:miter;stroke-opacity:1" />
    <path
       sodipodi:nodetypes="cccccccccccccccccccccccccccc"
       inkscape:connector-curvature="0"
       id="path1027"
       d="m 207.11093,271.6237 0.32542,-2.10644 4.73589,1.00699 -2.2584,-4.0106 1.61405,0.35627 -1.83013,-3.64105 1.91086,-0.0982 -1.42544,-2.85623 1.51058,0.03 -2.02167,-2.30793 1.37944,-0.12916 -1.75396,-1.75098 1.08014,-0.092 -1.8459,-2.21763 -1.44518,2.50565 1.04513,-0.0282 -1.68115,1.83615 1.11798,0.0598 -2.53343,1.86773 1.27409,-0.12452 -2.51326,2.34815 1.90709,0.18818 -3.24889,2.62193 1.57675,0.21913 -3.08705,2.94613 4.86782,1.10135 -0.44063,1.95368 z"
       style="fill:#4c99b0;fill-opacity:1;fill-rule:evenodd;stroke:none;stroke-width:0.1258451px;stroke-linecap:butt;stroke-linejoin:miter;stroke-opacity:1" />
    <path
       style="fill:#4c99b0;fill-opacity:1;fill-rule:evenodd;stroke:none;stroke-width:0.1258451px;stroke-linecap:butt;stroke-linejoin:miter;stroke-opacity:1"
       d="m 276.6245,290.20595 -0.53127,-2.06416 4.74937,-0.94139 -3.65648,-2.79562 1.6238,-0.30882 -3.11721,-2.62481 1.71743,-0.84349 -2.43592,-2.06306 1.40009,-0.56789 -2.76774,-1.32413 1.21683,-0.66246 -2.30215,-0.91781 0.95641,-0.51033 -2.5706,-1.31043 -0.34046,2.87244 0.94939,-0.4379 -0.82124,2.35017 1.05103,-0.38574 -1.59205,2.71515 1.12184,-0.61667 -1.38414,3.14872 1.82685,-0.57881 -1.95229,3.69031 1.53546,-0.42015 -1.67575,3.92446 4.90781,-0.90668 0.36517,1.96918 z"
       id="path1031"
       inkscape:connector-curvature="0"
       sodipodi:nodetypes="cccccccccccccccccccccccccccc" />
    <path
       sodipodi:nodetypes="ccccccccccccccccccccccccccccc"
       inkscape:connector-curvature="0"
       id="path1033"
       d="m 290.12539,291.83185 -0.43461,-3.49081 6.1838,0.73107 -2.967,-3.53508 2.5401,0.21788 -3.12569,-4.06069 2.36131,0.49336 -1.75125,-3.21915 1.23479,0.10173 -2.35274,-2.90943 1.51627,0.28458 -1.99124,-3.43507 1.1933,0.1348 -1.59727,-3.57942 -0.73321,1.84291 -1.24099,1.25751 1.05257,0.0434 -2.35491,2.79305 1.64078,0.18535 -2.59847,2.27459 1.30096,0.18472 -2.72001,3.01617 2.26271,0.029 -3.96278,3.6872 2.28207,-0.17596 -3.25893,3.10636 5.94645,0.5148 -0.50543,3.30411 z"
       style="fill:#4c99b0;fill-opacity:1;fill-rule:evenodd;stroke:none;stroke-width:0.14860219px;stroke-linecap:butt;stroke-linejoin:miter;stroke-opacity:1" />
    <path
       style="fill:#4c99b0;fill-opacity:1;fill-rule:evenodd;stroke:none;stroke-width:0.12178561px;stroke-linecap:butt;stroke-linejoin:miter;stroke-opacity:1"
       d="m 466.27564,317.47822 -0.63091,-2.81307 5.10206,0.10672 -2.70011,-2.64867 2.08923,-0.0234 -2.87117,-3.06484 1.9652,0.21546 -1.6834,-2.48721 1.01528,-0.0148 -2.14951,-2.18695 1.25936,0.11208 -1.89625,-2.64435 0.98405,0.0155 -1.58632,-2.79329 -0.45215,1.56133 -0.91273,1.12402 0.86203,-0.048 -1.69976,2.46477 1.35307,0.0213 -1.93949,2.06115 1.07582,0.0477 -1.97991,2.67568 1.84801,-0.1555 -2.94052,3.32144 1.84756,-0.32423 -2.41237,2.79193 4.89133,-0.0509 -0.15067,2.73521 z"
       id="path1035"
       inkscape:connector-curvature="0"
       sodipodi:nodetypes="ccccccccccccccccccccccccccccc" />
    <path
       style="fill:#336e81;fill-opacity:1;fill-rule:evenodd;stroke:none;stroke-width:0.31189644px;stroke-linecap:butt;stroke-linejoin:miter;stroke-opacity:1"
       d="m 2.2857099,163.92566 -0.4283407,-5.26517 11.9961658,-0.29929 -7.7532667,-8.36769 4.0959557,-0.0705 -6.5080822,-7.72345 5.054856,0.28879 -4.6374395,-6.13645 2.5946687,-0.17335 -5.78945061,-5.30628 3.23584401,0.11858 -5.2027633,-6.50991 2.518816,-0.0918 -4.4299972,-6.93218 -3.1322432,7.05012 2.19825,-0.23776 -4.0181673,6.53072 3.4633967,-0.12623 -4.6851587,5.53038 2.7578357,-0.0217 -4.7065131,7.10751 4.7056097,-0.6444 -6.3221997,8.19102 3.9270726,-0.37957 -5.7453996,8.87936 12.3685376,-0.14778 0.062655,4.96327 z"
       id="path1037"
       inkscape:connector-curvature="0"
       sodipodi:nodetypes="cccccccccccccccccccccccccccc" />
    <path
       style="fill:#204854;fill-opacity:1;fill-rule:evenodd;stroke:none;stroke-width:0.26458332px;stroke-linecap:butt;stroke-linejoin:miter;stroke-opacity:1"
       d="m -41.128788,255.42582 12.828937,-3.74177 16.83798,-0.53454 5.0781207,20.57975 18.1743263,6.68174 -4.5435806,14.96709 22.7179266,4.00905 7.750815,16.57072 1.336347,20.84702 29.934188,9.88896 31.003263,-4.81084 4.810855,13.09619 23.25245,14.16529 2.93996,13.63075 25.92514,2.67269 11.22532,10.95806 6.2642,35.01231 H -42.30819 Z"
       id="path1041"
       inkscape:connector-curvature="0" />
    <path
       sodipodi:nodetypes="ccccccccccccccscccccccccccc"
       inkscape:connector-curvature="0"
       id="path1043"
       d="m 531.38735,142.38171 c -5.91042,-1.5e-4 -10.70181,4.79124 -10.70167,10.70168 10e-4,4.28026 2.55228,8.14825 6.48656,9.83406 -1.46807,2.56968 -2.24233,5.47709 -2.24672,8.43656 0.003,0.28754 0.0137,0.57495 0.031,0.86197 -0.33573,-0.0228 -0.67186,-0.0396 -1.0082,-0.0502 -13.78107,0.0159 -25.43725,10.1976 -27.30563,23.85145 -2.24314,-1.10726 -4.70991,-1.68654 -7.21146,-1.69354 -1.72661,0.007 -3.44126,0.28672 -5.08059,0.82874 -2.27243,-4.45664 -6.85215,-7.26249 -11.85471,-7.26302 -4.76131,0.004 -9.15742,2.55251 -11.5283,6.68157 -1.18345,-0.43795 -2.43466,-0.66442 -3.69652,-0.66908 -5.94593,-1.1e-4 -10.76608,4.82004 -10.76597,10.76597 -1.1e-4,5.94592 4.82004,10.76607 10.76597,10.76596 10.29704,-0.0935 90.39993,0.0109 119.25412,-0.0513 6.27337,-0.0137 9.83701,-2.77754 11.72851,-6.61686 1.24062,0.66866 2.62772,1.01919 4.03706,1.02022 4.70663,5e-5 8.52212,-3.81544 8.52205,-8.52205 7e-5,-4.70664 -3.81542,-8.52213 -8.52205,-8.52206 -2.15352,0.003 -4.2262,0.82049 -5.80124,2.28912 -2.8087,-4.05809 -7.42745,-6.48256 -12.36271,-6.48939 -0.87477,7.2e-4 -1.7478,0.0779 -2.60918,0.23033 -1.49339,-6.68228 -6.30709,-12.13307 -12.75342,-14.4413 0.17949,-0.98216 0.2724,-1.97816 0.27767,-2.97658 -7.3e-4,-9.40889 -7.61969,-17.04048 -17.02857,-17.05682 0.048,-0.40286 0.073,-0.80811 0.0749,-1.2138 1.3e-4,-5.91015 -4.79081,-10.70143 -10.70098,-10.70168 z"
       style="vector-effect:none;fill:url(#linearGradient1045);fill-opacity:1;stroke:#ffffff;stroke-width:0.12844168;stroke-opacity:0" />
  </g>
</svg>
