<?xml version="1.0" encoding="UTF-8" standalone="no"?>
<!-- Created with Inkscape (http://www.inkscape.org/) -->

<svg
   xmlns:dc="http://purl.org/dc/elements/1.1/"
   xmlns:cc="http://creativecommons.org/ns#"
   xmlns:rdf="http://www.w3.org/1999/02/22-rdf-syntax-ns#"
   xmlns:svg="http://www.w3.org/2000/svg"
   xmlns="http://www.w3.org/2000/svg"
   xmlns:xlink="http://www.w3.org/1999/xlink"
   xmlns:sodipodi="http://sodipodi.sourceforge.net/DTD/sodipodi-0.dtd"
   xmlns:inkscape="http://www.inkscape.org/namespaces/inkscape"
   width="545.43207mm"
   height="308.26291mm"
   viewBox="0 0 545.43206 308.26291"
   version="1.1"
   id="svg8"
   inkscape:version="0.92.2 (unknown)"
   sodipodi:docname="sky.svg"
   inkscape:export-filename="/home/tom/Pictures/sky.svg.png"
   inkscape:export-xdpi="90"
   inkscape:export-ydpi="90">
  <defs
     id="defs2">
    <linearGradient
       inkscape:collect="always"
       id="linearGradient998">
      <stop
         style="stop-color:#a0ccda;stop-opacity:1;"
         offset="0"
         id="stop994" />
      <stop
         style="stop-color:#98dab6;stop-opacity:1"
         offset="1"
         id="stop996" />
    </linearGradient>
    <linearGradient
       inkscape:collect="always"
       id="linearGradient839">
      <stop
         style="stop-color:#ffffff;stop-opacity:1;"
         offset="0"
         id="stop835" />
      <stop
         style="stop-color:#ffffff;stop-opacity:0;"
         offset="1"
         id="stop837" />
    </linearGradient>
    <linearGradient
       inkscape:collect="always"
       id="linearGradient864">
      <stop
         style="stop-color:#ff6600;stop-opacity:1;"
         offset="0"
         id="stop860" />
      <stop
         style="stop-color:#ff6600;stop-opacity:0;"
         offset="1"
         id="stop862" />
    </linearGradient>
    <linearGradient
       inkscape:collect="always"
       id="linearGradient856">
      <stop
         style="stop-color:#a0ccda;stop-opacity:1;"
         offset="0"
         id="stop852" />
      <stop
         style="stop-color:#a0ccda;stop-opacity:0;"
         offset="1"
         id="stop854" />
    </linearGradient>
    <linearGradient
       inkscape:collect="always"
       xlink:href="#linearGradient856"
       id="linearGradient858"
       x1="499.30008"
       y1="272.57343"
       x2="499.30008"
       y2="442.27905"
       gradientUnits="userSpaceOnUse" />
    <linearGradient
       inkscape:collect="always"
       xlink:href="#linearGradient864"
       id="linearGradient866"
       x1="256.65839"
       y1="353.86816"
       x2="683.58569"
       y2="353.86816"
       gradientUnits="userSpaceOnUse" />
    <linearGradient
       inkscape:collect="always"
       xlink:href="#linearGradient839"
       id="linearGradient841"
       x1="119.88285"
       y1="70.386185"
       x2="120.38848"
       y2="123.35387"
       gradientUnits="userSpaceOnUse"
       gradientTransform="matrix(0.58365171,0,0,0.58365171,177.72059,108.12926)" />
    <linearGradient
       gradientTransform="matrix(3.7795276,0,0,3.7795276,-218.27251,-265.84898)"
       inkscape:collect="always"
       xlink:href="#linearGradient839"
       id="linearGradient841-3"
       x1="119.88285"
       y1="70.386185"
       x2="120.38848"
       y2="123.35387"
       gradientUnits="userSpaceOnUse" />
    <linearGradient
       inkscape:collect="always"
       xlink:href="#linearGradient839"
       id="linearGradient923"
       gradientUnits="userSpaceOnUse"
       x1="201.57382"
       y1="29.282484"
       x2="201.57382"
       y2="54.932011"
       gradientTransform="matrix(0.92167605,0,0,0.92167605,130.51952,139.32161)" />
    <linearGradient
       inkscape:collect="always"
       xlink:href="#linearGradient839"
       id="linearGradient841-36"
       x1="119.88285"
       y1="70.386185"
       x2="120.38848"
       y2="123.35387"
       gradientUnits="userSpaceOnUse"
       gradientTransform="matrix(3.7795276,0,0,3.7795276,-218.27247,-265.84898)" />
    <linearGradient
       inkscape:collect="always"
       xlink:href="#linearGradient839"
       id="linearGradient939"
       gradientUnits="userSpaceOnUse"
       gradientTransform="matrix(0.15442451,0,0,0.15442451,118.93162,117.98728)"
       x1="119.88285"
       y1="191.81471"
       x2="119.88285"
       y2="773.35388" />
    <linearGradient
       inkscape:collect="always"
       xlink:href="#linearGradient998"
       id="linearGradient1000"
       x1="349.46344"
       y1="-5.167294"
       x2="349.46344"
       y2="446.96414"
       gradientUnits="userSpaceOnUse"
       gradientTransform="matrix(1,0,0,0.93738275,0,-0.38845899)" />
    <linearGradient
       inkscape:collect="always"
       xlink:href="#linearGradient839"
       id="linearGradient1045"
       gradientUnits="userSpaceOnUse"
       gradientTransform="matrix(0.79796949,0,0,0.79796949,292.43439,131.39522)"
       x1="119.88285"
       y1="70.386185"
       x2="120.38848"
       y2="123.35387" />
  </defs>
  <sodipodi:namedview
     id="base"
     pagecolor="#ffffff"
     bordercolor="#666666"
     borderopacity="1.0"
     inkscape:pageopacity="0.0"
     inkscape:pageshadow="2"
     inkscape:zoom="0.41280121"
     inkscape:cx="1600.1877"
     inkscape:cy="146.71736"
     inkscape:document-units="mm"
     inkscape:current-layer="layer1"
     inkscape:document-rotation="0"
     showgrid="false"
     inkscape:snap-global="false"
     inkscape:window-width="1920"
     inkscape:window-height="1017"
     inkscape:window-x="0"
     inkscape:window-y="30"
     inkscape:window-maximized="1" />
  <metadata
     id="metadata5">
    <rdf:RDF>
      <cc:Work
         rdf:about="">
        <dc:format>image/svg+xml</dc:format>
        <dc:type
           rdf:resource="http://purl.org/dc/dcmitype/StillImage" />
        <dc:title />
      </cc:Work>
    </rdf:RDF>
  </metadata>
  <g
     inkscape:groupmode="layer"
     id="layer2"
     inkscape:label="Layer 2"
     transform="translate(29.985835,-52.767273)"
     sodipodi:insensitive="true">
    <rect
       style="vector-effect:none;fill:url(#linearGradient1000);fill-opacity:1;stroke:none;stroke-width:0.65289152"
       id="rect30"
       width="922.63885"
       height="424.10974"
       x="-65.136566"
       y="-6.2037053" />
  </g>
  <g
     inkscape:label="Layer 1"
     inkscape:groupmode="layer"
     id="layer1"
     transform="translate(29.985835,-52.767273)">
    <g
       id="sky"
       inkscape:label="#g5553"
       inkscape:export-xdpi="96.061531"
       inkscape:export-ydpi="96.061531">
      <path
         inkscape:export-ydpi="90"
         inkscape:export-xdpi="90"
         inkscape:connector-curvature="0"
         id="path941"
         d="m 92.869465,200.88536 a 25.883368,25.883368 0 0 0 -25.883298,25.8836 25.883368,25.883368 0 0 0 6.300339,16.87691 36.671392,36.671392 0 0 0 36.667074,36.55156 36.671392,36.671392 0 0 0 35.51553,-27.72161 13.630485,13.630485 0 0 0 3.55297,-0.59809 18.456549,18.456549 0 0 0 18.0743,14.81268 18.456549,18.456549 0 0 0 5.53093,-0.86984 29.51059,29.51059 0 0 0 28.01358,20.34784 29.51059,29.51059 0 0 0 0.48981,-0.0172 49.150227,49.150227 0 0 0 -0.008,0.16318 49.150227,49.150227 0 0 0 49.15042,49.15011 49.150227,49.150227 0 0 0 44.34155,-28.08776 31.714158,31.714158 0 0 0 20.31406,7.36924 31.714158,31.714158 0 0 0 21.09223,-8.08225 24.397236,24.397236 0 0 0 18.131,8.11633 24.397236,24.397236 0 0 0 16.59069,-6.53801 28.289217,28.289217 0 0 0 16.24986,5.15122 28.289217,28.289217 0 0 0 28.28924,-28.28924 28.289217,28.289217 0 0 0 -7.59033,-19.24758 11.844391,11.844391 0 0 0 3.91551,-8.78078 11.844391,11.844391 0 0 0 -11.84424,-11.84424 11.844391,11.844391 0 0 0 -9.58849,4.91052 14.871641,14.871641 0 0 0 -12.5301,7.79633 11.238941,11.238941 0 0 0 -3.35844,-0.51576 11.238941,11.238941 0 0 0 -11.19126,10.28521 24.397236,24.397236 0 0 0 -8.49937,-1.69987 11.238941,11.238941 0 0 0 -10.17514,-6.49639 11.238941,11.238941 0 0 0 -2.8291,0.36978 13.990986,13.990986 0 0 0 -13.38547,-9.96068 13.990986,13.990986 0 0 0 -4.76423,0.84933 14.87164,14.87164 0 0 0 -11.22956,-5.14939 14.87164,14.87164 0 0 0 -11.29259,5.20308 13.990986,13.990986 0 0 0 -8.15253,-2.63578 13.990986,13.990986 0 0 0 -4.16193,0.64907 13.990986,13.990986 0 0 0 -12.90922,-10.319 6.6430253,6.6430253 0 0 0 -1.9843,-3.92515 4.3313071,4.3313071 0 0 0 0.23345,-1.38922 4.3313071,4.3313071 0 0 0 -4.33143,-4.33143 4.3313071,4.3313071 0 0 0 -4.33142,4.33143 4.3313071,4.3313071 0 0 0 0.0609,0.71904 6.6430253,6.6430253 0 0 0 -1.63231,1.60668 15.532132,15.532132 0 0 0 -10.14497,-3.7819 15.532132,15.532132 0 0 0 -11.4992,5.11773 19.391441,19.391441 0 0 0 -10.31054,-14.03061 15.577301,15.577301 0 0 0 -1.7219,-4.91655 9.8171719,9.8171719 0 0 0 0.16348,-1.73698 9.8171719,9.8171719 0 0 0 -9.81712,-9.81711 9.8171719,9.8171719 0 0 0 -7.87655,3.97673 15.577301,15.577301 0 0 0 -11.68439,15.07117 15.577301,15.577301 0 0 0 0.11793,1.75024 29.51059,29.51059 0 0 0 -0.29588,-0.0148 29.51059,29.51059 0 0 0 -20.36594,8.17063 18.456549,18.456549 0 0 0 -13.17856,-5.54058 18.456549,18.456549 0 0 0 -9.9263,2.89968 13.630485,13.630485 0 0 0 -12.14676,-7.44616 13.630485,13.630485 0 0 0 -3.12317,0.37943 36.671392,36.671392 0 0 0 -5.47664,-7.44737 13.630485,13.630485 0 0 0 -13.61319,-13.14327 13.630485,13.630485 0 0 0 -7.51945,2.27143 36.671392,36.671392 0 0 0 -5.33729,-0.43643 36.671392,36.671392 0 0 0 -0.53928,0.019 25.883368,25.883368 0 0 0 -16.54484,-5.98818 z"
         style="opacity:1;vector-effect:none;fill:#ffffff;fill-opacity:1;stroke:#ffffff;stroke-width:0.05483112;stroke-linecap:butt;stroke-linejoin:miter;stroke-miterlimit:4;stroke-dasharray:none;stroke-dashoffset:0;stroke-opacity:0" />
      <path
         inkscape:export-ydpi="90"
         inkscape:export-xdpi="90"
         sodipodi:nodetypes="cccccccccccccccccccccccccccccccccccsscsccccccccccccccccccccccccccccccccccccccccccccc"
         inkscape:connector-curvature="0"
         id="path846"
         d="m 156.55564,146.72784 c -2.56414,1.5e-4 -4.6427,2.07885 -4.64269,4.64299 4.6e-4,0.74409 0.1797,1.47718 0.52269,2.13751 -0.89235,1.15201 -1.37791,2.56719 -1.38077,4.02439 1.5e-4,0.37955 0.0332,0.75837 0.0986,1.13224 -3.32644,1.67722 -5.42493,5.08468 -5.42566,8.81004 0.004,1.64531 0.41813,3.26366 1.20643,4.70784 -0.80312,1.12437 -1.49553,2.32383 -2.06753,3.58162 -3.50906,0.17341 -6.26565,3.0681 -6.26747,6.58144 0.002,2.9183 1.92158,5.48833 4.7196,6.31753 0.18847,0.96463 0.44312,1.91515 0.76217,2.84479 -0.89976,0.60646 -1.77655,1.24631 -2.62853,1.91824 -3.68867,-1.91095 -7.78076,-2.91228 -11.93503,-2.92049 -4.64658,0.0109 -9.20574,1.264 -13.2051,3.62958 -1.37489,-2.92218 -4.31231,-4.78882 -7.54177,-4.79259 -0.99964,0.001 -1.9909,0.18247 -2.92653,0.53445 -0.11045,-1.02922 -0.48511,-2.01241 -1.0876,-2.85414 0.82898,-0.75002 1.30271,-1.81524 1.30446,-2.93316 -7e-4,-1.29521 -0.63415,-2.50839 -1.69656,-3.24924 0.0454,-0.19136 0.0687,-0.38727 0.0697,-0.58392 0,-1.42772 -1.15739,-2.58511 -2.58511,-2.58511 -1.42771,0 -2.585106,1.15739 -2.585099,2.58511 4.02e-4,0.30979 0.05649,0.61699 0.165584,0.90694 -0.824184,0.74986 -1.294704,1.81197 -1.296322,2.92622 1.02e-4,0.22329 0.01907,0.44617 0.0567,0.66626 -2.556017,0.74983 -4.312489,3.09401 -4.314234,5.75774 1.7e-5,3.31616 2.688295,6.00445 6.004459,6.00446 0.215242,-0.002 0.430192,-0.0162 0.643942,-0.0416 -0.0624,0.40092 -0.0954,0.80585 -0.0989,1.21157 0.002,0.11428 0.006,0.22851 0.0121,0.34263 -2.101677,-0.64446 -4.287559,-0.97259 -6.485828,-0.9736 -3.592045,0.005 -7.129161,0.8821 -10.30663,2.55736 -4.186509,-4.50893 -10.059338,-7.07409 -16.21216,-7.08121 -12.237507,6e-5 -22.157911,9.9206 -22.157806,22.1581 5.9e-5,12.23739 9.920416,22.15775 22.157806,22.1578 3.592044,-0.005 6.714664,-2.58187 10.306629,-2.55735 22.804189,0.1557 161.863389,0.71847 202.525399,0.71847 11.21674,0 12.37621,-2.83131 14.13943,-9.24319 0.27204,0.067 0.54757,0.11786 0.82513,0.15225 0.27758,0.0344 0.55719,0.0523 0.83736,0.0537 2.19204,-0.004 4.25941,-1.01985 5.60059,-2.7537 0.85649,0.57173 1.86298,0.87732 2.89275,0.87829 2.88251,1e-4 5.21931,-2.33657 5.21937,-5.21906 -6e-5,-2.8825 -2.33686,-5.21917 -5.21937,-5.21907 -1.02801,0.001 -2.03277,0.30604 -2.88822,0.87618 -1.34258,-1.73432 -3.41186,-2.75013 -5.60512,-2.75159 -0.30415,0.003 -0.6078,0.0254 -0.90907,0.0673 -2.2921,-4.05706 -6.58847,-6.56848 -11.24825,-6.5751 -4.51523,0.006 -8.70058,2.366 -11.04347,6.22584 -1.82659,-0.65098 -3.75044,-0.98713 -5.68957,-0.99411 -2.25376,0.005 -4.48435,0.45505 -6.56395,1.32377 -2.3219,-2.59246 -5.14549,-4.68704 -8.30001,-6.15708 0.94797,-1.94266 1.44364,-4.07479 1.44983,-6.23639 2e-5,-7.90548 -6.40864,-14.31414 -14.31412,-14.31413 -1.81577,0.002 -3.61459,0.34934 -5.3005,1.02366 -1.41686,-1.62808 -3.46826,-2.56433 -5.62654,-2.56791 -1.81537,0.004 -3.56746,0.66738 -4.92922,1.86788 -2.14703,-2.41927 -5.22528,-3.80612 -8.45987,-3.81145 -5.57759,0.007 -10.32144,4.07005 -11.18522,9.58035 -1.9102,1.31881 -3.66169,2.85382 -5.21967,4.57452 -2.53339,-2.4139 -5.34839,-4.51376 -8.38416,-6.25419 0.46131,-1.07887 0.69944,-2.23997 0.70003,-3.41332 -0.005,-3.91608 -2.62698,-7.34566 -6.405,-8.37633 0.29412,-0.88071 0.44523,-1.80286 0.44759,-2.73138 -9e-5,-4.80082 -3.8919,-8.69263 -8.69271,-8.69271 -0.30614,0.004 -0.6119,0.0227 -0.91599,0.0582 -3.30752,-2.02583 -7.10319,-3.11523 -10.98163,-3.15183 -0.35698,-0.74819 -0.8068,-1.44841 -1.33885,-2.08413 0.70576,-1.07307 1.08273,-2.32893 1.08459,-3.61329 -0.003,-2.26369 -1.16752,-4.36746 -3.08396,-5.57225 0.0265,-0.19546 0.0405,-0.39241 0.0419,-0.58965 1e-5,-2.56426 -2.07873,-4.643 -4.64299,-4.64299 z m 161.73705,59.65189 c -1.23776,2e-5 -2.24112,1.00351 -2.24096,2.24127 0,0.13918 0.0139,0.27802 0.0401,0.41471 -0.0568,-0.004 -0.11375,-0.007 -0.17072,-0.008 -2.0905,2e-5 -3.78519,1.6947 -3.7852,3.7852 10e-6,2.09051 1.6947,3.78519 3.7852,3.78521 2.09051,-2e-5 3.7852,-1.6947 3.78521,-3.78521 -0.002,-0.74457 -0.22127,-1.47234 -0.63368,-2.09226 0.87769,-0.32586 1.46031,-1.16298 1.46101,-2.09921 1.6e-4,-1.23777 -1.00322,-2.24126 -2.24098,-2.24127 z"
         style="opacity:1;vector-effect:none;fill:url(#linearGradient939);fill-opacity:1;stroke:#ffffff;stroke-width:0.05483112;stroke-linecap:butt;stroke-linejoin:miter;stroke-miterlimit:4;stroke-dasharray:none;stroke-dashoffset:0;stroke-opacity:0" />
      <path
         inkscape:export-ydpi="90"
         inkscape:export-xdpi="90"
         sodipodi:nodetypes="ccccccccccccccscccccccccccc"
         inkscape:connector-curvature="0"
         id="path10"
         d="m 247.69042,149.21028 c -2.52313,-7e-5 -4.56855,2.04536 -4.56849,4.56849 4.7e-4,1.82722 1.08955,3.47845 2.76908,4.19811 -0.62671,1.09699 -0.95724,2.33815 -0.95911,3.60153 10e-4,0.12275 0.006,0.24545 0.0132,0.36797 -0.14333,-0.01 -0.28682,-0.0169 -0.4304,-0.0214 -5.88307,0.007 -10.85904,4.35331 -11.65664,10.18206 -0.95759,-0.47268 -2.01064,-0.71997 -3.07854,-0.72296 -0.73708,0.003 -1.46905,0.1224 -2.16887,0.35379 -0.9701,-1.90252 -2.92516,-3.10032 -5.06073,-3.10055 -2.03258,0.002 -3.90925,1.08965 -4.92137,2.85233 -0.50521,-0.18696 -1.03934,-0.28364 -1.57803,-0.28563 -2.53829,-5e-5 -4.59598,2.05765 -4.59594,4.59595 -4e-5,2.53828 2.05765,4.59598 4.59594,4.59593 4.39576,-0.0399 38.59129,0.005 50.90901,-0.0219 2.67807,-0.006 4.19937,-1.18572 5.00684,-2.82471 0.52962,0.28545 1.12176,0.43509 1.7234,0.43553 2.00924,2e-5 3.63806,-1.62879 3.63803,-3.63803 3e-5,-2.00924 -1.62879,-3.63806 -3.63803,-3.63803 -0.91932,10e-4 -1.80414,0.35027 -2.47652,0.97722 -1.19902,-1.73238 -3.17074,-2.76737 -5.27758,-2.77029 -0.37343,3.1e-4 -0.74612,0.0333 -1.11384,0.0983 -0.63753,-2.85263 -2.69247,-5.17955 -5.44438,-6.16492 0.0766,-0.41928 0.11629,-0.84447 0.11854,-1.27069 -3.1e-4,-4.01661 -3.25281,-7.2745 -7.26941,-7.28148 0.0205,-0.17197 0.0312,-0.34497 0.032,-0.51816 6e-5,-2.52302 -2.04517,-4.56839 -4.56819,-4.56849 z"
         style="vector-effect:none;fill:url(#linearGradient841);fill-opacity:1;stroke:#ffffff;stroke-width:0.05483113;stroke-opacity:0" />
      <path
         inkscape:export-ydpi="90"
         inkscape:export-xdpi="90"
         sodipodi:nodetypes="ccccccccccccccccccccccccccccccccccccc"
         inkscape:connector-curvature="0"
         id="path845"
         d="m 314.34889,165.1246 c -1.21963,9e-5 -2.20824,0.98892 -2.20807,2.20856 5.8e-4,0.0796 0.005,0.15909 0.0152,0.23814 -1.42185,1.12638 -2.25092,2.84083 -2.25094,4.65477 2.2e-4,0.13874 0.005,0.27742 0.0152,0.4158 -3.03794,0.73467 -5.43907,3.05815 -6.2732,6.07031 -0.18287,-0.0174 -0.36642,-0.0265 -0.55011,-0.0276 -1.81019,10e-4 -4.88421,2.57086 -4.70527,6.07174 -0.88868,-0.94242 -2.12631,-1.47716 -3.42165,-1.4784 -0.65696,0.002 -1.30624,0.14129 -1.90611,0.40913 -0.68437,-0.82124 -1.69776,-1.29662 -2.76677,-1.29789 -1.9922,1e-4 -3.60711,1.61521 -3.60694,3.60742 4.9e-4,0.0213 0.002,0.0426 0.003,0.0638 -0.80518,0.38294 -1.31864,1.19453 -1.31979,2.08614 -2.4e-4,1.2778 1.03554,2.31379 2.31334,2.31381 0.73267,-0.001 1.42154,-0.34909 1.85705,-0.93828 0.24776,0.0536 0.50048,0.0809 0.75397,0.0814 0.0836,-1.1e-4 0.16715,-0.003 0.25052,-0.009 13.10975,-0.47083 37.20274,-0.0263 54.36223,0.18671 0.2999,0.0902 0.61133,0.13624 0.92448,0.13669 1.49163,-0.002 2.78742,-1.02626 3.13351,-2.47718 0.1015,0.0158 0.20401,0.0243 0.30673,0.0253 1.17281,-1e-4 2.12347,-0.95096 2.1233,-2.12378 -1e-4,-1.17262 -0.95067,-2.1232 -2.1233,-2.12329 -0.64169,5.8e-4 -1.24866,0.29145 -1.65129,0.79111 -0.52959,-0.35378 -1.15206,-0.54287 -1.78895,-0.54344 -0.57255,0.001 -1.13444,0.15503 -1.62795,0.44533 -1.03012,-1.23557 -2.55507,-1.95077 -4.16372,-1.95279 -0.74831,0.002 -1.48807,0.15929 -2.17284,0.46105 -0.95275,-2.44201 -3.30566,-4.04975 -5.92694,-4.04988 -1.45219,5.8e-4 -2.86042,0.4982 -3.99082,1.40981 -0.3656,-0.24105 -0.74865,-0.45454 -1.14596,-0.63871 0.009,-0.11587 0.0148,-0.23197 0.0172,-0.34816 -0.002,-2.98361 -2.13117,-5.54162 -5.06486,-6.08507 0.0145,-0.16029 0.0224,-0.32109 0.0238,-0.48201 -0.003,-3.09893 -2.38776,-5.67485 -5.47732,-5.91551 -0.38052,-0.72857 -1.13418,-1.1855 -1.95612,-1.18596 z"
         style="opacity:1;vector-effect:none;fill:url(#linearGradient923);fill-opacity:1;stroke:#ffffff;stroke-width:0.08658682;stroke-linecap:butt;stroke-linejoin:miter;stroke-miterlimit:4;stroke-dasharray:none;stroke-dashoffset:0;stroke-opacity:0" />
      <path
         inkscape:export-ydpi="90"
         inkscape:export-xdpi="90"
         style="vector-effect:none;fill:url(#linearGradient1045);fill-opacity:1;stroke:#ffffff;stroke-width:0.0749652;stroke-opacity:0"
         d="m 388.09726,187.56125 c -3.44963,-9e-5 -6.24613,2.79642 -6.24605,6.24606 5.8e-4,2.49818 1.48964,4.75574 3.78589,5.73966 -0.85684,1.4998 -1.30874,3.19671 -1.3113,4.92401 0.002,0.16783 0.008,0.33558 0.0181,0.5031 -0.19595,-0.0133 -0.39213,-0.0231 -0.58844,-0.0293 -8.04334,0.009 -14.84649,5.95184 -15.93698,13.92094 -1.30921,-0.64626 -2.74894,-0.98436 -4.20898,-0.98844 -1.00773,0.004 -2.00849,0.16734 -2.96529,0.48369 -1.32631,-2.60112 -3.99927,-4.23876 -6.91902,-4.23907 -2.77895,0.002 -5.34475,1.48978 -6.72852,3.89971 -0.69072,-0.25561 -1.42099,-0.38779 -2.15748,-0.39051 -3.47035,-6e-5 -6.28364,2.81322 -6.28357,6.28358 -7e-5,3.47034 2.81322,6.28363 6.28357,6.28357 6.00989,-0.0546 52.76208,0.006 69.60288,-0.0299 3.66146,-0.008 5.74138,-1.62112 6.84536,-3.86195 0.72409,0.39027 1.53367,0.59486 2.35624,0.59546 2.74703,3e-5 4.97395,-2.22689 4.97391,-4.97391 4e-5,-2.74704 -2.22688,-4.97396 -4.97391,-4.97392 -1.25691,0.002 -2.46663,0.47888 -3.38591,1.33605 -1.6393,-2.36851 -4.33504,-3.78356 -7.21551,-3.78754 -0.51056,4.2e-4 -1.02011,0.0455 -1.52285,0.13443 -0.87162,-3.90012 -3.68115,-7.08149 -7.44356,-8.42869 0.10476,-0.57324 0.15899,-1.15455 0.16206,-1.73728 -4.2e-4,-5.49152 -4.44724,-9.94571 -9.93875,-9.95525 0.028,-0.23513 0.0426,-0.47165 0.0437,-0.70843 8e-5,-3.44947 -2.79616,-6.24591 -6.24564,-6.24606 z"
         id="path1043"
         inkscape:connector-curvature="0"
         sodipodi:nodetypes="ccccccccccccccscccccccccccc" />
    </g>
    <path
       sodipodi:nodetypes="cccccccccccccccccccccccccccc"
       inkscape:connector-curvature="0"
       id="path1006"
       d="m -21.26767,291.79449 -0.116987,-2.61286 5.940932,0.0682 -3.685317,-4.28003 2.027898,0.039 -3.080847,-3.93881 2.275267,-0.57949 -2.404493,-3.09227 1.824659,-0.32853 -2.989464,-2.28866 1.628458,-0.48841 -2.532926,-1.68321 1.277316,-0.37146 -2.75619,-2.22246 -1.133843,3.36349 1.250614,-0.28623 -1.579356,2.61496 1.359512,-0.19789 -2.597128,2.8587 1.502816,-0.45738 -2.456882,3.43182 2.339889,-0.23398 -3.275844,3.93879 1.94991,-0.11699 -3.002859,4.28979 6.122442,0.14991 -0.05849,2.45688 z"
       style="fill:#000000;fill-rule:evenodd;stroke:none;stroke-width:0.1544245px;stroke-linecap:butt;stroke-linejoin:miter;stroke-opacity:1" />
    <path
       sodipodi:nodetypes="ccccccccccccccccccccccccccccc"
       inkscape:connector-curvature="0"
       id="path1008"
       d="m -45.963895,291.6155 -0.855989,-3.55395 6.470754,0.0336 -3.476136,-3.30426 2.648354,-0.0713 -3.701303,-3.8285 2.495876,0.23399 -2.183891,-3.11985 1.286935,-0.039 -2.768861,-2.72987 1.598919,0.11699 -2.456876,-3.31482 h 1.247935 l -2.066897,-3.50983 -0.542149,1.98854 -1.13477,1.44328 1.091948,-0.078 -2.105897,3.15885 h 1.715918 l -2.417882,2.65187 1.364934,0.039 -2.456882,3.43182 2.339889,-0.23398 -3.661907,4.2697 2.335973,-0.4479 -3.002859,3.58783 6.200435,-0.16208 -0.136486,3.47083 z"
       style="fill:#000000;fill-rule:evenodd;stroke:none;stroke-width:0.1544245px;stroke-linecap:butt;stroke-linejoin:miter;stroke-opacity:1" />
    <path
       style="fill:#000000;fill-rule:evenodd;stroke:none;stroke-width:0.1544245px;stroke-linecap:butt;stroke-linejoin:miter;stroke-opacity:1"
       d="m 0.3509818,289.9107 -0.11698715,-2.61286 5.94092665,0.0682 -3.685317,-4.28002 2.0278978,0.039 -3.0808406,-3.9388 2.4958699,0.23399 -2.1838905,-3.11985 1.2869345,-0.039 -2.7688554,-2.72987 1.5989139,0.11699 -2.45687024,-3.31482 h 1.24793491 l -2.06689747,-3.50983 -1.6769189,3.43182 1.0919481,-0.078 -2.1058971,3.15885 h 1.7159185 l -2.4178822,2.65187 1.3649337,0.039 -2.4568819,3.43182 2.3398889,-0.23398 -3.2758445,3.9388 1.9499104,-0.117 -3.0028589,4.28979 6.1224423,0.14991 -0.058494,2.45688 z"
       id="path1004"
       inkscape:connector-curvature="0"
       sodipodi:nodetypes="cccccccccccccccccccccccccccc" />
    <g
       id="background"
       inkscape:label="#g5546"
       inkscape:export-xdpi="96"
       inkscape:export-ydpi="96">
      <path
         sodipodi:nodetypes="cccccccccccccccccccccccccccc"
         inkscape:connector-curvature="0"
         id="path1029"
         d="m 192.46714,260.72239 -0.14771,-1.13113 2.58429,-0.1906 -1.76021,-1.72334 0.8827,-0.0582 -1.48486,-1.59748 1.09331,0.009 -1.06472,-1.27483 0.55782,-0.0647 -1.30446,-1.08367 0.69918,-0.008 -1.19058,-1.34944 0.54231,-0.0463 -1.02833,-1.44864 -0.60151,1.55354 0.47164,-0.0744 -0.79806,1.45081 0.74569,-0.0636 -0.95242,1.24206 0.5946,-0.0337 -0.94046,1.58246 1.00817,-0.18843 -1.27756,1.83312 0.84304,-0.12312 -1.14593,1.97554 2.6662,-0.16183 0.0657,1.06985 z"
         style="fill:#4c99b0;fill-opacity:1;fill-rule:evenodd;stroke:none;stroke-width:0.06735209px;stroke-linecap:butt;stroke-linejoin:miter;stroke-opacity:1" />
      <path
         inkscape:connector-curvature="0"
         id="path34"
         d="m 103.37941,243.00744 32.99378,-1.87191 11.11939,10.53182 14.98313,2.88001 8.82618,10.1566 9.51553,-2.96386 12.01142,-1.40393 8.89156,1.8719 6.39569,5.45972 4.36778,8.4236 15.44324,0.77995 7.48764,-2.65187 8.26759,-1.40392 7.9556,0.93596 5.61573,3.8998 11.38744,19.03106 32.2904,9.67151 17.62714,-3.11983 9.67152,-4.52378 6.39569,-6.55167 8.42358,-3.74383 h 14.1953 l 8.73556,2.96386 15.75523,-0.62397 9.98351,2.0279 v 57.2494 H 49.200327 V 241.3446 Z"
         style="fill:#4c99b0;fill-opacity:1;fill-rule:evenodd;stroke:none;stroke-width:0.1544245px;stroke-linecap:butt;stroke-linejoin:miter;stroke-opacity:1" />
      <path
         style="fill:#4c99b0;fill-opacity:1;fill-rule:evenodd;stroke:none;stroke-width:0.07344971px;stroke-linecap:butt;stroke-linejoin:miter;stroke-opacity:1"
         d="m 198.83277,262.99356 0.18993,-1.22943 2.76411,0.58774 -1.31812,-2.3408 0.94204,0.20794 -1.06816,-2.12511 1.11528,-0.0573 -0.83196,-1.66704 0.88165,0.0175 -1.17995,-1.34703 0.80511,-0.0754 -1.0237,-1.02196 0.63043,-0.0537 -1.07736,-1.29433 -0.84349,1.46243 0.61,-0.0165 -0.98121,1.07167 0.65251,0.0349 -1.47864,1.09011 0.74362,-0.0727 -1.46686,1.3705 1.11307,0.10984 -1.89622,1.53029 0.92028,0.12789 -1.80177,1.71952 2.84111,0.6428 -0.25717,1.14027 z"
         id="path1027"
         inkscape:connector-curvature="0"
         sodipodi:nodetypes="cccccccccccccccccccccccccccc" />
      <path
         sodipodi:nodetypes="cccccccccccccccccccccccccccc"
         inkscape:connector-curvature="0"
         id="path1031"
         d="m 239.40448,273.83912 -0.31008,-1.20475 2.77198,-0.54944 -2.13411,-1.63167 0.94774,-0.18024 -1.81937,-1.53198 1.00238,-0.4923 -1.42173,-1.20411 0.81717,-0.33145 -1.6154,-0.77283 0.71021,-0.38665 -1.34366,-0.53568 0.55821,-0.29785 -1.50033,-0.76484 -0.19871,1.67651 0.55411,-0.25558 -0.47932,1.37168 0.61344,-0.22514 -0.9292,1.5847 0.65476,-0.35992 -0.80786,1.83776 1.06625,-0.33783 -1.13946,2.15386 0.89617,-0.24522 -0.97805,2.29051 2.86445,-0.52918 0.21313,1.14931 z"
         style="fill:#4c99b0;fill-opacity:1;fill-rule:evenodd;stroke:none;stroke-width:0.07344971px;stroke-linecap:butt;stroke-linejoin:miter;stroke-opacity:1" />
      <path
         style="fill:#4c99b0;fill-opacity:1;fill-rule:evenodd;stroke:none;stroke-width:0.08673192px;stroke-linecap:butt;stroke-linejoin:miter;stroke-opacity:1"
         d="m 247.2843,274.78808 -0.25366,-2.03741 3.60918,0.42669 -1.73169,-2.06326 1.48253,0.12717 -1.82431,-2.37003 1.37818,0.28795 -1.02212,-1.87886 0.72069,0.0594 -1.37318,-1.69809 0.88497,0.16609 -1.16219,-2.00488 0.69647,0.0787 -0.93225,-2.08913 -0.42794,1.07562 -0.7243,0.73394 0.61433,0.0253 -1.37445,1.63016 0.95765,0.10818 -1.5166,1.32757 0.7593,0.10781 -1.58753,1.7604 1.32063,0.0169 -2.31288,2.15204 1.33193,-0.1027 -1.90208,1.81304 3.47066,0.30046 -0.295,1.92845 z"
         id="path1033"
         inkscape:connector-curvature="0"
         sodipodi:nodetypes="ccccccccccccccccccccccccccccc" />
      <path
         sodipodi:nodetypes="ccccccccccccccccccccccccccccc"
         inkscape:connector-curvature="0"
         id="path1035"
         d="m 350.09469,289.75663 -0.36823,-1.64185 2.97783,0.0623 -1.57593,-1.5459 1.21939,-0.0137 -1.67577,-1.7888 1.147,0.12575 -0.98252,-1.45166 0.59257,-0.009 -1.25457,-1.27642 0.73503,0.0654 -1.10675,-1.54338 0.57434,0.009 -0.92586,-1.6303 -0.26389,0.91127 -0.53272,0.65603 0.50312,-0.028 -0.99206,1.43857 0.78972,0.0124 -1.13199,1.20299 0.62791,0.0278 -1.15558,1.56167 1.07859,-0.0908 -1.71624,1.93856 1.07833,-0.18923 -1.40798,1.62951 2.85483,-0.0297 -0.0879,1.59641 z"
         style="fill:#4c99b0;fill-opacity:1;fill-rule:evenodd;stroke:none;stroke-width:0.07108038px;stroke-linecap:butt;stroke-linejoin:miter;stroke-opacity:1" />
    </g>
    <g
       id="midground"
       inkscape:label="#g5538"
       inkscape:export-xdpi="96.044106"
       inkscape:export-ydpi="96.044106"
       inkscape:export-filename="/home/tom/Pictures/midground.png">
      <path
         inkscape:export-ydpi="90"
         inkscape:export-xdpi="90"
         sodipodi:nodetypes="ccccccccccccccccccccccccccccccccccccccccc"
         inkscape:connector-curvature="0"
         id="path925"
         d="m 68.666019,199.74046 17.783124,-1.24793 0.750484,-4.62019 7.643629,-0.46798 1.40393,6.2397 7.643624,3.27584 6.10079,14.95817 8.26759,2.65186 6.2397,8.57959 3.19505,11.99893 9.82752,6.39568 0.93595,13.10336 5.92771,6.08369 5.63511,11.25086 15.31238,2.18389 12.01141,-2.33989 13.02646,2.80787 3.89981,5.92771 3.58782,8.42358 h 7.33164 l 1.55992,-3.74382 9.35954,-0.77995 4.0558,5.45973 10.3322,7.58872 19.49904,-2.0279 3.58782,-4.21179 10.76348,1.40393 3.74381,6.39568 13.41534,1.55992 15.28725,-9.82751 12.69146,-3.69515 10.1395,-0.15598 2.0279,7.64362 16.37919,5.30374 18.10481,-3.88218 16.22319,6.39569 16.71234,3.11984 1.08882,36.33128 H 55.8941 V 199.88381 Z"
         style="fill:#336e81;fill-opacity:1;fill-rule:evenodd;stroke:none;stroke-width:0.1544245px;stroke-linecap:butt;stroke-linejoin:miter;stroke-opacity:1" />
      <path
         inkscape:export-ydpi="90"
         inkscape:export-xdpi="90"
         style="fill:#336e81;fill-opacity:1;fill-rule:evenodd;stroke:none;stroke-width:0.17317915px;stroke-linecap:butt;stroke-linejoin:miter;stroke-opacity:1"
         d="m 175.92875,280.31972 -0.37979,-2.90843 6.64484,-0.49007 -4.52593,-4.43116 2.26967,-0.14974 -3.81796,-4.10752 2.81117,0.0236 -2.73765,-3.27791 1.43429,-0.16624 -3.35412,-2.78639 1.79777,-0.0217 -3.06126,-3.46976 1.39443,-0.11895 -2.6441,-3.72482 -1.54665,3.99453 1.2127,-0.19125 -2.05199,3.73041 1.91734,-0.16357 -2.44892,3.19366 1.52887,-0.0865 -2.41816,4.06889 2.59227,-0.4845 -3.28493,4.71343 2.16765,-0.31659 -2.94645,5.0796 6.85545,-0.4161 0.16883,2.75088 z"
         id="path1013"
         inkscape:connector-curvature="0"
         sodipodi:nodetypes="cccccccccccccccccccccccccccc" />
      <path
         inkscape:export-ydpi="90"
         inkscape:export-xdpi="90"
         sodipodi:nodetypes="cccccccccccccccccccccccccccc"
         inkscape:connector-curvature="0"
         id="path1015"
         d="m 185.21147,282.27883 0.39933,-2.58481 5.81141,1.23567 -2.77128,-4.9214 1.9806,0.43718 -2.24575,-4.46794 2.34481,-0.12055 -1.74916,-3.50488 1.85363,0.0368 -2.48079,-2.83206 1.69272,-0.15849 -2.15228,-2.14862 1.32543,-0.11292 -2.2651,-2.72125 -1.77338,3.07469 1.28248,-0.0346 -2.06294,2.25314 1.37188,0.0734 -3.10877,2.29189 1.56342,-0.15279 -3.08401,2.88141 2.34019,0.23092 -3.98671,3.21736 1.93482,0.2689 -3.78812,3.6152 5.97331,1.35146 -0.5407,2.39736 z"
         style="fill:#336e81;fill-opacity:1;fill-rule:evenodd;stroke:none;stroke-width:0.1544245px;stroke-linecap:butt;stroke-linejoin:miter;stroke-opacity:1" />
      <path
         inkscape:export-ydpi="90"
         inkscape:export-xdpi="90"
         sodipodi:nodetypes="ccccccccccccccccccccccccccccc"
         inkscape:connector-curvature="0"
         id="path1017"
         d="m 311.85448,295.20993 -0.45165,-3.62757 6.4261,0.7597 -3.08326,-3.67358 2.63962,0.22642 -3.24815,-4.21979 2.45383,0.51269 -1.81987,-3.34528 1.28318,0.10571 -2.44493,-3.02342 1.57568,0.29573 -2.06925,-3.56966 1.24005,0.14008 -1.65985,-3.71966 -0.76194,1.91512 -1.28961,1.30677 1.0938,0.0451 -2.44718,2.90249 1.70508,0.19262 -2.70028,2.3637 1.35193,0.19195 -2.82658,3.13435 2.35136,0.0302 -4.11805,3.83166 2.37149,-0.18285 -3.38662,3.22808 6.17944,0.53496 -0.52523,3.43357 z"
         style="fill:#336e81;fill-opacity:1;fill-rule:evenodd;stroke:none;stroke-width:0.1544245px;stroke-linecap:butt;stroke-linejoin:miter;stroke-opacity:1" />
      <path
         inkscape:export-ydpi="90"
         inkscape:export-xdpi="90"
         sodipodi:nodetypes="cccccccccccccccccccccccccccc"
         inkscape:connector-curvature="0"
         id="path1021"
         d="m 304.33499,296.81772 -0.34632,-2.65213 6.05926,-0.44687 -4.12707,-4.04065 2.06964,-0.13656 -3.48149,-3.74553 2.56343,0.0215 -2.49639,-2.98905 1.30789,-0.15158 -3.05853,-2.54084 1.63933,-0.0198 -2.79148,-3.16398 1.27154,-0.10847 -2.41108,-3.39656 -1.41035,3.6425 1.10583,-0.17439 -1.87116,3.40166 1.74838,-0.14915 -2.23311,2.91221 1.39414,-0.0789 -2.20505,3.71031 2.36381,-0.4418 -2.99544,4.29806 1.97662,-0.2887 -2.68679,4.63196 6.25131,-0.37943 0.15396,2.50844 z"
         style="fill:#336e81;fill-opacity:1;fill-rule:evenodd;stroke:none;stroke-width:0.15791751px;stroke-linecap:butt;stroke-linejoin:miter;stroke-opacity:1" />
      <path
         inkscape:export-ydpi="90"
         inkscape:export-xdpi="90"
         sodipodi:nodetypes="cccccccccccccccccccccccccccc"
         inkscape:connector-curvature="0"
         id="path1023"
         d="m 255.64558,298.88962 -0.19881,-2.63824 6.00894,-0.11406 -3.85809,-4.21395 2.0516,-0.0231 -3.23639,-3.88757 2.53077,0.15972 -2.30425,-3.08717 1.30001,-0.0791 -2.88369,-2.67483 1.62025,0.069 -2.58627,-3.2759 1.26178,-0.0384 -2.19798,-3.48507 -1.58977,3.52156 1.10166,-0.11252 -2.03193,3.25879 1.73496,-0.0529 -2.36299,2.7558 1.38128,-0.003 -2.37839,3.5456 2.35864,-0.30869 -3.19081,4.08344 1.96793,-0.17837 -2.90398,4.4299 6.19497,-0.0371 0.0166,2.48593 z"
         style="fill:#336e81;fill-opacity:1;fill-rule:evenodd;stroke:none;stroke-width:0.15621009px;stroke-linecap:butt;stroke-linejoin:miter;stroke-opacity:1" />
      <path
         inkscape:export-ydpi="90"
         inkscape:export-xdpi="90"
         style="fill:#336e81;fill-opacity:1;fill-rule:evenodd;stroke:none;stroke-width:0.11257533px;stroke-linecap:butt;stroke-linejoin:miter;stroke-opacity:1"
         d="m 163.09859,280.86056 -0.14327,-1.90129 4.33044,-0.0822 -2.7804,-3.03685 1.47852,-0.0166 -2.33235,-2.80164 1.82383,0.1151 -1.66059,-2.22482 0.93687,-0.057 -2.07818,-1.92767 1.16766,0.0498 -1.86383,-2.36082 0.90932,-0.0277 -1.58401,-2.51158 -1.1457,2.53787 0.79393,-0.0811 -1.46434,2.3485 1.25033,-0.0381 -1.70293,1.98601 0.99544,-0.002 -1.71403,2.5552 1.6998,-0.22246 -2.29951,2.94279 1.41822,-0.12855 -2.0928,3.19248 4.46451,-0.0267 0.012,1.79153 z"
         id="path1025"
         inkscape:connector-curvature="0"
         sodipodi:nodetypes="cccccccccccccccccccccccccccc" />
      <path
         inkscape:export-ydpi="90"
         inkscape:export-xdpi="90"
         sodipodi:nodetypes="cccccccccccccccccccccccccccc"
         inkscape:connector-curvature="0"
         id="path1037"
         d="m 79.286176,200.13542 -0.250002,-3.07303 7.001583,-0.17468 -4.525208,-4.88382 2.390612,-0.0412 -3.798453,-4.5078 2.950275,0.16855 -2.70665,-3.58155 1.514383,-0.10117 -3.379022,-3.09702 1.888605,0.0692 -3.036601,-3.79952 1.470111,-0.0536 -2.585575,-4.04598 -1.82814,4.11481 1.283013,-0.13877 -2.34521,3.81167 2.021417,-0.0737 -2.734501,3.22781 1.609616,-0.0127 -2.746965,4.14831 2.746437,-0.37611 -3.689962,4.7807 2.292042,-0.22153 -3.353312,5.18245 7.218918,-0.0862 0.03657,2.89682 z"
         style="fill:#336e81;fill-opacity:1;fill-rule:evenodd;stroke:none;stroke-width:0.18203889px;stroke-linecap:butt;stroke-linejoin:miter;stroke-opacity:1" />
    </g>
    <path
       style="fill:#204854;fill-opacity:1;fill-rule:evenodd;stroke:none;stroke-width:0.1544245px;stroke-linecap:butt;stroke-linejoin:miter;stroke-opacity:1"
       d="m 53.94723,253.53964 7.487631,-2.18389 9.827516,-0.31198 2.963853,12.0114 10.607477,3.89981 -2.651868,8.73557 13.259356,2.33989 4.523777,9.67153 0.779958,12.1674 17.47114,5.7717 18.09511,-2.80785 2.80786,7.64361 13.57134,8.2676 1.71591,7.95561 15.13125,1.55992 6.55168,6.39569 3.65611,20.43499 H 53.25887 Z"
       id="foreground"
       inkscape:connector-curvature="0"
       inkscape:export-xdpi="96.032524"
       inkscape:export-ydpi="96.032524"
       inkscape:label="#path1041" />
    <g
       inkscape:export-ydpi="96"
       inkscape:export-xdpi="96"
       inkscape:label="#g5546"
       id="g5585"
       transform="matrix(-1,0,0,1,783.43808,0)">
      <path
         style="fill:#4c99b0;fill-opacity:1;fill-rule:evenodd;stroke:none;stroke-width:0.06735209px;stroke-linecap:butt;stroke-linejoin:miter;stroke-opacity:1"
         d="m 192.46714,260.72239 -0.14771,-1.13113 2.58429,-0.1906 -1.76021,-1.72334 0.8827,-0.0582 -1.48486,-1.59748 1.09331,0.009 -1.06472,-1.27483 0.55782,-0.0647 -1.30446,-1.08367 0.69918,-0.008 -1.19058,-1.34944 0.54231,-0.0463 -1.02833,-1.44864 -0.60151,1.55354 0.47164,-0.0744 -0.79806,1.45081 0.74569,-0.0636 -0.95242,1.24206 0.5946,-0.0337 -0.94046,1.58246 1.00817,-0.18843 -1.27756,1.83312 0.84304,-0.12312 -1.14593,1.97554 2.6662,-0.16183 0.0657,1.06985 z"
         id="path5573"
         inkscape:connector-curvature="0"
         sodipodi:nodetypes="cccccccccccccccccccccccccccc" />
      <path
         style="fill:#4c99b0;fill-opacity:1;fill-rule:evenodd;stroke:none;stroke-width:0.1544245px;stroke-linecap:butt;stroke-linejoin:miter;stroke-opacity:1"
         d="m 103.37941,243.00744 32.99378,-1.87191 11.11939,10.53182 14.98313,2.88001 8.82618,10.1566 9.51553,-2.96386 12.01142,-1.40393 8.89156,1.8719 6.39569,5.45972 4.36778,8.4236 15.44324,0.77995 7.48764,-2.65187 8.26759,-1.40392 7.9556,0.93596 5.61573,3.8998 11.38744,19.03106 32.2904,9.67151 17.62714,-3.11983 9.67152,-4.52378 6.39569,-6.55167 8.42358,-3.74383 h 14.1953 l 8.73556,2.96386 15.75523,-0.62397 9.98351,2.0279 v 57.2494 H 49.200327 V 241.3446 Z"
         id="path5575"
         inkscape:connector-curvature="0" />
      <path
         sodipodi:nodetypes="cccccccccccccccccccccccccccc"
         inkscape:connector-curvature="0"
         id="path5577"
         d="m 198.83277,262.99356 0.18993,-1.22943 2.76411,0.58774 -1.31812,-2.3408 0.94204,0.20794 -1.06816,-2.12511 1.11528,-0.0573 -0.83196,-1.66704 0.88165,0.0175 -1.17995,-1.34703 0.80511,-0.0754 -1.0237,-1.02196 0.63043,-0.0537 -1.07736,-1.29433 -0.84349,1.46243 0.61,-0.0165 -0.98121,1.07167 0.65251,0.0349 -1.47864,1.09011 0.74362,-0.0727 -1.46686,1.3705 1.11307,0.10984 -1.89622,1.53029 0.92028,0.12789 -1.80177,1.71952 2.84111,0.6428 -0.25717,1.14027 z"
         style="fill:#4c99b0;fill-opacity:1;fill-rule:evenodd;stroke:none;stroke-width:0.07344971px;stroke-linecap:butt;stroke-linejoin:miter;stroke-opacity:1" />
      <path
         style="fill:#4c99b0;fill-opacity:1;fill-rule:evenodd;stroke:none;stroke-width:0.07344971px;stroke-linecap:butt;stroke-linejoin:miter;stroke-opacity:1"
         d="m 239.40448,273.83912 -0.31008,-1.20475 2.77198,-0.54944 -2.13411,-1.63167 0.94774,-0.18024 -1.81937,-1.53198 1.00238,-0.4923 -1.42173,-1.20411 0.81717,-0.33145 -1.6154,-0.77283 0.71021,-0.38665 -1.34366,-0.53568 0.55821,-0.29785 -1.50033,-0.76484 -0.19871,1.67651 0.55411,-0.25558 -0.47932,1.37168 0.61344,-0.22514 -0.9292,1.5847 0.65476,-0.35992 -0.80786,1.83776 1.06625,-0.33783 -1.13946,2.15386 0.89617,-0.24522 -0.97805,2.29051 2.86445,-0.52918 0.21313,1.14931 z"
         id="path5579"
         inkscape:connector-curvature="0"
         sodipodi:nodetypes="cccccccccccccccccccccccccccc" />
      <path
         sodipodi:nodetypes="ccccccccccccccccccccccccccccc"
         inkscape:connector-curvature="0"
         id="path5581"
         d="m 247.2843,274.78808 -0.25366,-2.03741 3.60918,0.42669 -1.73169,-2.06326 1.48253,0.12717 -1.82431,-2.37003 1.37818,0.28795 -1.02212,-1.87886 0.72069,0.0594 -1.37318,-1.69809 0.88497,0.16609 -1.16219,-2.00488 0.69647,0.0787 -0.93225,-2.08913 -0.42794,1.07562 -0.7243,0.73394 0.61433,0.0253 -1.37445,1.63016 0.95765,0.10818 -1.5166,1.32757 0.7593,0.10781 -1.58753,1.7604 1.32063,0.0169 -2.31288,2.15204 1.33193,-0.1027 -1.90208,1.81304 3.47066,0.30046 -0.295,1.92845 z"
         style="fill:#4c99b0;fill-opacity:1;fill-rule:evenodd;stroke:none;stroke-width:0.08673192px;stroke-linecap:butt;stroke-linejoin:miter;stroke-opacity:1" />
      <path
         style="fill:#4c99b0;fill-opacity:1;fill-rule:evenodd;stroke:none;stroke-width:0.07108038px;stroke-linecap:butt;stroke-linejoin:miter;stroke-opacity:1"
         d="m 350.09469,289.75663 -0.36823,-1.64185 2.97783,0.0623 -1.57593,-1.5459 1.21939,-0.0137 -1.67577,-1.7888 1.147,0.12575 -0.98252,-1.45166 0.59257,-0.009 -1.25457,-1.27642 0.73503,0.0654 -1.10675,-1.54338 0.57434,0.009 -0.92586,-1.6303 -0.26389,0.91127 -0.53272,0.65603 0.50312,-0.028 -0.99206,1.43857 0.78972,0.0124 -1.13199,1.20299 0.62791,0.0278 -1.15558,1.56167 1.07859,-0.0908 -1.71624,1.93856 1.07833,-0.18923 -1.40798,1.62951 2.85483,-0.0297 -0.0879,1.59641 z"
         id="path5583"
         inkscape:connector-curvature="0"
         sodipodi:nodetypes="ccccccccccccccccccccccccccccc" />
    </g>
    <g
       inkscape:export-ydpi="96.044106"
       inkscape:export-xdpi="96.044106"
       inkscape:label="#g5538"
       id="g5571"
       transform="matrix(-1,0,0,1,777.60302,0)"
       inkscape:export-filename="/home/tom/Pictures/midground.png">
      <path
         style="fill:#336e81;fill-opacity:1;fill-rule:evenodd;stroke:none;stroke-width:0.1544245px;stroke-linecap:butt;stroke-linejoin:miter;stroke-opacity:1"
         d="m 68.666019,199.74046 17.783124,-1.24793 0.750484,-4.62019 7.643629,-0.46798 1.40393,6.2397 7.643624,3.27584 6.10079,14.95817 8.26759,2.65186 6.2397,8.57959 3.19505,11.99893 9.82752,6.39568 0.93595,13.10336 5.92771,6.08369 5.63511,11.25086 15.31238,2.18389 12.01141,-2.33989 13.02646,2.80787 3.89981,5.92771 3.58782,8.42358 h 7.33164 l 1.55992,-3.74382 9.35954,-0.77995 4.0558,5.45973 10.3322,7.58872 19.49904,-2.0279 3.58782,-4.21179 10.76348,1.40393 3.74381,6.39568 13.41534,1.55992 15.28725,-9.82751 12.69146,-3.69515 10.1395,-0.15598 2.0279,7.64362 16.37919,5.30374 18.10481,-3.88218 16.22319,6.39569 16.71234,3.11984 1.08882,36.33128 H 55.8941 V 199.88381 Z"
         id="path5555"
         inkscape:connector-curvature="0"
         sodipodi:nodetypes="ccccccccccccccccccccccccccccccccccccccccc"
         inkscape:export-xdpi="90"
         inkscape:export-ydpi="90" />
      <path
         sodipodi:nodetypes="cccccccccccccccccccccccccccc"
         inkscape:connector-curvature="0"
         id="path5557"
         d="m 175.92875,280.31972 -0.37979,-2.90843 6.64484,-0.49007 -4.52593,-4.43116 2.26967,-0.14974 -3.81796,-4.10752 2.81117,0.0236 -2.73765,-3.27791 1.43429,-0.16624 -3.35412,-2.78639 1.79777,-0.0217 -3.06126,-3.46976 1.39443,-0.11895 -2.6441,-3.72482 -1.54665,3.99453 1.2127,-0.19125 -2.05199,3.73041 1.91734,-0.16357 -2.44892,3.19366 1.52887,-0.0865 -2.41816,4.06889 2.59227,-0.4845 -3.28493,4.71343 2.16765,-0.31659 -2.94645,5.0796 6.85545,-0.4161 0.16883,2.75088 z"
         style="fill:#336e81;fill-opacity:1;fill-rule:evenodd;stroke:none;stroke-width:0.17317915px;stroke-linecap:butt;stroke-linejoin:miter;stroke-opacity:1"
         inkscape:export-xdpi="90"
         inkscape:export-ydpi="90" />
      <path
         style="fill:#336e81;fill-opacity:1;fill-rule:evenodd;stroke:none;stroke-width:0.1544245px;stroke-linecap:butt;stroke-linejoin:miter;stroke-opacity:1"
         d="m 185.21147,282.27883 0.39933,-2.58481 5.81141,1.23567 -2.77128,-4.9214 1.9806,0.43718 -2.24575,-4.46794 2.34481,-0.12055 -1.74916,-3.50488 1.85363,0.0368 -2.48079,-2.83206 1.69272,-0.15849 -2.15228,-2.14862 1.32543,-0.11292 -2.2651,-2.72125 -1.77338,3.07469 1.28248,-0.0346 -2.06294,2.25314 1.37188,0.0734 -3.10877,2.29189 1.56342,-0.15279 -3.08401,2.88141 2.34019,0.23092 -3.98671,3.21736 1.93482,0.2689 -3.78812,3.6152 5.97331,1.35146 -0.5407,2.39736 z"
         id="path5559"
         inkscape:connector-curvature="0"
         sodipodi:nodetypes="cccccccccccccccccccccccccccc"
         inkscape:export-xdpi="90"
         inkscape:export-ydpi="90" />
      <path
         style="fill:#336e81;fill-opacity:1;fill-rule:evenodd;stroke:none;stroke-width:0.1544245px;stroke-linecap:butt;stroke-linejoin:miter;stroke-opacity:1"
         d="m 311.85448,295.20993 -0.45165,-3.62757 6.4261,0.7597 -3.08326,-3.67358 2.63962,0.22642 -3.24815,-4.21979 2.45383,0.51269 -1.81987,-3.34528 1.28318,0.10571 -2.44493,-3.02342 1.57568,0.29573 -2.06925,-3.56966 1.24005,0.14008 -1.65985,-3.71966 -0.76194,1.91512 -1.28961,1.30677 1.0938,0.0451 -2.44718,2.90249 1.70508,0.19262 -2.70028,2.3637 1.35193,0.19195 -2.82658,3.13435 2.35136,0.0302 -4.11805,3.83166 2.37149,-0.18285 -3.38662,3.22808 6.17944,0.53496 -0.52523,3.43357 z"
         id="path5561"
         inkscape:connector-curvature="0"
         sodipodi:nodetypes="ccccccccccccccccccccccccccccc"
         inkscape:export-xdpi="90"
         inkscape:export-ydpi="90" />
      <path
         style="fill:#336e81;fill-opacity:1;fill-rule:evenodd;stroke:none;stroke-width:0.15791751px;stroke-linecap:butt;stroke-linejoin:miter;stroke-opacity:1"
         d="m 304.33499,296.81772 -0.34632,-2.65213 6.05926,-0.44687 -4.12707,-4.04065 2.06964,-0.13656 -3.48149,-3.74553 2.56343,0.0215 -2.49639,-2.98905 1.30789,-0.15158 -3.05853,-2.54084 1.63933,-0.0198 -2.79148,-3.16398 1.27154,-0.10847 -2.41108,-3.39656 -1.41035,3.6425 1.10583,-0.17439 -1.87116,3.40166 1.74838,-0.14915 -2.23311,2.91221 1.39414,-0.0789 -2.20505,3.71031 2.36381,-0.4418 -2.99544,4.29806 1.97662,-0.2887 -2.68679,4.63196 6.25131,-0.37943 0.15396,2.50844 z"
         id="path5563"
         inkscape:connector-curvature="0"
         sodipodi:nodetypes="cccccccccccccccccccccccccccc"
         inkscape:export-xdpi="90"
         inkscape:export-ydpi="90" />
      <path
         style="fill:#336e81;fill-opacity:1;fill-rule:evenodd;stroke:none;stroke-width:0.15621009px;stroke-linecap:butt;stroke-linejoin:miter;stroke-opacity:1"
         d="m 255.64558,298.88962 -0.19881,-2.63824 6.00894,-0.11406 -3.85809,-4.21395 2.0516,-0.0231 -3.23639,-3.88757 2.53077,0.15972 -2.30425,-3.08717 1.30001,-0.0791 -2.88369,-2.67483 1.62025,0.069 -2.58627,-3.2759 1.26178,-0.0384 -2.19798,-3.48507 -1.58977,3.52156 1.10166,-0.11252 -2.03193,3.25879 1.73496,-0.0529 -2.36299,2.7558 1.38128,-0.003 -2.37839,3.5456 2.35864,-0.30869 -3.19081,4.08344 1.96793,-0.17837 -2.90398,4.4299 6.19497,-0.0371 0.0166,2.48593 z"
         id="path5565"
         inkscape:connector-curvature="0"
         sodipodi:nodetypes="cccccccccccccccccccccccccccc"
         inkscape:export-xdpi="90"
         inkscape:export-ydpi="90" />
      <path
         sodipodi:nodetypes="cccccccccccccccccccccccccccc"
         inkscape:connector-curvature="0"
         id="path5567"
         d="m 163.09859,280.86056 -0.14327,-1.90129 4.33044,-0.0822 -2.7804,-3.03685 1.47852,-0.0166 -2.33235,-2.80164 1.82383,0.1151 -1.66059,-2.22482 0.93687,-0.057 -2.07818,-1.92767 1.16766,0.0498 -1.86383,-2.36082 0.90932,-0.0277 -1.58401,-2.51158 -1.1457,2.53787 0.79393,-0.0811 -1.46434,2.3485 1.25033,-0.0381 -1.70293,1.98601 0.99544,-0.002 -1.71403,2.5552 1.6998,-0.22246 -2.29951,2.94279 1.41822,-0.12855 -2.0928,3.19248 4.46451,-0.0267 0.012,1.79153 z"
         style="fill:#336e81;fill-opacity:1;fill-rule:evenodd;stroke:none;stroke-width:0.11257533px;stroke-linecap:butt;stroke-linejoin:miter;stroke-opacity:1"
         inkscape:export-xdpi="90"
         inkscape:export-ydpi="90" />
      <path
         style="fill:#336e81;fill-opacity:1;fill-rule:evenodd;stroke:none;stroke-width:0.18203889px;stroke-linecap:butt;stroke-linejoin:miter;stroke-opacity:1"
         d="m 79.286176,200.13542 -0.250002,-3.07303 7.001583,-0.17468 -4.525208,-4.88382 2.390612,-0.0412 -3.798453,-4.5078 2.950275,0.16855 -2.70665,-3.58155 1.514383,-0.10117 -3.379022,-3.09702 1.888605,0.0692 -3.036601,-3.79952 1.470111,-0.0536 -2.585575,-4.04598 -1.82814,4.11481 1.283013,-0.13877 -2.34521,3.81167 2.021417,-0.0737 -2.734501,3.22781 1.609616,-0.0127 -2.746965,4.14831 2.746437,-0.37611 -3.689962,4.7807 2.292042,-0.22153 -3.353312,5.18245 7.218918,-0.0862 0.03657,2.89682 z"
         id="path5569"
         inkscape:connector-curvature="0"
         sodipodi:nodetypes="cccccccccccccccccccccccccccc"
         inkscape:export-xdpi="90"
         inkscape:export-ydpi="90" />
    </g>
  </g>
</svg>
