<?xml version="1.0" encoding="UTF-8" standalone="no"?>
<!-- Created with Inkscape (http://www.inkscape.org/) -->

<svg
   xmlns:dc="http://purl.org/dc/elements/1.1/"
   xmlns:cc="http://creativecommons.org/ns#"
   xmlns:rdf="http://www.w3.org/1999/02/22-rdf-syntax-ns#"
   xmlns:svg="http://www.w3.org/2000/svg"
   xmlns="http://www.w3.org/2000/svg"
   xmlns:sodipodi="http://sodipodi.sourceforge.net/DTD/sodipodi-0.dtd"
   xmlns:inkscape="http://www.inkscape.org/namespaces/inkscape"
   width="9.9999997e-06mm"
   height="9.9999997e-06mm"
   viewBox="0 0 9.9999997e-06 9.9999997e-06"
   version="1.1"
   id="svg8"
   inkscape:version="0.92.1 r15371"
   sodipodi:docname="wolf.svg"
   inkscape:export-filename="/home/tom/Code/godot/game-thing/characters/bear/bear.svg.png"
   inkscape:export-xdpi="90"
   inkscape:export-ydpi="90">
  <defs
     id="defs2" />
  <sodipodi:namedview
     id="base"
     pagecolor="#ffffff"
     bordercolor="#666666"
     borderopacity="1.0"
     inkscape:pageopacity="0.0"
     inkscape:pageshadow="2"
     inkscape:zoom="3.3024096"
     inkscape:cx="639.04302"
     inkscape:cy="527.33549"
     inkscape:document-units="mm"
     inkscape:current-layer="layer1"
     inkscape:document-rotation="0"
     showgrid="false"
     inkscape:snap-global="false"
     inkscape:window-width="1920"
     inkscape:window-height="1018"
     inkscape:window-x="-8"
     inkscape:window-y="-8"
     inkscape:window-maximized="1" />
  <metadata
     id="metadata5">
    <rdf:RDF>
      <cc:Work
         rdf:about="">
        <dc:format>image/svg+xml</dc:format>
        <dc:type
           rdf:resource="http://purl.org/dc/dcmitype/StillImage" />
        <dc:title />
      </cc:Work>
    </rdf:RDF>
  </metadata>
  <g
     inkscape:groupmode="layer"
     id="layer2"
     inkscape:label="Layer 2"
     sodipodi:insensitive="true">
    <rect
       style="fill:#ff00ff;fill-opacity:1;stroke:none;stroke-width:0.22404167"
       id="rect964"
       width="18.520834"
       height="18.520834"
       x="191.16219"
       y="-126.52023" />
  </g>
  <g
     inkscape:label="Layer 1"
     inkscape:groupmode="layer"
     id="layer1"
     transform="translate(0,-296.99999)">
    <path
       style="fill:#574343;fill-opacity:1;stroke:none;stroke-width:0.26458332px;stroke-linecap:butt;stroke-linejoin:miter;stroke-opacity:1"
       d="m 196.74433,153.78887 c -0.22327,0.49801 -0.82163,1.43926 -0.30294,1.60903 2.59645,0.8498 2.8326,3.909 2.8326,3.909 0,0 0.66489,-1.99254 1.50129,-1.75622 2.3454,0.66267 5.08041,1.21518 7.30813,0.22661 2.26538,-1.00528 4.81543,-5.66521 4.81543,-5.66521 0,0 -2.84093,2.05999 -3.96566,1.30299 -0.23707,-0.15956 0.28327,-0.99141 0.28327,-0.99141 0,0 -5.35249,2.63356 -6.91156,1.13304 -0.21264,-0.20465 0.28326,-0.79312 0.28326,-0.79312 0,0 -1.34684,-0.45813 -2.57767,0.19828 -0.27138,0.14473 0.70815,-0.84979 0.70815,-0.84979 0,0 -2.30385,-0.005 -3.03089,0.45322 -0.43576,0.27451 -0.73272,0.75363 -0.94341,1.22358 z"
       id="path4568"
       inkscape:connector-curvature="0"
       sodipodi:nodetypes="sscsscscscscss" />
    <path
       style="fill:#6c5353;fill-opacity:1;stroke:none;stroke-width:0.26458332px;stroke-linecap:butt;stroke-linejoin:miter;stroke-opacity:1"
       d="m 196.73639,153.77228 c -0.22327,0.49801 -1.12207,-0.10302 -0.60338,0.0668 2.19982,0.98224 2.71645,1.71309 4.51415,2.05264 2.3454,0.66267 5.70133,0.51414 7.92905,-0.47443 2.26538,-1.00528 4.31469,-3.32175 4.31469,-3.32175 0,0 -2.84093,2.05999 -3.96566,1.30299 -0.23707,-0.15956 0.28327,-0.99141 0.28327,-0.99141 0,0 -5.35249,2.63356 -6.91156,1.13304 -0.21264,-0.20465 0.28326,-0.79312 0.28326,-0.79312 0,0 -1.34684,-0.45813 -2.57767,0.19828 -0.27138,0.14473 0.70815,-0.84979 0.70815,-0.84979 0,0 -2.30385,-0.005 -3.03089,0.45322 -0.43576,0.27451 -0.73272,0.75363 -0.94341,1.22358 z"
       id="path4568-1"
       inkscape:connector-curvature="0"
       sodipodi:nodetypes="sccscscscscss" />
    <ellipse
       cy="151.25375"
       cx="186.19868"
       id="circle864"
       style="vector-effect:none;fill:#574343;fill-opacity:1;stroke-width:0.0677106"
       rx="12.067677"
       ry="11.410377" />
    <path
       style="fill:#574343;fill-opacity:1;fill-rule:evenodd;stroke:none;stroke-width:0.25834271px;stroke-linecap:butt;stroke-linejoin:miter;stroke-opacity:1"
       d="m 195.30075,144.6202 c 0,0 -0.35272,0.0663 0.80504,0.6564 -0.62865,0.21319 0.62132,0.46967 0.71345,0.64161 0.27014,-0.0226 0.67518,0.003 1.26021,0.48276 -1.04231,0.27499 -0.6382,0.44566 -0.6382,0.44566 0,0 0.74361,0.16591 1.17745,0.83159 -0.65606,-0.04 -0.93673,0.1559 -0.93673,0.1559"
       id="path889"
       inkscape:connector-curvature="0"
       sodipodi:nodetypes="ccccccc" />
    <path
       style="fill:#6c5353;fill-opacity:1;fill-rule:evenodd;stroke:none;stroke-width:0.56915969px;stroke-linecap:butt;stroke-linejoin:miter;stroke-opacity:1"
       d="m 182.70251,140.9824 c 0,0 0.47706,-2.00551 2.09363,-2.49063 0.0281,1.39375 -0.0683,1.41846 -0.0683,1.41846 0,0 0.44703,-1.21934 2.25953,-1.43493 -0.54959,1.39659 -0.22302,1.30632 -0.22302,1.30632 0,0 0.9395,-1.40377 2.27186,-1.42497 -0.67656,0.97879 -0.34098,2.18203 -0.34098,2.18203"
       id="path891"
       inkscape:connector-curvature="0"
       sodipodi:nodetypes="ccccccc" />
    <path
       sodipodi:nodetypes="sssss"
       inkscape:connector-curvature="0"
       id="circle919"
       d="m 195.42672,149.19213 c 0,5.16316 -4.76721,9.34873 -10.64786,9.34873 -5.88065,0 -10.64786,-4.18557 -10.64786,-9.34873 0,-5.16318 4.76721,-9.34875 10.64786,-9.34875 5.88065,0 10.64786,1.56699 10.64786,9.34875 z"
       style="vector-effect:none;fill:#6c5353;fill-opacity:1;stroke-width:0.05757085" />
    <path
       style="vector-effect:none;fill:#574343;fill-opacity:1;stroke-width:0.03613229"
       d="m 174.33852,144.97006 c 0.59474,1.05489 1.94903,1.4569 3.02491,0.8979 1.70854,-1.18641 0.8444,-4.47239 -0.0397,-5.8912 -1.41316,1.08259 -3.81406,3.41265 -2.98522,4.9933 z"
       id="circle897-0"
       inkscape:connector-curvature="0"
       sodipodi:nodetypes="cccc" />
    <path
       sodipodi:nodetypes="sssss"
       inkscape:connector-curvature="0"
       id="foot_right"
       d="m 195.52559,162.97776 c 0,-1.44345 -1.01322,-3.02148 -2.64699,-3.04405 -1.80674,-0.0249 -2.64698,1.6006 -2.64698,3.04405 0,0.91085 0.95148,0.81313 2.64698,0.81313 1.69548,0 2.64699,-0.0545 2.64699,-0.81313 z"
       style="vector-effect:none;fill:#6c5353;fill-opacity:1;stroke-width:0.19552158"
       inkscape:label="#path885"
       inkscape:export-xdpi="96.331596"
       inkscape:export-ydpi="96.331596" />
    <path
       style="vector-effect:none;fill:#6c5353;fill-opacity:1;stroke-width:0.19552158"
       d="m 181.61968,163.04367 c 0,-1.44345 -1.01324,-3.0215 -2.64699,-3.04404 -1.80675,-0.025 -2.64699,1.60059 -2.64699,3.04404 0,0.91085 0.95148,0.81313 2.64699,0.81313 1.69548,0 2.64699,-0.0545 2.64699,-0.81313 z"
       id="foot_left"
       inkscape:connector-curvature="0"
       sodipodi:nodetypes="sssss"
       inkscape:label="#path883"
       inkscape:export-xdpi="96.331596"
       inkscape:export-ydpi="96.331596" />
    <path
       style="vector-effect:none;fill:#574343;fill-opacity:1;stroke-width:0.03289696"
       d="m 173.65834,144.58785 c -0.67208,0.86756 -1.94679,1.0459 -2.84718,0.39831 -1.39166,-1.29681 -0.19105,-4.13276 0.78889,-5.28826 1.13813,1.16362 3.00903,3.58157 2.05829,4.88995 z"
       id="circle897"
       inkscape:connector-curvature="0"
       sodipodi:nodetypes="cccc" />
    <path
       style="vector-effect:none;fill:#6c5353;fill-opacity:1;stroke-width:0.02640075"
       d="m 173.33642,144.35629 c -0.53937,0.69625 -1.56237,0.83936 -2.28495,0.31966 -1.50403,-0.62527 0.4123,-4.30881 0.53528,-4.36554 1.06326,0.76178 2.48566,3.033 1.74967,4.04588 z"
       id="circle899"
       inkscape:connector-curvature="0"
       sodipodi:nodetypes="cccc" />
    <path
       style="vector-effect:none;fill:#6c5353;fill-opacity:1;stroke-width:0.02899719"
       d="m 174.72321,144.77019 c 0.47729,0.84656 1.56416,1.16919 2.42755,0.72058 1.72681,-0.43633 0.2175,-4.76253 0.0929,-4.84438 -1.26981,0.65729 -3.16215,2.90014 -2.52051,4.1238 z"
       id="circle899-5"
       inkscape:connector-curvature="0"
       sodipodi:nodetypes="cccc" />
    <path
       style="vector-effect:none;fill:#574343;fill-opacity:1;stroke-width:0.09412045"
       d="m 179.2857,149.32677 c 0,3.15545 -7.14682,8.71604 -10.30227,8.71601 -0.64751,-1e-5 -2.00346,0.15178 -3.07886,-0.001 -0.65327,-0.0931 -1.11365,-0.44161 -1.50619,-0.59326 -0.9543,-0.36868 -3.06451,-2.66239 -2.39364,-4.19958 0.38994,-0.89348 0.90963,-1.86482 3.16128,-1.75078 0.27165,0.0138 0.18233,0.0849 0.49605,-0.038 0.5992,-0.31763 1.68687,-1.3086 1.68687,-1.5664 0,-3.15545 3.06786,-6.27997 6.22331,-6.27997 3.15545,0 5.71345,2.558 5.71345,5.71345 z"
       id="circle866"
       inkscape:connector-curvature="0"
       sodipodi:nodetypes="cssssscsssc" />
    <path
       inkscape:export-ydpi="96"
       inkscape:export-xdpi="96"
       sodipodi:nodetypes="csssssccc"
       inkscape:connector-curvature="0"
       id="circle1000"
       d="m 174.97349,150.58076 c -0.53518,0 -6.10571,5.45874 -7.70358,5.93652 -1.9604,0.58618 -3.93975,-0.13097 -4.63515,-1.10972 -0.62019,-0.87288 -0.46713,-1.96087 -0.38233,-2.35951 0.23448,-1.10215 1.99544,-1.4353 3.02384,-1.30551 1.1811,0.14908 2.5887,-1.38882 2.5887,-2.55641 0,-3.25934 2.85648,-5.58084 5.67478,-5.58084 2.68809,0 3.5882,0.82761 4.20625,3.52049 0.19623,2.22765 -1.27129,2.74082 -2.77251,3.45498 z"
       style="vector-effect:none;fill:#6c5353;fill-opacity:1;stroke-width:0.08128834" />
    <path
       inkscape:export-ydpi="96"
       inkscape:export-xdpi="96"
       sodipodi:nodetypes="sssss"
       inkscape:connector-curvature="0"
       id="path872"
       d="m 164.35647,153.34463 c -0.11921,0.50114 -0.88584,0.90593 -1.20477,0.83007 -0.32723,-0.0778 -0.82118,-0.78249 -0.70198,-1.28363 0.0752,-0.31623 0.40987,-0.20078 1.02052,-0.0555 0.61068,0.14526 0.94888,0.24566 0.88622,0.50909 z"
       style="vector-effect:none;fill:#1a1a1a;stroke-width:0.07106911" />
    <ellipse
       cy="147.77518"
       cx="169.94757"
       id="eye_left"
       style="vector-effect:none;fill:#ffffff;stroke-width:0.11288642"
       rx="1.4596139"
       ry="1.755941"
       inkscape:label="#circle874"
       inkscape:export-xdpi="96.331596"
       inkscape:export-ydpi="96.331596" />
    <ellipse
       style="vector-effect:none;fill:#ffffff;stroke-width:0.1303273"
       id="eye_right"
       cx="173.75444"
       cy="147.98978"
       rx="1.9454749"
       ry="1.755941"
       inkscape:label="#circle877"
       inkscape:export-xdpi="96.331596"
       inkscape:export-ydpi="96.331596" />
    <g
       id="pupil_right"
       inkscape:label="#g933"
       transform="matrix(1.6084093,0,0,1.3417386,-77.326829,-90.010695)"
       inkscape:export-xdpi="96.331596"
       inkscape:export-ydpi="96.331596">
      <circle
         style="vector-effect:none;fill:#000000;stroke-width:0.02861368"
         id="circle879"
         cx="155.45726"
         cy="177.38217"
         r="0.40579432" />
      <circle
         r="0.15794109"
         cy="177.26178"
         cx="155.25189"
         id="circle911"
         style="vector-effect:none;fill:#ffffff;stroke-width:0.01113686" />
    </g>
    <path
       sodipodi:nodetypes="ccccc"
       inkscape:connector-curvature="0"
       id="eyebrow_right"
       d="m 175.09461,145.62045 -3.06239,0.29223 0.16889,1.00018 4.23573,-0.40417 z"
       style="vector-effect:none;fill:#574343;fill-opacity:1;stroke:none;stroke-width:0.1929839"
       inkscape:label="#path893"
       inkscape:export-xdpi="96.331596"
       inkscape:export-ydpi="96.331596" />
    <g
       id="pupil_left"
       inkscape:label="#g929"
       transform="matrix(1.6084093,0,0,1.3417386,-77.33822,-89.934683)"
       inkscape:export-xdpi="96.331596"
       inkscape:export-ydpi="96.331596">
      <ellipse
         ry="0.40579432"
         rx="0.30392823"
         cy="177.29404"
         cx="153.33505"
         id="circle881"
         style="vector-effect:none;fill:#000000;stroke-width:0.02476317" />
      <circle
         style="vector-effect:none;fill:#ffffff;stroke-width:0.01113686"
         id="circle913"
         cx="153.23073"
         cy="177.15607"
         r="0.15794109" />
    </g>
    <path
       style="vector-effect:none;fill:#574343;fill-opacity:1;stroke:none;stroke-width:0.17885037"
       d="m 169.06984,145.52534 2.61695,0.39092 -0.18402,0.99394 -3.61959,-0.54068 z"
       id="eyebrow_left"
       inkscape:connector-curvature="0"
       sodipodi:nodetypes="ccccc"
       inkscape:label="#path895"
       inkscape:export-xdpi="96.331596"
       inkscape:export-ydpi="96.331596" />
    <path
       style="fill:#ffffff;stroke:#000000;stroke-width:0.26458332px;stroke-linecap:butt;stroke-linejoin:miter;stroke-opacity:1;fill-opacity:1"
       d="m 163.20073,156.33266 c 1.16485,1.37919 2.83238,2.04021 5.53775,1.61459 l 6.21758,-7.30813 z"
       id="path4593"
       inkscape:connector-curvature="0"
       sodipodi:nodetypes="cccc" />
    <path
       style="fill:none;stroke:#000000;stroke-width:0.26458332px;stroke-linecap:butt;stroke-linejoin:miter;stroke-opacity:1"
       d="m 163.29988,156.34683 5.25448,1.45879 -0.90643,-3.44162 3.6399,0.41073 0.46738,-2.45021 1.61459,0.085"
       id="path4595"
       inkscape:connector-curvature="0"
       sodipodi:nodetypes="cccccc" />
  </g>
</svg>
