<?xml version="1.0" encoding="UTF-8" standalone="no"?>
<!-- Created with Inkscape (http://www.inkscape.org/) -->

<svg
   xmlns:dc="http://purl.org/dc/elements/1.1/"
   xmlns:cc="http://creativecommons.org/ns#"
   xmlns:rdf="http://www.w3.org/1999/02/22-rdf-syntax-ns#"
   xmlns:svg="http://www.w3.org/2000/svg"
   xmlns="http://www.w3.org/2000/svg"
   xmlns:sodipodi="http://sodipodi.sourceforge.net/DTD/sodipodi-0.dtd"
   xmlns:inkscape="http://www.inkscape.org/namespaces/inkscape"
   width="200"
   height="200"
   viewBox="0 0 0 945"
   id="svg2"
   version="1.1"
   inkscape:version="0.91 r13725"
   sodipodi:docname="wizard.svg"
   inkscape:export-filename="/home/tom/Code/godot/game-thing/assets/wizard/wizard.png"
   inkscape:export-xdpi="90"
   inkscape:export-ydpi="90">
  <defs
     id="defs4" />
  <sodipodi:namedview
     id="base"
     pagecolor="#ffffff"
     bordercolor="#666666"
     borderopacity="1.0"
     inkscape:pageopacity="0.0"
     inkscape:pageshadow="2"
     inkscape:zoom="2.8"
     inkscape:cx="153.64372"
     inkscape:cy="124.93498"
     inkscape:document-units="px"
     inkscape:current-layer="layer1"
     showgrid="false"
     inkscape:window-width="1920"
     inkscape:window-height="1017"
     inkscape:window-x="0"
     inkscape:window-y="30"
     inkscape:window-maximized="1"
     units="in"
     width="0in"
     fit-margin-top="0"
     fit-margin-left="0"
     fit-margin-right="0"
     fit-margin-bottom="0" />
  <metadata
     id="metadata7">
    <rdf:RDF>
      <cc:Work
         rdf:about="">
        <dc:format>image/svg+xml</dc:format>
        <dc:type
           rdf:resource="http://purl.org/dc/dcmitype/StillImage" />
        <dc:title></dc:title>
      </cc:Work>
    </rdf:RDF>
  </metadata>
  <g
     inkscape:groupmode="layer"
     id="layer2"
     inkscape:label="Layer 2"
     sodipodi:insensitive="true"
     transform="translate(-883.52245,-892.2683)"
     style="display:inline">
    <rect
       style="fill:#ffaaee;fill-rule:evenodd;stroke:none;stroke-width:1px;stroke-linecap:butt;stroke-linejoin:miter;stroke-opacity:1"
       id="rect3336"
       width="331.42856"
       height="331.42856"
       x="122.85714"
       y="286.64792" />
  </g>
  <g
     inkscape:label="Layer 1"
     inkscape:groupmode="layer"
     id="layer1"
     transform="translate(-883.52245,-892.2683)">
    <path
       style="fill:#4e0013;fill-opacity:1;stroke:none"
       d="m 1090.3076,739.64539 c -15.4709,0 -27.9258,14.6988 -27.9258,32.95705 l 0,34.0032 a 30.640041,29.941029 0 0 0 -2.8319,12.49619 30.640041,29.941029 0 0 0 30.6396,29.94031 30.640041,29.941029 0 0 0 30.6405,-29.94031 30.640041,29.941029 0 0 0 -2.5966,-11.97174 l 0,-34.52765 c 0,-18.25825 -12.4549,-32.95705 -27.9258,-32.95705 z"
       id="ellipse4322"
       inkscape:connector-curvature="0" />
    <path
       id="path4327"
       d="m 1093.0161,743.69203 c -12.6585,0 -22.8493,12.75016 -22.8493,28.58788 l 0,33.58087 c -1.5175,3.39794 -2.3079,3.01007 -2.317,6.75403 4e-4,14.3434 11.2242,25.97088 25.0696,25.97109 13.8458,2.3e-4 25.0701,-11.62739 25.0703,-25.97109 -0.01,-2.23751 -0.7337,-3.02602 -2.1245,-6.2991 l 0,-34.0358 c 0,-15.83772 -10.1908,-28.58788 -22.8491,-28.58788 z"
       style="fill:#74132c;fill-opacity:1;stroke:none"
       inkscape:connector-curvature="0"
       sodipodi:nodetypes="ssccsccss" />
    <rect
       style="fill:#333333;stroke:none"
       id="rect4140"
       width="64.372375"
       height="107.92973"
       x="584.17865"
       y="739.64502"
       ry="32.957115" />
    <circle
       style="fill:#ffffff;stroke:none"
       id="path4142"
       cx="600.17535"
       cy="778.76953"
       r="12.527556" />
    <circle
       r="12.527556"
       cy="778.76953"
       cx="633.36206"
       id="circle4144"
       style="fill:#ffffff;stroke:none" />
    <rect
       ry="7.2701244"
       y="842.13098"
       x="587.729"
       height="24.37886"
       width="14.540249"
       id="rect4165"
       style="fill:#333333;stroke:none" />
    <rect
       style="fill:#333333;stroke:none"
       id="rect4167"
       width="14.540249"
       height="24.37886"
       x="632.46301"
       y="840.94751"
       ry="7.2701244" />
    <rect
       transform="matrix(-0.83274425,-0.55365785,-0.55365785,0.83274425,0,0)"
       style="fill:#333333;stroke:none"
       id="rect4171"
       width="8.3248816"
       height="28.941133"
       x="-931.99396"
       y="345.9588"
       ry="4.4298716" />
    <path
       style="fill:#333333;stroke:none"
       d="m 559.3447,836.19796 c -2.8056,-4.01968 -10.37824,-1.78642 -7.7708,-5.93738 2.60744,-4.15098 8.0862,-5.40227 12.23718,-2.79484 4.15097,2.60743 4.19464,9.56372 1.58721,13.7147 -2.60743,4.15098 -3.44813,-1.24955 -6.05359,-4.98248 z"
       id="path4173"
       inkscape:connector-curvature="0"
       sodipodi:nodetypes="sssss" />
    <rect
       ry="4.4298716"
       y="1028.3353"
       x="94.353043"
       height="28.941133"
       width="8.3248816"
       id="rect4180"
       style="fill:#333333;stroke:none"
       transform="matrix(0.83274425,-0.55365785,0.55365785,0.83274425,0,0)" />
    <path
       sodipodi:nodetypes="sssss"
       inkscape:connector-curvature="0"
       id="path4182"
       d="m 674.0897,835.48789 c 2.8056,-4.01969 9.43149,-1.07635 6.82406,-5.22731 -2.60744,-4.15098 -8.08622,-5.40227 -12.23719,-2.79484 -4.15097,2.60743 -4.19465,9.56372 -1.58721,13.7147 2.60743,4.15098 4.39488,-1.9596 7.00034,-5.69255 z"
       style="fill:#333333;stroke:none" />
    <circle
       style="fill:#333333;stroke:none"
       id="path4184"
       cx="605.35883"
       cy="781.21228"
       r="4.1420403" />
    <circle
       r="4.1420403"
       cy="781.21228"
       cx="627.84424"
       id="circle4186"
       style="fill:#333333;stroke:none" />
    <path
       style="fill:#1a1a1a;stroke:none"
       d="m 674.58343,765.38529 c -1.99153,7.20961 -38.03979,-0.50209 -58.74466,-0.50209 -20.70486,0 -57.75207,-0.14995 -56.40156,-8.70292 1.08016,-6.84077 10.0513,-12.19912 28.26236,-11.80531 -1.21501,-19.8532 36.99993,-64.66118 46.54921,-60.66316 7.19546,3.01255 -4.35782,40.20755 15.5605,62.93917 18.25409,4.82188 26.95882,10.82545 24.77415,18.73431 z"
       id="path4191"
       inkscape:connector-curvature="0"
       sodipodi:nodetypes="ssscscs" />
    <path
       style="fill:#333333;stroke:none"
       d="m 784.88674,739.64504 c 17.83114,0 34.38306,14.83152 32.18618,32.95711 l -5.20714,42.96224 c -2.19686,18.1256 31.3325,43.92461 -27.6891,43.60808 -53.33205,-0.28602 -25.39412,-25.91431 -27.21575,-44.08146 l -4.26038,-42.48886 c -1.82163,-18.16714 14.35504,-32.95711 32.18619,-32.95711 z"
       id="rect4194"
       inkscape:connector-curvature="0"
       sodipodi:nodetypes="sssssss" />
    <circle
       r="12.527556"
       cy="778.76953"
       cx="768.6972"
       id="circle4196"
       style="fill:#ffffff;stroke:none" />
    <circle
       style="fill:#ffffff;stroke:none"
       id="circle4198"
       cx="801.88379"
       cy="778.76953"
       r="12.527556" />
    <rect
       style="fill:#333333;stroke:none"
       id="rect4200"
       width="14.540249"
       height="24.37886"
       x="756.25079"
       y="842.13098"
       ry="7.2701244" />
    <rect
       ry="7.2701244"
       y="840.94751"
       x="800.9848"
       height="24.37886"
       width="14.540249"
       id="rect4202"
       style="fill:#333333;stroke:none" />
    <rect
       ry="4.4298716"
       y="252.6554"
       x="-1072.3296"
       height="28.941133"
       width="8.3248816"
       id="rect4204"
       style="fill:#333333;stroke:none"
       transform="matrix(-0.83274425,-0.55365785,-0.55365785,0.83274425,0,0)" />
    <path
       sodipodi:nodetypes="sssss"
       inkscape:connector-curvature="0"
       id="path4206"
       d="m 727.86656,836.19796 c -2.8056,-4.01968 -10.37825,-1.78642 -7.77081,-5.93738 2.60743,-4.15098 8.08622,-5.40227 12.23719,-2.79484 4.15096,2.60743 4.19464,9.56372 1.58721,13.7147 -2.60744,4.15098 -3.44813,-1.24955 -6.05359,-4.98248 z"
       style="fill:#333333;stroke:none" />
    <rect
       transform="matrix(0.83274425,-0.55365785,0.55365785,0.83274425,0,0)"
       style="fill:#333333;stroke:none"
       id="rect4208"
       width="8.3248816"
       height="28.941133"
       x="234.68863"
       y="1121.6388"
       ry="4.4298716" />
    <path
       style="fill:#333333;stroke:none"
       d="m 842.61156,835.48789 c 2.8056,-4.01969 9.43149,-1.07635 6.82405,-5.22731 -2.60743,-4.15098 -8.08621,-5.40227 -12.23718,-2.79484 -4.15097,2.60743 -4.19464,9.56372 -1.58721,13.7147 2.60743,4.15098 4.39488,-1.9596 7.00034,-5.69255 z"
       id="path4210"
       inkscape:connector-curvature="0"
       sodipodi:nodetypes="sssss" />
    <circle
       r="4.1420403"
       cy="781.21228"
       cx="773.88068"
       id="circle4212"
       style="fill:#333333;stroke:none" />
    <circle
       style="fill:#333333;stroke:none"
       id="circle4214"
       cx="796.36603"
       cy="781.21228"
       r="4.1420403" />
    <path
       sodipodi:nodetypes="ssscscs"
       inkscape:connector-curvature="0"
       id="path4216"
       d="m 843.10528,763.51082 c -1.99153,7.20961 -38.03979,-0.50209 -58.74465,-0.50209 -20.70487,0 -57.75209,-0.14997 -56.40157,-8.70292 1.08016,-6.84077 10.05129,-12.19912 28.26237,-11.80532 -1.21501,-19.85318 36.99992,-64.66117 46.5492,-60.66315 7.19546,3.01254 -4.3578,40.20755 15.56051,62.93918 18.25409,4.82188 26.95882,10.82545 24.77414,18.7343 z"
       style="fill:#1a1a1a;stroke:none" />
    <path
       style="fill:#333333;stroke:none"
       d="m 939.68063,739.64504 c 15.47093,0 27.92582,14.69886 27.92582,32.95711 l 0,42.01548 -55.85159,0 0,-42.01548 c 0,-18.25825 12.45491,-32.95711 27.92577,-32.95711 z"
       id="rect4219"
       inkscape:connector-curvature="0"
       sodipodi:nodetypes="ssccss" />
    <circle
       r="12.527556"
       cy="777.83234"
       cx="926.30286"
       id="circle4221"
       style="fill:#ffffff;stroke:none" />
    <circle
       style="fill:#ffffff;stroke:none"
       id="circle4223"
       cx="952.92883"
       cy="777.83234"
       r="12.527556" />
    <rect
       style="fill:#333333;stroke:none"
       id="rect4225"
       width="14.540249"
       height="24.37886"
       x="911.04474"
       y="842.13098"
       ry="7.2701244" />
    <rect
       ry="4.4298716"
       y="-117.45846"
       x="-1213.5096"
       height="28.941133"
       width="8.3248816"
       id="rect4229"
       style="fill:#333333;stroke:none"
       transform="matrix(-0.68094278,-0.73233663,-0.73233663,0.68094278,0,0)" />
    <path
       sodipodi:nodetypes="sssss"
       inkscape:connector-curvature="0"
       id="path4231"
       d="m 880.98687,832.68331 c -2.8056,-4.01967 -10.37824,-1.7864 -7.77081,-5.93738 2.60744,-4.15097 8.08621,-5.40226 12.23718,-2.79482 4.15097,2.60743 4.19466,9.56373 1.58721,13.7147 -2.60743,4.15096 -3.44812,-1.24954 -6.05358,-4.9825 z"
       style="fill:#333333;stroke:none" />
    <circle
       r="4.1420403"
       cy="779.33783"
       cx="930.54907"
       id="circle4237"
       style="fill:#333333;stroke:none" />
    <circle
       style="fill:#333333;stroke:none"
       id="circle4239"
       cx="948.34833"
       cy="779.33783"
       r="4.1420403" />
    <path
       sodipodi:nodetypes="ssscscs"
       inkscape:connector-curvature="0"
       id="path4241"
       d="m 997.89916,764.44805 c -1.99145,7.20962 -38.03972,-0.50209 -58.74459,-0.50209 -20.70486,0 -57.75207,-0.14995 -56.40155,-8.70291 1.08015,-6.84078 10.05129,-12.19913 28.26235,-11.80531 -1.215,-19.8532 36.99993,-64.66119 46.5492,-60.66317 7.19544,3.01255 -4.35782,40.20755 15.56052,62.93918 18.25409,4.82188 26.95871,10.82545 24.77407,18.7343 z"
       style="fill:#1a1a1a;stroke:none" />
    <rect
       transform="matrix(0.68094278,-0.73233663,0.73233663,0.68094278,0,0)"
       style="fill:#333333;stroke:none"
       id="rect4248"
       width="8.3248816"
       height="28.941133"
       x="66.036469"
       y="1258.6606"
       ry="4.4298716" />
    <path
       style="fill:#333333;stroke:none"
       d="m 997.61984,833.63007 c 2.80566,-4.01968 10.37826,-1.78641 7.77076,-5.93739 -2.6074,-4.15097 -8.08617,-5.40225 -12.23709,-2.79482 -4.15098,2.60743 -4.19465,9.56372 -1.58721,13.7147 2.60743,4.15097 3.44814,-1.24954 6.05354,-4.98249 z"
       id="path4250"
       inkscape:connector-curvature="0"
       sodipodi:nodetypes="sssss" />
    <rect
       ry="7.2701244"
       y="842.13098"
       x="954.00366"
       height="24.37886"
       width="14.540249"
       id="rect4252"
       style="fill:#333333;stroke:none" />
    <g
       id="g4291"
       transform="matrix(0.46861832,0,0,0.46861832,542.8602,480.38193)">
      <rect
         ry="15.514"
         y="429.50507"
         x="1367.1428"
         height="68.571426"
         width="68.571426"
         id="rect4281"
         style="fill:#e99baf;fill-opacity:1;stroke:none" />
      <rect
         style="fill:#c26179;fill-opacity:1;stroke:none"
         id="rect4283"
         width="68.571426"
         height="68.571426"
         x="1367.1428"
         y="509.50507"
         ry="15.514" />
      <rect
         ry="15.514"
         y="589.50507"
         x="1367.1428"
         height="68.571426"
         width="68.571426"
         id="rect4285"
         style="fill:#9b344e;fill-opacity:1;stroke:none" />
      <rect
         style="fill:#74132c;fill-opacity:1;stroke:none"
         id="rect4287"
         width="68.571426"
         height="68.571426"
         x="1367.1428"
         y="669.50507"
         ry="15.514" />
      <rect
         ry="15.514"
         y="749.50507"
         x="1367.1428"
         height="68.571426"
         width="68.571426"
         id="rect4289"
         style="fill:#4e0013;fill-opacity:1;stroke:none" />
    </g>
    <ellipse
       style="fill:#333333;stroke:none"
       id="path4244"
       cx="939.56232"
       cy="819.10138"
       rx="30.640041"
       ry="29.941027" />
    <circle
       style="fill:#ffffff;stroke:none"
       id="circle4300"
       cx="1076.9303"
       cy="777.83234"
       r="12.527556" />
    <circle
       r="12.527556"
       cy="777.83234"
       cx="1103.5562"
       id="circle4302"
       style="fill:#ffffff;stroke:none" />
    <circle
       style="fill:#333333;stroke:none"
       id="circle4310"
       cx="1081.1763"
       cy="779.33783"
       r="4.1420403" />
    <circle
       r="4.1420403"
       cy="779.33783"
       cx="1098.9757"
       id="circle4312"
       style="fill:#333333;stroke:none" />
    <path
       style="fill:#1a1a1a;stroke:none"
       d="m 1148.5265,764.44805 c -1.9915,7.20962 -38.0398,-0.50209 -58.7447,-0.50209 -20.7049,0 -57.752,-0.14995 -56.4016,-8.70291 1.0802,-6.84078 10.0514,-12.19913 28.2624,-11.80531 -1.2149,-19.8532 36.9999,-64.66119 46.5492,-60.66317 7.1955,3.01255 -4.3578,40.20755 15.5605,62.93918 18.2541,4.82188 26.9589,10.82545 24.7742,18.7343 z"
       id="path4314"
       inkscape:connector-curvature="0"
       sodipodi:nodetypes="ssscscs" />
    <rect
       ry="4.4298716"
       y="1368.9706"
       x="168.60506"
       height="28.941133"
       width="8.3248816"
       id="rect4316"
       style="fill:#4e0013;fill-opacity:1;stroke:none"
       transform="matrix(0.68094278,-0.73233663,0.73233663,0.68094278,0,0)" />
    <path
       sodipodi:nodetypes="sssss"
       inkscape:connector-curvature="0"
       id="path4318"
       d="m 1148.2471,833.63007 c 2.8056,-4.01968 10.3783,-1.78641 7.7709,-5.93739 -2.6074,-4.15097 -8.0862,-5.40225 -12.2372,-2.79482 -4.151,2.60743 -4.1947,9.56372 -1.5873,13.7147 2.6074,4.15097 3.4482,-1.24954 6.0536,-4.98249 z"
       style="fill:#4e0013;fill-opacity:1;stroke:none" />
    <rect
       style="fill:#4e0013;fill-opacity:1;stroke:none"
       id="rect4320"
       width="14.540249"
       height="24.37886"
       x="1104.6311"
       y="842.13098"
       ry="7.2701244" />
    <rect
       transform="matrix(0.68094278,-0.73233663,0.73233663,0.68094278,0,0)"
       style="fill:#74132c;fill-opacity:1;stroke:none"
       id="rect4329"
       width="6.1550713"
       height="20.178865"
       x="170.21039"
       y="1371.1827"
       ry="3.5995471" />
    <rect
       ry="6.1127968"
       y="843.31287"
       x="1107.1998"
       height="20.498001"
       width="11.255332"
       id="rect4331"
       style="fill:#74132c;fill-opacity:1;stroke:none" />
    <rect
       ry="7.2701244"
       y="842.13098"
       x="1061.5182"
       height="24.37886"
       width="14.540249"
       id="rect4333"
       style="fill:#4e0013;fill-opacity:1;stroke:none" />
    <rect
       style="fill:#74132c;fill-opacity:1;stroke:none"
       id="rect4335"
       width="11.255332"
       height="20.498001"
       x="1064.0869"
       y="843.31287"
       ry="6.1127968" />
    <rect
       transform="matrix(-0.68094278,-0.73233663,-0.73233663,0.68094278,0,0)"
       style="fill:#4e0013;fill-opacity:1;stroke:none"
       id="rect4337"
       width="8.3248816"
       height="28.941133"
       x="-1316.1965"
       y="-227.89551"
       ry="4.4298716" />
    <path
       style="fill:#4e0013;fill-opacity:1;stroke:none"
       d="m 1032.2612,833.63007 c -2.8056,-4.01968 -10.3782,-1.78641 -7.7708,-5.93739 2.6075,-4.15097 8.0863,-5.40225 12.2372,-2.79482 4.1509,2.60743 4.1947,9.56372 1.5872,13.7147 -2.6075,4.15097 -3.4482,-1.24954 -6.0536,-4.98249 z"
       id="path4339"
       inkscape:connector-curvature="0"
       sodipodi:nodetypes="sssss" />
    <rect
       ry="3.5995471"
       y="-225.68343"
       x="-1314.5912"
       height="20.178865"
       width="6.1550713"
       id="rect4341"
       style="fill:#74132c;fill-opacity:1;stroke:none"
       transform="matrix(-0.68094278,-0.73233663,-0.73233663,0.68094278,0,0)" />
    <path
       sodipodi:nodetypes="ssscscs"
       inkscape:connector-curvature="0"
       id="path4343"
       d="m 1145.5634,761.15114 c -1.819,6.58503 -36.7561,-0.57694 -55.6674,-0.57694 -18.9111,0 -48.9832,0.11409 -47.7497,-7.69792 0.9865,-6.24815 10.6219,-9.04549 27.2555,-8.68579 -1.1097,-18.13329 30.1259,-64.01089 38.8478,-60.35923 6.5721,2.75157 -4.572,40.84732 13.6209,61.60966 16.6726,4.40415 25.6883,8.48652 23.6929,15.71022 z"
       style="fill:#333333;stroke:none" />
    <path
       style="fill:#1a1a1a;fill-opacity:1;stroke:none"
       d="m 1122.5239,744.9424 c 0.4076,2.64858 -23.6968,7.88609 -31.4813,7.70856 -7.7845,-0.17751 -28.0327,-6.53203 -26.2401,-10.23747 2.3517,-4.86148 16.8512,2.37703 25.8014,2.46072 8.9501,0.0837 30.9357,-6.32952 31.92,0.0682 z"
       id="path4345"
       inkscape:connector-curvature="0"
       sodipodi:nodetypes="szszs" />
    <g
       id="body"
       inkscape:label="#g4243"
       transform="matrix(0.46861832,0,0,0.46861832,475.76401,580.41136)"
       inkscape:export-xdpi="90"
       inkscape:export-ydpi="90">
      <ellipse
         style="fill:#4e0013;fill-opacity:1;stroke:none"
         id="ellipse4372"
         cx="1083.2334"
         cy="953.13904"
         rx="108.40649"
         ry="105.93335" />
      <ellipse
         ry="91.733414"
         rx="93.875046"
         cy="948.29523"
         cx="1091.5371"
         id="ellipse4374"
         style="fill:#74132c;fill-opacity:1;stroke:none" />
    </g>
    <circle
       style="fill:#ffffff;stroke:none"
       id="eye_left"
       cx="970.54175"
       cy="1010.4778"
       r="12.136241"
       inkscape:label="#circle4350"
       inkscape:export-xdpi="90"
       inkscape:export-ydpi="90" />
    <circle
       r="12.136241"
       cy="1010.4778"
       cx="996.336"
       id="eye_right"
       style="fill:#ffffff;stroke:none"
       inkscape:label="#circle4352"
       inkscape:export-xdpi="90"
       inkscape:export-ydpi="90" />
    <circle
       style="fill:#333333;stroke:none"
       id="pupil_left"
       cx="974.65533"
       cy="1011.9364"
       r="4.0126581"
       inkscape:label="#circle4360"
       inkscape:export-xdpi="90"
       inkscape:export-ydpi="90" />
    <circle
       r="4.0126581"
       cy="1011.9364"
       cx="991.89856"
       id="pupil_right"
       style="fill:#333333;stroke:none"
       inkscape:label="#circle4362"
       inkscape:export-xdpi="90"
       inkscape:export-ydpi="90" />
    <g
       id="leg_right"
       inkscape:label="#g4253"
       transform="matrix(0.46861832,0,0,0.46861832,475.76401,580.41136)"
       inkscape:export-xdpi="90"
       inkscape:export-ydpi="90">
      <rect
         transform="matrix(0.91436106,-0.4048998,0.4048998,0.91436106,0,0)"
         style="fill:#4e0013;fill-opacity:1;stroke:none"
         id="rect4376"
         width="30.058716"
         height="50.397846"
         x="607.48346"
         y="1418.4143"
         ry="15.029358" />
      <rect
         transform="matrix(0.91436106,-0.4048998,0.4048998,0.91436106,0,0)"
         ry="12.636842"
         y="1420.8577"
         x="612.79419"
         height="42.375038"
         width="23.267883"
         id="rect4378"
         style="fill:#74132c;fill-opacity:1;stroke:none" />
    </g>
    <path
       style="fill:#4e0013;fill-opacity:1;stroke:none"
       d="m 1059.2432,1048.3456 c 2.114,-4.2524 9.6889,-3.1942 6.5977,-6.7992 -3.0915,-3.6048 -8.5198,-4.0211 -12.1246,-0.9298 -3.6049,3.0913 -2.6531,9.7629 0.4383,13.3679 3.0913,3.6048 3.1255,-1.6899 5.0886,-5.6389 z"
       id="hand_right"
       inkscape:connector-curvature="0"
       sodipodi:nodetypes="sssss"
       inkscape:label="#path4386"
       inkscape:export-xdpi="90"
       inkscape:export-ydpi="90" />
    <g
       id="arm_right"
       inkscape:label="#g4235"
       transform="matrix(0.46861832,0,0,0.46861832,475.76401,580.41136)"
       inkscape:export-xdpi="90"
       inkscape:export-ydpi="90">
      <rect
         ry="8.7921829"
         y="1525.9482"
         x="110.03556"
         height="44.481014"
         width="17.584366"
         id="rect4384"
         style="fill:#4e0013;fill-opacity:1;stroke:none"
         transform="matrix(0.68094278,-0.73233663,0.73233663,0.68094278,0,0)" />
      <rect
         transform="matrix(0.68094278,-0.73233663,0.73233663,0.68094278,0,0)"
         style="fill:#74132c;fill-opacity:1;stroke:none"
         id="rect4388"
         width="13.15099"
         height="29.979826"
         x="113.35421"
         y="1530.5212"
         ry="6.5754952" />
    </g>
    <path
       sodipodi:nodetypes="sssss"
       inkscape:connector-curvature="0"
       id="hand_left"
       d="m 907.80171,1048.3456 c -2.11404,-4.2524 -9.68898,-3.1942 -6.59765,-6.7992 3.09138,-3.6048 8.51972,-4.0211 12.12459,-0.9298 3.60487,3.0913 2.65301,9.7629 -0.43831,13.3679 -3.09139,3.6048 -3.12544,-1.6899 -5.08863,-5.6389 z"
       style="fill:#4e0013;fill-opacity:1;stroke:none"
       inkscape:label="#path4392"
       inkscape:export-xdpi="90"
       inkscape:export-ydpi="90" />
    <g
       id="arm_left"
       inkscape:label="#g4239"
       transform="matrix(0.46861832,0,0,0.46861832,475.76401,580.41136)"
       inkscape:export-xdpi="90"
       inkscape:export-ydpi="90">
      <rect
         transform="matrix(-0.68094278,-0.73233663,-0.73233663,0.68094278,0,0)"
         style="fill:#4e0013;fill-opacity:1;stroke:none"
         id="rect4390"
         width="17.584366"
         height="44.481014"
         x="-1365.5983"
         y="-61.058105"
         ry="8.7921829" />
      <rect
         ry="6.5754952"
         y="-56.485096"
         x="-1362.2795"
         height="29.979826"
         width="13.15099"
         id="rect4394"
         style="fill:#74132c;fill-opacity:1;stroke:none"
         transform="matrix(-0.68094278,-0.73233663,-0.73233663,0.68094278,0,0)" />
    </g>
    <g
       id="hat"
       inkscape:label="#g4247"
       transform="matrix(0.46861832,0,0,0.46861832,475.76401,580.41136)"
       inkscape:export-xdpi="90"
       inkscape:export-ydpi="90">
      <g
         transform="matrix(0.96876368,0,0,0.96876368,125.91895,79.117054)"
         id="g4414">
        <path
           sodipodi:nodetypes="ssscscs"
           inkscape:connector-curvature="0"
           id="path4396"
           d="m 1111.8586,819.92213 c -4.2497,15.38483 -81.1743,-1.07142 -125.35706,-1.07142 -44.1828,0 -123.2391,-0.32 -120.3572,-18.57143 2.305,-14.59777 21.4488,-26.03212 60.31,-25.19176 -2.5927,-42.36538 78.95536,-137.98261 99.33286,-129.4511 15.3546,6.42857 -9.2993,85.80021 33.2051,134.30797 38.953,10.28957 57.5283,23.10078 52.8663,39.97774 z"
           style="fill:#1a1a1a;stroke:none" />
        <path
           style="fill:#333333;stroke:none"
           d="m 1105.5356,812.88675 c -3.8816,14.05201 -78.4352,-1.23114 -118.79026,-1.23114 -40.3552,0 -104.527,0.24343 -101.8948,-16.42685 2.1053,-13.33314 22.6666,-19.30247 58.1612,-18.53491 -2.3681,-38.6952 64.28666,-136.59493 82.89886,-128.80252 14.0244,5.87165 -9.7564,87.16542 29.0658,131.47087 35.5784,9.39816 54.8173,18.10967 50.5592,33.52455 z"
           id="path4398"
           inkscape:connector-curvature="0"
           sodipodi:nodetypes="ssscscs" />
        <path
           sodipodi:nodetypes="szszs"
           inkscape:connector-curvature="0"
           id="path4400"
           d="m 1056.371,778.2984 c 0.8696,5.65188 -50.5674,16.82835 -67.17906,16.44954 -16.6117,-0.3788 -59.8198,-13.93891 -55.9947,-21.84607 5.0184,-10.37408 35.9595,5.07242 55.0585,5.25099 19.09896,0.17857 66.01476,-13.50675 68.11526,0.14554 z"
           style="fill:#1a1a1a;fill-opacity:1;stroke:none" />
      </g>
    </g>
    <g
       id="leg_left"
       inkscape:label="#g4257"
       transform="matrix(0.46861832,0,0,0.46861832,475.76401,580.41136)"
       inkscape:export-xdpi="90"
       inkscape:export-ydpi="90">
      <rect
         ry="15.029358"
         y="541.64789"
         x="-1372.4661"
         height="50.397846"
         width="30.058716"
         id="rect4402"
         style="fill:#4e0013;fill-opacity:1;stroke:none"
         transform="matrix(-0.91436106,-0.4048998,-0.4048998,0.91436106,0,0)" />
      <rect
         style="fill:#74132c;fill-opacity:1;stroke:none"
         id="rect4404"
         width="23.267883"
         height="42.375038"
         x="-1367.1553"
         y="544.09119"
         ry="12.636842"
         transform="matrix(-0.91436106,-0.4048998,-0.4048998,0.91436106,0,0)" />
    </g>
    <path
       sodipodi:nodetypes="ccccc"
       inkscape:connector-curvature="0"
       id="eyebrow_right"
       d="m 1009.6539,993.73528 -22.90548,-2.59005 -0.36154,9.50887 28.01102,1.065 z"
       style="fill:#380013;fill-opacity:1;stroke:none"
       inkscape:label="#path4419"
       inkscape:export-xdpi="90"
       inkscape:export-ydpi="90" />
    <path
       style="fill:#380013;fill-opacity:1;stroke:none"
       d="m 1006.6116,1030.2638 c -6.4492,13.8994 -14.67098,10.8122 -22.73473,6.2263 -5.4842,4.8152 -16.85301,7.5131 -22.24143,-6.2632 10.83268,8.4207 17.83656,-1.6797 22.40357,3.5367 5.31221,-5.331 11.71736,5.0901 22.57259,-3.4998 z"
       id="mustache"
       inkscape:connector-curvature="0"
       sodipodi:nodetypes="ccccc"
       inkscape:label="#path4421"
       inkscape:export-xdpi="90"
       inkscape:export-ydpi="90" />
    <path
       style="fill:#380013;fill-opacity:1;stroke:none"
       d="m 959.48791,993.73528 22.90563,-2.59005 0.36151,9.50887 -28.011,1.065 z"
       id="eyebrow_left"
       inkscape:connector-curvature="0"
       sodipodi:nodetypes="ccccc"
       inkscape:label="#path4424"
       inkscape:export-xdpi="90"
       inkscape:export-ydpi="90" />
  </g>
</svg>
