<?xml version="1.0" encoding="UTF-8" standalone="no"?>
<!-- Created with Inkscape (http://www.inkscape.org/) -->

<svg
   xmlns:dc="http://purl.org/dc/elements/1.1/"
   xmlns:cc="http://creativecommons.org/ns#"
   xmlns:rdf="http://www.w3.org/1999/02/22-rdf-syntax-ns#"
   xmlns:svg="http://www.w3.org/2000/svg"
   xmlns="http://www.w3.org/2000/svg"
   xmlns:sodipodi="http://sodipodi.sourceforge.net/DTD/sodipodi-0.dtd"
   xmlns:inkscape="http://www.inkscape.org/namespaces/inkscape"
   width="282.59985"
   height="366.64651"
   viewBox="0 0 74.77121 97.00856"
   version="1.1"
   id="svg8"
   inkscape:version="0.92.1 r15371"
   sodipodi:docname="galebduhr.svg">
  <defs
     id="defs2" />
  <sodipodi:namedview
     id="base"
     pagecolor="#ffffff"
     bordercolor="#666666"
     borderopacity="1.0"
     inkscape:pageopacity="0.0"
     inkscape:pageshadow="2"
     inkscape:zoom="1.6512048"
     inkscape:cx="-148.68798"
     inkscape:cy="145.03161"
     inkscape:document-units="px"
     inkscape:current-layer="layer2"
     showgrid="false"
     units="px"
     inkscape:window-width="1920"
     inkscape:window-height="1018"
     inkscape:window-x="-8"
     inkscape:window-y="-8"
     inkscape:window-maximized="1"
     inkscape:snap-global="false">
    <inkscape:grid
       type="xygrid"
       id="grid855"
       originx="-13.766477"
       originy="-143.44329" />
  </sodipodi:namedview>
  <metadata
     id="metadata5">
    <rdf:RDF>
      <cc:Work
         rdf:about="">
        <dc:format>image/svg+xml</dc:format>
        <dc:type
           rdf:resource="http://purl.org/dc/dcmitype/StillImage" />
        <dc:title />
      </cc:Work>
    </rdf:RDF>
  </metadata>
  <g
     inkscape:label="Layer 1"
     inkscape:groupmode="layer"
     id="layer1"
     transform="translate(-13.766477,-56.548141)"
     sodipodi:insensitive="true"
     style="display:none">
    <rect
       style="fill:#ff00ff;fill-opacity:1;stroke:none;stroke-width:0.18325864;stroke-miterlimit:4;stroke-dasharray:none;stroke-opacity:1"
       id="rect853"
       width="18.520834"
       height="18.520834"
       x="12.463477"
       y="135.03587" />
  </g>
  <g
     inkscape:groupmode="layer"
     id="layer2"
     inkscape:label="Layer 2"
     transform="translate(-1.3029999,78.487726)">
    <ellipse
       style="opacity:1;fill:#393530;fill-opacity:1;stroke:none;stroke-width:0.08625417;stroke-miterlimit:4;stroke-dasharray:none;stroke-opacity:1"
       id="path4505"
       cx="56.000717"
       cy="-21.677427"
       rx="3.6053221"
       ry="3.8456769" />
    <path
       style="fill:#524d46;stroke:none;stroke-width:0.26458335px;stroke-linecap:butt;stroke-linejoin:miter;stroke-opacity:1;fill-opacity:1"
       d="m 38.638114,-56.469867 -9.453957,-6.569698 -14.741761,40.379609 5.608279,12.338212 19.228384,6.0889884 -2.563784,-24.0354804 z"
       id="path4493"
       inkscape:connector-curvature="0"
       sodipodi:nodetypes="ccccccc" />
    <path
       style="fill:#413d35;fill-opacity:1;stroke:none;stroke-width:0.26458335px;stroke-linecap:butt;stroke-linejoin:miter;stroke-opacity:1"
       d="m 38.477877,-56.630103 -1.922838,28.361867 2.716375,24.0470055 15.230117,-12.1895025 -2.083075,-23.394533 -3.364968,-22.753589 z"
       id="path4499"
       inkscape:connector-curvature="0"
       sodipodi:nodetypes="ccccccc" />
    <path
       style="fill:#393530;fill-opacity:1;stroke:none;stroke-width:0.26458335px;stroke-linecap:butt;stroke-linejoin:miter;stroke-opacity:1"
       d="m 38.468157,-56.568175 -9.321213,-6.474999 5.645494,-5.764906 10.255136,0.480709 4.025355,5.787955 z"
       id="path4501"
       inkscape:connector-curvature="0"
       sodipodi:nodetypes="cccccc" />
    <ellipse
       style="opacity:1;fill:#413d35;fill-opacity:1;stroke:none;stroke-width:0.08625417;stroke-miterlimit:4;stroke-dasharray:none;stroke-opacity:1"
       id="path4503"
       cx="16.38496"
       cy="-16.817423"
       rx="3.5252037"
       ry="3.6053221" />
    <path
       style="fill:#413d35;fill-opacity:1;stroke:none;stroke-width:0.67458975px;stroke-linecap:butt;stroke-linejoin:miter;stroke-opacity:1"
       d="m 19.002959,-2.6425519 h 15.010265 c 0,0 0.345308,-8.2250291 -7.416652,-8.2707221 -7.761961,-0.04569 -7.593613,8.2707221 -7.593613,8.2707221 z"
       id="path4529"
       inkscape:connector-curvature="0"
       sodipodi:nodetypes="ccsc" />
    <path
       style="fill:#413d35;fill-opacity:1;stroke:none;stroke-width:0.67458975px;stroke-linecap:butt;stroke-linejoin:miter;stroke-opacity:1"
       d="m 42.857641,-3.4603637 h 15.010265 c 0,0 0.345308,-8.2250303 -7.416652,-8.2707233 -7.761961,-0.04569 -7.593613,8.2707233 -7.593613,8.2707233 z"
       id="path4529-3"
       inkscape:connector-curvature="0"
       sodipodi:nodetypes="ccsc" />
    <path
       style="fill:#262320;fill-opacity:1;stroke:none;stroke-width:0.23633634px;stroke-linecap:butt;stroke-linejoin:miter;stroke-opacity:1"
       d="m 39.824618,-37.792947 h 5.317631 c 0,0 0.122331,2.849634 -2.62747,2.865465 -2.749801,0.01583 -2.690161,-2.865465 -2.690161,-2.865465 z"
       id="path4529-4-9"
       inkscape:connector-curvature="0"
       sodipodi:nodetypes="ccsc" />
    <rect
       style="opacity:1;fill:#000000;fill-opacity:1;stroke:none;stroke-width:0.10961238;stroke-miterlimit:4;stroke-dasharray:none;stroke-opacity:1"
       id="rect4591-8"
       width="6.2904296"
       height="2.0531528"
       x="-57.186333"
       y="-17.247232"
       transform="matrix(-0.89685182,0.44233112,0.40096117,0.91609505,0,0)" />
    <rect
       style="opacity:1;fill:#000000;fill-opacity:1;stroke:none;stroke-width:0.10634417;stroke-miterlimit:4;stroke-dasharray:none;stroke-opacity:1"
       id="rect4591-7"
       width="5.9162307"
       height="0.27805069"
       x="-51.001381"
       y="1.5610079"
       transform="matrix(-0.85500411,0.51862122,0.43564602,0.90011807,0,0)" />
    <path
       style="fill:#393530;stroke:none;stroke-width:0.26458335px;stroke-linecap:butt;stroke-linejoin:miter;stroke-opacity:1;fill-opacity:1"
       d="m 22.61446,-26.745988 -3.445086,2.403547 1.922839,3.284849 4.406504,-0.640945 0.881301,-2.403549 z"
       id="path4614"
       inkscape:connector-curvature="0" />
    <path
       style="fill:#393530;stroke:none;stroke-width:0.26458335px;stroke-linecap:butt;stroke-linejoin:miter;stroke-opacity:1;fill-opacity:1"
       d="m 31.507588,-54.306674 3.925795,1.362011 v 2.964376 l -5.287807,1.84272 -2.083075,-1.281893 2.884258,-1.922838 z"
       id="path4616"
       inkscape:connector-curvature="0" />
    <path
       style="fill:#393530;stroke:none;stroke-width:0.26458335px;stroke-linecap:butt;stroke-linejoin:miter;stroke-opacity:1;fill-opacity:1"
       d="m 46.810178,-55.989157 -2.403549,3.525204 2.72402,0.961418 1.602367,-1.36201 z"
       id="path4618"
       inkscape:connector-curvature="0" />
    <path
       style="fill:#393530;stroke:none;stroke-width:0.26458335px;stroke-linecap:butt;stroke-linejoin:miter;stroke-opacity:1;fill-opacity:1"
       d="m 46.489704,-28.668826 3.28485,-0.08012 1.84272,-2.804141 0.961419,4.16615 -0.801182,2.643905 -3.28485,-0.640948 z"
       id="path4620"
       inkscape:connector-curvature="0" />
    <path
       style="fill:#393530;stroke:none;stroke-width:0.26458335px;stroke-linecap:butt;stroke-linejoin:miter;stroke-opacity:1;fill-opacity:1"
       d="m 32.789481,-16.651086 -2.964376,2.403547 0.240353,2.884257 3.28485,1.8427199 2.964376,0.080118 v -1.7626009 l -2.163194,-2.163194 0.160237,-2.804139 z"
       id="path4622"
       inkscape:connector-curvature="0" />
    <path
       style="fill:#393530;stroke:none;stroke-width:0.26458335px;stroke-linecap:butt;stroke-linejoin:miter;stroke-opacity:1;fill-opacity:1"
       d="m 30.225695,-42.84976 -1.201775,6.40946 1.041538,6.169107 1.041538,-6.329342 z"
       id="path4624"
       inkscape:connector-curvature="0" />
    <path
       style="fill:#262320;fill-opacity:1;stroke:none;stroke-width:0.23633634px;stroke-linecap:butt;stroke-linejoin:miter;stroke-opacity:1"
       d="m 27.446345,-37.752888 h 5.317631 c 0,0 0.122331,2.849634 -2.62747,2.865465 -2.749801,0.01583 -2.690161,-2.865465 -2.690161,-2.865465 z"
       id="path4529-4"
       inkscape:connector-curvature="0"
       sodipodi:nodetypes="ccsc" />
    <rect
       style="opacity:1;fill:#000000;fill-opacity:1;stroke:none;stroke-width:0.11594828;stroke-miterlimit:4;stroke-dasharray:none;stroke-opacity:1"
       id="rect4591"
       width="6.8999419"
       height="2.0944281"
       x="6.4929338"
       y="-48.503876"
       transform="matrix(0.91508658,0.40325742,-0.43991095,0.8980414,0,0)" />
    <path
       style="fill:#217821;stroke:none;stroke-width:0.26458335px;stroke-linecap:butt;stroke-linejoin:miter;stroke-opacity:1"
       d="m 50.58504,-52.62176 c 0.305065,0.08589 0.260944,0.453281 0.352092,0.756815 0.140428,0.46765 -0.03491,0.623954 0.0053,1.110578 0.04303,0.521437 0.290076,0.907783 0.434415,1.521624 0.08548,0.363533 -0.03836,0.944255 0.04493,1.334922 0.134014,0.628579 0.179373,0.548637 0.29494,1.134138 0.08189,0.414881 0.04161,1.051777 0.04131,1.536663 -2.72e-4,0.440503 0.174767,1.172338 0.09437,1.483045 -0.09521,0.367991 -0.402307,0.432963 -0.549283,0.616703 -0.186881,0.233625 -0.245917,0.545714 -0.71074,0.678101 -0.417894,0.119021 -1.416183,0.112034 -1.828643,-0.129925 -0.329771,-0.193451 -0.132222,-0.583091 -0.452938,-0.83938 -0.346292,-0.276727 -0.947545,-0.328524 -1.045756,-0.690547 -0.14722,-0.542678 -0.09714,-0.721933 0.02594,-1.518858 0.09194,-0.595296 -0.118287,-1.26624 0.01738,-1.772445 0.05208,-0.194339 0.616726,-0.765673 0.867826,-1.109643 0.212182,-0.29066 0.149822,-0.829652 0.274093,-0.953406 0.417787,-0.416046 0.422957,-0.112263 0.623113,-0.647643 0.267026,-0.714245 -0.676925,-1.24519 -0.24362,-1.872642 0.405765,-0.58757 1.067972,-0.831608 1.755314,-0.6381 z"
       id="path4626"
       inkscape:connector-curvature="0"
       sodipodi:nodetypes="ssssssssssssssssssss" />
    <path
       style="fill:#217821;fill-opacity:1;stroke:none;stroke-width:0.26458335px;stroke-linecap:butt;stroke-linejoin:miter;stroke-opacity:1"
       d="m 16.926062,-29.670306 c -0.307203,0.365399 -0.398568,1.143044 -0.60533,1.709964 -0.204997,0.562083 -0.60678,0.922952 -0.536355,1.39462 0.03295,0.220664 0.03315,0.52305 0.196733,0.703337 0.161223,0.177685 0.484877,0.233613 0.649065,0.403909 0.215009,0.223007 0.252579,0.545763 0.536242,0.595266 0.253322,0.04421 1.015223,-0.07853 1.219275,-0.156814 0.294853,-0.113125 0.0242,-0.231509 0.395856,-0.441511 0.236023,-0.133363 0.887526,-0.08664 1.053811,-0.278638 0.209632,-0.24205 0.251309,-0.635207 0.315464,-0.925696 0.0404,-0.18294 -0.244184,-0.433438 -0.349943,-0.757829 -0.09267,-0.284243 0.0031,-0.64615 -0.110775,-0.78844 -0.303432,-0.37907 -0.608218,-0.151958 -0.931337,-0.446674 -0.534229,-0.48727 -1.367395,-1.564953 -1.832706,-1.011494 z"
       id="path4628"
       inkscape:connector-curvature="0"
       sodipodi:nodetypes="ssssssssssssss" />
    <path
       style="fill:#217821;fill-opacity:1;stroke:none;stroke-width:0.26458335px;stroke-linecap:butt;stroke-linejoin:miter;stroke-opacity:1"
       d="m 49.914759,-11.743843 c -0.121738,0.04426 -0.224073,0.220298 -0.392071,0.305915 -0.244148,0.124424 -0.556104,0.175998 -0.678262,0.337227 -0.153042,0.20199 0.03175,0.393462 -0.06761,0.615304 -0.09812,0.21905 -0.297721,0.351589 -0.262906,0.5818455 0.03159,0.2089556 0.354224,0.2278312 0.497493,0.3126209 0.26486,0.1567505 0.409098,0.3415714 0.612567,0.6358383 0.140435,0.2031048 0.329451,0.4493351 0.601132,0.5088374 0.222557,0.048744 0.743073,0.03607 1.008662,0.056649 0.30955,0.023984 0.777442,0.2002996 1.060569,0.1312002 0.239609,-0.058478 0.346762,-0.2843277 0.588298,-0.3544008 0.179264,-0.052007 0.552721,0.1103609 0.703575,0.032933 0.177873,-0.091295 0.188925,-0.1708488 0.234323,-0.3598304 0.04257,-0.1772047 0.130277,-0.5336758 0.290414,-0.7411352 0.162342,-0.2103162 0.494472,-0.2111356 0.550123,-0.423672 0.07804,-0.298058 -0.139502,-0.577765 -0.139502,-0.577765 0,0 -0.463331,-0.391228 -1.086059,-0.651402 -0.456689,-0.190804 -1.018743,-0.268576 -1.447788,-0.284057 -0.570104,-0.02057 -0.399899,-0.125134 -0.959729,-0.202246 -0.481089,-0.06627 -0.756383,-0.0536 -1.113225,0.07614 z"
       id="path4630"
       inkscape:connector-curvature="0"
       sodipodi:nodetypes="ssssssssssssssscssss" />
  </g>
</svg>
