<?xml version="1.0" encoding="UTF-8" standalone="no"?>
<!-- Created with Inkscape (http://www.inkscape.org/) -->

<svg
   xmlns:dc="http://purl.org/dc/elements/1.1/"
   xmlns:cc="http://creativecommons.org/ns#"
   xmlns:rdf="http://www.w3.org/1999/02/22-rdf-syntax-ns#"
   xmlns:svg="http://www.w3.org/2000/svg"
   xmlns="http://www.w3.org/2000/svg"
   xmlns:sodipodi="http://sodipodi.sourceforge.net/DTD/sodipodi-0.dtd"
   xmlns:inkscape="http://www.inkscape.org/namespaces/inkscape"
   width="176.67886"
   height="331.54807"
   viewBox="0 0 46.746282 87.722095"
   version="1.1"
   id="svg8"
   inkscape:version="0.92.1 r15371"
   sodipodi:docname="icegalebduhr.svg">
  <defs
     id="defs2" />
  <sodipodi:namedview
     id="base"
     pagecolor="#ffffff"
     bordercolor="#666666"
     borderopacity="1.0"
     inkscape:pageopacity="0.0"
     inkscape:pageshadow="2"
     inkscape:zoom="1.6512048"
     inkscape:cx="-17.590348"
     inkscape:cy="193.45721"
     inkscape:document-units="px"
     inkscape:current-layer="layer2"
     showgrid="false"
     units="px"
     inkscape:window-width="1920"
     inkscape:window-height="1018"
     inkscape:window-x="-8"
     inkscape:window-y="-8"
     inkscape:window-maximized="1"
     inkscape:snap-global="false">
    <inkscape:grid
       type="xygrid"
       id="grid855"
       originx="-25.964178"
       originy="-149.22397" />
  </sodipodi:namedview>
  <metadata
     id="metadata5">
    <rdf:RDF>
      <cc:Work
         rdf:about="">
        <dc:format>image/svg+xml</dc:format>
        <dc:type
           rdf:resource="http://purl.org/dc/dcmitype/StillImage" />
        <dc:title />
      </cc:Work>
    </rdf:RDF>
  </metadata>
  <g
     inkscape:label="Layer 1"
     inkscape:groupmode="layer"
     id="layer1"
     transform="translate(-25.964179,-60.053933)"
     sodipodi:insensitive="true"
     style="display:none">
    <rect
       style="fill:#ff00ff;fill-opacity:1;stroke:none;stroke-width:0.18325864;stroke-miterlimit:4;stroke-dasharray:none;stroke-opacity:1"
       id="rect853"
       width="18.520834"
       height="18.520834"
       x="12.463477"
       y="135.03587" />
  </g>
  <g
     inkscape:groupmode="layer"
     id="layer2"
     inkscape:label="Layer 2"
     transform="translate(-13.500702,74.981934)">
    <ellipse
       style="opacity:1;fill:#536c5d;fill-opacity:1;stroke:none;stroke-width:0.08625417;stroke-miterlimit:4;stroke-dasharray:none;stroke-opacity:1"
       id="path4505"
       cx="56.641663"
       cy="-6.2947197"
       rx="3.6053221"
       ry="3.8456769" />
    <path
       style="fill:#b7c8be;fill-opacity:1;stroke:none;stroke-width:0.26458335px;stroke-linecap:butt;stroke-linejoin:miter;stroke-opacity:1"
       d="m 39.27906,-41.08716 -9.453957,-6.569698 -14.741761,40.3796095 5.608279,12.338212 19.228384,6.0889885 -2.563784,-24.035481 z"
       id="path4493"
       inkscape:connector-curvature="0"
       sodipodi:nodetypes="ccccccc" />
    <path
       style="fill:#93ac9d;fill-opacity:1;stroke:none;stroke-width:0.26458335px;stroke-linecap:butt;stroke-linejoin:miter;stroke-opacity:1"
       d="M 39.118823,-41.247396 37.195985,-12.885529 39.91236,11.161477 55.142477,-1.0280255 53.059402,-24.422559 49.694434,-47.176148 Z"
       id="path4499"
       inkscape:connector-curvature="0"
       sodipodi:nodetypes="ccccccc" />
    <path
       style="fill:#536c5d;fill-opacity:1;stroke:none;stroke-width:0.26458335px;stroke-linecap:butt;stroke-linejoin:miter;stroke-opacity:1"
       d="m 39.109103,-41.185468 -9.321213,-6.474999 5.645494,-5.764906 10.255136,0.480709 4.025355,5.787955 z"
       id="path4501"
       inkscape:connector-curvature="0"
       sodipodi:nodetypes="cccccc" />
    <ellipse
       style="opacity:1;fill:#536c5d;fill-opacity:1;stroke:none;stroke-width:0.08625417;stroke-miterlimit:4;stroke-dasharray:none;stroke-opacity:1"
       id="path4503"
       cx="17.025906"
       cy="-1.4347154"
       rx="3.5252037"
       ry="3.6053221" />
    <path
       style="fill:#93ac9d;fill-opacity:1;stroke:none;stroke-width:0.67458975px;stroke-linecap:butt;stroke-linejoin:miter;stroke-opacity:1"
       d="M 19.643905,12.740156 H 34.65417 c 0,0 0.345308,-8.2250295 -7.416652,-8.2707225 -7.761961,-0.04569 -7.593613,8.2707225 -7.593613,8.2707225 z"
       id="path4529"
       inkscape:connector-curvature="0"
       sodipodi:nodetypes="ccsc" />
    <path
       style="fill:#93ac9d;fill-opacity:1;stroke:none;stroke-width:0.67458975px;stroke-linecap:butt;stroke-linejoin:miter;stroke-opacity:1"
       d="m 43.498587,11.922344 h 15.010265 c 0,0 0.345308,-8.2250305 -7.416652,-8.2707235 -7.761961,-0.04569 -7.593613,8.2707235 -7.593613,8.2707235 z"
       id="path4529-3"
       inkscape:connector-curvature="0"
       sodipodi:nodetypes="ccsc" />
    <path
       style="fill:#37483e;fill-opacity:1;stroke:none;stroke-width:0.23633634px;stroke-linecap:butt;stroke-linejoin:miter;stroke-opacity:1"
       d="m 40.465564,-22.41024 h 5.317631 c 0,0 0.122331,2.849634 -2.62747,2.865465 -2.749801,0.01583 -2.690161,-2.865465 -2.690161,-2.865465 z"
       id="path4529-4-9"
       inkscape:connector-curvature="0"
       sodipodi:nodetypes="ccsc" />
    <rect
       style="opacity:1;fill:#000000;fill-opacity:1;stroke:none;stroke-width:0.10961238;stroke-miterlimit:4;stroke-dasharray:none;stroke-opacity:1"
       id="rect4591-8"
       width="6.2904296"
       height="2.0531528"
       x="-51.599815"
       y="-3.1530423"
       transform="matrix(-0.89685182,0.44233112,0.40096117,0.91609505,0,0)" />
    <rect
       style="opacity:1;fill:#000000;fill-opacity:1;stroke:none;stroke-width:0.10634417;stroke-miterlimit:4;stroke-dasharray:none;stroke-opacity:1"
       id="rect4591-7"
       width="5.9162307"
       height="0.27805069"
       x="-44.849453"
       y="15.106107"
       transform="matrix(-0.85500411,0.51862122,0.43564602,0.90011807,0,0)" />
    <path
       style="fill:#536c5d;fill-opacity:1;stroke:none;stroke-width:0.26458335px;stroke-linecap:butt;stroke-linejoin:miter;stroke-opacity:1"
       d="m 23.255406,-11.363281 -3.445086,2.4035475 1.922839,3.284849 4.406504,-0.640945 0.881301,-2.403549 z"
       id="path4614"
       inkscape:connector-curvature="0" />
    <path
       style="fill:#536c5d;fill-opacity:1;stroke:none;stroke-width:0.26458335px;stroke-linecap:butt;stroke-linejoin:miter;stroke-opacity:1"
       d="m 32.148534,-38.923967 3.925795,1.362011 v 2.964376 l -5.287807,1.84272 -2.083075,-1.281893 2.884258,-1.922838 z"
       id="path4616"
       inkscape:connector-curvature="0" />
    <path
       style="fill:#536c5d;fill-opacity:1;stroke:none;stroke-width:0.26458335px;stroke-linecap:butt;stroke-linejoin:miter;stroke-opacity:1"
       d="m 47.451124,-40.60645 -2.403549,3.525204 2.72402,0.961418 1.602367,-1.36201 z"
       id="path4618"
       inkscape:connector-curvature="0" />
    <path
       style="fill:#536c5d;fill-opacity:1;stroke:none;stroke-width:0.26458335px;stroke-linecap:butt;stroke-linejoin:miter;stroke-opacity:1"
       d="m 47.13065,-13.286119 3.28485,-0.08012 1.84272,-2.804141 0.961419,4.16615 -0.801182,2.6439055 -3.28485,-0.6409485 z"
       id="path4620"
       inkscape:connector-curvature="0" />
    <path
       style="fill:#536c5d;fill-opacity:1;stroke:none;stroke-width:0.26458335px;stroke-linecap:butt;stroke-linejoin:miter;stroke-opacity:1"
       d="m 33.430427,-1.2683785 -2.964376,2.403547 0.240353,2.884257 3.28485,1.8427199 2.964376,0.080118 V 4.1796625 l -2.163194,-2.163194 0.160237,-2.80413902 z"
       id="path4622"
       inkscape:connector-curvature="0" />
    <path
       style="fill:#536c5d;fill-opacity:1;stroke:none;stroke-width:0.26458335px;stroke-linecap:butt;stroke-linejoin:miter;stroke-opacity:1"
       d="m 30.866641,-27.467053 -1.201775,6.40946 1.041538,6.169107 1.041538,-6.329342 z"
       id="path4624"
       inkscape:connector-curvature="0" />
    <path
       style="fill:#37483e;fill-opacity:1;stroke:none;stroke-width:0.23633634px;stroke-linecap:butt;stroke-linejoin:miter;stroke-opacity:1"
       d="m 28.087291,-22.370181 h 5.317631 c 0,0 0.122331,2.849634 -2.62747,2.865465 -2.749801,0.01583 -2.690161,-2.865465 -2.690161,-2.865465 z"
       id="path4529-4"
       inkscape:connector-curvature="0"
       sodipodi:nodetypes="ccsc" />
    <rect
       style="opacity:1;fill:#000000;fill-opacity:1;stroke:none;stroke-width:0.11594828;stroke-miterlimit:4;stroke-dasharray:none;stroke-opacity:1"
       id="rect4591"
       width="6.8999419"
       height="2.0944281"
       x="13.841556"
       y="-34.674534"
       transform="matrix(0.91508658,0.40325742,-0.43991095,0.8980414,0,0)" />
    <path
       style="fill:#d5f6ff;stroke:none;stroke-width:0.26458335px;stroke-linecap:butt;stroke-linejoin:miter;stroke-opacity:1"
       d="m 28.655445,-45.437826 10.339021,6.146761 3.229174,-35.690869 z"
       id="path4632"
       inkscape:connector-curvature="0"
       sodipodi:nodetypes="cccc" />
    <path
       style="fill:#aaeeff;stroke:none;stroke-width:0.26458335px;stroke-linecap:butt;stroke-linejoin:miter;stroke-opacity:1"
       d="m 42.166987,-74.925282 -3.186683,35.655461 11.117987,-6.621223 z"
       id="path4634"
       inkscape:connector-curvature="0"
       sodipodi:nodetypes="cccc" />
    <path
       style="fill:#ffffff;stroke:none;stroke-width:0.26458335px;stroke-linecap:butt;stroke-linejoin:miter;stroke-opacity:1"
       d="m 28.117249,-45.494479 c 1.83097,-1.993613 6.427662,5.029451 10.523141,4.999555 3.968988,-0.02897 5.525014,-2.050697 8.100174,-3.718843 0.388796,-0.251855 2.911472,-2.22084 3.187772,-2.15882 0.597909,0.13421 1.008299,0.916929 1.019739,1.529609 0.0072,0.384402 0.0043,1.808621 -0.396653,1.492011 -0.206475,-0.163026 -0.416399,-0.04842 -0.59476,0.122576 -0.235867,0.226129 -0.193903,1.086267 -0.440316,1.305143 -0.245698,0.218242 -1.107903,-0.535928 -1.367837,-0.335925 -0.244903,0.188437 -0.461882,1.114264 -0.708027,1.303178 -0.262057,0.201127 -1.035475,0.0912 -1.300919,0.26641 -0.219186,0.144674 -0.80323,1.189427 -1.016862,1.321715 -0.404079,0.250219 -0.536652,-1.018444 -0.897621,-0.847073 -0.335832,0.159437 -0.309611,0.974444 -0.663645,1.239345 -0.260266,0.194739 -1.416822,0.02533 -1.730394,0.175586 -0.869924,0.416856 -1.037234,1.017844 -1.986791,1.208512 -0.302004,0.06064 -0.524227,-0.980876 -0.906355,-0.98249 -0.454776,-0.0019 -1.071169,1.020868 -1.416386,0.897511 -0.582983,-0.208316 -0.207925,-1.072903 -0.689224,-1.182327 -0.540062,-0.122784 -1.61559,0.365466 -2.107394,0.05144 -0.365476,-0.233361 -0.633465,-1.140486 -1.061634,-1.34775 -0.393488,-0.190476 -1.698503,-0.0073 -2.037055,-0.217844 -0.252608,-0.157074 -0.307793,-1.177804 -0.53161,-1.300638 -0.594412,-0.326221 -1.3646,-0.103941 -1.589365,-0.209308 -0.271392,-0.127226 0.14621,-0.851572 -0.167391,-1.123976 -0.266567,-0.231549 -1.277591,0.0049 -1.390543,-0.292327 -0.158413,-0.416883 -0.534328,-1.428428 0.169956,-2.195273 z"
       id="path4636"
       inkscape:connector-curvature="0"
       sodipodi:nodetypes="sssssssssssssssssssssssssss" />
  </g>
</svg>
