<?xml version="1.0" encoding="UTF-8" standalone="no"?>
<!-- Created with Inkscape (http://www.inkscape.org/) -->

<svg
   xmlns:dc="http://purl.org/dc/elements/1.1/"
   xmlns:cc="http://creativecommons.org/ns#"
   xmlns:rdf="http://www.w3.org/1999/02/22-rdf-syntax-ns#"
   xmlns:svg="http://www.w3.org/2000/svg"
   xmlns="http://www.w3.org/2000/svg"
   xmlns:xlink="http://www.w3.org/1999/xlink"
   xmlns:sodipodi="http://sodipodi.sourceforge.net/DTD/sodipodi-0.dtd"
   xmlns:inkscape="http://www.inkscape.org/namespaces/inkscape"
   width="1093.9406"
   height="289.33878"
   viewBox="0 0 289.43843 76.554219"
   version="1.1"
   id="svg8"
   inkscape:version="0.92+devel (unknown)"
   sodipodi:docname="control-explanation.svg">
  <defs
     id="defs2">
    <linearGradient
       inkscape:collect="always"
       id="linearGradient842">
      <stop
         style="stop-color:#ffffff;stop-opacity:1;"
         offset="0"
         id="stop838" />
      <stop
         style="stop-color:#d1d1d1;stop-opacity:1"
         offset="1"
         id="stop840" />
    </linearGradient>
    <linearGradient
       inkscape:collect="always"
       xlink:href="#linearGradient842"
       id="linearGradient844"
       x1="58.98085"
       y1="113.87443"
       x2="59.091667"
       y2="71.295532"
       gradientUnits="userSpaceOnUse"
       gradientTransform="matrix(0.36505396,0,0,0.36505396,-117.34858,90.334003)" />
    <linearGradient
       inkscape:collect="always"
       xlink:href="#linearGradient842"
       id="linearGradient866"
       gradientUnits="userSpaceOnUse"
       x1="58.98085"
       y1="113.87443"
       x2="59.091667"
       y2="71.295532"
       gradientTransform="matrix(0.36505396,0,0,0.36505396,-136.38105,109.36646)" />
    <linearGradient
       inkscape:collect="always"
       xlink:href="#linearGradient842"
       id="linearGradient878"
       gradientUnits="userSpaceOnUse"
       gradientTransform="matrix(0.36505396,0,0,0.36505396,-98.31612,109.36646)"
       x1="58.98085"
       y1="113.87443"
       x2="59.091667"
       y2="71.295532" />
    <linearGradient
       inkscape:collect="always"
       xlink:href="#linearGradient842"
       id="linearGradient890"
       gradientUnits="userSpaceOnUse"
       gradientTransform="matrix(2.4728272,0,0,0.36505396,-348.79702,109.36646)"
       x1="58.98085"
       y1="113.87443"
       x2="59.091667"
       y2="71.295532" />
    <linearGradient
       inkscape:collect="always"
       xlink:href="#linearGradient842"
       id="linearGradient902"
       gradientUnits="userSpaceOnUse"
       gradientTransform="matrix(0.36505396,0,0,0.36505396,-302.51111,109.36646)"
       x1="58.98085"
       y1="113.87443"
       x2="59.091667"
       y2="71.295532" />
  </defs>
  <sodipodi:namedview
     id="base"
     pagecolor="#418dd0"
     bordercolor="#666666"
     borderopacity="1.0"
     inkscape:pageopacity="0"
     inkscape:pageshadow="2"
     inkscape:zoom="0.69999999"
     inkscape:cx="869.00692"
     inkscape:cy="158.11827"
     inkscape:document-units="px"
     inkscape:current-layer="layer1"
     inkscape:document-rotation="0"
     showgrid="false"
     units="px"
     inkscape:snap-global="false" />
  <metadata
     id="metadata5">
    <rdf:RDF>
      <cc:Work
         rdf:about="">
        <dc:format>image/svg+xml</dc:format>
        <dc:type
           rdf:resource="http://purl.org/dc/dcmitype/StillImage" />
        <dc:title></dc:title>
      </cc:Work>
    </rdf:RDF>
  </metadata>
  <g
     inkscape:label="Layer 1"
     inkscape:groupmode="layer"
     id="layer1"
     transform="translate(329.53584,-114.47366)">
    <rect
       style="font-variation-settings:normal;vector-effect:none;fill:#ffffff;stroke:#000000;stroke-width:0.09658719"
       id="rect14"
       width="19.032461"
       height="19.032461"
       x="-104.39392"
       y="114.52195"
       ry="1.2535084" />
    <path
       style="font-variation-settings:normal;vector-effect:none;fill:#ececec;stroke:none;stroke-width:0.10256375"
       d="m -104.32145,116.3269 v 15.42264 h 18.887455 V 116.3269 Z"
       id="rect18"
       inkscape:connector-curvature="0" />
    <rect
       ry="1.0157614"
       y="116.32684"
       x="-102.58903"
       height="15.422663"
       width="15.422663"
       id="rect16"
       style="font-variation-settings:normal;vector-effect:none;fill:url(#linearGradient844);fill-opacity:1;stroke:#000000;stroke-width:0.07826794" />
    <path
       style="font-variation-settings:normal;vector-effect:none;fill:#cccccc;stroke:none;stroke-width:0.10035305"
       d="m -104.32139,131.74954 v 0.92847 c 0.17171,0.46636 0.63361,0.79935 1.18093,0.79935 h 16.525467 c 0.547326,0 1.009223,-0.33299 1.18093,-0.79935 v -0.92847 z"
       id="path27"
       inkscape:connector-curvature="0" />
    <path
       style="font-variation-settings:normal;opacity:1;vector-effect:none;fill:#363636;fill-opacity:1;stroke:none;stroke-width:0.1118314"
       d="m -97.52241,128.98372 5.311801,0.23104 v -4.02593 h 1.918689 l -4.262277,-7.26619 -5.221737,7.02617 h 2.61431 z"
       id="path854"
       inkscape:connector-curvature="0"
       sodipodi:nodetypes="cccccccc" />
    <rect
       ry="1.2535084"
       y="133.55441"
       x="-123.42639"
       height="19.032461"
       width="19.032461"
       id="rect856"
       style="font-variation-settings:normal;vector-effect:none;fill:#ffffff;stroke:#000000;stroke-width:0.09658719" />
    <path
       inkscape:connector-curvature="0"
       id="path858"
       d="m -123.35392,135.35936 v 15.42263 h 18.88746 v -15.42263 z"
       style="font-variation-settings:normal;vector-effect:none;fill:#ececec;stroke:none;stroke-width:0.10256375" />
    <rect
       style="font-variation-settings:normal;vector-effect:none;fill:url(#linearGradient866);fill-opacity:1;stroke:#000000;stroke-width:0.07826794"
       id="rect860"
       width="15.422663"
       height="15.422663"
       x="-121.62149"
       y="135.3593"
       ry="1.0157614" />
    <path
       inkscape:connector-curvature="0"
       id="path862"
       d="m -123.35385,150.78199 v 0.92848 c 0.17171,0.46636 0.6336,0.79935 1.18093,0.79935 h 16.52546 c 0.54733,0 1.00923,-0.33299 1.18093,-0.79935 v -0.92848 z"
       style="font-variation-settings:normal;vector-effect:none;fill:#cccccc;stroke:none;stroke-width:0.10035305" />
    <path
       sodipodi:nodetypes="cccccccc"
       inkscape:connector-curvature="0"
       id="path864"
       d="m -109.06184,145.85929 0.23103,-5.31181 h -4.02593 v -1.91869 l -7.26619,4.26228 7.02617,5.22174 v -2.61431 z"
       style="font-variation-settings:normal;opacity:1;vector-effect:none;fill:#363636;fill-opacity:1;stroke:none;stroke-width:0.1118314" />
    <rect
       style="font-variation-settings:normal;vector-effect:none;fill:#ffffff;stroke:#000000;stroke-width:0.09658719"
       id="rect868"
       width="19.032461"
       height="19.032461"
       x="-85.361458"
       y="133.55441"
       ry="1.2535084" />
    <path
       style="font-variation-settings:normal;vector-effect:none;fill:#ececec;stroke:none;stroke-width:0.10256375"
       d="m -85.28899,135.35936 v 15.42263 h 18.887457 v -15.42263 z"
       id="path870"
       inkscape:connector-curvature="0" />
    <rect
       ry="1.0157614"
       y="135.3593"
       x="-83.556564"
       height="15.422663"
       width="15.422663"
       id="rect872"
       style="font-variation-settings:normal;vector-effect:none;fill:url(#linearGradient878);fill-opacity:1;stroke:#000000;stroke-width:0.07826794" />
    <path
       style="font-variation-settings:normal;vector-effect:none;fill:#cccccc;stroke:none;stroke-width:0.10035305"
       d="m -85.288923,150.78199 v 0.92848 c 0.171707,0.46636 0.633603,0.79935 1.180929,0.79935 h 16.525463 c 0.547326,0 1.009225,-0.33299 1.180932,-0.79935 v -0.92848 z"
       id="path874"
       inkscape:connector-curvature="0" />
    <path
       style="font-variation-settings:normal;opacity:1;vector-effect:none;fill:#363636;fill-opacity:1;stroke:none;stroke-width:0.1118314"
       d="m -80.961885,140.16431 -0.231038,5.3118 h 4.025937 l -3e-6,1.91869 7.266187,-4.26228 -7.026168,-5.22174 3e-6,2.61432 z"
       id="path876"
       inkscape:connector-curvature="0"
       sodipodi:nodetypes="cccccccc" />
    <rect
       style="font-variation-settings:normal;vector-effect:none;fill:#ffffff;stroke:#000000;stroke-width:0.09658719;stroke-miterlimit:4;stroke-dasharray:none"
       id="rect880"
       width="110.73758"
       height="19.032461"
       x="-251.95094"
       y="133.55441"
       ry="1.2535084" />
    <path
       style="font-variation-settings:normal;vector-effect:none;fill:#ececec;stroke:none;stroke-width:0.24811666"
       d="m -251.84959,135.35936 v 15.42263 h 110.53448 v -15.42263 z"
       id="path882"
       inkscape:connector-curvature="0" />
    <rect
       ry="1.0157614"
       y="135.3593"
       x="-248.8177"
       height="15.422663"
       width="104.47108"
       id="rect884"
       style="font-variation-settings:normal;vector-effect:none;fill:url(#linearGradient890);fill-opacity:1;stroke:#000000;stroke-width:0.09658719;stroke-miterlimit:4;stroke-dasharray:none" />
    <path
       style="font-variation-settings:normal;vector-effect:none;fill:#cccccc;stroke:none;stroke-width:0.2428963"
       d="m -251.90731,150.78199 v 0.92848 c 0.16574,0.2034 0.4512,0.79935 1.12314,0.79935 h 108.59682 c 0.35697,0 0.81664,-0.54488 0.92996,-0.79935 v -0.92848 z"
       id="path886"
       inkscape:connector-curvature="0"
       sodipodi:nodetypes="ccssccc" />
    <rect
       style="font-variation-settings:normal;vector-effect:none;fill:#ffffff;stroke:#000000;stroke-width:0.09658719"
       id="rect892"
       width="19.032461"
       height="19.032461"
       x="-289.55624"
       y="133.55441"
       ry="1.2535084" />
    <path
       style="font-variation-settings:normal;vector-effect:none;fill:#ececec;stroke:none;stroke-width:0.10256375"
       d="m -289.48398,135.35936 v 15.42263 h 18.88747 v -15.42263 z"
       id="path894"
       inkscape:connector-curvature="0" />
    <rect
       ry="1.0157614"
       y="135.3593"
       x="-287.75134"
       height="15.422663"
       width="15.422663"
       id="rect896"
       style="font-variation-settings:normal;vector-effect:none;fill:url(#linearGradient902);fill-opacity:1;stroke:#000000;stroke-width:0.07826794" />
    <path
       style="font-variation-settings:normal;vector-effect:none;fill:#cccccc;stroke:none;stroke-width:0.10035305"
       d="m -289.48391,150.78199 v 0.92848 c 0.17171,0.46636 0.63361,0.79935 1.18093,0.79935 h 16.52548 c 0.54732,0 1.00922,-0.33299 1.18093,-0.79935 v -0.92848 z"
       id="path898"
       inkscape:connector-curvature="0" />
    <g
       aria-label="Ctrl"
       transform="matrix(0.15697879,0,0,0.15762873,-46.755768,59.981707)"
       style="font-style:normal;font-weight:normal;font-size:40px;line-height:125%;font-family:sans-serif;letter-spacing:0px;word-spacing:0px;fill:#000000;fill-opacity:1;stroke:none;stroke-width:1px;stroke-linecap:butt;stroke-linejoin:miter;stroke-opacity:1"
       id="flowRoot904">
      <path
         d="m -1508.3047,518.18252 q -2.7539,0 -4.2969,2.26563 -1.5429,2.24609 -1.5429,6.21093 0,8.24219 6.2695,8.24219 1.8945,0 3.6719,-0.52734 1.7773,-0.52735 3.5742,-1.26953 v 6.52343 q -3.5742,1.58203 -8.0859,1.58203 -6.4649,0 -9.9219,-3.75 -3.4375,-3.75 -3.4375,-10.83984 0,-4.43359 1.6601,-7.79297 1.6797,-3.35937 4.8047,-5.15625 3.1446,-1.8164 7.3828,-1.8164 4.6289,0 8.8477,2.01171 l -2.3633,6.07422 q -1.582,-0.74218 -3.1641,-1.25 -1.582,-0.50781 -3.3984,-0.50781 z"
         style="font-style:normal;font-variant:normal;font-weight:800;font-stretch:normal;font-family:'Open Sans';-inkscape-font-specification:'Open Sans Ultra-Bold'"
         id="path141"
         inkscape:connector-curvature="0" />
      <path
         d="m -1484.6914,535.17471 q 1.543,0 3.6914,-0.76172 v 5.56641 q -1.543,0.66406 -2.9492,0.9375 -1.3867,0.29296 -3.2617,0.29296 -3.8477,0 -5.5469,-1.875 -1.6992,-1.89453 -1.6992,-5.80078 v -9.12109 h -2.6758 v -3.10547 l 3.3984,-2.40234 1.9727,-4.64844 h 5 v 4.43359 h 5.4297 v 5.72266 h -5.4297 v 8.61328 q 0,2.14844 2.0703,2.14844 z"
         style="font-style:normal;font-variant:normal;font-weight:800;font-stretch:normal;font-family:'Open Sans';-inkscape-font-specification:'Open Sans Ultra-Bold'"
         id="path143"
         inkscape:connector-curvature="0" />
      <path
         d="m -1463.7344,518.29971 q 0.9961,0 1.8946,0.15625 l 0.4296,0.0781 -0.6836,7.20703 q -0.9375,-0.23437 -2.5976,-0.23437 -2.5,0 -3.6328,1.15234 -1.1328,1.13282 -1.1328,3.28125 v 10.87891 h -7.6368 v -22.12891 h 5.6836 l 1.1914,3.53516 h 0.3711 q 0.9571,-1.75781 2.6563,-2.83203 1.7187,-1.09375 3.457,-1.09375 z"
         style="font-style:normal;font-variant:normal;font-weight:800;font-stretch:normal;font-family:'Open Sans';-inkscape-font-specification:'Open Sans Ultra-Bold'"
         id="path145"
         inkscape:connector-curvature="0" />
      <path
         d="m -1450.707,540.81924 h -7.6368 v -30.39063 h 7.6368 z"
         style="font-style:normal;font-variant:normal;font-weight:800;font-stretch:normal;font-family:'Open Sans';-inkscape-font-specification:'Open Sans Ultra-Bold'"
         id="path147"
         inkscape:connector-curvature="0" />
    </g>
    <g
       aria-label="Firebolt"
       transform="matrix(0.09658719,0,0,0.09658719,-117.34858,96.285877)"
       style="font-style:normal;font-weight:normal;font-size:40px;line-height:125%;font-family:sans-serif;letter-spacing:0px;word-spacing:0px;fill:#ffffff;fill-opacity:1;stroke:none;stroke-width:1px;stroke-linecap:butt;stroke-linejoin:miter;stroke-opacity:1"
       id="flowRoot912">
      <path
         d="m -1092.7695,651.69424 q 9.375,0.78125 16.4062,0.9375 7.1875,0.15625 12.1875,0.15625 5.7813,0 10,-0.3125 4.375,-0.46875 11.4063,-1.25 5.9375,-0.78125 15.3125,-2.03125 9.375,-1.40625 22.8125,-3.59375 -1.7188,2.65625 -2.9688,5.625 -1.0937,2.8125 -1.875,5.15625 -0.7812,2.8125 -1.4062,5.46875 -0.4688,2.96875 -1.0938,7.34375 -0.625,3.75 -1.5625,9.53125 -0.7812,5.625 -2.0312,13.4375 -4.6875,-12.1875 -9.5313,-18.75 -4.6875,-6.5625 -8.75,-9.6875 -4.6875,-3.59375 -8.9062,-4.0625 -6.0938,0 -10,2.34375 -3.9063,2.34375 -6.4063,6.09375 -2.3437,3.59375 -3.5937,7.96875 -1.25,4.21875 -1.7188,8.28125 -0.4687,3.90625 -0.625,7.03125 -0.1562,2.96875 -0.3125,4.0625 5.4688,-0.3125 9.2188,-0.78125 3.75,-0.46875 5.9375,-0.9375 2.6562,-0.625 4.2187,-1.25 2.3438,-1.25 4.6875,-2.96875 2.0313,-1.5625 4.2188,-3.75 2.3437,-2.1875 4.0625,-5.3125 -0.9375,5.625 -1.7188,9.375 -0.625,3.75 -1.0937,5.9375 -0.625,2.65625 -0.7813,4.0625 -0.3125,1.40625 -0.7812,3.90625 -0.4688,2.1875 -1.0938,5.625 -0.625,3.4375 -1.4062,8.59375 -1.875,-3.28125 -3.9063,-5.3125 -2.0312,-2.1875 -3.75,-3.4375 -2.0312,-1.40625 -3.9062,-2.1875 -2.0313,-0.625 -4.375,-1.25 -2.0313,-0.46875 -4.8438,-0.9375 -2.6562,-0.625 -5.7812,-1.09375 0.3125,8.4375 0.9375,14.53125 0.625,5.9375 1.0937,10 0.625,4.6875 1.25,7.8125 0.7813,3.125 2.5,6.71875 1.4063,3.125 3.9063,7.1875 2.6562,3.90625 6.7187,8.4375 -3.125,-0.78125 -6.5625,-1.09375 -3.4375,-0.3125 -6.0937,-0.46875 -3.2813,-0.15625 -6.25,0 -3.125,0.15625 -6.875,0.625 -3.125,0.3125 -7.1875,0.9375 -4.0625,0.625 -8.5938,1.40625 2.6563,-2.65625 4.375,-5.3125 1.7188,-2.65625 2.5,-4.6875 0.9375,-2.34375 1.25,-4.53125 0.1563,-1.875 0.1563,-8.125 0,-6.40625 -0.1563,-14.84375 -0.1562,-8.59375 -0.4687,-18.125 -0.3125,-9.53125 -0.625,-17.8125 -0.3125,-8.4375 -0.7813,-14.375 -0.3125,-5.9375 -0.7812,-7.1875 -0.625,-1.5625 -1.4063,-3.59375 -1.25,-3.28125 -5.1562,-9.53125 z"
         style="font-style:normal;font-variant:normal;font-weight:normal;font-stretch:normal;font-size:160px;font-family:'Lakki Reddy';-inkscape-font-specification:'Lakki Reddy';fill:#ffffff;fill-opacity:1"
         id="path107"
         inkscape:connector-curvature="0" />
      <path
         d="m -1011.0508,689.66299 28.75002,0.3125 q -2.5,9.53125 -3.75,16.25 -1.09375,6.71875 -1.40625,11.25 -0.625,5.15625 -0.3125,8.75 0.46875,3.28125 1.5625,7.03125 0.9375,3.125 2.8125,7.1875 1.875,4.0625 5,8.125 -1.875,-0.625 -4.0625,-0.9375 -2.1875,-0.3125 -4.0625,-0.46875 -2.1875,-0.15625 -4.375,0 -2.1875,0.15625 -4.84375,0.46875 -2.1875,0.3125 -5.31252,0.78125 -3.125,0.46875 -6.5625,1.25 2.3438,-7.03125 3.5938,-12.1875 1.4062,-5.15625 2.0312,-8.59375 0.625,-4.0625 0.7813,-6.5625 0,-3.125 0,-7.03125 0,-4.0625 0,-7.8125 0,-3.75 -0.1563,-6.5625 -0.1562,-2.96875 -0.625,-3.75 l -1.5625,-1.5625 q -0.9375,-0.78125 -2.8125,-2.1875 -1.7187,-1.5625 -4.6875,-3.75 z m 11.09377,-24.0625 q 3.28125,-1.71875 6.5625,-0.9375 3.4375,0.78125 5.3125,2.96875 1.875,2.1875 1.25,5.15625 -0.46875,2.96875 -5,5.78125 -4.53125,2.65625 -7.96875,1.875 -3.43752,-0.78125 -4.84372,-3.28125 -1.4063,-2.5 -0.4688,-5.78125 0.9375,-3.4375 5.15627,-5.78125 z"
         style="font-style:normal;font-variant:normal;font-weight:normal;font-stretch:normal;font-size:160px;font-family:'Lakki Reddy';-inkscape-font-specification:'Lakki Reddy';fill:#ffffff;fill-opacity:1"
         id="path109"
         inkscape:connector-curvature="0" />
      <path
         d="m -974.17578,684.66299 q 2.96875,0.15625 5.3125,0.15625 2.5,-0.15625 4.21875,-0.3125 2.03125,-0.15625 3.59375,-0.3125 2.34375,-0.3125 4.84375,-0.78125 2.1875,-0.3125 4.53125,-0.78125 2.5,-0.625 4.84375,-1.40625 -0.9375,2.34375 -1.5625,4.0625 -0.625,1.71875 -0.9375,2.96875 -0.46875,1.40625 -0.46875,2.34375 -0.15625,1.09375 -0.15625,2.65625 -0.15625,2.65625 0,8.59375 8.125,-7.03125 13.59375,-10.9375 5.625,-3.90625 8.90625,-6.09375 3.90625,-2.5 6.09375,-3.28125 5.78125,-0.9375 10.15625,2.65625 1.875,1.5625 3.59375,4.21875 1.71875,2.5 2.96875,6.71875 1.25,4.21875 1.875,10.15625 0.625,5.78125 0.15625,13.90625 -3.28125,0.3125 -5.9375,0.625 -2.5,0.3125 -4.21875,0.46875 -2.03125,0.3125 -3.75,0.3125 l -4.21875,0.46875 q -2.1875,0.3125 -5.46875,0.625 -3.125,0.15625 -7.65625,0.625 6.5625,-5.3125 8.4375,-9.21875 2.03125,-4.0625 1.71875,-6.71875 -0.3125,-2.96875 -2.8125,-5.15625 -2.96875,-1.71875 -6.40625,-1.25 -2.96875,0.3125 -6.875,2.65625 -3.90625,2.34375 -8.28125,8.75 0.3125,10 0.625,16.5625 0.46875,6.5625 0.78125,10.625 0.46875,4.6875 0.78125,7.34375 0.46875,2.34375 1.875,5 1.09375,2.1875 3.125,4.84375 2.03125,2.65625 5.3125,5.3125 -6.875,-0.3125 -11.25,0 -2.65625,0.15625 -4.6875,0.3125 -2.1875,0.3125 -4.6875,0.625 -2.1875,0.3125 -5.15625,0.625 -2.8125,0.46875 -6.25,0.9375 1.25,-1.71875 2.03125,-4.0625 0.78125,-2.1875 1.25,-4.21875 0.625,-2.34375 0.9375,-4.84375 0.15625,-2.1875 0.15625,-6.5625 0.15625,-4.375 -0.15625,-9.84375 -0.15625,-5.625 -0.46875,-11.5625 -0.3125,-6.09375 -0.78125,-11.40625 -0.46875,-5.3125 -1.09375,-9.21875 -0.46875,-4.0625 -1.09375,-5.625 -0.78125,-1.875 -1.875,-3.75 -0.9375,-1.71875 -2.34375,-3.59375 -1.40625,-2.03125 -3.125,-4.21875 z"
         style="font-style:normal;font-variant:normal;font-weight:normal;font-stretch:normal;font-size:160px;font-family:'Lakki Reddy';-inkscape-font-specification:'Lakki Reddy';fill:#ffffff;fill-opacity:1"
         id="path111"
         inkscape:connector-curvature="0" />
      <path
         d="m -855.42578,734.35049 q 4.375,0 8.125,-0.9375 3.125,-0.78125 5.9375,-2.5 2.96875,-1.875 3.90625,-5.46875 3.125,0.625 5.3125,1.09375 2.1875,0.3125 3.75,0.625 1.71875,0.46875 2.96875,0.625 1.25,0.3125 2.96875,0.625 1.5625,0.3125 3.75,0.78125 2.34375,0.3125 5.46875,0.9375 -2.34375,-0.3125 -4.84375,0.46875 -2.34375,0.78125 -4.53125,1.71875 -2.5,1.09375 -4.6875,2.65625 -1.40625,0.9375 -3.28125,2.8125 -1.71875,1.875 -5,3.59375 -3.28125,1.71875 -8.75,2.96875 -5.3125,1.09375 -13.75,0.78125 -10.15625,-0.3125 -17.03125,-3.59375 -6.875,-3.4375 -11.09375,-8.28125 -4.21875,-5 -6.09375,-10.78125 -1.875,-5.78125 -2.03125,-10.78125 -0.15625,-5 2.96875,-10.46875 3.125,-5.46875 8.75,-10 5.78125,-4.53125 13.90625,-7.34375 8.125,-2.96875 17.8125,-2.96875 5.625,0 10.3125,1.40625 4.84375,1.25 8.75,3.4375 4.0625,2.1875 7.03125,5 2.96875,2.65625 5,5.46875 2.03125,2.96875 3.4375,6.25 1.25,2.8125 2.03125,6.40625 0.78125,3.59375 0.46875,7.34375 -11.875,0.3125 -19.21875,0.46875 -7.1875,0.15625 -11.25,0.15625 h -7.03125 -5.3125 q -2.8125,0 -7.34375,0.15625 -4.53125,0.15625 -11.09375,0.46875 0.78125,6.25 3.90625,9.6875 3.28125,3.28125 6.875,5 4.0625,1.875 8.90625,2.1875 z m -14.0625,-28.125 q 5,0.3125 8.28125,0.46875 3.4375,0.15625 5.625,0.3125 2.34375,0.15625 3.75,0.15625 h 3.90625 q 3.90625,0 14.53125,-0.46875 -0.46875,-6.875 -2.96875,-10.46875 -2.34375,-3.59375 -5,-5.3125 -3.125,-1.875 -6.875,-2.1875 -10.15625,0.15625 -15.15625,4.21875 -4.84375,4.0625 -6.09375,13.28125 z"
         style="font-style:normal;font-variant:normal;font-weight:normal;font-stretch:normal;font-size:160px;font-family:'Lakki Reddy';-inkscape-font-specification:'Lakki Reddy';fill:#ffffff;fill-opacity:1"
         id="path113"
         inkscape:connector-curvature="0" />
      <path
         d="m -807.61328,649.81924 q 3.59375,0.9375 6.5625,1.40625 3.125,0.3125 5.3125,0.46875 2.65625,0.15625 4.84375,0.15625 2.1875,0 5.46875,-0.3125 5.78125,-0.46875 16.40625,-2.34375 -1.71875,1.25 -3.28125,2.5 -1.40625,1.09375 -2.5,2.1875 l -2.34375,2.34375 q -2.03125,2.8125 -4.0625,9.53125 -1.71875,5.78125 -3.75,16.25 -1.875,10.46875 -3.4375,27.8125 7.65625,-7.5 14.375,-11.25 6.875,-3.90625 12.03125,-5.625 6.09375,-1.875 11.09375,-2.03125 6.40625,0.46875 11.09375,2.65625 4.84375,2.03125 8.125,5 3.4375,2.8125 5.46875,5.9375 2.1875,2.96875 3.28125,5.3125 0.625,1.5625 0.9375,5.78125 0.46875,4.0625 0.15625,9.375 -0.3125,5.3125 -1.71875,11.25 -1.25,5.78125 -4.21875,10.78125 -2.8125,4.84375 -7.5,8.125 -4.53125,3.28125 -11.40625,3.59375 -7.96875,0 -15.46875,-1.875 -6.40625,-1.5625 -13.59375,-5.46875 -7.03125,-4.0625 -12.03125,-11.5625 0,1.875 0,3.75 0,1.71875 0.15625,2.96875 0.15625,1.71875 0.3125,2.96875 0.15625,1.40625 0.78125,2.96875 0.46875,1.25 1.40625,3.125 1.09375,1.71875 2.8125,3.4375 -1.71875,-0.15625 -3.4375,-0.15625 -1.71875,-0.15625 -3.4375,0 -1.875,0.15625 -3.75,0.3125 -1.875,0.15625 -3.90625,0.46875 -1.71875,0.3125 -4.0625,0.78125 -2.34375,0.46875 -4.84375,1.09375 0.46875,-1.40625 0.78125,-4.0625 0.3125,-2.8125 0.625,-6.09375 0.46875,-3.4375 0.625,-7.1875 0.3125,-3.75 0.625,-7.5 0.625,-8.59375 1.09375,-18.75 0.46875,-15.78125 0.15625,-29.375 -0.15625,-5.78125 -0.625,-11.71875 -0.3125,-5.9375 -0.9375,-11.09375 -0.625,-5.3125 -1.71875,-9.375 -0.9375,-4.21875 -2.5,-6.5625 z m 20.3125,76.09375 q 2.5,4.53125 5.3125,7.8125 2.8125,3.125 5.625,5.3125 2.8125,2.1875 5.46875,3.4375 2.8125,1.25 5.3125,1.875 5.78125,1.5625 11.40625,0.3125 5.625,-1.5625 8.75,-6.25 3.125,-4.6875 4.84375,-10.625 0.78125,-2.8125 0.9375,-7.1875 0.3125,-4.375 -0.9375,-8.4375 -1.09375,-4.21875 -4.0625,-7.34375 -2.96875,-3.28125 -8.59375,-3.90625 -3.90625,0 -9.0625,2.1875 -4.53125,1.875 -10.78125,6.25 -6.25,4.21875 -14.21875,12.65625 z"
         style="font-style:normal;font-variant:normal;font-weight:normal;font-stretch:normal;font-size:160px;font-family:'Lakki Reddy';-inkscape-font-specification:'Lakki Reddy';fill:#ffffff;fill-opacity:1"
         id="path115"
         inkscape:connector-curvature="0" />
      <path
         d="m -672.61328,689.50674 q 4.0625,0 8.4375,1.5625 4.375,1.40625 8.4375,3.75 4.0625,2.1875 7.34375,4.84375 3.4375,2.5 5.625,4.84375 3.90625,4.21875 5.3125,11.40625 1.5625,7.03125 0.625,14.53125 -0.9375,7.34375 -4.375,13.90625 -3.4375,6.5625 -9.53125,9.6875 -4.375,2.1875 -8.59375,3.4375 -4.21875,1.25 -8.125,1.875 -3.90625,0.625 -7.34375,0.625 -3.4375,0 -5.9375,-0.15625 -4.6875,-0.3125 -9.84375,-3.28125 -5,-2.96875 -9.53125,-7.34375 -4.375,-4.375 -7.5,-9.53125 -3.125,-5.3125 -3.75,-10 -0.9375,-6.40625 -0.3125,-13.4375 0.625,-7.03125 4.53125,-12.96875 4.0625,-5.9375 12.1875,-9.84375 8.28125,-3.90625 22.34375,-3.90625 z m -5.15625,60.625 q 1.71875,0.3125 4.6875,-0.78125 2.96875,-1.25 5.78125,-3.90625 2.96875,-2.65625 5.15625,-6.71875 2.34375,-4.21875 2.8125,-10.15625 0.46875,-5.78125 0,-10.625 -0.3125,-4.84375 -1.40625,-8.4375 -1.09375,-3.75 -2.5,-6.09375 -1.40625,-2.34375 -2.96875,-3.28125 -2.65625,-1.40625 -6.40625,-2.1875 -3.75,-0.9375 -6.40625,0.3125 -1.25,0.625 -3.125,2.65625 -1.875,2.03125 -3.75,5.15625 -1.875,2.96875 -3.4375,6.875 -1.40625,3.90625 -2.03125,8.125 -0.625,4.21875 -0.3125,9.0625 0.46875,4.84375 2.03125,9.21875 1.5625,4.21875 4.375,7.34375 2.96875,2.96875 7.5,3.4375 z"
         style="font-style:normal;font-variant:normal;font-weight:normal;font-stretch:normal;font-size:160px;font-family:'Lakki Reddy';-inkscape-font-specification:'Lakki Reddy';fill:#ffffff;fill-opacity:1"
         id="path117"
         inkscape:connector-curvature="0" />
      <path
         d="m -625.58203,763.88174 q 1.5625,-2.34375 2.5,-4.375 0.9375,-2.03125 1.5625,-3.4375 0.625,-1.71875 0.9375,-3.125 0.15625,-0.9375 0.15625,-5.46875 0,-4.53125 -0.3125,-11.40625 -0.15625,-6.875 -0.46875,-15.46875 -0.15625,-8.59375 -0.625,-17.5 -0.3125,-8.90625 -0.78125,-17.34375 -0.3125,-8.4375 -0.625,-15.15625 -0.3125,-6.875 -0.625,-11.25 -0.3125,-4.375 -0.46875,-5 -0.3125,-0.9375 -1.09375,-1.875 -1.5625,-1.875 -5.3125,-3.59375 7.96875,-2.03125 12.1875,-3.28125 2.5,-0.625 4.375,-1.25 1.71875,-0.625 3.4375,-1.25 1.40625,-0.625 3.125,-1.40625 1.71875,-0.9375 3.125,-2.03125 -0.78125,4.53125 -1.25,8.75 -0.46875,4.21875 -0.78125,7.8125 -0.3125,4.0625 -0.3125,7.8125 -0.78125,7.65625 -0.9375,16.71875 0,8.90625 0.15625,18.125 0.15625,9.21875 0.625,17.96875 0.46875,8.75 0.9375,15.9375 0.625,7.03125 1.09375,12.03125 0.625,4.84375 0.9375,6.25 0.625,2.34375 1.25,4.53125 0.625,1.875 1.40625,3.90625 0.78125,2.1875 1.875,3.4375 h -15.15625 q -2.03125,0 -3.90625,0.15625 -1.71875,0.15625 -3.59375,0.3125 -1.875,0.15625 -3.4375,0.46875 z"
         style="font-style:normal;font-variant:normal;font-weight:normal;font-stretch:normal;font-size:160px;font-family:'Lakki Reddy';-inkscape-font-specification:'Lakki Reddy';fill:#ffffff;fill-opacity:1"
         id="path119"
         inkscape:connector-curvature="0" />
      <path
         d="m -595.73828,661.06924 q 4.6875,0.46875 7.8125,0.78125 3.28125,0.3125 5.3125,0.46875 2.34375,0.15625 3.75,0.15625 1.40625,0.15625 3.75,0 2.03125,-0.15625 5.3125,-0.3125 3.28125,-0.3125 8.28125,-0.9375 -1.09375,1.5625 -1.71875,2.8125 -0.625,1.09375 -1.09375,2.03125 l -0.9375,1.875 q -0.3125,0.9375 -0.625,1.875 -0.3125,0.78125 -0.625,1.875 -0.15625,1.09375 -0.3125,2.34375 h 24.0625 l -2.1875,12.65625 -22.03125,-1.25 q -0.78125,7.96875 -1.09375,12.34375 -0.3125,4.375 -0.625,6.40625 l -0.3125,2.8125 q -0.46875,5.9375 -0.9375,12.96875 -0.46875,6.875 -0.3125,12.8125 0.15625,5.9375 1.09375,10 0.9375,3.90625 3.28125,3.90625 2.34375,0 4.375,-1.25 2.03125,-1.25 3.4375,-2.96875 1.5625,-1.71875 2.34375,-3.4375 0.78125,-1.875 0.78125,-2.8125 0,-0.9375 -0.46875,-2.1875 -0.78125,-2.34375 -2.8125,-5.9375 4.53125,1.09375 7.96875,2.1875 1.71875,0.625 3.125,1.25 1.5625,0.625 3.59375,1.40625 1.71875,0.78125 4.375,1.875 2.65625,1.09375 6.25,2.65625 -3.4375,0.625 -5,2.03125 -0.9375,0.625 -1.40625,1.40625 -1.09375,1.71875 -2.5,4.6875 -1.40625,2.8125 -4.21875,5.625 -2.8125,2.8125 -7.65625,5 -4.6875,2.1875 -12.65625,2.5 -8.28125,0.3125 -12.65625,-2.8125 -4.21875,-3.125 -6.25,-7.1875 -1.875,-4.21875 -2.1875,-8.28125 -0.3125,-4.0625 -0.46875,-5.46875 -0.15625,-1.40625 0,-7.03125 0.15625,-5.625 0.46875,-12.34375 0.3125,-6.875 0.625,-13.125 0.3125,-6.40625 0.3125,-9.375 0,-1.5625 0.15625,-3.28125 0,-1.40625 0,-2.96875 0.15625,-1.71875 0.15625,-3.28125 l -22.65625,-0.15625 -0.9375,-8.90625 22.8125,0.625 q -0.3125,-1.71875 -0.78125,-3.125 -0.3125,-1.5625 -0.625,-2.5 -0.46875,-1.09375 -0.9375,-1.875 -0.625,-0.78125 -1.40625,-1.71875 -0.78125,-0.78125 -2.03125,-2.03125 -1.25,-1.25 -2.96875,-2.8125 z"
         style="font-style:normal;font-variant:normal;font-weight:normal;font-stretch:normal;font-size:160px;font-family:'Lakki Reddy';-inkscape-font-specification:'Lakki Reddy';fill:#ffffff;fill-opacity:1"
         id="path121"
         inkscape:connector-curvature="0" />
    </g>
    <g
       aria-label="Levitation"
       transform="matrix(0.09658719,0,0,0.09658719,-21.340879,96.285877)"
       style="font-style:normal;font-weight:normal;font-size:40px;line-height:125%;font-family:sans-serif;letter-spacing:0px;word-spacing:0px;fill:#ffffff;fill-opacity:1;stroke:none;stroke-width:1px;stroke-linecap:butt;stroke-linejoin:miter;stroke-opacity:1"
       id="flowRoot926">
      <path
         d="m -1092.7695,646.22549 q 4.5312,0.78125 7.9687,1.09375 3.5938,0.3125 5.9375,0.46875 2.8125,0.15625 4.8438,0.15625 2.0312,0 5.7812,-0.3125 3.125,-0.3125 8.125,-0.78125 5.1563,-0.46875 12.6563,-1.5625 -2.1875,0.625 -4.0625,3.59375 -1.7188,2.8125 -3.125,6.09375 -1.7188,3.90625 -2.9688,8.59375 -1.0937,4.21875 -2.8125,11.5625 -1.5625,7.34375 -3.125,15.9375 -1.4062,8.59375 -2.1875,17.5 -0.7812,8.75 -0.3125,16.09375 0.625,7.34375 2.9688,12.1875 2.3437,4.6875 7.1875,5 7.3437,0.625 12.1875,0.15625 5,-0.625 8.125,-1.71875 3.125,-1.09375 4.8437,-2.5 1.7188,-1.5625 2.6563,-2.96875 2.5,-3.59375 5.1562,-9.21875 2.6563,-5.625 4.6875,-10.78125 2.1875,-5.15625 3.5938,-8.75 1.4062,-3.59375 1.4062,-3.4375 0,0.3125 -0.1562,3.59375 0,3.125 -0.1563,7.65625 0,4.375 -0.1562,9.21875 0,4.84375 -0.1563,8.28125 -0.1562,2.8125 -0.3125,6.25 -0.1562,2.96875 -0.3125,7.03125 0,4.0625 -0.3125,8.90625 -6.5625,-0.46875 -12.5,-0.625 -5.9375,-0.15625 -10.4687,-0.15625 -5.3125,0 -9.8438,0.15625 -4.8437,0.15625 -11.25,0.46875 -5.4687,0.3125 -13.5937,0.78125 -8.125,0.3125 -18.75,0.9375 1.25,-2.1875 2.0312,-4.0625 0.9375,-1.875 1.4063,-3.125 0.625,-1.5625 0.7812,-2.65625 0.9375,-5 1.5625,-12.65625 0.625,-7.8125 0.9375,-16.5625 0.4688,-8.75 0.4688,-17.8125 0.1562,-9.21875 0,-17.03125 -0.1563,-7.8125 -0.625,-13.59375 -0.3125,-5.78125 -0.9375,-7.96875 -0.7813,-2.5 -1.875,-5 -0.9375,-2.1875 -2.3438,-4.375 -1.25,-2.34375 -2.9687,-4.0625 z"
         style="font-style:normal;font-variant:normal;font-weight:normal;font-stretch:normal;font-size:160px;font-family:'Lakki Reddy';-inkscape-font-specification:'Lakki Reddy';fill:#ffffff;fill-opacity:1"
         id="path86"
         inkscape:connector-curvature="0" />
      <path
         d="m -963.86328,734.35049 q 4.375,0 8.125,-0.9375 3.125,-0.78125 5.9375,-2.5 2.96875,-1.875 3.90625,-5.46875 3.125,0.625 5.3125,1.09375 2.1875,0.3125 3.75,0.625 1.71875,0.46875 2.96875,0.625 1.25,0.3125 2.96875,0.625 1.5625,0.3125 3.75,0.78125 2.34375,0.3125 5.46875,0.9375 -2.34375,-0.3125 -4.84375,0.46875 -2.34375,0.78125 -4.53125,1.71875 -2.5,1.09375 -4.6875,2.65625 -1.40625,0.9375 -3.28125,2.8125 -1.71875,1.875 -5,3.59375 -3.28125,1.71875 -8.75,2.96875 -5.3125,1.09375 -13.75,0.78125 -10.15625,-0.3125 -17.03125,-3.59375 -6.875,-3.4375 -11.09375,-8.28125 -4.21875,-5 -6.09377,-10.78125 -1.875,-5.78125 -2.0312,-10.78125 -0.1563,-5 2.96872,-10.46875 3.125,-5.46875 8.75,-10 5.78125,-4.53125 13.90625,-7.34375 8.125,-2.96875 17.8125,-2.96875 5.625,0 10.3125,1.40625 4.84375,1.25 8.75,3.4375 4.0625,2.1875 7.03125,5 2.96875,2.65625 5,5.46875 2.03125,2.96875 3.4375,6.25 1.25,2.8125 2.03125,6.40625 0.78125,3.59375 0.46875,7.34375 -11.875,0.3125 -19.21875,0.46875 -7.1875,0.15625 -11.25,0.15625 h -7.03125 -5.3125 q -2.8125,0 -7.34375,0.15625 -4.53125,0.15625 -11.09375,0.46875 0.78125,6.25 3.90625,9.6875 3.28125,3.28125 6.875,5 4.0625,1.875 8.90625,2.1875 z m -14.0625,-28.125 q 5,0.3125 8.28125,0.46875 3.4375,0.15625 5.625,0.3125 2.34375,0.15625 3.75,0.15625 h 3.90625 q 3.90625,0 14.53125,-0.46875 -0.46875,-6.875 -2.96875,-10.46875 -2.34375,-3.59375 -5,-5.3125 -3.125,-1.875 -6.875,-2.1875 -10.15625,0.15625 -15.15625,4.21875 -4.84375,4.0625 -6.09375,13.28125 z"
         style="font-style:normal;font-variant:normal;font-weight:normal;font-stretch:normal;font-size:160px;font-family:'Lakki Reddy';-inkscape-font-specification:'Lakki Reddy';fill:#ffffff;fill-opacity:1"
         id="path88"
         inkscape:connector-curvature="0" />
      <path
         d="m -926.36328,673.41299 q 2.65625,0.46875 5.46875,0.78125 2.65625,0.15625 4.84375,0.3125 2.5,0.15625 4.84375,0.15625 2.34375,0 5.3125,-0.15625 2.5,-0.15625 5.9375,-0.46875 3.59375,-0.3125 7.8125,-0.9375 -2.5,1.40625 -3.90625,2.96875 -1.40625,1.5625 -2.1875,2.8125 -0.9375,1.5625 -1.25,2.8125 -0.3125,1.25 0.15625,5.15625 0.46875,3.90625 1.25,9.0625 0.9375,5.15625 2.03125,10.78125 1.09375,5.625 2.1875,10.3125 1.25,4.6875 2.1875,7.8125 1.09375,3.125 1.71875,2.96875 0.625,0 1.875,-3.125 1.40625,-3.125 3.125,-7.65625 1.71875,-4.6875 3.59375,-10.15625 1.875,-5.625 3.28125,-10.46875 1.40625,-4.84375 2.1875,-8.125 0.9375,-3.4375 0.78125,-4.0625 -0.46875,-0.625 -1.09375,-1.71875 -1.09375,-1.71875 -4.84375,-5.9375 4.53125,0.3125 7.8125,0.625 3.28125,0.15625 5.3125,0.46875 2.34375,0.3125 3.75,0.46875 1.40625,0.15625 4.0625,0 2.1875,0 5.78125,-0.15625 3.75,-0.3125 9.21875,-0.9375 -4.0625,2.34375 -6.71875,4.21875 -2.5,1.71875 -3.90625,2.96875 -1.71875,1.5625 -2.5,2.65625 -1.09375,2.03125 -3.90625,9.6875 -1.25,3.28125 -3.125,8.125 -1.71875,4.84375 -4.21875,11.71875 -2.34375,6.71875 -5.625,15.78125 -3.28125,9.0625 -7.34375,20.78125 l -15.15625,1.5625 q -2.96875,-9.84375 -4.84375,-16.40625 -1.71875,-6.71875 -2.8125,-10.78125 -1.25,-4.6875 -1.875,-7.34375 -0.78125,-2.96875 -1.875,-8.59375 -1.09375,-5.78125 -2.1875,-11.71875 -1.09375,-5.9375 -2.1875,-10.625 -1.09375,-4.84375 -1.71875,-5.9375 -0.625,-0.78125 -2.1875,-2.1875 -1.25,-1.25 -3.4375,-2.96875 -2.1875,-1.875 -5.625,-4.53125 z"
         style="font-style:normal;font-variant:normal;font-weight:normal;font-stretch:normal;font-size:160px;font-family:'Lakki Reddy';-inkscape-font-specification:'Lakki Reddy';fill:#ffffff;fill-opacity:1"
         id="path90"
         inkscape:connector-curvature="0" />
      <path
         d="m -852.92578,689.66299 28.75,0.3125 q -2.5,9.53125 -3.75,16.25 -1.09375,6.71875 -1.40625,11.25 -0.625,5.15625 -0.3125,8.75 0.46875,3.28125 1.5625,7.03125 0.9375,3.125 2.8125,7.1875 1.875,4.0625 5,8.125 -1.875,-0.625 -4.0625,-0.9375 -2.1875,-0.3125 -4.0625,-0.46875 -2.1875,-0.15625 -4.375,0 -2.1875,0.15625 -4.84375,0.46875 -2.1875,0.3125 -5.3125,0.78125 -3.125,0.46875 -6.5625,1.25 2.34375,-7.03125 3.59375,-12.1875 1.40625,-5.15625 2.03125,-8.59375 0.625,-4.0625 0.78125,-6.5625 0,-3.125 0,-7.03125 0,-4.0625 0,-7.8125 0,-3.75 -0.15625,-6.5625 -0.15625,-2.96875 -0.625,-3.75 l -1.5625,-1.5625 q -0.9375,-0.78125 -2.8125,-2.1875 -1.71875,-1.5625 -4.6875,-3.75 z m 11.09375,-24.0625 q 3.28125,-1.71875 6.5625,-0.9375 3.4375,0.78125 5.3125,2.96875 1.875,2.1875 1.25,5.15625 -0.46875,2.96875 -5,5.78125 -4.53125,2.65625 -7.96875,1.875 -3.4375,-0.78125 -4.84375,-3.28125 -1.40625,-2.5 -0.46875,-5.78125 0.9375,-3.4375 5.15625,-5.78125 z"
         style="font-style:normal;font-variant:normal;font-weight:normal;font-stretch:normal;font-size:160px;font-family:'Lakki Reddy';-inkscape-font-specification:'Lakki Reddy';fill:#ffffff;fill-opacity:1"
         id="path92"
         inkscape:connector-curvature="0" />
      <path
         d="m -816.36328,661.06924 q 4.6875,0.46875 7.8125,0.78125 3.28125,0.3125 5.3125,0.46875 2.34375,0.15625 3.75,0.15625 1.40625,0.15625 3.75,0 2.03125,-0.15625 5.3125,-0.3125 3.28125,-0.3125 8.28125,-0.9375 -1.09375,1.5625 -1.71875,2.8125 -0.625,1.09375 -1.09375,2.03125 l -0.9375,1.875 q -0.3125,0.9375 -0.625,1.875 -0.3125,0.78125 -0.625,1.875 -0.15625,1.09375 -0.3125,2.34375 h 24.0625 l -2.1875,12.65625 -22.03125,-1.25 q -0.78125,7.96875 -1.09375,12.34375 -0.3125,4.375 -0.625,6.40625 l -0.3125,2.8125 q -0.46875,5.9375 -0.9375,12.96875 -0.46875,6.875 -0.3125,12.8125 0.15625,5.9375 1.09375,10 0.9375,3.90625 3.28125,3.90625 2.34375,0 4.375,-1.25 2.03125,-1.25 3.4375,-2.96875 1.5625,-1.71875 2.34375,-3.4375 0.78125,-1.875 0.78125,-2.8125 0,-0.9375 -0.46875,-2.1875 -0.78125,-2.34375 -2.8125,-5.9375 4.53125,1.09375 7.96875,2.1875 1.71875,0.625 3.125,1.25 1.5625,0.625 3.59375,1.40625 1.71875,0.78125 4.375,1.875 2.65625,1.09375 6.25,2.65625 -3.4375,0.625 -5,2.03125 -0.9375,0.625 -1.40625,1.40625 -1.09375,1.71875 -2.5,4.6875 -1.40625,2.8125 -4.21875,5.625 -2.8125,2.8125 -7.65625,5 -4.6875,2.1875 -12.65625,2.5 -8.28125,0.3125 -12.65625,-2.8125 -4.21875,-3.125 -6.25,-7.1875 -1.875,-4.21875 -2.1875,-8.28125 -0.3125,-4.0625 -0.46875,-5.46875 -0.15625,-1.40625 0,-7.03125 0.15625,-5.625 0.46875,-12.34375 0.3125,-6.875 0.625,-13.125 0.3125,-6.40625 0.3125,-9.375 0,-1.5625 0.15625,-3.28125 0,-1.40625 0,-2.96875 0.15625,-1.71875 0.15625,-3.28125 l -22.65625,-0.15625 -0.9375,-8.90625 22.8125,0.625 q -0.3125,-1.71875 -0.78125,-3.125 -0.3125,-1.5625 -0.625,-2.5 -0.46875,-1.09375 -0.9375,-1.875 -0.625,-0.78125 -1.40625,-1.71875 -0.78125,-0.78125 -2.03125,-2.03125 -1.25,-1.25 -2.96875,-2.8125 z"
         style="font-style:normal;font-variant:normal;font-weight:normal;font-stretch:normal;font-size:160px;font-family:'Lakki Reddy';-inkscape-font-specification:'Lakki Reddy';fill:#ffffff;fill-opacity:1"
         id="path94"
         inkscape:connector-curvature="0" />
      <path
         d="m -748.08203,696.22549 q 0.78125,-0.9375 0.9375,-3.4375 0.3125,-2.65625 1.25,-5.9375 1.09375,-3.28125 3.59375,-6.875 2.5,-3.59375 8.125,-6.71875 5.46875,-3.125 10.625,-3.75 5.15625,-0.625 9.84375,0.46875 4.6875,1.09375 8.75,3.4375 4.21875,2.34375 7.65625,5.15625 2.34375,1.875 3.75,5.46875 1.40625,3.4375 2.1875,7.8125 0.78125,4.375 1.09375,9.21875 0.46875,4.6875 0.625,9.21875 0.15625,4.375 0.15625,8.125 0.15625,3.59375 0.625,5.9375 0.625,3.4375 2.1875,5.9375 1.5625,2.34375 3.4375,4.0625 1.875,1.5625 3.75,2.5 1.875,0.9375 3.28125,1.40625 0.9375,0.46875 1.71875,0.625 1.5625,0.625 2.1875,0 -0.9375,2.1875 -1.71875,3.75 -0.78125,1.5625 -1.25,2.65625 -0.625,1.25 -1.09375,2.03125 -0.46875,0.9375 -1.09375,1.71875 -0.46875,0.78125 -1.25,1.71875 -0.78125,0.9375 -1.5625,2.03125 -2.03125,-0.78125 -3.90625,-1.875 -1.71875,-1.09375 -3.125,-2.03125 -1.71875,-1.09375 -3.125,-2.1875 -1.40625,-1.09375 -2.65625,-2.5 -1.09375,-1.25 -2.34375,-2.65625 -1.09375,-1.40625 -1.875,-3.125 -0.9375,2.03125 -4.53125,5.78125 -3.4375,3.75 -9.0625,6.875 -5.625,2.96875 -13.125,4.21875 -7.34375,1.25 -16.25,-1.71875 -3.90625,-1.25 -7.34375,-3.59375 -3.4375,-2.5 -5.9375,-5.9375 -2.34375,-3.4375 -3.4375,-7.8125 -0.9375,-4.53125 0.15625,-10 1.09375,-5.46875 3.90625,-9.21875 2.8125,-3.75 6.71875,-6.09375 3.90625,-2.34375 8.75,-3.59375 4.84375,-1.25 10,-1.71875 4.0625,-0.15625 8.125,0.46875 3.4375,0.625 7.1875,2.34375 3.75,1.5625 6.40625,4.84375 -0.15625,-8.28125 -0.625,-13.125 -0.3125,-5 -0.625,-7.65625 -0.625,-3.125 -1.09375,-4.375 -0.78125,-1.09375 -1.71875,-2.5 -0.78125,-1.40625 -2.03125,-2.5 -1.25,-1.25 -3.125,-2.03125 -1.875,-0.78125 -4.375,-0.625 -2.65625,0.15625 -4.21875,1.40625 -1.5625,1.25 -2.5,2.96875 -0.78125,1.5625 -0.9375,3.4375 -0.15625,1.875 0.15625,3.28125 0.3125,0.9375 0.9375,2.03125 0.625,0.9375 1.71875,2.03125 1.09375,1.09375 2.96875,1.875 -3.59375,0.46875 -6.40625,0.78125 -2.8125,0.15625 -4.84375,0.46875 -2.34375,0.3125 -4.0625,0.46875 -1.71875,0.15625 -4.0625,0.625 -2.03125,0.3125 -5,0.78125 -2.96875,0.46875 -6.875,1.25 0.9375,-1.09375 1.71875,-2.03125 0.78125,-1.09375 1.40625,-1.875 0.625,-0.9375 1.25,-1.71875 z m 23.4375,18.59375 q -2.8125,0.15625 -5.625,1.40625 -2.8125,1.09375 -5,3.28125 -2.1875,2.03125 -3.75,4.84375 -1.40625,2.65625 -1.40625,5.9375 0,3.28125 1.5625,5.78125 1.71875,2.34375 4.375,3.90625 2.8125,1.5625 5.9375,1.875 3.28125,0.3125 6.40625,-0.625 2.96875,-1.09375 5.625,-3.4375 2.65625,-2.5 4.53125,-5.3125 1.875,-2.96875 2.65625,-5.78125 0.78125,-2.96875 0.15625,-4.84375 -1.25,-4.0625 -5.625,-5.625 -4.375,-1.71875 -9.84375,-1.40625 z"
         style="font-style:normal;font-variant:normal;font-weight:normal;font-stretch:normal;font-size:160px;font-family:'Lakki Reddy';-inkscape-font-specification:'Lakki Reddy';fill:#ffffff;fill-opacity:1"
         id="path96"
         inkscape:connector-curvature="0" />
      <path
         d="m -675.73828,661.06924 q 4.6875,0.46875 7.8125,0.78125 3.28125,0.3125 5.3125,0.46875 2.34375,0.15625 3.75,0.15625 1.40625,0.15625 3.75,0 2.03125,-0.15625 5.3125,-0.3125 3.28125,-0.3125 8.28125,-0.9375 -1.09375,1.5625 -1.71875,2.8125 -0.625,1.09375 -1.09375,2.03125 l -0.9375,1.875 q -0.3125,0.9375 -0.625,1.875 -0.3125,0.78125 -0.625,1.875 -0.15625,1.09375 -0.3125,2.34375 h 24.0625 l -2.1875,12.65625 -22.03125,-1.25 q -0.78125,7.96875 -1.09375,12.34375 -0.3125,4.375 -0.625,6.40625 l -0.3125,2.8125 q -0.46875,5.9375 -0.9375,12.96875 -0.46875,6.875 -0.3125,12.8125 0.15625,5.9375 1.09375,10 0.9375,3.90625 3.28125,3.90625 2.34375,0 4.375,-1.25 2.03125,-1.25 3.4375,-2.96875 1.5625,-1.71875 2.34375,-3.4375 0.78125,-1.875 0.78125,-2.8125 0,-0.9375 -0.46875,-2.1875 -0.78125,-2.34375 -2.8125,-5.9375 4.53125,1.09375 7.96875,2.1875 1.71875,0.625 3.125,1.25 1.5625,0.625 3.59375,1.40625 1.71875,0.78125 4.375,1.875 2.65625,1.09375 6.25,2.65625 -3.4375,0.625 -5,2.03125 -0.9375,0.625 -1.40625,1.40625 -1.09375,1.71875 -2.5,4.6875 -1.40625,2.8125 -4.21875,5.625 -2.8125,2.8125 -7.65625,5 -4.6875,2.1875 -12.65625,2.5 -8.28125,0.3125 -12.65625,-2.8125 -4.21875,-3.125 -6.25,-7.1875 -1.875,-4.21875 -2.1875,-8.28125 -0.3125,-4.0625 -0.46875,-5.46875 -0.15625,-1.40625 0,-7.03125 0.15625,-5.625 0.46875,-12.34375 0.3125,-6.875 0.625,-13.125 0.3125,-6.40625 0.3125,-9.375 0,-1.5625 0.15625,-3.28125 0,-1.40625 0,-2.96875 0.15625,-1.71875 0.15625,-3.28125 l -22.65625,-0.15625 -0.9375,-8.90625 22.8125,0.625 q -0.3125,-1.71875 -0.78125,-3.125 -0.3125,-1.5625 -0.625,-2.5 -0.46875,-1.09375 -0.9375,-1.875 -0.625,-0.78125 -1.40625,-1.71875 -0.78125,-0.78125 -2.03125,-2.03125 -1.25,-1.25 -2.96875,-2.8125 z"
         style="font-style:normal;font-variant:normal;font-weight:normal;font-stretch:normal;font-size:160px;font-family:'Lakki Reddy';-inkscape-font-specification:'Lakki Reddy';fill:#ffffff;fill-opacity:1"
         id="path98"
         inkscape:connector-curvature="0" />
      <path
         d="m -619.17578,689.66299 28.75,0.3125 q -2.5,9.53125 -3.75,16.25 -1.09375,6.71875 -1.40625,11.25 -0.625,5.15625 -0.3125,8.75 0.46875,3.28125 1.5625,7.03125 0.9375,3.125 2.8125,7.1875 1.875,4.0625 5,8.125 -1.875,-0.625 -4.0625,-0.9375 -2.1875,-0.3125 -4.0625,-0.46875 -2.1875,-0.15625 -4.375,0 -2.1875,0.15625 -4.84375,0.46875 -2.1875,0.3125 -5.3125,0.78125 -3.125,0.46875 -6.5625,1.25 2.34375,-7.03125 3.59375,-12.1875 1.40625,-5.15625 2.03125,-8.59375 0.625,-4.0625 0.78125,-6.5625 0,-3.125 0,-7.03125 0,-4.0625 0,-7.8125 0,-3.75 -0.15625,-6.5625 -0.15625,-2.96875 -0.625,-3.75 l -1.5625,-1.5625 q -0.9375,-0.78125 -2.8125,-2.1875 -1.71875,-1.5625 -4.6875,-3.75 z m 11.09375,-24.0625 q 3.28125,-1.71875 6.5625,-0.9375 3.4375,0.78125 5.3125,2.96875 1.875,2.1875 1.25,5.15625 -0.46875,2.96875 -5,5.78125 -4.53125,2.65625 -7.96875,1.875 -3.4375,-0.78125 -4.84375,-3.28125 -1.40625,-2.5 -0.46875,-5.78125 0.9375,-3.4375 5.15625,-5.78125 z"
         style="font-style:normal;font-variant:normal;font-weight:normal;font-stretch:normal;font-size:160px;font-family:'Lakki Reddy';-inkscape-font-specification:'Lakki Reddy';fill:#ffffff;fill-opacity:1"
         id="path100"
         inkscape:connector-curvature="0" />
      <path
         d="m -538.86328,689.50674 q 4.0625,0 8.4375,1.5625 4.375,1.40625 8.4375,3.75 4.0625,2.1875 7.34375,4.84375 3.4375,2.5 5.625,4.84375 3.90625,4.21875 5.3125,11.40625 1.5625,7.03125 0.625,14.53125 -0.9375,7.34375 -4.375,13.90625 -3.4375,6.5625 -9.53125,9.6875 -4.375,2.1875 -8.59375,3.4375 -4.21875,1.25 -8.125,1.875 -3.90625,0.625 -7.34375,0.625 -3.4375,0 -5.9375,-0.15625 -4.6875,-0.3125 -9.84375,-3.28125 -5,-2.96875 -9.53125,-7.34375 -4.375,-4.375 -7.5,-9.53125 -3.125,-5.3125 -3.75,-10 -0.9375,-6.40625 -0.3125,-13.4375 0.625,-7.03125 4.53125,-12.96875 4.0625,-5.9375 12.1875,-9.84375 8.28125,-3.90625 22.34375,-3.90625 z m -5.15625,60.625 q 1.71875,0.3125 4.6875,-0.78125 2.96875,-1.25 5.78125,-3.90625 2.96875,-2.65625 5.15625,-6.71875 2.34375,-4.21875 2.8125,-10.15625 0.46875,-5.78125 0,-10.625 -0.3125,-4.84375 -1.40625,-8.4375 -1.09375,-3.75 -2.5,-6.09375 -1.40625,-2.34375 -2.96875,-3.28125 -2.65625,-1.40625 -6.40625,-2.1875 -3.75,-0.9375 -6.40625,0.3125 -1.25,0.625 -3.125,2.65625 -1.875,2.03125 -3.75,5.15625 -1.875,2.96875 -3.4375,6.875 -1.40625,3.90625 -2.03125,8.125 -0.625,4.21875 -0.3125,9.0625 0.46875,4.84375 2.03125,9.21875 1.5625,4.21875 4.375,7.34375 2.96875,2.96875 7.5,3.4375 z"
         style="font-style:normal;font-variant:normal;font-weight:normal;font-stretch:normal;font-size:160px;font-family:'Lakki Reddy';-inkscape-font-specification:'Lakki Reddy';fill:#ffffff;fill-opacity:1"
         id="path102"
         inkscape:connector-curvature="0" />
      <path
         d="m -490.58203,742.31924 q 1.09375,-5.15625 1.5625,-9.0625 0.625,-4.0625 0.9375,-6.71875 0.3125,-3.125 0.3125,-5.3125 -0.15625,-2.65625 -0.3125,-6.25 0,-3.75 -0.3125,-7.34375 -0.15625,-3.75 -0.46875,-6.5625 -0.3125,-2.96875 -0.78125,-4.21875 -0.625,-1.25 -1.71875,-2.65625 -2.1875,-2.65625 -6.40625,-5.15625 3.59375,-0.78125 6.09375,-1.25 2.65625,-0.625 4.375,-1.09375 1.875,-0.625 3.28125,-1.09375 1.25,-0.46875 2.96875,-0.9375 1.40625,-0.3125 3.4375,-0.78125 2.03125,-0.46875 4.6875,-1.09375 l -0.46875,14.21875 q 5,-5.9375 10.15625,-8.90625 5.15625,-2.96875 9.6875,-4.21875 5.15625,-1.5625 10.15625,-1.5625 6.25,0.3125 11.5625,2.03125 5.46875,1.71875 9.375,4.0625 4.0625,2.1875 6.5625,4.6875 2.5,2.5 2.96875,4.375 1.875,6.09375 0.9375,11.25 -0.9375,5 -2.5,9.84375 -1.40625,4.6875 -2.5,9.375 -0.9375,4.6875 0.78125,10.15625 0.625,1.40625 1.25,2.8125 0.625,1.25 1.5625,2.5 0.9375,1.25 2.1875,2.03125 -1.71875,-0.15625 -3.4375,-0.15625 -1.71875,-0.15625 -3.125,-0.3125 -1.71875,-0.15625 -3.125,-0.3125 -1.5625,-0.15625 -4.21875,-0.15625 -4.53125,0 -14.0625,0.46875 1.40625,-3.28125 2.1875,-5.46875 0.9375,-2.34375 1.5625,-3.75 0.625,-1.71875 0.9375,-2.65625 1.875,-4.53125 2.1875,-10.3125 0.46875,-5.78125 -0.78125,-11.71875 -0.46875,-2.03125 -1.5625,-4.84375 -1.09375,-2.8125 -2.96875,-5.46875 -1.71875,-2.65625 -4.21875,-4.53125 -2.34375,-1.875 -5.46875,-2.1875 -3.125,-0.3125 -7.03125,1.5625 -3.75,1.875 -8.125,6.875 -3.28125,4.21875 -5.15625,10.3125 -1.71875,5.15625 -2.34375,12.96875 -0.625,7.65625 1.875,17.96875 -2.1875,-0.3125 -4.0625,-0.3125 -1.875,-0.15625 -3.125,-0.3125 -1.5625,-0.15625 -2.8125,-0.3125 -1.40625,0 -3.125,-0.15625 -1.5625,0 -3.90625,0 -2.34375,-0.15625 -5.46875,-0.3125 z"
         style="font-style:normal;font-variant:normal;font-weight:normal;font-stretch:normal;font-size:160px;font-family:'Lakki Reddy';-inkscape-font-specification:'Lakki Reddy';fill:#ffffff;fill-opacity:1"
         id="path104"
         inkscape:connector-curvature="0" />
    </g>
    <g
       aria-label="Airblast"
       transform="matrix(0.09658719,0,0,0.09658719,-201.1863,96.285877)"
       style="font-style:normal;font-weight:normal;font-size:40px;line-height:125%;font-family:sans-serif;letter-spacing:0px;word-spacing:0px;fill:#ffffff;fill-opacity:1;stroke:none;stroke-width:1px;stroke-linecap:butt;stroke-linejoin:miter;stroke-opacity:1"
       id="flowRoot934">
      <path
         d="m -1070.582,653.72549 q 7.8125,0.46875 13.125,0.78125 5.4687,0.15625 9.0625,0.3125 4.0625,0.15625 6.875,0 2.8125,-0.15625 7.6562,-0.78125 4.0625,-0.46875 10.7813,-1.40625 6.875,-1.09375 17.0312,-2.8125 -3.5937,3.59375 -5.625,6.5625 -1.875,2.8125 -2.9687,4.84375 -1.25,2.5 -1.7188,4.21875 -0.3125,1.5625 0.625,7.8125 0.9375,6.25 2.6563,14.84375 1.7187,8.4375 3.75,18.125 2.0312,9.53125 4.0625,17.96875 2.0312,8.28125 3.5937,14.21875 1.71877,5.78125 2.50002,6.875 2.34375,3.28125 2.96875,4.375 0.625,0.9375 2.1875,1.71875 0.625,0.3125 2.03125,0.9375 1.25,0.625 3.28125,1.5625 2.1875,0.9375 5.46875,2.1875 -6.09375,0.3125 -10.46875,0.46875 -4.375,0 -7.18747,0.15625 -3.2813,0.15625 -5.625,0.3125 -2.3438,0 -5.625,0.3125 -2.8125,0.3125 -7.3438,0.625 -4.375,0.3125 -10.3125,0.625 3.125,-2.1875 5,-3.90625 2.0313,-1.875 3.125,-3.125 1.25,-1.5625 1.7188,-2.8125 0.3125,-1.40625 0.4687,-4.21875 0.1563,-2.5 0,-6.5625 -0.1562,-4.21875 -0.7812,-10.9375 l -41.0938,4.21875 q -1.5625,2.65625 -2.3437,4.6875 -0.7813,1.875 -1.0938,3.28125 -0.4687,1.71875 -0.3125,2.8125 0.3125,1.25 1.0938,2.96875 0.7812,1.5625 2.1875,3.75 1.5625,2.03125 4.5312,4.84375 -3.9062,-0.15625 -7.9687,-0.15625 -4.0625,0 -7.5,0.15625 -4.0625,0.15625 -7.9688,0.3125 -3.9062,0.15625 -8.9062,0.46875 -4.2188,0.3125 -9.8438,0.78125 -5.7812,0.3125 -12.3437,0.9375 4.0625,-1.875 6.875,-3.75 2.8125,-2.03125 4.6875,-3.75 2.1875,-1.875 3.75,-3.59375 1.0937,-1.5625 4.375,-7.1875 3.2812,-5.78125 7.3437,-13.59375 4.2188,-7.8125 8.75,-16.71875 4.6875,-8.90625 8.4375,-16.71875 3.75,-7.96875 6.0938,-13.75 2.3437,-5.78125 2.3437,-7.5 -0.3125,-2.03125 -1.5625,-4.53125 -1.0937,-2.1875 -3.4375,-5 -2.1875,-2.8125 -6.4062,-6.25 z m 48.4375,61.71875 q -0.9375,-5.46875 -1.7188,-9.375 -0.7812,-4.0625 -1.25,-6.71875 -0.625,-3.125 -0.9375,-5.46875 -0.4687,-2.1875 -1.0937,-5.625 -0.625,-2.96875 -1.5625,-7.34375 -0.7813,-4.53125 -2.0313,-10.78125 -8.9062,17.8125 -13.9062,27.65625 -4.8438,9.6875 -7.0313,14.21875 -2.6562,5.3125 -2.9687,6.25 z"
         style="font-style:normal;font-variant:normal;font-weight:normal;font-stretch:normal;font-size:160px;font-family:'Lakki Reddy';-inkscape-font-specification:'Lakki Reddy';fill:#ffffff;fill-opacity:1"
         id="path124"
         inkscape:connector-curvature="0" />
      <path
         d="m -988.86328,689.66299 28.75,0.3125 q -2.5,9.53125 -3.75,16.25 -1.09375,6.71875 -1.40625,11.25 -0.625,5.15625 -0.3125,8.75 0.46875,3.28125 1.5625,7.03125 0.9375,3.125 2.8125,7.1875 1.875,4.0625 5,8.125 -1.875,-0.625 -4.0625,-0.9375 -2.1875,-0.3125 -4.0625,-0.46875 -2.1875,-0.15625 -4.375,0 -2.1875,0.15625 -4.84375,0.46875 -2.1875,0.3125 -5.3125,0.78125 -3.125,0.46875 -6.5625,1.25 2.34375,-7.03125 3.59375,-12.1875 1.40625,-5.15625 2.03125,-8.59375 0.625,-4.0625 0.78125,-6.5625 0,-3.125 0,-7.03125 0,-4.0625 0,-7.8125 0,-3.75 -0.15625,-6.5625 -0.15625,-2.96875 -0.625,-3.75 l -1.5625,-1.5625 q -0.9375,-0.78125 -2.8125,-2.1875 -1.71875,-1.5625 -4.6875,-3.75 z m 11.09375,-24.0625 q 3.28125,-1.71875 6.5625,-0.9375 3.4375,0.78125 5.3125,2.96875 1.875,2.1875 1.25,5.15625 -0.46875,2.96875 -5,5.78125 -4.53125,2.65625 -7.96875,1.875 -3.4375,-0.78125 -4.84375,-3.28125 -1.40625,-2.5 -0.46875,-5.78125 0.9375,-3.4375 5.15625,-5.78125 z"
         style="font-style:normal;font-variant:normal;font-weight:normal;font-stretch:normal;font-size:160px;font-family:'Lakki Reddy';-inkscape-font-specification:'Lakki Reddy';fill:#ffffff;fill-opacity:1"
         id="path126"
         inkscape:connector-curvature="0" />
      <path
         d="m -951.98828,684.66299 q 2.96875,0.15625 5.3125,0.15625 2.5,-0.15625 4.21875,-0.3125 2.03125,-0.15625 3.59375,-0.3125 2.34375,-0.3125 4.84375,-0.78125 2.1875,-0.3125 4.53125,-0.78125 2.5,-0.625 4.84375,-1.40625 -0.9375,2.34375 -1.5625,4.0625 -0.625,1.71875 -0.9375,2.96875 -0.46875,1.40625 -0.46875,2.34375 -0.15625,1.09375 -0.15625,2.65625 -0.15625,2.65625 0,8.59375 8.125,-7.03125 13.59375,-10.9375 5.625,-3.90625 8.90625,-6.09375 3.90625,-2.5 6.09375,-3.28125 5.78125,-0.9375 10.15625,2.65625 1.875,1.5625 3.59375,4.21875 1.71875,2.5 2.96875,6.71875 1.25,4.21875 1.875,10.15625 0.625,5.78125 0.15625,13.90625 -3.28125,0.3125 -5.9375,0.625 -2.5,0.3125 -4.21875,0.46875 -2.03125,0.3125 -3.75,0.3125 l -4.21875,0.46875 q -2.1875,0.3125 -5.46875,0.625 -3.125,0.15625 -7.65625,0.625 6.5625,-5.3125 8.4375,-9.21875 2.03125,-4.0625 1.71875,-6.71875 -0.3125,-2.96875 -2.8125,-5.15625 -2.96875,-1.71875 -6.40625,-1.25 -2.96875,0.3125 -6.875,2.65625 -3.90625,2.34375 -8.28125,8.75 0.3125,10 0.625,16.5625 0.46875,6.5625 0.78125,10.625 0.46875,4.6875 0.78125,7.34375 0.46875,2.34375 1.875,5 1.09375,2.1875 3.125,4.84375 2.03125,2.65625 5.3125,5.3125 -6.875,-0.3125 -11.25,0 -2.65625,0.15625 -4.6875,0.3125 -2.1875,0.3125 -4.6875,0.625 -2.1875,0.3125 -5.15625,0.625 -2.8125,0.46875 -6.25,0.9375 1.25,-1.71875 2.03125,-4.0625 0.78125,-2.1875 1.25,-4.21875 0.625,-2.34375 0.9375,-4.84375 0.15625,-2.1875 0.15625,-6.5625 0.15625,-4.375 -0.15625,-9.84375 -0.15625,-5.625 -0.46875,-11.5625 -0.3125,-6.09375 -0.78125,-11.40625 -0.46875,-5.3125 -1.09375,-9.21875 -0.46875,-4.0625 -1.09375,-5.625 -0.78125,-1.875 -1.875,-3.75 -0.9375,-1.71875 -2.34375,-3.59375 -1.40625,-2.03125 -3.125,-4.21875 z"
         style="font-style:normal;font-variant:normal;font-weight:normal;font-stretch:normal;font-size:160px;font-family:'Lakki Reddy';-inkscape-font-specification:'Lakki Reddy';fill:#ffffff;fill-opacity:1"
         id="path128"
         inkscape:connector-curvature="0" />
      <path
         d="m -873.86328,649.81924 q 3.59375,0.9375 6.5625,1.40625 3.125,0.3125 5.3125,0.46875 2.65625,0.15625 4.84375,0.15625 2.1875,0 5.46875,-0.3125 5.78125,-0.46875 16.40625,-2.34375 -1.71875,1.25 -3.28125,2.5 -1.40625,1.09375 -2.5,2.1875 l -2.34375,2.34375 q -2.03125,2.8125 -4.0625,9.53125 -1.71875,5.78125 -3.75,16.25 -1.875,10.46875 -3.4375,27.8125 7.65625,-7.5 14.375,-11.25 6.875,-3.90625 12.03125,-5.625 6.09375,-1.875 11.09375,-2.03125 6.40625,0.46875 11.09375,2.65625 4.84375,2.03125 8.125,5 3.4375,2.8125 5.46875,5.9375 2.1875,2.96875 3.28125,5.3125 0.625,1.5625 0.9375,5.78125 0.46875,4.0625 0.15625,9.375 -0.3125,5.3125 -1.71875,11.25 -1.25,5.78125 -4.21875,10.78125 -2.8125,4.84375 -7.5,8.125 -4.53125,3.28125 -11.40625,3.59375 -7.96875,0 -15.46875,-1.875 -6.40625,-1.5625 -13.59375,-5.46875 -7.03125,-4.0625 -12.03125,-11.5625 0,1.875 0,3.75 0,1.71875 0.15625,2.96875 0.15625,1.71875 0.3125,2.96875 0.15625,1.40625 0.78125,2.96875 0.46875,1.25 1.40625,3.125 1.09375,1.71875 2.8125,3.4375 -1.71875,-0.15625 -3.4375,-0.15625 -1.71875,-0.15625 -3.4375,0 -1.875,0.15625 -3.75,0.3125 -1.875,0.15625 -3.90625,0.46875 -1.71875,0.3125 -4.0625,0.78125 -2.34375,0.46875 -4.84375,1.09375 0.46875,-1.40625 0.78125,-4.0625 0.3125,-2.8125 0.625,-6.09375 0.46875,-3.4375 0.625,-7.1875 0.3125,-3.75 0.625,-7.5 0.625,-8.59375 1.09375,-18.75 0.46875,-15.78125 0.15625,-29.375 -0.15625,-5.78125 -0.625,-11.71875 -0.3125,-5.9375 -0.9375,-11.09375 -0.625,-5.3125 -1.71875,-9.375 -0.9375,-4.21875 -2.5,-6.5625 z m 20.3125,76.09375 q 2.5,4.53125 5.3125,7.8125 2.8125,3.125 5.625,5.3125 2.8125,2.1875 5.46875,3.4375 2.8125,1.25 5.3125,1.875 5.78125,1.5625 11.40625,0.3125 5.625,-1.5625 8.75,-6.25 3.125,-4.6875 4.84375,-10.625 0.78125,-2.8125 0.9375,-7.1875 0.3125,-4.375 -0.9375,-8.4375 -1.09375,-4.21875 -4.0625,-7.34375 -2.96875,-3.28125 -8.59375,-3.90625 -3.90625,0 -9.0625,2.1875 -4.53125,1.875 -10.78125,6.25 -6.25,4.21875 -14.21875,12.65625 z"
         style="font-style:normal;font-variant:normal;font-weight:normal;font-stretch:normal;font-size:160px;font-family:'Lakki Reddy';-inkscape-font-specification:'Lakki Reddy';fill:#ffffff;fill-opacity:1"
         id="path130"
         inkscape:connector-curvature="0" />
      <path
         d="m -777.14453,763.88174 q 1.5625,-2.34375 2.5,-4.375 0.9375,-2.03125 1.5625,-3.4375 0.625,-1.71875 0.9375,-3.125 0.15625,-0.9375 0.15625,-5.46875 0,-4.53125 -0.3125,-11.40625 -0.15625,-6.875 -0.46875,-15.46875 -0.15625,-8.59375 -0.625,-17.5 -0.3125,-8.90625 -0.78125,-17.34375 -0.3125,-8.4375 -0.625,-15.15625 -0.3125,-6.875 -0.625,-11.25 -0.3125,-4.375 -0.46875,-5 -0.3125,-0.9375 -1.09375,-1.875 -1.5625,-1.875 -5.3125,-3.59375 7.96875,-2.03125 12.1875,-3.28125 2.5,-0.625 4.375,-1.25 1.71875,-0.625 3.4375,-1.25 1.40625,-0.625 3.125,-1.40625 1.71875,-0.9375 3.125,-2.03125 -0.78125,4.53125 -1.25,8.75 -0.46875,4.21875 -0.78125,7.8125 -0.3125,4.0625 -0.3125,7.8125 -0.78125,7.65625 -0.9375,16.71875 0,8.90625 0.15625,18.125 0.15625,9.21875 0.625,17.96875 0.46875,8.75 0.9375,15.9375 0.625,7.03125 1.09375,12.03125 0.625,4.84375 0.9375,6.25 0.625,2.34375 1.25,4.53125 0.625,1.875 1.40625,3.90625 0.78125,2.1875 1.875,3.4375 h -15.15625 q -2.03125,0 -3.90625,0.15625 -1.71875,0.15625 -3.59375,0.3125 -1.875,0.15625 -3.4375,0.46875 z"
         style="font-style:normal;font-variant:normal;font-weight:normal;font-stretch:normal;font-size:160px;font-family:'Lakki Reddy';-inkscape-font-specification:'Lakki Reddy';fill:#ffffff;fill-opacity:1"
         id="path132"
         inkscape:connector-curvature="0" />
      <path
         d="m -733.70703,696.22549 q 0.78125,-0.9375 0.9375,-3.4375 0.3125,-2.65625 1.25,-5.9375 1.09375,-3.28125 3.59375,-6.875 2.5,-3.59375 8.125,-6.71875 5.46875,-3.125 10.625,-3.75 5.15625,-0.625 9.84375,0.46875 4.6875,1.09375 8.75,3.4375 4.21875,2.34375 7.65625,5.15625 2.34375,1.875 3.75,5.46875 1.40625,3.4375 2.1875,7.8125 0.78125,4.375 1.09375,9.21875 0.46875,4.6875 0.625,9.21875 0.15625,4.375 0.15625,8.125 0.15625,3.59375 0.625,5.9375 0.625,3.4375 2.1875,5.9375 1.5625,2.34375 3.4375,4.0625 1.875,1.5625 3.75,2.5 1.875,0.9375 3.28125,1.40625 0.9375,0.46875 1.71875,0.625 1.5625,0.625 2.1875,0 -0.9375,2.1875 -1.71875,3.75 -0.78125,1.5625 -1.25,2.65625 -0.625,1.25 -1.09375,2.03125 -0.46875,0.9375 -1.09375,1.71875 -0.46875,0.78125 -1.25,1.71875 -0.78125,0.9375 -1.5625,2.03125 -2.03125,-0.78125 -3.90625,-1.875 -1.71875,-1.09375 -3.125,-2.03125 -1.71875,-1.09375 -3.125,-2.1875 -1.40625,-1.09375 -2.65625,-2.5 -1.09375,-1.25 -2.34375,-2.65625 -1.09375,-1.40625 -1.875,-3.125 -0.9375,2.03125 -4.53125,5.78125 -3.4375,3.75 -9.0625,6.875 -5.625,2.96875 -13.125,4.21875 -7.34375,1.25 -16.25,-1.71875 -3.90625,-1.25 -7.34375,-3.59375 -3.4375,-2.5 -5.9375,-5.9375 -2.34375,-3.4375 -3.4375,-7.8125 -0.9375,-4.53125 0.15625,-10 1.09375,-5.46875 3.90625,-9.21875 2.8125,-3.75 6.71875,-6.09375 3.90625,-2.34375 8.75,-3.59375 4.84375,-1.25 10,-1.71875 4.0625,-0.15625 8.125,0.46875 3.4375,0.625 7.1875,2.34375 3.75,1.5625 6.40625,4.84375 -0.15625,-8.28125 -0.625,-13.125 -0.3125,-5 -0.625,-7.65625 -0.625,-3.125 -1.09375,-4.375 -0.78125,-1.09375 -1.71875,-2.5 -0.78125,-1.40625 -2.03125,-2.5 -1.25,-1.25 -3.125,-2.03125 -1.875,-0.78125 -4.375,-0.625 -2.65625,0.15625 -4.21875,1.40625 -1.5625,1.25 -2.5,2.96875 -0.78125,1.5625 -0.9375,3.4375 -0.15625,1.875 0.15625,3.28125 0.3125,0.9375 0.9375,2.03125 0.625,0.9375 1.71875,2.03125 1.09375,1.09375 2.96875,1.875 -3.59375,0.46875 -6.40625,0.78125 -2.8125,0.15625 -4.84375,0.46875 -2.34375,0.3125 -4.0625,0.46875 -1.71875,0.15625 -4.0625,0.625 -2.03125,0.3125 -5,0.78125 -2.96875,0.46875 -6.875,1.25 0.9375,-1.09375 1.71875,-2.03125 0.78125,-1.09375 1.40625,-1.875 0.625,-0.9375 1.25,-1.71875 z m 23.4375,18.59375 q -2.8125,0.15625 -5.625,1.40625 -2.8125,1.09375 -5,3.28125 -2.1875,2.03125 -3.75,4.84375 -1.40625,2.65625 -1.40625,5.9375 0,3.28125 1.5625,5.78125 1.71875,2.34375 4.375,3.90625 2.8125,1.5625 5.9375,1.875 3.28125,0.3125 6.40625,-0.625 2.96875,-1.09375 5.625,-3.4375 2.65625,-2.5 4.53125,-5.3125 1.875,-2.96875 2.65625,-5.78125 0.78125,-2.96875 0.15625,-4.84375 -1.25,-4.0625 -5.625,-5.625 -4.375,-1.71875 -9.84375,-1.40625 z"
         style="font-style:normal;font-variant:normal;font-weight:normal;font-stretch:normal;font-size:160px;font-family:'Lakki Reddy';-inkscape-font-specification:'Lakki Reddy';fill:#ffffff;fill-opacity:1"
         id="path134"
         inkscape:connector-curvature="0" />
      <path
         d="m -590.58203,670.28799 q -1.40625,3.4375 -2.5,6.25 -0.9375,2.8125 -1.71875,5 -0.78125,2.5 -1.40625,4.375 -0.625,2.1875 -1.40625,5 -0.78125,2.5 -2.03125,6.25 -1.09375,3.59375 -2.65625,8.59375 -1.25,-7.5 -4.53125,-11.875 -3.28125,-4.53125 -6.71875,-7.03125 -4.0625,-2.8125 -8.75,-4.0625 -8.4375,-1.40625 -12.1875,0.3125 -3.75,1.71875 -5,4.375 -0.625,1.09375 -1.40625,2.8125 -0.625,1.5625 -1.09375,3.28125 -0.3125,1.71875 -0.15625,3.4375 0.15625,1.71875 1.40625,2.8125 0.78125,0.78125 4.0625,2.1875 3.28125,1.25 7.8125,2.96875 4.6875,1.5625 9.84375,3.4375 5.3125,1.875 10,3.75 4.6875,1.875 8.125,3.75 3.4375,1.875 4.53125,3.4375 0.9375,1.5625 2.03125,4.21875 1.25,2.5 1.71875,5.625 0.625,2.96875 0.3125,6.25 -0.15625,3.125 -1.71875,6.25 -1.5625,3.125 -5,5.78125 -3.28125,2.65625 -8.90625,4.375 -6.5625,2.03125 -12.65625,1.09375 -6.09375,-0.9375 -11.25,-2.8125 -5,-1.875 -8.75,-3.59375 -3.75,-1.875 -5.3125,-1.5625 -1.71875,0.3125 -3.90625,1.71875 -2.1875,1.40625 -4.21875,2.96875 -1.875,1.40625 -3.28125,2.65625 -1.40625,1.09375 -1.40625,0.78125 0,-0.3125 0.46875,-1.875 0.625,-1.5625 1.25,-3.75 0.78125,-2.34375 1.40625,-5 0.78125,-2.8125 1.09375,-5.3125 0.3125,-2.03125 0.78125,-5 0.3125,-2.65625 0.78125,-6.40625 0.625,-3.90625 1.40625,-9.375 0.78125,4.0625 2.1875,7.03125 1.5625,2.96875 2.96875,5.15625 1.71875,2.5 3.28125,4.21875 2.34375,2.1875 5.46875,4.0625 3.28125,1.875 6.5625,3.28125 3.28125,1.25 6.25,1.5625 2.96875,0.3125 5,-0.625 2.03125,-0.9375 3.4375,-3.4375 1.5625,-2.5 2.1875,-5.46875 0.625,-2.96875 0.46875,-5.625 -0.15625,-2.8125 -1.40625,-4.53125 -0.9375,-1.09375 -4.375,-2.8125 -3.28125,-1.71875 -7.96875,-3.75 -4.53125,-2.03125 -9.6875,-4.21875 -5,-2.1875 -9.53125,-4.375 -4.375,-2.34375 -7.34375,-4.375 -2.8125,-2.1875 -3.125,-3.90625 -0.3125,-2.5 -0.46875,-5.46875 -0.15625,-3.125 0.3125,-6.09375 0.625,-3.125 2.1875,-5.9375 1.71875,-2.8125 5,-4.6875 2.1875,-1.25 5.78125,-1.875 3.59375,-0.625 7.96875,-0.625 4.375,-0.15625 9.0625,0.3125 4.6875,0.3125 8.90625,0.9375 4.375,0.46875 7.8125,1.25 3.59375,0.78125 5.46875,1.40625 2.1875,0.78125 4.6875,0.15625 2.1875,-0.46875 4.6875,-2.03125 2.5,-1.5625 5.15625,-5.625 z"
         style="font-style:normal;font-variant:normal;font-weight:normal;font-stretch:normal;font-size:160px;font-family:'Lakki Reddy';-inkscape-font-specification:'Lakki Reddy';fill:#ffffff;fill-opacity:1"
         id="path136"
         inkscape:connector-curvature="0" />
      <path
         d="m -586.67578,661.06924 q 4.6875,0.46875 7.8125,0.78125 3.28125,0.3125 5.3125,0.46875 2.34375,0.15625 3.75,0.15625 1.40625,0.15625 3.75,0 2.03125,-0.15625 5.3125,-0.3125 3.28125,-0.3125 8.28125,-0.9375 -1.09375,1.5625 -1.71875,2.8125 -0.625,1.09375 -1.09375,2.03125 l -0.9375,1.875 q -0.3125,0.9375 -0.625,1.875 -0.3125,0.78125 -0.625,1.875 -0.15625,1.09375 -0.3125,2.34375 h 24.0625 l -2.1875,12.65625 -22.03125,-1.25 q -0.78125,7.96875 -1.09375,12.34375 -0.3125,4.375 -0.625,6.40625 l -0.3125,2.8125 q -0.46875,5.9375 -0.9375,12.96875 -0.46875,6.875 -0.3125,12.8125 0.15625,5.9375 1.09375,10 0.9375,3.90625 3.28125,3.90625 2.34375,0 4.375,-1.25 2.03125,-1.25 3.4375,-2.96875 1.5625,-1.71875 2.34375,-3.4375 0.78125,-1.875 0.78125,-2.8125 0,-0.9375 -0.46875,-2.1875 -0.78125,-2.34375 -2.8125,-5.9375 4.53125,1.09375 7.96875,2.1875 1.71875,0.625 3.125,1.25 1.5625,0.625 3.59375,1.40625 1.71875,0.78125 4.375,1.875 2.65625,1.09375 6.25,2.65625 -3.4375,0.625 -5,2.03125 -0.9375,0.625 -1.40625,1.40625 -1.09375,1.71875 -2.5,4.6875 -1.40625,2.8125 -4.21875,5.625 -2.8125,2.8125 -7.65625,5 -4.6875,2.1875 -12.65625,2.5 -8.28125,0.3125 -12.65625,-2.8125 -4.21875,-3.125 -6.25,-7.1875 -1.875,-4.21875 -2.1875,-8.28125 -0.3125,-4.0625 -0.46875,-5.46875 -0.15625,-1.40625 0,-7.03125 0.15625,-5.625 0.46875,-12.34375 0.3125,-6.875 0.625,-13.125 0.3125,-6.40625 0.3125,-9.375 0,-1.5625 0.15625,-3.28125 0,-1.40625 0,-2.96875 0.15625,-1.71875 0.15625,-3.28125 l -22.65625,-0.15625 -0.9375,-8.90625 22.8125,0.625 q -0.3125,-1.71875 -0.78125,-3.125 -0.3125,-1.5625 -0.625,-2.5 -0.46875,-1.09375 -0.9375,-1.875 -0.625,-0.78125 -1.40625,-1.71875 -0.78125,-0.78125 -2.03125,-2.03125 -1.25,-1.25 -2.96875,-2.8125 z"
         style="font-style:normal;font-variant:normal;font-weight:normal;font-stretch:normal;font-size:160px;font-family:'Lakki Reddy';-inkscape-font-specification:'Lakki Reddy';fill:#ffffff;fill-opacity:1"
         id="path138"
         inkscape:connector-curvature="0" />
    </g>
    <flowRoot
       transform="matrix(0.15697879,0,0,0.15762873,-46.755768,123.48172)"
       style="font-style:normal;font-weight:normal;font-size:40px;line-height:125%;font-family:sans-serif;letter-spacing:0px;word-spacing:0px;fill:#000000;fill-opacity:1;stroke:none;stroke-width:1px;stroke-linecap:butt;stroke-linejoin:miter;stroke-opacity:1"
       id="flowRoot60"
       xml:space="preserve"><flowRegion
         id="flowRegion56"><rect
           y="504.78989"
           x="-1524.1063"
           height="88.648941"
           width="159.26758"
           id="rect54" /></flowRegion><flowPara
         style="font-style:normal;font-variant:normal;font-weight:800;font-stretch:normal;font-family:'Open Sans';-inkscape-font-specification:'Open Sans Ultra-Bold'"
         id="flowPara58">Ctrl</flowPara></flowRoot>    <flowRoot
       transform="matrix(0.09658719,0,0,0.09658719,-117.34858,159.78591)"
       style="font-style:normal;font-weight:normal;font-size:40px;line-height:125%;font-family:sans-serif;letter-spacing:0px;word-spacing:0px;fill:#aa00d4;fill-opacity:1;stroke:none;stroke-width:1px;stroke-linecap:butt;stroke-linejoin:miter;stroke-opacity:1"
       id="flowRoot68"
       xml:space="preserve"><flowRegion
         style="fill:#aa00d4"
         id="flowRegion64"><rect
           style="fill:#aa00d4;"
           y="723.47711"
           x="-1095.8944"
           height="186.5226"
           width="666.44788"
           id="rect62" /></flowRegion><flowPara
         style="font-style:normal;font-variant:normal;font-weight:normal;font-stretch:normal;font-size:160px;font-family:'Lakki Reddy';-inkscape-font-specification:'Lakki Reddy';fill:#aa00d4"
         id="flowPara66">Firebolt</flowPara></flowRoot>    <flowRoot
       xml:space="preserve"
       id="flowRoot76"
       style="font-style:normal;font-weight:normal;font-size:40px;line-height:125%;font-family:sans-serif;letter-spacing:0px;word-spacing:0px;fill:#aa00d4;fill-opacity:1;stroke:none;stroke-width:1px;stroke-linecap:butt;stroke-linejoin:miter;stroke-opacity:1"
       transform="matrix(0.09658719,0,0,0.09658719,-21.340879,159.78591)"><flowRegion
         style="fill:#aa00d4"
         id="flowRegion72"><rect
           style="fill:#aa00d4;"
           id="rect70"
           width="708.9458"
           height="186.52258"
           x="-1095.8944"
           y="723.47711" /></flowRegion><flowPara
         id="flowPara74"
         style="font-style:normal;font-variant:normal;font-weight:normal;font-stretch:normal;font-size:160px;font-family:'Lakki Reddy';-inkscape-font-specification:'Lakki Reddy';fill:#aa00d4">Levitation</flowPara></flowRoot>    <flowRoot
       xml:space="preserve"
       id="flowRoot84"
       style="font-style:normal;font-weight:normal;font-size:40px;line-height:125%;font-family:sans-serif;letter-spacing:0px;word-spacing:0px;fill:#aa00d4;fill-opacity:1;stroke:none;stroke-width:1px;stroke-linecap:butt;stroke-linejoin:miter;stroke-opacity:1"
       transform="matrix(0.09658719,0,0,0.09658719,-201.1863,159.78591)"><flowRegion
         style="fill:#aa00d4"
         id="flowRegion80"><rect
           style="fill:#aa00d4;"
           id="rect78"
           width="666.44788"
           height="186.5226"
           x="-1095.8944"
           y="723.47711" /></flowRegion><flowPara
         id="flowPara82"
         style="font-style:normal;font-variant:normal;font-weight:normal;font-stretch:normal;font-size:160px;font-family:'Lakki Reddy';-inkscape-font-specification:'Lakki Reddy';fill:#aa00d4">Airblast</flowPara></flowRoot>  </g>
</svg>
