<?xml version="1.0" encoding="UTF-8" standalone="no"?>
<!-- Created with Inkscape (http://www.inkscape.org/) -->

<svg
   xmlns:dc="http://purl.org/dc/elements/1.1/"
   xmlns:cc="http://creativecommons.org/ns#"
   xmlns:rdf="http://www.w3.org/1999/02/22-rdf-syntax-ns#"
   xmlns:svg="http://www.w3.org/2000/svg"
   xmlns="http://www.w3.org/2000/svg"
   xmlns:sodipodi="http://sodipodi.sourceforge.net/DTD/sodipodi-0.dtd"
   xmlns:inkscape="http://www.inkscape.org/namespaces/inkscape"
   width="49.689354"
   height="40.047623"
   viewBox="0 0 13.146974 10.595934"
   version="1.1"
   id="svg8"
   inkscape:version="0.92+devel (unknown)"
   sodipodi:docname="cow-icon.svg"
   inkscape:export-filename="/home/tom/Code/godot/thrown-back/game/hud/cow-icon.svg.png"
   inkscape:export-xdpi="90"
   inkscape:export-ydpi="90">
  <defs
     id="defs2" />
  <sodipodi:namedview
     id="base"
     pagecolor="#ffffff"
     bordercolor="#666666"
     borderopacity="1.0"
     inkscape:pageopacity="0.0"
     inkscape:pageshadow="2"
     inkscape:zoom="3.3024096"
     inkscape:cx="21.610695"
     inkscape:cy="-4.7704308"
     inkscape:document-units="px"
     inkscape:current-layer="layer1"
     showgrid="false"
     units="px"
     inkscape:window-width="1920"
     inkscape:window-height="1017"
     inkscape:window-x="0"
     inkscape:window-y="30"
     inkscape:window-maximized="1"
     inkscape:document-rotation="0" />
  <metadata
     id="metadata5">
    <rdf:RDF>
      <cc:Work
         rdf:about="">
        <dc:format>image/svg+xml</dc:format>
        <dc:type
           rdf:resource="http://purl.org/dc/dcmitype/StillImage" />
        <dc:title></dc:title>
      </cc:Work>
    </rdf:RDF>
  </metadata>
  <g
     inkscape:label="Layer 1"
     inkscape:groupmode="layer"
     id="layer1"
     transform="translate(-20.392945,-91.379956)">
    <path
       inkscape:connector-curvature="0"
       id="path845"
       d="m 26.924209,92.034518 c -1.506964,0.0018 -2.929978,0.694214 -3.862019,1.87838 -0.344194,-0.08814 -1.819472,0.06164 -2.529266,2.16499 0.768912,-0.134067 1.280266,-0.635627 1.806349,-0.89997 -0.222046,0.567339 -0.336866,1.170968 -0.338625,1.780211 5e-6,2.719199 2.204363,4.923541 4.923561,4.923521 2.719181,-10e-6 4.923514,-2.204341 4.92352,-4.923521 -5.02e-4,-0.620826 -0.118424,-1.235959 -0.347536,-1.81296 0.515123,0.27071 0.902533,0.748167 1.92519,1.188831 -0.297314,-2.314329 -2.38159,-2.480902 -2.625336,-2.409581 -0.932738,-1.192262 -2.362075,-1.88918 -3.875838,-1.889797 z"
       style="fill:#ffffff;fill-opacity:1;stroke:#000000;stroke-width:0.18847886;stroke-miterlimit:4;stroke-dasharray:none;stroke-opacity:1"
       sodipodi:nodetypes="cccccccccccc"
       inkscape:export-xdpi="90"
       inkscape:export-ydpi="90" />
    <path
       sodipodi:nodetypes="ccc"
       inkscape:connector-curvature="0"
       id="path859"
       d="m 31.591928,95.669728 c 1.0133,3.631168 -2.205965,6.421872 -4.897736,6.237632 1.990248,-1.80296 4.259505,-3.313961 4.897736,-6.237632 z"
       style="fill:#cccccc;fill-opacity:1;stroke:none;stroke-width:0.1440911;stroke-miterlimit:4;stroke-dasharray:none;stroke-opacity:1"
       inkscape:export-xdpi="90"
       inkscape:export-ydpi="90" />
    <path
       inkscape:connector-curvature="0"
       id="path861"
       d="m 26.790153,99.066684 a 2.5771549,2.5771549 0 0 0 -2.518981,2.038486 4.92353,4.92353 0 0 0 2.653037,0.7764 4.92353,4.92353 0 0 0 2.410725,-0.63355 2.5771549,2.5771549 0 0 0 -2.544781,-2.181336 z"
       style="fill:#f4d7ee;fill-opacity:1;stroke:#000000;stroke-width:0.18847886;stroke-miterlimit:4;stroke-dasharray:none;stroke-opacity:1"
       inkscape:export-xdpi="90"
       inkscape:export-ydpi="90" />
    <path
       sodipodi:nodetypes="zzz"
       inkscape:connector-curvature="0"
       id="path863"
       d="m 25.098264,93.512401 c -1.1698,1.360474 -2.543037,-1.419619 -2.118974,-1.931122 0.424062,-0.511508 3.288782,0.570647 2.118974,1.931122 z"
       style="fill:#333333;fill-opacity:1;stroke:#000000;stroke-width:0.14409111;stroke-miterlimit:4;stroke-dasharray:none;stroke-opacity:1"
       inkscape:export-xdpi="90"
       inkscape:export-ydpi="90" />
    <path
       style="fill:#333333;fill-opacity:1;stroke:#000000;stroke-width:0.14409111;stroke-miterlimit:4;stroke-dasharray:none;stroke-opacity:1"
       d="m 28.712756,93.577539 c 1.169805,1.360473 2.543043,-1.419619 2.11897,-1.931122 -0.424067,-0.511502 -3.288776,0.570647 -2.11897,1.931122 z"
       id="path865"
       inkscape:connector-curvature="0"
       sodipodi:nodetypes="zzz"
       inkscape:export-xdpi="90"
       inkscape:export-ydpi="90" />
    <path
       sodipodi:nodetypes="ccccc"
       inkscape:connector-curvature="0"
       id="path867"
       d="m 28.739787,100.10443 c -0.693114,0.54931 -3.081888,0.99305 -4.100476,1.12701 1.353657,0.81921 3.239481,0.65726 4.401618,0.0605 0.0633,-0.0353 0.13153,-0.043 0.193188,-0.0811 -0.09159,-0.49934 -0.260179,-0.79124 -0.49433,-1.10643 z"
       style="fill:#cdabc6;fill-opacity:1;stroke:none;stroke-width:0.1440911;stroke-miterlimit:4;stroke-dasharray:none;stroke-opacity:1"
       inkscape:export-xdpi="90"
       inkscape:export-ydpi="90" />
    <ellipse
       transform="rotate(-18.961187)"
       ry="0.68531829"
       rx="0.40667248"
       cy="103.50172"
       cx="-7.9302626"
       id="ellipse869"
       style="fill:#333333;fill-opacity:1;stroke:none;stroke-width:0.18847884;stroke-miterlimit:4;stroke-dasharray:none;stroke-opacity:1"
       inkscape:export-xdpi="90"
       inkscape:export-ydpi="90" />
    <ellipse
       style="fill:#333333;fill-opacity:1;stroke:none;stroke-width:0.18847884;stroke-miterlimit:4;stroke-dasharray:none;stroke-opacity:1"
       id="ellipse871"
       cx="-58.599213"
       cy="86.093361"
       rx="0.40667248"
       ry="0.68531829"
       transform="matrix(-0.9457389,-0.32492757,-0.32492757,0.9457389,0,0)"
       inkscape:export-xdpi="90"
       inkscape:export-ydpi="90" />
    <rect
       transform="rotate(45)"
       ry="0"
       y="47.476635"
       x="86.853668"
       height="0.62534928"
       width="3.0398929"
       id="rect877"
       style="fill:#000000;fill-opacity:1;stroke:none;stroke-width:0.55339962;stroke-miterlimit:4;stroke-dasharray:none;stroke-opacity:1"
       inkscape:export-xdpi="90"
       inkscape:export-ydpi="90" />
    <rect
       style="fill:#000000;fill-opacity:1;stroke:none;stroke-width:0.55339962;stroke-miterlimit:4;stroke-dasharray:none;stroke-opacity:1"
       id="rect879"
       width="3.0398929"
       height="0.62534928"
       x="-49.309258"
       y="88.060944"
       ry="0"
       transform="rotate(-45)"
       inkscape:export-xdpi="90"
       inkscape:export-ydpi="90" />
    <rect
       style="fill:#000000;fill-opacity:1;stroke:none;stroke-width:0.55339962;stroke-miterlimit:4;stroke-dasharray:none;stroke-opacity:1"
       id="rect881"
       width="3.0398929"
       height="0.62534928"
       x="84.348366"
       y="49.981941"
       ry="0"
       transform="rotate(45)"
       inkscape:export-xdpi="90"
       inkscape:export-ydpi="90" />
    <rect
       transform="rotate(-45)"
       ry="0"
       y="85.555641"
       x="-51.81456"
       height="0.62534928"
       width="3.0398929"
       id="rect883"
       style="fill:#000000;fill-opacity:1;stroke:none;stroke-width:0.55339962;stroke-miterlimit:4;stroke-dasharray:none;stroke-opacity:1"
       inkscape:export-xdpi="90"
       inkscape:export-ydpi="90" />
  </g>
</svg>
