<?xml version="1.0" encoding="UTF-8" standalone="no"?>
<!-- Created with Inkscape (http://www.inkscape.org/) -->

<svg
   xmlns:dc="http://purl.org/dc/elements/1.1/"
   xmlns:cc="http://creativecommons.org/ns#"
   xmlns:rdf="http://www.w3.org/1999/02/22-rdf-syntax-ns#"
   xmlns:svg="http://www.w3.org/2000/svg"
   xmlns="http://www.w3.org/2000/svg"
   xmlns:sodipodi="http://sodipodi.sourceforge.net/DTD/sodipodi-0.dtd"
   xmlns:inkscape="http://www.inkscape.org/namespaces/inkscape"
   width="81.249207"
   height="65.483589"
   viewBox="0 0 21.497185 17.325867"
   version="1.1"
   id="svg8"
   inkscape:version="0.92.2 (unknown)"
   sodipodi:docname="cow-icon.svg">
  <defs
     id="defs2" />
  <sodipodi:namedview
     id="base"
     pagecolor="#ffffff"
     bordercolor="#666666"
     borderopacity="1.0"
     inkscape:pageopacity="0.0"
     inkscape:pageshadow="2"
     inkscape:zoom="1.1675781"
     inkscape:cx="-52.467672"
     inkscape:cy="-18.673446"
     inkscape:document-units="px"
     inkscape:current-layer="layer1"
     showgrid="false"
     units="px"
     inkscape:window-width="1920"
     inkscape:window-height="1017"
     inkscape:window-x="0"
     inkscape:window-y="30"
     inkscape:window-maximized="1" />
  <metadata
     id="metadata5">
    <rdf:RDF>
      <cc:Work
         rdf:about="">
        <dc:format>image/svg+xml</dc:format>
        <dc:type
           rdf:resource="http://purl.org/dc/dcmitype/StillImage" />
        <dc:title></dc:title>
      </cc:Work>
    </rdf:RDF>
  </metadata>
  <g
     inkscape:label="Layer 1"
     inkscape:groupmode="layer"
     id="layer1"
     transform="translate(-16.21784,-88.014989)">
    <path
       inkscape:connector-curvature="0"
       id="path845"
       d="m 26.897391,89.085291 c -2.464102,0.003 -4.790934,1.13514 -6.314954,3.07142 -0.562807,-0.14412 -2.975097,0.10079 -4.135712,3.54007 1.257281,-0.21922 2.093418,-1.039341 2.953639,-1.47158 -0.363077,0.92768 -0.550824,1.9147 -0.553701,2.9109 9e-6,4.446279 3.604449,8.050689 8.050728,8.050659 4.44625,-1e-5 8.05065,-3.60441 8.05066,-8.050659 -8.2e-4,-1.01514 -0.19364,-2.020971 -0.56827,-2.96445 0.8423,0.44265 1.47577,1.22336 3.14796,1.94391 -0.48615,-3.78426 -3.89424,-4.056631 -4.2928,-3.94001 -1.52516,-1.94952 -3.86233,-3.08908 -6.33755,-3.09009 z"
       style="fill:#ffffff;fill-opacity:1;stroke:#000000;stroke-width:0.30818993;stroke-miterlimit:4;stroke-dasharray:none;stroke-opacity:1"
       sodipodi:nodetypes="cccccccccccc"
       inkscape:export-xdpi="90"
       inkscape:export-ydpi="90" />
    <path
       sodipodi:nodetypes="ccc"
       inkscape:connector-curvature="0"
       id="path859"
       d="m 34.529781,95.029381 c 1.65689,5.937479 -3.60707,10.500679 -8.0085,10.199429 3.25434,-2.9481 6.9649,-5.418809 8.0085,-10.199429 z"
       style="fill:#cccccc;fill-opacity:1;stroke:none;stroke-width:0.23560959;stroke-miterlimit:4;stroke-dasharray:none;stroke-opacity:1"
       inkscape:export-xdpi="90"
       inkscape:export-ydpi="90" />
    <path
       inkscape:connector-curvature="0"
       id="path861"
       d="m 26.678191,100.58389 a 4.2140174,4.2140174 0 0 0 -4.118895,3.33321 8.0506769,8.0506769 0 0 0 4.338095,1.26953 8.0506769,8.0506769 0 0 0 3.94188,-1.03594 4.2140174,4.2140174 0 0 0 -4.16108,-3.5668 z"
       style="fill:#f4d7ee;fill-opacity:1;stroke:#000000;stroke-width:0.30818993;stroke-miterlimit:4;stroke-dasharray:none;stroke-opacity:1"
       inkscape:export-xdpi="90"
       inkscape:export-ydpi="90" />
    <path
       sodipodi:nodetypes="zzz"
       inkscape:connector-curvature="0"
       id="path863"
       d="m 23.91171,91.501841 c -1.912792,2.22457 -4.15823,-2.32128 -3.464827,-3.15766 0.693403,-0.83639 5.37763,0.93309 3.464827,3.15766 z"
       style="fill:#333333;fill-opacity:1;stroke:#000000;stroke-width:0.23560962;stroke-miterlimit:4;stroke-dasharray:none;stroke-opacity:1"
       inkscape:export-xdpi="90"
       inkscape:export-ydpi="90" />
    <path
       style="fill:#333333;fill-opacity:1;stroke:#000000;stroke-width:0.23560962;stroke-miterlimit:4;stroke-dasharray:none;stroke-opacity:1"
       d="m 29.821921,91.608351 c 1.9128,2.224569 4.15824,-2.32128 3.46482,-3.15766 -0.69341,-0.83638 -5.37762,0.93309 -3.46482,3.15766 z"
       id="path865"
       inkscape:connector-curvature="0"
       sodipodi:nodetypes="zzz"
       inkscape:export-xdpi="90"
       inkscape:export-ydpi="90" />
    <path
       sodipodi:nodetypes="ccccc"
       inkscape:connector-curvature="0"
       id="path867"
       d="m 29.866121,102.28076 c -1.13334,0.8982 -5.039329,1.62377 -6.704865,1.84282 2.213423,1.33953 5.297015,1.07471 7.197275,0.099 0.1035,-0.0577 0.21507,-0.0703 0.31589,-0.13267 -0.14976,-0.81649 -0.42543,-1.2938 -0.8083,-1.80918 z"
       style="fill:#cdabc6;fill-opacity:1;stroke:none;stroke-width:0.23560959;stroke-miterlimit:4;stroke-dasharray:none;stroke-opacity:1"
       inkscape:export-xdpi="90"
       inkscape:export-ydpi="90" />
    <ellipse
       transform="rotate(-18.961187)"
       ry="1.1205935"
       rx="0.66496778"
       cy="105.60246"
       cx="-9.2133436"
       id="ellipse869"
       style="fill:#333333;fill-opacity:1;stroke:none;stroke-width:0.3081899;stroke-miterlimit:4;stroke-dasharray:none;stroke-opacity:1"
       inkscape:export-xdpi="90"
       inkscape:export-ydpi="90" />
    <ellipse
       style="fill:#333333;fill-opacity:1;stroke:none;stroke-width:0.3081899;stroke-miterlimit:4;stroke-dasharray:none;stroke-opacity:1"
       id="ellipse871"
       cx="-59.667961"
       cy="88.267723"
       rx="0.66496778"
       ry="1.1205935"
       transform="matrix(-0.9457389,-0.32492757,-0.32492757,0.9457389,0,0)"
       inkscape:export-xdpi="90"
       inkscape:export-ydpi="90" />
    <rect
       transform="rotate(45)"
       ry="0"
       y="46.322685"
       x="86.48777"
       height="1.0225357"
       width="4.9706602"
       id="rect877"
       style="fill:#000000;fill-opacity:1;stroke:none;stroke-width:0.90488762;stroke-miterlimit:4;stroke-dasharray:none;stroke-opacity:1"
       inkscape:export-xdpi="90"
       inkscape:export-ydpi="90" />
    <rect
       style="fill:#000000;fill-opacity:1;stroke:none;stroke-width:0.90488762;stroke-miterlimit:4;stroke-dasharray:none;stroke-opacity:1"
       id="rect879"
       width="4.9706602"
       height="1.0225357"
       x="-49.319286"
       y="88.46183"
       ry="0"
       transform="rotate(-45)"
       inkscape:export-xdpi="90"
       inkscape:export-ydpi="90" />
    <rect
       style="fill:#000000;fill-opacity:1;stroke:none;stroke-width:0.90488762;stroke-miterlimit:4;stroke-dasharray:none;stroke-opacity:1"
       id="rect881"
       width="4.9706602"
       height="1.0225357"
       x="82.391243"
       y="50.41922"
       ry="0"
       transform="rotate(45)"
       inkscape:export-xdpi="90"
       inkscape:export-ydpi="90" />
    <rect
       transform="rotate(-45)"
       ry="0"
       y="84.365303"
       x="-53.415817"
       height="1.0225357"
       width="4.9706602"
       id="rect883"
       style="fill:#000000;fill-opacity:1;stroke:none;stroke-width:0.90488762;stroke-miterlimit:4;stroke-dasharray:none;stroke-opacity:1"
       inkscape:export-xdpi="90"
       inkscape:export-ydpi="90" />
  </g>
</svg>
