<?xml version="1.0" encoding="UTF-8" standalone="no"?>
<!-- Created with Inkscape (http://www.inkscape.org/) -->

<svg
   xmlns:dc="http://purl.org/dc/elements/1.1/"
   xmlns:cc="http://creativecommons.org/ns#"
   xmlns:rdf="http://www.w3.org/1999/02/22-rdf-syntax-ns#"
   xmlns:svg="http://www.w3.org/2000/svg"
   xmlns="http://www.w3.org/2000/svg"
   xmlns:sodipodi="http://sodipodi.sourceforge.net/DTD/sodipodi-0.dtd"
   xmlns:inkscape="http://www.inkscape.org/namespaces/inkscape"
   width="462.88547"
   height="19.28137"
   viewBox="0 0 122.47178 5.1015293"
   version="1.1"
   id="svg8"
   inkscape:version="0.92.2 (unknown)"
   sodipodi:docname="credits.svg">
  <defs
     id="defs2" />
  <sodipodi:namedview
     id="base"
     pagecolor="#ffffff"
     bordercolor="#666666"
     borderopacity="1.0"
     inkscape:pageopacity="0.0"
     inkscape:pageshadow="2"
     inkscape:zoom="1.6512048"
     inkscape:cx="266.20081"
     inkscape:cy="-74.516472"
     inkscape:document-units="px"
     inkscape:current-layer="layer1"
     showgrid="false"
     units="px"
     inkscape:window-width="1920"
     inkscape:window-height="1017"
     inkscape:window-x="0"
     inkscape:window-y="30"
     inkscape:window-maximized="1" />
  <metadata
     id="metadata5">
    <rdf:RDF>
      <cc:Work
         rdf:about="">
        <dc:format>image/svg+xml</dc:format>
        <dc:type
           rdf:resource="http://purl.org/dc/dcmitype/StillImage" />
        <dc:title></dc:title>
      </cc:Work>
    </rdf:RDF>
  </metadata>
  <g
     inkscape:label="Layer 1"
     inkscape:groupmode="layer"
     id="layer1"
     transform="translate(-28.715388,-103.68304)">
    <rect
       style="fill:#838383;fill-opacity:1;stroke:none;stroke-width:0.11688928;stroke-linejoin:round;stroke-miterlimit:4;stroke-dasharray:none;stroke-opacity:1"
       id="rect815"
       width="18.520834"
       height="18.520834"
       x="-24.926954"
       y="132.76979"
       ry="0.30768067" />
    <g
       aria-label="Music: Creative Commons, www.bensound.com"
       transform="scale(0.26458333)"
       style="font-style:normal;font-variant:normal;font-weight:normal;font-stretch:normal;font-size:40px;line-height:125%;font-family:'Abyssinica SIL';-inkscape-font-specification:'Abyssinica SIL';letter-spacing:0px;word-spacing:0px;fill:#ffffff;fill-opacity:1;stroke:none;stroke-width:1px;stroke-linecap:butt;stroke-linejoin:miter;stroke-opacity:1"
       id="flowRoot817">
      <path
         d="m 120.56185,407.5918 v -0.91667 l 1.13542,-0.0833 q 0.22916,-0.0208 0.34375,-0.16667 0.125,-0.14583 0.125,-0.30208 v -11.76042 l -4.90625,13.22917 h -1.0625 l -4.73959,-13.03125 v 11.5625 q 0,0.15625 0.11459,0.30208 0.125,0.14583 0.35416,0.16667 l 1.21875,0.0833 v 0.91667 h -4.61458 v -0.91667 l 1.21875,-0.0833 q 0.22917,-0.0208 0.33333,-0.16667 0.11459,-0.14583 0.11459,-0.30208 v -11.375 q 0,-0.15625 -0.11459,-0.30209 -0.10416,-0.14583 -0.33333,-0.16666 l -1.21875,-0.0833 v -0.91666 h 4.78125 v 0.57291 l 3.86458,10.47917 3.86459,-10.41667 v -0.63541 h 4.90625 v 0.91666 l -1.15625,0.0833 q -0.22917,0.0208 -0.35417,0.16666 -0.11458,0.14584 -0.11458,0.30209 v 11.375 q 0,0.15625 0.11458,0.30208 0.125,0.14583 0.35417,0.16667 l 1.15625,0.0833 v 0.91667 z"
         style="font-style:normal;font-variant:normal;font-weight:normal;font-stretch:normal;font-size:21.33333397px;font-family:'Abyssinica SIL';-inkscape-font-specification:'Abyssinica SIL';fill:#ffffff"
         id="path833"
         inkscape:connector-curvature="0" />
      <path
         d="m 134.92643,407.5918 v -1.21875 q -0.27083,0.20833 -0.66666,0.46875 -0.38542,0.26041 -0.84375,0.48958 -0.44792,0.21875 -0.94792,0.36458 -0.48958,0.15625 -0.95833,0.15625 -0.6875,0 -1.23959,-0.20833 -0.54166,-0.19792 -0.92708,-0.61458 -0.375,-0.42709 -0.58333,-1.07292 -0.19792,-0.65625 -0.19792,-1.5625 v -5.78125 h -1.48958 v -0.72917 l 2.625,-0.83333 h 0.85416 v 6.9375 q 0,0.5625 0.10417,1.01042 0.11458,0.44791 0.35417,0.76041 0.25,0.3125 0.64583,0.47917 0.39583,0.15625 0.95833,0.15625 0.32292,0 0.65625,-0.0625 0.33334,-0.0625 0.63542,-0.15625 0.30208,-0.10417 0.5625,-0.20833 0.27083,-0.11459 0.45833,-0.20834 v -7.14583 h -1.5 v -0.72917 l 2.60417,-0.83333 h 0.875 v 9.17708 q 0,0.19792 0.13542,0.32292 0.14583,0.125 0.33333,0.14583 l 0.9375,0.0625 v 0.83334 z"
         style="font-style:normal;font-variant:normal;font-weight:normal;font-stretch:normal;font-size:21.33333397px;font-family:'Abyssinica SIL';-inkscape-font-specification:'Abyssinica SIL';fill:#ffffff"
         id="path835"
         inkscape:connector-curvature="0" />
      <path
         d="m 146.50977,404.49805 q 0,0.78125 -0.28125,1.40625 -0.28125,0.625 -0.80209,1.0625 -0.52083,0.42708 -1.28125,0.65625 -0.76041,0.22916 -1.70833,0.22916 -0.48958,0 -0.95833,-0.0625 -0.45834,-0.0521 -0.85417,-0.14583 -0.38542,-0.0833 -0.6875,-0.17708 -0.30208,-0.0937 -0.45833,-0.15625 v -2.83334 h 1.08333 l 0.26042,1.8125 q 0.32291,0.20834 0.79166,0.40625 0.47917,0.1875 1.10417,0.1875 0.45833,0 0.8125,-0.13541 0.35417,-0.14584 0.59375,-0.375 0.25,-0.22917 0.375,-0.52084 0.13542,-0.30208 0.13542,-0.625 0,-0.41666 -0.15625,-0.71875 -0.15625,-0.3125 -0.45834,-0.55208 -0.29166,-0.25 -0.72916,-0.46875 -0.42709,-0.22917 -0.97917,-0.5 l -0.28125,-0.13542 q -0.58333,-0.28125 -1.03125,-0.55208 -0.44792,-0.28125 -0.76042,-0.59375 -0.30208,-0.32292 -0.45833,-0.69792 -0.15625,-0.38541 -0.15625,-0.86458 0,-0.70833 0.25,-1.28125 0.26042,-0.57292 0.75,-0.96875 0.48958,-0.40625 1.19792,-0.625 0.71875,-0.21875 1.64583,-0.21875 0.46875,0 0.89583,0.0521 0.42709,0.0521 0.78125,0.125 0.35417,0.0729 0.625,0.15625 0.27084,0.0833 0.42709,0.15625 v 2.52084 h -1.11459 l -0.16666,-1.48959 q -0.22917,-0.17708 -0.67709,-0.33333 -0.44791,-0.15625 -0.94791,-0.15625 -0.88542,0 -1.3125,0.40625 -0.41667,0.39583 -0.41667,1.02083 0,0.36459 0.11458,0.63542 0.125,0.27083 0.39584,0.51042 0.28125,0.23958 0.73958,0.48958 0.45833,0.23958 1.13542,0.54167 0.55208,0.25 1.02083,0.53125 0.46875,0.27083 0.8125,0.61458 0.34375,0.33333 0.53125,0.73958 0.19792,0.40625 0.19792,0.92709 z"
         style="font-style:normal;font-variant:normal;font-weight:normal;font-stretch:normal;font-size:21.33333397px;font-family:'Abyssinica SIL';-inkscape-font-specification:'Abyssinica SIL';fill:#ffffff"
         id="path837"
         inkscape:connector-curvature="0" />
      <path
         d="m 151.89518,393.78971 q 0,0.27084 -0.10416,0.52084 -0.0937,0.23958 -0.27084,0.41666 -0.17708,0.17709 -0.41666,0.28125 -0.22917,0.10417 -0.5,0.10417 -0.27084,0 -0.52084,-0.10417 -0.23958,-0.10416 -0.41666,-0.28125 -0.17709,-0.17708 -0.28125,-0.41666 -0.10417,-0.25 -0.10417,-0.52084 0,-0.27083 0.10417,-0.51041 0.10416,-0.23959 0.28125,-0.41667 0.17708,-0.17708 0.41666,-0.27083 0.25,-0.10417 0.52084,-0.10417 0.27083,0 0.5,0.10417 0.23958,0.0937 0.41666,0.27083 0.17709,0.17708 0.27084,0.41667 0.10416,0.23958 0.10416,0.51041 z m -3.91666,13.80209 v -0.83334 l 1.04166,-0.0625 q 0.19792,-0.0208 0.32292,-0.14583 0.125,-0.125 0.125,-0.32292 v -7.61458 h -1.46875 v -0.75 l 2.60417,-0.8125 h 0.84375 v 9.17708 q 0,0.19792 0.125,0.32292 0.13541,0.125 0.32291,0.14583 l 1.09376,0.0625 v 0.83334 z"
         style="font-style:normal;font-variant:normal;font-weight:normal;font-stretch:normal;font-size:21.33333397px;font-family:'Abyssinica SIL';-inkscape-font-specification:'Abyssinica SIL';fill:#ffffff"
         id="path839"
         inkscape:connector-curvature="0" />
      <path
         d="m 162.92643,406.80013 q -0.36458,0.1875 -0.77083,0.38542 -0.39583,0.1875 -0.85417,0.33333 -0.44791,0.14583 -0.94791,0.23958 -0.48959,0.0937 -1.03125,0.0937 -1.125,0 -2.03125,-0.39583 -0.89584,-0.40625 -1.53125,-1.11458 -0.63542,-0.71875 -0.97917,-1.69792 -0.34375,-0.97917 -0.34375,-2.125 0,-1.34375 0.41667,-2.36458 0.41666,-1.02084 1.125,-1.70834 0.70833,-0.69791 1.63541,-1.04166 0.9375,-0.35417 1.95834,-0.35417 0.69791,0 1.30208,0.14583 0.61458,0.13542 1.05208,0.40625 0.44792,0.27084 0.69792,0.66667 0.26042,0.39583 0.26042,0.91667 0,0.3125 -0.11459,0.55208 -0.10416,0.22917 -0.28125,0.39583 -0.17708,0.15625 -0.40625,0.23959 -0.21875,0.0729 -0.45833,0.0729 -0.35417,0 -0.61458,-0.11458 -0.26042,-0.125 -0.45834,-0.25 v -1.85417 q -0.21875,-0.125 -0.45833,-0.19791 -0.22917,-0.0833 -0.4375,-0.0833 -0.70833,0 -1.28125,0.32292 -0.5625,0.32292 -0.95833,0.89583 -0.38542,0.57292 -0.59375,1.36459 -0.20834,0.78125 -0.20834,1.70833 0,0.88542 0.21875,1.66667 0.22917,0.78125 0.66667,1.36458 0.44792,0.57292 1.10417,0.90625 0.66666,0.33333 1.54166,0.33333 0.75,0 1.41667,-0.22916 0.67708,-0.23959 1.36458,-0.69792 z"
         style="font-style:normal;font-variant:normal;font-weight:normal;font-stretch:normal;font-size:21.33333397px;font-family:'Abyssinica SIL';-inkscape-font-specification:'Abyssinica SIL';fill:#ffffff"
         id="path841"
         inkscape:connector-curvature="0" />
      <path
         d="m 167.8431,398.48763 q 0,0.29167 -0.11458,0.55208 -0.11459,0.26042 -0.3125,0.45834 -0.19792,0.1875 -0.46875,0.30208 -0.26042,0.11458 -0.55209,0.11458 -0.30208,0 -0.5625,-0.11458 -0.25,-0.11458 -0.44791,-0.30208 -0.19792,-0.19792 -0.3125,-0.45834 -0.10417,-0.26041 -0.10417,-0.55208 0,-0.29167 0.10417,-0.55208 0.11458,-0.27084 0.3125,-0.45834 0.19791,-0.19791 0.44791,-0.3125 0.26042,-0.11458 0.5625,-0.11458 0.29167,0 0.55209,0.11458 0.27083,0.11459 0.46875,0.3125 0.19791,0.1875 0.3125,0.45834 0.11458,0.26041 0.11458,0.55208 z m 0,7.92708 q 0,0.30209 -0.11458,0.5625 -0.11459,0.26042 -0.3125,0.45834 -0.19792,0.1875 -0.46875,0.30208 -0.26042,0.11458 -0.55209,0.11458 -0.30208,0 -0.5625,-0.11458 -0.25,-0.11458 -0.44791,-0.30208 -0.19792,-0.19792 -0.3125,-0.45834 -0.10417,-0.26041 -0.10417,-0.5625 0,-0.29166 0.10417,-0.55208 0.11458,-0.26042 0.3125,-0.44792 0.19791,-0.19791 0.44791,-0.3125 0.26042,-0.11458 0.5625,-0.11458 0.29167,0 0.55209,0.11458 0.27083,0.11459 0.46875,0.3125 0.19791,0.1875 0.3125,0.44792 0.11458,0.26042 0.11458,0.55208 z"
         style="font-style:normal;font-variant:normal;font-weight:normal;font-stretch:normal;font-size:21.33333397px;font-family:'Abyssinica SIL';-inkscape-font-specification:'Abyssinica SIL';fill:#ffffff"
         id="path843"
         inkscape:connector-curvature="0" />
      <path
         d="m 191.79102,407.10221 q -0.0417,0.0208 -0.40625,0.15625 -0.36458,0.125 -0.94792,0.28125 -0.58333,0.14584 -1.34375,0.27084 -0.75,0.125 -1.5625,0.125 -1.19791,0 -2.21875,-0.29167 -1.01042,-0.28125 -1.84375,-0.79167 -0.82292,-0.51041 -1.45833,-1.21875 -0.625,-0.70833 -1.0625,-1.54166 -0.42709,-0.83334 -0.64584,-1.77084 -0.21875,-0.9375 -0.21875,-1.91666 0,-1.65625 0.54167,-3.03125 0.54167,-1.375 1.52083,-2.35417 0.97917,-0.98958 2.35417,-1.53125 1.375,-0.55208 3.05209,-0.55208 0.52083,0 1,0.0625 0.48958,0.0521 0.98958,0.15625 0.5,0.10416 1.05208,0.26041 0.55209,0.15625 1.19792,0.35417 v 3.34375 h -1.28125 l -0.3125,-1.9375 q -0.0417,-0.17708 -0.15625,-0.30208 -0.11458,-0.13542 -0.20833,-0.1875 l -0.0833,-0.0417 q -0.13541,-0.0625 -0.34375,-0.14583 -0.20833,-0.0937 -0.47916,-0.16667 -0.26042,-0.0833 -0.58334,-0.13542 -0.32291,-0.0625 -0.6875,-0.0625 -1.09375,0 -2.03125,0.40625 -0.9375,0.40625 -1.625,1.19792 -0.6875,0.79167 -1.08333,1.96875 -0.38542,1.16667 -0.38542,2.69792 0,1.48958 0.36458,2.66666 0.375,1.17709 1.07292,2 0.69792,0.82292 1.69792,1.26042 1,0.42708 2.27083,0.42708 0.375,0 0.67709,-0.0521 0.3125,-0.0521 0.54166,-0.11458 0.22917,-0.0729 0.35417,-0.125 0.125,-0.0625 0.14583,-0.0729 0.16667,-0.0625 0.27084,-0.17708 0.10416,-0.11459 0.13541,-0.25 l 0.48959,-2.32292 h 1.23958 z"
         style="font-style:normal;font-variant:normal;font-weight:normal;font-stretch:normal;font-size:21.33333397px;font-family:'Abyssinica SIL';-inkscape-font-specification:'Abyssinica SIL';fill:#ffffff"
         id="path845"
         inkscape:connector-curvature="0" />
      <path
         d="m 199.91602,399.48763 q -0.20833,-0.23958 -0.47917,-0.40625 -0.27083,-0.17708 -0.66666,-0.17708 -0.52084,0 -1.05209,0.35416 -0.53125,0.34375 -1.08333,0.96875 v 6 q 0,0.19792 0.125,0.33334 0.125,0.125 0.32291,0.13541 l 1.40626,0.0625 v 0.83334 h -5.33334 v -0.8125 l 1.05208,-0.0833 q 0.1875,-0.0208 0.3125,-0.14583 0.13542,-0.125 0.13542,-0.32292 V 398.821 h -1.54167 v -0.69791 l 2.64584,-0.8125 h 0.875 v 1.89583 q 0.22916,-0.25 0.55208,-0.61458 0.33333,-0.375 0.70833,-0.71875 0.37501,-0.34375 0.77084,-0.58334 0.40625,-0.23958 0.78125,-0.23958 0.16667,0 0.35417,0.0312 0.1875,0.0312 0.36458,0.0833 0.17708,0.0417 0.32292,0.10417 0.15625,0.0521 0.26041,0.10417 v 2.11458 z"
         style="font-style:normal;font-variant:normal;font-weight:normal;font-stretch:normal;font-size:21.33333397px;font-family:'Abyssinica SIL';-inkscape-font-specification:'Abyssinica SIL';fill:#ffffff"
         id="path847"
         inkscape:connector-curvature="0" />
      <path
         d="m 210.68685,406.5293 q -0.44791,0.28125 -0.9375,0.52083 -0.47916,0.23958 -1,0.41667 -0.51041,0.17708 -1.04166,0.28125 -0.53125,0.10416 -1.07292,0.10416 -0.96875,0 -1.86458,-0.32291 -0.89584,-0.33334 -1.58334,-0.98959 -0.67708,-0.65625 -1.09375,-1.64583 -0.40625,-1 -0.40625,-2.33333 0,-1.25 0.375,-2.26042 0.375,-1.02083 1.04167,-1.73958 0.66667,-0.72917 1.58333,-1.11459 0.91667,-0.39583 2.01042,-0.39583 0.98958,0 1.73958,0.33333 0.75,0.32292 1.25,0.90625 0.5,0.57292 0.75,1.38542 0.25,0.80208 0.25,1.75 v 0.28125 q 0,0.16667 -0.0208,0.3125 h -6.91667 q 0,0.8125 0.16667,1.625 0.17708,0.8125 0.58333,1.45833 0.40625,0.64584 1.09375,1.05209 0.6875,0.39583 1.71875,0.39583 0.45834,0 0.90625,-0.11458 0.44792,-0.125 0.875,-0.3125 0.4375,-0.1875 0.83334,-0.41667 0.39583,-0.23958 0.76041,-0.47917 z m -2.13541,-5.9375 q 0,-0.53125 -0.125,-0.97917 -0.125,-0.45833 -0.38542,-0.79167 -0.25,-0.33333 -0.64583,-0.52083 -0.38542,-0.19792 -0.91667,-0.19792 -0.53125,0 -0.98958,0.20834 -0.45834,0.19791 -0.8125,0.58333 -0.34375,0.38542 -0.5625,0.9375 -0.20834,0.54167 -0.25,1.22917 h 4.6875 z"
         style="font-style:normal;font-variant:normal;font-weight:normal;font-stretch:normal;font-size:21.33333397px;font-family:'Abyssinica SIL';-inkscape-font-specification:'Abyssinica SIL';fill:#ffffff"
         id="path849"
         inkscape:connector-curvature="0" />
      <path
         d="m 218.75977,407.5918 -0.28125,-1.26042 q -0.5625,0.42708 -1.15625,0.76042 -0.26042,0.14583 -0.55209,0.28125 -0.29166,0.13541 -0.60416,0.23958 -0.30209,0.11458 -0.625,0.17708 -0.3125,0.0625 -0.625,0.0625 -0.58334,0 -1.09375,-0.19791 -0.5,-0.19792 -0.875,-0.57292 -0.375,-0.375 -0.59375,-0.90625 -0.20834,-0.53125 -0.20834,-1.20833 0,-0.39584 0.0729,-0.75 0.0833,-0.35417 0.32292,-0.6875 0.23958,-0.33334 0.66666,-0.63542 0.4375,-0.3125 1.13542,-0.61458 0.70833,-0.30209 1.71875,-0.59375 1.02083,-0.30209 2.41667,-0.60417 v -0.91667 q 0,-1.07291 -0.47917,-1.58333 -0.47917,-0.52083 -1.51042,-0.52083 -0.5625,0 -0.95833,0.10416 -0.39583,0.10417 -0.55208,0.16667 v 1.85417 h -1.55209 q -0.14583,0 -0.29166,-0.0208 -0.13542,-0.0208 -0.25,-0.0833 -0.11459,-0.0729 -0.1875,-0.1875 -0.0625,-0.125 -0.0625,-0.32292 0,-0.65625 0.39583,-1.125 0.39583,-0.47916 1.03125,-0.79166 0.63542,-0.3125 1.42708,-0.45834 0.79167,-0.14583 1.58334,-0.14583 0.98958,0 1.63541,0.23958 0.65625,0.23959 1.03125,0.66667 0.38542,0.42708 0.54167,1.01042 0.15625,0.58333 0.15625,1.28125 v 5.97916 q 0,0.19792 0.125,0.32292 0.13542,0.125 0.32292,0.14583 l 1.03125,0.0625 v 0.83334 z m -0.28125,-5.69792 q -1.4375,0.36458 -2.28125,0.71875 -0.84375,0.35417 -1.28125,0.71875 -0.42709,0.35417 -0.55209,0.72917 -0.11458,0.36458 -0.11458,0.76041 0,0.33334 0.10417,0.65625 0.11458,0.3125 0.3125,0.5625 0.20833,0.25 0.5,0.40625 0.30208,0.14584 0.6875,0.14584 0.42708,0 0.88541,-0.15625 0.46875,-0.15625 0.85417,-0.34375 0.44792,-0.21875 0.88542,-0.51042 z"
         style="font-style:normal;font-variant:normal;font-weight:normal;font-stretch:normal;font-size:21.33333397px;font-family:'Abyssinica SIL';-inkscape-font-specification:'Abyssinica SIL';fill:#ffffff"
         id="path851"
         inkscape:connector-curvature="0" />
      <path
         d="m 229.39518,407.14388 q -0.39583,0.19792 -0.86458,0.35417 -0.39583,0.13541 -0.91667,0.23958 -0.52083,0.11458 -1.09375,0.11458 -1.20833,0 -1.75,-0.5625 -0.54166,-0.5625 -0.54166,-1.83333 v -7.08333 h -1.36459 v -0.69792 l 1.45834,-0.6875 0.95833,-2.26042 h 0.9375 v 2.58334 h 3.01042 v 1.0625 h -3.01042 v 5.95833 q 0,0.63542 0.10417,1.08333 0.11458,0.4375 0.32291,0.71875 0.21875,0.27084 0.53125,0.39584 0.32292,0.125 0.75,0.125 0.3125,0 0.57292,-0.0521 0.27083,-0.0521 0.46875,-0.125 0.22917,-0.0833 0.42708,-0.1875 z"
         style="font-style:normal;font-variant:normal;font-weight:normal;font-stretch:normal;font-size:21.33333397px;font-family:'Abyssinica SIL';-inkscape-font-specification:'Abyssinica SIL';fill:#ffffff"
         id="path853"
         inkscape:connector-curvature="0" />
      <path
         d="m 234.18685,393.78971 q 0,0.27084 -0.10417,0.52084 -0.0937,0.23958 -0.27083,0.41666 -0.17708,0.17709 -0.41667,0.28125 -0.22916,0.10417 -0.5,0.10417 -0.27083,0 -0.52083,-0.10417 -0.23958,-0.10416 -0.41667,-0.28125 -0.17708,-0.17708 -0.28125,-0.41666 -0.10416,-0.25 -0.10416,-0.52084 0,-0.27083 0.10416,-0.51041 0.10417,-0.23959 0.28125,-0.41667 0.17709,-0.17708 0.41667,-0.27083 0.25,-0.10417 0.52083,-0.10417 0.27084,0 0.5,0.10417 0.23959,0.0937 0.41667,0.27083 0.17708,0.17708 0.27083,0.41667 0.10417,0.23958 0.10417,0.51041 z m -3.91667,13.80209 v -0.83334 l 1.04167,-0.0625 q 0.19792,-0.0208 0.32292,-0.14583 0.125,-0.125 0.125,-0.32292 v -7.61458 h -1.46875 v -0.75 l 2.60416,-0.8125 h 0.84375 v 9.17708 q 0,0.19792 0.125,0.32292 0.13542,0.125 0.32292,0.14583 l 1.09375,0.0625 v 0.83334 z"
         style="font-style:normal;font-variant:normal;font-weight:normal;font-stretch:normal;font-size:21.33333397px;font-family:'Abyssinica SIL';-inkscape-font-specification:'Abyssinica SIL';fill:#ffffff"
         id="path855"
         inkscape:connector-curvature="0" />
      <path
         d="m 245.93686,398.26888 -3.72917,9.32292 h -1.38541 l -3.4375,-9.32292 -1.17709,-0.125 v -0.83333 h 4.71875 v 0.83333 l -1.02083,0.0625 q -0.14583,0.0208 -0.25,0.11458 -0.0937,0.0833 -0.0937,0.22917 0,0.0417 0.0208,0.125 l 2.38542,6.67708 2.625,-6.67708 q 0.0312,-0.0625 0.0312,-0.13542 0,-0.125 -0.0937,-0.21875 -0.0833,-0.10416 -0.22917,-0.11458 l -0.95833,-0.0625 v -0.83333 h 3.72917 v 0.83333 z"
         style="font-style:normal;font-variant:normal;font-weight:normal;font-stretch:normal;font-size:21.33333397px;font-family:'Abyssinica SIL';-inkscape-font-specification:'Abyssinica SIL';fill:#ffffff"
         id="path857"
         inkscape:connector-curvature="0" />
      <path
         d="m 257.02018,406.5293 q -0.44791,0.28125 -0.9375,0.52083 -0.47916,0.23958 -1,0.41667 -0.51041,0.17708 -1.04166,0.28125 -0.53125,0.10416 -1.07292,0.10416 -0.96875,0 -1.86458,-0.32291 -0.89584,-0.33334 -1.58334,-0.98959 -0.67708,-0.65625 -1.09375,-1.64583 -0.40625,-1 -0.40625,-2.33333 0,-1.25 0.375,-2.26042 0.375,-1.02083 1.04167,-1.73958 0.66667,-0.72917 1.58333,-1.11459 0.91667,-0.39583 2.01042,-0.39583 0.98958,0 1.73958,0.33333 0.75,0.32292 1.25,0.90625 0.5,0.57292 0.75,1.38542 0.25,0.80208 0.25,1.75 v 0.28125 q 0,0.16667 -0.0208,0.3125 h -6.91667 q 0,0.8125 0.16667,1.625 0.17708,0.8125 0.58333,1.45833 0.40625,0.64584 1.09375,1.05209 0.6875,0.39583 1.71875,0.39583 0.45834,0 0.90625,-0.11458 0.44792,-0.125 0.875,-0.3125 0.4375,-0.1875 0.83334,-0.41667 0.39583,-0.23958 0.76041,-0.47917 z m -2.13541,-5.9375 q 0,-0.53125 -0.125,-0.97917 -0.125,-0.45833 -0.38542,-0.79167 -0.25,-0.33333 -0.64583,-0.52083 -0.38542,-0.19792 -0.91667,-0.19792 -0.53125,0 -0.98958,0.20834 -0.45834,0.19791 -0.8125,0.58333 -0.34375,0.38542 -0.5625,0.9375 -0.20834,0.54167 -0.25,1.22917 h 4.6875 z"
         style="font-style:normal;font-variant:normal;font-weight:normal;font-stretch:normal;font-size:21.33333397px;font-family:'Abyssinica SIL';-inkscape-font-specification:'Abyssinica SIL';fill:#ffffff"
         id="path859"
         inkscape:connector-curvature="0" />
      <path
         d="m 279.91603,407.10221 q -0.0417,0.0208 -0.40625,0.15625 -0.36459,0.125 -0.94792,0.28125 -0.58333,0.14584 -1.34375,0.27084 -0.75,0.125 -1.5625,0.125 -1.19792,0 -2.21875,-0.29167 -1.01042,-0.28125 -1.84375,-0.79167 -0.82292,-0.51041 -1.45833,-1.21875 -0.625,-0.70833 -1.0625,-1.54166 -0.42709,-0.83334 -0.64584,-1.77084 -0.21875,-0.9375 -0.21875,-1.91666 0,-1.65625 0.54167,-3.03125 0.54167,-1.375 1.52083,-2.35417 0.97917,-0.98958 2.35417,-1.53125 1.375,-0.55208 3.05208,-0.55208 0.52084,0 1,0.0625 0.48959,0.0521 0.98959,0.15625 0.5,0.10416 1.05208,0.26041 0.55208,0.15625 1.19792,0.35417 v 3.34375 h -1.28125 l -0.3125,-1.9375 q -0.0417,-0.17708 -0.15625,-0.30208 -0.11459,-0.13542 -0.20834,-0.1875 l -0.0833,-0.0417 q -0.13542,-0.0625 -0.34375,-0.14583 -0.20833,-0.0937 -0.47917,-0.16667 -0.26041,-0.0833 -0.58333,-0.13542 -0.32292,-0.0625 -0.6875,-0.0625 -1.09375,0 -2.03125,0.40625 -0.9375,0.40625 -1.625,1.19792 -0.6875,0.79167 -1.08333,1.96875 -0.38542,1.16667 -0.38542,2.69792 0,1.48958 0.36458,2.66666 0.375,1.17709 1.07292,2 0.69792,0.82292 1.69792,1.26042 1,0.42708 2.27083,0.42708 0.375,0 0.67708,-0.0521 0.3125,-0.0521 0.54167,-0.11458 0.22917,-0.0729 0.35417,-0.125 0.125,-0.0625 0.14583,-0.0729 0.16667,-0.0625 0.27083,-0.17708 0.10417,-0.11459 0.13542,-0.25 l 0.48958,-2.32292 h 1.23959 z"
         style="font-style:normal;font-variant:normal;font-weight:normal;font-stretch:normal;font-size:21.33333397px;font-family:'Abyssinica SIL';-inkscape-font-specification:'Abyssinica SIL';fill:#ffffff"
         id="path861"
         inkscape:connector-curvature="0" />
      <path
         d="m 291.62436,402.4668 q 0,1.13541 -0.36458,2.125 -0.35417,0.97916 -1.02084,1.70833 -0.65625,0.71875 -1.60416,1.13542 -0.9375,0.41666 -2.10417,0.41666 -1.16667,0 -2.10417,-0.40625 -0.9375,-0.41666 -1.59375,-1.13541 -0.65625,-0.71875 -1.01041,-1.69792 -0.34375,-0.98958 -0.34375,-2.14583 0,-1.13542 0.35416,-2.125 0.35417,-0.98959 1.02084,-1.71875 0.66666,-0.73959 1.60416,-1.15625 0.94792,-0.41667 2.13542,-0.41667 1.1875,0 2.125,0.42708 0.9375,0.42709 1.58333,1.16667 0.64584,0.72917 0.97917,1.71875 0.34375,0.97917 0.34375,2.10417 z m -2.21875,-0.0208 q 0,-0.875 -0.17708,-1.67708 -0.16667,-0.80208 -0.52084,-1.41667 -0.35416,-0.61458 -0.88541,-0.97916 -0.53125,-0.36459 -1.25,-0.36459 -0.73959,0 -1.28125,0.36459 -0.54167,0.36458 -0.89584,0.97916 -0.34375,0.61459 -0.51041,1.41667 -0.16667,0.80208 -0.16667,1.67708 0,0.86459 0.16667,1.66667 0.17708,0.80208 0.53125,1.41667 0.35416,0.61458 0.88541,0.98958 0.53125,0.36458 1.25,0.36458 0.72917,0 1.27084,-0.36458 0.54166,-0.36458 0.88541,-0.97917 0.35417,-0.61458 0.52084,-1.41666 0.17708,-0.80209 0.17708,-1.67709 z"
         style="font-style:normal;font-variant:normal;font-weight:normal;font-stretch:normal;font-size:21.33333397px;font-family:'Abyssinica SIL';-inkscape-font-specification:'Abyssinica SIL';fill:#ffffff"
         id="path863"
         inkscape:connector-curvature="0" />
      <path
         d="m 305.25978,407.5918 v -0.83334 l 0.89583,-0.0625 q 0.19792,-0.0208 0.32292,-0.14583 0.125,-0.125 0.125,-0.32292 v -5.4375 q 0,-0.5 -0.0937,-0.89583 -0.0937,-0.40625 -0.32292,-0.6875 -0.21875,-0.28125 -0.58333,-0.4375 -0.36459,-0.15625 -0.89584,-0.15625 -0.27083,0 -0.57291,0.0521 -0.29167,0.0417 -0.59375,0.125 -0.29167,0.0729 -0.58334,0.1875 -0.28125,0.10417 -0.53125,0.22917 v 7.02083 q 0,0.19792 0.125,0.32292 0.125,0.125 0.32292,0.14583 l 0.89583,0.0625 v 0.83334 h -4.67708 v -0.83334 l 0.89583,-0.0625 q 0.19792,-0.0208 0.32292,-0.14583 0.125,-0.125 0.125,-0.32292 v -5.57291 q 0,-0.44792 -0.10417,-0.82292 -0.0937,-0.38542 -0.32291,-0.64583 -0.21875,-0.27084 -0.58334,-0.41667 -0.35416,-0.15625 -0.86458,-0.15625 -0.30208,0 -0.63542,0.0625 -0.32291,0.0521 -0.625,0.14583 -0.30208,0.0833 -0.57291,0.19792 -0.26042,0.10417 -0.44792,0.20833 v 7 q 0,0.19792 0.125,0.32292 0.125,0.125 0.32292,0.14583 l 0.89583,0.0625 v 0.83334 h -4.82292 v -0.83334 l 1.04167,-0.0625 q 0.19792,-0.0208 0.32292,-0.14583 0.125,-0.125 0.125,-0.32292 v -7.40625 h -1.46875 v -0.69791 l 2.58333,-0.8125 h 0.875 v 1.0625 q 0.35417,-0.21875 0.78125,-0.44792 0.4375,-0.22917 0.89583,-0.42708 0.45834,-0.19792 0.91667,-0.32292 0.46875,-0.125 0.88542,-0.125 0.45833,0 0.83333,0.13542 0.375,0.125 0.65625,0.34375 0.29167,0.20833 0.5,0.47916 0.21875,0.26042 0.35417,0.52084 0.32291,-0.19792 0.78125,-0.45834 0.45833,-0.26041 0.96875,-0.47916 0.51041,-0.22917 1.02083,-0.38542 0.51042,-0.15625 0.9375,-0.15625 0.84375,0 1.375,0.3125 0.53125,0.30208 0.83333,0.78125 0.3125,0.46875 0.42709,1.05208 0.11458,0.58334 0.11458,1.125 v 5.90625 q 0,0.19792 0.125,0.32292 0.13542,0.125 0.32292,0.14583 l 1.03125,0.0625 v 0.83334 z"
         style="font-style:normal;font-variant:normal;font-weight:normal;font-stretch:normal;font-size:21.33333397px;font-family:'Abyssinica SIL';-inkscape-font-specification:'Abyssinica SIL';fill:#ffffff"
         id="path865"
         inkscape:connector-curvature="0" />
      <path
         d="m 323.38478,407.5918 v -0.83334 l 0.89583,-0.0625 q 0.19792,-0.0208 0.32292,-0.14583 0.125,-0.125 0.125,-0.32292 v -5.4375 q 0,-0.5 -0.0937,-0.89583 -0.0937,-0.40625 -0.32292,-0.6875 -0.21875,-0.28125 -0.58333,-0.4375 -0.36459,-0.15625 -0.89584,-0.15625 -0.27083,0 -0.57291,0.0521 -0.29167,0.0417 -0.59375,0.125 -0.29167,0.0729 -0.58334,0.1875 -0.28125,0.10417 -0.53125,0.22917 v 7.02083 q 0,0.19792 0.125,0.32292 0.125,0.125 0.32292,0.14583 l 0.89583,0.0625 v 0.83334 h -4.67708 v -0.83334 l 0.89583,-0.0625 q 0.19792,-0.0208 0.32292,-0.14583 0.125,-0.125 0.125,-0.32292 v -5.57291 q 0,-0.44792 -0.10417,-0.82292 -0.0937,-0.38542 -0.32291,-0.64583 -0.21875,-0.27084 -0.58334,-0.41667 -0.35416,-0.15625 -0.86458,-0.15625 -0.30208,0 -0.63542,0.0625 -0.32291,0.0521 -0.625,0.14583 -0.30208,0.0833 -0.57291,0.19792 -0.26042,0.10417 -0.44792,0.20833 v 7 q 0,0.19792 0.125,0.32292 0.125,0.125 0.32292,0.14583 l 0.89583,0.0625 v 0.83334 h -4.82292 v -0.83334 l 1.04167,-0.0625 q 0.19792,-0.0208 0.32292,-0.14583 0.125,-0.125 0.125,-0.32292 v -7.40625 h -1.46875 v -0.69791 l 2.58333,-0.8125 h 0.875 v 1.0625 q 0.35417,-0.21875 0.78125,-0.44792 0.4375,-0.22917 0.89583,-0.42708 0.45834,-0.19792 0.91667,-0.32292 0.46875,-0.125 0.88542,-0.125 0.45833,0 0.83333,0.13542 0.375,0.125 0.65625,0.34375 0.29167,0.20833 0.5,0.47916 0.21875,0.26042 0.35417,0.52084 0.32291,-0.19792 0.78125,-0.45834 0.45833,-0.26041 0.96875,-0.47916 0.51041,-0.22917 1.02083,-0.38542 0.51042,-0.15625 0.9375,-0.15625 0.84375,0 1.375,0.3125 0.53125,0.30208 0.83333,0.78125 0.3125,0.46875 0.42709,1.05208 0.11458,0.58334 0.11458,1.125 v 5.90625 q 0,0.19792 0.125,0.32292 0.13542,0.125 0.32292,0.14583 l 1.03125,0.0625 v 0.83334 z"
         style="font-style:normal;font-variant:normal;font-weight:normal;font-stretch:normal;font-size:21.33333397px;font-family:'Abyssinica SIL';-inkscape-font-specification:'Abyssinica SIL';fill:#ffffff"
         id="path867"
         inkscape:connector-curvature="0" />
      <path
         d="m 339.49936,402.4668 q 0,1.13541 -0.36458,2.125 -0.35417,0.97916 -1.02084,1.70833 -0.65625,0.71875 -1.60416,1.13542 -0.9375,0.41666 -2.10417,0.41666 -1.16667,0 -2.10417,-0.40625 -0.9375,-0.41666 -1.59375,-1.13541 -0.65625,-0.71875 -1.01041,-1.69792 -0.34375,-0.98958 -0.34375,-2.14583 0,-1.13542 0.35416,-2.125 0.35417,-0.98959 1.02084,-1.71875 0.66666,-0.73959 1.60416,-1.15625 0.94792,-0.41667 2.13542,-0.41667 1.1875,0 2.125,0.42708 0.9375,0.42709 1.58333,1.16667 0.64584,0.72917 0.97917,1.71875 0.34375,0.97917 0.34375,2.10417 z m -2.21875,-0.0208 q 0,-0.875 -0.17708,-1.67708 -0.16667,-0.80208 -0.52084,-1.41667 -0.35416,-0.61458 -0.88541,-0.97916 -0.53125,-0.36459 -1.25,-0.36459 -0.73959,0 -1.28125,0.36459 -0.54167,0.36458 -0.89584,0.97916 -0.34375,0.61459 -0.51041,1.41667 -0.16667,0.80208 -0.16667,1.67708 0,0.86459 0.16667,1.66667 0.17708,0.80208 0.53125,1.41667 0.35416,0.61458 0.88541,0.98958 0.53125,0.36458 1.25,0.36458 0.72917,0 1.27084,-0.36458 0.54166,-0.36458 0.88541,-0.97917 0.35417,-0.61458 0.52084,-1.41666 0.17708,-0.80209 0.17708,-1.67709 z"
         style="font-style:normal;font-variant:normal;font-weight:normal;font-stretch:normal;font-size:21.33333397px;font-family:'Abyssinica SIL';-inkscape-font-specification:'Abyssinica SIL';fill:#ffffff"
         id="path869"
         inkscape:connector-curvature="0" />
      <path
         d="m 347.20769,407.5918 v -0.83334 l 0.89584,-0.0625 q 0.1875,-0.0208 0.3125,-0.14583 0.13541,-0.125 0.13541,-0.32292 v -5.55208 q 0,-1.01042 -0.46875,-1.53125 -0.46875,-0.53125 -1.58333,-0.53125 -0.61458,0 -1.20833,0.17708 -0.59375,0.16667 -1.13542,0.4375 v 7 q 0,0.19792 0.125,0.32292 0.125,0.125 0.32292,0.14583 l 0.89583,0.0625 v 0.83334 h -4.82292 v -0.83334 l 1.04167,-0.0625 q 0.19792,-0.0208 0.32292,-0.14583 0.125,-0.125 0.125,-0.32292 v -7.40625 h -1.48959 v -0.69791 l 2.60417,-0.8125 h 0.875 v 1.0625 q 0.44792,-0.25 0.90625,-0.48959 0.46875,-0.23958 0.92708,-0.42708 0.45834,-0.1875 0.88542,-0.29167 0.42708,-0.11458 0.80208,-0.11458 1.39584,0 2.125,0.86458 0.72917,0.86459 0.72917,2.42709 v 5.88541 q 0,0.19792 0.125,0.32292 0.13542,0.125 0.32292,0.14583 l 0.9375,0.0625 v 0.83334 z"
         style="font-style:normal;font-variant:normal;font-weight:normal;font-stretch:normal;font-size:21.33333397px;font-family:'Abyssinica SIL';-inkscape-font-specification:'Abyssinica SIL';fill:#ffffff"
         id="path871"
         inkscape:connector-curvature="0" />
      <path
         d="m 360.0931,404.49805 q 0,0.78125 -0.28125,1.40625 -0.28125,0.625 -0.80208,1.0625 -0.52083,0.42708 -1.28125,0.65625 -0.76042,0.22916 -1.70833,0.22916 -0.48959,0 -0.95834,-0.0625 -0.45833,-0.0521 -0.85416,-0.14583 -0.38542,-0.0833 -0.6875,-0.17708 -0.30209,-0.0937 -0.45834,-0.15625 v -2.83334 h 1.08334 l 0.26041,1.8125 q 0.32292,0.20834 0.79167,0.40625 0.47917,0.1875 1.10417,0.1875 0.45833,0 0.8125,-0.13541 0.35416,-0.14584 0.59375,-0.375 0.25,-0.22917 0.375,-0.52084 0.13541,-0.30208 0.13541,-0.625 0,-0.41666 -0.15625,-0.71875 -0.15625,-0.3125 -0.45833,-0.55208 -0.29167,-0.25 -0.72917,-0.46875 -0.42708,-0.22917 -0.97916,-0.5 l -0.28125,-0.13542 q -0.58334,-0.28125 -1.03125,-0.55208 -0.44792,-0.28125 -0.76042,-0.59375 -0.30208,-0.32292 -0.45833,-0.69792 -0.15625,-0.38541 -0.15625,-0.86458 0,-0.70833 0.25,-1.28125 0.26041,-0.57292 0.75,-0.96875 0.48958,-0.40625 1.19791,-0.625 0.71875,-0.21875 1.64584,-0.21875 0.46875,0 0.89583,0.0521 0.42708,0.0521 0.78125,0.125 0.35417,0.0729 0.625,0.15625 0.27083,0.0833 0.42708,0.15625 v 2.52084 h -1.11458 l -0.16667,-1.48959 q -0.22916,-0.17708 -0.67708,-0.33333 -0.44792,-0.15625 -0.94792,-0.15625 -0.88541,0 -1.3125,0.40625 -0.41666,0.39583 -0.41666,1.02083 0,0.36459 0.11458,0.63542 0.125,0.27083 0.39583,0.51042 0.28125,0.23958 0.73959,0.48958 0.45833,0.23958 1.13541,0.54167 0.55209,0.25 1.02084,0.53125 0.46875,0.27083 0.8125,0.61458 0.34375,0.33333 0.53125,0.73958 0.19791,0.40625 0.19791,0.92709 z"
         style="font-style:normal;font-variant:normal;font-weight:normal;font-stretch:normal;font-size:21.33333397px;font-family:'Abyssinica SIL';-inkscape-font-specification:'Abyssinica SIL';fill:#ffffff"
         id="path873"
         inkscape:connector-curvature="0" />
      <path
         d="m 365.92644,406.6543 q 0,0.67708 -0.17709,1.27083 -0.17708,0.60417 -0.45833,1.10417 -0.28125,0.5 -0.63542,0.88541 -0.35416,0.39584 -0.71875,0.66667 -0.35416,0.28125 -0.6875,0.42708 -0.32291,0.14584 -0.54166,0.14584 -0.17709,0 -0.25,-0.0729 -0.0625,-0.0729 -0.0625,-0.1875 0,-0.0625 0.11458,-0.19792 0.125,-0.125 0.33333,-0.33333 0.64584,-0.625 0.94792,-1.27083 0.30208,-0.63542 0.30208,-1.5 -0.33333,0 -0.61458,-0.0937 -0.28125,-0.0937 -0.48958,-0.28125 -0.20834,-0.19792 -0.33334,-0.47917 -0.11458,-0.29167 -0.11458,-0.67708 0,-0.38542 0.10417,-0.69792 0.11458,-0.32292 0.32291,-0.55208 0.21875,-0.22917 0.51042,-0.35417 0.30208,-0.125 0.67708,-0.125 0.375,0 0.69792,0.10417 0.33333,0.10416 0.5625,0.36458 0.23958,0.26042 0.375,0.70833 0.13542,0.44792 0.13542,1.14584 z"
         style="font-style:normal;font-variant:normal;font-weight:normal;font-stretch:normal;font-size:21.33333397px;font-family:'Abyssinica SIL';-inkscape-font-specification:'Abyssinica SIL';fill:#ffffff"
         id="path875"
         inkscape:connector-curvature="0" />
      <path
         d="m 393.11392,398.26888 -2.92708,9.32292 h -1.51042 l -2.52083,-7.97917 -2.8125,7.97917 h -1.52083 l -2.72917,-9.32292 -1.17708,-0.125 v -0.83333 h 4.67708 v 0.83333 l -1,0.0625 q -0.14583,0.0208 -0.23958,0.11458 -0.0937,0.0937 -0.0937,0.23959 0,0.0729 0.0104,0.11458 l 1.77084,6.63542 2.75,-8 h 1.52083 l 2.46875,8 1.96875,-6.63542 q 0.0104,-0.0312 0.0104,-0.10417 0,-0.13541 -0.0833,-0.23958 -0.0833,-0.11458 -0.22916,-0.125 l -0.97917,-0.0625 v -0.83333 h 3.72917 v 0.83333 z"
         style="font-style:normal;font-variant:normal;font-weight:normal;font-stretch:normal;font-size:21.33333397px;font-family:'Abyssinica SIL';-inkscape-font-specification:'Abyssinica SIL';fill:#ffffff"
         id="path877"
         inkscape:connector-curvature="0" />
      <path
         d="m 409.82227,398.26888 -2.92709,9.32292 h -1.51041 l -2.52084,-7.97917 -2.8125,7.97917 h -1.52083 l -2.72917,-9.32292 -1.17708,-0.125 v -0.83333 h 4.67708 v 0.83333 l -1,0.0625 q -0.14583,0.0208 -0.23958,0.11458 -0.0937,0.0937 -0.0937,0.23959 0,0.0729 0.0104,0.11458 l 1.77083,6.63542 2.75,-8 h 1.52083 l 2.46875,8 1.96875,-6.63542 q 0.0104,-0.0312 0.0104,-0.10417 0,-0.13541 -0.0833,-0.23958 -0.0833,-0.11458 -0.22917,-0.125 l -0.97917,-0.0625 v -0.83333 h 3.72917 v 0.83333 z"
         style="font-style:normal;font-variant:normal;font-weight:normal;font-stretch:normal;font-size:21.33333397px;font-family:'Abyssinica SIL';-inkscape-font-specification:'Abyssinica SIL';fill:#ffffff"
         id="path879"
         inkscape:connector-curvature="0" />
      <path
         d="m 426.53061,398.26888 -2.92708,9.32292 h -1.51042 l -2.52083,-7.97917 -2.8125,7.97917 h -1.52084 l -2.72916,-9.32292 -1.17709,-0.125 v -0.83333 h 4.67709 v 0.83333 l -1,0.0625 q -0.14584,0.0208 -0.23959,0.11458 -0.0937,0.0937 -0.0937,0.23959 0,0.0729 0.0104,0.11458 l 1.77083,6.63542 2.75,-8 h 1.52084 l 2.46875,8 1.96875,-6.63542 q 0.0104,-0.0312 0.0104,-0.10417 0,-0.13541 -0.0833,-0.23958 -0.0833,-0.11458 -0.22917,-0.125 l -0.97916,-0.0625 v -0.83333 h 3.72916 v 0.83333 z"
         style="font-style:normal;font-variant:normal;font-weight:normal;font-stretch:normal;font-size:21.33333397px;font-family:'Abyssinica SIL';-inkscape-font-specification:'Abyssinica SIL';fill:#ffffff"
         id="path881"
         inkscape:connector-curvature="0" />
      <path
         d="m 432.37437,405.94596 q 0,0.34375 -0.125,0.64584 -0.125,0.30208 -0.35417,0.52083 -0.21875,0.21875 -0.52083,0.35417 -0.29167,0.125 -0.63542,0.125 -0.34375,0 -0.64583,-0.125 -0.30208,-0.13542 -0.53125,-0.35417 -0.21875,-0.21875 -0.34375,-0.52083 -0.125,-0.30209 -0.125,-0.64584 0,-0.34375 0.125,-0.63541 0.125,-0.30209 0.34375,-0.52084 0.22917,-0.22916 0.53125,-0.35416 0.30208,-0.125 0.64583,-0.125 0.34375,0 0.63542,0.125 0.30208,0.125 0.52083,0.35416 0.22917,0.21875 0.35417,0.52084 0.125,0.29166 0.125,0.63541 z"
         style="font-style:normal;font-variant:normal;font-weight:normal;font-stretch:normal;font-size:21.33333397px;font-family:'Abyssinica SIL';-inkscape-font-specification:'Abyssinica SIL';fill:#ffffff"
         id="path883"
         inkscape:connector-curvature="0" />
      <path
         d="m 445.73894,401.95638 q 0,1.20833 -0.35416,2.23958 -0.35417,1.02084 -1.10417,1.78125 -0.73958,0.76042 -1.90625,1.1875 -1.15625,0.42709 -2.76042,0.42709 h -3.07291 v -14.1875 h -1.61459 v -0.70834 l 2.75,-0.82291 h 0.85417 v 5.96875 q 0.1875,-0.0833 0.48958,-0.21875 0.30209,-0.13542 0.6875,-0.26042 0.39584,-0.125 0.84375,-0.21875 0.44792,-0.0937 0.91667,-0.0937 1.05208,0 1.84375,0.39583 0.80208,0.39584 1.34375,1.07292 0.54167,0.67708 0.8125,1.57292 0.27083,0.88541 0.27083,1.86458 z m -2.17708,0.42708 q 0,-2.01041 -0.86458,-3.04166 -0.85417,-1.03125 -2.39584,-1.03125 -0.17708,0 -0.41666,0.0312 -0.23959,0.0312 -0.48959,0.0833 -0.23958,0.0521 -0.47916,0.11458 -0.22917,0.0625 -0.38542,0.11459 v 7.91666 q 0.17708,0.0104 0.36458,0.0104 0.15625,0.0104 0.33334,0.0104 h 0.34375 q 0.94791,0 1.6875,-0.21875 0.73958,-0.21875 1.25,-0.71875 0.51041,-0.5 0.78125,-1.30209 0.27083,-0.80208 0.27083,-1.96875 z"
         style="font-style:normal;font-variant:normal;font-weight:normal;font-stretch:normal;font-size:21.33333397px;font-family:'Abyssinica SIL';-inkscape-font-specification:'Abyssinica SIL';fill:#ffffff"
         id="path885"
         inkscape:connector-curvature="0" />
      <path
         d="m 456.18687,406.5293 q -0.44792,0.28125 -0.9375,0.52083 -0.47917,0.23958 -1,0.41667 -0.51042,0.17708 -1.04167,0.28125 -0.53125,0.10416 -1.07291,0.10416 -0.96875,0 -1.86459,-0.32291 -0.89583,-0.33334 -1.58333,-0.98959 -0.67708,-0.65625 -1.09375,-1.64583 -0.40625,-1 -0.40625,-2.33333 0,-1.25 0.375,-2.26042 0.375,-1.02083 1.04167,-1.73958 0.66666,-0.72917 1.58333,-1.11459 0.91667,-0.39583 2.01042,-0.39583 0.98958,0 1.73958,0.33333 0.75,0.32292 1.25,0.90625 0.5,0.57292 0.75,1.38542 0.25,0.80208 0.25,1.75 v 0.28125 q 0,0.16667 -0.0208,0.3125 h -6.91667 q 0,0.8125 0.16667,1.625 0.17708,0.8125 0.58333,1.45833 0.40625,0.64584 1.09375,1.05209 0.6875,0.39583 1.71875,0.39583 0.45833,0 0.90625,-0.11458 0.44792,-0.125 0.875,-0.3125 0.4375,-0.1875 0.83333,-0.41667 0.39584,-0.23958 0.76042,-0.47917 z m -2.13542,-5.9375 q 0,-0.53125 -0.125,-0.97917 -0.125,-0.45833 -0.38541,-0.79167 -0.25,-0.33333 -0.64584,-0.52083 -0.38541,-0.19792 -0.91666,-0.19792 -0.53125,0 -0.98959,0.20834 -0.45833,0.19791 -0.8125,0.58333 -0.34375,0.38542 -0.5625,0.9375 -0.20833,0.54167 -0.25,1.22917 h 4.6875 z"
         style="font-style:normal;font-variant:normal;font-weight:normal;font-stretch:normal;font-size:21.33333397px;font-family:'Abyssinica SIL';-inkscape-font-specification:'Abyssinica SIL';fill:#ffffff"
         id="path887"
         inkscape:connector-curvature="0" />
      <path
         d="m 463.87435,407.5918 v -0.83334 l 0.89583,-0.0625 q 0.1875,-0.0208 0.3125,-0.14583 0.13542,-0.125 0.13542,-0.32292 v -5.55208 q 0,-1.01042 -0.46875,-1.53125 -0.46875,-0.53125 -1.58333,-0.53125 -0.61459,0 -1.20834,0.17708 -0.59375,0.16667 -1.13541,0.4375 v 7 q 0,0.19792 0.125,0.32292 0.125,0.125 0.32291,0.14583 l 0.89584,0.0625 v 0.83334 h -4.82292 v -0.83334 l 1.04167,-0.0625 q 0.19791,-0.0208 0.32291,-0.14583 0.125,-0.125 0.125,-0.32292 v -7.40625 h -1.48958 v -0.69791 l 2.60417,-0.8125 h 0.875 v 1.0625 q 0.44791,-0.25 0.90625,-0.48959 0.46875,-0.23958 0.92708,-0.42708 0.45833,-0.1875 0.88542,-0.29167 0.42708,-0.11458 0.80208,-0.11458 1.39583,0 2.125,0.86458 0.72917,0.86459 0.72917,2.42709 v 5.88541 q 0,0.19792 0.125,0.32292 0.13541,0.125 0.32291,0.14583 l 0.9375,0.0625 v 0.83334 z"
         style="font-style:normal;font-variant:normal;font-weight:normal;font-stretch:normal;font-size:21.33333397px;font-family:'Abyssinica SIL';-inkscape-font-specification:'Abyssinica SIL';fill:#ffffff"
         id="path889"
         inkscape:connector-curvature="0" />
      <path
         d="m 476.75978,404.49805 q 0,0.78125 -0.28125,1.40625 -0.28125,0.625 -0.80209,1.0625 -0.52083,0.42708 -1.28125,0.65625 -0.76041,0.22916 -1.70833,0.22916 -0.48958,0 -0.95833,-0.0625 -0.45834,-0.0521 -0.85417,-0.14583 -0.38542,-0.0833 -0.6875,-0.17708 -0.30208,-0.0937 -0.45833,-0.15625 v -2.83334 h 1.08333 l 0.26042,1.8125 q 0.32291,0.20834 0.79166,0.40625 0.47917,0.1875 1.10417,0.1875 0.45833,0 0.8125,-0.13541 0.35417,-0.14584 0.59375,-0.375 0.25,-0.22917 0.375,-0.52084 0.13542,-0.30208 0.13542,-0.625 0,-0.41666 -0.15625,-0.71875 -0.15625,-0.3125 -0.45834,-0.55208 -0.29166,-0.25 -0.72916,-0.46875 -0.42709,-0.22917 -0.97917,-0.5 l -0.28125,-0.13542 q -0.58333,-0.28125 -1.03125,-0.55208 -0.44792,-0.28125 -0.76042,-0.59375 -0.30208,-0.32292 -0.45833,-0.69792 -0.15625,-0.38541 -0.15625,-0.86458 0,-0.70833 0.25,-1.28125 0.26042,-0.57292 0.75,-0.96875 0.48958,-0.40625 1.19792,-0.625 0.71875,-0.21875 1.64583,-0.21875 0.46875,0 0.89583,0.0521 0.42709,0.0521 0.78125,0.125 0.35417,0.0729 0.625,0.15625 0.27084,0.0833 0.42709,0.15625 v 2.52084 h -1.11459 l -0.16666,-1.48959 q -0.22917,-0.17708 -0.67709,-0.33333 -0.44791,-0.15625 -0.94791,-0.15625 -0.88542,0 -1.3125,0.40625 -0.41667,0.39583 -0.41667,1.02083 0,0.36459 0.11458,0.63542 0.125,0.27083 0.39584,0.51042 0.28125,0.23958 0.73958,0.48958 0.45833,0.23958 1.13542,0.54167 0.55208,0.25 1.02083,0.53125 0.46875,0.27083 0.8125,0.61458 0.34375,0.33333 0.53125,0.73958 0.19792,0.40625 0.19792,0.92709 z"
         style="font-style:normal;font-variant:normal;font-weight:normal;font-stretch:normal;font-size:21.33333397px;font-family:'Abyssinica SIL';-inkscape-font-specification:'Abyssinica SIL';fill:#ffffff"
         id="path891"
         inkscape:connector-curvature="0" />
      <path
         d="m 488.37436,402.4668 q 0,1.13541 -0.36458,2.125 -0.35417,0.97916 -1.02084,1.70833 -0.65625,0.71875 -1.60416,1.13542 -0.9375,0.41666 -2.10417,0.41666 -1.16667,0 -2.10417,-0.40625 -0.9375,-0.41666 -1.59375,-1.13541 -0.65625,-0.71875 -1.01041,-1.69792 -0.34375,-0.98958 -0.34375,-2.14583 0,-1.13542 0.35416,-2.125 0.35417,-0.98959 1.02084,-1.71875 0.66666,-0.73959 1.60416,-1.15625 0.94792,-0.41667 2.13542,-0.41667 1.1875,0 2.125,0.42708 0.9375,0.42709 1.58333,1.16667 0.64584,0.72917 0.97917,1.71875 0.34375,0.97917 0.34375,2.10417 z m -2.21875,-0.0208 q 0,-0.875 -0.17708,-1.67708 -0.16667,-0.80208 -0.52084,-1.41667 -0.35416,-0.61458 -0.88541,-0.97916 -0.53125,-0.36459 -1.25,-0.36459 -0.73959,0 -1.28125,0.36459 -0.54167,0.36458 -0.89584,0.97916 -0.34375,0.61459 -0.51041,1.41667 -0.16667,0.80208 -0.16667,1.67708 0,0.86459 0.16667,1.66667 0.17708,0.80208 0.53125,1.41667 0.35416,0.61458 0.88541,0.98958 0.53125,0.36458 1.25,0.36458 0.72917,0 1.27084,-0.36458 0.54166,-0.36458 0.88541,-0.97917 0.35417,-0.61458 0.52084,-1.41666 0.17708,-0.80209 0.17708,-1.67709 z"
         style="font-style:normal;font-variant:normal;font-weight:normal;font-stretch:normal;font-size:21.33333397px;font-family:'Abyssinica SIL';-inkscape-font-specification:'Abyssinica SIL';fill:#ffffff"
         id="path893"
         inkscape:connector-curvature="0" />
      <path
         d="m 497.42644,407.5918 v -1.21875 q -0.27083,0.20833 -0.66666,0.46875 -0.38542,0.26041 -0.84375,0.48958 -0.44792,0.21875 -0.94792,0.36458 -0.48958,0.15625 -0.95833,0.15625 -0.6875,0 -1.23959,-0.20833 -0.54166,-0.19792 -0.92708,-0.61458 -0.375,-0.42709 -0.58333,-1.07292 -0.19792,-0.65625 -0.19792,-1.5625 v -5.78125 h -1.48958 v -0.72917 l 2.625,-0.83333 h 0.85416 v 6.9375 q 0,0.5625 0.10417,1.01042 0.11458,0.44791 0.35417,0.76041 0.25,0.3125 0.64583,0.47917 0.39583,0.15625 0.95833,0.15625 0.32292,0 0.65625,-0.0625 0.33334,-0.0625 0.63542,-0.15625 0.30208,-0.10417 0.5625,-0.20833 0.27083,-0.11459 0.45833,-0.20834 v -7.14583 h -1.5 v -0.72917 l 2.60417,-0.83333 h 0.875 v 9.17708 q 0,0.19792 0.13542,0.32292 0.14583,0.125 0.33333,0.14583 l 0.9375,0.0625 v 0.83334 z"
         style="font-style:normal;font-variant:normal;font-weight:normal;font-stretch:normal;font-size:21.33333397px;font-family:'Abyssinica SIL';-inkscape-font-specification:'Abyssinica SIL';fill:#ffffff"
         id="path895"
         inkscape:connector-curvature="0" />
      <path
         d="m 508.20769,407.5918 v -0.83334 l 0.89584,-0.0625 q 0.1875,-0.0208 0.3125,-0.14583 0.13541,-0.125 0.13541,-0.32292 v -5.55208 q 0,-1.01042 -0.46875,-1.53125 -0.46875,-0.53125 -1.58333,-0.53125 -0.61458,0 -1.20833,0.17708 -0.59375,0.16667 -1.13542,0.4375 v 7 q 0,0.19792 0.125,0.32292 0.125,0.125 0.32292,0.14583 l 0.89583,0.0625 v 0.83334 h -4.82292 v -0.83334 l 1.04167,-0.0625 q 0.19792,-0.0208 0.32292,-0.14583 0.125,-0.125 0.125,-0.32292 v -7.40625 h -1.48959 v -0.69791 l 2.60417,-0.8125 h 0.875 v 1.0625 q 0.44792,-0.25 0.90625,-0.48959 0.46875,-0.23958 0.92708,-0.42708 0.45834,-0.1875 0.88542,-0.29167 0.42708,-0.11458 0.80208,-0.11458 1.39584,0 2.125,0.86458 0.72917,0.86459 0.72917,2.42709 v 5.88541 q 0,0.19792 0.125,0.32292 0.13542,0.125 0.32292,0.14583 l 0.9375,0.0625 v 0.83334 z"
         style="font-style:normal;font-variant:normal;font-weight:normal;font-stretch:normal;font-size:21.33333397px;font-family:'Abyssinica SIL';-inkscape-font-specification:'Abyssinica SIL';fill:#ffffff"
         id="path897"
         inkscape:connector-curvature="0" />
      <path
         d="m 521.4577,407.5918 v -1.13542 q -0.36458,0.28125 -0.76041,0.54167 -0.38542,0.25 -0.80209,0.4375 -0.40625,0.1875 -0.84375,0.30208 -0.42708,0.11458 -0.89583,0.11458 -1.07292,0 -1.85417,-0.45833 -0.77083,-0.46875 -1.27083,-1.19792 -0.5,-0.73958 -0.73958,-1.64583 -0.22917,-0.91667 -0.22917,-1.82292 0,-1.08333 0.33333,-2.10416 0.33334,-1.03125 1.01042,-1.82292 0.67708,-0.79167 1.69792,-1.27083 1.02083,-0.47917 2.39583,-0.47917 0.25,0 0.54167,0.0312 0.29166,0.0312 0.5625,0.0729 0.28125,0.0312 0.5,0.0833 0.22916,0.0417 0.35416,0.0729 v -3.90625 h -1.61458 v -0.70834 l 2.75,-0.82291 h 0.85417 v 14.35416 q 0,0.19792 0.125,0.32292 0.125,0.125 0.32291,0.14583 l 0.91667,0.0625 v 0.83334 z m 0,-9.19792 q -0.13541,-0.0417 -0.35416,-0.0937 -0.20834,-0.0625 -0.45834,-0.10417 -0.23958,-0.0521 -0.51041,-0.0833 -0.26042,-0.0312 -0.48959,-0.0312 -0.79166,0 -1.4375,0.3125 -0.64583,0.30208 -1.10416,0.86458 -0.44792,0.55209 -0.69792,1.34375 -0.23958,0.79167 -0.23958,1.76042 0,0.875 0.20833,1.61458 0.20833,0.72917 0.60417,1.27084 0.39583,0.54166 0.96875,0.84375 0.57291,0.30208 1.3125,0.30208 0.32291,0 0.625,-0.0625 0.30208,-0.0729 0.58333,-0.17708 0.28125,-0.11459 0.53125,-0.23959 0.25,-0.13541 0.45833,-0.26041 z"
         style="font-style:normal;font-variant:normal;font-weight:normal;font-stretch:normal;font-size:21.33333397px;font-family:'Abyssinica SIL';-inkscape-font-specification:'Abyssinica SIL';fill:#ffffff"
         id="path899"
         inkscape:connector-curvature="0" />
      <path
         d="m 529.91603,405.94596 q 0,0.34375 -0.125,0.64584 -0.125,0.30208 -0.35417,0.52083 -0.21875,0.21875 -0.52083,0.35417 -0.29167,0.125 -0.63542,0.125 -0.34375,0 -0.64583,-0.125 -0.30209,-0.13542 -0.53125,-0.35417 -0.21875,-0.21875 -0.34375,-0.52083 -0.125,-0.30209 -0.125,-0.64584 0,-0.34375 0.125,-0.63541 0.125,-0.30209 0.34375,-0.52084 0.22916,-0.22916 0.53125,-0.35416 0.30208,-0.125 0.64583,-0.125 0.34375,0 0.63542,0.125 0.30208,0.125 0.52083,0.35416 0.22917,0.21875 0.35417,0.52084 0.125,0.29166 0.125,0.63541 z"
         style="font-style:normal;font-variant:normal;font-weight:normal;font-stretch:normal;font-size:21.33333397px;font-family:'Abyssinica SIL';-inkscape-font-specification:'Abyssinica SIL';fill:#ffffff"
         id="path901"
         inkscape:connector-curvature="0" />
      <path
         d="m 541.38477,406.80013 q -0.36459,0.1875 -0.77084,0.38542 -0.39583,0.1875 -0.85416,0.33333 -0.44792,0.14583 -0.94792,0.23958 -0.48958,0.0937 -1.03125,0.0937 -1.125,0 -2.03125,-0.39583 -0.89583,-0.40625 -1.53125,-1.11458 -0.63542,-0.71875 -0.97917,-1.69792 -0.34375,-0.97917 -0.34375,-2.125 0,-1.34375 0.41667,-2.36458 0.41667,-1.02084 1.125,-1.70834 0.70833,-0.69791 1.63542,-1.04166 0.9375,-0.35417 1.95833,-0.35417 0.69792,0 1.30208,0.14583 0.61459,0.13542 1.05209,0.40625 0.44791,0.27084 0.69791,0.66667 0.26042,0.39583 0.26042,0.91667 0,0.3125 -0.11458,0.55208 -0.10417,0.22917 -0.28125,0.39583 -0.17709,0.15625 -0.40625,0.23959 -0.21875,0.0729 -0.45834,0.0729 -0.35416,0 -0.61458,-0.11458 -0.26042,-0.125 -0.45833,-0.25 v -1.85417 q -0.21875,-0.125 -0.45834,-0.19791 -0.22916,-0.0833 -0.4375,-0.0833 -0.70833,0 -1.28125,0.32292 -0.5625,0.32292 -0.95833,0.89583 -0.38542,0.57292 -0.59375,1.36459 -0.20833,0.78125 -0.20833,1.70833 0,0.88542 0.21875,1.66667 0.22916,0.78125 0.66666,1.36458 0.44792,0.57292 1.10417,0.90625 0.66667,0.33333 1.54167,0.33333 0.75,0 1.41666,-0.22916 0.67709,-0.23959 1.36459,-0.69792 z"
         style="font-style:normal;font-variant:normal;font-weight:normal;font-stretch:normal;font-size:21.33333397px;font-family:'Abyssinica SIL';-inkscape-font-specification:'Abyssinica SIL';fill:#ffffff"
         id="path903"
         inkscape:connector-curvature="0" />
      <path
         d="m 552.99936,402.4668 q 0,1.13541 -0.36458,2.125 -0.35417,0.97916 -1.02084,1.70833 -0.65625,0.71875 -1.60416,1.13542 -0.9375,0.41666 -2.10417,0.41666 -1.16667,0 -2.10417,-0.40625 -0.9375,-0.41666 -1.59375,-1.13541 -0.65625,-0.71875 -1.01041,-1.69792 -0.34375,-0.98958 -0.34375,-2.14583 0,-1.13542 0.35416,-2.125 0.35417,-0.98959 1.02084,-1.71875 0.66666,-0.73959 1.60416,-1.15625 0.94792,-0.41667 2.13542,-0.41667 1.1875,0 2.125,0.42708 0.9375,0.42709 1.58333,1.16667 0.64584,0.72917 0.97917,1.71875 0.34375,0.97917 0.34375,2.10417 z m -2.21875,-0.0208 q 0,-0.875 -0.17708,-1.67708 -0.16667,-0.80208 -0.52084,-1.41667 -0.35416,-0.61458 -0.88541,-0.97916 -0.53125,-0.36459 -1.25,-0.36459 -0.73959,0 -1.28125,0.36459 -0.54167,0.36458 -0.89584,0.97916 -0.34375,0.61459 -0.51041,1.41667 -0.16667,0.80208 -0.16667,1.67708 0,0.86459 0.16667,1.66667 0.17708,0.80208 0.53125,1.41667 0.35416,0.61458 0.88541,0.98958 0.53125,0.36458 1.25,0.36458 0.72917,0 1.27084,-0.36458 0.54166,-0.36458 0.88541,-0.97917 0.35417,-0.61458 0.52084,-1.41666 0.17708,-0.80209 0.17708,-1.67709 z"
         style="font-style:normal;font-variant:normal;font-weight:normal;font-stretch:normal;font-size:21.33333397px;font-family:'Abyssinica SIL';-inkscape-font-specification:'Abyssinica SIL';fill:#ffffff"
         id="path905"
         inkscape:connector-curvature="0" />
      <path
         d="m 566.63478,407.5918 v -0.83334 l 0.89583,-0.0625 q 0.19792,-0.0208 0.32292,-0.14583 0.125,-0.125 0.125,-0.32292 v -5.4375 q 0,-0.5 -0.0937,-0.89583 -0.0937,-0.40625 -0.32292,-0.6875 -0.21875,-0.28125 -0.58333,-0.4375 -0.36459,-0.15625 -0.89584,-0.15625 -0.27083,0 -0.57291,0.0521 -0.29167,0.0417 -0.59375,0.125 -0.29167,0.0729 -0.58334,0.1875 -0.28125,0.10417 -0.53125,0.22917 v 7.02083 q 0,0.19792 0.125,0.32292 0.125,0.125 0.32292,0.14583 l 0.89583,0.0625 v 0.83334 h -4.67708 v -0.83334 l 0.89583,-0.0625 q 0.19792,-0.0208 0.32292,-0.14583 0.125,-0.125 0.125,-0.32292 v -5.57291 q 0,-0.44792 -0.10417,-0.82292 -0.0937,-0.38542 -0.32291,-0.64583 -0.21875,-0.27084 -0.58334,-0.41667 -0.35416,-0.15625 -0.86458,-0.15625 -0.30208,0 -0.63542,0.0625 -0.32291,0.0521 -0.625,0.14583 -0.30208,0.0833 -0.57291,0.19792 -0.26042,0.10417 -0.44792,0.20833 v 7 q 0,0.19792 0.125,0.32292 0.125,0.125 0.32292,0.14583 l 0.89583,0.0625 v 0.83334 h -4.82292 v -0.83334 l 1.04167,-0.0625 q 0.19792,-0.0208 0.32292,-0.14583 0.125,-0.125 0.125,-0.32292 v -7.40625 h -1.46875 v -0.69791 l 2.58333,-0.8125 h 0.875 v 1.0625 q 0.35417,-0.21875 0.78125,-0.44792 0.4375,-0.22917 0.89583,-0.42708 0.45834,-0.19792 0.91667,-0.32292 0.46875,-0.125 0.88542,-0.125 0.45833,0 0.83333,0.13542 0.375,0.125 0.65625,0.34375 0.29167,0.20833 0.5,0.47916 0.21875,0.26042 0.35417,0.52084 0.32291,-0.19792 0.78125,-0.45834 0.45833,-0.26041 0.96875,-0.47916 0.51041,-0.22917 1.02083,-0.38542 0.51042,-0.15625 0.9375,-0.15625 0.84375,0 1.375,0.3125 0.53125,0.30208 0.83333,0.78125 0.3125,0.46875 0.42709,1.05208 0.11458,0.58334 0.11458,1.125 v 5.90625 q 0,0.19792 0.125,0.32292 0.13542,0.125 0.32292,0.14583 l 1.03125,0.0625 v 0.83334 z"
         style="font-style:normal;font-variant:normal;font-weight:normal;font-stretch:normal;font-size:21.33333397px;font-family:'Abyssinica SIL';-inkscape-font-specification:'Abyssinica SIL';fill:#ffffff"
         id="path907"
         inkscape:connector-curvature="0" />
    </g>
    <flowRoot
       transform="matrix(0.26458333,0,0,0.26458333,0,37.976058)"
       style="font-style:normal;font-variant:normal;font-weight:normal;font-stretch:normal;font-size:40px;line-height:125%;font-family:'Abyssinica SIL';-inkscape-font-specification:'Abyssinica SIL';letter-spacing:0px;word-spacing:0px;fill:#000000;fill-opacity:1;stroke:none;stroke-width:1px;stroke-linecap:butt;stroke-linejoin:miter;stroke-opacity:1"
       id="flowRoot831"
       xml:space="preserve"><flowRegion
         style="font-style:normal;font-variant:normal;font-weight:normal;font-stretch:normal;font-family:'Abyssinica SIL';-inkscape-font-specification:'Abyssinica SIL'"
         id="flowRegion827"><rect
           style="font-style:normal;font-variant:normal;font-weight:normal;font-stretch:normal;font-family:'Abyssinica SIL';-inkscape-font-specification:'Abyssinica SIL'"
           y="368.82275"
           x="107.91569"
           height="172.15126"
           width="918.13989"
           id="rect825" /></flowRegion><flowPara
         style="font-style:normal;font-variant:normal;font-weight:normal;font-stretch:normal;font-size:21.33333397px;font-family:'Abyssinica SIL';-inkscape-font-specification:'Abyssinica SIL'"
         id="flowPara829">Music: Creative Commons, www.bensound.com</flowPara></flowRoot>  </g>
</svg>
