<?xml version="1.0" encoding="UTF-8" standalone="no"?>
<!-- Created with Inkscape (http://www.inkscape.org/) -->

<svg
   xmlns:dc="http://purl.org/dc/elements/1.1/"
   xmlns:cc="http://creativecommons.org/ns#"
   xmlns:rdf="http://www.w3.org/1999/02/22-rdf-syntax-ns#"
   xmlns:svg="http://www.w3.org/2000/svg"
   xmlns="http://www.w3.org/2000/svg"
   xmlns:sodipodi="http://sodipodi.sourceforge.net/DTD/sodipodi-0.dtd"
   xmlns:inkscape="http://www.inkscape.org/namespaces/inkscape"
   width="70"
   height="70"
   viewBox="0 0 18.520833 18.520834"
   version="1.1"
   id="svg2779"
   inkscape:version="0.92.1 r15371"
   sodipodi:docname="firtree.svg">
  <defs
     id="defs2773" />
  <sodipodi:namedview
     id="base"
     pagecolor="#ffffff"
     bordercolor="#666666"
     borderopacity="1.0"
     inkscape:pageopacity="0.0"
     inkscape:pageshadow="2"
     inkscape:zoom="8"
     inkscape:cx="37.16659"
     inkscape:cy="32.119431"
     inkscape:document-units="px"
     inkscape:current-layer="layer1"
     showgrid="false"
     units="px"
     inkscape:window-width="1920"
     inkscape:window-height="1018"
     inkscape:window-x="-8"
     inkscape:window-y="-8"
     inkscape:window-maximized="1"
     inkscape:lockguides="true" />
  <metadata
     id="metadata2776">
    <rdf:RDF>
      <cc:Work
         rdf:about="">
        <dc:format>image/svg+xml</dc:format>
        <dc:type
           rdf:resource="http://purl.org/dc/dcmitype/StillImage" />
        <dc:title></dc:title>
      </cc:Work>
    </rdf:RDF>
  </metadata>
  <g
     inkscape:label="Layer 1"
     inkscape:groupmode="layer"
     id="layer1"
     transform="translate(0,-278.47915)">
    <path
       sodipodi:nodetypes="cccccc"
       inkscape:connector-curvature="0"
       id="path1303-6"
       d="m 8.2921158,284.76457 0.943237,-1.81819 0.9447222,1.81742 0.0049,11.94616 -1.8879522,7.9e-4 z"
       style="fill:#502d16;fill-opacity:1;stroke-width:0.34224388" />
    <path
       sodipodi:nodetypes="ccc"
       inkscape:connector-curvature="0"
       id="path1349-5"
       d="m 10.139324,291.19597 c -0.9782881,-0.55994 -1.1932,-2.21888 -1.6206913,-3.72721 0.5750398,0.69065 0.7243712,2.00069 1.6206913,3.72721 z"
       style="fill:#784421;fill-opacity:1;fill-rule:evenodd;stroke:none;stroke-width:0.57206738px;stroke-linecap:butt;stroke-linejoin:miter;stroke-opacity:1" />
    <path
       style="fill:#784421;fill-opacity:1;fill-rule:evenodd;stroke:none;stroke-width:0.21103097px;stroke-linecap:butt;stroke-linejoin:miter;stroke-opacity:1"
       d="m 8.4463588,290.5149 c 0.4255453,-0.3586 0.6428423,-0.51812 1.0482684,-0.74767 -0.175452,0.23027 -0.4992907,0.62263 -1.0482684,0.74767 z"
       id="path1345-7-3"
       inkscape:connector-curvature="0"
       sodipodi:nodetypes="ccc" />
    <path
       style="fill:#502d16;fill-opacity:1;fill-rule:evenodd;stroke:none;stroke-width:0.16070978px;stroke-linecap:butt;stroke-linejoin:miter;stroke-opacity:1"
       d="m 12.427922,286.59421 c -0.274503,-0.14522 -0.374096,-0.17939 -0.562196,-0.2848 -0.167765,-0.094 -0.355778,-0.23267 -0.289082,-0.28721 0.05818,-0.004 0.353154,0.20737 0.851296,0.572 z"
       id="path1345-7-1-1-8"
       inkscape:connector-curvature="0"
       sodipodi:nodetypes="csccc" />
    <path
       style="fill:#784421;fill-opacity:1;fill-rule:evenodd;stroke:none;stroke-width:0.25400391px;stroke-linecap:butt;stroke-linejoin:miter;stroke-opacity:1"
       d="m 9.7013329,289.61013 c 0.058441,-0.66666 0.1083148,-0.98675 0.2591833,-1.52525 0.045899,0.34593 0.1028728,0.95625 -0.2591833,1.52525 z"
       id="path1345-7-3-2"
       inkscape:connector-curvature="0"
       sodipodi:nodetypes="ccc" />
    <path
       style="opacity:1;fill:#165016;fill-opacity:1;stroke:none;stroke-width:0.09968491;stroke-miterlimit:4;stroke-dasharray:none;stroke-opacity:1"
       d="m 6.0209564,288.50515 c -1.9285125,-0.59147 1.8471821,-3.08185 3.0473488,-3.60274 1.7443508,0.77799 4.8995298,2.83596 3.8607608,3.3832 -1.315065,0.69279 -5.2370276,0.73206 -6.9081096,0.21954 z"
       id="path4832"
       inkscape:connector-curvature="0"
       sodipodi:nodetypes="scss" />
    <path
       style="opacity:1;fill:#217821;fill-opacity:1;stroke:none;stroke-width:0.09968491;stroke-miterlimit:4;stroke-dasharray:none;stroke-opacity:1"
       d="m 6.7568285,288.29018 c -1.9285125,-0.59147 1.1113097,-2.86688 2.3114767,-3.38777 1.7443498,0.77799 3.1218598,2.6706 2.0830908,3.21784 -1.3150653,0.69279 -2.7234855,0.68245 -4.3945675,0.16993 z"
       id="path4832-1"
       inkscape:connector-curvature="0"
       sodipodi:nodetypes="scss" />
    <path
       style="opacity:1;fill:#165016;fill-opacity:1;stroke:none;stroke-width:0.09968491;stroke-miterlimit:4;stroke-dasharray:none;stroke-opacity:1"
       d="m 6.0228348,286.1426 c -1.9285125,-0.59147 1.8471821,-3.08185 3.0473488,-3.60274 1.7443504,0.77799 4.8995294,2.83596 3.8607604,3.3832 -1.315065,0.69279 -5.2370272,0.73206 -6.9081092,0.21954 z"
       id="path4832-2"
       inkscape:connector-curvature="0"
       sodipodi:nodetypes="scss" />
    <path
       style="opacity:1;fill:#217821;fill-opacity:1;stroke:none;stroke-width:0.09263859;stroke-miterlimit:4;stroke-dasharray:none;stroke-opacity:1"
       d="m 6.8613631,285.87928 c -1.7624864,-0.55893 1.0156367,-2.70914 2.112481,-3.20137 1.5941779,0.73518 2.8530979,2.52366 1.9037569,3.04079 -1.2018511,0.65467 -2.4890199,0.6449 -4.0162379,0.16058 z"
       id="path4832-1-3"
       inkscape:connector-curvature="0"
       sodipodi:nodetypes="scss" />
    <path
       style="fill:#502d16;fill-opacity:1;fill-rule:evenodd;stroke:none;stroke-width:0.21342832px;stroke-linecap:butt;stroke-linejoin:miter;stroke-opacity:1"
       d="m 6.6711238,284.54414 c 0.334092,-0.22502 0.432197,-0.31793 0.668493,-0.46853 0.210724,-0.13433 0.488476,-0.26458 0.519385,-0.15523 -0.02701,0.0691 -0.45545,0.27698 -1.18787,0.62379 z"
       id="path1345-7-1-1-8-6"
       inkscape:connector-curvature="0"
       sodipodi:nodetypes="csccc" />
    <path
       style="opacity:1;fill:#165016;fill-opacity:1;stroke:none;stroke-width:0.0868338;stroke-miterlimit:4;stroke-dasharray:none;stroke-opacity:1"
       d="m 6.4597644,283.85169 c -1.6576246,-0.52214 1.5877183,-2.72062 2.619304,-3.18045 1.4993316,0.6868 4.2113196,2.50354 3.3184606,2.98664 -1.130345,0.61158 -4.5014106,0.64625 -5.9377646,0.19381 z"
       id="path4832-5"
       inkscape:connector-curvature="0"
       sodipodi:nodetypes="scss" />
    <path
       style="opacity:1;fill:#217821;fill-opacity:1;stroke:none;stroke-width:0.08028509;stroke-miterlimit:4;stroke-dasharray:none;stroke-opacity:1"
       d="m 7.0896345,283.65734 c -1.5994249,-0.46259 0.9216722,-2.24222 1.9170388,-2.64962 1.4466877,0.60848 2.5891347,2.08872 1.7276247,2.51672 -1.0906574,0.54184 -2.2587404,0.53375 -3.6446635,0.1329 z"
       id="path4832-1-6"
       inkscape:connector-curvature="0"
       sodipodi:nodetypes="scss" />
    <path
       style="fill:#502d16;fill-opacity:1;fill-rule:evenodd;stroke:none;stroke-width:0.07515603px;stroke-linecap:butt;stroke-linejoin:miter;stroke-opacity:1"
       d="m 7.5414535,284.46517 c -0.056597,-0.11367 -0.085015,-0.15115 -0.1212778,-0.23026 -0.032363,-0.0705 -0.054396,-0.15645 -0.00236,-0.1472 0.026865,0.0174 0.064046,0.15047 0.1236521,0.37747 z"
       id="path1345-7-1-1-8-6-6"
       inkscape:connector-curvature="0"
       sodipodi:nodetypes="csccc" />
    <path
       style="opacity:1;fill:#165016;fill-opacity:1;stroke:none;stroke-width:0.04843503;stroke-miterlimit:4;stroke-dasharray:none;stroke-opacity:1"
       d="m 7.0428189,285.49456 c 0.168042,-0.17708 0.17272,-0.1957 0.272962,-0.29051 0.06639,-0.0412 0.06782,0.0425 0.03467,0.0663 -0.193567,0.15287 -0.124866,0.0934 -0.307671,0.22422 z"
       id="path4715-4-5"
       inkscape:connector-curvature="0"
       sodipodi:nodetypes="cccc" />
    <path
       style="opacity:1;fill:#165016;fill-opacity:1;stroke:none;stroke-width:0.07332253;stroke-miterlimit:4;stroke-dasharray:none;stroke-opacity:1"
       d="m 9.9605162,288.08488 c -0.3329871,-0.19999 -0.3718912,-0.20753 -0.547105,-0.32528 -0.069387,-0.0749 0.1122321,-0.0644 0.1538533,-0.0265 0.2729493,0.22303 0.1646799,0.14311 0.3932301,0.35181 z"
       id="path4715-4-4"
       inkscape:connector-curvature="0"
       sodipodi:nodetypes="cccc" />
    <path
       style="opacity:1;fill:#165016;fill-opacity:1;stroke:none;stroke-width:0.08762398;stroke-miterlimit:4;stroke-dasharray:none;stroke-opacity:1"
       d="m 8.5862105,288.39557 c 0.1582065,-0.32801 0.1478522,-0.35414 0.2538908,-0.53637 0.093457,-0.094 0.1866643,0.008 0.1434662,0.0598 -0.2373217,0.31442 -0.1587659,0.19629 -0.397445,0.47648 z"
       id="path4715-4-42"
       inkscape:connector-curvature="0"
       sodipodi:nodetypes="cccc" />
    <path
       style="opacity:1;fill:#165016;fill-opacity:1;stroke:none;stroke-width:0.07256423;stroke-miterlimit:4;stroke-dasharray:none;stroke-opacity:1"
       d="m 11.179758,287.3081 c -0.294802,-0.22006 -0.32388,-0.22425 -0.48324,-0.35705 -0.07268,-0.091 0.05471,-0.10492 0.09592,-0.0599 0.261673,0.2607 0.160775,0.16892 0.387318,0.41704 z"
       id="path4715-4-9"
       inkscape:connector-curvature="0"
       sodipodi:nodetypes="cccc" />
    <path
       style="opacity:1;fill:#165016;fill-opacity:1;stroke:none;stroke-width:0.04843503;stroke-miterlimit:4;stroke-dasharray:none;stroke-opacity:1"
       d="m 6.5347337,287.83815 c 0.1954617,-0.14624 0.2032079,-0.16381 0.3179841,-0.24038 0.072384,-0.0295 0.059702,0.0533 0.023014,0.0712 -0.2165464,0.11809 -0.138803,0.071 -0.3410366,0.16921 z"
       id="path4715-4-0"
       inkscape:connector-curvature="0"
       sodipodi:nodetypes="cccc" />
    <path
       style="opacity:1;fill:#165016;fill-opacity:1;stroke:none;stroke-width:0.07366781;stroke-miterlimit:4;stroke-dasharray:none;stroke-opacity:1"
       d="m 8.6214561,285.92386 c 0.1226801,-0.30118 0.1147924,-0.3252 0.1969067,-0.49251 0.072173,-0.0862 0.1435671,0.009 0.1101851,0.0553 -0.1834994,0.2886 -0.1227162,0.18016 -0.307159,0.4373 z"
       id="path4715-4"
       inkscape:connector-curvature="0"
       sodipodi:nodetypes="cccc" />
    <path
       style="opacity:1;fill:#165016;fill-opacity:1;stroke:none;stroke-width:0.07366781;stroke-miterlimit:4;stroke-dasharray:none;stroke-opacity:1"
       d="m 10.639054,285.02965 c -0.280348,-0.16482 -0.305254,-0.16048 -0.458979,-0.26585 -0.0749,-0.0838 0.0296,-0.14077 0.07061,-0.10107 0.259132,0.22319 0.160587,0.14741 0.388451,0.367 z"
       id="path4715-4-94"
       inkscape:connector-curvature="0"
       sodipodi:nodetypes="cccc" />
    <path
       style="opacity:1;fill:#165016;fill-opacity:1;stroke:none;stroke-width:0.07366781;stroke-miterlimit:4;stroke-dasharray:none;stroke-opacity:1"
       d="m 7.2105926,283.03561 c 0.2810803,-0.16354 0.2895057,-0.18738 0.4567107,-0.26971 0.1097793,-0.0242 0.1077736,0.0953 0.053454,0.1111 -0.3215671,0.11646 -0.2072023,0.0677 -0.5102981,0.15868 z"
       id="path4715-4-54"
       inkscape:connector-curvature="0"
       sodipodi:nodetypes="cccc"
       inkscape:transform-center-x="0.044290801"
       inkscape:transform-center-y="0.031745837" />
    <path
       style="opacity:1;fill:#165016;fill-opacity:1;stroke:none;stroke-width:0.05179408;stroke-miterlimit:4;stroke-dasharray:none;stroke-opacity:1"
       d="m 10.57657,283.23066 c -0.164991,-0.15774 -0.182327,-0.15836 -0.270681,-0.25543 -0.03846,-0.0702 0.03974,-0.0949 0.06167,-0.0608 0.142508,0.19575 0.08703,0.12772 0.209052,0.3163 z"
       id="path4715-4-8"
       inkscape:connector-curvature="0"
       sodipodi:nodetypes="cccc" />
  </g>
</svg>
