<?xml version="1.0" encoding="UTF-8" standalone="no"?>
<!-- Created with Inkscape (http://www.inkscape.org/) -->

<svg
   xmlns:dc="http://purl.org/dc/elements/1.1/"
   xmlns:cc="http://creativecommons.org/ns#"
   xmlns:rdf="http://www.w3.org/1999/02/22-rdf-syntax-ns#"
   xmlns:svg="http://www.w3.org/2000/svg"
   xmlns="http://www.w3.org/2000/svg"
   xmlns:sodipodi="http://sodipodi.sourceforge.net/DTD/sodipodi-0.dtd"
   xmlns:inkscape="http://www.inkscape.org/namespaces/inkscape"
   width="93.378258"
   height="194.10727"
   viewBox="0 0 24.70633 51.35755"
   version="1.1"
   id="svg2779"
   inkscape:version="0.92.2 (unknown)"
   sodipodi:docname="leaftree.svg">
  <defs
     id="defs2773" />
  <sodipodi:namedview
     id="base"
     pagecolor="#ffffff"
     bordercolor="#666666"
     borderopacity="1.0"
     inkscape:pageopacity="0.0"
     inkscape:pageshadow="2"
     inkscape:zoom="9.4354562"
     inkscape:cx="50.963891"
     inkscape:cy="82.680194"
     inkscape:document-units="px"
     inkscape:current-layer="layer1"
     showgrid="false"
     units="px"
     inkscape:window-width="1920"
     inkscape:window-height="1017"
     inkscape:window-x="0"
     inkscape:window-y="30"
     inkscape:window-maximized="1"
     inkscape:lockguides="true"
     inkscape:snap-global="false" />
  <metadata
     id="metadata2776">
    <rdf:RDF>
      <cc:Work
         rdf:about="">
        <dc:format>image/svg+xml</dc:format>
        <dc:type
           rdf:resource="http://purl.org/dc/dcmitype/StillImage" />
        <dc:title />
      </cc:Work>
    </rdf:RDF>
  </metadata>
  <g
     inkscape:label="Layer 1"
     inkscape:groupmode="layer"
     id="layer1"
     transform="translate(4.9746847,-246.20978)">
    <path
       style="fill:#446404;fill-opacity:1;fill-rule:evenodd;stroke:none;stroke-width:0.32931146px;stroke-linecap:butt;stroke-linejoin:miter;stroke-opacity:1"
       d="m 8.0403782,296.68778 c 0,0 2.2620158,-3.29603 2.4174828,-5.97101 1.041531,2.2588 -1.1225018,6.83584 -1.1225018,6.83584 z"
       id="path1430"
       inkscape:connector-curvature="0"
       sodipodi:nodetypes="cccc" />
    <path
       sodipodi:nodetypes="cccccc"
       inkscape:connector-curvature="0"
       id="path1303-6"
       d="m 4.9284256,266.15497 2.0249348,-4.684 2.1129529,4.79415 0.3773881,31.30021 -4.95107,0.002 z"
       style="fill:#654617;fill-opacity:1;stroke-width:0.89751887" />
    <path
       sodipodi:nodetypes="ccc"
       inkscape:connector-curvature="0"
       id="path1349-5"
       d="m 7.8426714,285.39745 c -2.328565,-1.82094 -2.262809,-6.20729 -2.80538,-10.28266 1.232857,2.00861 1.12803,5.46481 2.80538,10.28266 z"
       style="fill:#513813;fill-opacity:1;fill-rule:evenodd;stroke:none;stroke-width:1.50022054px;stroke-linecap:butt;stroke-linejoin:miter;stroke-opacity:1" />
    <path
       style="fill:#513813;fill-opacity:1;fill-rule:evenodd;stroke:none;stroke-width:1.50022054px;stroke-linecap:butt;stroke-linejoin:miter;stroke-opacity:1"
       d="m 7.8426714,285.39745 c 2.084501,-3.64109 1.197175,-6.78289 0.613411,-10.85258 -0.641497,2.26783 -0.306483,5.7603 -0.613411,10.85258 z"
       id="path1351-3"
       inkscape:connector-curvature="0"
       sodipodi:nodetypes="ccc" />
    <path
       sodipodi:nodetypes="ccc"
       inkscape:connector-curvature="0"
       id="path1347-4"
       d="m 5.5442764,275.80572 c -0.05689,-4.03812 0.256397,-5.84361 1.233981,-9.06965 0.06684,2.00563 -0.667041,4.80985 -1.233981,9.06965 z"
       style="fill:#513813;fill-opacity:1;fill-rule:evenodd;stroke:none;stroke-width:1.11580992px;stroke-linecap:butt;stroke-linejoin:miter;stroke-opacity:1" />
    <path
       style="fill:#513813;fill-opacity:1;fill-rule:evenodd;stroke:none;stroke-width:1.11580992px;stroke-linecap:butt;stroke-linejoin:miter;stroke-opacity:1"
       d="m 8.4560824,272.99534 c -1.186984,-3.86014 -1.392568,-5.68101 -1.358843,-9.05179 0.62658,1.90642 0.7085,4.80394 1.358843,9.05179 z"
       id="path1345-7"
       inkscape:connector-curvature="0"
       sodipodi:nodetypes="ccc" />
    <path
       style="fill:#73a707;fill-opacity:1;fill-rule:evenodd;stroke:none;stroke-width:0.2428128px;stroke-linecap:butt;stroke-linejoin:miter;stroke-opacity:1"
       d="m 3.5521546,297.60837 c 0,0 -1.071113,-2.13802 -2.036894,-3.0282 2.183984,0.6919 2.781851,1.42008 2.781851,1.42008 0,0 0.824186,-3.36495 2.665196,-4.18538 -0.843144,1.57131 -1.143757,4.80929 -1.143757,4.80929 0,0 0.781821,-1.30304 1.8702456,-1.68633 -0.597865,0.86618 -0.9811136,2.6061 -0.9811136,2.6061 z"
       id="path1432"
       inkscape:connector-curvature="0"
       sodipodi:nodetypes="cccccccc" />
    <path
       style="fill:#513813;fill-opacity:1;fill-rule:evenodd;stroke:none;stroke-width:1.11580992px;stroke-linecap:butt;stroke-linejoin:miter;stroke-opacity:1"
       d="m 4.8978319,268.06448 c 1.055789,1.85423 1.653868,2.34122 2.206923,3.71766 0.493711,1.22873 0.993323,3.35373 1.088345,4.82179 -1.026287,-1.72445 -1.736562,-4.53478 -3.295386,-8.53943 z"
       id="path1345-7-1"
       inkscape:connector-curvature="0"
       sodipodi:nodetypes="cscc" />
    <path
       style="fill:#513813;fill-opacity:1;fill-rule:evenodd;stroke:none;stroke-width:0.40526438px;stroke-linecap:butt;stroke-linejoin:miter;stroke-opacity:1"
       d="m 4.9659914,284.07432 c 0.262498,-1.14793 0.41909,-1.69169 0.776346,-2.58382 -0.02942,0.62147 -0.114972,1.70981 -0.776346,2.58382 z"
       id="path1345-7-3"
       inkscape:connector-curvature="0"
       sodipodi:nodetypes="ccc" />
    <path
       style="opacity:1;fill:#73a707;fill-opacity:1;stroke:none;stroke-width:0.17045955;stroke-miterlimit:4;stroke-dasharray:none;stroke-opacity:1"
       d="m 19.2926,256.30458 c 0,0.68781 -1.178564,1.62873 -0.882127,2.52159 0,0 0.493537,1.44861 0.13912,1.74566 -0.652811,0.5471 -0.849145,0.4909 -1.219029,1.18121 -0.451989,0.84357 -0.190626,1.66386 -1.060324,2.39874 -0.422561,0.35704 -2.309064,0.88311 -2.755622,1.20643 -0.568383,0.41149 -0.720007,1.40548 -1.337745,1.71047 -0.608638,0.3005 -1.527284,-0.0716 -2.151383,0.14292 -1.2680216,0.43588 -1.4444326,0.85883 -2.8665246,0.85883 -1.747776,0 -0.735021,-0.35834 -2.236307,-1.00338 -0.7486872,-0.32167 -2.0974652,0.36245 -2.893777,-0.0931 -0.6337211,-0.36239 -0.6971774,-1.09259 -1.2907914,-1.58124 -0.7068231,-0.58184 -1.8913567,-0.29628 -2.5484134,-0.98363 -0.6644323,-0.69505 -0.154806,-0.93985 -0.6179559,-1.84127 -0.4222752,-0.82186 -1.1756235,-0.46263 -1.6368155,-1.31813 -0.2729886,-0.50637 -0.1179005,-1.93359 -0.2709839,-2.85234 -0.1748496,-1.04937 -0.6386057,-1.59377 -0.638606,-2.09301 5e-7,-0.75002 0.3695069,-1.59508 0.990691,-2.19467 0.5650187,-0.54539 0.025018,-1.86187 0.4354856,-2.50639 0.415752,-0.65283 1.57224,-0.48578 1.91366,-0.90482 0.3361277,-0.41257 0.138678,-1.41799 0.4557119,-1.82088 0.3484714,-0.44284 2.4121823,-0.5023 2.4121823,-0.5023 1.3182357,0.13243 1.7664214,-0.26238 2.5088555,-1.2511 0.3000486,-0.39958 1.2419188,-0.78345 1.9528318,-0.52761 0.857972,0.30877 1.456181,-0.38678 2.429921,-0.38678 0.634232,0 1.674172,0.88018 2.2121756,1.13602 0.728759,0.34655 1.372641,-0.49536 2.077621,-0.32986 0.755351,0.17729 0.678753,1.24173 1.324913,1.55663 0.500396,0.2439 1.58236,0.39421 2.047709,0.68036 0.43895,0.26991 0.242656,1.23397 0.599521,1.55905 0.318047,0.28973 1.297429,0.46288 1.590413,0.75697 0.219474,0.22029 0.440564,1.11873 2.02e-4,1.80836 -0.639163,1.00097 1.315402,1.13292 1.315404,2.92702 z"
       id="path4616"
       inkscape:connector-curvature="0"
       sodipodi:nodetypes="cssssssssssssssscssssssssssssssscc" />
    <path
       style="opacity:1;fill:#446404;fill-opacity:1;stroke:none;stroke-width:0.17045955;stroke-miterlimit:4;stroke-dasharray:none;stroke-opacity:1"
       d="m 19.2926,256.30458 c 0,0.68781 -1.178564,1.62873 -0.882127,2.52159 0,0 0.493537,1.44861 0.13912,1.74566 -0.652811,0.5471 -0.849145,0.4909 -1.219029,1.18121 -0.451989,0.84357 -0.190626,1.66386 -1.060324,2.39874 -0.422561,0.35704 -2.309064,0.88311 -2.755622,1.20643 -0.568383,0.41149 -0.720007,1.40548 -1.337745,1.71047 -0.608638,0.3005 -1.527284,-0.0716 -2.151383,0.14292 -1.2680216,0.43588 -1.4444326,0.85883 -2.8665266,0.85883 -1.747774,0 -0.735019,-0.35834 -2.236305,-1.00338 -0.748686,-0.32167 -2.0974654,0.36245 -2.8937768,-0.0931 -0.6337213,-0.36239 -0.6971776,-1.09259 -1.2907916,-1.58124 0.6931259,-0.41505 2.5400568,-0.7398 4.3734434,-0.89352 1.985706,-0.55565 1.327678,-0.71265 3.507729,-1.2493 0.747415,-1.49817 2.2340986,-0.27856 3.2461306,-1.84116 1.377239,-0.79594 2.926239,-1.2797 3.947643,-2.16212 0.704903,-1.14674 2.336646,-4.06516 3.479577,-2.94228 z"
       id="path4616-8"
       inkscape:connector-curvature="0"
       sodipodi:nodetypes="cssssssssssccccccc" />
    <path
       style="fill:#654617;fill-opacity:1;fill-rule:evenodd;stroke:none;stroke-width:1.11580992px;stroke-linecap:butt;stroke-linejoin:miter;stroke-opacity:1"
       d="m 19.731646,252.969 c -1.980659,0.79363 -2.592011,1.16235 -3.983414,1.68049 -1.24096,0.46209 -2.824367,0.83475 -2.863121,0.25019 0.221335,-0.31782 2.667001,-0.93145 6.846529,-1.93081 z"
       id="path1345-7-1-1"
       inkscape:connector-curvature="0"
       sodipodi:nodetypes="csccc" />
    <path
       style="fill:#654617;fill-opacity:1;fill-rule:evenodd;stroke:none;stroke-width:0.42145404px;stroke-linecap:butt;stroke-linejoin:miter;stroke-opacity:1"
       d="m 17.463309,252.40032 c -0.490637,0.65002 -0.620685,0.8936 -0.972161,1.33656 -0.313484,0.39508 -0.750969,0.82392 -0.864308,0.62848 0.01521,-0.15211 0.684371,-0.82771 1.836443,-1.96509 z"
       id="path1345-7-1-1-8"
       inkscape:connector-curvature="0"
       sodipodi:nodetypes="csccc" />
    <path
       style="fill:#654617;fill-opacity:1;fill-rule:evenodd;stroke:none;stroke-width:1.2224648px;stroke-linecap:butt;stroke-linejoin:miter;stroke-opacity:1"
       d="m -1.8643134,267.83016 c 1.5018322,-1.80795 2.8133814,-3.26674 3.8869081,-4.49669 0.7156505,-0.81992 0.2175746,-0.88454 0.7665848,-1.02916 0.1855043,-0.0487 0.840773,-0.0416 0.9193272,0.10361 -0.060278,0.43527 -2.086645,2.29476 -5.5727538,5.42229 z"
       id="path1345-7-1-1-6"
       inkscape:connector-curvature="0"
       sodipodi:nodetypes="cssccc" />
    <path
       style="fill:#654617;fill-opacity:1;fill-rule:evenodd;stroke:none;stroke-width:0.42145404px;stroke-linecap:butt;stroke-linejoin:miter;stroke-opacity:1"
       d="m 0.6261177,263.88463 c 0.7101203,-0.39875 0.9269254,-0.56973 1.42653,-0.83458 0.445597,-0.23628 1.0183346,-0.45363 1.0437894,-0.22919 -0.074925,0.13322 -0.9588411,0.4838 -2.4703163,1.06377 z"
       id="path1345-7-1-1-8-2"
       inkscape:connector-curvature="0"
       sodipodi:nodetypes="csccc" />
    <path
       style="fill:#654617;fill-opacity:1;fill-rule:evenodd;stroke:none;stroke-width:0.42145404px;stroke-linecap:butt;stroke-linejoin:miter;stroke-opacity:1"
       d="m 3.1281133,265.51026 c -0.094912,-0.80887 -0.1693503,-1.07476 -0.2216475,-1.6378 -0.046642,-0.50218 -0.027046,-1.11447 0.1899713,-1.0516 0.094165,0.12038 0.077779,1.07116 0.031731,2.68943 z"
       id="path1345-7-1-1-8-9"
       inkscape:connector-curvature="0"
       sodipodi:nodetypes="csccc" />
    <path
       style="fill:#654617;fill-opacity:1;fill-rule:evenodd;stroke:none;stroke-width:0.55335134px;stroke-linecap:butt;stroke-linejoin:miter;stroke-opacity:1"
       d="m 0.4551426,251.29876 c 0.8433808,0.39475 1.226668,0.50271 1.7800093,0.78446 0.4934684,0.25123 0.9075766,0.59631 0.3277854,0.67152 -0.321921,-0.0184 -0.9993001,-0.54699 -2.107925,-1.45598 z"
       id="path1345-7-1-1-83"
       inkscape:connector-curvature="0"
       sodipodi:nodetypes="csccc" />
    <path
       style="opacity:1;fill:#446404;fill-opacity:1;stroke:none;stroke-width:0.17045955;stroke-miterlimit:4;stroke-dasharray:none;stroke-opacity:1"
       d="m 12.691429,258.4797 c 0.489111,0.0561 0.750371,0.27042 0.988028,0.5919 0.23909,0.32344 -0.495838,0.82176 -0.984509,0.76626 -0.492525,-0.11255 -0.748386,-0.26093 -0.828289,-0.65952 -0.09473,-0.47267 0.336113,-0.75413 0.825221,-0.69809 z"
       id="path4715"
       inkscape:connector-curvature="0"
       sodipodi:nodetypes="cscsc" />
    <path
       style="opacity:1;fill:#446404;fill-opacity:1;stroke:none;stroke-width:0.17045955;stroke-miterlimit:4;stroke-dasharray:none;stroke-opacity:1"
       d="m 7.3368634,260.83008 c 0.152378,0.46813 0.06601,0.79488 -0.127562,1.14466 -0.194724,0.35191 -0.953494,-0.10936 -1.105881,-0.57743 -0.10237,-0.49478 -0.07377,-0.78914 0.255463,-1.02754 0.390485,-0.28264 0.825606,-0.009 0.97798,0.46031 z"
       id="path4715-3"
       inkscape:connector-curvature="0"
       sodipodi:nodetypes="cscsc" />
    <path
       style="opacity:1;fill:#446404;fill-opacity:1;stroke:none;stroke-width:0.12701866;stroke-miterlimit:4;stroke-dasharray:none;stroke-opacity:1"
       d="m 15.885369,254.42377 c 0.272827,0.2376 0.352963,0.49109 0.38089,0.80835 0.02809,0.31913 -0.588987,0.36145 -0.861816,0.12379 -0.254773,-0.27785 -0.355134,-0.48382 -0.26125,-0.78966 0.111372,-0.36265 0.469344,-0.38015 0.742165,-0.14239 z"
       id="path4715-4"
       inkscape:connector-curvature="0"
       sodipodi:nodetypes="cscsc" />
    <path
       style="opacity:1;fill:#446404;fill-opacity:1;stroke:none;stroke-width:0.17045955;stroke-miterlimit:4;stroke-dasharray:none;stroke-opacity:1"
       d="m 0.1655919,258.74974 c -0.2465027,0.42617 -0.5473106,0.58021 -0.9369112,0.66989 -0.3919216,0.0901 -0.5557253,-0.78249 -0.3092312,-1.20863 0.2997242,-0.40675 0.5378584,-0.58216 0.9351922,-0.49646 0.4712008,0.10177 0.5574564,0.60905 0.3109502,1.0352 z"
       id="path4715-8"
       inkscape:connector-curvature="0"
       sodipodi:nodetypes="cscsc" />
    <path
       style="opacity:1;fill:#446404;fill-opacity:1;stroke:none;stroke-width:0.13888758;stroke-miterlimit:4;stroke-dasharray:none;stroke-opacity:1"
       d="m -1.4056784,257.00362 c -0.4096209,0.0427 -0.6626691,-0.0772 -0.9163475,-0.2839 -0.255191,-0.20796 0.2521071,-0.72273 0.6617279,-0.76545 0.422914,3.9e-4 0.6592988,0.0699 0.7985278,0.36428 0.1650836,0.34887 -0.1342853,0.64236 -0.5439082,0.68507 z"
       id="path4715-1"
       inkscape:connector-curvature="0"
       sodipodi:nodetypes="cscsc"
       inkscape:transform-center-x="-1.6707778"
       inkscape:transform-center-y="-2.686987" />
    <path
       style="opacity:1;fill:#446404;fill-opacity:1;stroke:none;stroke-width:0.12701866;stroke-miterlimit:4;stroke-dasharray:none;stroke-opacity:1"
       d="m 16.107778,254.04366 c 0.358787,0.0464 0.566032,0.21293 0.765188,0.46149 0.20033,0.24992 -0.210951,0.48295 -0.569775,0.43644 -0.366084,-0.0899 -0.642598,-0.0611 -0.734046,-0.36783 -0.108408,-0.36356 0.179796,-0.5766 0.538669,-0.53003 z"
       id="path4715-4-0"
       inkscape:connector-curvature="0"
       sodipodi:nodetypes="cscscc" />
    <path
       style="opacity:1;fill:#446404;fill-opacity:1;stroke:none;stroke-width:0.12701866;stroke-miterlimit:4;stroke-dasharray:none;stroke-opacity:1"
       d="m 13.861854,251.19192 c 0.257132,-0.25437 0.515853,-0.31564 0.834326,-0.31999 0.32027,-0.006 0.251336,0.46323 -0.0058,0.71768 -0.295946,0.2334 -0.443133,0.46937 -0.741294,0.35299 -0.353415,-0.13794 -0.344349,-0.4962 -0.08704,-0.75065 z"
       id="path4715-4-0-4"
       inkscape:connector-curvature="0"
       sodipodi:nodetypes="cscscc" />
    <path
       style="opacity:1;fill:#446404;fill-opacity:1;stroke:none;stroke-width:0.19655801;stroke-miterlimit:4;stroke-dasharray:none;stroke-opacity:1"
       d="m 4.6617404,249.38028 c -0.143522,-0.54962 -0.01815,-0.90543 0.234381,-1.2717 0.254001,-0.36853 1.107684,0.26092 1.251673,0.80977 0.083,0.5724 0.02766,0.90005 -0.375368,1.12119 -0.477967,0.26224 -0.966719,-0.11046 -1.110176,-0.6601 z"
       id="path4715-14"
       inkscape:connector-curvature="0"
       sodipodi:nodetypes="cscsc"
       inkscape:transform-center-x="5.1815673"
       inkscape:transform-center-y="3.377912" />
    <path
       style="opacity:1;fill:#73a707;fill-opacity:1;stroke:none;stroke-width:0.17045955;stroke-miterlimit:4;stroke-dasharray:none;stroke-opacity:1"
       d="m 7.8503274,266.09406 c -0.161647,0.46505 -0.427989,0.67308 -0.793654,0.83469 -0.367875,0.16259 -0.693408,-0.66354 -0.532397,-1.12826 0.21757,-0.45597 0.418328,-0.67319 0.8247,-0.66401 0.481923,0.011 0.662366,0.49288 0.500716,0.9579 z"
       id="path4715-41"
       inkscape:connector-curvature="0"
       sodipodi:nodetypes="cscsc" />
    <path
       style="opacity:1;fill:#73a707;fill-opacity:1;stroke:none;stroke-width:0.12592034;stroke-miterlimit:4;stroke-dasharray:none;stroke-opacity:1"
       d="m 13.794392,262.67905 c 0.144365,0.28417 0.382196,0.41131 0.708739,0.51008 0.328515,0.0994 0.619217,-0.40549 0.475433,-0.68947 -0.194273,-0.27861 -0.37357,-0.41137 -0.736462,-0.40576 -0.43036,0.006 -0.591498,0.3012 -0.447144,0.58536 z"
       id="path4715-41-4"
       inkscape:connector-curvature="0"
       sodipodi:nodetypes="cscsc" />
    <rect
       style="fill:#ff00ff;fill-opacity:1;stroke:none;stroke-width:1.29446316;stroke-miterlimit:4;stroke-dasharray:none;stroke-opacity:1"
       id="rect839"
       width="18.520834"
       height="18.520834"
       x="24.072746"
       y="278.99344"
       ry="0" />
  </g>
</svg>
