<?xml version="1.0" encoding="UTF-8" standalone="no"?>
<!-- Created with Inkscape (http://www.inkscape.org/) -->

<svg
   xmlns:dc="http://purl.org/dc/elements/1.1/"
   xmlns:cc="http://creativecommons.org/ns#"
   xmlns:rdf="http://www.w3.org/1999/02/22-rdf-syntax-ns#"
   xmlns:svg="http://www.w3.org/2000/svg"
   xmlns="http://www.w3.org/2000/svg"
   xmlns:sodipodi="http://sodipodi.sourceforge.net/DTD/sodipodi-0.dtd"
   xmlns:inkscape="http://www.inkscape.org/namespaces/inkscape"
   width="70"
   height="70"
   viewBox="0 0 18.520833 18.520834"
   version="1.1"
   id="svg2779"
   inkscape:version="0.92.1 r15371"
   sodipodi:docname="leaftree.svg">
  <defs
     id="defs2773" />
  <sodipodi:namedview
     id="base"
     pagecolor="#ffffff"
     bordercolor="#666666"
     borderopacity="1.0"
     inkscape:pageopacity="0.0"
     inkscape:pageshadow="2"
     inkscape:zoom="5.6568543"
     inkscape:cx="67.073254"
     inkscape:cy="24.978679"
     inkscape:document-units="px"
     inkscape:current-layer="layer1"
     showgrid="false"
     units="px"
     inkscape:window-width="1920"
     inkscape:window-height="1018"
     inkscape:window-x="-8"
     inkscape:window-y="-8"
     inkscape:window-maximized="1"
     inkscape:lockguides="true" />
  <metadata
     id="metadata2776">
    <rdf:RDF>
      <cc:Work
         rdf:about="">
        <dc:format>image/svg+xml</dc:format>
        <dc:type
           rdf:resource="http://purl.org/dc/dcmitype/StillImage" />
        <dc:title />
      </cc:Work>
    </rdf:RDF>
  </metadata>
  <g
     inkscape:label="Layer 1"
     inkscape:groupmode="layer"
     id="layer1"
     transform="translate(0,-278.47915)">
    <path
       style="fill:#446404;fill-opacity:1;fill-rule:evenodd;stroke:none;stroke-width:0.12557378px;stroke-linecap:butt;stroke-linejoin:miter;stroke-opacity:1"
       d="m 9.8010758,292.80656 c 0,0 0.8625572,-1.25685 0.9218402,-2.27688 0.397159,0.86133 -0.428035,2.60666 -0.428035,2.60666 z"
       id="path1430"
       inkscape:connector-curvature="0"
       sodipodi:nodetypes="cccc" />
    <path
       sodipodi:nodetypes="cccccc"
       inkscape:connector-curvature="0"
       id="path1303-6"
       d="m 8.2921158,284.76457 0.943237,-1.81819 0.9447222,1.81742 0.0049,11.94616 -1.8879522,7.9e-4 z"
       style="fill:#654617;fill-opacity:1;stroke-width:0.34224388" />
    <path
       sodipodi:nodetypes="ccc"
       inkscape:connector-curvature="0"
       id="path1349-5"
       d="m 9.5744671,292.07008 c -0.887934,-0.69437 -0.862859,-2.36698 -1.069754,-3.92101 0.470116,0.76593 0.430143,2.08385 1.069754,3.92101 z"
       style="fill:#513813;fill-opacity:1;fill-rule:evenodd;stroke:none;stroke-width:0.57206738px;stroke-linecap:butt;stroke-linejoin:miter;stroke-opacity:1" />
    <path
       style="fill:#513813;fill-opacity:1;fill-rule:evenodd;stroke:none;stroke-width:0.57206738px;stroke-linecap:butt;stroke-linejoin:miter;stroke-opacity:1"
       d="m 9.5744671,292.07008 c 0.7948659,-1.38843 0.4565089,-2.58647 0.233907,-4.13833 -0.244617,0.86477 -0.116869,2.19653 -0.233907,4.13833 z"
       id="path1351-3"
       inkscape:connector-curvature="0"
       sodipodi:nodetypes="ccc" />
    <path
       sodipodi:nodetypes="ccc"
       inkscape:connector-curvature="0"
       id="path1347-4"
       d="m 8.6980379,288.41254 c -0.02169,-1.53983 0.09777,-2.2283 0.470544,-3.45846 0.02549,0.76479 -0.254357,1.8341 -0.470544,3.45846 z"
       style="fill:#513813;fill-opacity:1;fill-rule:evenodd;stroke:none;stroke-width:0.42548308px;stroke-linecap:butt;stroke-linejoin:miter;stroke-opacity:1" />
    <path
       style="fill:#513813;fill-opacity:1;fill-rule:evenodd;stroke:none;stroke-width:0.42548308px;stroke-linecap:butt;stroke-linejoin:miter;stroke-opacity:1"
       d="m 9.808374,287.34088 c -0.452623,-1.47196 -0.531017,-2.1663 -0.518157,-3.45165 0.238929,0.72696 0.270167,1.83185 0.518157,3.45165 z"
       id="path1345-7"
       inkscape:connector-curvature="0"
       sodipodi:nodetypes="ccc" />
    <path
       style="fill:#73a707;fill-opacity:1;fill-rule:evenodd;stroke:none;stroke-width:0.09258991px;stroke-linecap:butt;stroke-linejoin:miter;stroke-opacity:1"
       d="m 9.0725408,293.41467 c 0,0 -0.408439,-0.81527 -0.776713,-1.15472 0.832802,0.26384 1.060782,0.54151 1.060782,0.54151 0,0 0.3142802,-1.28313 1.0162982,-1.59598 -0.32151,0.59918 -0.43614,1.83389 -0.43614,1.83389 0,0 0.298126,-0.49688 0.713166,-0.64303 -0.227979,0.33029 -0.37412,0.99376 -0.37412,0.99376 z"
       id="path1432"
       inkscape:connector-curvature="0"
       sodipodi:nodetypes="cccccccc" />
    <path
       style="fill:#513813;fill-opacity:1;fill-rule:evenodd;stroke:none;stroke-width:0.42548308px;stroke-linecap:butt;stroke-linejoin:miter;stroke-opacity:1"
       d="m 8.3552988,285.46063 c 0.4025962,0.70706 0.6306567,0.89276 0.8415491,1.41763 0.188263,0.46854 0.3787759,1.27885 0.4150097,1.83865 -0.3913455,-0.65757 -0.6621892,-1.72921 -1.2566032,-3.25627 z"
       id="path1345-7-1"
       inkscape:connector-curvature="0"
       sodipodi:nodetypes="cscc" />
    <path
       style="fill:#513813;fill-opacity:1;fill-rule:evenodd;stroke:none;stroke-width:0.15453631px;stroke-linecap:butt;stroke-linejoin:miter;stroke-opacity:1"
       d="m 8.4775251,291.56554 c 0.100096,-0.43773 0.159808,-0.64508 0.296038,-0.98527 -0.01122,0.23698 -0.04384,0.65199 -0.296038,0.98527 z"
       id="path1345-7-3"
       inkscape:connector-curvature="0"
       sodipodi:nodetypes="ccc" />
    <path
       style="opacity:1;fill:#73a707;fill-opacity:1;stroke:none;stroke-width:0.06500001;stroke-miterlimit:4;stroke-dasharray:none;stroke-opacity:1"
       d="m 13.940579,280.97632 c 0,0.26228 -0.449413,0.62107 -0.336375,0.96154 0,0 0.188197,0.55239 0.05305,0.66566 -0.248931,0.20862 -0.323798,0.18719 -0.464843,0.45042 -0.172353,0.32167 -0.07269,0.63447 -0.404325,0.91469 -0.161132,0.13615 -0.880497,0.33675 -1.05078,0.46004 -0.216737,0.15691 -0.274554,0.53594 -0.510112,0.65224 -0.232087,0.11459 -0.582387,-0.0273 -0.82037,0.0545 -0.4835247,0.16621 -0.5507941,0.32749 -1.0930697,0.32749 -0.666465,0 -0.2802793,-0.13664 -0.8527531,-0.38261 -0.2854908,-0.12266 -0.7998099,0.13821 -1.1034613,-0.0355 -0.2416519,-0.13819 -0.2658492,-0.41663 -0.4922074,-0.60296 -0.2695273,-0.22187 -0.7212163,-0.11298 -0.9717666,-0.37508 -0.2533628,-0.26504 -0.059031,-0.35839 -0.2356403,-0.70212 -0.1610229,-0.31339 -0.4482913,-0.17641 -0.6241541,-0.50263 -0.1040966,-0.19309 -0.044958,-0.73732 -0.1033322,-1.08766 -0.066674,-0.40015 -0.2435145,-0.60774 -0.2435146,-0.79811 2e-7,-0.286 0.1409012,-0.60824 0.3777725,-0.83688 0.2154541,-0.20797 0.00954,-0.70997 0.1660603,-0.95574 0.1585355,-0.24894 0.59953,-0.18524 0.729721,-0.34503 0.128173,-0.15732 0.052881,-0.54071 0.1737731,-0.69434 0.1328799,-0.16887 0.9198187,-0.19154 0.9198187,-0.19154 0.5026725,0.0505 0.6735758,-0.10005 0.9566822,-0.47707 0.1144152,-0.15237 0.4735712,-0.29875 0.7446582,-0.20119 0.3271636,0.11774 0.5552739,-0.14749 0.9265827,-0.14749 0.2418468,0 0.6383986,0.33563 0.8435516,0.43319 0.277892,0.13215 0.523419,-0.18889 0.792243,-0.12578 0.288032,0.0676 0.258824,0.4735 0.505219,0.59358 0.190812,0.093 0.603389,0.15032 0.780837,0.25943 0.167381,0.10292 0.09253,0.47054 0.22861,0.5945 0.121279,0.11048 0.494739,0.17651 0.60646,0.28865 0.08369,0.084 0.167997,0.4266 7.7e-5,0.68957 -0.243727,0.38169 0.501592,0.43201 0.501593,1.11614 z"
       id="path4616"
       inkscape:connector-curvature="0"
       sodipodi:nodetypes="cssssssssssssssscssssssssssssssscc" />
    <path
       style="opacity:1;fill:#446404;fill-opacity:1;stroke:none;stroke-width:0.06500001;stroke-miterlimit:4;stroke-dasharray:none;stroke-opacity:1"
       d="m 13.940579,280.97632 c 0,0.26228 -0.449413,0.62107 -0.336375,0.96154 0,0 0.188197,0.55239 0.05305,0.66566 -0.248931,0.20862 -0.323798,0.18719 -0.464843,0.45042 -0.172353,0.32167 -0.07269,0.63447 -0.404325,0.91469 -0.161132,0.13615 -0.880497,0.33675 -1.05078,0.46004 -0.216737,0.15691 -0.274554,0.53594 -0.510112,0.65224 -0.232087,0.11459 -0.582387,-0.0273 -0.82037,0.0545 -0.483525,0.16621 -0.550794,0.32749 -1.09307,0.32749 -0.6664647,0 -0.280279,-0.13664 -0.8527528,-0.38261 -0.2854907,-0.12266 -0.79981,0.13821 -1.1034612,-0.0355 -0.241652,-0.13819 -0.2658493,-0.41663 -0.4922075,-0.60296 0.2643043,-0.15827 0.9685799,-0.2821 1.6676907,-0.34072 0.7571938,-0.21188 0.5062731,-0.27175 1.3375751,-0.47639 0.2850057,-0.57128 0.8519117,-0.10622 1.2378217,-0.70207 0.525172,-0.30351 1.11584,-0.48798 1.505324,-0.82447 0.268795,-0.43727 0.891015,-1.55013 1.32684,-1.12195 z"
       id="path4616-8"
       inkscape:connector-curvature="0"
       sodipodi:nodetypes="cssssssssssccccccc" />
    <path
       style="fill:#654617;fill-opacity:1;fill-rule:evenodd;stroke:none;stroke-width:0.42548308px;stroke-linecap:butt;stroke-linejoin:miter;stroke-opacity:1"
       d="m 14.107997,279.70439 c -0.755269,0.30263 -0.988391,0.44323 -1.518964,0.64081 -0.473206,0.1762 -1.076994,0.31831 -1.091772,0.0954 0.0844,-0.12119 1.016987,-0.35518 2.610734,-0.73626 z"
       id="path1345-7-1-1"
       inkscape:connector-curvature="0"
       sodipodi:nodetypes="csccc" />
    <path
       style="fill:#654617;fill-opacity:1;fill-rule:evenodd;stroke:none;stroke-width:0.16070978px;stroke-linecap:butt;stroke-linejoin:miter;stroke-opacity:1"
       d="m 13.24303,279.48754 c -0.187091,0.24787 -0.236681,0.34075 -0.370707,0.50966 -0.119538,0.15065 -0.286361,0.31418 -0.32958,0.23965 0.0058,-0.058 0.260966,-0.31562 0.700277,-0.74933 z"
       id="path1345-7-1-1-8"
       inkscape:connector-curvature="0"
       sodipodi:nodetypes="csccc" />
    <path
       style="fill:#654617;fill-opacity:1;fill-rule:evenodd;stroke:none;stroke-width:0.46615297px;stroke-linecap:butt;stroke-linejoin:miter;stroke-opacity:1"
       d="m 5.8729783,285.37128 c 0.572682,-0.68941 1.0728048,-1.24568 1.4821644,-1.71469 0.2728934,-0.31265 0.082966,-0.33729 0.2923158,-0.39244 0.070737,-0.0186 0.3206052,-0.0159 0.35056,0.0395 -0.022984,0.16598 -0.7956842,0.87504 -2.1250149,2.06764 z"
       id="path1345-7-1-1-6"
       inkscape:connector-curvature="0"
       sodipodi:nodetypes="cssccc" />
    <path
       style="fill:#654617;fill-opacity:1;fill-rule:evenodd;stroke:none;stroke-width:0.16070978px;stroke-linecap:butt;stroke-linejoin:miter;stroke-opacity:1"
       d="m 6.822635,283.86676 c 0.2707846,-0.15205 0.3534572,-0.21725 0.5439676,-0.31824 0.169916,-0.0901 0.3883137,-0.17298 0.3980199,-0.0874 -0.028571,0.0508 -0.3656273,0.18449 -0.9419863,0.40564 z"
       id="path1345-7-1-1-8-2"
       inkscape:connector-curvature="0"
       sodipodi:nodetypes="csccc" />
    <path
       style="fill:#654617;fill-opacity:1;fill-rule:evenodd;stroke:none;stroke-width:0.16070978px;stroke-linecap:butt;stroke-linejoin:miter;stroke-opacity:1"
       d="m 7.7767015,284.48665 c -0.036192,-0.30844 -0.064577,-0.40983 -0.084519,-0.62453 -0.017786,-0.19149 -0.010313,-0.42497 0.07244,-0.401 0.035908,0.0459 0.029657,0.40846 0.0121,1.02554 z"
       id="path1345-7-1-1-8-9"
       inkscape:connector-curvature="0"
       sodipodi:nodetypes="csccc" />
    <path
       style="fill:#654617;fill-opacity:1;fill-rule:evenodd;stroke:none;stroke-width:0.21100514px;stroke-linecap:butt;stroke-linejoin:miter;stroke-opacity:1"
       d="m 6.7574384,279.06749 c 0.3215998,0.15053 0.4677557,0.19169 0.6787571,0.29913 0.1881704,0.0958 0.3460789,0.22739 0.1249918,0.25607 -0.1227556,-0.007 -0.3810553,-0.20858 -0.8037986,-0.5552 z"
       id="path1345-7-1-1-83"
       inkscape:connector-curvature="0"
       sodipodi:nodetypes="csccc" />
    <path
       style="opacity:1;fill:#446404;fill-opacity:1;stroke:none;stroke-width:0.06500001;stroke-miterlimit:4;stroke-dasharray:none;stroke-opacity:1"
       d="m 11.423406,281.80574 c 0.186509,0.0214 0.286133,0.10312 0.376757,0.22571 0.09117,0.12333 -0.189074,0.31335 -0.375415,0.29219 -0.187811,-0.0429 -0.285376,-0.0995 -0.315845,-0.25149 -0.03612,-0.18024 0.128167,-0.28757 0.314675,-0.2662 z"
       id="path4715"
       inkscape:connector-curvature="0"
       sodipodi:nodetypes="cscsc" />
    <path
       style="opacity:1;fill:#446404;fill-opacity:1;stroke:none;stroke-width:0.06500001;stroke-miterlimit:4;stroke-dasharray:none;stroke-opacity:1"
       d="m 9.3815911,282.70199 c 0.058105,0.17851 0.025172,0.30311 -0.048642,0.43649 -0.074253,0.13419 -0.3635886,-0.0417 -0.4216973,-0.22019 -0.039035,-0.18867 -0.028135,-0.30092 0.097414,-0.39182 0.1489003,-0.10778 0.3148216,-0.003 0.3729252,0.17552 z"
       id="path4715-3"
       inkscape:connector-curvature="0"
       sodipodi:nodetypes="cscsc" />
    <path
       style="opacity:1;fill:#446404;fill-opacity:1;stroke:none;stroke-width:0.04843503;stroke-miterlimit:4;stroke-dasharray:none;stroke-opacity:1"
       d="m 12.641326,280.25913 c 0.104035,0.0906 0.134593,0.18726 0.145242,0.30824 0.01071,0.12169 -0.224594,0.13783 -0.32863,0.0472 -0.09715,-0.10595 -0.13542,-0.18449 -0.09962,-0.30111 0.04247,-0.13829 0.178971,-0.14496 0.283004,-0.0543 z"
       id="path4715-4"
       inkscape:connector-curvature="0"
       sodipodi:nodetypes="cscsc" />
    <path
       style="opacity:1;fill:#446404;fill-opacity:1;stroke:none;stroke-width:0.06500001;stroke-miterlimit:4;stroke-dasharray:none;stroke-opacity:1"
       d="m 6.6470263,281.90871 c -0.093997,0.16251 -0.2087017,0.22125 -0.3572651,0.25545 -0.1494484,0.0344 -0.2119104,-0.29838 -0.1179167,-0.46088 0.1142915,-0.1551 0.2050974,-0.22199 0.3566096,-0.18931 0.1796793,0.0388 0.2125705,0.23224 0.1185722,0.39474 z"
       id="path4715-8"
       inkscape:connector-curvature="0"
       sodipodi:nodetypes="cscsc" />
    <path
       style="opacity:1;fill:#446404;fill-opacity:1;stroke:none;stroke-width:0.05296092;stroke-miterlimit:4;stroke-dasharray:none;stroke-opacity:1"
       d="m 6.047866,281.24288 c -0.1561975,0.0163 -0.2526904,-0.0294 -0.3494236,-0.10826 -0.09731,-0.0793 0.096134,-0.27559 0.2523315,-0.29188 0.1612665,1.5e-4 0.2514053,0.0267 0.3044964,0.13891 0.06295,0.13303 -0.051206,0.24494 -0.2074043,0.26123 z"
       id="path4715-1"
       inkscape:connector-curvature="0"
       sodipodi:nodetypes="cscsc"
       inkscape:transform-center-x="-0.63710466"
       inkscape:transform-center-y="-1.0246039" />
    <path
       style="opacity:1;fill:#446404;fill-opacity:1;stroke:none;stroke-width:0.04843503;stroke-miterlimit:4;stroke-dasharray:none;stroke-opacity:1"
       d="m 12.726136,280.11418 c 0.136813,0.0177 0.21584,0.0812 0.291783,0.17598 0.07639,0.0953 -0.08044,0.18416 -0.217268,0.16642 -0.139596,-0.0343 -0.245037,-0.0233 -0.279908,-0.14026 -0.04134,-0.13863 0.06856,-0.21987 0.205406,-0.20211 z"
       id="path4715-4-0"
       inkscape:connector-curvature="0"
       sodipodi:nodetypes="cscscc" />
    <path
       style="opacity:1;fill:#446404;fill-opacity:1;stroke:none;stroke-width:0.04843503;stroke-miterlimit:4;stroke-dasharray:none;stroke-opacity:1"
       d="m 11.869715,279.02675 c 0.09805,-0.097 0.196706,-0.12036 0.318147,-0.12202 0.122126,-0.002 0.09584,0.17664 -0.0022,0.27367 -0.112851,0.089 -0.168977,0.17898 -0.282672,0.1346 -0.134765,-0.0526 -0.131308,-0.18921 -0.03319,-0.28624 z"
       id="path4715-4-0-4"
       inkscape:connector-curvature="0"
       sodipodi:nodetypes="cscscc" />
    <path
       style="opacity:1;fill:#446404;fill-opacity:1;stroke:none;stroke-width:0.07495193;stroke-miterlimit:4;stroke-dasharray:none;stroke-opacity:1"
       d="m 8.3615073,278.33593 c -0.054728,-0.20958 -0.00692,-0.34526 0.089375,-0.48493 0.096856,-0.14053 0.4223843,0.0995 0.4772903,0.30879 0.03165,0.21827 0.01055,0.34321 -0.143136,0.42753 -0.1822597,0.1 -0.3686312,-0.0421 -0.4233344,-0.25171 z"
       id="path4715-14"
       inkscape:connector-curvature="0"
       sodipodi:nodetypes="cscsc"
       inkscape:transform-center-x="1.9758465"
       inkscape:transform-center-y="1.2880719" />
    <path
       style="opacity:1;fill:#73a707;fill-opacity:1;stroke:none;stroke-width:0.06500001;stroke-miterlimit:4;stroke-dasharray:none;stroke-opacity:1"
       d="m 9.5773865,284.70927 c -0.06164,0.17733 -0.1632018,0.25666 -0.3026382,0.31828 -0.140279,0.062 -0.2644116,-0.25302 -0.2030145,-0.43023 0.082964,-0.17387 0.1595173,-0.2567 0.3144765,-0.2532 0.1837678,0.004 0.2525748,0.18795 0.1909341,0.36527 z"
       id="path4715-41"
       inkscape:connector-curvature="0"
       sodipodi:nodetypes="cscsc" />
    <path
       style="opacity:1;fill:#73a707;fill-opacity:1;stroke:none;stroke-width:0.04801622;stroke-miterlimit:4;stroke-dasharray:none;stroke-opacity:1"
       d="m 11.84399,283.40705 c 0.05505,0.10836 0.14574,0.15684 0.270258,0.1945 0.12527,0.0379 0.236121,-0.15462 0.181293,-0.26291 -0.07408,-0.10624 -0.14245,-0.15686 -0.280829,-0.15472 -0.164106,0.002 -0.225551,0.11485 -0.170506,0.22321 z"
       id="path4715-41-4"
       inkscape:connector-curvature="0"
       sodipodi:nodetypes="cscsc" />
  </g>
</svg>
