<?xml version="1.0" encoding="UTF-8" standalone="no"?>
<!-- Created with Inkscape (http://www.inkscape.org/) -->

<svg
   xmlns:dc="http://purl.org/dc/elements/1.1/"
   xmlns:cc="http://creativecommons.org/ns#"
   xmlns:rdf="http://www.w3.org/1999/02/22-rdf-syntax-ns#"
   xmlns:svg="http://www.w3.org/2000/svg"
   xmlns="http://www.w3.org/2000/svg"
   xmlns:sodipodi="http://sodipodi.sourceforge.net/DTD/sodipodi-0.dtd"
   xmlns:inkscape="http://www.inkscape.org/namespaces/inkscape"
   width="282.59985"
   height="366.64651"
   viewBox="0 0 74.77121 97.00856"
   version="1.1"
   id="svg8"
   inkscape:version="0.92.2 (unknown)"
   sodipodi:docname="stone.svg">
  <defs
     id="defs2" />
  <sodipodi:namedview
     id="base"
     pagecolor="#ffffff"
     bordercolor="#666666"
     borderopacity="1.0"
     inkscape:pageopacity="0.0"
     inkscape:pageshadow="2"
     inkscape:zoom="1.1675781"
     inkscape:cx="80.645472"
     inkscape:cy="99.753577"
     inkscape:document-units="px"
     inkscape:current-layer="layer2"
     showgrid="false"
     units="px"
     inkscape:window-width="1920"
     inkscape:window-height="1017"
     inkscape:window-x="0"
     inkscape:window-y="30"
     inkscape:window-maximized="1"
     inkscape:snap-global="false">
    <inkscape:grid
       type="xygrid"
       id="grid855"
       originx="-13.766477"
       originy="-143.44329" />
  </sodipodi:namedview>
  <metadata
     id="metadata5">
    <rdf:RDF>
      <cc:Work
         rdf:about="">
        <dc:format>image/svg+xml</dc:format>
        <dc:type
           rdf:resource="http://purl.org/dc/dcmitype/StillImage" />
        <dc:title></dc:title>
      </cc:Work>
    </rdf:RDF>
  </metadata>
  <g
     inkscape:label="Layer 1"
     inkscape:groupmode="layer"
     id="layer1"
     transform="translate(-13.766477,-56.548141)"
     sodipodi:insensitive="true"
     style="display:none">
    <rect
       style="fill:#ff00ff;fill-opacity:1;stroke:none;stroke-width:0.18325864;stroke-miterlimit:4;stroke-dasharray:none;stroke-opacity:1"
       id="rect853"
       width="18.520834"
       height="18.520834"
       x="12.463477"
       y="135.03587" />
  </g>
  <g
     inkscape:groupmode="layer"
     id="layer2"
     inkscape:label="Layer 2"
     transform="translate(-1.3029999,78.487726)">
    <path
       style="fill:#393530;fill-opacity:1;fill-rule:evenodd;stroke:none;stroke-width:0.69701588px;stroke-linecap:butt;stroke-linejoin:miter;stroke-opacity:1"
       d="M 13.839491,18.520833 6.8250257,16.580662 2.3477075,13.148054 4.7356105,5.9843455 1.3029999,1.3577815 8.7651971,-6.253659 8.6159528,-12.074173 7.4220017,-15.059052 9.9591485,-21.924273 11.89932,-32.669836 9.5114167,-46.101791 l 1.0447073,-14.327417 -1.4924388,-7.014465 7.3129528,-9.253126 15.22288,-1.790927 18.357008,3.880341 h 7.462195 l 9.700856,4.626564 3.880342,0.149238 3.581859,2.984878 1.492435,9.551613 -0.895461,4.775806 -5.074297,2.686391 -2.537145,7.611441 2.089417,2.984879 2.835634,8.954636 1.641682,1.343196 1.044709,5.522026 -0.895463,2.089415 -3.28337,0.895464 -4.328072,-0.447733 -1.193953,4.328075 0.447733,1.940171 4.328074,4.328074 0.746218,4.3280748 2.835634,8.0591725 1.940171,8.2084157 -0.596972,6.268245 -3.581854,1.940176 z"
       id="path877"
       inkscape:connector-curvature="0"
       sodipodi:nodetypes="cccccccccccccccccccccccccccccccccccccccc" />
    <path
       sodipodi:nodetypes="cccccccccccccccccccccccccccccccccccccccc"
       inkscape:connector-curvature="0"
       id="path889"
       d="M 13.839491,18.520833 6.8250257,16.580662 2.3477075,13.148054 4.7356105,5.9843455 1.3029999,1.3577815 8.7651971,-6.253659 8.6159528,-12.074173 7.4220017,-15.059052 9.9591485,-21.924273 11.89932,-32.669836 9.5114167,-46.101791 l 1.0447073,-14.327417 -1.4924388,-7.014465 7.3129528,-9.253126 15.22288,-1.790927 18.357008,3.880341 h 7.462195 l 5.518761,4.626564 3.66928,0.887958 3.792921,2.246158 1.492435,9.551613 -0.895461,4.775806 -5.074297,2.686391 -2.537144,7.611441 2.089416,2.984879 2.835635,8.954636 1.641681,1.343196 1.044709,4.127994 -0.895463,2.089415 -3.28337,0.895464 -4.328072,0.946299 -1.193953,4.328075 0.447733,1.940171 4.328074,4.328074 0.746218,4.3280748 2.835634,8.0591725 1.940171,8.2084157 -1.335692,6.057183 -2.843134,2.151238 z"
       style="fill:#413d35;fill-opacity:1;fill-rule:evenodd;stroke:none;stroke-width:0.69701588px;stroke-linecap:butt;stroke-linejoin:miter;stroke-opacity:1" />
    <path
       style="fill:#393530;fill-opacity:1;fill-rule:evenodd;stroke:none;stroke-width:0.69701588px;stroke-linecap:butt;stroke-linejoin:miter;stroke-opacity:1"
       d="m 21.152444,-22.073517 5.708578,-1.604372 3.693789,-1.380506 -2.537147,-2.686391 -5.522025,0.298488 -3.134122,2.089415 z"
       id="path879"
       inkscape:connector-curvature="0"
       sodipodi:nodetypes="ccccccc" />
    <path
       style="fill:#393530;fill-opacity:1;fill-rule:evenodd;stroke:none;stroke-width:0.69701588px;stroke-linecap:butt;stroke-linejoin:miter;stroke-opacity:1"
       d="m 45.145352,-36.270642 7.914855,1.266376 6.437415,-2.216159 1.47744,-2.743816 -5.382102,-3.377005 -4.010193,0.949782 -5.17104,0.105531 z"
       id="path881"
       inkscape:connector-curvature="0" />
    <path
       style="fill:#393530;fill-opacity:1;fill-rule:evenodd;stroke:none;stroke-width:0.69701588px;stroke-linecap:butt;stroke-linejoin:miter;stroke-opacity:1"
       d="m 18.42212,-52.980817 4.53785,2.532754 5.487635,-0.738719 6.120822,-3.6936 -4.854447,-4.221257 -7.281667,0.527658 0.422126,4.53785 z"
       id="path883"
       inkscape:connector-curvature="0" />
    <path
       style="fill:#393530;fill-opacity:1;fill-rule:evenodd;stroke:none;stroke-width:0.69701588px;stroke-linecap:butt;stroke-linejoin:miter;stroke-opacity:1"
       d="m 29.002152,-12.083271 6.859542,3.06041 0.949782,5.8042267 1.160846,4.8544441 -6.331884,0.1055336 -3.693599,-4.4323172 -4.643382,-1.3719087 z"
       id="path885"
       inkscape:connector-curvature="0" />
    <path
       style="fill:#393530;fill-opacity:1;fill-rule:evenodd;stroke:none;stroke-width:0.69701588px;stroke-linecap:butt;stroke-linejoin:miter;stroke-opacity:1"
       d="m 49.475246,7.3345075 3.482536,4.4323175 8.125917,-2.9548802 1.055315,-3.3770041 z"
       id="path887"
       inkscape:connector-curvature="0" />
    <path
       style="fill:#524d46;fill-opacity:1;fill-rule:evenodd;stroke:none;stroke-width:0.69701588px;stroke-linecap:butt;stroke-linejoin:miter;stroke-opacity:1"
       d="M 13.839491,18.520833 6.8250257,16.580662 2.3477075,13.148054 4.7356105,5.9843455 1.3029999,1.3577815 8.7651971,-6.253659 8.6159528,-12.074173 7.4220017,-15.059052 9.9591485,-21.924273 11.89932,-32.669836 9.5114167,-46.101791 l 1.0447073,-14.327417 -1.4924388,-7.014465 7.3129528,-9.253126 15.22288,-1.790927 7.546146,0.988742 4.328075,1.520423 -6.697322,2.546473 -3.647147,3.227399 -6.184295,-1.548405 -6.035053,1.137986 -6.482784,8.749424 0.680926,7.555475 -0.811514,9.943378 1.277901,14.271451 -1.706977,6.958499 -1.110002,8.749426 1.576389,8.6001817 -4.244124,9.197158 -1.8562218,9.1971583 z"
       id="path891"
       inkscape:connector-curvature="0"
       sodipodi:nodetypes="ccccccccccccccccccccccccccccccc" />
  </g>
</svg>
