<?xml version="1.0" encoding="UTF-8" standalone="no"?>
<!-- Created with Inkscape (http://www.inkscape.org/) -->

<svg
   xmlns:dc="http://purl.org/dc/elements/1.1/"
   xmlns:cc="http://creativecommons.org/ns#"
   xmlns:rdf="http://www.w3.org/1999/02/22-rdf-syntax-ns#"
   xmlns:svg="http://www.w3.org/2000/svg"
   xmlns="http://www.w3.org/2000/svg"
   xmlns:sodipodi="http://sodipodi.sourceforge.net/DTD/sodipodi-0.dtd"
   xmlns:inkscape="http://www.inkscape.org/namespaces/inkscape"
   width="110.14407"
   height="131.89485"
   viewBox="0 0 29.142284 34.897181"
   version="1.1"
   id="svg8"
   inkscape:version="0.92.1 r15371"
   sodipodi:docname="superjump.svg">
  <defs
     id="defs2" />
  <sodipodi:namedview
     id="base"
     pagecolor="#ffffff"
     bordercolor="#666666"
     borderopacity="1.0"
     inkscape:pageopacity="0.0"
     inkscape:pageshadow="2"
     inkscape:zoom="1.4142136"
     inkscape:cx="-297.8747"
     inkscape:cy="100.45709"
     inkscape:document-units="px"
     inkscape:current-layer="layer2"
     showgrid="false"
     units="px"
     inkscape:window-width="1920"
     inkscape:window-height="1018"
     inkscape:window-x="-8"
     inkscape:window-y="-8"
     inkscape:window-maximized="1"
     inkscape:snap-global="false">
    <inkscape:grid
       type="xygrid"
       id="grid855"
       originx="-31.628871"
       originy="-154.38088" />
  </sodipodi:namedview>
  <metadata
     id="metadata5">
    <rdf:RDF>
      <cc:Work
         rdf:about="">
        <dc:format>image/svg+xml</dc:format>
        <dc:type
           rdf:resource="http://purl.org/dc/dcmitype/StillImage" />
        <dc:title />
      </cc:Work>
    </rdf:RDF>
  </metadata>
  <g
     inkscape:label="Layer 1"
     inkscape:groupmode="layer"
     id="layer1"
     transform="translate(-31.628873,-107.72194)"
     sodipodi:insensitive="true"
     style="display:none">
    <rect
       style="fill:#ff00ff;fill-opacity:1;stroke:none;stroke-width:0.18325864;stroke-miterlimit:4;stroke-dasharray:none;stroke-opacity:1"
       id="rect853"
       width="18.520834"
       height="18.520834"
       x="12.463477"
       y="135.03587" />
  </g>
  <g
     inkscape:groupmode="layer"
     id="layer2"
     inkscape:label="Layer 2"
     transform="translate(-19.165396,27.31393)">
    <path
       style="fill:#502d16;fill-opacity:1;stroke:none;stroke-width:0.25357577px;stroke-linecap:butt;stroke-linejoin:miter;stroke-opacity:1"
       d="m 27.262189,7.5485144 14.003797,-0.0093 c 0,0 6.834908,-10.439613 7.036449,-16.5002715 C 48.519629,-15.492388 41.920472,-27.29389 41.920472,-27.29389 l -15.761791,-0.02004 c 0,0 -7.180652,11.23326 -6.988894,17.6315898 0.193255,6.4482736 8.092402,17.2308676 8.092402,17.2308676 z"
       id="path4505-6"
       inkscape:connector-curvature="0"
       sodipodi:nodetypes="ccsccsc" />
    <path
       style="fill:#784421;fill-opacity:1;stroke:none;stroke-width:0.25357577px;stroke-linecap:butt;stroke-linejoin:miter;stroke-opacity:1"
       d="m 27.26011,7.5832514 10.168112,-0.040954 c 0,0 4.095414,-11.0909422 4.296955,-17.1516011 0.217193,-6.5313443 -6.504978,-17.6928393 -6.504978,-17.6928393 l -9.061102,-0.01018 c 0,0 -7.181686,11.241528 -6.989928,17.6398588 0.193255,6.4482741 8.092403,17.2308686 8.092403,17.230869 z"
       id="path4505"
       inkscape:connector-curvature="0"
       sodipodi:nodetypes="ccsccscc" />
    <path
       style="fill:#999999;fill-opacity:1;stroke:none;stroke-width:0.26458335px;stroke-linecap:butt;stroke-linejoin:miter;stroke-opacity:1"
       d="m 24.587042,-24.87473 18.55046,-0.107458 1.223023,2.479615 -20.793221,-0.276027 z"
       id="path4507"
       inkscape:connector-curvature="0"
       sodipodi:nodetypes="ccccc" />
    <path
       style="fill:#999999;fill-opacity:1;stroke:none;stroke-width:0.26458335px;stroke-linecap:butt;stroke-linejoin:miter;stroke-opacity:1"
       d="M 23.73726,2.4316172 24.700347,3.9045738 43.042598,4.616439 44.245347,2.4316172 Z"
       id="path4509"
       inkscape:connector-curvature="0"
       sodipodi:nodetypes="ccccc" />
    <path
       style="fill:#ffffff;stroke:none;stroke-width:0.26458335px;stroke-linecap:butt;stroke-linejoin:miter;stroke-opacity:1"
       d="m 33.764695,-17.5666 c -2.603665,1.665451 -4.725548,2.851188 -5.778523,5.381956 3.039393,0.139487 2.930321,-0.03638 4.053574,0.09617 0.32128,1.091965 0.03014,6.0733213 0.260872,8.6282637 1.129433,0.3713786 2.219945,0.3149512 3.26244,0.1574501 0.476079,-2.4872013 -0.144183,-6.6636359 0.610668,-8.8459908 1.243273,0.05331 2.692996,0.449008 4.205766,0.270755 -1.637864,-2.505684 -5.086891,-4.968674 -6.614797,-5.688604 z"
       id="path4511"
       inkscape:connector-curvature="0"
       sodipodi:nodetypes="cccccccc" />
    <path
       style="fill:#666666;stroke:none;stroke-width:0.26458335px;stroke-linecap:butt;stroke-linejoin:miter;stroke-opacity:1"
       d="m 36.543113,-24.946602 1.2102,2.359156 6.61516,0.08909 -1.227769,-2.50231 z"
       id="path4528"
       inkscape:connector-curvature="0"
       sodipodi:nodetypes="ccccc" />
    <path
       style="fill:#666666;fill-opacity:1;stroke:none;stroke-width:0.26458335px;stroke-linecap:butt;stroke-linejoin:miter;stroke-opacity:1"
       d="M 39.129991,2.4195152 38.498568,4.4424109 43.045416,4.621586 44.255324,2.4287862 Z"
       id="path4530"
       inkscape:connector-curvature="0"
       sodipodi:nodetypes="ccccc" />
  </g>
</svg>
