<?xml version="1.0" encoding="UTF-8" standalone="no"?>
<!-- Created with Inkscape (http://www.inkscape.org/) -->

<svg
   xmlns:dc="http://purl.org/dc/elements/1.1/"
   xmlns:cc="http://creativecommons.org/ns#"
   xmlns:rdf="http://www.w3.org/1999/02/22-rdf-syntax-ns#"
   xmlns:svg="http://www.w3.org/2000/svg"
   xmlns="http://www.w3.org/2000/svg"
   xmlns:sodipodi="http://sodipodi.sourceforge.net/DTD/sodipodi-0.dtd"
   xmlns:inkscape="http://www.inkscape.org/namespaces/inkscape"
   width="1542.1649"
   height="168.20299"
   viewBox="0 0 408.03111 44.503705"
   version="1.1"
   id="svg8"
   inkscape:version="0.91 r13725"
   sodipodi:docname="intro.svg">
  <defs
     id="defs2" />
  <sodipodi:namedview
     id="base"
     pagecolor="#ffffff"
     bordercolor="#666666"
     borderopacity="1.0"
     inkscape:pageopacity="0.0"
     inkscape:pageshadow="2"
     inkscape:zoom="0.35"
     inkscape:cx="1073.9081"
     inkscape:cy="-582.74831"
     inkscape:document-units="px"
     inkscape:current-layer="layer1"
     inkscape:document-rotation="0"
     showgrid="false"
     units="px"
     inkscape:window-width="1920"
     inkscape:window-height="1019"
     inkscape:window-x="0"
     inkscape:window-y="24"
     inkscape:window-maximized="1"
     fit-margin-top="0"
     fit-margin-left="0"
     fit-margin-right="0"
     fit-margin-bottom="0" />
  <metadata
     id="metadata5">
    <rdf:RDF>
      <cc:Work
         rdf:about="">
        <dc:format>image/svg+xml</dc:format>
        <dc:type
           rdf:resource="http://purl.org/dc/dcmitype/StillImage" />
        <dc:title></dc:title>
      </cc:Work>
    </rdf:RDF>
  </metadata>
  <g
     inkscape:label="Layer 1"
     inkscape:groupmode="layer"
     id="layer1"
     transform="translate(124.74771,-208.72448)">
    <g
       style="font-style:normal;font-weight:normal;font-size:15.44535255px;line-height:125%;font-family:sans-serif;letter-spacing:0px;word-spacing:0px;fill:#000000;fill-opacity:1;stroke:none;stroke-width:1px;stroke-linecap:butt;stroke-linejoin:miter;stroke-opacity:1"
       id="text4143">
      <path
         d="m 40.602082,102.95196 q 0.497751,0.0603 0.905001,0.0905 0.392168,0.0302 0.678751,0.0603 0.331834,0.0302 0.588251,0.0452 0.2715,0 0.693834,-0.0151 0.362001,-0.0151 0.920085,-0.0452 0.558084,-0.0302 1.372585,-0.10558 -0.392168,0.22625 -0.648584,0.4525 -0.241334,0.22625 -0.377084,0.40725 -0.165917,0.21117 -0.241334,0.42233 -0.04525,0.28659 0.03017,1.11617 0.03017,0.34692 0.0905,0.85975 0.07542,0.49775 0.181,1.19159 0.120667,0.67875 0.286584,1.56866 0.181,0.88992 0.40725,2.02117 0.301667,-0.85975 0.497751,-1.52341 0.196084,-0.67876 0.331834,-1.16142 0.150833,-0.543 0.256417,-0.96534 0.105583,-0.43741 0.256417,-1.13125 0.120666,-0.58825 0.31675,-1.52342 0.196084,-0.93516 0.482667,-2.30775 l 0.543001,0.0754 q 0.07542,1.07091 0.150834,1.88542 0.0905,0.8145 0.150833,1.38766 0.06033,0.66367 0.120667,1.14634 0.06033,0.43742 0.181,1.01058 0.105584,0.48267 0.2715,1.19159 0.165917,0.69383 0.437418,1.56867 0.2715,-1.07092 0.482667,-1.91559 0.22625,-0.84467 0.377084,-1.49325 0.165917,-0.64858 0.2715,-1.11617 0.120667,-0.46758 0.196084,-0.78433 0.165916,-0.75417 0.196083,-1.01059 -0.01508,-0.28658 -0.13575,-0.55808 -0.105583,-0.24134 -0.331834,-0.52792 -0.22625,-0.28658 -0.663667,-0.55808 0.920084,0.0302 1.493252,0.0453 0.58825,0 0.935167,0 l 0.603335,0 0.543,0 q 0.301667,0 0.784335,0 0.49775,-0.0151 1.267001,-0.0453 -0.663667,0.34691 -1.070918,0.6335 -0.40725,0.28658 -0.633501,0.48267 -0.2715,0.24133 -0.392167,0.40725 -0.120667,0.30166 -0.392167,1.3575 -0.120667,0.4525 -0.2715,1.13125 -0.150834,0.66367 -0.362001,1.59883 -0.196083,0.93517 -0.4525,2.18709 -0.256417,1.23683 -0.573168,2.83567 l -2.60942,-0.2715 -1.116168,-4.69092 q -0.256417,1.28208 -0.40725,2.0815 -0.150834,0.78433 -0.22625,1.22175 -0.0905,0.52792 -0.105584,0.76925 -0.01508,0.21117 -0.03017,0.40725 -0.01508,0.16592 -0.04525,0.362 -0.01508,0.19609 -0.04525,0.362 l -2.669753,0 q -0.392167,-1.7195 -0.708918,-3.03175 -0.301667,-1.32733 -0.543,-2.32284 -0.241334,-0.9955 -0.422334,-1.68933 -0.165917,-0.69384 -0.301667,-1.16142 -0.301667,-1.086 -0.437417,-1.34242 -0.105584,-0.12066 -0.271501,-0.28658 -0.13575,-0.13575 -0.331834,-0.33184 -0.211166,-0.21116 -0.482667,-0.46758 z"
         style="font-style:normal;font-variant:normal;font-weight:normal;font-stretch:normal;font-family:'Lakki Reddy';-inkscape-font-specification:'Lakki Reddy';text-align:center;text-anchor:middle;fill:#00ff00"
         id="path4191"
         inkscape:connector-curvature="0" />
      <path
         d="m 57.812187,111.12714 q 0.422334,0 0.784335,-0.0905 0.301667,-0.0754 0.573167,-0.24134 0.286584,-0.181 0.377084,-0.52791 0.301667,0.0603 0.512834,0.10558 0.211167,0.0302 0.362,0.0603 0.165917,0.0452 0.286584,0.0603 0.120667,0.0302 0.286584,0.0603 0.150833,0.0302 0.362,0.0754 0.22625,0.0302 0.527917,0.0905 -0.22625,-0.0302 -0.467583,0.0452 -0.226251,0.0754 -0.437418,0.16591 -0.241333,0.10559 -0.4525,0.25642 -0.13575,0.0905 -0.316751,0.2715 -0.165917,0.181 -0.482667,0.34692 -0.31675,0.16592 -0.844668,0.28658 -0.512834,0.10559 -1.327335,0.0754 -0.980417,-0.0302 -1.644085,-0.34692 -0.663667,-0.33183 -1.070918,-0.79942 -0.40725,-0.48266 -0.588251,-1.04075 -0.181,-0.55808 -0.196083,-1.04075 -0.01508,-0.48267 0.286583,-1.01058 0.301667,-0.52792 0.844668,-0.96534 0.558084,-0.43741 1.342418,-0.70892 0.784335,-0.28658 1.719503,-0.28658 0.543,0 0.995501,0.13575 0.467584,0.12067 0.844668,0.33184 0.392167,0.21116 0.67875,0.48266 0.286584,0.25642 0.482668,0.52792 0.196083,0.28658 0.331833,0.60333 0.120667,0.2715 0.196084,0.61842 0.07542,0.34692 0.04525,0.70892 -1.146335,0.0302 -1.855252,0.0452 -0.693834,0.0151 -1.086002,0.0151 l -0.67875,0 -0.512834,0 q -0.271501,0 -0.708918,0.0151 -0.437417,0.0151 -1.070918,0.0453 0.07542,0.60333 0.377084,0.93516 0.31675,0.31675 0.663667,0.48267 0.392167,0.181 0.859751,0.21117 z m -1.357501,-2.71501 q 0.482667,0.0302 0.799417,0.0452 0.331834,0.0151 0.543001,0.0302 0.22625,0.0151 0.362,0.0151 l 0.377084,0 q 0.377084,0 1.402752,-0.0452 -0.04525,-0.66366 -0.286584,-1.01058 -0.22625,-0.34692 -0.482667,-0.51283 -0.301667,-0.181 -0.663667,-0.21117 -0.980418,0.0151 -1.463086,0.40725 -0.467583,0.39217 -0.58825,1.28208 z"
         style="font-style:normal;font-variant:normal;font-weight:normal;font-stretch:normal;font-family:'Lakki Reddy';-inkscape-font-specification:'Lakki Reddy';text-align:center;text-anchor:middle;fill:#00ff00"
         id="path4193"
         inkscape:connector-curvature="0" />
      <path
         d="m 62.77461,113.97789 q 0.150834,-0.22625 0.241334,-0.42233 0.0905,-0.19609 0.150833,-0.33184 0.06033,-0.16591 0.0905,-0.30166 0.01508,-0.0905 0.01508,-0.52792 0,-0.43742 -0.03017,-1.10109 -0.01508,-0.66366 -0.04525,-1.49325 -0.01508,-0.82958 -0.06033,-1.68933 -0.03017,-0.85975 -0.07542,-1.67425 -0.03017,-0.81451 -0.06033,-1.46309 -0.03017,-0.66367 -0.06033,-1.086 -0.03017,-0.42234 -0.04525,-0.48267 -0.03017,-0.0905 -0.105584,-0.181 -0.150833,-0.181 -0.512834,-0.34692 0.769251,-0.19608 1.176502,-0.31675 0.241334,-0.0603 0.422334,-0.12066 0.165917,-0.0603 0.331833,-0.12067 0.135751,-0.0603 0.301668,-0.13575 0.165916,-0.0905 0.301667,-0.19608 -0.07542,0.43741 -0.120667,0.84466 -0.04525,0.40725 -0.07542,0.75417 -0.03017,0.39217 -0.03017,0.75417 -0.07542,0.73908 -0.0905,1.61392 0,0.85975 0.01508,1.74967 0.01508,0.88991 0.06033,1.73458 0.04525,0.84467 0.0905,1.5385 0.06033,0.67875 0.105584,1.16142 0.06033,0.46759 0.0905,0.60334 0.06033,0.22625 0.120666,0.43741 0.06033,0.181 0.135751,0.37709 0.07542,0.21116 0.181,0.33183 l -1.463085,0 q -0.196084,0 -0.377084,0.0151 -0.165917,0.0151 -0.346917,0.0302 -0.181,0.0151 -0.331834,0.0452 z"
         style="font-style:normal;font-variant:normal;font-weight:normal;font-stretch:normal;font-family:'Lakki Reddy';-inkscape-font-specification:'Lakki Reddy';text-align:center;text-anchor:middle;fill:#00ff00"
         id="path4195"
         inkscape:connector-curvature="0" />
      <path
         d="m 74.268125,108.20097 q -0.181,-0.0302 -0.452501,-0.0452 -0.256417,-0.0151 -0.49775,-0.0151 -0.2715,0 -0.573168,0.0151 -0.31675,0.0151 -0.6335,0.0302 -0.271501,0.0151 -0.618418,0.0452 -0.331834,0.0151 -0.648584,0.0453 0.120667,-0.0603 0.211167,-0.16591 0.105583,-0.10559 0.181,-0.21117 0.07542,-0.12067 0.13575,-0.25642 0.07542,-0.22625 -0.01508,-0.543 -0.0905,-0.33183 -0.331834,-0.60333 -0.22625,-0.2715 -0.58825,-0.42234 -0.346918,-0.16591 -0.769251,-0.0754 -0.452501,0.10558 -0.814501,0.31675 -0.346917,0.21117 -0.588251,0.58825 -0.22625,0.362 -0.331834,0.905 -0.0905,0.52792 -0.04525,1.267 0.06033,0.92009 0.301667,1.46309 0.241334,0.543 0.588251,0.8145 0.346917,0.2715 0.754167,0.33183 0.422334,0.0452 0.829585,0 0.286584,-0.0603 0.527917,-0.25642 0.196084,-0.16591 0.362001,-0.48266 0.165916,-0.31675 0.150833,-0.87484 l 1.840169,-0.0754 q -0.31675,0.88991 -0.769251,1.41783 -0.4525,0.51284 -0.874834,0.79942 -0.497751,0.33183 -0.995502,0.4525 -0.618417,0.10558 -1.101084,0.0905 -0.482668,-0.0302 -0.874835,-0.15083 -0.392167,-0.12067 -0.724001,-0.30167 -0.331833,-0.181 -0.6335,-0.39217 -0.196084,-0.13575 -0.437418,-0.4525 -0.241333,-0.31675 -0.4525,-0.75417 -0.211167,-0.4525 -0.346917,-0.9955 -0.13575,-0.543 -0.105584,-1.11617 0.03017,-0.58825 0.271501,-1.1765 0.241333,-0.58825 0.769251,-1.13125 0.799417,-0.8145 1.704418,-1.05583 0.920085,-0.25642 1.734586,-0.13575 0.814501,0.10558 1.448002,0.46758 0.6335,0.362 0.889917,0.78433 0.256417,0.42234 0.377084,0.64859 0.13575,0.21117 0.196084,0.33183 0.07542,0.10559 0.120667,0.16592 0.06033,0.0452 0.165917,0.13575 0.07542,0.0754 0.181,0.16592 0.0905,0.0754 0.211167,0.181 0.120667,0.10558 0.2715,0.22625 z"
         style="font-style:normal;font-variant:normal;font-weight:normal;font-stretch:normal;font-family:'Lakki Reddy';-inkscape-font-specification:'Lakki Reddy';text-align:center;text-anchor:middle;fill:#00ff00"
         id="path4197"
         inkscape:connector-curvature="0" />
      <path
         d="m 78.084213,106.79822 q 0.392167,0 0.814501,0.15083 0.422334,0.13575 0.814501,0.362 0.392167,0.21117 0.708917,0.46758 0.331834,0.24134 0.543001,0.46759 0.377084,0.40725 0.512834,1.10108 0.150834,0.67875 0.06033,1.40275 -0.0905,0.70892 -0.422333,1.34242 -0.331834,0.6335 -0.920085,0.93517 -0.422334,0.21117 -0.829584,0.33183 -0.407251,0.12067 -0.784335,0.181 -0.377083,0.0603 -0.708917,0.0603 -0.331834,0 -0.573167,-0.0151 -0.452501,-0.0302 -0.950252,-0.31675 -0.482667,-0.28658 -0.920084,-0.70891 -0.422334,-0.42234 -0.724001,-0.92009 -0.301667,-0.51283 -0.362001,-0.96533 -0.0905,-0.61842 -0.03017,-1.29717 0.06033,-0.67875 0.437417,-1.25192 0.392167,-0.57317 1.176501,-0.95025 0.799418,-0.37708 2.15692,-0.37708 z m -0.497751,5.85234 q 0.165917,0.0302 0.452501,-0.0754 0.286583,-0.12067 0.558084,-0.37708 0.286583,-0.25642 0.49775,-0.64859 0.226251,-0.40725 0.271501,-0.98042 0.04525,-0.55808 0,-1.02566 -0.03017,-0.46759 -0.13575,-0.81451 -0.105584,-0.362 -0.241334,-0.58825 -0.13575,-0.22625 -0.286584,-0.31675 -0.256417,-0.13575 -0.618417,-0.21116 -0.362001,-0.0905 -0.618418,0.0302 -0.120666,0.0603 -0.301667,0.25642 -0.181,0.19608 -0.362,0.49775 -0.181,0.28658 -0.331834,0.66367 -0.13575,0.37708 -0.196083,0.78433 -0.06033,0.40725 -0.03017,0.87484 0.04525,0.46758 0.196083,0.88991 0.150834,0.40726 0.422334,0.70892 0.286584,0.28659 0.724001,0.33184 z"
         style="font-style:normal;font-variant:normal;font-weight:normal;font-stretch:normal;font-family:'Lakki Reddy';-inkscape-font-specification:'Lakki Reddy';text-align:center;text-anchor:middle;fill:#00ff00"
         id="path4199"
         inkscape:connector-curvature="0" />
      <path
         d="m 82.201966,106.40605 q 0.346917,-0.0302 0.58825,-0.0603 0.256417,-0.0302 0.422334,-0.0603 0.196084,-0.0302 0.331834,-0.0603 0.13575,-0.0151 0.301667,-0.0603 0.150834,-0.0302 0.331834,-0.0754 0.196083,-0.0603 0.422334,-0.13575 l -0.0905,1.91558 q 0.331833,-0.52791 0.76925,-0.79941 0.437418,-0.28659 0.829585,-0.42234 0.467584,-0.16591 0.935168,-0.19608 0.482667,0.0151 0.889917,0.15083 0.346918,0.12067 0.693835,0.37709 0.362,0.25641 0.558084,0.75416 0.512834,-0.52791 1.010584,-0.8145 0.512834,-0.30166 0.905001,-0.4525 0.467584,-0.16592 0.874835,-0.19608 0.543,-0.0151 0.995501,0.181 0.467584,0.19608 0.814501,0.49775 0.346917,0.28658 0.558084,0.61842 0.211167,0.31675 0.241334,0.55808 0.04525,0.33183 -0.04525,0.85975 -0.0905,0.51284 -0.211167,1.05584 -0.120667,0.52791 -0.226251,0.98041 -0.0905,0.43742 -0.07542,0.61842 0.04525,0.15084 0.211167,0.362 0.150833,0.181 0.437417,0.4525 0.301667,0.25642 0.859751,0.60334 -0.482667,-0.0151 -0.859751,-0.0302 -0.362001,-0.0151 -0.618418,-0.0453 -0.301667,-0.0302 -0.527917,-0.0452 -0.181,0 -0.437417,-0.0302 -0.211167,-0.0151 -0.558084,-0.0452 -0.331834,-0.0302 -0.769251,-0.0603 0.165917,-0.0452 0.2715,-0.16592 0.105584,-0.13575 0.181,-0.25641 0.07542,-0.15084 0.120667,-0.33184 0.03017,-0.15083 0.06033,-0.48267 0.03017,-0.33183 0.04525,-0.75416 0.03017,-0.42234 0.03017,-0.88992 0.01508,-0.46758 0,-0.88992 -0.01508,-0.42233 -0.06033,-0.76925 -0.04525,-0.34692 -0.120667,-0.52792 -0.06033,-0.13575 -0.211167,-0.21116 -0.150833,-0.0905 -0.346917,-0.10559 -0.196083,-0.0302 -0.392167,0.0151 -0.196084,0.0302 -0.346917,0.12066 -0.13575,0.10559 -0.362001,0.28659 -0.196083,0.16591 -0.512833,0.4525 -0.316751,0.28658 -0.799418,0.724 -0.04525,0.95025 -0.07542,1.5385 -0.01508,0.57317 -0.03017,0.87483 -0.01508,0.36201 -0.01508,0.49776 -0.01508,0.12066 0.01508,0.22625 0.03017,0.22625 0.181001,0.42233 -0.181001,-0.0453 -0.392168,-0.0603 -0.196083,-0.0151 -0.362,-0.0302 -0.196084,-0.0151 -0.392167,-0.0151 -0.165917,0 -0.362001,0.0151 -0.165916,0.0151 -0.40725,0.0452 -0.241334,0.0151 -0.527917,0.0453 0.120666,-0.0754 0.196083,-0.181 0.07542,-0.10558 0.120667,-0.19608 0.06033,-0.10559 0.0905,-0.19609 0.01508,-0.0905 0.06033,-0.43742 0.04525,-0.362 0.06033,-0.84466 0.01508,-0.48267 0,-1.01059 -0.01508,-0.543 -0.105584,-0.98042 -0.0905,-0.4525 -0.286583,-0.73908 -0.181,-0.28658 -0.482668,-0.25642 -0.362,0.0302 -0.739084,0.181 -0.31675,0.12067 -0.678751,0.362 -0.362,0.24134 -0.67875,0.64859 -0.06033,1.13125 -0.07542,1.79492 0,0.66366 0.01508,1.01058 0.01508,0.40725 0.03017,0.55809 0.01508,0.10558 0.07542,0.21116 0.04525,0.0905 0.105583,0.21117 0.07542,0.12067 0.165917,0.22625 l -2.398253,-0.12067 q 0.120667,-0.0603 0.211167,-0.15083 0.0905,-0.10558 0.150833,-0.21117 0.06033,-0.12066 0.120667,-0.24133 0.04525,-0.10558 0.07542,-0.49775 0.04525,-0.39217 0.07542,-0.92009 0.03017,-0.543 0.04525,-1.13125 0.03017,-0.60333 0.03017,-1.11617 0.01508,-0.52791 0.01508,-0.88991 0,-0.37709 -0.01508,-0.4525 -0.04525,-0.15084 -0.165916,-0.31675 -0.105584,-0.12067 -0.286584,-0.25642 -0.181,-0.15083 -0.482667,-0.22625 z"
         style="font-style:normal;font-variant:normal;font-weight:normal;font-stretch:normal;font-family:'Lakki Reddy';-inkscape-font-specification:'Lakki Reddy';text-align:center;text-anchor:middle;fill:#00ff00"
         id="path4201"
         inkscape:connector-curvature="0" />
      <path
         d="m 99.532737,111.12714 q 0.422334,0 0.784333,-0.0905 0.30167,-0.0754 0.57317,-0.24134 0.28658,-0.181 0.37708,-0.52791 0.30167,0.0603 0.51284,0.10558 0.21116,0.0302 0.362,0.0603 0.16591,0.0452 0.28658,0.0603 0.12067,0.0302 0.28658,0.0603 0.15084,0.0302 0.362,0.0754 0.22625,0.0302 0.52792,0.0905 -0.22625,-0.0302 -0.46758,0.0452 -0.22625,0.0754 -0.43742,0.16591 -0.24133,0.10559 -0.4525,0.25642 -0.13575,0.0905 -0.31675,0.2715 -0.16592,0.181 -0.48267,0.34692 -0.31675,0.16592 -0.84467,0.28658 -0.51283,0.10559 -1.32733,0.0754 -0.980418,-0.0302 -1.644085,-0.34692 -0.663668,-0.33183 -1.070918,-0.79942 -0.407251,-0.48266 -0.588251,-1.04075 -0.181,-0.55808 -0.196084,-1.04075 -0.01508,-0.48267 0.286584,-1.01058 0.301667,-0.52792 0.844668,-0.96534 0.558084,-0.43741 1.342418,-0.70892 0.784334,-0.28658 1.719502,-0.28658 0.542996,0 0.995506,0.13575 0.46758,0.12067 0.84466,0.33184 0.39217,0.21116 0.67875,0.48266 0.28659,0.25642 0.48267,0.52792 0.19608,0.28658 0.33183,0.60333 0.12067,0.2715 0.19609,0.61842 0.0754,0.34692 0.0452,0.70892 -1.14634,0.0302 -1.85525,0.0452 -0.69384,0.0151 -1.08601,0.0151 l -0.678746,0 -0.512834,0 q -0.2715,0 -0.708917,0.0151 -0.437418,0.0151 -1.070918,0.0453 0.07542,0.60333 0.377083,0.93516 0.316751,0.31675 0.663668,0.48267 0.392167,0.181 0.859751,0.21117 z m -1.357502,-2.71501 q 0.482668,0.0302 0.799418,0.0452 0.331834,0.0151 0.543001,0.0302 0.22625,0.0151 0.362,0.0151 l 0.377086,0 q 0.37708,0 1.40275,-0.0452 -0.0453,-0.66366 -0.28658,-1.01058 -0.22625,-0.34692 -0.48267,-0.51283 -0.30167,-0.181 -0.66367,-0.21117 -0.980417,0.0151 -1.463084,0.40725 -0.467584,0.39217 -0.588251,1.28208 z"
         style="font-style:normal;font-variant:normal;font-weight:normal;font-stretch:normal;font-family:'Lakki Reddy';-inkscape-font-specification:'Lakki Reddy';text-align:center;text-anchor:middle;fill:#00ff00"
         id="path4203"
         inkscape:connector-curvature="0" />
      <path
         d="m 107.70791,104.05305 q 0.4525,0.0452 0.75417,0.0754 0.31675,0.0302 0.51283,0.0452 0.22625,0.0151 0.362,0.0151 0.13575,0.0151 0.362,0 0.19609,-0.0151 0.51284,-0.0302 0.31675,-0.0302 0.79942,-0.0905 -0.10559,0.15083 -0.16592,0.2715 -0.0603,0.10558 -0.10558,0.19608 l -0.0905,0.181 q -0.0302,0.0905 -0.0603,0.181 -0.0302,0.0754 -0.0603,0.181 -0.0151,0.10559 -0.0302,0.22625 l 2.32284,0 -0.21117,1.22176 -2.12675,-0.12067 q -0.0754,0.76925 -0.10558,1.19158 -0.0302,0.42234 -0.0603,0.61842 l -0.0302,0.2715 q -0.0453,0.57317 -0.0905,1.25192 -0.0452,0.66367 -0.0302,1.23683 0.0151,0.57317 0.10558,0.96534 0.0905,0.37708 0.31675,0.37708 0.22625,0 0.42234,-0.12066 0.19608,-0.12067 0.33183,-0.28659 0.15083,-0.16592 0.22625,-0.33183 0.0754,-0.181 0.0754,-0.2715 0,-0.0905 -0.0453,-0.21117 -0.0754,-0.22625 -0.2715,-0.57317 0.43741,0.10559 0.76925,0.21117 0.16591,0.0603 0.30166,0.12067 0.15084,0.0603 0.34692,0.13575 0.16592,0.0754 0.42234,0.181 0.25641,0.10558 0.60333,0.25641 -0.33183,0.0603 -0.48267,0.19609 -0.0905,0.0603 -0.13575,0.13575 -0.10558,0.16592 -0.24133,0.4525 -0.13575,0.2715 -0.40725,0.543 -0.2715,0.2715 -0.73909,0.48267 -0.4525,0.21116 -1.22175,0.24133 -0.79941,0.0302 -1.22175,-0.2715 -0.40725,-0.30167 -0.60333,-0.69383 -0.181,-0.40725 -0.21117,-0.79942 -0.0302,-0.39217 -0.0452,-0.52792 -0.0151,-0.13575 0,-0.67875 0.0151,-0.543 0.0452,-1.19158 0.0302,-0.66367 0.0603,-1.26701 0.0302,-0.61841 0.0302,-0.905 0,-0.15083 0.0151,-0.31675 0,-0.13575 0,-0.28658 0.0151,-0.16592 0.0151,-0.31675 l -2.18709,-0.0151 -0.0905,-0.85975 2.20217,0.0603 q -0.0302,-0.16592 -0.0754,-0.30167 -0.0302,-0.15083 -0.0603,-0.24133 -0.0453,-0.10559 -0.0905,-0.181 -0.0603,-0.0754 -0.13575,-0.16592 -0.0754,-0.0754 -0.19608,-0.19608 -0.12067,-0.12067 -0.28659,-0.2715 z"
         style="font-style:normal;font-variant:normal;font-weight:normal;font-stretch:normal;font-family:'Lakki Reddy';-inkscape-font-specification:'Lakki Reddy';text-align:center;text-anchor:middle;fill:#00ff00"
         id="path4205"
         inkscape:connector-curvature="0" />
      <path
         d="m 117.21043,106.79822 q 0.39216,0 0.8145,0.15083 0.42233,0.13575 0.8145,0.362 0.39217,0.21117 0.70892,0.46758 0.33183,0.24134 0.543,0.46759 0.37708,0.40725 0.51283,1.10108 0.15083,0.67875 0.0603,1.40275 -0.0905,0.70892 -0.42233,1.34242 -0.33183,0.6335 -0.92008,0.93517 -0.42234,0.21117 -0.82959,0.33183 -0.40725,0.12067 -0.78433,0.181 -0.37709,0.0603 -0.70892,0.0603 -0.33183,0 -0.57317,-0.0151 -0.4525,-0.0302 -0.95025,-0.31675 -0.48267,-0.28658 -0.92008,-0.70891 -0.42234,-0.42234 -0.724,-0.92009 -0.30167,-0.51283 -0.36201,-0.96533 -0.0905,-0.61842 -0.0302,-1.29717 0.0603,-0.67875 0.43742,-1.25192 0.39216,-0.57317 1.1765,-0.95025 0.79941,-0.37708 2.15692,-0.37708 z m -0.49775,5.85234 q 0.16591,0.0302 0.4525,-0.0754 0.28658,-0.12067 0.55808,-0.37708 0.28658,-0.25642 0.49775,-0.64859 0.22625,-0.40725 0.2715,-0.98042 0.0453,-0.55808 0,-1.02566 -0.0302,-0.46759 -0.13575,-0.81451 -0.10558,-0.362 -0.24133,-0.58825 -0.13575,-0.22625 -0.28659,-0.31675 -0.25641,-0.13575 -0.61841,-0.21116 -0.362,-0.0905 -0.61842,0.0302 -0.12067,0.0603 -0.30167,0.25642 -0.181,0.19608 -0.362,0.49775 -0.181,0.28658 -0.33183,0.66367 -0.13575,0.37708 -0.19609,0.78433 -0.0603,0.40725 -0.0302,0.87484 0.0452,0.46758 0.19608,0.88991 0.15083,0.40726 0.42233,0.70892 0.28659,0.28659 0.72401,0.33184 z"
         style="font-style:normal;font-variant:normal;font-weight:normal;font-stretch:normal;font-family:'Lakki Reddy';-inkscape-font-specification:'Lakki Reddy';text-align:center;text-anchor:middle;fill:#00ff00"
         id="path4207"
         inkscape:connector-curvature="0" />
      <path
         d="m 0.11837076,121.38032 q 2.27381514,0.2715 3.93675464,0.40725 1.6629394,0.10182 2.7489407,0.16969 1.255689,0.0679 2.1041275,0.0339 0.882376,-0.0339 2.4095654,-0.16969 1.289626,-0.10181 3.393754,-0.2715 2.104127,-0.20362 5.260319,-0.543 0.03394,0.78056 0.03394,1.52719 0.03394,0.71269 0.06788,1.25569 0.03394,0.64481 0.03394,1.18781 0,0.57694 -0.06788,1.45932 -0.06788,0.74662 -0.237563,1.9005 -0.13575,1.11994 -0.441188,2.68106 -0.475126,-1.83262 -0.916314,-2.95256 -0.441188,-1.15388 -0.814501,-1.83263 -0.40725,-0.78056 -0.814501,-1.18781 -0.441188,-0.30544 -1.052063,-0.50907 -0.543001,-0.16968 -1.391439,-0.2715 -0.814501,-0.10181 -1.93444,0.0339 -0.169688,4.47976 -0.237563,7.26263 -0.06787,2.78288 -0.101813,4.34401 -0.03394,1.86656 -0.03394,2.68107 0.03394,1.15387 0.373313,2.27381 0.2715,0.95025 0.882376,1.96838 0.610875,1.01812 1.764752,1.79869 l -4.14038,0 q -0.576938,0 -1.4253767,0.0679 -0.7126883,0.0679 -1.8326271,0.13575 -1.0860013,0.0679 -2.5453155,0.23757 0.5090631,-0.88238 0.8145009,-1.59507 0.3054379,-0.71269 0.4751256,-1.22175 0.2036252,-0.61088 0.3054378,-1.086 0.033938,-0.67875 0.1696877,-2.74894 0.033938,-0.84844 0.067875,-2.10413 0.067875,-1.25569 0.1357502,-2.9865 0.1018126,-1.73082 0.1696877,-3.9707 0.1018126,-2.27381 0.2036252,-5.12456 -0.6108757,-0.16969 -1.1538763,0.0339 -0.5430007,0.16969 -0.9502512,0.44119 -0.4751255,0.33938 -0.9163135,0.8145 -0.4411881,0.57694 -0.9841887,1.49325 -0.4751256,0.78057 -1.0860013,2.07019 -0.6108757,1.25569 -1.3914391,3.12226 -0.16968771,-1.96838 -0.23756279,-3.22407 -0.0678751,-1.28962 -0.10181262,-2.00231 -0.0339375,-0.84844 -0.0339375,-1.25569 0,-0.37331 -0.0678751,-0.98419 -0.0678751,-0.50906 -0.1696877,-1.32356 -0.10181262,-0.84844 -0.27150032,-2.03626 z"
         style="font-style:normal;font-variant:normal;font-weight:normal;font-stretch:normal;font-size:34.75204086px;font-family:'Lakki Reddy';-inkscape-font-specification:'Lakki Reddy';text-align:center;text-anchor:middle;fill:#ffffff"
         id="path4209"
         inkscape:connector-curvature="0" />
      <path
         d="m 18.071329,122.05907 q 1.187814,0.13575 2.002315,0.20363 0.814501,0.0339 1.289626,0.0679 0.576938,0.0339 0.916314,0.0339 0.576938,0 1.323564,-0.0339 0.644813,-0.0339 1.493252,-0.10181 0.882376,-0.10181 1.900502,-0.30544 -0.475126,0.50907 -0.780564,0.98419 -0.305437,0.44119 -0.475125,0.8145 -0.203625,0.40725 -0.339376,0.74663 -0.13575,0.44119 -0.305437,1.3575 -0.169688,0.78056 -0.373313,2.20594 -0.169688,1.42538 -0.441188,3.73313 1.153876,0.0339 2.002315,0.0339 0.848438,-0.0339 1.425376,-0.0339 l 1.119939,0 q 0.475126,-0.0339 1.086001,-0.0679 1.018126,-0.0339 3.088316,-0.20363 0.169688,-1.56113 0.169688,-2.68107 0.03394,-1.15387 -0.03394,-1.93444 -0.06788,-0.88237 -0.203626,-1.49325 -0.101812,-0.33937 -0.305438,-0.8145 -0.169687,-0.40725 -0.475125,-0.98419 -0.2715,-0.61087 -0.746626,-1.45931 0.882376,0.13575 1.561127,0.20362 0.712688,0.0339 1.187814,0.0679 0.543,0.0339 0.916313,0.0339 0.373313,0 0.984189,-0.0339 0.509063,-0.0339 1.255689,-0.0339 0.746626,-0.0339 1.832627,-0.10181 -0.2715,0.47512 -0.475125,0.98419 -0.203626,0.50906 -0.339376,0.91631 -0.13575,0.47513 -0.2715,0.95025 -0.169688,0.71269 -0.305438,2.07019 -0.101813,1.3575 -0.203625,3.02044 -0.06788,1.66294 -0.13575,3.46163 -0.03394,1.79869 -0.06787,3.39376 0,1.59506 0.03394,2.85075 0.03394,1.22175 0.13575,1.73081 0.101813,0.61088 0.339376,1.25569 0.203625,0.57694 0.543,1.25569 0.339376,0.64482 0.882376,1.22175 l -8.178947,0.61088 q 0.509063,-0.47513 0.814501,-0.91631 0.305438,-0.47513 0.475126,-0.81451 0.169687,-0.37331 0.237562,-0.71268 0.03394,-0.40725 0.101813,-1.42538 0.06788,-0.84844 0.13575,-2.40957 0.06788,-1.56112 0.13575,-4.14038 -0.475125,0 -1.153876,0.0339 -0.644813,0 -1.221751,0.0339 -0.678751,0.0339 -1.425377,0.0339 -0.746626,0.0339 -1.561127,0.0679 -0.678751,0.0679 -1.527189,0.13575 -0.814501,0.0339 -1.629002,0.10182 -0.06788,1.42537 0,2.51137 0.06787,1.05207 0.203625,1.79869 0.13575,0.88238 0.339376,1.52719 0.203625,0.61088 0.441188,1.22175 0.203625,0.543 0.475125,1.15388 0.305438,0.61088 0.610876,1.086 -0.644813,-0.0679 -1.187814,-0.10181 -0.543001,-0.0679 -0.950251,-0.13575 -0.475126,-0.0339 -0.916314,-0.0679 -0.441188,0 -1.052063,-0.0339 -0.543001,-0.0339 -1.357502,-0.0339 -0.814501,-0.0339 -1.900502,-0.0339 0.644813,-0.64481 1.018126,-1.25569 0.40725,-0.64481 0.576938,-1.15387 0.203625,-0.61088 0.2715,-1.11994 0.03394,-0.44119 0.03394,-1.66294 0.03394,-1.22175 0,-2.78288 0,-1.59507 -0.03394,-3.32588 -0.03394,-1.76475 -0.101812,-3.29194 -0.03394,-1.52719 -0.101813,-2.61319 -0.03394,-1.11994 -0.06787,-1.39144 -0.169688,-0.61088 -0.509063,-1.32357 -0.305438,-0.57693 -0.814501,-1.32356 -0.509063,-0.78056 -1.391439,-1.56113 z"
         style="font-style:normal;font-variant:normal;font-weight:normal;font-stretch:normal;font-size:34.75204086px;font-family:'Lakki Reddy';-inkscape-font-specification:'Lakki Reddy';text-align:center;text-anchor:middle;fill:#ffffff"
         id="path4211"
         inkscape:connector-curvature="0" />
      <path
         d="m 38.230229,122.97539 q 2.375628,0.0679 3.936755,0.10181 1.595064,0 2.579253,0 l 1.79869,0 10.113386,0 q 0.06788,0.67875 0.101813,1.32356 0.06788,0.61088 0.06788,1.08601 0,0.57693 -0.03394,1.05206 -0.03394,0.47512 -0.101813,1.01813 -0.06788,0.47512 -0.13575,1.01812 -0.06788,0.543 -0.237563,1.11994 -0.475126,-1.83263 -1.289627,-2.78288 -0.780563,-0.95025 -1.595064,-1.39144 -0.950251,-0.50906 -2.002315,-0.543 -1.391439,0.0679 -2.172002,0.23757 -0.780564,0.16968 -1.221752,0.47512 -0.441188,0.30544 -0.678751,0.71269 -0.203625,0.37331 -0.441188,0.84844 -0.203625,0.40725 -0.373312,1.25569 -0.169688,0.71268 -0.339376,1.93444 -0.13575,1.22175 -0.305438,3.15619 0.916314,-0.2715 1.459314,-0.50907 0.576939,-0.23756 0.916314,-0.40725 0.373313,-0.20362 0.543001,-0.37331 0.13575,-0.20362 0.40725,-0.74663 0.203625,-0.47512 0.543001,-1.28962 0.373313,-0.8145 0.882376,-2.23988 0.06788,1.56113 0.06788,2.61319 0,1.01813 0.03394,1.66294 0,0.74663 0.03394,1.18781 l 0,1.28963 q 0,0.71269 0,1.93444 0.03394,1.18781 0.101813,3.02044 -0.407251,-1.25569 -0.746626,-1.96838 -0.305438,-0.74662 -0.543001,-1.11993 -0.2715,-0.44119 -0.475125,-0.61088 -0.237563,-0.0679 -0.644814,-0.13575 -0.373313,-0.0339 -0.950251,-0.0339 -0.543,0 -1.391439,0.16969 -0.101813,1.86656 -0.03394,3.02044 0.101813,1.11994 0.271501,1.73082 0.169688,0.71268 0.40725,1.01812 0.305438,0.30544 1.221752,0.50907 0.916313,0.16968 2.07019,0.13575 1.187814,-0.0679 2.409565,-0.40726 1.221751,-0.33937 2.172003,-1.11993 0.712688,-0.64482 1.527189,-1.62901 0.678751,-0.84843 1.493252,-2.13806 0.848438,-1.28963 1.662939,-3.12225 -0.13575,1.52718 -0.203625,2.54531 -0.03394,0.98419 -0.101813,1.59507 -0.06788,0.71268 -0.101812,1.086 0,0.40725 -0.101813,1.15387 -0.06788,0.64482 -0.237563,1.76475 -0.13575,1.08601 -0.373313,2.78288 -1.595064,0.0339 -3.020441,0.0679 -1.425376,0 -2.511378,0.0339 -1.289626,0.0339 -2.375628,0.0679 -1.119938,0 -2.47744,0.10181 -1.187814,0.0679 -2.816816,0.20363 -1.595064,0.13575 -3.529504,0.37331 0.169688,-2.30775 0.237563,-4.344 0.101812,-2.07019 0.13575,-3.63132 0.03394,-1.83263 0,-3.39375 0.169688,-3.90282 -0.13575,-6.31239 -0.305438,-2.40956 -0.712688,-3.08831 -0.203626,-0.23757 -0.576939,-0.57694 -0.305438,-0.2715 -0.848438,-0.64481 -0.543001,-0.37332 -1.357502,-0.84844 z"
         style="font-style:normal;font-variant:normal;font-weight:normal;font-stretch:normal;font-size:34.75204086px;font-family:'Lakki Reddy';-inkscape-font-specification:'Lakki Reddy';text-align:center;text-anchor:middle;fill:#ffffff"
         id="path4213"
         inkscape:connector-curvature="0" />
      <path
         d="m 82.077526,121.65182 q 2.172002,-0.0339 3.563441,0.78057 1.425377,0.8145 2.307753,1.93444 0.882376,1.11994 1.357502,2.27381 0.475125,1.11994 0.746626,1.76475 0.06788,0.16969 0.2715,0.44119 0.169688,0.23756 0.475126,0.57694 0.339375,0.30544 0.848438,0.71269 -1.052064,0.0339 -1.866565,0.0679 -0.814501,0 -1.391439,0.0339 -0.644813,0.0339 -1.153876,0.0679 -0.509063,0.0339 -1.255689,0.10181 -0.678751,0.0679 -1.66294,0.13575 -0.984188,0.0679 -2.409565,0.20362 0.848439,-1.01812 1.323564,-1.79869 0.509063,-0.8145 0.746626,-1.42537 0.2715,-0.64482 0.305438,-1.11994 0.06788,-0.47513 -0.03394,-0.8145 -0.203625,-0.78057 -1.052063,-1.11994 -2.443503,-0.67875 -4.27613,1.086 -1.79869,1.73081 -2.579253,5.70151 -0.373313,1.96837 -0.712689,4.10644 -0.305438,2.10413 -0.237563,3.86888 0.06788,1.73081 0.678751,2.81681 0.610876,1.08601 2.104128,1.01813 1.459314,-0.0679 2.47744,-0.47512 1.018126,-0.44119 1.629002,-1.01813 0.610876,-0.61088 0.848439,-1.28963 0.2715,-0.71269 0.203625,-1.32356 -0.13575,-0.47513 -0.712689,-1.01813 -0.509063,-0.47512 -1.527189,-1.05206 -1.018126,-0.61088 -2.918628,-1.25569 1.798689,-0.10181 2.952566,-0.13575 1.187814,-0.0679 1.866564,-0.13575 0.814501,-0.0679 1.255689,-0.10181 0.407251,-0.0339 1.187814,-0.0679 0.678751,-0.0339 1.730815,-0.0339 1.086001,0 2.715003,-0.0339 -0.610876,0.61087 -0.950251,1.11994 -0.169688,0.2715 -0.305438,0.47512 -0.13575,0.33938 -0.101813,1.39144 0,0.88238 0.135751,2.61319 0.13575,1.69688 0.509063,4.64944 l -4.513693,0.61088 0.203625,-4.58157 q -0.780563,1.86657 -1.968377,2.78288 -1.153877,0.91631 -2.20594,1.28963 -1.255689,0.44118 -2.613191,0.40725 -1.764752,-0.16969 -3.529504,-0.8145 -1.764752,-0.64482 -3.122254,-1.96838 -1.357501,-1.3575 -2.104127,-3.49557 -0.712689,-2.13806 -0.441188,-5.29425 0.305438,-3.1562 1.493252,-5.49789 1.221751,-2.37562 3.020441,-3.93675 1.798689,-1.56113 4.038567,-2.34169 2.273815,-0.8145 4.649443,-0.88238 z"
         style="font-style:normal;font-variant:normal;font-weight:normal;font-stretch:normal;font-size:34.75204086px;font-family:'Lakki Reddy';-inkscape-font-specification:'Lakki Reddy';text-align:center;text-anchor:middle;fill:#ffffff"
         id="path4215"
         inkscape:connector-curvature="0" />
      <path
         d="m 96.636731,123.17901 q 1.696877,0.10182 2.850754,0.16969 1.187815,0.0339 1.968375,0.0679 0.88238,0.0339 1.49325,0 0.61088,-0.0339 1.66294,-0.16969 0.88238,-0.10181 2.34169,-0.30544 1.49326,-0.23756 3.6992,-0.61088 -0.78057,0.78057 -1.22176,1.42538 -0.40725,0.61088 -0.64481,1.05206 -0.2715,0.54301 -0.37331,0.91632 -0.0679,0.33937 0.13575,1.69688 0.20362,1.3575 0.57694,3.22406 0.37331,1.83263 0.8145,3.93676 0.44118,2.07019 0.88237,3.90281 0.44119,1.79869 0.78057,3.08832 0.37331,1.25569 0.543,1.49325 0.50906,0.71269 0.64481,0.95025 0.13575,0.20363 0.47513,0.37332 0.13575,0.0679 0.44118,0.20362 0.2715,0.13575 0.71269,0.33938 0.47513,0.20362 1.18782,0.47512 -1.32357,0.0679 -2.27382,0.10181 -0.95025,0 -1.56113,0.0339 -0.71268,0.0339 -1.22175,0.0679 -0.50906,0 -1.22175,0.0679 -0.61087,0.0679 -1.59506,0.13575 -0.95025,0.0679 -2.23988,0.13575 0.67875,-0.47512 1.086,-0.84844 0.44119,-0.40725 0.67875,-0.67875 0.2715,-0.33937 0.37331,-0.61087 0.0679,-0.30544 0.10182,-0.91632 0.0339,-0.543 0,-1.42537 -0.0339,-0.91632 -0.16969,-2.37563 l -8.925574,0.91631 q -0.339375,0.57694 -0.509063,1.01813 -0.169688,0.40725 -0.237563,0.71269 -0.101812,0.37331 -0.06788,0.61087 0.06788,0.2715 0.237563,0.64482 0.169688,0.33937 0.475125,0.8145 0.339376,0.44118 0.984189,1.05206 -0.848438,-0.0339 -1.730814,-0.0339 -0.882376,0 -1.629002,0.0339 -0.882376,0.0339 -1.730815,0.0679 -0.848438,0.0339 -1.93444,0.10181 -0.916313,0.0679 -2.138065,0.16969 -1.255689,0.0679 -2.681065,0.20362 0.882376,-0.40725 1.493251,-0.8145 0.610876,-0.44119 1.018127,-0.8145 0.475125,-0.40725 0.814501,-0.78056 0.237562,-0.33938 0.950251,-1.56113 0.712688,-1.25569 1.595064,-2.95257 0.916314,-1.69687 1.900502,-3.63131 1.018127,-1.93444 1.832627,-3.63132 0.814501,-1.73081 1.323565,-2.9865 0.509063,-1.25569 0.509063,-1.62901 -0.06788,-0.44118 -0.339376,-0.98418 -0.237563,-0.47513 -0.746626,-1.08601 -0.475125,-0.61087 -1.391439,-1.3575 z m 10.520639,13.40533 q -0.20363,-1.18781 -0.37331,-2.03625 -0.16969,-0.88238 -0.2715,-1.45932 -0.13575,-0.67875 -0.20363,-1.18781 -0.10181,-0.47513 -0.23756,-1.22175 -0.13575,-0.64481 -0.33938,-1.59507 -0.16969,-0.98418 -0.44119,-2.34169 -1.93444,3.86888 -3.02044,6.00695 -1.05206,2.10413 -1.52719,3.08831 -0.57693,1.15388 -0.64481,1.35751 l 7.05901,-0.61088 z"
         style="font-style:normal;font-variant:normal;font-weight:normal;font-stretch:normal;font-size:34.75204086px;font-family:'Lakki Reddy';-inkscape-font-specification:'Lakki Reddy';text-align:center;text-anchor:middle;fill:#ffffff"
         id="path4217"
         inkscape:connector-curvature="0" />
      <path
         d="m 113.70731,121.82151 q 1.086,0.0339 1.90051,0.0339 0.8145,-0.0339 1.32356,-0.0339 l 0.98419,0 q 0.37331,-0.0339 0.91631,-0.0339 0.47513,0 1.15388,0 0.67875,0 1.56113,0.0339 0.2715,0.95025 0.61087,1.86657 0.37331,0.88237 0.64481,1.59506 0.33938,0.84844 0.67876,1.59506 0.33937,0.74663 0.8145,1.79869 0.40725,0.88238 0.98418,2.17201 0.57694,1.25569 1.35751,2.88469 0.37331,-1.05207 0.67875,-1.93444 0.33937,-0.88238 0.57694,-1.52719 0.2715,-0.74663 0.44118,-1.3575 0.16969,-0.61088 0.37332,-1.49325 0.16968,-0.74663 0.37331,-1.79869 0.23756,-1.05207 0.47512,-2.44351 0.98419,0 1.76476,0 0.78056,0 1.3575,-0.0339 0.64481,0 1.15387,-0.0339 0.54301,0 1.45932,-0.0679 0.78056,-0.0679 2.07019,-0.10181 1.32356,-0.0679 3.258,-0.16969 -0.71269,0.50907 -1.15387,1.01813 -0.40725,0.47512 -0.64482,0.84844 -0.2715,0.44118 -0.33937,0.84844 -0.0679,0.33937 -0.13575,1.56112 -0.0339,1.22175 -0.10182,2.91863 -0.0339,1.66294 -0.0679,3.56344 0,1.9005 0.0339,3.59738 0.0339,1.69688 0.10181,2.95257 0.10181,1.22175 0.2715,1.56112 0.23756,0.40725 0.64481,0.95026 0.37332,0.47512 0.95025,1.086 0.61088,0.61087 1.59507,1.3575 -1.56113,0.0679 -2.61319,0.10181 -1.01813,0.0339 -1.69688,0.0679 -0.78056,0.0339 -1.25569,0.0339 -0.50906,0 -1.39144,0.0339 -0.78056,0.0339 -2.07019,0.10181 -1.28962,0.0339 -3.32588,0.13575 0.47513,-0.543 0.88238,-1.086 0.40725,-0.543 0.67875,-0.98419 0.33938,-0.50906 0.57694,-0.98418 0.23756,-0.64482 0.37331,-2.34169 0.13575,-1.45932 0.20363,-4.17432 0.0679,-2.74894 0,-7.36445 -0.64482,1.05207 -1.15388,2.10413 -0.47512,1.01813 -0.84844,1.86656 -0.40725,0.98419 -0.74662,1.90051 -0.33938,0.95025 -0.71269,2.10412 -0.33938,0.98419 -0.8145,2.34169 -0.44119,1.35751 -1.01813,2.98651 l -1.28962,0.0679 q -0.27151,-1.3575 -0.54301,-2.4435 -0.2715,-1.11994 -0.543,-1.9005 -0.30543,-0.91632 -0.61087,-1.629 -0.33938,-0.71269 -0.74663,-1.59507 -0.37331,-0.74663 -0.91631,-1.76475 -0.50906,-1.01813 -1.18782,-2.27382 -0.33937,3.46163 -0.40725,5.63364 -0.0679,2.13806 0,3.32587 0.0679,1.42538 0.20363,2.07019 0.20362,0.57694 0.64481,1.28963 0.37332,0.61088 1.01813,1.45931 0.67875,0.81451 1.73081,1.83263 -0.74662,0 -1.56112,0 -0.8145,0 -1.49326,0.0339 -0.8145,0.0339 -1.59506,0.0339 -0.8145,0.0339 -1.9005,0.10181 -0.95025,0.0679 -2.27382,0.13575 -1.32356,0.0679 -3.05438,0.23756 0.74663,-0.47512 1.22176,-0.91631 0.47512,-0.47513 0.74662,-0.84844 0.33938,-0.44119 0.50906,-0.88238 0.10182,-0.2715 0.16969,-1.18781 0.10182,-0.91631 0.16969,-2.23988 0.10181,-1.32356 0.13575,-2.95256 0.0679,-1.62901 0.10181,-3.29194 0.0679,-1.69688 0.10182,-3.29195 0.0339,-1.629 0.0339,-2.91862 0.0339,-1.32357 0.0339,-2.20594 0,-0.88238 0,-1.11994 -0.10181,-0.50907 -0.30544,-1.01813 -0.16968,-0.44119 -0.543,-0.91631 -0.37331,-0.47513 -0.98419,-0.88238 z"
         style="font-style:normal;font-variant:normal;font-weight:normal;font-stretch:normal;font-size:34.75204086px;font-family:'Lakki Reddy';-inkscape-font-specification:'Lakki Reddy';text-align:center;text-anchor:middle;fill:#ffffff"
         id="path4219"
         inkscape:connector-curvature="0" />
      <path
         d="m 139.9071,122.97539 q 2.37563,0.0679 3.93676,0.10181 1.59506,0 2.57925,0 l 1.79869,0 10.11339,0 q 0.0679,0.67875 0.10181,1.32356 0.0679,0.61088 0.0679,1.08601 0,0.57693 -0.0339,1.05206 -0.0339,0.47512 -0.10182,1.01813 -0.0679,0.47512 -0.13575,1.01812 -0.0679,0.543 -0.23756,1.11994 -0.47513,-1.83263 -1.28963,-2.78288 -0.78056,-0.95025 -1.59506,-1.39144 -0.95025,-0.50906 -2.00232,-0.543 -1.39143,0.0679 -2.172,0.23757 -0.78056,0.16968 -1.22175,0.47512 -0.44119,0.30544 -0.67875,0.71269 -0.20363,0.37331 -0.44119,0.84844 -0.20362,0.40725 -0.37331,1.25569 -0.16969,0.71268 -0.33938,1.93444 -0.13575,1.22175 -0.30543,3.15619 0.91631,-0.2715 1.45931,-0.50907 0.57694,-0.23756 0.91631,-0.40725 0.37332,-0.20362 0.543,-0.37331 0.13575,-0.20362 0.40725,-0.74663 0.20363,-0.47512 0.54301,-1.28962 0.37331,-0.8145 0.88237,-2.23988 0.0679,1.56113 0.0679,2.61319 0,1.01813 0.0339,1.66294 0,0.74663 0.0339,1.18781 l 0,1.28963 q 0,0.71269 0,1.93444 0.0339,1.18781 0.10181,3.02044 -0.40725,-1.25569 -0.74662,-1.96838 -0.30544,-0.74662 -0.543,-1.11993 -0.2715,-0.44119 -0.47513,-0.61088 -0.23756,-0.0679 -0.64481,-0.13575 -0.37331,-0.0339 -0.95025,-0.0339 -0.543,0 -1.39144,0.16969 -0.10181,1.86656 -0.0339,3.02044 0.10181,1.11994 0.2715,1.73082 0.16969,0.71268 0.40725,1.01812 0.30544,0.30544 1.22175,0.50907 0.91632,0.16968 2.07019,0.13575 1.18782,-0.0679 2.40957,-0.40726 1.22175,-0.33937 2.172,-1.11993 0.71269,-0.64482 1.52719,-1.62901 0.67875,-0.84843 1.49325,-2.13806 0.84844,-1.28963 1.66294,-3.12225 -0.13575,1.52718 -0.20362,2.54531 -0.0339,0.98419 -0.10182,1.59507 -0.0679,0.71268 -0.10181,1.086 0,0.40725 -0.10181,1.15387 -0.0679,0.64482 -0.23756,1.76475 -0.13575,1.08601 -0.37332,2.78288 -1.59506,0.0339 -3.02044,0.0679 -1.42538,0 -2.51138,0.0339 -1.28962,0.0339 -2.37562,0.0679 -1.11994,0 -2.47744,0.10181 -1.18782,0.0679 -2.81682,0.20363 -1.59506,0.13575 -3.5295,0.37331 0.16968,-2.30775 0.23756,-4.344 0.10181,-2.07019 0.13575,-3.63132 0.0339,-1.83263 0,-3.39375 0.16969,-3.90282 -0.13575,-6.31239 -0.30544,-2.40956 -0.71269,-3.08831 -0.20363,-0.23757 -0.57694,-0.57694 -0.30544,-0.2715 -0.84844,-0.64481 -0.543,-0.37332 -1.3575,-0.84844 z"
         style="font-style:normal;font-variant:normal;font-weight:normal;font-stretch:normal;font-size:34.75204086px;font-family:'Lakki Reddy';-inkscape-font-specification:'Lakki Reddy';text-align:center;text-anchor:middle;fill:#ffffff"
         id="path4221"
         inkscape:connector-curvature="0" />
    </g>
    <g
       style="font-style:normal;font-weight:normal;font-size:15.44535255px;line-height:125%;font-family:sans-serif;letter-spacing:0px;word-spacing:0px;fill:#000000;fill-opacity:1;stroke:none;stroke-width:1px;stroke-linecap:butt;stroke-linejoin:miter;stroke-opacity:1"
       id="text4143-3">
      <path
         d="m 40.184968,209.68981 q 0.497751,0.0603 0.905001,0.0905 0.392167,0.0302 0.678751,0.0603 0.331834,0.0302 0.588251,0.0452 0.2715,0 0.693834,-0.0151 0.362,-0.0151 0.920084,-0.0453 0.558084,-0.0302 1.372585,-0.10558 -0.392167,0.22625 -0.648584,0.4525 -0.241333,0.22625 -0.377084,0.40725 -0.165916,0.21117 -0.241333,0.42234 -0.04525,0.28658 0.03017,1.11616 0.03017,0.34692 0.0905,0.85976 0.07542,0.49775 0.181,1.19158 0.120667,0.67875 0.286584,1.56867 0.181,0.88992 0.40725,2.02117 0.301667,-0.85975 0.497751,-1.52342 0.196083,-0.67875 0.331833,-1.16142 0.150834,-0.543 0.256417,-0.96533 0.105584,-0.43742 0.256417,-1.13125 0.120667,-0.58826 0.316751,-1.52342 0.196083,-0.93517 0.482667,-2.30776 l 0.543001,0.0754 q 0.07542,1.07092 0.150833,1.88542 0.0905,0.8145 0.150834,1.38767 0.06033,0.66367 0.120667,1.14633 0.06033,0.43742 0.181,1.01059 0.105583,0.48266 0.2715,1.19158 0.165917,0.69384 0.437417,1.56867 0.271501,-1.07092 0.482668,-1.91558 0.22625,-0.84467 0.377083,-1.49326 0.165917,-0.64858 0.271501,-1.11616 0.120667,-0.46759 0.196083,-0.78434 0.165917,-0.75417 0.196084,-1.01058 -0.01508,-0.28659 -0.13575,-0.55809 -0.105584,-0.24133 -0.331834,-0.52791 -0.22625,-0.28659 -0.663667,-0.55809 0.920084,0.0302 1.493251,0.0453 0.588251,0 0.935168,0 l 0.603334,0 0.543001,0 q 0.301667,0 0.784334,0 0.497751,-0.0151 1.267002,-0.0453 -0.663668,0.34692 -1.070918,0.6335 -0.407251,0.28659 -0.633501,0.48267 -0.2715,0.24133 -0.392167,0.40725 -0.120667,0.30167 -0.392167,1.3575 -0.120667,0.4525 -0.271501,1.13125 -0.150833,0.66367 -0.362,1.59884 -0.196084,0.93517 -0.452501,2.18708 -0.256417,1.23684 -0.573167,2.83567 l -2.60942,-0.2715 -1.116168,-4.69092 q -0.256417,1.28209 -0.40725,2.0815 -0.150834,0.78434 -0.226251,1.22176 -0.0905,0.52791 -0.105583,0.76925 -0.01508,0.21116 -0.03017,0.40725 -0.01508,0.16591 -0.04525,0.362 -0.01508,0.19608 -0.04525,0.362 l -2.669753,0 q -0.392167,-1.7195 -0.708918,-3.03176 -0.301667,-1.32733 -0.543001,-2.32283 -0.241333,-0.9955 -0.422333,-1.68934 -0.165917,-0.69383 -0.301667,-1.16142 -0.301668,-1.086 -0.437418,-1.34241 -0.105583,-0.12067 -0.2715,-0.28659 -0.13575,-0.13575 -0.331834,-0.33183 -0.211167,-0.21117 -0.482667,-0.46759 z"
         style="font-style:normal;font-variant:normal;font-weight:normal;font-stretch:normal;font-family:'Lakki Reddy';-inkscape-font-specification:'Lakki Reddy';text-align:center;text-anchor:middle;fill:#00ff00"
         id="path4234"
         inkscape:connector-curvature="0" />
      <path
         d="m 57.395073,217.86499 q 0.422334,0 0.784334,-0.0905 0.301667,-0.0754 0.573168,-0.24133 0.286584,-0.181 0.377084,-0.52792 0.301667,0.0603 0.512834,0.10558 0.211167,0.0302 0.362,0.0603 0.165917,0.0453 0.286584,0.0603 0.120667,0.0302 0.286583,0.0603 0.150834,0.0302 0.362001,0.0754 0.22625,0.0302 0.527917,0.0905 -0.22625,-0.0302 -0.467584,0.0453 -0.22625,0.0754 -0.437417,0.16592 -0.241334,0.10558 -0.4525,0.25641 -0.135751,0.0905 -0.316751,0.27151 -0.165917,0.181 -0.482667,0.34691 -0.316751,0.16592 -0.844668,0.28659 -0.512834,0.10558 -1.327335,0.0754 -0.980418,-0.0302 -1.644085,-0.34691 -0.663668,-0.33184 -1.070918,-0.79942 -0.407251,-0.48267 -0.588251,-1.04075 -0.181,-0.55809 -0.196084,-1.04075 -0.01508,-0.48267 0.286584,-1.01059 0.301667,-0.52792 0.844668,-0.96533 0.558084,-0.43742 1.342418,-0.70892 0.784335,-0.28658 1.719502,-0.28658 0.543001,0 0.995502,0.13575 0.467583,0.12066 0.844667,0.33183 0.392167,0.21117 0.678751,0.48267 0.286584,0.25641 0.482667,0.52791 0.196084,0.28659 0.331834,0.60334 0.120667,0.2715 0.196084,0.61842 0.07542,0.34691 0.04525,0.70891 -1.146335,0.0302 -1.855253,0.0453 -0.693834,0.0151 -1.086001,0.0151 l -0.678751,0 -0.512834,0 q -0.2715,0 -0.708917,0.0151 -0.437417,0.0151 -1.070918,0.0452 0.07542,0.60333 0.377084,0.93517 0.31675,0.31675 0.663667,0.48266 0.392167,0.181 0.859751,0.21117 z m -1.357502,-2.715 q 0.482668,0.0302 0.799418,0.0453 0.331834,0.0151 0.543001,0.0302 0.22625,0.0151 0.362,0.0151 l 0.377084,0 q 0.377084,0 1.402752,-0.0452 -0.04525,-0.66367 -0.286584,-1.01059 -0.22625,-0.34691 -0.482667,-0.51283 -0.301667,-0.181 -0.663668,-0.21117 -0.980418,0.0151 -1.463085,0.40725 -0.467584,0.39217 -0.588251,1.28209 z"
         style="font-style:normal;font-variant:normal;font-weight:normal;font-stretch:normal;font-family:'Lakki Reddy';-inkscape-font-specification:'Lakki Reddy';text-align:center;text-anchor:middle;fill:#00ff00"
         id="path4236"
         inkscape:connector-curvature="0" />
      <path
         d="m 62.357496,220.71575 q 0.150833,-0.22626 0.241333,-0.42234 0.0905,-0.19608 0.150834,-0.33183 0.06033,-0.16592 0.0905,-0.30167 0.01508,-0.0905 0.01508,-0.52792 0,-0.43741 -0.03017,-1.10108 -0.01508,-0.66367 -0.04525,-1.49325 -0.01508,-0.82959 -0.06033,-1.68934 -0.03017,-0.85975 -0.07542,-1.67425 -0.03017,-0.8145 -0.06033,-1.46309 -0.03017,-0.66366 -0.06033,-1.086 -0.03017,-0.42233 -0.04525,-0.48266 -0.03017,-0.0905 -0.105584,-0.181 -0.150833,-0.18101 -0.512834,-0.34692 0.769251,-0.19609 1.176502,-0.31675 0.241333,-0.0603 0.422333,-0.12067 0.165917,-0.0603 0.331834,-0.12067 0.13575,-0.0603 0.301667,-0.13575 0.165917,-0.0905 0.301667,-0.19608 -0.07542,0.43742 -0.120667,0.84467 -0.04525,0.40725 -0.07542,0.75417 -0.03017,0.39216 -0.03017,0.75416 -0.07542,0.73909 -0.0905,1.61392 0,0.85975 0.01508,1.74967 0.01508,0.88992 0.06033,1.73459 0.04525,0.84466 0.0905,1.5385 0.06033,0.67875 0.105583,1.16142 0.06033,0.46758 0.0905,0.60333 0.06033,0.22625 0.120667,0.43742 0.06033,0.181 0.13575,0.37708 0.07542,0.21117 0.181001,0.33184 l -1.463086,0 q -0.196083,0 -0.377083,0.0151 -0.165917,0.0151 -0.346917,0.0302 -0.181001,0.0151 -0.331834,0.0453 z"
         style="font-style:normal;font-variant:normal;font-weight:normal;font-stretch:normal;font-family:'Lakki Reddy';-inkscape-font-specification:'Lakki Reddy';text-align:center;text-anchor:middle;fill:#00ff00"
         id="path4238"
         inkscape:connector-curvature="0" />
      <path
         d="m 73.851011,214.93882 q -0.181,-0.0302 -0.452501,-0.0452 -0.256417,-0.0151 -0.49775,-0.0151 -0.271501,0 -0.573168,0.0151 -0.31675,0.0151 -0.633501,0.0302 -0.2715,0.0151 -0.618417,0.0452 -0.331834,0.0151 -0.648584,0.0453 0.120667,-0.0603 0.211167,-0.16592 0.105583,-0.10558 0.181,-0.21117 0.07542,-0.12066 0.13575,-0.25641 0.07542,-0.22625 -0.01508,-0.543 -0.0905,-0.33184 -0.331834,-0.60334 -0.22625,-0.2715 -0.588251,-0.42233 -0.346917,-0.16592 -0.769251,-0.0754 -0.4525,0.10559 -0.814501,0.31675 -0.346917,0.21117 -0.58825,0.58825 -0.226251,0.362 -0.331834,0.905 -0.0905,0.52792 -0.04525,1.26701 0.06033,0.92008 0.301667,1.46308 0.241334,0.543 0.588251,0.8145 0.346917,0.2715 0.754167,0.33184 0.422334,0.0453 0.829585,0 0.286583,-0.0603 0.527917,-0.25642 0.196083,-0.16592 0.362,-0.48267 0.165917,-0.31675 0.150834,-0.87483 l 1.840169,-0.0754 q -0.316751,0.88992 -0.769251,1.41784 -0.452501,0.51283 -0.874835,0.79941 -0.49775,0.33184 -0.995501,0.4525 -0.618417,0.10559 -1.101084,0.0905 -0.482668,-0.0302 -0.874835,-0.15083 -0.392167,-0.12067 -0.724001,-0.30167 -0.331834,-0.181 -0.633501,-0.39216 -0.196083,-0.13575 -0.437417,-0.4525 -0.241333,-0.31676 -0.4525,-0.75417 -0.211167,-0.4525 -0.346917,-0.9955 -0.135751,-0.543 -0.105584,-1.11617 0.03017,-0.58825 0.2715,-1.1765 0.241334,-0.58825 0.769251,-1.13125 0.799418,-0.81451 1.704419,-1.05584 0.920085,-0.25642 1.734586,-0.13575 0.814501,0.10558 1.448001,0.46758 0.633501,0.36201 0.889918,0.78434 0.256417,0.42233 0.377084,0.64858 0.13575,0.21117 0.196084,0.33184 0.07542,0.10558 0.120666,0.16591 0.06033,0.0453 0.165917,0.13575 0.07542,0.0754 0.181001,0.16592 0.0905,0.0754 0.211166,0.181 0.120667,0.10558 0.271501,0.22625 z"
         style="font-style:normal;font-variant:normal;font-weight:normal;font-stretch:normal;font-family:'Lakki Reddy';-inkscape-font-specification:'Lakki Reddy';text-align:center;text-anchor:middle;fill:#00ff00"
         id="path4240"
         inkscape:connector-curvature="0" />
      <path
         d="m 77.667099,213.53607 q 0.392167,0 0.814501,0.15083 0.422333,0.13575 0.814501,0.362 0.392167,0.21117 0.708917,0.46759 0.331834,0.24133 0.543001,0.46758 0.377084,0.40725 0.512834,1.10109 0.150833,0.67875 0.06033,1.40275 -0.0905,0.70892 -0.422334,1.34242 -0.331833,0.6335 -0.920084,0.93516 -0.422334,0.21117 -0.829585,0.33184 -0.40725,0.12066 -0.784334,0.181 -0.377084,0.0603 -0.708917,0.0603 -0.331834,0 -0.573168,-0.0151 -0.4525,-0.0302 -0.950251,-0.31675 -0.482667,-0.28659 -0.920084,-0.70892 -0.422334,-0.42233 -0.724001,-0.92008 -0.301667,-0.51284 -0.362001,-0.96534 -0.0905,-0.61842 -0.03017,-1.29717 0.06033,-0.67875 0.437417,-1.25192 0.392167,-0.57316 1.176501,-0.95025 0.799418,-0.37708 2.15692,-0.37708 z m -0.497751,5.85234 q 0.165917,0.0302 0.4525,-0.0754 0.286584,-0.12066 0.558085,-0.37708 0.286583,-0.25642 0.49775,-0.64858 0.22625,-0.40726 0.2715,-0.98042 0.04525,-0.55809 0,-1.02567 -0.03017,-0.46758 -0.13575,-0.8145 -0.105583,-0.362 -0.241333,-0.58825 -0.13575,-0.22625 -0.286584,-0.31675 -0.256417,-0.13575 -0.618417,-0.21117 -0.362001,-0.0905 -0.618418,0.0302 -0.120667,0.0603 -0.301667,0.25641 -0.181,0.19609 -0.362,0.49775 -0.181001,0.28659 -0.331834,0.66367 -0.13575,0.37709 -0.196084,0.78434 -0.06033,0.40725 -0.03017,0.87483 0.04525,0.46758 0.196083,0.88992 0.150834,0.40725 0.422334,0.70892 0.286584,0.28658 0.724001,0.33183 z"
         style="font-style:normal;font-variant:normal;font-weight:normal;font-stretch:normal;font-family:'Lakki Reddy';-inkscape-font-specification:'Lakki Reddy';text-align:center;text-anchor:middle;fill:#00ff00"
         id="path4242"
         inkscape:connector-curvature="0" />
      <path
         d="m 81.784851,213.1439 q 0.346917,-0.0302 0.588251,-0.0603 0.256417,-0.0302 0.422334,-0.0603 0.196084,-0.0302 0.331834,-0.0603 0.13575,-0.0151 0.301667,-0.0603 0.150833,-0.0302 0.331834,-0.0754 0.196083,-0.0603 0.422333,-0.13575 l -0.0905,1.91559 q 0.331834,-0.52792 0.769251,-0.79942 0.437417,-0.28658 0.829585,-0.42233 0.467584,-0.16592 0.935167,-0.19609 0.482668,0.0151 0.889918,0.15084 0.346917,0.12066 0.693834,0.37708 0.362001,0.25642 0.558084,0.75417 0.512834,-0.52792 1.010585,-0.8145 0.512834,-0.30167 0.905001,-0.4525 0.467584,-0.16592 0.874835,-0.19609 0.543,-0.0151 0.995501,0.181 0.467584,0.19609 0.814501,0.49775 0.346917,0.28659 0.558084,0.61842 0.211167,0.31675 0.241333,0.55808 0.04525,0.33184 -0.04525,0.85976 -0.0905,0.51283 -0.211167,1.05583 -0.120666,0.52792 -0.22625,0.98042 -0.0905,0.43742 -0.07542,0.61842 0.04525,0.15083 0.211167,0.362 0.150834,0.181 0.437418,0.4525 0.301667,0.25641 0.859751,0.60333 -0.482668,-0.0151 -0.859751,-0.0302 -0.362001,-0.0151 -0.618418,-0.0453 -0.301667,-0.0302 -0.527917,-0.0452 -0.181,0 -0.437417,-0.0302 -0.211167,-0.0151 -0.558084,-0.0453 -0.331834,-0.0302 -0.769251,-0.0603 0.165916,-0.0453 0.2715,-0.16591 0.105583,-0.13575 0.181,-0.25642 0.07542,-0.15083 0.120667,-0.33183 0.03017,-0.15084 0.06033,-0.48267 0.03017,-0.33183 0.04525,-0.75417 0.03017,-0.42233 0.03017,-0.88992 0.01508,-0.46758 0,-0.88991 -0.01508,-0.42234 -0.06033,-0.76926 -0.04525,-0.34691 -0.120667,-0.52791 -0.06033,-0.13575 -0.211167,-0.21117 -0.150834,-0.0905 -0.346917,-0.10558 -0.196084,-0.0302 -0.392167,0.0151 -0.196084,0.0302 -0.346917,0.12067 -0.13575,0.10558 -0.362001,0.28658 -0.196083,0.16592 -0.512834,0.4525 -0.31675,0.28659 -0.799417,0.724 -0.04525,0.95025 -0.07542,1.5385 -0.01508,0.57317 -0.03017,0.87484 -0.01508,0.362 -0.01508,0.49775 -0.01508,0.12067 0.01508,0.22625 0.03017,0.22625 0.181,0.42233 -0.181,-0.0453 -0.392167,-0.0603 -0.196083,-0.0151 -0.362,-0.0302 -0.196084,-0.0151 -0.392167,-0.0151 -0.165917,0 -0.362001,0.0151 -0.165917,0.0151 -0.40725,0.0453 -0.241334,0.0151 -0.527918,0.0453 0.120667,-0.0754 0.196084,-0.181 0.07542,-0.10558 0.120667,-0.19608 0.06033,-0.10558 0.0905,-0.19608 0.01508,-0.0905 0.06033,-0.43742 0.04525,-0.362 0.06033,-0.84467 0.01508,-0.48267 0,-1.01058 -0.01508,-0.543 -0.105584,-0.98042 -0.0905,-0.4525 -0.286584,-0.73909 -0.181,-0.28658 -0.482667,-0.25641 -0.362,0.0302 -0.739084,0.181 -0.31675,0.12066 -0.678751,0.362 -0.362,0.24133 -0.678751,0.64858 -0.06033,1.13125 -0.07542,1.79492 0,0.66367 0.01508,1.01059 0.01508,0.40725 0.03017,0.55808 0.01508,0.10558 0.07542,0.21117 0.04525,0.0905 0.105584,0.21116 0.07542,0.12067 0.165917,0.22625 l -2.398253,-0.12066 q 0.120666,-0.0603 0.211167,-0.15084 0.0905,-0.10558 0.150833,-0.21116 0.06033,-0.12067 0.120667,-0.24134 0.04525,-0.10558 0.07542,-0.49775 0.04525,-0.39216 0.07542,-0.92008 0.03017,-0.543 0.04525,-1.13125 0.03017,-0.60334 0.03017,-1.11617 0.01508,-0.52792 0.01508,-0.88992 0,-0.37708 -0.01508,-0.4525 -0.04525,-0.15083 -0.165917,-0.31675 -0.105583,-0.12067 -0.286583,-0.25642 -0.181001,-0.15083 -0.482668,-0.22625 z"
         style="font-style:normal;font-variant:normal;font-weight:normal;font-stretch:normal;font-family:'Lakki Reddy';-inkscape-font-specification:'Lakki Reddy';text-align:center;text-anchor:middle;fill:#00ff00"
         id="path4244"
         inkscape:connector-curvature="0" />
      <path
         d="m 99.115623,217.86499 q 0.422334,0 0.784334,-0.0905 0.301663,-0.0754 0.573163,-0.24133 0.28659,-0.181 0.37709,-0.52792 0.30167,0.0603 0.51283,0.10558 0.21117,0.0302 0.362,0.0603 0.16592,0.0453 0.28659,0.0603 0.12066,0.0302 0.28658,0.0603 0.15083,0.0302 0.362,0.0754 0.22625,0.0302 0.52792,0.0905 -0.22625,-0.0302 -0.46759,0.0453 -0.22625,0.0754 -0.43741,0.16592 -0.24134,0.10558 -0.4525,0.25641 -0.13575,0.0905 -0.31675,0.27151 -0.16592,0.181 -0.48267,0.34691 -0.31675,0.16592 -0.84467,0.28659 -0.512833,0.10558 -1.327334,0.0754 -0.980418,-0.0302 -1.644086,-0.34691 -0.663667,-0.33184 -1.070918,-0.79942 -0.40725,-0.48267 -0.58825,-1.04075 -0.181001,-0.55809 -0.196084,-1.04075 -0.01508,-0.48267 0.286584,-1.01059 0.301667,-0.52792 0.844667,-0.96533 0.558084,-0.43742 1.342419,-0.70892 0.784334,-0.28658 1.719502,-0.28658 0.543,0 0.9955,0.13575 0.46759,0.12066 0.84467,0.33183 0.39217,0.21117 0.67875,0.48267 0.28658,0.25641 0.48267,0.52791 0.19608,0.28659 0.33183,0.60334 0.12067,0.2715 0.19608,0.61842 0.0754,0.34691 0.0453,0.70891 -1.14633,0.0302 -1.85525,0.0453 -0.69383,0.0151 -1.086,0.0151 l -0.67875,0 -0.512834,0 q -0.2715,0 -0.708918,0.0151 -0.437417,0.0151 -1.070918,0.0452 0.07542,0.60333 0.377084,0.93517 0.316751,0.31675 0.663668,0.48266 0.392167,0.181 0.859751,0.21117 z m -1.357502,-2.715 q 0.482667,0.0302 0.799418,0.0453 0.331833,0.0151 0.543,0.0302 0.226251,0.0151 0.362001,0.0151 l 0.377084,0 q 0.377086,0 1.402756,-0.0452 -0.0452,-0.66367 -0.28659,-1.01059 -0.22625,-0.34691 -0.48267,-0.51283 -0.30166,-0.181 -0.663663,-0.21117 -0.980418,0.0151 -1.463085,0.40725 -0.467584,0.39217 -0.588251,1.28209 z"
         style="font-style:normal;font-variant:normal;font-weight:normal;font-stretch:normal;font-family:'Lakki Reddy';-inkscape-font-specification:'Lakki Reddy';text-align:center;text-anchor:middle;fill:#00ff00"
         id="path4246"
         inkscape:connector-curvature="0" />
      <path
         d="m 107.2908,210.7909 q 0.4525,0.0453 0.75417,0.0754 0.31675,0.0302 0.51283,0.0453 0.22625,0.0151 0.362,0.0151 0.13575,0.0151 0.362,0 0.19608,-0.0151 0.51283,-0.0302 0.31676,-0.0302 0.79942,-0.0905 -0.10558,0.15084 -0.16591,0.2715 -0.0603,0.10559 -0.10559,0.19609 l -0.0905,0.181 q -0.0302,0.0905 -0.0603,0.181 -0.0302,0.0754 -0.0603,0.181 -0.0151,0.10558 -0.0302,0.22625 l 2.32283,0 -0.21116,1.22175 -2.12675,-0.12067 q -0.0754,0.76925 -0.10559,1.19159 -0.0302,0.42233 -0.0603,0.61841 l -0.0302,0.2715 q -0.0453,0.57317 -0.0905,1.25192 -0.0452,0.66367 -0.0302,1.23684 0.0151,0.57317 0.10559,0.96533 0.0905,0.37709 0.31675,0.37709 0.22625,0 0.42233,-0.12067 0.19609,-0.12067 0.33184,-0.28658 0.15083,-0.16592 0.22625,-0.33184 0.0754,-0.181 0.0754,-0.2715 0,-0.0905 -0.0452,-0.21117 -0.0754,-0.22625 -0.2715,-0.57316 0.43742,0.10558 0.76925,0.21116 0.16592,0.0603 0.30167,0.12067 0.15083,0.0603 0.34692,0.13575 0.16591,0.0754 0.42233,0.181 0.25642,0.10559 0.60334,0.25642 -0.33184,0.0603 -0.48267,0.19608 -0.0905,0.0603 -0.13575,0.13575 -0.10559,0.16592 -0.24134,0.4525 -0.13575,0.2715 -0.40725,0.543 -0.2715,0.2715 -0.73908,0.48267 -0.4525,0.21117 -1.22175,0.24133 -0.79942,0.0302 -1.22175,-0.2715 -0.40725,-0.30166 -0.60334,-0.69383 -0.181,-0.40725 -0.21116,-0.79942 -0.0302,-0.39216 -0.0452,-0.52792 -0.0151,-0.13575 0,-0.67875 0.0151,-0.543 0.0452,-1.19158 0.0302,-0.66367 0.0603,-1.267 0.0302,-0.61842 0.0302,-0.905 0,-0.15084 0.0151,-0.31675 0,-0.13575 0,-0.28659 0.0151,-0.16591 0.0151,-0.31675 l -2.18708,-0.0151 -0.0905,-0.85975 2.20217,0.0603 q -0.0302,-0.16592 -0.0754,-0.30167 -0.0302,-0.15083 -0.0603,-0.24133 -0.0452,-0.10558 -0.0905,-0.181 -0.0603,-0.0754 -0.13575,-0.16592 -0.0754,-0.0754 -0.19609,-0.19608 -0.12066,-0.12067 -0.28658,-0.2715 z"
         style="font-style:normal;font-variant:normal;font-weight:normal;font-stretch:normal;font-family:'Lakki Reddy';-inkscape-font-specification:'Lakki Reddy';text-align:center;text-anchor:middle;fill:#00ff00"
         id="path4248"
         inkscape:connector-curvature="0" />
      <path
         d="m 116.79331,213.53607 q 0.39217,0 0.8145,0.15083 0.42234,0.13575 0.8145,0.362 0.39217,0.21117 0.70892,0.46759 0.33183,0.24133 0.543,0.46758 0.37709,0.40725 0.51284,1.10109 0.15083,0.67875 0.0603,1.40275 -0.0905,0.70892 -0.42233,1.34242 -0.33184,0.6335 -0.92009,0.93516 -0.42233,0.21117 -0.82958,0.33184 -0.40725,0.12066 -0.78434,0.181 -0.37708,0.0603 -0.70892,0.0603 -0.33183,0 -0.57316,-0.0151 -0.4525,-0.0302 -0.95025,-0.31675 -0.48267,-0.28659 -0.92009,-0.70892 -0.42233,-0.42233 -0.724,-0.92008 -0.30167,-0.51284 -0.362,-0.96534 -0.0905,-0.61842 -0.0302,-1.29717 0.0603,-0.67875 0.43742,-1.25192 0.39217,-0.57316 1.1765,-0.95025 0.79942,-0.37708 2.15692,-0.37708 z m -0.49775,5.85234 q 0.16592,0.0302 0.4525,-0.0754 0.28659,-0.12066 0.55809,-0.37708 0.28658,-0.25642 0.49775,-0.64858 0.22625,-0.40726 0.2715,-0.98042 0.0452,-0.55809 0,-1.02567 -0.0302,-0.46758 -0.13575,-0.8145 -0.10559,-0.362 -0.24134,-0.58825 -0.13575,-0.22625 -0.28658,-0.31675 -0.25642,-0.13575 -0.61842,-0.21117 -0.362,-0.0905 -0.61842,0.0302 -0.12066,0.0603 -0.30166,0.25641 -0.181,0.19609 -0.362,0.49775 -0.181,0.28659 -0.33184,0.66367 -0.13575,0.37709 -0.19608,0.78434 -0.0603,0.40725 -0.0302,0.87483 0.0452,0.46758 0.19609,0.88992 0.15083,0.40725 0.42233,0.70892 0.28658,0.28658 0.724,0.33183 z"
         style="font-style:normal;font-variant:normal;font-weight:normal;font-stretch:normal;font-family:'Lakki Reddy';-inkscape-font-specification:'Lakki Reddy';text-align:center;text-anchor:middle;fill:#00ff00"
         id="path4250"
         inkscape:connector-curvature="0" />
      <path
         d="m -124.7477,229.03449 q 1.11994,0.13575 2.03625,0.20363 0.88238,0.0679 1.52719,0.13575 0.74663,0.0679 1.32356,0.10181 0.61088,0 1.56113,-0.0339 0.8145,-0.0339 2.07019,-0.10181 1.25569,-0.0679 3.08832,-0.23756 -0.88238,0.50906 -1.45932,1.01812 -0.543,0.50906 -0.84844,0.91632 -0.37331,0.47512 -0.543,0.95025 -0.10181,0.64481 0.0679,2.51137 0.0679,0.78057 0.20362,1.93444 0.16969,1.11994 0.40725,2.68107 0.2715,1.52719 0.64482,3.5295 0.40725,2.00232 0.91631,4.54763 0.67875,-1.93444 1.11994,-3.42769 0.44119,-1.52719 0.74663,-2.61319 0.33937,-1.22175 0.57693,-2.172 0.23757,-0.98419 0.57694,-2.54532 0.2715,-1.32356 0.71269,-3.42769 0.44119,-2.10412 1.086,-5.19244 l 1.22175,0.16969 q 0.16969,2.40956 0.33938,4.24219 0.20362,1.83263 0.33937,3.12225 0.13575,1.49325 0.2715,2.57926 0.13575,0.98418 0.40725,2.27381 0.23757,1.086 0.61088,2.68107 0.37331,1.56112 0.98419,3.5295 0.61087,-2.40956 1.086,-4.31007 0.50906,-1.9005 0.84844,-3.35981 0.37331,-1.45932 0.61087,-2.51138 0.2715,-1.05206 0.44119,-1.76475 0.37332,-1.69688 0.44119,-2.27382 -0.0339,-0.64481 -0.30544,-1.25569 -0.23756,-0.543 -0.74662,-1.18781 -0.50907,-0.64481 -1.49326,-1.25569 2.07019,0.0679 3.35982,0.10181 1.323565,0 2.104129,0 l 1.357501,0 1.221752,0 q 0.67875,0 1.764752,0 1.119939,-0.0339 2.850753,-0.10181 -1.493252,0.78056 -2.409565,1.42538 -0.916314,0.64481 -1.425377,1.086 -0.610876,0.543 -0.882376,0.91631 -0.2715,0.67875 -0.882376,3.05438 -0.2715,1.01813 -0.610876,2.54532 -0.339375,1.49325 -0.814501,3.59737 -0.441188,2.10413 -1.018126,4.92095 -0.576938,2.78288 -1.28963,6.38026 l -5.87119,-0.61088 -2.51138,-10.55458 q -0.57694,2.8847 -0.91631,4.68339 -0.33938,1.76475 -0.50907,2.74894 -0.20362,1.18781 -0.23756,1.73081 -0.0339,0.47513 -0.0679,0.91631 -0.0339,0.37332 -0.10182,0.81451 -0.0339,0.44118 -0.10181,0.8145 l -6.00694,0 q -0.88238,-3.86888 -1.59507,-6.82145 -0.67875,-2.9865 -1.22175,-5.22638 -0.543,-2.23988 -0.95025,-3.801 -0.37331,-1.56113 -0.67875,-2.6132 -0.67875,-2.4435 -0.98419,-3.02044 -0.23756,-0.2715 -0.61088,-0.64481 -0.30543,-0.30544 -0.74662,-0.74663 -0.47513,-0.47512 -1.086,-1.05206 z"
         style="font-style:normal;font-variant:normal;font-weight:normal;font-stretch:normal;font-size:34.75204086px;font-family:'Lakki Reddy';-inkscape-font-specification:'Lakki Reddy';text-align:center;text-anchor:middle;fill:#ffffff"
         id="path4252"
         inkscape:connector-curvature="0" />
      <path
         d="m -95.018417,229.50962 q 1.153877,0.13575 1.93444,0.20362 0.814501,0.0339 1.323564,0.10181 0.610876,0.0679 0.950251,0.0679 0.373313,0.0339 1.119939,-0.0339 0.644813,-0.0679 1.730815,-0.16969 1.119938,-0.10181 2.850753,-0.30543 -0.780564,0.67875 -1.255689,1.32356 -0.441188,0.61088 -0.678751,1.086 -0.305438,0.57694 -0.373313,1.086 -0.13575,0.8145 -0.237563,2.23988 -0.06788,1.39144 -0.13575,3.05438 -0.06788,1.66294 -0.06788,3.42769 0,1.76475 0.03394,3.35982 0.06788,1.56112 0.203625,2.78288 0.169688,1.22175 0.40725,1.76475 0.339376,0.61087 0.712689,1.22175 0.339375,0.50906 0.814501,1.05206 0.475125,0.543 1.086001,0.88238 -2.002315,-0.10181 -3.190129,-0.10181 l -1.221751,0 q -0.543001,0 -1.391439,0.0679 -0.712689,0.0679 -1.79869,0.13575 -1.086001,0.0679 -2.613191,0.20363 0.780564,-0.84844 1.221752,-1.62901 0.441188,-0.78056 0.712688,-1.3575 0.305438,-0.67875 0.407251,-1.28962 0.13575,-0.88238 0.203625,-2.17201 0.101813,-1.32356 0.13575,-2.81681 0.03394,-1.52719 0,-3.08832 0,-1.59506 -0.06788,-3.05438 -0.06788,-1.45931 -0.203625,-2.64713 -0.101813,-1.18781 -0.2715,-1.9005 -0.101813,-0.44119 -0.407251,-0.98419 -0.2715,-0.47512 -0.746626,-1.086 -0.441188,-0.64481 -1.187814,-1.42537 z"
         style="font-style:normal;font-variant:normal;font-weight:normal;font-stretch:normal;font-size:34.75204086px;font-family:'Lakki Reddy';-inkscape-font-specification:'Lakki Reddy';text-align:center;text-anchor:middle;fill:#ffffff"
         id="path4254"
         inkscape:connector-curvature="0" />
      <path
         d="m -84.260217,229.20418 q 1.391439,0.16969 2.816815,0.23756 1.459315,0.0679 2.647128,0.0679 1.39144,0 2.715004,-0.0679 1.357501,-0.0339 2.850753,-0.13575 1.289627,-0.0679 2.918628,-0.16969 1.629002,-0.10181 3.393754,-0.20362 l 0.203626,2.95256 q 0,0.30544 0.03394,0.78057 0,0.40725 0,1.01812 0.03394,0.61088 0.06788,1.42538 -1.221751,1.05206 -2.20594,2.00232 -0.950251,0.91631 -1.629002,1.629 -0.814501,0.84844 -1.425376,1.56112 -0.780564,0.91632 -1.66294,2.23988 -0.882376,1.28963 -1.662939,2.54532 -0.746626,1.22175 -1.221752,2.20594 -0.475125,0.95025 -0.40725,1.18781 0.03394,0.16969 0.678751,0.20363 0.644813,0 1.561126,-0.0679 0.950252,-0.0679 2.07019,-0.20362 1.153877,-0.16969 2.138065,-0.33938 1.018127,-0.20362 1.79869,-0.40725 0.780563,-0.20363 1.018126,-0.40725 0.305438,-0.2715 0.678751,-0.98419 0.339375,-0.61087 0.746626,-1.69688 0.441188,-1.11993 0.984188,-2.9865 0.03394,1.39144 0.03394,2.37563 0.03394,0.98419 0.101813,1.66294 0.03394,0.78056 0.101812,1.28962 0.03394,0.543 0.13575,1.22176 0.06788,0.57693 0.169688,1.45931 0.101813,0.88238 0.2715,1.96838 -2.443502,-0.30544 -4.106442,-0.40725 -1.662939,-0.13575 -2.681066,-0.16969 -1.187813,-0.0339 -1.900502,0 -0.746626,0.10181 -2.036252,0.30544 -1.086001,0.16968 -2.884691,0.543 -1.79869,0.33937 -4.513693,0.91631 -0.06788,-0.64481 -0.13575,-1.11994 -0.06788,-0.47512 -0.13575,-0.84844 -0.06788,-0.37331 -0.13575,-0.71268 -0.06788,-0.30544 -0.169688,-0.84844 -0.06788,-0.47513 -0.237563,-1.15388 -0.13575,-0.71269 -0.339375,-1.76475 2.036252,-2.10413 3.359816,-3.52951 1.357502,-1.45931 2.172003,-2.37562 0.950251,-1.086 1.493252,-1.73082 0.509063,-0.64481 1.323564,-1.56112 0.67875,-0.78057 1.764752,-1.93444 1.086001,-1.18782 2.61319,-2.81682 -1.561127,-0.0679 -2.918628,0 -1.323564,0.0679 -2.307753,0.20362 -1.153876,0.13575 -2.138065,0.37332 -0.916313,0.2715 -1.866565,0.88237 -0.814501,0.50907 -1.764752,1.42538 -0.950251,0.91631 -1.798689,2.37563 -0.06788,-1.11994 -0.101813,-1.9005 -0.03394,-0.78057 -0.06788,-1.28963 -0.03394,-0.57694 -0.06787,-0.95025 0,-0.37331 -0.06788,-0.98419 -0.06788,-0.50906 -0.13575,-1.28963 -0.06788,-0.8145 -0.13575,-2.00231 z"
         style="font-style:normal;font-variant:normal;font-weight:normal;font-stretch:normal;font-size:34.75204086px;font-family:'Lakki Reddy';-inkscape-font-specification:'Lakki Reddy';text-align:center;text-anchor:middle;fill:#ffffff"
         id="path4256"
         inkscape:connector-curvature="0" />
      <path
         d="m -57.754999,229.91687 q 1.696877,0.10181 2.850753,0.16968 1.187814,0.0339 1.968378,0.0679 0.882376,0.0339 1.493252,0 0.610875,-0.0339 1.662939,-0.16969 0.882376,-0.10181 2.34169,-0.30544 1.493252,-0.23756 3.699192,-0.61087 -0.780563,0.78056 -1.221751,1.42537 -0.407251,0.61088 -0.644814,1.05207 -0.2715,0.543 -0.373313,0.91631 -0.06788,0.33938 0.135751,1.69688 0.203625,1.3575 0.576938,3.22407 0.373313,1.83262 0.814501,3.93675 0.441188,2.07019 0.882376,3.90282 0.441188,1.79869 0.780563,3.08831 0.373313,1.25569 0.543001,1.49325 0.509063,0.71269 0.644813,0.95026 0.13575,0.20362 0.475126,0.37331 0.13575,0.0679 0.441188,0.20362 0.2715,0.13575 0.712688,0.33938 0.475126,0.20362 1.187814,0.47513 -1.323564,0.0679 -2.273815,0.10181 -0.950251,0 -1.561127,0.0339 -0.712688,0.0339 -1.221752,0.0679 -0.509063,0 -1.221751,0.0679 -0.610876,0.0679 -1.595064,0.13575 -0.950251,0.0679 -2.239878,0.13575 0.678751,-0.47513 1.086001,-0.84844 0.441188,-0.40725 0.678751,-0.67875 0.2715,-0.33938 0.373313,-0.61088 0.06788,-0.30544 0.101813,-0.91631 0.03394,-0.543 0,-1.42538 -0.03394,-0.91631 -0.169688,-2.37563 l -8.925573,0.91632 q -0.339375,0.57693 -0.509063,1.01812 -0.169688,0.40725 -0.237563,0.71269 -0.101813,0.37331 -0.06788,0.61088 0.06788,0.2715 0.237563,0.64481 0.169688,0.33938 0.475125,0.8145 0.339376,0.44119 0.984189,1.05206 -0.848438,-0.0339 -1.730815,-0.0339 -0.882376,0 -1.629001,0.0339 -0.882376,0.0339 -1.730815,0.0679 -0.848438,0.0339 -1.93444,0.10181 -0.916313,0.0679 -2.138065,0.16969 -1.255689,0.0679 -2.681065,0.20363 0.882376,-0.40726 1.493251,-0.81451 0.610876,-0.44118 1.018127,-0.8145 0.475125,-0.40725 0.814501,-0.78056 0.237562,-0.33938 0.950251,-1.56113 0.712688,-1.25569 1.595064,-2.95256 0.916314,-1.69688 1.900502,-3.63132 1.018126,-1.93444 1.832627,-3.63132 0.814501,-1.73081 1.323564,-2.9865 0.509064,-1.25569 0.509064,-1.629 -0.06788,-0.44119 -0.339376,-0.98419 -0.237563,-0.47513 -0.746626,-1.086 -0.475125,-0.61088 -1.391439,-1.3575 z m 10.520637,13.40532 q -0.203625,-1.18781 -0.373312,-2.03625 -0.169688,-0.88237 -0.271501,-1.45931 -0.13575,-0.67875 -0.203625,-1.18782 -0.101813,-0.47512 -0.237563,-1.22175 -0.13575,-0.64481 -0.339375,-1.59506 -0.169688,-0.98419 -0.441188,-2.34169 -1.93444,3.86888 -3.020441,6.00694 -1.052064,2.10413 -1.52719,3.08832 -0.576938,1.15388 -0.644813,1.3575 l 7.059008,-0.61088 z"
         style="font-style:normal;font-variant:normal;font-weight:normal;font-stretch:normal;font-size:34.75204086px;font-family:'Lakki Reddy';-inkscape-font-specification:'Lakki Reddy';text-align:center;text-anchor:middle;fill:#ffffff"
         id="path4258"
         inkscape:connector-curvature="0" />
      <path
         d="m -41.736476,228.11818 q 1.086001,0.16968 1.968377,0.30543 0.882376,0.10182 1.527189,0.16969 0.746626,0.10182 1.323564,0.16969 0.712689,0.10181 2.138065,-0.23756 1.425377,-0.37332 3.122254,-0.67875 1.730814,-0.33938 3.529504,-0.37332 1.79869,-0.0679 3.291941,0.64482 1.493252,0.71269 2.443503,1.42537 0.950251,0.71269 1.493252,1.52719 0.576938,0.78057 0.814501,1.66294 0.237563,0.88238 0.2715,1.93444 -0.03394,1.56113 -0.746626,3.02044 -0.305437,0.61088 -0.8145,1.28963 -0.475126,0.64481 -1.187814,1.25569 -0.712689,0.61087 -1.696877,1.15388 -0.950251,0.543 -2.239878,0.95025 1.255689,0.37331 2.07019,0.88237 0.848438,0.50907 1.357502,0.95025 0.610875,0.543 0.916313,1.05207 0.373313,0.71269 0.509063,1.22175 0.13575,0.50906 0.169688,0.98419 0.06788,0.44119 0.169688,0.91631 0.101812,0.47513 0.441188,1.086 0.2715,0.47513 0.644813,0.98419 0.339375,0.44119 0.780563,0.95025 0.475126,0.50906 1.153877,0.98419 -0.950251,0.0339 -1.764752,0.0339 -0.780564,0 -1.357502,0 -0.678751,0 -1.289627,-0.0339 -0.610875,-0.0339 -1.527189,-0.0339 -0.780563,0 -2.002315,0 -1.187814,0 -2.884691,0.0339 0.746626,-0.57694 1.221752,-1.15388 0.475125,-0.57693 0.746626,-1.05206 0.305438,-0.543 0.441188,-1.05206 0.169687,-0.91632 0.03394,-1.90051 -0.101812,-0.84843 -0.543,-1.86656 -0.441188,-1.05206 -1.425377,-2.10413 -0.984189,0.16969 -1.662939,0.2715 -0.644814,0.0679 -1.119939,0.13575 -0.543001,0.0679 -0.882376,0.10182 -0.305438,0.0339 -0.678751,0.0679 -0.305438,0.0339 -0.678751,0.10181 -0.339375,0.0339 -0.644813,0.10182 -0.06788,1.45931 0,2.54531 0.06788,1.05206 0.169688,1.76475 0.13575,0.84844 0.305437,1.45932 0.169688,0.61087 0.475126,1.18781 0.237563,0.47513 0.610876,1.01813 0.373313,0.50906 0.848438,0.84844 -0.882376,0 -1.696877,0 -0.780563,0 -1.425377,-0.0339 -0.746625,0 -1.425376,-0.0339 -0.678751,-0.0339 -1.527189,-0.0339 -0.712689,0 -1.696877,0 -0.950252,0 -2.07019,0.0339 0.882376,-0.91631 1.391439,-1.56113 0.509063,-0.64481 0.780563,-1.086 0.305438,-0.47512 0.373313,-0.8145 0.06788,-0.543 0.101813,-1.93444 0.06788,-1.42537 0.101812,-3.258 0.03394,-1.83263 0.03394,-3.83494 0,-2.00232 -0.03394,-3.73313 -0.03394,-1.76476 -0.06788,-3.02044 -0.03394,-1.25569 -0.06788,-1.59507 -0.101812,-0.61087 -0.441188,-1.22175 -0.2715,-0.543 -0.780563,-1.22175 -0.509063,-0.67875 -1.391439,-1.3575 z m 12.82839,11.94601 q 0.339375,-0.20362 0.576938,-0.40725 0.237563,-0.20362 0.40725,-0.64481 0.169688,-0.47513 0.271501,-1.32357 0.13575,-0.84844 0.305438,-2.30775 0.13575,-1.45931 -0.203626,-2.40956 -0.305438,-0.95026 -0.848438,-1.49326 -0.509063,-0.57693 -1.153877,-0.78056 -0.610875,-0.23756 -1.086001,-0.23756 -0.950251,0 -1.866565,0.57694 -0.916313,0.57693 -1.391439,1.56112 -0.169687,0.44119 -0.305438,1.45932 -0.101812,0.88237 -0.13575,2.4435 -0.03394,1.56113 0.101813,4.10644 1.289626,0.20363 2.273815,0.16969 0.984189,-0.0679 1.66294,-0.23756 0.8145,-0.16969 1.391439,-0.47513 z"
         style="font-style:normal;font-variant:normal;font-weight:normal;font-stretch:normal;font-size:34.75204086px;font-family:'Lakki Reddy';-inkscape-font-specification:'Lakki Reddy';text-align:center;text-anchor:middle;fill:#ffffff"
         id="path4260"
         inkscape:connector-curvature="0" />
      <path
         d="m -19.643139,228.69512 q 1.187814,0.16968 2.07019,0.2715 0.882376,0.10181 1.459314,0.16968 0.678751,0.0679 1.153876,0.10182 0.543001,0.0679 1.323565,-0.0679 0.814501,-0.13575 1.730814,-0.2715 0.916314,-0.16969 1.900502,-0.2715 0.984189,-0.10181 1.9005025,0 0.6108758,0.0679 1.5611269,0.2715 0.9502511,0.20363 2.0023148,0.64481 1.0860013,0.44119 2.1720026,1.15388 1.0860013,0.71269 1.96837731,1.79869 0.88237603,1.086 1.45931419,2.57925 0.5769382,1.49325 0.6448133,3.49557 0.1018126,2.9865 -0.5430007,5.43001 -0.64481322,2.4435 -2.00231481,4.17431 -1.32356409,1.73082 -3.35981649,2.71501 -2.0362524,0.98418 -4.7512555,1.086 -2.0701901,0.16969 -4.0725051,0.30544 -0.848438,0.0679 -1.798689,0.10181 -0.916314,0.0339 -1.832628,0.0679 -0.916313,0 -1.764752,-0.0339 -0.848438,-0.0339 -1.561126,-0.10182 0.780563,-0.37331 1.255689,-0.74662 0.509063,-0.37332 0.780563,-0.64482 0.305438,-0.33937 0.441188,-0.61087 0.06788,-0.37331 0.203625,-1.45932 0.101813,-0.91631 0.271501,-2.61319 0.169687,-1.69687 0.40725,-4.6155 l 0.203625,-2.40957 q 0.169688,-2.23988 0.13575,-3.66525 0,-1.42538 -0.06788,-2.23988 -0.101812,-0.95025 -0.2715,-1.39144 -0.13575,-0.37331 -0.509063,-0.88237 -0.339375,-0.40726 -0.950251,-0.98419 -0.576938,-0.61088 -1.561127,-1.3575 z m 7.160821,12.48901 q 0.06787,3.02044 0.305438,4.64944 0.2715,1.59507 0.576938,2.37563 0.373313,0.88238 0.814501,1.05206 0.644813,0 1.4593141,-0.543 0.814501,-0.57693 1.5950644,-1.73081 0.8145009,-1.15388 1.4593142,-2.88469 0.6787508,-1.73082 0.9841887,-4.03857 0.3054378,-2.30775 -0.1696877,-4.0725 -0.4751256,-1.76476 -1.255689,-2.95257 -0.7805634,-1.22175 -1.5950644,-1.83263 -0.8145009,-0.64481 -1.2217514,-0.64481 -0.4751259,0 -0.8484389,0.2715 -0.373313,0.23756 -1.052063,1.11994 -0.339376,0.47512 -0.610876,1.3575 -0.237563,0.78056 -0.407251,2.07019 -0.169687,1.28963 -0.101812,3.32588 l 0.06788,2.47744 z"
         style="font-style:normal;font-variant:normal;font-weight:normal;font-stretch:normal;font-size:34.75204086px;font-family:'Lakki Reddy';-inkscape-font-specification:'Lakki Reddy';text-align:center;text-anchor:middle;fill:#ffffff"
         id="path4262"
         inkscape:connector-curvature="0" />
      <path
         d="m 24.781099,228.0503 q -0.475125,1.086 -0.848438,1.9005 -0.373313,0.81451 -0.644813,1.39144 -0.305438,0.64482 -0.509064,1.15388 -0.169687,0.37331 -0.441188,1.01813 -0.2715,0.57693 -0.67875,1.52719 -0.373313,0.91631 -0.984189,2.37562 -0.305438,-1.25569 -0.746626,-2.20594 -0.441188,-0.95025 -0.950251,-1.66294 -0.509063,-0.71268 -1.086001,-1.15387 -0.543001,-0.47513 -1.086002,-0.78057 -1.255689,-0.67875 -2.647128,-0.74662 -1.832627,0.10181 -2.884691,0.61087 -1.018126,0.47513 -1.4932514,1.11994 -0.4751255,0.61088 -0.5090631,1.28963 -0.033938,0.64481 0.1696877,1.086 0.1696877,0.40725 1.1878138,0.95025 1.052064,0.543 2.511378,1.25569 1.493252,0.67875 3.190129,1.56113 1.696877,0.84844 3.122254,1.9005 1.459314,1.01813 2.443502,2.23988 1.018127,1.18781 1.119939,2.54531 0.101813,1.73082 -0.03394,3.12226 -0.13575,1.39144 -0.950251,2.37562 -0.814501,0.98419 -2.545316,1.56113 -1.696877,0.57694 -4.717318,0.71269 -3.122254,0.13575 -5.1245685,-0.33938 -2.0023149,-0.47512 -3.2580038,-1.28962 -1.2217515,-0.8145 -1.8326272,-1.79869 Q 3.9773873,248.78614 3.705887,247.90376 3.4343867,246.98745 3.3325741,246.34264 3.2307614,245.66389 2.9931987,245.52813 2.7216983,245.35845 2.450198,245.2227 2.2126352,245.08695 1.9411349,244.98513 1.6696346,244.84938 1.3981343,244.74757 l 9.8758237,-1.59506 q -0.848438,0.67875 -1.3235637,1.25569 -0.441188,0.57693 -0.6787508,1.01812 -0.2715003,0.50907 -0.3733129,0.95025 -0.067875,0.47513 0.3054379,1.18782 0.3733129,0.71269 1.0181265,1.39144 0.67875,0.64481 1.561127,1.086 0.882376,0.44119 1.832627,0.37331 1.187814,-0.10181 1.934439,-0.57694 0.746626,-0.50906 1.119939,-1.25569 0.407251,-0.74662 0.475126,-1.629 0.06788,-0.88237 -0.169688,-1.73081 -0.203625,-0.88238 -0.678751,-1.629 -0.475125,-0.78057 -1.119939,-1.28963 -0.576938,-0.40725 -1.798689,-0.78056 -1.187814,-0.37332 -2.681066,-0.81451 -1.459314,-0.44118 -3.0204408,-1.01812 -1.5271893,-0.57694 -2.7828783,-1.42538 -1.2217514,-0.84844 -1.9683773,-2.00231 -0.7126884,-1.15388 -0.5430007,-2.78288 0.1357502,-1.39144 0.8823761,-2.30775 0.7805634,-0.95026 1.9344398,-1.49326 1.1878139,-0.57693 2.6131905,-0.84843 1.4593142,-0.2715 2.9525657,-0.30544 1.52719,-0.0679 2.986504,0.0339 1.493252,0.10181 2.681065,0.23756 1.187814,0.13575 2.002315,0.2715 0.848439,0.10181 1.052064,0.13575 0.882376,0.0679 1.764752,-0.0339 0.780564,-0.0679 1.696877,-0.30544 0.950251,-0.2715 1.832627,-0.8145 z"
         style="font-style:normal;font-variant:normal;font-weight:normal;font-stretch:normal;font-size:34.75204086px;font-family:'Lakki Reddy';-inkscape-font-specification:'Lakki Reddy';text-align:center;text-anchor:middle;fill:#ffffff"
         id="path4264"
         inkscape:connector-curvature="0" />
      <path
         d="m 45.788436,227.30368 q 1.832628,0.0679 3.699192,0.67875 1.900502,0.57694 3.495567,1.9005 1.595064,1.28963 2.715003,3.35982 1.119939,2.03625 1.391439,4.98881 0.237563,2.40957 -0.610876,4.7852 -0.814501,2.34169 -2.273815,4.31006 -1.459314,1.96838 -3.359816,3.35982 -1.900502,1.3575 -3.801005,1.79869 -1.153876,0.2715 -2.545315,0.0679 -1.357502,-0.23757 -2.782878,-0.84844 -1.39144,-0.64482 -2.748941,-1.629 -1.323564,-0.98419 -2.409566,-2.23988 -1.086001,-1.28963 -1.832627,-2.78288 -0.712688,-1.49325 -0.882376,-3.12225 -0.169687,-1.35751 -0.03394,-2.98651 0.169687,-1.66294 0.644813,-3.29194 0.509063,-1.66294 1.391439,-3.19013 0.916314,-1.56112 2.307753,-2.715 1.391439,-1.18781 3.258004,-1.83263 1.900502,-0.67875 4.377942,-0.61087 z m -6.074819,13.7447 q -0.475126,3.63132 0.678751,5.83726 1.187813,2.20594 3.563441,2.68106 1.153877,0.23756 2.20594,-0.47512 1.086002,-0.74663 1.968378,-2.13807 0.882376,-1.39144 1.527189,-3.258 0.644813,-1.86657 0.950251,-3.90282 0.305438,-2.03625 0.03394,-3.66525 -0.237563,-1.66294 -0.848439,-2.81682 -0.610876,-1.18781 -1.493252,-1.83263 -0.848438,-0.64481 -1.764752,-0.71268 -1.595064,-0.10182 -2.782878,0.84843 -1.187814,0.91632 -2.002315,2.40957 -0.814501,1.49325 -1.323564,3.35982 -0.475126,1.86656 -0.712688,3.66525 z"
         style="font-style:normal;font-variant:normal;font-weight:normal;font-stretch:normal;font-size:34.75204086px;font-family:'Lakki Reddy';-inkscape-font-specification:'Lakki Reddy';text-align:center;text-anchor:middle;fill:#ffffff"
         id="path4266"
         inkscape:connector-curvature="0" />
      <path
         d="m 58.515008,229.47568 q 2.036253,0.16969 3.563442,0.20362 1.561127,0.0339 2.647128,0.0339 1.255689,0 2.172003,-0.0679 0.950251,-0.10182 2.47744,-0.2715 1.289627,-0.16969 3.325879,-0.44119 2.036253,-0.30544 4.954881,-0.78057 -0.373313,0.57694 -0.644813,1.22176 -0.237563,0.61087 -0.407251,1.11993 -0.169687,0.61088 -0.305438,1.18782 -0.101812,0.64481 -0.237562,1.59506 -0.135751,0.8145 -0.339376,2.07019 -0.169687,1.22175 -0.441188,2.91863 -1.018126,-2.64713 -2.07019,-4.0725 -1.018126,-1.42538 -1.900502,-2.10413 -1.018126,-0.78056 -1.93444,-0.88238 -1.323564,0 -2.172002,0.50907 -0.848439,0.50906 -1.391439,1.32356 -0.509064,0.78056 -0.780564,1.73081 -0.2715,0.91632 -0.373313,1.79869 -0.101812,0.84844 -0.13575,1.52719 -0.03394,0.64482 -0.06788,0.88238 1.187814,-0.0679 2.002315,-0.16969 0.814501,-0.10181 1.289626,-0.20362 0.576939,-0.13575 0.916314,-0.2715 0.509063,-0.2715 1.018126,-0.64482 0.441188,-0.33937 0.916314,-0.8145 0.509063,-0.47512 0.882376,-1.15387 -0.203626,1.22175 -0.373313,2.03625 -0.13575,0.8145 -0.237563,1.28962 -0.13575,0.57694 -0.169688,0.88238 -0.06788,0.30544 -0.169687,0.84844 -0.101813,0.47512 -0.237563,1.22175 -0.13575,0.74663 -0.305438,1.86657 -0.407251,-0.71269 -0.848439,-1.15388 -0.441188,-0.47513 -0.8145,-0.74663 -0.441188,-0.30543 -0.848439,-0.47512 -0.441188,-0.13575 -0.950251,-0.2715 -0.441188,-0.10182 -1.052064,-0.20363 -0.576938,-0.13575 -1.255689,-0.23756 0.06788,1.83263 0.203625,3.15619 0.135751,1.28963 0.237563,2.172 0.13575,1.01813 0.271501,1.69688 0.169687,0.67875 0.543,1.45931 0.305438,0.67876 0.848439,1.56113 0.576938,0.84844 1.459314,1.83263 -0.678751,-0.16969 -1.425377,-0.23756 -0.746626,-0.0679 -1.323564,-0.10182 -0.712688,-0.0339 -1.357501,0 -0.678751,0.0339 -1.493252,0.13575 -0.678751,0.0679 -1.561127,0.20363 -0.882376,0.13575 -1.866565,0.30544 0.576938,-0.57694 0.950251,-1.15388 0.373313,-0.57694 0.543001,-1.01813 0.203625,-0.50906 0.2715,-0.98419 0.03394,-0.40725 0.03394,-1.76475 0,-1.39144 -0.03394,-3.22406 -0.03394,-1.86657 -0.101812,-3.93676 -0.06788,-2.07019 -0.13575,-3.86888 -0.06788,-1.83262 -0.169688,-3.12225 -0.06788,-1.28963 -0.169688,-1.56113 -0.13575,-0.33937 -0.305438,-0.78056 -0.2715,-0.71269 -1.119939,-2.07019 z"
         style="font-style:normal;font-variant:normal;font-weight:normal;font-stretch:normal;font-size:34.75204086px;font-family:'Lakki Reddy';-inkscape-font-specification:'Lakki Reddy';text-align:center;text-anchor:middle;fill:#ffffff"
         id="path4268"
         inkscape:connector-curvature="0" />
      <path
         d="m 83.493048,228.11818 q 2.273815,0.2715 3.936754,0.40725 1.66294,0.10181 2.748941,0.16969 1.255689,0.0679 2.104128,0.0339 0.882376,-0.0339 2.409565,-0.16968 1.289626,-0.10182 3.393754,-0.27151 2.10413,-0.20362 5.26032,-0.543 0.0339,0.78057 0.0339,1.52719 0.0339,0.71269 0.0679,1.25569 0.0339,0.64482 0.0339,1.18782 0,0.57693 -0.0679,1.45931 -0.0679,0.74663 -0.23756,1.9005 -0.13575,1.11994 -0.44119,2.68107 -0.47512,-1.83263 -0.91631,-2.95257 -0.44119,-1.15387 -0.8145,-1.83262 -0.40725,-0.78057 -0.8145,-1.18782 -0.441191,-0.30544 -1.052066,-0.50906 -0.543001,-0.16969 -1.39144,-0.2715 -0.814501,-0.10181 -1.934439,0.0339 -0.169688,4.47975 -0.237563,7.26263 -0.06788,2.78288 -0.101813,4.344 -0.03394,1.86657 -0.03394,2.68107 0.03394,1.15388 0.373313,2.27381 0.2715,0.95026 0.882376,1.96838 0.610875,1.01813 1.764752,1.79869 l -4.14038,0 q -0.576938,0 -1.425377,0.0679 -0.712688,0.0679 -1.832627,0.13575 -1.086001,0.0679 -2.545315,0.23756 0.509063,-0.88238 0.814501,-1.59506 0.305437,-0.71269 0.475125,-1.22176 0.203625,-0.61087 0.305438,-1.086 0.03394,-0.67875 0.169688,-2.74894 0.03394,-0.84844 0.06788,-2.10413 0.06788,-1.25568 0.13575,-2.9865 0.101813,-1.73081 0.169688,-3.97069 0.101812,-2.27382 0.203625,-5.12457 -0.610876,-0.16969 -1.153877,0.0339 -0.543,0.16969 -0.950251,0.44119 -0.475125,0.33937 -0.916313,0.8145 -0.441188,0.57694 -0.984189,1.49325 -0.475125,0.78056 -1.086001,2.07019 -0.610876,1.25569 -1.391439,3.12225 -0.169688,-1.96838 -0.237563,-3.22406 -0.06788,-1.28963 -0.101813,-2.00232 -0.03394,-0.84844 -0.03394,-1.25569 0,-0.37331 -0.06788,-0.98419 -0.06788,-0.50906 -0.169688,-1.32356 -0.101813,-0.84844 -0.2715,-2.03625 z"
         style="font-style:normal;font-variant:normal;font-weight:normal;font-stretch:normal;font-size:34.75204086px;font-family:'Lakki Reddy';-inkscape-font-specification:'Lakki Reddy';text-align:center;text-anchor:middle;fill:#ffffff"
         id="path4270"
         inkscape:connector-curvature="0" />
      <path
         d="m 101.446,228.79693 q 1.18781,0.13575 2.00231,0.20362 0.8145,0.0339 1.28963,0.0679 0.57694,0.0339 0.91631,0.0339 0.57694,0 1.32357,-0.0339 0.64481,-0.0339 1.49325,-0.10181 0.88237,-0.10182 1.9005,-0.30544 -0.47512,0.50906 -0.78056,0.98419 -0.30544,0.44118 -0.47513,0.8145 -0.20362,0.40725 -0.33937,0.74662 -0.13575,0.44119 -0.30544,1.3575 -0.16969,0.78057 -0.37331,2.20594 -0.16969,1.42538 -0.44119,3.73313 1.15387,0.0339 2.00231,0.0339 0.84844,-0.0339 1.42538,-0.0339 l 1.11994,0 q 0.47512,-0.0339 1.086,-0.0679 1.01813,-0.0339 3.08832,-0.20363 0.16968,-1.56112 0.16968,-2.68106 0.0339,-1.15388 -0.0339,-1.93444 -0.0679,-0.88238 -0.20363,-1.49325 -0.10181,-0.33938 -0.30544,-0.8145 -0.16968,-0.40725 -0.47512,-0.98419 -0.2715,-0.61088 -0.74663,-1.45932 0.88238,0.13575 1.56113,0.20363 0.71269,0.0339 1.18781,0.0679 0.543,0.0339 0.91632,0.0339 0.37331,0 0.98418,-0.0339 0.50907,-0.0339 1.25569,-0.0339 0.74663,-0.0339 1.83263,-0.10182 -0.2715,0.47513 -0.47513,0.98419 -0.20362,0.50906 -0.33937,0.91632 -0.13575,0.47512 -0.2715,0.95025 -0.16969,0.71268 -0.30544,2.07019 -0.10181,1.3575 -0.20362,3.02044 -0.0679,1.66294 -0.13575,3.46163 -0.0339,1.79869 -0.0679,3.39375 0,1.59506 0.0339,2.85075 0.0339,1.22176 0.13575,1.73082 0.10181,0.61087 0.33937,1.25569 0.20363,0.57694 0.543,1.25569 0.33938,0.64481 0.88238,1.22175 l -8.17895,0.61087 q 0.50907,-0.47512 0.8145,-0.91631 0.30544,-0.47513 0.47513,-0.8145 0.16969,-0.37331 0.23756,-0.71269 0.0339,-0.40725 0.10182,-1.42538 0.0679,-0.84843 0.13575,-2.40956 0.0679,-1.56113 0.13575,-4.14038 -0.47513,0 -1.15388,0.0339 -0.64481,0 -1.22175,0.0339 -0.67875,0.0339 -1.42538,0.0339 -0.74662,0.0339 -1.56113,0.0679 -0.67875,0.0679 -1.52718,0.13575 -0.81451,0.0339 -1.62901,0.10181 -0.0679,1.42538 0,2.51138 0.0679,1.05206 0.20363,1.79869 0.13575,0.88237 0.33937,1.52719 0.20363,0.61087 0.44119,1.22175 0.20363,0.543 0.47513,1.15387 0.30544,0.61088 0.61087,1.08601 -0.64481,-0.0679 -1.18781,-0.10182 -0.543,-0.0679 -0.95025,-0.13575 -0.47513,-0.0339 -0.91632,-0.0679 -0.44118,0 -1.05206,-0.0339 -0.543,-0.0339 -1.3575,-0.0339 -0.8145,-0.0339 -1.9005,-0.0339 0.64481,-0.64481 1.01812,-1.25568 0.40725,-0.64482 0.57694,-1.15388 0.20363,-0.61088 0.2715,-1.11994 0.0339,-0.44119 0.0339,-1.66294 0.0339,-1.22175 0,-2.78288 0,-1.59506 -0.0339,-3.32588 -0.0339,-1.76475 -0.10181,-3.29194 -0.0339,-1.52719 -0.10181,-2.61319 -0.0339,-1.11994 -0.0679,-1.39144 -0.16969,-0.61087 -0.50906,-1.32356 -0.30544,-0.57694 -0.8145,-1.32357 -0.50907,-0.78056 -1.39144,-1.56112 z"
         style="font-style:normal;font-variant:normal;font-weight:normal;font-stretch:normal;font-size:34.75204086px;font-family:'Lakki Reddy';-inkscape-font-specification:'Lakki Reddy';text-align:center;text-anchor:middle;fill:#ffffff"
         id="path4272"
         inkscape:connector-curvature="0" />
      <path
         d="m 121.6049,229.71324 q 2.37563,0.0679 3.93675,0.10181 1.59507,0 2.57926,0 l 1.79869,0 10.11338,0 q 0.0679,0.67875 0.10182,1.32357 0.0679,0.61087 0.0679,1.086 0,0.57694 -0.0339,1.05206 -0.0339,0.47513 -0.10181,1.01813 -0.0679,0.47512 -0.13575,1.01813 -0.0679,0.543 -0.23756,1.11993 -0.47513,-1.83262 -1.28963,-2.78287 -0.78056,-0.95026 -1.59506,-1.39144 -0.95025,-0.50907 -2.00232,-0.543 -1.39144,0.0679 -2.172,0.23756 -0.78056,0.16969 -1.22175,0.47512 -0.44119,0.30544 -0.67875,0.71269 -0.20363,0.37332 -0.44119,0.84844 -0.20363,0.40725 -0.37331,1.25569 -0.16969,0.71269 -0.33938,1.93444 -0.13575,1.22175 -0.30544,3.15619 0.91632,-0.2715 1.45932,-0.50906 0.57693,-0.23756 0.91631,-0.40725 0.37331,-0.20363 0.543,-0.37332 0.13575,-0.20362 0.40725,-0.74662 0.20363,-0.47513 0.543,-1.28963 0.37332,-0.8145 0.88238,-2.23988 0.0679,1.56113 0.0679,2.6132 0,1.01812 0.0339,1.66293 0,0.74663 0.0339,1.18782 l 0,1.28963 q 0,0.71268 0,1.93444 0.0339,1.18781 0.10181,3.02044 -0.40725,-1.25569 -0.74662,-1.96838 -0.30544,-0.74663 -0.54301,-1.11994 -0.2715,-0.44119 -0.47512,-0.61088 -0.23756,-0.0679 -0.64481,-0.13575 -0.37332,-0.0339 -0.95026,-0.0339 -0.543,0 -1.39143,0.16968 -0.10182,1.86657 -0.0339,3.02045 0.10181,1.11993 0.2715,1.73081 0.16969,0.71269 0.40725,1.01813 0.30544,0.30543 1.22175,0.50906 0.91631,0.16969 2.07019,0.13575 1.18781,-0.0679 2.40957,-0.40725 1.22175,-0.33938 2.172,-1.11994 0.71269,-0.64481 1.52719,-1.629 0.67875,-0.84844 1.49325,-2.13807 0.84844,-1.28962 1.66294,-3.12225 -0.13575,1.52719 -0.20363,2.54531 -0.0339,0.98419 -0.10181,1.59507 -0.0679,0.71269 -0.10181,1.086 0,0.40725 -0.10181,1.15388 -0.0679,0.64481 -0.23757,1.76475 -0.13575,1.086 -0.37331,2.78288 -1.59506,0.0339 -3.02044,0.0679 -1.42538,0 -2.51138,0.0339 -1.28963,0.0339 -2.37563,0.0679 -1.11994,0 -2.47744,0.10182 -1.18781,0.0679 -2.81681,0.20362 -1.59507,0.13575 -3.52951,0.37332 0.16969,-2.30776 0.23757,-4.34401 0.10181,-2.07019 0.13575,-3.63132 0.0339,-1.83262 0,-3.39375 0.16968,-3.90282 -0.13575,-6.31238 -0.30544,-2.40957 -0.71269,-3.08832 -0.20363,-0.23756 -0.57694,-0.57694 -0.30544,-0.2715 -0.84844,-0.64481 -0.543,-0.37331 -1.3575,-0.84844 z"
         style="font-style:normal;font-variant:normal;font-weight:normal;font-stretch:normal;font-size:34.75204086px;font-family:'Lakki Reddy';-inkscape-font-specification:'Lakki Reddy';text-align:center;text-anchor:middle;fill:#ffffff"
         id="path4274"
         inkscape:connector-curvature="0" />
      <path
         d="m 151.67355,228.62724 q 1.08601,0.2715 2.07019,0.40725 0.98419,0.13575 1.73082,0.20363 0.88237,0.10181 1.629,0.0679 0.95025,0 2.37563,-0.16969 1.45931,-0.16968 2.9865,-0.30543 1.52719,-0.16969 2.91863,-0.20363 1.42538,-0.0679 2.30775,0.16969 0.88238,0.20362 1.79869,0.64481 0.95025,0.40725 1.73082,1.05206 0.78056,0.61088 1.28962,1.45932 0.50907,0.8145 0.57694,1.86656 -0.0339,1.32357 -0.61087,2.47744 -0.47513,0.98419 -1.59507,2.03626 -1.11994,1.01812 -3.22406,1.56112 1.05206,0.13575 1.79868,0.47513 0.78057,0.30544 1.32357,0.74662 0.57694,0.40726 0.91631,0.91632 0.37332,0.50906 0.57694,1.01812 0.50906,1.18782 0.47513,2.64713 -0.20363,1.9005 -0.78057,3.02044 -0.543,1.11994 -1.25569,1.73082 -0.71268,0.61087 -1.45931,0.84844 -0.74663,0.23756 -1.3575,0.37331 -0.61088,0.13575 -1.49325,0.13575 -0.88238,0 -1.90051,-0.0339 -0.98418,-0.0679 -2.03625,-0.10181 -1.05206,-0.0679 -2.00231,0 -0.78057,0.0679 -1.90051,0.13575 -0.95025,0.0679 -2.37562,0.16969 -1.42538,0.0679 -3.32588,0.16969 0.37331,-0.27151 0.61087,-0.61088 0.2715,-0.37331 0.44119,-0.64481 0.16969,-0.33938 0.30544,-0.64482 0.10181,-0.2715 0.16969,-1.49325 0.0679,-1.22175 0.10181,-2.91863 0.0339,-1.73081 0.0339,-3.69919 0.0339,-2.00231 -0.0339,-3.83494 -0.0339,-1.86657 -0.13575,-3.29194 -0.0679,-1.45932 -0.20363,-2.10413 -0.20362,-0.71269 -0.543,-1.45931 -0.2715,-0.64482 -0.78056,-1.39144 -0.47513,-0.74663 -1.15388,-1.42538 z m 7.16082,3.46163 q 0,0.13575 0.0339,0.91631 0.0339,0.67875 0.0679,2.10413 0.0679,1.39144 0.16969,3.97069 0.84843,0.37332 1.66293,0.40725 0.81451,0 1.45932,-0.0679 0.74662,-0.10181 1.42538,-0.33938 0.91631,-0.37331 1.42537,-1.22175 0.543,-0.84844 0.71269,-1.76475 0.20363,-0.95025 0.10181,-1.76475 -0.10181,-0.84844 -0.44118,-1.22175 -0.64482,-0.57694 -1.59507,-0.95026 -0.8145,-0.30543 -2.07019,-0.40725 -1.22175,-0.13575 -2.95257,0.33938 z m -0.16968,16.08639 q 1.25569,0.64482 2.20594,0.84844 0.95025,0.20363 1.59506,0.20363 0.74663,0 1.28963,-0.20363 0.64481,-0.30544 1.25569,-0.8145 0.64481,-0.543 0.95025,-1.25569 0.33937,-0.74662 0.2715,-1.629 -0.0679,-0.91631 -0.78056,-2.00232 -0.64482,-0.78056 -1.56113,-1.22175 -0.8145,-0.37331 -2.07019,-0.47512 -1.22175,-0.10181 -3.02044,0.57694 l -0.13575,5.973 z"
         style="font-style:normal;font-variant:normal;font-weight:normal;font-stretch:normal;font-size:34.75204086px;font-family:'Lakki Reddy';-inkscape-font-specification:'Lakki Reddy';text-align:center;text-anchor:middle;fill:#ffffff"
         id="path4276"
         inkscape:connector-curvature="0" />
      <path
         d="m 186.90074,227.30368 q 1.83263,0.0679 3.69919,0.67875 1.90051,0.57694 3.49557,1.9005 1.59506,1.28963 2.715,3.35982 1.11994,2.03625 1.39144,4.98881 0.23756,2.40957 -0.61087,4.7852 -0.8145,2.34169 -2.27382,4.31006 -1.45931,1.96838 -3.35982,3.35982 -1.9005,1.3575 -3.801,1.79869 -1.15388,0.2715 -2.54532,0.0679 -1.3575,-0.23757 -2.78287,-0.84844 -1.39144,-0.64482 -2.74894,-1.629 -1.32357,-0.98419 -2.40957,-2.23988 -1.086,-1.28963 -1.83263,-2.78288 -0.71269,-1.49325 -0.88237,-3.12225 -0.16969,-1.35751 -0.0339,-2.98651 0.16969,-1.66294 0.64481,-3.29194 0.50907,-1.66294 1.39144,-3.19013 0.91632,-1.56112 2.30775,-2.715 1.39144,-1.18781 3.25801,-1.83263 1.9005,-0.67875 4.37794,-0.61087 z m -6.07482,13.7447 q -0.47512,3.63132 0.67875,5.83726 1.18782,2.20594 3.56344,2.68106 1.15388,0.23756 2.20594,-0.47512 1.08601,-0.74663 1.96838,-2.13807 0.88238,-1.39144 1.52719,-3.258 0.64481,-1.86657 0.95025,-3.90282 0.30544,-2.03625 0.0339,-3.66525 -0.23756,-1.66294 -0.84844,-2.81682 -0.61087,-1.18781 -1.49325,-1.83263 -0.84844,-0.64481 -1.76475,-0.71268 -1.59507,-0.10182 -2.78288,0.84843 -1.18782,0.91632 -2.00232,2.40957 -0.8145,1.49325 -1.32356,3.35982 -0.47513,1.86656 -0.71269,3.66525 z"
         style="font-style:normal;font-variant:normal;font-weight:normal;font-stretch:normal;font-size:34.75204086px;font-family:'Lakki Reddy';-inkscape-font-specification:'Lakki Reddy';text-align:center;text-anchor:middle;fill:#ffffff"
         id="path4278"
         inkscape:connector-curvature="0" />
      <path
         d="m 198.94855,229.03449 q 1.01812,0.20363 1.73081,0.30544 0.71269,0.10181 1.18782,0.16969 0.543,0.0679 0.91631,0.0679 0.37331,0 1.01813,-0.0339 0.57693,-0.0339 1.45931,-0.0339 0.88238,-0.0339 2.23988,-0.10182 -0.78057,0.543 -1.25569,0.91632 -0.47513,0.37331 -0.71269,0.64481 -0.30544,0.30544 -0.37331,0.50906 -0.0679,0.13575 -0.13575,1.01813 -0.0679,0.84844 -0.13575,2.172 -0.0339,1.28963 0,2.91863 0.0339,1.59507 0.16968,3.258 0.16969,1.66294 0.47513,3.22407 0.30544,1.52719 0.8145,2.68107 0.543,1.15387 1.28963,1.79869 0.78056,0.64481 1.86656,0.47512 1.42538,-0.20362 2.30775,-1.39144 0.88238,-1.18781 1.32357,-2.88469 0.47512,-1.69688 0.57694,-3.63132 0.13575,-1.96837 0.0339,-3.66525 -0.0679,-1.73081 -0.2715,-2.9865 -0.20362,-1.25569 -0.37331,-1.56113 -0.20362,-0.33938 -0.543,-0.78056 -0.2715,-0.37332 -0.71269,-0.84844 -0.44119,-0.50906 -1.01812,-1.086 1.05206,0.0339 1.9005,0.0679 0.84844,0 1.42537,0.0339 0.67876,0.0339 1.22176,0.0679 0.543,0.0339 1.3575,0.10182 0.67875,0.0679 1.73081,0.13575 1.086,0.0679 2.57926,0.20362 -0.57694,0.13575 -0.95026,0.37332 -0.33937,0.23756 -0.543,0.50906 -0.23756,0.30544 -0.33937,0.61087 -0.10181,0.2715 -0.16969,1.62901 -0.0339,1.32356 -0.13575,3.22406 -0.0679,1.86657 -0.23756,4.07251 -0.16969,2.172 -0.543,4.14038 -0.33938,1.96837 -0.91632,3.49556 -0.543,1.52719 -1.42537,2.10413 -1.28963,0.84844 -2.71501,1.22175 -1.42537,0.33938 -2.88469,0.37332 -1.45931,0 -2.88469,-0.23757 -1.39144,-0.2715 -2.68106,-0.64481 -1.32357,-0.40725 -2.20594,-1.83263 -0.84844,-1.42537 -1.35751,-3.35981 -0.47512,-1.96838 -0.71268,-4.20826 -0.20363,-2.27381 -0.2715,-4.37794 -0.0339,-2.10413 0,-3.80101 0.0679,-1.73081 0.10181,-2.61319 0,-0.44118 -0.13575,-0.84844 -0.10181,-0.37331 -0.37331,-0.78056 -0.23757,-0.44119 -0.71269,-0.8145 z"
         style="font-style:normal;font-variant:normal;font-weight:normal;font-stretch:normal;font-size:34.75204086px;font-family:'Lakki Reddy';-inkscape-font-specification:'Lakki Reddy';text-align:center;text-anchor:middle;fill:#ffffff"
         id="path4280"
         inkscape:connector-curvature="0" />
      <path
         d="m 220.36315,228.83087 q 1.52719,0.2715 2.51138,0.37331 0.98419,0.10181 1.59506,0.16969 0.71269,0.0679 1.11994,0.0339 l 1.01813,0 q 0.543,0 1.3575,0 0.84844,-0.0339 2.10413,-0.0339 0.71268,1.66294 1.28962,3.05437 0.61088,1.39144 1.01813,2.37563 0.47512,1.18782 0.88237,2.13807 0.47513,1.18781 1.01813,2.61319 0.543,1.42537 0.98419,2.68106 0.47512,1.25569 0.78056,2.07019 0.30544,0.8145 0.30544,0.74663 0,-0.0339 0.0339,-0.67875 0.0339,-0.67875 0.0679,-1.66294 0.0339,-1.01813 0.0679,-2.20594 0.0679,-1.22175 0.0679,-2.34169 0.0339,-1.15388 0.0339,-2.10413 0,-0.95025 -0.0679,-1.42538 -0.10182,-0.57693 -0.40725,-1.32356 -0.27151,-0.64481 -0.74663,-1.52719 -0.47513,-0.91631 -1.32356,-2.07019 1.39143,0.0339 2.27381,0.0339 0.88238,0 1.42538,0 0.61087,0 0.95025,-0.0339 0.44119,0 1.086,-0.0679 0.57694,-0.0679 1.42538,-0.10182 0.88237,-0.0679 2.172,-0.16968 -0.74663,0.67875 -1.18782,1.28962 -0.44118,0.61088 -0.71268,1.086 -0.30544,0.543 -0.40725,1.01813 -0.13575,0.61088 -0.23757,2.00231 -0.0679,1.35751 -0.16968,3.05438 -0.0679,1.69688 -0.13575,3.52951 -0.0679,1.83262 -0.13575,3.35981 0,1.15388 -0.0679,2.47744 -0.0679,1.11994 -0.13575,2.54532 -0.0679,1.39144 -0.16969,2.81682 l -3.02044,0.0679 q -1.32356,-2.34169 -2.23988,-4.00463 -0.88237,-1.69688 -1.45931,-2.78288 -0.64481,-1.25569 -1.086,-2.10412 -0.37331,-0.81451 -0.98419,-1.86657 -0.50906,-0.88238 -1.28963,-2.172 -0.74662,-1.28963 -1.79869,-2.95257 -0.10181,2.34169 -0.10181,4.00463 0.0339,1.629 0.10181,2.71501 0.10182,1.25568 0.23757,2.10412 0.16968,0.8145 0.47512,1.83263 0.2715,0.88238 0.64481,2.07019 0.40726,1.18781 0.98419,2.68107 -2.00231,-0.10182 -2.9865,-0.10182 l -1.01813,0 q -0.47512,0 -1.28962,0.10182 -0.67875,0.0679 -1.86657,0.20362 -1.15387,0.13575 -2.88469,0.37331 0.8145,-0.98419 1.28963,-1.79869 0.50906,-0.84843 0.78056,-1.42537 0.33938,-0.67875 0.47513,-1.18782 0.10181,-0.543 0.13575,-1.86656 0.0339,-1.3575 0,-3.05438 0,-1.73081 -0.0679,-3.63132 -0.0339,-1.9005 -0.10181,-3.5295 -0.0679,-1.629 -0.16969,-2.78288 -0.0679,-1.15388 -0.10181,-1.42538 -0.10181,-0.44118 -0.40725,-0.95025 -0.2715,-0.44119 -0.71269,-0.98419 -0.44119,-0.57693 -1.22175,-1.25568 z"
         style="font-style:normal;font-variant:normal;font-weight:normal;font-stretch:normal;font-size:34.75204086px;font-family:'Lakki Reddy';-inkscape-font-specification:'Lakki Reddy';text-align:center;text-anchor:middle;fill:#ffffff"
         id="path4282"
         inkscape:connector-curvature="0" />
      <path
         d="m 253.21468,227.81274 q 1.18782,0 2.13807,0.40725 0.98419,0.37331 1.79869,0.84844 0.84844,0.47512 1.59506,0.88237 0.74663,0.37332 1.52719,0.37332 0.61088,-0.0339 1.39144,-0.16969 0.67875,-0.13575 1.56113,-0.40725 0.91631,-0.30544 2.03625,-0.88238 -1.11994,1.086 -1.83263,1.83263 -0.67875,0.71269 -1.05206,1.18781 -0.44119,0.543 -0.64481,0.84844 -0.20363,0.37332 -0.61088,1.11994 -0.37331,0.67875 -1.01812,1.83263 -0.64482,1.11994 -1.62901,2.95256 0,-2.34169 -0.47512,-3.63131 -0.44119,-1.28963 -0.98419,-1.96838 -0.64481,-0.78056 -1.45932,-0.98419 -0.74662,-0.10181 -1.49325,0.2715 -0.74662,0.33938 -1.49325,1.01813 -0.71269,0.67875 -1.39144,1.629 -0.64481,0.91631 -1.18781,1.93444 -0.50906,1.01813 -0.84844,2.07019 -0.33938,1.01813 -0.44119,1.9005 -0.10181,0.78057 -0.0339,1.83263 0.0679,1.01813 0.30544,2.10413 0.23756,1.05206 0.61088,2.07019 0.37331,1.01812 0.91631,1.83262 0.57694,0.78057 1.28963,1.28963 0.71269,0.47513 1.629,0.44119 1.01813,-0.0679 2.00231,-0.61088 0.84844,-0.44119 1.73082,-1.3575 0.88238,-0.95025 1.52719,-2.68106 l 5.02275,0.91631 q -2.172,2.64713 -4.24219,3.97069 -2.03625,1.32357 -3.66525,1.86657 -1.9005,0.61087 -3.59738,0.57693 -2.13807,-0.23756 -4.00463,-1.28962 -1.86657,-1.05207 -3.22407,-2.54532 -1.32356,-1.52719 -2.07019,-3.32588 -0.74662,-1.79869 -0.64481,-3.5295 0.0679,-1.15388 0.47512,-2.68107 0.40726,-1.56112 1.08601,-3.19013 0.71268,-1.629 1.69687,-3.19012 0.98419,-1.56113 2.17201,-2.78288 1.18781,-1.25569 2.57925,-2.00232 1.42538,-0.78056 2.95256,-0.78056 z"
         style="font-style:normal;font-variant:normal;font-weight:normal;font-stretch:normal;font-size:34.75204086px;font-family:'Lakki Reddy';-inkscape-font-specification:'Lakki Reddy';text-align:center;text-anchor:middle;fill:#ffffff"
         id="path4284"
         inkscape:connector-curvature="0" />
      <path
         d="m 262.1742,229.71324 q 2.37563,0.0679 3.93676,0.10181 1.59506,0 2.57925,0 l 1.79869,0 10.11339,0 q 0.0679,0.67875 0.10181,1.32357 0.0679,0.61087 0.0679,1.086 0,0.57694 -0.0339,1.05206 -0.0339,0.47513 -0.10181,1.01813 -0.0679,0.47512 -0.13575,1.01813 -0.0679,0.543 -0.23757,1.11993 -0.47512,-1.83262 -1.28962,-2.78287 -0.78057,-0.95026 -1.59507,-1.39144 -0.95025,-0.50907 -2.00231,-0.543 -1.39144,0.0679 -2.17201,0.23756 -0.78056,0.16969 -1.22175,0.47512 -0.44119,0.30544 -0.67875,0.71269 -0.20362,0.37332 -0.44119,0.84844 -0.20362,0.40725 -0.37331,1.25569 -0.16969,0.71269 -0.33937,1.93444 -0.13575,1.22175 -0.30544,3.15619 0.91631,-0.2715 1.45931,-0.50906 0.57694,-0.23756 0.91632,-0.40725 0.37331,-0.20363 0.543,-0.37332 0.13575,-0.20362 0.40725,-0.74662 0.20362,-0.47513 0.543,-1.28963 0.37331,-0.8145 0.88237,-2.23988 0.0679,1.56113 0.0679,2.6132 0,1.01812 0.0339,1.66293 0,0.74663 0.0339,1.18782 l 0,1.28963 q 0,0.71268 0,1.93444 0.0339,1.18781 0.10182,3.02044 -0.40725,-1.25569 -0.74663,-1.96838 -0.30544,-0.74663 -0.543,-1.11994 -0.2715,-0.44119 -0.47513,-0.61088 -0.23756,-0.0679 -0.64481,-0.13575 -0.37331,-0.0339 -0.95025,-0.0339 -0.543,0 -1.39144,0.16968 -0.10181,1.86657 -0.0339,3.02045 0.10182,1.11993 0.2715,1.73081 0.16969,0.71269 0.40725,1.01813 0.30544,0.30543 1.22176,0.50906 0.91631,0.16969 2.07019,0.13575 1.18781,-0.0679 2.40956,-0.40725 1.22175,-0.33938 2.172,-1.11994 0.71269,-0.64481 1.52719,-1.629 0.67875,-0.84844 1.49325,-2.13807 0.84844,-1.28962 1.66294,-3.12225 -0.13575,1.52719 -0.20362,2.54531 -0.0339,0.98419 -0.10181,1.59507 -0.0679,0.71269 -0.10182,1.086 0,0.40725 -0.10181,1.15388 -0.0679,0.64481 -0.23756,1.76475 -0.13575,1.086 -0.37332,2.78288 -1.59506,0.0339 -3.02044,0.0679 -1.42537,0 -2.51137,0.0339 -1.28963,0.0339 -2.37563,0.0679 -1.11994,0 -2.47744,0.10182 -1.18782,0.0679 -2.81682,0.20362 -1.59506,0.13575 -3.5295,0.37332 0.16969,-2.30776 0.23756,-4.34401 0.10181,-2.07019 0.13575,-3.63132 0.0339,-1.83262 0,-3.39375 0.16969,-3.90282 -0.13575,-6.31238 -0.30544,-2.40957 -0.71269,-3.08832 -0.20362,-0.23756 -0.57694,-0.57694 -0.30543,-0.2715 -0.84843,-0.64481 -0.54301,-0.37331 -1.35751,-0.84844 z"
         style="font-style:normal;font-variant:normal;font-weight:normal;font-stretch:normal;font-size:34.75204086px;font-family:'Lakki Reddy';-inkscape-font-specification:'Lakki Reddy';text-align:center;text-anchor:middle;fill:#ffffff"
         id="path4286"
         inkscape:connector-curvature="0" />
    </g>
    <flowRoot
       xml:space="preserve"
       id="flowRoot4223"
       style="font-style:normal;font-weight:normal;font-size:40px;line-height:125%;font-family:sans-serif;letter-spacing:0px;word-spacing:0px;fill:#000000;fill-opacity:1;stroke:none;stroke-width:1px;stroke-linecap:butt;stroke-linejoin:miter;stroke-opacity:1"
       transform="matrix(0.26458331,0,0,0.26458333,0.11837076,101.98663)"><flowRegion
         id="flowRegion4225"><rect
           id="rect4227"
           width="1080"
           height="642.85712"
           x="-397.14285"
           y="1056.7885" /></flowRegion><flowPara
         id="flowPara4229">Welcome to</flowPara><flowPara
         id="flowPara4231">WIZARDS OF THE BOUNCE</flowPara></flowRoot>  </g>
</svg>
