<?xml version="1.0" encoding="UTF-8" standalone="no"?>
<!-- Created with Inkscape (http://www.inkscape.org/) -->

<svg
   xmlns:dc="http://purl.org/dc/elements/1.1/"
   xmlns:cc="http://creativecommons.org/ns#"
   xmlns:rdf="http://www.w3.org/1999/02/22-rdf-syntax-ns#"
   xmlns:svg="http://www.w3.org/2000/svg"
   xmlns="http://www.w3.org/2000/svg"
   xmlns:sodipodi="http://sodipodi.sourceforge.net/DTD/sodipodi-0.dtd"
   xmlns:inkscape="http://www.inkscape.org/namespaces/inkscape"
   width="142.16946mm"
   height="10.956917mm"
   viewBox="0 0 503.75007 38.823721"
   id="svg4153"
   version="1.1"
   inkscape:version="0.91 r13725"
   sodipodi:docname="try_again.svg">
  <defs
     id="defs4155" />
  <sodipodi:namedview
     id="base"
     pagecolor="#ffffff"
     bordercolor="#666666"
     borderopacity="1.0"
     inkscape:pageopacity="0.0"
     inkscape:pageshadow="2"
     inkscape:zoom="0.49497475"
     inkscape:cx="691.85838"
     inkscape:cy="-197.89066"
     inkscape:document-units="px"
     inkscape:current-layer="layer1"
     showgrid="false"
     fit-margin-top="0"
     fit-margin-left="0"
     fit-margin-right="0"
     fit-margin-bottom="0"
     inkscape:window-width="1920"
     inkscape:window-height="1019"
     inkscape:window-x="0"
     inkscape:window-y="24"
     inkscape:window-maximized="1" />
  <metadata
     id="metadata4158">
    <rdf:RDF>
      <cc:Work
         rdf:about="">
        <dc:format>image/svg+xml</dc:format>
        <dc:type
           rdf:resource="http://purl.org/dc/dcmitype/StillImage" />
        <dc:title></dc:title>
      </cc:Work>
    </rdf:RDF>
  </metadata>
  <g
     inkscape:label="Layer 1"
     inkscape:groupmode="layer"
     id="layer1"
     transform="translate(897.05346,-110.02815)">
    <g
       transform="translate(90.261052,279.0432)"
       style="font-style:normal;font-weight:normal;font-size:40px;line-height:125%;font-family:sans-serif;letter-spacing:0px;word-spacing:0px;fill:#000000;fill-opacity:1;stroke:none;stroke-width:1px;stroke-linecap:butt;stroke-linejoin:miter;stroke-opacity:1"
       id="flowRoot5589">
      <path
         d="m -987.31445,-167.02286 q 1.48437,0.35156 2.65625,0.54687 1.21093,0.15625 2.03125,0.23438 0.97656,0.11718 1.71875,0.0781 0.9375,-0.0391 2.34375,-0.27344 1.40625,-0.23437 2.96875,-0.46875 1.5625,-0.23437 3.08593,-0.39062 1.52344,-0.15625 2.65625,-0.0391 1.13282,0.11718 2.38282,0.54687 1.25,0.39063 2.34375,1.09375 1.09375,0.66406 1.875,1.64063 0.82031,0.97656 1.01562,2.26562 0.19531,1.25 -0.23437,2.69531 -0.42969,1.40625 -1.36719,2.77344 -0.9375,1.32813 -2.34375,2.46094 -1.40625,1.13281 -3.125,1.83594 -1.36719,0.50781 -2.96875,0.78125 -1.36719,0.23437 -3.20313,0.3125 -1.79687,0.0391 -3.82812,-0.39063 -0.27344,1.13281 -0.3125,2.10938 0,0.9375 0.0781,1.67968 0.11719,0.85938 0.3125,1.5625 0.23438,0.70313 0.58594,1.64063 0.3125,0.78125 0.70313,1.91406 0.42968,1.09375 1.01562,2.46094 -0.70312,0 -1.36719,0.0391 -0.66406,0 -1.21093,0.0391 -0.625,0.0391 -1.17188,0.0781 -0.625,0.0391 -1.40625,0.15625 -0.66406,0.0781 -1.67969,0.23437 -0.97656,0.15625 -2.22656,0.39063 0.82031,-1.17188 1.28906,-2.14844 0.50782,-1.01562 0.74219,-1.75781 0.27344,-0.85938 0.35156,-1.5625 0.0391,-0.58594 0,-2.07031 0,-1.48438 -0.0391,-3.4375 -0.0391,-1.95313 -0.11719,-4.10157 -0.0781,-2.14843 -0.19531,-4.02343 -0.11719,-1.91407 -0.27344,-3.28125 -0.11718,-1.36719 -0.23437,-1.79688 -0.15625,-0.50781 -0.54688,-1.09375 -0.3125,-0.50781 -0.89843,-1.17187 -0.54688,-0.70313 -1.40625,-1.5625 z m 8.08593,7.69531 q -0.0391,0.39062 -0.0391,0.82031 0,0.82031 0.11719,2.10938 0.27344,0.66406 0.66406,1.09375 0.42969,0.42968 0.89844,0.66406 0.50781,0.23437 1.01562,0.3125 0.50782,0.0781 1.01563,0.0781 1.17187,-0.0391 2.46094,-0.54687 1.71875,-0.74219 2.42187,-2.10938 0.70313,-1.36718 0.74219,-2.8125 0.0391,-1.44531 -0.50781,-2.65625 -0.50782,-1.21093 -1.25,-1.64062 -0.625,-0.27344 -1.60157,-0.23438 -0.85937,0.0391 -2.14843,0.42969 -1.28907,0.39063 -3.16407,1.40625 -0.19531,0.70313 -0.3125,1.25 -0.11718,0.54688 -0.19531,0.97656 -0.0781,0.46875 -0.11719,0.85938 z"
         style="font-style:normal;font-variant:normal;font-weight:normal;font-stretch:normal;font-family:'Lakki Reddy';-inkscape-font-specification:'Lakki Reddy';fill:#ffffff"
         id="path5602"
         inkscape:connector-curvature="0" />
      <path
         d="m -962.35352,-157.76505 q 0.74219,0.0391 1.32813,0.0391 0.625,-0.0391 1.05469,-0.0781 0.50781,-0.0391 0.89843,-0.0781 0.58594,-0.0781 1.21094,-0.19531 0.54688,-0.0781 1.13281,-0.19531 0.625,-0.15625 1.21094,-0.35157 -0.23437,0.58594 -0.39062,1.01563 -0.15625,0.42969 -0.23438,0.74219 -0.11719,0.35156 -0.11719,0.58593 -0.0391,0.27344 -0.0391,0.66407 -0.0391,0.66406 0,2.14843 2.03125,-1.75781 3.39844,-2.73437 1.40625,-0.97656 2.22656,-1.52344 0.97656,-0.625 1.52344,-0.82031 1.44531,-0.23438 2.53906,0.66406 0.46875,0.39063 0.89844,1.05469 0.42969,0.625 0.74219,1.67969 0.3125,1.05468 0.46875,2.53906 0.15625,1.44531 0.0391,3.47656 -0.82031,0.0781 -1.48438,0.15625 -0.625,0.0781 -1.05468,0.11719 -0.50782,0.0781 -0.9375,0.0781 l -1.05469,0.11719 q -0.54688,0.0781 -1.36719,0.15625 -0.78125,0.0391 -1.91406,0.15625 1.64062,-1.32812 2.10937,-2.30469 0.50782,-1.01562 0.42969,-1.67968 -0.0781,-0.74219 -0.70312,-1.28907 -0.74219,-0.42968 -1.60157,-0.3125 -0.74218,0.0781 -1.71875,0.66407 -0.97656,0.58593 -2.07031,2.1875 0.0781,2.5 0.15625,4.14062 0.11719,1.64063 0.19531,2.65625 0.11719,1.17188 0.19532,1.83594 0.11718,0.58594 0.46875,1.25 0.27343,0.54687 0.78125,1.21094 0.50781,0.66406 1.32812,1.32812 -1.71875,-0.0781 -2.8125,0 -0.66406,0.0391 -1.17187,0.0781 -0.54688,0.0781 -1.17188,0.15625 -0.54687,0.0781 -1.28906,0.15625 -0.70313,0.11718 -1.5625,0.23437 0.3125,-0.42969 0.50781,-1.01562 0.19531,-0.54688 0.3125,-1.05469 0.15625,-0.58594 0.23438,-1.21094 0.0391,-0.54687 0.0391,-1.64062 0.0391,-1.09375 -0.0391,-2.46094 -0.0391,-1.40625 -0.11719,-2.89063 -0.0781,-1.52343 -0.19531,-2.85156 -0.11719,-1.32812 -0.27344,-2.30469 -0.11719,-1.01562 -0.27344,-1.40625 -0.19531,-0.46875 -0.46875,-0.9375 -0.23437,-0.42968 -0.58594,-0.89843 -0.35156,-0.50782 -0.78125,-1.05469 z"
         style="font-style:normal;font-variant:normal;font-weight:normal;font-stretch:normal;font-family:'Lakki Reddy';-inkscape-font-specification:'Lakki Reddy';fill:#ffffff"
         id="path5604"
         inkscape:connector-curvature="0" />
      <path
         d="m -932.66602,-145.34318 q 1.09375,0 2.03125,-0.23437 0.78125,-0.19531 1.48438,-0.625 0.74219,-0.46875 0.97656,-1.36719 0.78125,0.15625 1.32813,0.27344 0.54687,0.0781 0.9375,0.15625 0.42968,0.11719 0.74218,0.15625 0.3125,0.0781 0.74219,0.15625 0.39063,0.0781 0.9375,0.19531 0.58594,0.0781 1.36719,0.23438 -0.58594,-0.0781 -1.21094,0.11718 -0.58594,0.19532 -1.13281,0.42969 -0.625,0.27344 -1.17188,0.66406 -0.35156,0.23438 -0.82031,0.70313 -0.42969,0.46875 -1.25,0.89844 -0.82031,0.42968 -2.1875,0.74218 -1.32812,0.27344 -3.4375,0.19532 -2.53906,-0.0781 -4.25781,-0.89844 -1.71875,-0.85938 -2.77344,-2.07031 -1.05469,-1.25 -1.52344,-2.69532 -0.46875,-1.44531 -0.50781,-2.69531 -0.0391,-1.25 0.74219,-2.61719 0.78125,-1.36718 2.1875,-2.5 1.44531,-1.13281 3.47656,-1.83593 2.03125,-0.74219 4.45313,-0.74219 1.40625,0 2.57812,0.35156 1.21094,0.3125 2.1875,0.85938 1.01563,0.54687 1.75781,1.25 0.74219,0.66406 1.25,1.36718 0.50782,0.74219 0.85938,1.5625 0.3125,0.70313 0.50781,1.60157 0.19531,0.89843 0.11719,1.83593 -2.96875,0.0781 -4.80469,0.11719 -1.79687,0.0391 -2.8125,0.0391 l -1.75781,0 -1.32813,0 q -0.70312,0 -1.83593,0.0391 -1.13282,0.0391 -2.77344,0.11718 0.19531,1.5625 0.97656,2.42188 0.82031,0.82031 1.71875,1.25 1.01563,0.46875 2.22656,0.54687 z m -3.51562,-7.03125 q 1.25,0.0781 2.07031,0.11719 0.85938,0.0391 1.40625,0.0781 0.58594,0.0391 0.9375,0.0391 l 0.97656,0 q 0.97657,0 3.63282,-0.11719 -0.11719,-1.71875 -0.74219,-2.61719 -0.58594,-0.89843 -1.25,-1.32812 -0.78125,-0.46875 -1.71875,-0.54688 -2.53906,0.0391 -3.78906,1.05469 -1.21094,1.01563 -1.52344,3.32031 z"
         style="font-style:normal;font-variant:normal;font-weight:normal;font-stretch:normal;font-family:'Lakki Reddy';-inkscape-font-specification:'Lakki Reddy';fill:#ffffff"
         id="path5606"
         inkscape:connector-curvature="0" />
      <path
         d="m -903.48633,-161.3588 q -0.35156,0.85937 -0.625,1.5625 -0.23437,0.70312 -0.42969,1.25 -0.19531,0.625 -0.35156,1.09375 -0.15625,0.54687 -0.35156,1.25 -0.19531,0.625 -0.50781,1.5625 -0.27344,0.89844 -0.66407,2.14844 -0.3125,-1.875 -1.13281,-2.96875 -0.82031,-1.13282 -1.67969,-1.75782 -1.01562,-0.70312 -2.1875,-1.01562 -2.10937,-0.35156 -3.04687,0.0781 -0.9375,0.42969 -1.25,1.09375 -0.15625,0.27344 -0.35156,0.70313 -0.15625,0.39062 -0.27344,0.82031 -0.0781,0.42969 -0.0391,0.85938 0.0391,0.42968 0.35156,0.70312 0.19531,0.19531 1.01562,0.54688 0.82032,0.3125 1.95313,0.74218 1.17187,0.39063 2.46094,0.85938 1.32812,0.46875 2.5,0.9375 1.17187,0.46875 2.03125,0.9375 0.85937,0.46875 1.13281,0.85937 0.23437,0.39063 0.50781,1.05469 0.3125,0.625 0.42969,1.40625 0.15625,0.74219 0.0781,1.5625 -0.0391,0.78125 -0.42968,1.5625 -0.39063,0.78125 -1.25,1.44531 -0.82032,0.66407 -2.22657,1.09375 -1.64062,0.50782 -3.16406,0.27344 -1.52344,-0.23437 -2.8125,-0.70312 -1.25,-0.46875 -2.1875,-0.89844 -0.9375,-0.46875 -1.32812,-0.39063 -0.42969,0.0781 -0.97657,0.42969 -0.54687,0.35156 -1.05468,0.74219 -0.46875,0.35156 -0.82032,0.66406 -0.35156,0.27344 -0.35156,0.19531 0,-0.0781 0.11719,-0.46875 0.15625,-0.39062 0.3125,-0.9375 0.19531,-0.58593 0.35156,-1.25 0.19531,-0.70312 0.27344,-1.32812 0.0781,-0.50781 0.19531,-1.25 0.0781,-0.66406 0.19531,-1.60156 0.15625,-0.97657 0.35157,-2.34375 0.19531,1.01562 0.54687,1.75781 0.39063,0.74219 0.74219,1.28906 0.42969,0.625 0.82031,1.05469 0.58594,0.54687 1.36719,1.01562 0.82031,0.46875 1.64062,0.82032 0.82032,0.3125 1.5625,0.39062 0.74219,0.0781 1.25,-0.15625 0.50782,-0.23437 0.85938,-0.85937 0.39062,-0.625 0.54687,-1.36719 0.15625,-0.74219 0.11719,-1.40625 -0.0391,-0.70313 -0.35156,-1.13281 -0.23438,-0.27344 -1.09375,-0.70313 -0.82031,-0.42969 -1.99219,-0.9375 -1.13281,-0.50781 -2.42187,-1.05469 -1.25,-0.54687 -2.38282,-1.09375 -1.09375,-0.58593 -1.83593,-1.09375 -0.70313,-0.54687 -0.78125,-0.97656 -0.0781,-0.625 -0.11719,-1.36719 -0.0391,-0.78125 0.0781,-1.52343 0.15625,-0.78125 0.54688,-1.48438 0.42969,-0.70312 1.25,-1.17187 0.54687,-0.3125 1.44531,-0.46875 0.89844,-0.15625 1.99219,-0.15625 1.09375,-0.0391 2.26562,0.0781 1.17188,0.0781 2.22657,0.23438 1.09375,0.11718 1.95312,0.3125 0.89844,0.19531 1.36719,0.35156 0.54687,0.19531 1.17187,0.0391 0.54688,-0.11719 1.17188,-0.50781 0.625,-0.39063 1.28906,-1.40625 z"
         style="font-style:normal;font-variant:normal;font-weight:normal;font-stretch:normal;font-family:'Lakki Reddy';-inkscape-font-specification:'Lakki Reddy';fill:#ffffff"
         id="path5608"
         inkscape:connector-curvature="0" />
      <path
         d="m -884.81445,-161.3588 q -0.35157,0.85937 -0.625,1.5625 -0.23438,0.70312 -0.42969,1.25 -0.19531,0.625 -0.35156,1.09375 -0.15625,0.54687 -0.35157,1.25 -0.19531,0.625 -0.50781,1.5625 -0.27344,0.89844 -0.66406,2.14844 -0.3125,-1.875 -1.13281,-2.96875 -0.82032,-1.13282 -1.67969,-1.75782 -1.01563,-0.70312 -2.1875,-1.01562 -2.10938,-0.35156 -3.04688,0.0781 -0.9375,0.42969 -1.25,1.09375 -0.15625,0.27344 -0.35156,0.70313 -0.15625,0.39062 -0.27344,0.82031 -0.0781,0.42969 -0.0391,0.85938 0.0391,0.42968 0.35156,0.70312 0.19532,0.19531 1.01563,0.54688 0.82031,0.3125 1.95312,0.74218 1.17188,0.39063 2.46094,0.85938 1.32813,0.46875 2.5,0.9375 1.17188,0.46875 2.03125,0.9375 0.85938,0.46875 1.13281,0.85937 0.23438,0.39063 0.50782,1.05469 0.3125,0.625 0.42968,1.40625 0.15625,0.74219 0.0781,1.5625 -0.0391,0.78125 -0.42969,1.5625 -0.39062,0.78125 -1.25,1.44531 -0.82031,0.66407 -2.22656,1.09375 -1.64063,0.50782 -3.16406,0.27344 -1.52344,-0.23437 -2.8125,-0.70312 -1.25,-0.46875 -2.1875,-0.89844 -0.9375,-0.46875 -1.32813,-0.39063 -0.42969,0.0781 -0.97656,0.42969 -0.54688,0.35156 -1.05469,0.74219 -0.46875,0.35156 -0.82031,0.66406 -0.35156,0.27344 -0.35156,0.19531 0,-0.0781 0.11718,-0.46875 0.15625,-0.39062 0.3125,-0.9375 0.19532,-0.58593 0.35157,-1.25 0.19531,-0.70312 0.27343,-1.32812 0.0781,-0.50781 0.19532,-1.25 0.0781,-0.66406 0.19531,-1.60156 0.15625,-0.97657 0.35156,-2.34375 0.19531,1.01562 0.54688,1.75781 0.39062,0.74219 0.74218,1.28906 0.42969,0.625 0.82032,1.05469 0.58593,0.54687 1.36718,1.01562 0.82032,0.46875 1.64063,0.82032 0.82031,0.3125 1.5625,0.39062 0.74219,0.0781 1.25,-0.15625 0.50781,-0.23437 0.85937,-0.85937 0.39063,-0.625 0.54688,-1.36719 0.15625,-0.74219 0.11719,-1.40625 -0.0391,-0.70313 -0.35157,-1.13281 -0.23437,-0.27344 -1.09375,-0.70313 -0.82031,-0.42969 -1.99218,-0.9375 -1.13282,-0.50781 -2.42188,-1.05469 -1.25,-0.54687 -2.38281,-1.09375 -1.09375,-0.58593 -1.83594,-1.09375 -0.70312,-0.54687 -0.78125,-0.97656 -0.0781,-0.625 -0.11719,-1.36719 -0.0391,-0.78125 0.0781,-1.52343 0.15625,-0.78125 0.54687,-1.48438 0.42969,-0.70312 1.25,-1.17187 0.54688,-0.3125 1.44532,-0.46875 0.89843,-0.15625 1.99218,-0.15625 1.09375,-0.0391 2.26563,0.0781 1.17187,0.0781 2.22656,0.23438 1.09375,0.11718 1.95313,0.3125 0.89843,0.19531 1.36718,0.35156 0.54688,0.19531 1.17188,0.0391 0.54687,-0.11719 1.17187,-0.50781 0.625,-0.39063 1.28907,-1.40625 z"
         style="font-style:normal;font-variant:normal;font-weight:normal;font-stretch:normal;font-family:'Lakki Reddy';-inkscape-font-specification:'Lakki Reddy';fill:#ffffff"
         id="path5610"
         inkscape:connector-curvature="0" />
      <path
         d="m -875.86914,-165.7338 q 2.73437,0.0781 4.53125,0.11719 1.83594,0 2.96875,0 l 2.07031,0 11.64063,0 q 0.0781,0.78125 0.11718,1.52343 0.0781,0.70313 0.0781,1.25 0,0.66407 -0.0391,1.21094 -0.0391,0.54688 -0.11719,1.17188 -0.0781,0.54687 -0.15625,1.17187 -0.0781,0.625 -0.27344,1.28906 -0.54687,-2.10937 -1.48437,-3.20312 -0.89844,-1.09375 -1.83594,-1.60156 -1.09375,-0.58594 -2.30469,-0.625 -1.60156,0.0781 -2.5,0.27343 -0.89844,0.19532 -1.40625,0.54688 -0.50781,0.35156 -0.78125,0.82031 -0.23437,0.42969 -0.50781,0.97656 -0.23438,0.46875 -0.42969,1.44532 -0.19531,0.82031 -0.39062,2.22656 -0.15625,1.40625 -0.35157,3.63281 1.05469,-0.3125 1.67969,-0.58594 0.66406,-0.27343 1.05469,-0.46875 0.42969,-0.23437 0.625,-0.42968 0.15625,-0.23438 0.46875,-0.85938 0.23437,-0.54687 0.625,-1.48437 0.42969,-0.9375 1.01562,-2.57813 0.0781,1.79688 0.0781,3.00781 0,1.17188 0.0391,1.91407 0,0.85937 0.0391,1.36718 l 0,1.48438 q 0,0.82031 0,2.22656 0.0391,1.36719 0.11719,3.47656 -0.46875,-1.44531 -0.85937,-2.26562 -0.35157,-0.85938 -0.625,-1.28906 -0.3125,-0.50782 -0.54688,-0.70313 -0.27344,-0.0781 -0.74219,-0.15625 -0.42968,-0.0391 -1.09375,-0.0391 -0.625,0 -1.60156,0.19531 -0.11719,2.14844 -0.0391,3.47656 0.11719,1.28907 0.3125,1.99219 0.19531,0.82031 0.46875,1.17188 0.35156,0.35156 1.40625,0.58593 1.05469,0.19532 2.38281,0.15625 1.36719,-0.0781 2.77344,-0.46875 1.40625,-0.39062 2.5,-1.28906 0.82031,-0.74219 1.75781,-1.875 0.78125,-0.97656 1.71875,-2.46094 0.97656,-1.48437 1.91406,-3.59375 -0.15625,1.75782 -0.23437,2.92969 -0.0391,1.13281 -0.11719,1.83594 -0.0781,0.82031 -0.11719,1.25 0,0.46875 -0.11718,1.32812 -0.0781,0.74219 -0.27344,2.03125 -0.15625,1.25 -0.42969,3.20313 -1.83594,0.0391 -3.47656,0.0781 -1.64063,0 -2.89063,0.0391 -1.48437,0.0391 -2.73437,0.0781 -1.28906,0 -2.85156,0.11719 -1.36719,0.0781 -3.24219,0.23437 -1.83594,0.15625 -4.0625,0.42969 0.19531,-2.65625 0.27344,-5 0.11718,-2.38281 0.15625,-4.17969 0.0391,-2.10937 0,-3.90625 0.19531,-4.49218 -0.15625,-7.26562 -0.35157,-2.77344 -0.82032,-3.55469 -0.23437,-0.27344 -0.66406,-0.66406 -0.35156,-0.3125 -0.97656,-0.74219 -0.625,-0.42969 -1.5625,-0.97656 z"
         style="font-style:normal;font-variant:normal;font-weight:normal;font-stretch:normal;font-family:'Lakki Reddy';-inkscape-font-specification:'Lakki Reddy';fill:#ffffff"
         id="path5612"
         inkscape:connector-curvature="0" />
      <path
         d="m -848.56445,-143.35099 q 0.27343,-1.28906 0.39062,-2.26562 0.15625,-1.01563 0.23438,-1.67969 0.0781,-0.78125 0.0781,-1.32813 -0.0391,-0.66406 -0.0781,-1.5625 0,-0.9375 -0.0781,-1.83593 -0.0391,-0.9375 -0.11719,-1.64063 -0.0781,-0.74219 -0.19531,-1.05469 -0.15625,-0.3125 -0.42969,-0.66406 -0.54687,-0.66406 -1.60156,-1.28906 0.89844,-0.19531 1.52344,-0.3125 0.66406,-0.15625 1.09375,-0.27344 0.46875,-0.15625 0.82031,-0.27344 0.3125,-0.11718 0.74219,-0.23437 0.35156,-0.0781 0.85937,-0.19531 0.50782,-0.11719 1.17188,-0.27344 l -0.11719,3.55469 q 1.25,-1.48438 2.53906,-2.22657 1.28907,-0.74218 2.42188,-1.05468 1.28906,-0.39063 2.53906,-0.39063 1.5625,0.0781 2.89063,0.50781 1.36718,0.42969 2.34375,1.01563 1.01562,0.54687 1.64062,1.17187 0.625,0.625 0.74219,1.09375 0.46875,1.52344 0.23437,2.8125 -0.23437,1.25 -0.625,2.46094 -0.35156,1.17188 -0.625,2.34375 -0.23437,1.17188 0.19532,2.53906 0.15625,0.35157 0.3125,0.70313 0.15625,0.3125 0.39062,0.625 0.23438,0.3125 0.54688,0.50781 -0.42969,-0.0391 -0.85938,-0.0391 -0.42969,-0.0391 -0.78125,-0.0781 -0.42969,-0.0391 -0.78125,-0.0781 -0.39062,-0.0391 -1.05469,-0.0391 -1.13281,0 -3.51562,0.11718 0.35156,-0.82031 0.54687,-1.36718 0.23438,-0.58594 0.39063,-0.9375 0.15625,-0.42969 0.23437,-0.66407 0.46875,-1.13281 0.54688,-2.57812 0.11719,-1.44531 -0.19531,-2.92969 -0.11719,-0.50781 -0.39063,-1.21094 -0.27344,-0.70312 -0.74219,-1.36718 -0.42968,-0.66407 -1.05468,-1.13282 -0.58594,-0.46875 -1.36719,-0.54687 -0.78125,-0.0781 -1.75781,0.39062 -0.9375,0.46875 -2.03125,1.71875 -0.82032,1.05469 -1.28907,2.57813 -0.42968,1.28906 -0.58593,3.24219 -0.15625,1.91406 0.46875,4.49218 -0.54688,-0.0781 -1.01563,-0.0781 -0.46875,-0.0391 -0.78125,-0.0781 -0.39062,-0.0391 -0.70312,-0.0781 -0.35157,0 -0.78125,-0.0391 -0.39063,0 -0.97657,0 -0.58593,-0.0391 -1.36718,-0.0781 z"
         style="font-style:normal;font-variant:normal;font-weight:normal;font-stretch:normal;font-family:'Lakki Reddy';-inkscape-font-specification:'Lakki Reddy';fill:#ffffff"
         id="path5614"
         inkscape:connector-curvature="0" />
      <path
         d="m -826.80664,-163.66349 q 1.17187,0.11719 1.95312,0.19531 0.82032,0.0781 1.32813,0.11719 0.58594,0.0391 0.9375,0.0391 0.35156,0.0391 0.9375,0 0.50781,-0.0391 1.32812,-0.0781 0.82032,-0.0781 2.07032,-0.23438 -0.27344,0.39063 -0.42969,0.70313 -0.15625,0.27344 -0.27344,0.50781 l -0.23437,0.46875 q -0.0781,0.23438 -0.15625,0.46875 -0.0781,0.19531 -0.15625,0.46875 -0.0391,0.27344 -0.0781,0.58594 l 6.01563,0 -0.54688,3.16406 -5.50781,-0.3125 q -0.19531,1.99219 -0.27344,3.08594 -0.0781,1.09375 -0.15625,1.60156 l -0.0781,0.70313 q -0.11719,1.48437 -0.23438,3.24218 -0.11719,1.71875 -0.0781,3.20313 0.0391,1.48437 0.27343,2.5 0.23438,0.97656 0.82032,0.97656 0.58593,0 1.09375,-0.3125 0.50781,-0.3125 0.85937,-0.74219 0.39063,-0.42968 0.58594,-0.85937 0.19531,-0.46875 0.19531,-0.70313 0,-0.23437 -0.11719,-0.54687 -0.19531,-0.58594 -0.70312,-1.48438 1.13281,0.27344 1.99219,0.54688 0.42968,0.15625 0.78125,0.3125 0.39062,0.15625 0.89843,0.35156 0.42969,0.19531 1.09375,0.46875 0.66407,0.27344 1.5625,0.66406 -0.85937,0.15625 -1.25,0.50782 -0.23437,0.15625 -0.35156,0.35156 -0.27344,0.42969 -0.625,1.17187 -0.35156,0.70313 -1.05469,1.40625 -0.70312,0.70313 -1.91406,1.25 -1.17187,0.54688 -3.16406,0.625 -2.07031,0.0781 -3.16406,-0.70312 -1.05469,-0.78125 -1.5625,-1.79688 -0.46875,-1.05468 -0.54688,-2.07031 -0.0781,-1.01562 -0.11719,-1.36719 -0.0391,-0.35156 0,-1.75781 0.0391,-1.40625 0.11719,-3.08594 0.0781,-1.71875 0.15625,-3.28125 0.0781,-1.60156 0.0781,-2.34375 0,-0.39062 0.0391,-0.82031 0,-0.35156 0,-0.74219 0.0391,-0.42968 0.0391,-0.82031 l -5.66406,-0.0391 -0.23438,-2.22656 5.70313,0.15625 q -0.0781,-0.42969 -0.19531,-0.78125 -0.0781,-0.39063 -0.15625,-0.625 -0.11719,-0.27344 -0.23438,-0.46875 -0.15625,-0.19532 -0.35156,-0.42969 -0.19531,-0.19531 -0.50781,-0.50781 -0.3125,-0.3125 -0.74219,-0.70313 z"
         style="font-style:normal;font-variant:normal;font-weight:normal;font-stretch:normal;font-family:'Lakki Reddy';-inkscape-font-specification:'Lakki Reddy';fill:#ffffff"
         id="path5616"
         inkscape:connector-curvature="0" />
      <path
         d="m -802.50977,-145.34318 q 1.09375,0 2.03125,-0.23437 0.78125,-0.19531 1.48438,-0.625 0.74219,-0.46875 0.97656,-1.36719 0.78125,0.15625 1.32813,0.27344 0.54687,0.0781 0.9375,0.15625 0.42968,0.11719 0.74218,0.15625 0.3125,0.0781 0.74219,0.15625 0.39063,0.0781 0.9375,0.19531 0.58594,0.0781 1.36719,0.23438 -0.58594,-0.0781 -1.21094,0.11718 -0.58594,0.19532 -1.13281,0.42969 -0.625,0.27344 -1.17188,0.66406 -0.35156,0.23438 -0.82031,0.70313 -0.42969,0.46875 -1.25,0.89844 -0.82031,0.42968 -2.1875,0.74218 -1.32812,0.27344 -3.4375,0.19532 -2.53906,-0.0781 -4.25781,-0.89844 -1.71875,-0.85938 -2.77344,-2.07031 -1.05469,-1.25 -1.52344,-2.69532 -0.46875,-1.44531 -0.50781,-2.69531 -0.0391,-1.25 0.74219,-2.61719 0.78125,-1.36718 2.1875,-2.5 1.44531,-1.13281 3.47656,-1.83593 2.03125,-0.74219 4.45313,-0.74219 1.40625,0 2.57812,0.35156 1.21094,0.3125 2.1875,0.85938 1.01563,0.54687 1.75781,1.25 0.74219,0.66406 1.25,1.36718 0.50782,0.74219 0.85938,1.5625 0.3125,0.70313 0.50781,1.60157 0.19531,0.89843 0.11719,1.83593 -2.96875,0.0781 -4.80469,0.11719 -1.79687,0.0391 -2.8125,0.0391 l -1.75781,0 -1.32813,0 q -0.70312,0 -1.83593,0.0391 -1.13282,0.0391 -2.77344,0.11718 0.19531,1.5625 0.97656,2.42188 0.82031,0.82031 1.71875,1.25 1.01563,0.46875 2.22656,0.54687 z m -3.51562,-7.03125 q 1.25,0.0781 2.07031,0.11719 0.85938,0.0391 1.40625,0.0781 0.58594,0.0391 0.9375,0.0391 l 0.97656,0 q 0.97657,0 3.63282,-0.11719 -0.11719,-1.71875 -0.74219,-2.61719 -0.58594,-0.89843 -1.25,-1.32812 -0.78125,-0.46875 -1.71875,-0.54688 -2.53906,0.0391 -3.78906,1.05469 -1.21094,1.01563 -1.52344,3.32031 z"
         style="font-style:normal;font-variant:normal;font-weight:normal;font-stretch:normal;font-family:'Lakki Reddy';-inkscape-font-specification:'Lakki Reddy';fill:#ffffff"
         id="path5618"
         inkscape:connector-curvature="0" />
      <path
         d="m -790.94727,-157.76505 q 0.74219,0.0391 1.32813,0.0391 0.625,-0.0391 1.05469,-0.0781 0.50781,-0.0391 0.89843,-0.0781 0.58594,-0.0781 1.21094,-0.19531 0.54688,-0.0781 1.13281,-0.19531 0.625,-0.15625 1.21094,-0.35157 -0.23437,0.58594 -0.39062,1.01563 -0.15625,0.42969 -0.23438,0.74219 -0.11719,0.35156 -0.11719,0.58593 -0.0391,0.27344 -0.0391,0.66407 -0.0391,0.66406 0,2.14843 2.03125,-1.75781 3.39844,-2.73437 1.40625,-0.97656 2.22656,-1.52344 0.97656,-0.625 1.52344,-0.82031 1.44531,-0.23438 2.53906,0.66406 0.46875,0.39063 0.89844,1.05469 0.42969,0.625 0.74219,1.67969 0.3125,1.05468 0.46875,2.53906 0.15625,1.44531 0.0391,3.47656 -0.82031,0.0781 -1.48438,0.15625 -0.625,0.0781 -1.05468,0.11719 -0.50782,0.0781 -0.9375,0.0781 l -1.05469,0.11719 q -0.54688,0.0781 -1.36719,0.15625 -0.78125,0.0391 -1.91406,0.15625 1.64062,-1.32812 2.10937,-2.30469 0.50782,-1.01562 0.42969,-1.67968 -0.0781,-0.74219 -0.70312,-1.28907 -0.74219,-0.42968 -1.60157,-0.3125 -0.74218,0.0781 -1.71875,0.66407 -0.97656,0.58593 -2.07031,2.1875 0.0781,2.5 0.15625,4.14062 0.11719,1.64063 0.19531,2.65625 0.11719,1.17188 0.19532,1.83594 0.11718,0.58594 0.46875,1.25 0.27343,0.54687 0.78125,1.21094 0.50781,0.66406 1.32812,1.32812 -1.71875,-0.0781 -2.8125,0 -0.66406,0.0391 -1.17187,0.0781 -0.54688,0.0781 -1.17188,0.15625 -0.54687,0.0781 -1.28906,0.15625 -0.70313,0.11718 -1.5625,0.23437 0.3125,-0.42969 0.50781,-1.01562 0.19531,-0.54688 0.3125,-1.05469 0.15625,-0.58594 0.23438,-1.21094 0.0391,-0.54687 0.0391,-1.64062 0.0391,-1.09375 -0.0391,-2.46094 -0.0391,-1.40625 -0.11719,-2.89063 -0.0781,-1.52343 -0.19531,-2.85156 -0.11719,-1.32812 -0.27344,-2.30469 -0.11719,-1.01562 -0.27344,-1.40625 -0.19531,-0.46875 -0.46875,-0.9375 -0.23437,-0.42968 -0.58594,-0.89843 -0.35156,-0.50782 -0.78125,-1.05469 z"
         style="font-style:normal;font-variant:normal;font-weight:normal;font-stretch:normal;font-family:'Lakki Reddy';-inkscape-font-specification:'Lakki Reddy';fill:#ffffff"
         id="path5620"
         inkscape:connector-curvature="0" />
      <path
         d="m -762.19727,-163.66349 q 1.17188,0.11719 1.95313,0.19531 0.82031,0.0781 1.32812,0.11719 0.58594,0.0391 0.9375,0.0391 0.35157,0.0391 0.9375,0 0.50782,-0.0391 1.32813,-0.0781 0.82031,-0.0781 2.07031,-0.23438 -0.27344,0.39063 -0.42969,0.70313 -0.15625,0.27344 -0.27343,0.50781 l -0.23438,0.46875 q -0.0781,0.23438 -0.15625,0.46875 -0.0781,0.19531 -0.15625,0.46875 -0.0391,0.27344 -0.0781,0.58594 l 6.01562,0 -0.54687,3.16406 -5.50782,-0.3125 q -0.19531,1.99219 -0.27343,3.08594 -0.0781,1.09375 -0.15625,1.60156 l -0.0781,0.70313 q -0.11719,1.48437 -0.23437,3.24218 -0.11719,1.71875 -0.0781,3.20313 0.0391,1.48437 0.27344,2.5 0.23437,0.97656 0.82031,0.97656 0.58594,0 1.09375,-0.3125 0.50781,-0.3125 0.85938,-0.74219 0.39062,-0.42968 0.58593,-0.85937 0.19532,-0.46875 0.19532,-0.70313 0,-0.23437 -0.11719,-0.54687 -0.19531,-0.58594 -0.70313,-1.48438 1.13282,0.27344 1.99219,0.54688 0.42969,0.15625 0.78125,0.3125 0.39063,0.15625 0.89844,0.35156 0.42969,0.19531 1.09375,0.46875 0.66406,0.27344 1.5625,0.66406 -0.85938,0.15625 -1.25,0.50782 -0.23438,0.15625 -0.35156,0.35156 -0.27344,0.42969 -0.625,1.17187 -0.35157,0.70313 -1.05469,1.40625 -0.70313,0.70313 -1.91406,1.25 -1.17188,0.54688 -3.16407,0.625 -2.07031,0.0781 -3.16406,-0.70312 -1.05469,-0.78125 -1.5625,-1.79688 -0.46875,-1.05468 -0.54687,-2.07031 -0.0781,-1.01562 -0.11719,-1.36719 -0.0391,-0.35156 0,-1.75781 0.0391,-1.40625 0.11719,-3.08594 0.0781,-1.71875 0.15625,-3.28125 0.0781,-1.60156 0.0781,-2.34375 0,-0.39062 0.0391,-0.82031 0,-0.35156 0,-0.74219 0.0391,-0.42968 0.0391,-0.82031 l -5.66407,-0.0391 -0.23437,-2.22656 5.70312,0.15625 q -0.0781,-0.42969 -0.19531,-0.78125 -0.0781,-0.39063 -0.15625,-0.625 -0.11719,-0.27344 -0.23437,-0.46875 -0.15625,-0.19532 -0.35157,-0.42969 -0.19531,-0.19531 -0.50781,-0.50781 -0.3125,-0.3125 -0.74219,-0.70313 z"
         style="font-style:normal;font-variant:normal;font-weight:normal;font-stretch:normal;font-family:'Lakki Reddy';-inkscape-font-specification:'Lakki Reddy';fill:#ffffff"
         id="path5622"
         inkscape:connector-curvature="0" />
      <path
         d="m -737.58789,-156.55411 q 1.01562,0 2.10937,0.39062 1.09375,0.35156 2.10938,0.9375 1.01562,0.54688 1.83594,1.21094 0.85937,0.625 1.40625,1.21094 0.97656,1.05468 1.32812,2.85156 0.39063,1.75781 0.15625,3.63281 -0.23437,1.83594 -1.09375,3.47656 -0.85937,1.64063 -2.38281,2.42188 -1.09375,0.54687 -2.14844,0.85937 -1.05469,0.3125 -2.03125,0.46875 -0.97656,0.15625 -1.83594,0.15625 -0.85937,0 -1.48437,-0.0391 -1.17188,-0.0781 -2.46094,-0.82031 -1.25,-0.74219 -2.38281,-1.83594 -1.09375,-1.09375 -1.875,-2.38281 -0.78125,-1.32813 -0.9375,-2.5 -0.23438,-1.60156 -0.0781,-3.35938 0.15625,-1.75781 1.13282,-3.24218 1.01562,-1.48438 3.04687,-2.46094 2.07031,-0.97656 5.58594,-0.97656 z m -1.28906,15.15625 q 0.42968,0.0781 1.17187,-0.19532 0.74219,-0.3125 1.44531,-0.97656 0.74219,-0.66406 1.28907,-1.67969 0.58593,-1.05468 0.70312,-2.53906 0.11719,-1.44531 0,-2.65625 -0.0781,-1.21094 -0.35156,-2.10937 -0.27344,-0.9375 -0.625,-1.52344 -0.35156,-0.58594 -0.74219,-0.82031 -0.66406,-0.35157 -1.60156,-0.54688 -0.9375,-0.23437 -1.60156,0.0781 -0.3125,0.15625 -0.78125,0.66406 -0.46875,0.50781 -0.9375,1.28906 -0.46875,0.74219 -0.85938,1.71875 -0.35156,0.97656 -0.50781,2.03125 -0.15625,1.05469 -0.0781,2.26563 0.11719,1.21093 0.50782,2.30468 0.39062,1.05469 1.09375,1.83594 0.74218,0.74219 1.875,0.85938 z"
         style="font-style:normal;font-variant:normal;font-weight:normal;font-stretch:normal;font-family:'Lakki Reddy';-inkscape-font-specification:'Lakki Reddy';fill:#ffffff"
         id="path5624"
         inkscape:connector-curvature="0" />
      <path
         d="m -699.81445,-161.3588 q -0.35157,0.85937 -0.625,1.5625 -0.23438,0.70312 -0.42969,1.25 -0.19531,0.625 -0.35156,1.09375 -0.15625,0.54687 -0.35157,1.25 -0.19531,0.625 -0.50781,1.5625 -0.27344,0.89844 -0.66406,2.14844 -0.3125,-1.875 -1.13281,-2.96875 -0.82032,-1.13282 -1.67969,-1.75782 -1.01563,-0.70312 -2.1875,-1.01562 -2.10938,-0.35156 -3.04688,0.0781 -0.9375,0.42969 -1.25,1.09375 -0.15625,0.27344 -0.35156,0.70313 -0.15625,0.39062 -0.27344,0.82031 -0.0781,0.42969 -0.0391,0.85938 0.0391,0.42968 0.35156,0.70312 0.19532,0.19531 1.01563,0.54688 0.82031,0.3125 1.95312,0.74218 1.17188,0.39063 2.46094,0.85938 1.32813,0.46875 2.5,0.9375 1.17188,0.46875 2.03125,0.9375 0.85938,0.46875 1.13281,0.85937 0.23438,0.39063 0.50782,1.05469 0.3125,0.625 0.42968,1.40625 0.15625,0.74219 0.0781,1.5625 -0.0391,0.78125 -0.42969,1.5625 -0.39062,0.78125 -1.25,1.44531 -0.82031,0.66407 -2.22656,1.09375 -1.64063,0.50782 -3.16406,0.27344 -1.52344,-0.23437 -2.8125,-0.70312 -1.25,-0.46875 -2.1875,-0.89844 -0.9375,-0.46875 -1.32813,-0.39063 -0.42969,0.0781 -0.97656,0.42969 -0.54688,0.35156 -1.05469,0.74219 -0.46875,0.35156 -0.82031,0.66406 -0.35156,0.27344 -0.35156,0.19531 0,-0.0781 0.11718,-0.46875 0.15625,-0.39062 0.3125,-0.9375 0.19532,-0.58593 0.35157,-1.25 0.19531,-0.70312 0.27343,-1.32812 0.0781,-0.50781 0.19532,-1.25 0.0781,-0.66406 0.19531,-1.60156 0.15625,-0.97657 0.35156,-2.34375 0.19531,1.01562 0.54688,1.75781 0.39062,0.74219 0.74218,1.28906 0.42969,0.625 0.82032,1.05469 0.58593,0.54687 1.36718,1.01562 0.82032,0.46875 1.64063,0.82032 0.82031,0.3125 1.5625,0.39062 0.74219,0.0781 1.25,-0.15625 0.50781,-0.23437 0.85937,-0.85937 0.39063,-0.625 0.54688,-1.36719 0.15625,-0.74219 0.11719,-1.40625 -0.0391,-0.70313 -0.35157,-1.13281 -0.23437,-0.27344 -1.09375,-0.70313 -0.82031,-0.42969 -1.99218,-0.9375 -1.13282,-0.50781 -2.42188,-1.05469 -1.25,-0.54687 -2.38281,-1.09375 -1.09375,-0.58593 -1.83594,-1.09375 -0.70312,-0.54687 -0.78125,-0.97656 -0.0781,-0.625 -0.11719,-1.36719 -0.0391,-0.78125 0.0781,-1.52343 0.15625,-0.78125 0.54687,-1.48438 0.42969,-0.70312 1.25,-1.17187 0.54688,-0.3125 1.44532,-0.46875 0.89843,-0.15625 1.99218,-0.15625 1.09375,-0.0391 2.26563,0.0781 1.17187,0.0781 2.22656,0.23438 1.09375,0.11718 1.95313,0.3125 0.89843,0.19531 1.36718,0.35156 0.54688,0.19531 1.17188,0.0391 0.54687,-0.11719 1.17187,-0.50781 0.625,-0.39063 1.28907,-1.40625 z"
         style="font-style:normal;font-variant:normal;font-weight:normal;font-stretch:normal;font-family:'Lakki Reddy';-inkscape-font-specification:'Lakki Reddy';fill:#ffffff"
         id="path5626"
         inkscape:connector-curvature="0" />
      <path
         d="m -698.83789,-163.66349 q 1.17187,0.11719 1.95312,0.19531 0.82032,0.0781 1.32813,0.11719 0.58594,0.0391 0.9375,0.0391 0.35156,0.0391 0.9375,0 0.50781,-0.0391 1.32812,-0.0781 0.82032,-0.0781 2.07032,-0.23438 -0.27344,0.39063 -0.42969,0.70313 -0.15625,0.27344 -0.27344,0.50781 l -0.23437,0.46875 q -0.0781,0.23438 -0.15625,0.46875 -0.0781,0.19531 -0.15625,0.46875 -0.0391,0.27344 -0.0781,0.58594 l 6.01563,0 -0.54688,3.16406 -5.50781,-0.3125 q -0.19531,1.99219 -0.27344,3.08594 -0.0781,1.09375 -0.15625,1.60156 l -0.0781,0.70313 q -0.11719,1.48437 -0.23438,3.24218 -0.11719,1.71875 -0.0781,3.20313 0.0391,1.48437 0.27343,2.5 0.23438,0.97656 0.82032,0.97656 0.58593,0 1.09375,-0.3125 0.50781,-0.3125 0.85937,-0.74219 0.39063,-0.42968 0.58594,-0.85937 0.19531,-0.46875 0.19531,-0.70313 0,-0.23437 -0.11719,-0.54687 -0.19531,-0.58594 -0.70312,-1.48438 1.13281,0.27344 1.99219,0.54688 0.42968,0.15625 0.78125,0.3125 0.39062,0.15625 0.89843,0.35156 0.42969,0.19531 1.09375,0.46875 0.66407,0.27344 1.5625,0.66406 -0.85937,0.15625 -1.25,0.50782 -0.23437,0.15625 -0.35156,0.35156 -0.27344,0.42969 -0.625,1.17187 -0.35156,0.70313 -1.05469,1.40625 -0.70312,0.70313 -1.91406,1.25 -1.17187,0.54688 -3.16406,0.625 -2.07031,0.0781 -3.16406,-0.70312 -1.05469,-0.78125 -1.5625,-1.79688 -0.46875,-1.05468 -0.54688,-2.07031 -0.0781,-1.01562 -0.11719,-1.36719 -0.0391,-0.35156 0,-1.75781 0.0391,-1.40625 0.11719,-3.08594 0.0781,-1.71875 0.15625,-3.28125 0.0781,-1.60156 0.0781,-2.34375 0,-0.39062 0.0391,-0.82031 0,-0.35156 0,-0.74219 0.0391,-0.42968 0.0391,-0.82031 l -5.66406,-0.0391 -0.23438,-2.22656 5.70313,0.15625 q -0.0781,-0.42969 -0.19531,-0.78125 -0.0781,-0.39063 -0.15625,-0.625 -0.11719,-0.27344 -0.23438,-0.46875 -0.15625,-0.19532 -0.35156,-0.42969 -0.19531,-0.19531 -0.50781,-0.50781 -0.3125,-0.3125 -0.74219,-0.70313 z"
         style="font-style:normal;font-variant:normal;font-weight:normal;font-stretch:normal;font-family:'Lakki Reddy';-inkscape-font-specification:'Lakki Reddy';fill:#ffffff"
         id="path5628"
         inkscape:connector-curvature="0" />
      <path
         d="m -681.76758,-154.87443 q 0.19531,-0.23437 0.23438,-0.85937 0.0781,-0.66406 0.3125,-1.48438 0.27343,-0.82031 0.89843,-1.71875 0.625,-0.89843 2.03125,-1.67968 1.36719,-0.78125 2.65625,-0.9375 1.28907,-0.15625 2.46094,0.11718 1.17188,0.27344 2.1875,0.85938 1.05469,0.58594 1.91406,1.28906 0.58594,0.46875 0.9375,1.36719 0.35157,0.85937 0.54688,1.95312 0.19531,1.09375 0.27344,2.30469 0.11718,1.17188 0.15625,2.30469 0.0391,1.09375 0.0391,2.03125 0.0391,0.89844 0.15625,1.48437 0.15625,0.85938 0.54687,1.48438 0.39063,0.58594 0.85938,1.01562 0.46875,0.39063 0.9375,0.625 0.46875,0.23438 0.82031,0.35157 0.23438,0.11718 0.42969,0.15625 0.39062,0.15625 0.54687,0 -0.23437,0.54687 -0.42968,0.9375 -0.19532,0.39062 -0.3125,0.66406 -0.15625,0.3125 -0.27344,0.50781 -0.11719,0.23438 -0.27344,0.42969 -0.11719,0.19531 -0.3125,0.42969 -0.19531,0.23437 -0.39062,0.50781 -0.50782,-0.19531 -0.97657,-0.46875 -0.42968,-0.27344 -0.78125,-0.50781 -0.42968,-0.27344 -0.78125,-0.54688 -0.35156,-0.27344 -0.66406,-0.625 -0.27344,-0.3125 -0.58594,-0.66406 -0.27343,-0.35156 -0.46875,-0.78125 -0.23437,0.50781 -1.13281,1.44531 -0.85937,0.9375 -2.26562,1.71875 -1.40625,0.74219 -3.28125,1.05469 -1.83594,0.3125 -4.0625,-0.42969 -0.97657,-0.3125 -1.83594,-0.89844 -0.85938,-0.625 -1.48438,-1.48437 -0.58593,-0.85938 -0.85937,-1.95313 -0.23438,-1.13281 0.0391,-2.5 0.27344,-1.36718 0.97656,-2.30468 0.70313,-0.9375 1.67969,-1.52344 0.97656,-0.58594 2.1875,-0.89844 1.21094,-0.3125 2.5,-0.42969 1.01563,-0.0391 2.03125,0.11719 0.85938,0.15625 1.79688,0.58594 0.9375,0.39062 1.60156,1.21094 -0.0391,-2.07032 -0.15625,-3.28125 -0.0781,-1.25 -0.15625,-1.91407 -0.15625,-0.78125 -0.27344,-1.09375 -0.19531,-0.27343 -0.42969,-0.625 -0.19531,-0.35156 -0.50781,-0.625 -0.3125,-0.3125 -0.78125,-0.50781 -0.46875,-0.19531 -1.09375,-0.15625 -0.66406,0.0391 -1.05469,0.35156 -0.39062,0.3125 -0.625,0.74219 -0.19531,0.39063 -0.23437,0.85938 -0.0391,0.46875 0.0391,0.82031 0.0781,0.23437 0.23438,0.50781 0.15625,0.23438 0.42968,0.50781 0.27344,0.27344 0.74219,0.46875 -0.89844,0.11719 -1.60156,0.19532 -0.70313,0.0391 -1.21094,0.11718 -0.58594,0.0781 -1.01562,0.11719 -0.42969,0.0391 -1.01563,0.15625 -0.50781,0.0781 -1.25,0.19531 -0.74219,0.11719 -1.71875,0.3125 0.23438,-0.27343 0.42969,-0.50781 0.19531,-0.27344 0.35156,-0.46875 0.15625,-0.23437 0.3125,-0.42969 z m 5.85938,4.64844 q -0.70313,0.0391 -1.40625,0.35156 -0.70313,0.27344 -1.25,0.82032 -0.54688,0.50781 -0.9375,1.21093 -0.35157,0.66407 -0.35157,1.48438 0,0.82031 0.39063,1.44531 0.42969,0.58594 1.09375,0.97656 0.70312,0.39063 1.48437,0.46875 0.82032,0.0781 1.60157,-0.15625 0.74218,-0.27343 1.40625,-0.85937 0.66406,-0.625 1.13281,-1.32813 0.46875,-0.74218 0.66406,-1.44531 0.19531,-0.74219 0.0391,-1.21094 -0.3125,-1.01562 -1.40625,-1.40625 -1.09375,-0.42968 -2.46093,-0.35156 z"
         style="font-style:normal;font-variant:normal;font-weight:normal;font-stretch:normal;font-family:'Lakki Reddy';-inkscape-font-specification:'Lakki Reddy';fill:#ffffff"
         id="path5630"
         inkscape:connector-curvature="0" />
      <path
         d="m -663.60352,-157.76505 q 0.74219,0.0391 1.32813,0.0391 0.625,-0.0391 1.05469,-0.0781 0.50781,-0.0391 0.89843,-0.0781 0.58594,-0.0781 1.21094,-0.19531 0.54688,-0.0781 1.13281,-0.19531 0.625,-0.15625 1.21094,-0.35157 -0.23437,0.58594 -0.39062,1.01563 -0.15625,0.42969 -0.23438,0.74219 -0.11719,0.35156 -0.11719,0.58593 -0.0391,0.27344 -0.0391,0.66407 -0.0391,0.66406 0,2.14843 2.03125,-1.75781 3.39844,-2.73437 1.40625,-0.97656 2.22656,-1.52344 0.97656,-0.625 1.52344,-0.82031 1.44531,-0.23438 2.53906,0.66406 0.46875,0.39063 0.89844,1.05469 0.42969,0.625 0.74219,1.67969 0.3125,1.05468 0.46875,2.53906 0.15625,1.44531 0.0391,3.47656 -0.82031,0.0781 -1.48438,0.15625 -0.625,0.0781 -1.05468,0.11719 -0.50782,0.0781 -0.9375,0.0781 l -1.05469,0.11719 q -0.54688,0.0781 -1.36719,0.15625 -0.78125,0.0391 -1.91406,0.15625 1.64062,-1.32812 2.10937,-2.30469 0.50782,-1.01562 0.42969,-1.67968 -0.0781,-0.74219 -0.70312,-1.28907 -0.74219,-0.42968 -1.60157,-0.3125 -0.74218,0.0781 -1.71875,0.66407 -0.97656,0.58593 -2.07031,2.1875 0.0781,2.5 0.15625,4.14062 0.11719,1.64063 0.19531,2.65625 0.11719,1.17188 0.19532,1.83594 0.11718,0.58594 0.46875,1.25 0.27343,0.54687 0.78125,1.21094 0.50781,0.66406 1.32812,1.32812 -1.71875,-0.0781 -2.8125,0 -0.66406,0.0391 -1.17187,0.0781 -0.54688,0.0781 -1.17188,0.15625 -0.54687,0.0781 -1.28906,0.15625 -0.70313,0.11718 -1.5625,0.23437 0.3125,-0.42969 0.50781,-1.01562 0.19531,-0.54688 0.3125,-1.05469 0.15625,-0.58594 0.23438,-1.21094 0.0391,-0.54687 0.0391,-1.64062 0.0391,-1.09375 -0.0391,-2.46094 -0.0391,-1.40625 -0.11719,-2.89063 -0.0781,-1.52343 -0.19531,-2.85156 -0.11719,-1.32812 -0.27344,-2.30469 -0.11719,-1.01562 -0.27344,-1.40625 -0.19531,-0.46875 -0.46875,-0.9375 -0.23437,-0.42968 -0.58594,-0.89843 -0.35156,-0.50782 -0.78125,-1.05469 z"
         style="font-style:normal;font-variant:normal;font-weight:normal;font-stretch:normal;font-family:'Lakki Reddy';-inkscape-font-specification:'Lakki Reddy';fill:#ffffff"
         id="path5632"
         inkscape:connector-curvature="0" />
      <path
         d="m -644.54102,-163.66349 q 1.17188,0.11719 1.95313,0.19531 0.82031,0.0781 1.32812,0.11719 0.58594,0.0391 0.9375,0.0391 0.35157,0.0391 0.9375,0 0.50782,-0.0391 1.32813,-0.0781 0.82031,-0.0781 2.07031,-0.23438 -0.27344,0.39063 -0.42969,0.70313 -0.15625,0.27344 -0.27343,0.50781 l -0.23438,0.46875 q -0.0781,0.23438 -0.15625,0.46875 -0.0781,0.19531 -0.15625,0.46875 -0.0391,0.27344 -0.0781,0.58594 l 6.01562,0 -0.54687,3.16406 -5.50782,-0.3125 q -0.19531,1.99219 -0.27343,3.08594 -0.0781,1.09375 -0.15625,1.60156 l -0.0781,0.70313 q -0.11719,1.48437 -0.23437,3.24218 -0.11719,1.71875 -0.0781,3.20313 0.0391,1.48437 0.27344,2.5 0.23437,0.97656 0.82031,0.97656 0.58594,0 1.09375,-0.3125 0.50781,-0.3125 0.85938,-0.74219 0.39062,-0.42968 0.58593,-0.85937 0.19532,-0.46875 0.19532,-0.70313 0,-0.23437 -0.11719,-0.54687 -0.19531,-0.58594 -0.70313,-1.48438 1.13282,0.27344 1.99219,0.54688 0.42969,0.15625 0.78125,0.3125 0.39063,0.15625 0.89844,0.35156 0.42969,0.19531 1.09375,0.46875 0.66406,0.27344 1.5625,0.66406 -0.85938,0.15625 -1.25,0.50782 -0.23438,0.15625 -0.35156,0.35156 -0.27344,0.42969 -0.625,1.17187 -0.35157,0.70313 -1.05469,1.40625 -0.70313,0.70313 -1.91406,1.25 -1.17188,0.54688 -3.16407,0.625 -2.07031,0.0781 -3.16406,-0.70312 -1.05469,-0.78125 -1.5625,-1.79688 -0.46875,-1.05468 -0.54687,-2.07031 -0.0781,-1.01562 -0.11719,-1.36719 -0.0391,-0.35156 0,-1.75781 0.0391,-1.40625 0.11719,-3.08594 0.0781,-1.71875 0.15625,-3.28125 0.0781,-1.60156 0.0781,-2.34375 0,-0.39062 0.0391,-0.82031 0,-0.35156 0,-0.74219 0.0391,-0.42968 0.0391,-0.82031 l -5.66407,-0.0391 -0.23437,-2.22656 5.70312,0.15625 q -0.0781,-0.42969 -0.19531,-0.78125 -0.0781,-0.39063 -0.15625,-0.625 -0.11719,-0.27344 -0.23437,-0.46875 -0.15625,-0.19532 -0.35157,-0.42969 -0.19531,-0.19531 -0.50781,-0.50781 -0.3125,-0.3125 -0.74219,-0.70313 z"
         style="font-style:normal;font-variant:normal;font-weight:normal;font-stretch:normal;font-family:'Lakki Reddy';-inkscape-font-specification:'Lakki Reddy';fill:#ffffff"
         id="path5634"
         inkscape:connector-curvature="0" />
      <path
         d="m -621.88477,-157.25724 q 1.25,-0.19531 2.03125,-0.3125 0.82032,-0.15625 1.32813,-0.23437 0.58594,-0.11719 0.89844,-0.19532 0.3125,-0.0781 0.89843,-0.23437 0.50782,-0.15625 1.32813,-0.35156 0.82031,-0.23438 2.07031,-0.625 -0.3125,0.39062 -0.50781,0.70312 -0.15625,0.27344 -0.3125,0.46875 -0.15625,0.23438 -0.27344,0.42969 -0.11719,0.19531 -0.23437,0.58594 -0.0781,0.3125 -0.19532,0.89843 -0.11718,0.54688 -0.19531,1.44532 2.10938,-1.32813 3.86719,-1.99219 1.79687,-0.66406 3.125,-0.9375 1.5625,-0.3125 2.8125,-0.23438 1.5625,0.11719 2.89062,0.70313 1.36719,0.54687 2.46094,1.32812 1.09375,0.78125 1.91406,1.71875 0.82032,0.9375 1.28907,1.875 0.3125,0.625 0.39062,1.79688 0.11719,1.17187 -0.23437,2.5 -0.35157,1.32812 -1.25,2.61719 -0.85938,1.25 -2.46094,1.99218 -2.77344,1.25 -5.50781,1.40625 -1.17188,0.0781 -2.42188,-0.0781 -1.21094,-0.15625 -2.46094,-0.66406 -1.21093,-0.50782 -2.34375,-1.44532 -1.13281,-0.97656 -2.07031,-2.5 -0.3125,1.99219 -0.46875,3.47657 -0.11719,1.44531 -0.15625,2.42187 -0.0391,1.13281 0,1.91406 0.0781,0.78125 0.3125,1.67969 0.19531,0.78125 0.54688,1.79688 0.39062,1.05468 0.97656,2.1875 -0.23438,-0.0781 -0.66406,-0.11719 -0.39063,0 -0.82032,0.0781 -0.46875,0.0781 -1.05468,0.15625 -0.54688,0.11719 -1.21094,0.27344 -0.54688,0.11719 -1.28906,0.27344 -0.70313,0.19531 -1.44532,0.42969 0.42969,-0.50782 0.66407,-1.17188 0.27343,-0.625 0.42968,-1.17187 0.15625,-0.66407 0.27344,-1.32813 0.0391,-0.58594 0.11719,-2.22656 0.11719,-1.60156 0.19531,-3.71094 0.0781,-2.14844 0.11719,-4.49219 0.0781,-2.34375 0.0781,-4.33593 0.0391,-2.03125 0,-3.4375 -0.0391,-1.40625 -0.15625,-1.64063 -0.15625,-0.27344 -0.58593,-0.58594 -0.35157,-0.27343 -1.01563,-0.54687 -0.625,-0.27344 -1.67969,-0.58594 z m 9.29688,7.10938 q -0.27344,0.89843 -0.11719,1.75781 0.15625,0.85937 0.78125,1.60156 0.66406,0.74219 1.83594,1.32813 1.21094,0.54687 3.00781,0.82031 1.79688,0.27344 2.73438,-0.0781 0.9375,-0.35156 1.36718,-1.09375 0.46875,-0.78125 0.625,-1.79687 0.15625,-1.05469 0.39063,-2.1875 0.23437,-1.09375 -0.0781,-2.22656 -0.3125,-1.17188 -0.89843,-2.10938 -0.54688,-0.9375 -1.25,-1.52344 -0.66407,-0.625 -1.17188,-0.625 -1.21094,0 -2.38281,0.625 -1.17188,0.625 -2.14844,1.5625 -0.97656,0.9375 -1.71875,2.03125 -0.70312,1.05469 -0.97656,1.91407 z"
         style="font-style:normal;font-variant:normal;font-weight:normal;font-stretch:normal;font-family:'Lakki Reddy';-inkscape-font-specification:'Lakki Reddy';fill:#ffffff"
         id="path5636"
         inkscape:connector-curvature="0" />
      <path
         d="m -593.79883,-137.96036 q 0.39063,-0.58594 0.625,-1.09375 0.23438,-0.50782 0.39063,-0.85938 0.15625,-0.42969 0.23437,-0.78125 0.0391,-0.23437 0.0391,-1.36719 0,-1.13281 -0.0781,-2.85156 -0.0391,-1.71875 -0.11719,-3.86719 -0.0391,-2.14843 -0.15625,-4.375 -0.0781,-2.22656 -0.19531,-4.33593 -0.0781,-2.10938 -0.15625,-3.78907 -0.0781,-1.71875 -0.15625,-2.8125 -0.0781,-1.09375 -0.11719,-1.25 -0.0781,-0.23437 -0.27344,-0.46875 -0.39062,-0.46875 -1.32812,-0.89843 1.99219,-0.50782 3.04687,-0.82032 0.625,-0.15625 1.09375,-0.3125 0.42969,-0.15625 0.85938,-0.3125 0.35156,-0.15625 0.78125,-0.35156 0.42969,-0.23437 0.78125,-0.50781 -0.19531,1.13281 -0.3125,2.1875 -0.11719,1.05469 -0.19531,1.95312 -0.0781,1.01563 -0.0781,1.95313 -0.19531,1.91406 -0.23437,4.17969 0,2.22656 0.0391,4.53125 0.0391,2.30468 0.15625,4.49218 0.11719,2.1875 0.23437,3.98438 0.15625,1.75781 0.27344,3.00781 0.15625,1.21094 0.23438,1.5625 0.15625,0.58594 0.3125,1.13281 0.15625,0.46875 0.35156,0.97657 0.19531,0.54687 0.46875,0.85937 l -3.78906,0 q -0.50782,0 -0.97657,0.0391 -0.42968,0.0391 -0.89843,0.0781 -0.46875,0.0391 -0.85938,0.11719 z"
         style="font-style:normal;font-variant:normal;font-weight:normal;font-stretch:normal;font-family:'Lakki Reddy';-inkscape-font-specification:'Lakki Reddy';fill:#ffffff"
         id="path5638"
         inkscape:connector-curvature="0" />
      <path
         d="m -582.93945,-154.87443 q 0.19531,-0.23437 0.23437,-0.85937 0.0781,-0.66406 0.3125,-1.48438 0.27344,-0.82031 0.89844,-1.71875 0.625,-0.89843 2.03125,-1.67968 1.36719,-0.78125 2.65625,-0.9375 1.28906,-0.15625 2.46094,0.11718 1.17187,0.27344 2.1875,0.85938 1.05468,0.58594 1.91406,1.28906 0.58594,0.46875 0.9375,1.36719 0.35156,0.85937 0.54687,1.95312 0.19532,1.09375 0.27344,2.30469 0.11719,1.17188 0.15625,2.30469 0.0391,1.09375 0.0391,2.03125 0.0391,0.89844 0.15625,1.48437 0.15625,0.85938 0.54688,1.48438 0.39062,0.58594 0.85937,1.01562 0.46875,0.39063 0.9375,0.625 0.46875,0.23438 0.82032,0.35157 0.23437,0.11718 0.42968,0.15625 0.39063,0.15625 0.54688,0 -0.23438,0.54687 -0.42969,0.9375 -0.19531,0.39062 -0.3125,0.66406 -0.15625,0.3125 -0.27344,0.50781 -0.11718,0.23438 -0.27343,0.42969 -0.11719,0.19531 -0.3125,0.42969 -0.19532,0.23437 -0.39063,0.50781 -0.50781,-0.19531 -0.97656,-0.46875 -0.42969,-0.27344 -0.78125,-0.50781 -0.42969,-0.27344 -0.78125,-0.54688 -0.35156,-0.27344 -0.66406,-0.625 -0.27344,-0.3125 -0.58594,-0.66406 -0.27344,-0.35156 -0.46875,-0.78125 -0.23438,0.50781 -1.13281,1.44531 -0.85938,0.9375 -2.26563,1.71875 -1.40625,0.74219 -3.28125,1.05469 -1.83594,0.3125 -4.0625,-0.42969 -0.97656,-0.3125 -1.83594,-0.89844 -0.85937,-0.625 -1.48437,-1.48437 -0.58594,-0.85938 -0.85938,-1.95313 -0.23437,-1.13281 0.0391,-2.5 0.27343,-1.36718 0.97656,-2.30468 0.70312,-0.9375 1.67969,-1.52344 0.97656,-0.58594 2.1875,-0.89844 1.21093,-0.3125 2.5,-0.42969 1.01562,-0.0391 2.03125,0.11719 0.85937,0.15625 1.79687,0.58594 0.9375,0.39062 1.60156,1.21094 -0.0391,-2.07032 -0.15625,-3.28125 -0.0781,-1.25 -0.15625,-1.91407 -0.15625,-0.78125 -0.27343,-1.09375 -0.19532,-0.27343 -0.42969,-0.625 -0.19531,-0.35156 -0.50781,-0.625 -0.3125,-0.3125 -0.78125,-0.50781 -0.46875,-0.19531 -1.09375,-0.15625 -0.66407,0.0391 -1.05469,0.35156 -0.39063,0.3125 -0.625,0.74219 -0.19531,0.39063 -0.23438,0.85938 -0.0391,0.46875 0.0391,0.82031 0.0781,0.23437 0.23437,0.50781 0.15625,0.23438 0.42969,0.50781 0.27344,0.27344 0.74219,0.46875 -0.89844,0.11719 -1.60157,0.19532 -0.70312,0.0391 -1.21093,0.11718 -0.58594,0.0781 -1.01563,0.11719 -0.42969,0.0391 -1.01562,0.15625 -0.50782,0.0781 -1.25,0.19531 -0.74219,0.11719 -1.71875,0.3125 0.23437,-0.27343 0.42968,-0.50781 0.19532,-0.27344 0.35157,-0.46875 0.15625,-0.23437 0.3125,-0.42969 z m 5.85937,4.64844 q -0.70312,0.0391 -1.40625,0.35156 -0.70312,0.27344 -1.25,0.82032 -0.54687,0.50781 -0.9375,1.21093 -0.35156,0.66407 -0.35156,1.48438 0,0.82031 0.39062,1.44531 0.42969,0.58594 1.09375,0.97656 0.70313,0.39063 1.48438,0.46875 0.82031,0.0781 1.60156,-0.15625 0.74219,-0.27343 1.40625,-0.85937 0.66406,-0.625 1.13281,-1.32813 0.46875,-0.74218 0.66407,-1.44531 0.19531,-0.74219 0.0391,-1.21094 -0.3125,-1.01562 -1.40625,-1.40625 -1.09375,-0.42968 -2.46094,-0.35156 z"
         style="font-style:normal;font-variant:normal;font-weight:normal;font-stretch:normal;font-family:'Lakki Reddy';-inkscape-font-specification:'Lakki Reddy';fill:#ffffff"
         id="path5640"
         inkscape:connector-curvature="0" />
      <path
         d="m -566.37695,-159.01505 q 0.78125,0.11719 1.40625,0.19531 0.58593,0.0391 1.05468,0.0781 0.50782,0.0391 0.97657,0.0391 0.42968,0 1.09375,-0.0391 0.54687,-0.0391 1.40625,-0.0781 0.89843,-0.0781 2.10937,-0.19531 -0.0781,0.15625 -0.3125,0.97656 -0.23437,0.78125 -0.46875,1.95313 -0.23437,1.13281 -0.42969,2.53906 -0.15625,1.36719 -0.15625,2.73437 0.0391,1.32813 0.35157,2.53907 0.3125,1.17187 1.01562,1.91406 1.48438,1.52344 2.61719,1.83594 1.17187,0.3125 2.03125,-0.0781 0.85937,-0.39062 1.40625,-1.17187 0.54687,-0.78125 0.78125,-1.44532 0.58594,-1.79687 0.70312,-3.78906 0.0781,-1.71875 -0.27343,-3.82812 -0.35157,-2.10938 -1.67969,-4.29688 1.01562,0.0781 1.75781,0.11719 0.74219,0.0391 1.28906,0.0781 0.625,0.0391 1.09375,0.0781 0.42969,0.0391 1.01563,0 0.50781,0 1.21094,-0.0391 0.74218,-0.0781 1.64062,-0.15625 0.15625,3.82812 0.27344,6.83593 0.11719,2.96875 0.15625,5.27344 0.0781,2.26563 0.0781,3.94531 0,1.64063 0,2.77344 -0.0391,2.69531 -0.23437,3.55469 -0.3125,1.21094 -1.13281,2.42187 -0.78125,1.21094 -1.99219,2.14844 -1.21094,0.97656 -2.8125,1.48438 -1.5625,0.54687 -3.4375,0.39062 -1.83594,-0.15625 -2.92969,-0.50781 -1.05469,-0.3125 -1.67969,-0.74219 -0.58593,-0.42969 -0.85937,-0.89844 -0.23438,-0.46875 -0.35156,-0.97656 -0.11719,-0.46875 -0.23438,-0.89844 -0.11719,-0.42968 -0.46875,-0.74218 -0.42969,-0.35157 -0.89844,-0.70313 -0.42968,-0.3125 -0.9375,-0.625 -0.46875,-0.3125 -0.9375,-0.50781 l 8.32032,-0.46875 q -0.35157,0.46875 -0.50782,0.85937 -0.15625,0.39063 -0.19531,0.66407 -0.0391,0.35156 0.0391,0.58593 0.15625,0.46875 0.54688,1.01563 0.42969,0.58594 1.09375,0.89844 0.66406,0.35156 1.5625,0.23437 0.9375,-0.11719 2.10937,-0.97656 0.97657,-0.74219 1.64063,-2.38281 0.54687,-1.40625 0.85937,-3.94532 0.3125,-2.53906 -0.11718,-6.67968 -0.70313,2.42187 -1.91407,3.71093 -1.21093,1.28907 -2.42187,1.875 -1.40625,0.70313 -2.92969,0.74219 -2.03125,-0.0781 -3.47656,-0.50781 -1.44531,-0.46875 -2.38281,-1.25 -0.9375,-0.78125 -1.48438,-1.83594 -0.50781,-1.09375 -0.74219,-2.42187 -0.23437,-1.32813 -0.23437,-2.65625 0,-1.36719 0,-2.53907 0.0391,-1.17187 0.0391,-2.10937 0,-0.97656 -0.19531,-1.5625 -0.23438,-0.58594 -0.625,-1.17188 -0.3125,-0.50781 -0.85938,-1.09375 -0.58593,-0.625 -1.36718,-1.17187 z"
         style="font-style:normal;font-variant:normal;font-weight:normal;font-stretch:normal;font-family:'Lakki Reddy';-inkscape-font-specification:'Lakki Reddy';fill:#ffffff"
         id="path5642"
         inkscape:connector-curvature="0" />
      <path
         d="m -541.57227,-156.51505 7.1875,0.0781 q -0.625,2.38282 -0.9375,4.0625 -0.27343,1.67969 -0.35156,2.8125 -0.15625,1.28907 -0.0781,2.1875 0.11718,0.82032 0.39062,1.75782 0.23438,0.78125 0.70313,1.79687 0.46875,1.01563 1.25,2.03125 -0.46875,-0.15625 -1.01563,-0.23437 -0.54687,-0.0781 -1.01562,-0.11719 -0.54688,-0.0391 -1.09375,0 -0.54688,0.0391 -1.21094,0.11719 -0.54688,0.0781 -1.32813,0.19531 -0.78125,0.11719 -1.64062,0.3125 0.58594,-1.75781 0.89844,-3.04688 0.35156,-1.28906 0.50781,-2.14843 0.15625,-1.01563 0.19531,-1.64063 0,-0.78125 0,-1.75781 0,-1.01563 0,-1.95313 0,-0.9375 -0.0391,-1.64062 -0.0391,-0.74219 -0.15625,-0.9375 l -0.39063,-0.39063 q -0.23437,-0.19531 -0.70312,-0.54687 -0.42969,-0.39063 -1.17188,-0.9375 z m 2.77344,-6.01563 q 0.82031,-0.42968 1.64063,-0.23437 0.85937,0.19531 1.32812,0.74219 0.46875,0.54687 0.3125,1.28906 -0.11719,0.74219 -1.25,1.44531 -1.13281,0.66406 -1.99219,0.46875 -0.85937,-0.19531 -1.21093,-0.82031 -0.35157,-0.625 -0.11719,-1.44531 0.23437,-0.85938 1.28906,-1.44532 z"
         style="font-style:normal;font-variant:normal;font-weight:normal;font-stretch:normal;font-family:'Lakki Reddy';-inkscape-font-specification:'Lakki Reddy';fill:#ffffff"
         id="path5644"
         inkscape:connector-curvature="0" />
      <path
         d="m -530.75195,-143.35099 q 0.27343,-1.28906 0.39062,-2.26562 0.15625,-1.01563 0.23438,-1.67969 0.0781,-0.78125 0.0781,-1.32813 -0.0391,-0.66406 -0.0781,-1.5625 0,-0.9375 -0.0781,-1.83593 -0.0391,-0.9375 -0.11719,-1.64063 -0.0781,-0.74219 -0.19531,-1.05469 -0.15625,-0.3125 -0.42969,-0.66406 -0.54687,-0.66406 -1.60156,-1.28906 0.89844,-0.19531 1.52344,-0.3125 0.66406,-0.15625 1.09375,-0.27344 0.46875,-0.15625 0.82031,-0.27344 0.3125,-0.11718 0.74219,-0.23437 0.35156,-0.0781 0.85937,-0.19531 0.50782,-0.11719 1.17188,-0.27344 l -0.11719,3.55469 q 1.25,-1.48438 2.53906,-2.22657 1.28907,-0.74218 2.42188,-1.05468 1.28906,-0.39063 2.53906,-0.39063 1.5625,0.0781 2.89063,0.50781 1.36718,0.42969 2.34375,1.01563 1.01562,0.54687 1.64062,1.17187 0.625,0.625 0.74219,1.09375 0.46875,1.52344 0.23437,2.8125 -0.23437,1.25 -0.625,2.46094 -0.35156,1.17188 -0.625,2.34375 -0.23437,1.17188 0.19532,2.53906 0.15625,0.35157 0.3125,0.70313 0.15625,0.3125 0.39062,0.625 0.23438,0.3125 0.54688,0.50781 -0.42969,-0.0391 -0.85938,-0.0391 -0.42969,-0.0391 -0.78125,-0.0781 -0.42969,-0.0391 -0.78125,-0.0781 -0.39062,-0.0391 -1.05469,-0.0391 -1.13281,0 -3.51562,0.11718 0.35156,-0.82031 0.54687,-1.36718 0.23438,-0.58594 0.39063,-0.9375 0.15625,-0.42969 0.23437,-0.66407 0.46875,-1.13281 0.54688,-2.57812 0.11719,-1.44531 -0.19531,-2.92969 -0.11719,-0.50781 -0.39063,-1.21094 -0.27344,-0.70312 -0.74219,-1.36718 -0.42968,-0.66407 -1.05468,-1.13282 -0.58594,-0.46875 -1.36719,-0.54687 -0.78125,-0.0781 -1.75781,0.39062 -0.9375,0.46875 -2.03125,1.71875 -0.82032,1.05469 -1.28907,2.57813 -0.42968,1.28906 -0.58593,3.24219 -0.15625,1.91406 0.46875,4.49218 -0.54688,-0.0781 -1.01563,-0.0781 -0.46875,-0.0391 -0.78125,-0.0781 -0.39062,-0.0391 -0.70312,-0.0781 -0.35157,0 -0.78125,-0.0391 -0.39063,0 -0.97657,0 -0.58593,-0.0391 -1.36718,-0.0781 z"
         style="font-style:normal;font-variant:normal;font-weight:normal;font-stretch:normal;font-family:'Lakki Reddy';-inkscape-font-specification:'Lakki Reddy';fill:#ffffff"
         id="path5646"
         inkscape:connector-curvature="0" />
      <path
         d="m -490.08789,-155.61661 q -0.11719,-0.78125 -0.19531,-1.28907 -0.0781,-0.54687 -0.15625,-0.85937 -0.0781,-0.39063 -0.11719,-0.58594 -0.0781,-0.19531 -0.19531,-0.42969 -0.0781,-0.19531 -0.27344,-0.46875 -0.15625,-0.27343 -0.39063,-0.625 0.50782,0.15625 1.01563,0.19532 0.54687,0.0391 1.01562,0.0781 0.50782,0.0391 1.05469,0 0.54688,0 1.25,-0.0391 0.625,-0.0391 1.48438,-0.0391 0.89843,-0.0391 2.03125,-0.11719 -0.66407,0.15625 -1.13282,0.54687 -0.42968,0.35157 -0.74218,0.78125 -0.35157,0.46875 -0.58594,1.01563 -0.19531,0.50781 -0.23438,1.95312 -0.0391,1.40625 0,3.35938 0.0391,1.91406 0.0781,4.14062 0.0781,2.22657 0.0781,4.25782 0.0391,2.03125 0,3.71093 -0.0391,1.64063 -0.19531,2.42188 -0.54687,2.46094 -2.03125,3.98437 -1.48437,1.5625 -3.90625,1.67969 -2.92969,0.11719 -4.64844,-0.54687 -1.67968,-0.66407 -2.61718,-1.64063 -0.9375,-0.9375 -1.40625,-1.91406 -0.46875,-0.97656 -0.97657,-1.48438 -0.46875,-0.42968 -0.9375,-0.82031 -0.42968,-0.3125 -0.89843,-0.625 -0.42969,-0.3125 -0.85938,-0.39062 1.13281,0.0391 2.03125,0.0391 0.89844,0 1.52344,0 0.70312,0 1.25,-0.0391 l 1.25,0 3.55469,0 q -0.78125,0.23437 -1.17188,0.50781 -0.39062,0.3125 -0.54687,0.625 -0.15625,0.35156 -0.15625,0.70312 0.15625,0.9375 1.01562,1.36719 0.85938,0.42969 2.34375,0.50781 1.44531,0.0781 1.99219,-0.0781 0.54687,-0.11719 0.85937,-0.46875 0.625,-0.9375 1.05469,-2.42188 0.3125,-1.25 0.42969,-3.24218 0.15625,-2.03125 -0.35156,-4.96094 -1.25,1.71875 -2.89063,2.57812 -1.64062,0.85938 -3.125,1.25 -1.75781,0.42969 -3.55469,0.42969 -4.72656,-0.19531 -7.07031,-2.1875 -2.34375,-1.99219 -2.14844,-5.35156 0.11719,-1.67969 1.01563,-3.35938 0.9375,-1.67968 2.42187,-3.00781 1.52344,-1.32812 3.47657,-2.10937 1.95312,-0.78125 4.0625,-0.66407 1.60156,0.15625 3.00781,0.58594 1.21094,0.39063 2.38281,1.09375 1.21094,0.70313 1.83594,1.95313 z m -12.42188,3.90625 q -0.23437,1.52343 0.19532,2.85156 0.46875,1.32812 1.28906,2.30469 0.82031,0.9375 1.83594,1.48437 1.01562,0.50781 1.91406,0.46875 1.875,-0.0391 3.24219,-1.67969 1.36718,-1.67968 1.64062,-5 0.11719,-1.64062 -0.42969,-2.8125 -0.50781,-1.21093 -1.28906,-1.95312 -0.78125,-0.74219 -1.64062,-1.05469 -0.85938,-0.3125 -1.36719,-0.27344 -0.70313,0.0781 -1.5625,0.42969 -0.82031,0.3125 -1.60156,0.97656 -0.78125,0.625 -1.40625,1.67969 -0.58594,1.05469 -0.82032,2.57813 z"
         style="font-style:normal;font-variant:normal;font-weight:normal;font-stretch:normal;font-family:'Lakki Reddy';-inkscape-font-specification:'Lakki Reddy';fill:#ffffff"
         id="path5648"
         inkscape:connector-curvature="0" />
    </g>
    <text
       xml:space="preserve"
       style="font-style:normal;font-weight:normal;font-size:40px;line-height:125%;font-family:sans-serif;letter-spacing:0px;word-spacing:0px;fill:#000000;fill-opacity:1;stroke:none;stroke-width:1px;stroke-linecap:butt;stroke-linejoin:miter;stroke-opacity:1"
       x="-653.21124"
       y="-119.88609"
       id="text5597"
       sodipodi:linespacing="125%"><tspan
         sodipodi:role="line"
         id="tspan5599"
         x="-653.21124"
         y="-119.88609">Press Enter to start playing</tspan></text>
  </g>
</svg>
