<?xml version="1.0" encoding="UTF-8" standalone="no"?>
<!-- Created with Inkscape (http://www.inkscape.org/) -->

<svg
   xmlns:dc="http://purl.org/dc/elements/1.1/"
   xmlns:cc="http://creativecommons.org/ns#"
   xmlns:rdf="http://www.w3.org/1999/02/22-rdf-syntax-ns#"
   xmlns:svg="http://www.w3.org/2000/svg"
   xmlns="http://www.w3.org/2000/svg"
   xmlns:sodipodi="http://sodipodi.sourceforge.net/DTD/sodipodi-0.dtd"
   xmlns:inkscape="http://www.inkscape.org/namespaces/inkscape"
   width="143.13953"
   height="103.32338"
   viewBox="0 0 37.872334 27.337645"
   version="1.1"
   id="svg1648"
   inkscape:version="0.92.2 (unknown)"
   sodipodi:docname="farmer.svg">
  <defs
     id="defs1642" />
  <sodipodi:namedview
     id="base"
     pagecolor="#ffffff"
     bordercolor="#666666"
     borderopacity="1.0"
     inkscape:pageopacity="0.0"
     inkscape:pageshadow="2"
     inkscape:zoom="3.3024096"
     inkscape:cx="63.946996"
     inkscape:cy="12.45105"
     inkscape:document-units="px"
     inkscape:current-layer="layer1"
     showgrid="false"
     inkscape:window-width="1920"
     inkscape:window-height="1017"
     inkscape:window-x="0"
     inkscape:window-y="30"
     inkscape:window-maximized="1"
     units="px" />
  <metadata
     id="metadata1645">
    <rdf:RDF>
      <cc:Work
         rdf:about="">
        <dc:format>image/svg+xml</dc:format>
        <dc:type
           rdf:resource="http://purl.org/dc/dcmitype/StillImage" />
        <dc:title></dc:title>
      </cc:Work>
    </rdf:RDF>
  </metadata>
  <g
     inkscape:label="Layer 1"
     inkscape:groupmode="layer"
     id="layer1"
     transform="translate(-85.855466,-97.659462)">
    <g
       id="g4761"
       transform="matrix(-0.24925374,0,0,0.24925374,405.92462,-132.38253)">
      <ellipse
         style="fill:#500d39;fill-opacity:1;stroke:none;stroke-width:0.30092147"
         id="ellipse4372"
         cx="1184.7688"
         cy="990.22375"
         rx="32.229145"
         ry="32.266033" />
      <ellipse
         ry="27.940901"
         rx="27.908962"
         cy="988.74841"
         cx="1187.2374"
         id="ellipse4374"
         style="fill:#741352;fill-opacity:1;stroke:none;stroke-width:0.30092147" />
      <path
         sodipodi:nodetypes="cacssc"
         inkscape:connector-curvature="0"
         id="path4670"
         d="m 1172.8997,966.87203 c 0,0 -5.6124,12.83213 -6.5347,19.68369 -1.131,8.40168 1.3452,25.39678 1.3452,25.39678 0,0 5.0804,2.534 4.0488,-3.966 -2.0077,-12.65091 2.0163,-34.15577 4.8133,-38.32316 3.5715,-5.32124 -3.6726,-2.79131 -3.6726,-2.79131 z"
         style="fill:#2800ba;fill-opacity:1;stroke:none;stroke-width:1px;stroke-linecap:butt;stroke-linejoin:miter;stroke-opacity:1" />
      <path
         sodipodi:nodetypes="sssssss"
         inkscape:connector-curvature="0"
         id="path4634"
         d="m 1200.8637,992.21306 c -4.3222,-1.80601 -10.4077,-2.56697 -14.0479,0.38129 -1.7497,1.41713 -2.0261,4.35957 -1.5821,6.56697 0.6496,3.22938 2.8418,6.62128 5.8493,7.96508 3.1959,1.428 7.4295,0.749 10.4519,-1.0168 2.6486,-1.5474 5.4912,-4.4816 5.2739,-7.54138 -0.2055,-2.89352 -3.2685,-5.23678 -5.9451,-6.35516 z"
         style="fill:#2b000f;fill-opacity:1;stroke:none;stroke-width:0.5953576px;stroke-linecap:butt;stroke-linejoin:miter;stroke-opacity:1" />
      <path
         sodipodi:nodetypes="ssssss"
         inkscape:connector-curvature="0"
         id="path4636"
         d="m 1193.1613,995.37058 c 1.8349,-0.32431 4.5029,-0.55793 6.1528,-0.1694 1.4712,0.34645 3.2624,0.39772 2.9591,1.85493 -0.4563,2.19178 -4.68,3.59319 -6.8953,3.26939 -1.5416,-0.2253 -4.2343,-2.05465 -4.402,-3.60366 -0.094,-0.86698 1.3267,-1.19949 2.1854,-1.35126 z"
         style="fill:#741352;fill-opacity:1;stroke:none;stroke-width:0.5953576px;stroke-linecap:butt;stroke-linejoin:miter;stroke-opacity:1" />
      <path
         sodipodi:nodetypes="cscssc"
         inkscape:connector-curvature="0"
         id="ellipse4372-9"
         d="m 1216.9617,990.27301 c 0,17.82009 -14.4295,32.26599 -32.2292,32.26599 -17.7996,0 -32.2291,-14.446 -32.2291,-32.26599 0,-6.84144 0.065,1.75789 5.6369,6.37593 8.9417,7.41066 26.3321,15.53006 37.2981,15.52996 17.7997,-10e-5 21.5233,-39.72595 21.5233,-21.90589 z"
         style="fill:#2800ba;fill-opacity:1;stroke:none;stroke-width:0.30092147" />
      <path
         sodipodi:nodetypes="cscsssssc"
         inkscape:connector-curvature="0"
         id="ellipse4372-9-5"
         d="m 1216.9619,990.27588 c 0,17.82002 -14.4295,32.26592 -32.2292,32.26592 -17.7996,0 -32.2291,-14.446 -32.2291,-32.26592 -0.8297,-7.91203 4.4283,2.88087 8.6881,8.73125 2.8155,3.86687 4.7027,7.90247 8.8275,11.54187 5.0499,4.4557 13.6301,7.6889 19.666,7.6889 9.4399,-10e-5 24.2564,-14.9115 25.4341,-29.72789 0.09,-1.13222 0.8071,-2.12334 1.125,-2.64517 0.4466,-0.73317 0.9891,0.025 0.7176,4.41104 z"
         style="fill:#280080;fill-opacity:1;stroke:none;stroke-width:0.30092147" />
    </g>
    <rect
       style="fill:#ff00ff;fill-opacity:1;stroke:none;stroke-width:0.12985857"
       id="rect6396"
       width="18.520834"
       height="18.520834"
       x="66.314819"
       y="106.47385" />
    <ellipse
       style="fill:#ffffff;stroke:none;stroke-width:0.15112858"
       id="eye_left"
       cx="-109.54984"
       cy="111.81212"
       inkscape:label="#circle4350"
       inkscape:export-xdpi="96"
       inkscape:export-ydpi="96"
       rx="1.7109684"
       ry="1.9661628"
       inkscape:export-filename="/home/tom/Code/godot/game-thing/assets/wizard/wizard.png"
       transform="scale(-1,1)" />
    <ellipse
       cy="111.91048"
       cx="-105.89508"
       id="eye_right"
       style="fill:#ffffff;stroke:none;stroke-width:0.13935618"
       inkscape:label="#circle4352"
       inkscape:export-xdpi="96"
       inkscape:export-ydpi="96"
       rx="1.4547926"
       ry="1.9661628"
       inkscape:export-filename="/home/tom/Code/godot/game-thing/assets/wizard/wizard.png"
       transform="scale(-1,1)" />
    <ellipse
       style="fill:#232323;fill-opacity:1;stroke:none;stroke-width:0.16005737"
       id="pupil_left"
       cx="-109.00202"
       cy="111.88435"
       inkscape:label="#circle4360"
       inkscape:export-xdpi="96"
       inkscape:export-ydpi="96"
       inkscape:export-filename="/home/tom/Code/godot/game-thing/assets/wizard/wizard.png"
       rx="0.63452423"
       ry="0.65008098"
       transform="scale(-1,1)" />
    <ellipse
       cy="111.85155"
       cx="-105.45993"
       id="pupil_right"
       style="fill:#232323;fill-opacity:1;stroke:none;stroke-width:0.16005737"
       inkscape:label="#circle4362"
       inkscape:export-xdpi="96"
       inkscape:export-ydpi="96"
       inkscape:export-filename="/home/tom/Code/godot/game-thing/assets/wizard/wizard.png"
       rx="0.63452423"
       ry="0.65008098"
       transform="scale(-1,1)" />
    <g
       id="g4737"
       transform="matrix(-0.24925374,0,0,0.24925374,405.92462,-132.38253)">
      <rect
         transform="matrix(0.91066331,-0.41314929,0.3967512,0.91792619,0,0)"
         style="fill:#500d39;fill-opacity:1;stroke:none;stroke-width:0.30094567"
         id="rect4376"
         width="8.9727144"
         height="15.290961"
         x="695.64801"
         y="1424.3295"
         ry="4.5599833" />
      <rect
         transform="matrix(0.91066331,-0.41314929,0.3967512,0.91792619,0,0)"
         ry="3.8340816"
         y="1425.0708"
         x="697.23334"
         height="12.856801"
         width="6.9456081"
         id="rect4378"
         style="fill:#741352;fill-opacity:1;stroke:none;stroke-width:0.30094567" />
    </g>
    <path
       style="fill:#500d39;fill-opacity:1;stroke:none;stroke-width:0.16005737"
       d="m 98.621311,117.88136 c -0.334239,-0.6887 -1.532115,-0.51775 -1.043274,-1.10158 0.488826,-0.58432 1.347236,-0.65172 1.917258,-0.1504 0.570025,0.5005 0.419545,1.5817 -0.06903,2.16577 -0.488826,0.58433 -0.49425,-0.27367 -0.804655,-0.91354 z"
       id="hand_right"
       inkscape:connector-curvature="0"
       sodipodi:nodetypes="sssss"
       inkscape:label="#path4386"
       inkscape:export-xdpi="96"
       inkscape:export-ydpi="96"
       inkscape:export-filename="/home/tom/Code/godot/game-thing/assets/wizard/wizard.png" />
    <g
       id="g4733"
       transform="matrix(-0.24925374,0,0,0.24925374,405.92462,-132.38253)">
      <rect
         ry="2.6438165"
         y="1568.4033"
         x="121.46174"
         height="13.375477"
         width="5.2969418"
         id="rect4384"
         style="fill:#500d39;fill-opacity:1;stroke:none;stroke-width:0.30096537"
         transform="matrix(0.67205627,-0.74050008,0.72405188,0.68974552,0,0)" />
      <rect
         transform="matrix(0.67205627,-0.74050008,0.72405188,0.68974552,0,0)"
         style="fill:#741352;fill-opacity:1;stroke:none;stroke-width:0.30096537"
         id="rect4388"
         width="3.9614751"
         height="9.0149574"
         x="122.46142"
         y="1569.7784"
         ry="1.9772567" />
    </g>
    <path
       sodipodi:nodetypes="sssss"
       inkscape:connector-curvature="0"
       id="hand_left"
       d="m 122.56889,117.88136 c 0.33424,-0.6887 1.53209,-0.51775 1.04323,-1.10158 -0.48883,-0.58432 -1.34717,-0.65172 -1.91727,-0.1504 -0.57002,0.5005 -0.41946,1.5817 0.069,2.16577 0.48883,0.58433 0.49425,-0.27367 0.80466,-0.91354 z"
       style="fill:#500d39;fill-opacity:1;stroke:none;stroke-width:0.16005737"
       inkscape:label="#path4392"
       inkscape:export-xdpi="96"
       inkscape:export-ydpi="96"
       inkscape:export-filename="/home/tom/Code/godot/game-thing/assets/wizard/wizard.png" />
    <g
       id="g4745"
       transform="matrix(-0.24925374,0,0,0.24925374,405.92462,-132.38253)">
      <rect
         transform="matrix(-0.67205626,-0.74050009,-0.72405188,0.68974552,0,0)"
         style="fill:#500d39;fill-opacity:1;stroke:none;stroke-width:0.3009654"
         id="rect4390"
         width="5.2969422"
         height="13.375477"
         x="-1513.5118"
         y="-186.87875"
         ry="2.6438165" />
      <rect
         ry="1.9772567"
         y="-185.50365"
         x="-1512.5121"
         height="9.0149574"
         width="3.9614751"
         id="rect4394"
         style="fill:#741352;fill-opacity:1;stroke:none;stroke-width:0.3009654"
         transform="matrix(-0.67205626,-0.74050009,-0.72405188,0.68974552,0,0)" />
    </g>
    <g
       id="g4632"
       transform="matrix(-0.24925374,0,0,0.24925374,407.5096,-166.27141)">
      <path
         style="fill:#d4aa00;stroke:none;stroke-width:0.24000984"
         d="m 1221.7128,1099.44 c 0.3664,3.8132 -19.9476,7.9595 -30.5519,7.9595 -10.6044,0 -28.7459,-3.1051 -29.4926,-7.1069 -0.6507,-3.4868 3.8611,-7.3835 12.1282,-9.3772 -0.1906,-3.1152 1.4252,-5.3979 2.9635,-8.5617 3.4827,-7.1628 11.4989,-7.4291 15.1241,-8.0487 6.032,-1.0309 15.5581,4.9226 17.6594,16.1864 9.3491,2.4696 11.9256,6.4116 12.1693,8.9486 z"
         id="path4396"
         inkscape:connector-curvature="0"
         sodipodi:nodetypes="ssscsscs" />
      <path
         sodipodi:nodetypes="ssscscss"
         inkscape:connector-curvature="0"
         id="path4398"
         d="m 1213.1406,1099.3573 c -0.9317,3.3726 -14.5429,4.7363 -24.2285,4.7363 -9.6857,0 -26.9075,-0.3703 -26.2758,-4.3709 0.5053,-3.2001 3.8343,-7.8445 12.3534,-7.6603 -0.5684,-9.2872 12.3247,-18.4382 16.7918,-16.5679 3.366,1.4092 -5.9816,10.6428 8.1538,17.1013 4.3139,1.1395 5.7227,-0.5282 7.6241,0.3503 1.8623,0.8605 6.0869,4.5805 5.5812,6.4112 z"
         style="fill:#ffcc00;stroke:none;stroke-width:0.24000984" />
      <path
         style="fill:#ff0000;fill-opacity:1;stroke:none;stroke-width:0.24000984"
         d="m 1210.5313,1090.6369 c 0.3732,1.3207 -12.5745,5.3386 -19.2285,5.3622 -6.2664,0.022 -18.8226,-2.9256 -18.1437,-4.9215 0.8907,-2.6186 11.8351,2.0917 17.8116,2.0557 6.573,-0.039 18.6592,-5.6866 19.5606,-2.4963 z"
         id="path4400"
         inkscape:connector-curvature="0"
         sodipodi:nodetypes="casasc" />
    </g>
    <g
       id="g4741"
       transform="matrix(-0.24925374,0,0,0.24925374,405.92462,-132.38253)">
      <rect
         ry="4.5599833"
         y="445.33133"
         x="-1479.4689"
         height="15.290961"
         width="8.9727135"
         id="rect4402"
         style="fill:#500d39;fill-opacity:1;stroke:none;stroke-width:0.30094567"
         transform="matrix(-0.91066331,-0.4131493,-0.39675122,0.91792618,0,0)" />
      <rect
         style="fill:#741352;fill-opacity:1;stroke:none;stroke-width:0.30094567"
         id="rect4404"
         width="6.9456081"
         height="12.856801"
         x="-1477.8837"
         y="446.07263"
         ry="3.8340819"
         transform="matrix(-0.91066331,-0.4131493,-0.39675122,0.91792618,0,0)" />
    </g>
    <path
       style="fill:#2b071f;fill-opacity:1;stroke:none;stroke-width:0.16005737"
       d="m 108.3773,111.32874 3.49748,-1.03124 -0.55029,-1.44001 -3.91685,1.57455 z"
       id="eyebrow_left"
       inkscape:connector-curvature="0"
       sodipodi:nodetypes="ccccc"
       inkscape:label="#path4424"
       inkscape:export-xdpi="96"
       inkscape:export-ydpi="96"
       inkscape:export-filename="/home/tom/Code/godot/game-thing/assets/wizard/wizard.png" />
    <path
       style="fill:#2b071f;fill-opacity:1;stroke:none;stroke-width:0.14586821"
       d="m 106.57769,111.21269 -2.66472,-0.83112 0.4571,-1.44001 3.00124,1.44108 z"
       id="eyebrow_left-9"
       inkscape:connector-curvature="0"
       sodipodi:nodetypes="ccccc"
       inkscape:label="#path4424"
       inkscape:export-xdpi="96"
       inkscape:export-ydpi="96"
       inkscape:export-filename="/home/tom/Code/godot/game-thing/assets/wizard/wizard.png" />
    <g
       id="g4789"
       transform="matrix(-0.21586012,0.12462691,0.12462691,0.21586012,243.83899,-255.02529)">
      <path
         sodipodi:nodetypes="ccsasc"
         inkscape:connector-curvature="0"
         id="path4699"
         d="m 1249.6405,946.74029 5.3018,-0.0249 c 0,0 0.1967,53.32661 0.3781,83.97191 0.014,2.3236 -1.6873,5.2781 -3.2325,5.0249 -1.5798,-0.2589 -2.4003,-3.713 -2.4819,-6.0856 -0.9309,-27.0632 0.035,-82.88626 0.035,-82.88626 z"
         style="fill:#552200;stroke:none;stroke-width:0.81790441px;stroke-linecap:butt;stroke-linejoin:miter;stroke-opacity:1" />
      <path
         sodipodi:nodetypes="ccsasc"
         inkscape:connector-curvature="0"
         id="path4699-6"
         d="m 1250.7119,953.54391 2.1536,-0.0222 c 0,0 0.08,47.61209 0.1535,74.97349 0.01,2.0746 -0.6853,4.7125 -1.313,4.4864 -0.6417,-0.2311 -0.975,-3.3151 -1.0081,-5.4334 -0.3781,-24.1632 0.014,-74.00421 0.014,-74.00421 z"
         style="fill:#6f2d00;fill-opacity:1;stroke:none;stroke-width:0.4925555px;stroke-linecap:butt;stroke-linejoin:miter;stroke-opacity:1" />
      <path
         sodipodi:nodetypes="csssscscsc"
         inkscape:connector-curvature="0"
         id="path4697"
         d="m 1237.9411,919.13216 c 0,0 -4.8072,17.61891 -2.9749,25.72937 0.7518,3.32789 2.0825,6.69257 4.8117,8.73989 3.3145,2.48641 17.7772,2.59409 24.0179,-0.15678 3.1707,-1.39763 4.0621,-5.32529 4.4256,-8.77125 0.9261,-8.78107 -6.2991,-26.61183 -6.2991,-26.61183 0,0 -2.2915,29.47538 -4.9247,22.37538 -1.4705,-3.96483 -6.4236,-22.80361 -6.4236,-22.80361 0,0 -3.9857,13.31605 -5.46,22.64302 -1.1139,7.04693 -7.1729,-21.14419 -7.1729,-21.14419 z"
         style="fill:#808080;stroke:none;stroke-width:1px;stroke-linecap:butt;stroke-linejoin:miter;stroke-opacity:1" />
      <path
         sodipodi:nodetypes="cscsc"
         inkscape:connector-curvature="0"
         id="path4701"
         d="m 1237.9746,921.00545 c 0,0 -3.0726,15.26566 -2.6339,20.25351 0.3108,3.53295 4.3501,5.16744 4.3501,5.16744 0,0 0.8456,-4.29915 0.4191,-7.17355 -0.725,-4.88549 -2.1353,-18.2474 -2.1353,-18.2474 z"
         style="fill:#b3b3b3;stroke:none;stroke-width:1px;stroke-linecap:butt;stroke-linejoin:miter;stroke-opacity:1" />
      <path
         sodipodi:nodetypes="cscsc"
         inkscape:connector-curvature="0"
         id="path4701-6"
         d="m 1250.519,918.84055 c 0,0 -4.3573,17.67449 -3.9186,22.66234 0.3108,3.53295 2.7978,4.84626 2.7978,4.84626 0,0 2.8797,-4.88797 2.4532,-7.76237 -0.725,-4.88549 -1.3324,-19.74623 -1.3324,-19.74623 z"
         style="fill:#b3b3b3;stroke:none;stroke-width:1px;stroke-linecap:butt;stroke-linejoin:miter;stroke-opacity:1" />
      <path
         sodipodi:nodetypes="cscsc"
         inkscape:connector-curvature="0"
         id="path4701-2"
         d="m 1262.1884,919.75056 c 0,0 -1.1577,16.40884 -1.6703,21.10998 -0.3802,3.48647 -0.3605,4.89979 -0.3605,4.89979 0,0 5.235,-5.20915 4.8085,-8.08355 -0.725,-4.88549 -2.7777,-17.92622 -2.7777,-17.92622 z"
         style="fill:#b3b3b3;stroke:none;stroke-width:1px;stroke-linecap:butt;stroke-linejoin:miter;stroke-opacity:1" />
    </g>
  </g>
</svg>
