<?xml version="1.0" encoding="UTF-8" standalone="no"?>
<!-- Created with Inkscape (http://www.inkscape.org/) -->

<svg
   xmlns:dc="http://purl.org/dc/elements/1.1/"
   xmlns:cc="http://creativecommons.org/ns#"
   xmlns:rdf="http://www.w3.org/1999/02/22-rdf-syntax-ns#"
   xmlns:svg="http://www.w3.org/2000/svg"
   xmlns="http://www.w3.org/2000/svg"
   xmlns:sodipodi="http://sodipodi.sourceforge.net/DTD/sodipodi-0.dtd"
   xmlns:inkscape="http://www.inkscape.org/namespaces/inkscape"
   width="131.81523"
   height="84.063797"
   viewBox="0 0 34.876114 22.24188"
   version="1.1"
   id="svg8"
   inkscape:version="0.92.1 r15371"
   sodipodi:docname="basilisk.svg">
  <defs
     id="defs2" />
  <sodipodi:namedview
     id="base"
     pagecolor="#ffffff"
     bordercolor="#666666"
     borderopacity="1.0"
     inkscape:pageopacity="0.0"
     inkscape:pageshadow="2"
     inkscape:zoom="3.1283951"
     inkscape:cx="-23.340959"
     inkscape:cy="84.637019"
     inkscape:document-units="px"
     inkscape:current-layer="layer1"
     showgrid="false"
     units="px"
     inkscape:window-width="1920"
     inkscape:window-height="1018"
     inkscape:window-x="-8"
     inkscape:window-y="-8"
     inkscape:window-maximized="1"
     inkscape:snap-global="false"
     showguides="false" />
  <metadata
     id="metadata5">
    <rdf:RDF>
      <cc:Work
         rdf:about="">
        <dc:format>image/svg+xml</dc:format>
        <dc:type
           rdf:resource="http://purl.org/dc/dcmitype/StillImage" />
        <dc:title />
      </cc:Work>
    </rdf:RDF>
  </metadata>
  <g
     inkscape:label="Layer 1"
     inkscape:groupmode="layer"
     id="layer1"
     transform="translate(-50.770576,-177.75166)">
    <rect
       style="fill:#ff00ff;fill-opacity:1;stroke:none;stroke-width:0.237461;stroke-miterlimit:4;stroke-dasharray:none;stroke-opacity:1"
       id="rect5339"
       width="18.520834"
       height="18.520834"
       x="30.114761"
       y="178.80104" />
    <path
       style="fill:#338000;fill-rule:evenodd;stroke:none;stroke-width:0.14615224;stroke-linecap:butt;stroke-linejoin:miter;stroke-miterlimit:4;stroke-dasharray:none;stroke-opacity:1"
       d="m 79.984309,190.89199 c 1.040729,2.07531 1.593564,1.38026 3.271268,3.07177 0.538258,0.54268 2.145723,1.88962 2.391112,3.39468 -1.04235,-0.20964 -2.456768,-0.48712 -5.606059,-0.42482 -1.585335,-0.0873 -2.967066,0.80494 -4.698911,-1.21269 -2.036069,-4.23824 3.435963,-6.91578 4.64259,-4.82894 z"
       id="path4644"
       inkscape:connector-curvature="0"
       sodipodi:nodetypes="cscccc" />
    <circle
       style="fill:#338000;fill-opacity:1;stroke:none;stroke-width:0.14615224;stroke-miterlimit:4;stroke-dasharray:none;stroke-opacity:1"
       id="path815"
       cx="70.924446"
       cy="187.48405"
       r="9.732399" />
    <path
       style="fill:#44aa00;fill-opacity:1;stroke:none;stroke-width:0.13179022;stroke-miterlimit:4;stroke-dasharray:none;stroke-opacity:1"
       d="m 79.726947,187.21213 c 0,1.74625 -1.321607,2.77829 0.495589,5.5924 0.87919,1.36151 -2.237771,-0.91052 -4.961474,-0.50973 -1.61592,0.23779 -2.246044,0.32909 -4.295059,-0.13052 -2.216115,-0.49709 -5.417338,-0.50512 -6.823455,-1.62868 -1.425546,-1.13909 -2.23469,-2.9378 -2.326211,-4.39993 -0.161777,-2.58454 3.793422,-8.22598 8.731042,-8.22598 4.937626,0 9.179568,3.14314 9.179568,9.30244 z"
       id="circle4619"
       inkscape:connector-curvature="0"
       sodipodi:nodetypes="ssssssss" />
    <path
       style="fill:#338000;fill-opacity:1;stroke:none;stroke-width:0.19117492;stroke-miterlimit:4;stroke-dasharray:none;stroke-opacity:1"
       d="m 58.784638,189.43071 c -0.641104,0.16156 -4.317128,0.92465 -5.557502,1.89251 -1.58475,1.23657 -2.234037,2.12357 -2.45656,3.78928 0.732595,1.50223 3.656225,1.82439 6.414321,1.82437 2.75808,-0.14951 7.636907,-1.38473 7.636911,-4.14281 -5.17e-4,-0.62971 0.06203,-3.04048 -0.170355,-3.62574 -0.295324,-0.83073 -0.596702,-1.19215 -1.614202,-2.09524 -1.104654,-0.54926 -2.688762,1.61079 -4.252613,2.35763 z"
       id="circle817"
       inkscape:connector-curvature="0"
       sodipodi:nodetypes="cscccccc" />
    <path
       style="fill:#f4d7ee;fill-opacity:1;stroke:none;stroke-width:0.19117492;stroke-miterlimit:4;stroke-dasharray:none;stroke-opacity:1"
       d="m 55.326227,195.73462 c -1.15789,0.40427 -3.059859,2.65632 -3.317504,3.86174 0.922994,-0.63712 0.735486,-0.52831 1.255705,-0.87203 0.0837,0.0259 -0.03242,0.59251 0.154761,1.25179 0.0692,0.24373 1.05985,-2.14008 2.474964,-2.81893 0.44258,-0.21231 0.98665,-0.63709 1.078623,-0.90256 -0.25088,-0.54969 -1.182809,-0.67096 -1.646549,-0.52001 z"
       id="path4574"
       inkscape:connector-curvature="0"
       sodipodi:nodetypes="cccsscc" />
    <path
       style="fill:#44aa00;fill-opacity:1;stroke:none;stroke-width:0.13179022;stroke-miterlimit:4;stroke-dasharray:none;stroke-opacity:1"
       d="m 66.426451,189.40737 c 0,0.95933 0.181498,1.85175 -0.629365,1.93074 -2.396475,0.23345 -5.213537,1.38464 -7.144823,1.85525 -2.288398,0.46369 -1.229124,0.57159 -6.637923,0.72918 -0.161777,-2.58454 3.211679,-2.82399 7.804089,-4.63779 1.151457,-0.45477 2.136094,-1.4454 2.067221,-2.54649 -0.161023,-2.57431 4.540801,-1.65339 4.540801,2.66911 z"
       id="circle4619-8"
       inkscape:connector-curvature="0"
       sodipodi:nodetypes="ssccsss"
       inkscape:transform-center-x="-2.0632174"
       inkscape:transform-center-y="-4.3357467" />
    <circle
       style="fill:#ffffff;fill-opacity:1;stroke:#000000;stroke-width:0.19117492;stroke-miterlimit:4;stroke-dasharray:none;stroke-opacity:1"
       id="circle819"
       cx="58.601208"
       cy="192.44928"
       r="1.5269767" />
    <circle
       cy="192.44928"
       cx="55.185734"
       id="circle821"
       style="fill:#ffffff;fill-opacity:1;stroke:#000000;stroke-width:0.19117492;stroke-miterlimit:4;stroke-dasharray:none;stroke-opacity:1"
       r="1.5269767" />
    <ellipse
       style="fill:#000000;fill-opacity:1;stroke:none;stroke-width:0.00748661;stroke-miterlimit:4;stroke-dasharray:none;stroke-opacity:1"
       id="circle829"
       cx="54.324642"
       cy="192.4529"
       rx="0.27491379"
       ry="0.90406764" />
    <ellipse
       cy="192.22595"
       cx="54.25972"
       id="circle831"
       style="fill:#ffffff;fill-opacity:1;stroke:none;stroke-width:0.00278419;stroke-miterlimit:4;stroke-dasharray:none;stroke-opacity:1"
       rx="0.13762823"
       ry="0.24975961" />
    <path
       style="fill:#338000;fill-opacity:1;stroke:none;stroke-width:0.0535464;stroke-miterlimit:4;stroke-dasharray:none;stroke-opacity:1"
       d="m 56.500117,194.6895 c -0.189856,0.0428 -1.278467,0.24495 -1.645788,0.50135 -0.469306,0.32758 -0.915309,0.39341 -0.981206,0.83467 0.21695,0.39797 0.776163,-0.003 1.592941,-0.003 0.816774,-0.0396 1.658985,1.21894 1.658986,0.48829 -1.56e-4,-0.16683 1.181273,-1.73579 1.112453,-1.89083 -0.08746,-0.22008 -0.176707,-0.31582 -0.478027,-0.55507 -0.327131,-0.1455 -0.796245,0.42673 -1.259361,0.62458 z"
       id="circle817-2"
       inkscape:connector-curvature="0"
       sodipodi:nodetypes="csccccccc" />
    <ellipse
       style="fill:#000000;fill-opacity:1;stroke:none;stroke-width:0.00748661;stroke-miterlimit:4;stroke-dasharray:none;stroke-opacity:1"
       id="circle829-0"
       cx="57.737865"
       cy="192.4333"
       rx="0.27491379"
       ry="0.90406764" />
    <ellipse
       cy="192.20636"
       cx="57.672943"
       id="circle831-3"
       style="fill:#ffffff;fill-opacity:1;stroke:none;stroke-width:0.00278419;stroke-miterlimit:4;stroke-dasharray:none;stroke-opacity:1"
       rx="0.13762823"
       ry="0.24975961" />
  </g>
</svg>
