<?xml version="1.0" encoding="UTF-8" standalone="no"?>
<!-- Created with Inkscape (http://www.inkscape.org/) -->

<svg
   xmlns:dc="http://purl.org/dc/elements/1.1/"
   xmlns:cc="http://creativecommons.org/ns#"
   xmlns:rdf="http://www.w3.org/1999/02/22-rdf-syntax-ns#"
   xmlns:svg="http://www.w3.org/2000/svg"
   xmlns="http://www.w3.org/2000/svg"
   xmlns:sodipodi="http://sodipodi.sourceforge.net/DTD/sodipodi-0.dtd"
   xmlns:inkscape="http://www.inkscape.org/namespaces/inkscape"
   width="9.9999997e-06mm"
   height="9.9999997e-06mm"
   viewBox="0 0 9.9999997e-06 9.9999997e-06"
   version="1.1"
   id="svg8"
   inkscape:version="0.92+devel (unknown)"
   sodipodi:docname="bear.svg">
  <defs
     id="defs2" />
  <sodipodi:namedview
     id="base"
     pagecolor="#ffffff"
     bordercolor="#666666"
     borderopacity="1.0"
     inkscape:pageopacity="0.0"
     inkscape:pageshadow="2"
     inkscape:zoom="5.6"
     inkscape:cx="970.97259"
     inkscape:cy="561.88362"
     inkscape:document-units="mm"
     inkscape:current-layer="layer1"
     inkscape:document-rotation="0"
     showgrid="false"
     inkscape:snap-global="false" />
  <metadata
     id="metadata5">
    <rdf:RDF>
      <cc:Work
         rdf:about="">
        <dc:format>image/svg+xml</dc:format>
        <dc:type
           rdf:resource="http://purl.org/dc/dcmitype/StillImage" />
        <dc:title></dc:title>
      </cc:Work>
    </rdf:RDF>
  </metadata>
  <g
     inkscape:label="Layer 1"
     inkscape:groupmode="layer"
     id="layer1"
     transform="translate(0,-296.99999)">
    <circle
       style="vector-effect:none;fill:#803815;fill-opacity:1;stroke-width:0.03109115"
       id="circle958"
       cx="245.73294"
       cy="137.34225"
       r="1.8873432" />
    <circle
       r="1.5146471"
       cy="137.34225"
       cx="245.73294"
       id="circle960"
       style="vector-effect:none;fill:#551c00;fill-opacity:1;stroke-width:0.02495154" />
    <circle
       r="1.8873432"
       cy="137.34225"
       cx="236.88884"
       id="circle942"
       style="vector-effect:none;fill:#803815;stroke-width:0.03109115;fill-opacity:1" />
    <circle
       style="vector-effect:none;fill:#551c00;fill-opacity:1;stroke-width:0.02495154"
       id="circle954"
       cx="236.88884"
       cy="137.34225"
       r="1.5146471" />
    <circle
       style="vector-effect:none;fill:#333333;stroke-width:0.06934624"
       id="path10"
       cx="170.32153"
       cy="148.08432"
       r="12.017886" />
    <circle
       style="vector-effect:none;fill:#333333;stroke-width:0.07832614"
       id="path12"
       cx="154.10175"
       cy="144.35893"
       r="4.7546744" />
    <circle
       r="1.141951"
       cy="140.1293"
       cx="152.37924"
       id="circle14"
       style="vector-effect:none;fill:#333333;stroke-width:0.01881193" />
    <circle
       style="vector-effect:none;fill:#333333;stroke-width:0.01881193"
       id="circle16"
       cx="156.38937"
       cy="140.34393"
       r="1.141951" />
    <path
       style="vector-effect:none;fill:#1a1a1a;stroke-width:0.07227002"
       d="m 154.8427,145.52964 c 0,0.53353 -0.65111,1.12515 -0.97839,1.12515 -0.33583,0 -0.9784,-0.59162 -0.9784,-1.12515 0,-0.33668 0.3517,-0.30056 0.9784,-0.30056 0.62669,0 0.97839,0.0201 0.97839,0.30056 z"
       id="path22"
       inkscape:connector-curvature="0"
       sodipodi:nodetypes="sssss" />
    <circle
       style="vector-effect:none;fill:#ffffff;stroke-width:0.09228044"
       id="path44"
       cx="152.1646"
       cy="143.57626"
       r="1.3087057" />
    <circle
       r="1.3087057"
       cy="143.57626"
       cx="155.52394"
       id="circle46"
       style="vector-effect:none;fill:#ffffff;stroke-width:0.09228044" />
    <circle
       style="vector-effect:none;fill:#000000;stroke-width:0.02861368"
       id="circle48"
       cx="155.52394"
       cy="143.57626"
       r="0.40579432" />
    <circle
       r="0.40579432"
       cy="143.57626"
       cx="152.24081"
       id="circle50"
       style="vector-effect:none;fill:#000000;stroke-width:0.02861368" />
    <path
       sodipodi:nodetypes="sssss"
       inkscape:connector-curvature="0"
       id="path52"
       d="m 165.07054,160.97545 c 0,-1.20122 -0.8432,-2.51445 -2.2028,-2.53322 -1.50355,-0.0208 -2.2028,1.332 -2.2028,2.53322 0,0.758 0.79183,0.67668 2.2028,0.67668 1.41097,0 2.2028,-0.0453 2.2028,-0.67668 z"
       style="vector-effect:none;fill:#333333;fill-opacity:1;stroke-width:0.1627112" />
    <path
       style="vector-effect:none;fill:#333333;fill-opacity:1;stroke-width:0.1627112"
       d="m 180.02342,161.30765 c -10e-6,-1.20122 -0.8432,-2.51444 -2.20281,-2.53322 -1.50355,-0.0208 -2.2028,1.332 -2.2028,2.53322 0,0.75801 0.79183,0.67668 2.2028,0.67668 1.41097,0 2.20281,-0.0453 2.20281,-0.67668 z"
       id="path54"
       inkscape:connector-curvature="0"
       sodipodi:nodetypes="sssss" />
    <circle
       r="1.2917233"
       cy="143.71748"
       cx="182.78525"
       id="circle56"
       style="vector-effect:none;fill:#333333;fill-opacity:1;stroke-width:0.09108295" />
    <rect
       style="vector-effect:none;fill:#ffc6aa;fill-opacity:1;stroke-width:0.07832614"
       id="rect58"
       width="5.730525"
       height="5.730525"
       x="261.77707"
       y="137.99548"
       ry="1.2729875" />
    <rect
       ry="1.2729875"
       y="144.24907"
       x="261.77707"
       height="5.730525"
       width="5.730525"
       id="rect868"
       style="vector-effect:none;fill:#d48d6a;fill-opacity:1;stroke-width:0.07832614" />
    <rect
       style="vector-effect:none;fill:#aa5d39;fill-opacity:1;stroke-width:0.07832614"
       id="rect870"
       width="5.730525"
       height="5.730525"
       x="261.77707"
       y="150.50267"
       ry="1.2729875" />
    <rect
       ry="1.2729875"
       y="156.75626"
       x="261.77707"
       height="5.730525"
       width="5.730525"
       id="rect872"
       style="vector-effect:none;fill:#803815;fill-opacity:1;stroke-width:0.07832614" />
    <rect
       style="vector-effect:none;fill:#551c00;fill-opacity:1;stroke-width:0.07832614"
       id="rect874"
       width="5.730525"
       height="5.730525"
       x="261.77707"
       y="163.00984"
       ry="1.2729875" />
    <circle
       r="12.017886"
       cy="148.08432"
       cx="209.40646"
       id="circle876"
       style="vector-effect:none;fill:#333333;stroke-width:0.06934624" />
    <circle
       r="1.8873432"
       cy="137.97945"
       cx="215.66017"
       id="circle882"
       style="vector-effect:none;fill:#333333;stroke-width:0.03109115" />
    <path
       sodipodi:nodetypes="sssss"
       inkscape:connector-curvature="0"
       id="path884"
       d="m 210.30995,146.31709 c 0,0.53353 -0.65112,1.12515 -0.9784,1.12515 -0.33583,0 -0.9784,-0.59162 -0.9784,-1.12515 0,-0.33668 0.3517,-0.30056 0.9784,-0.30056 0.6267,0 0.9784,0.0201 0.9784,0.30056 z"
       style="vector-effect:none;fill:#1a1a1a;stroke-width:0.07227002" />
    <circle
       r="1.3087057"
       cy="144.36372"
       cx="207.63185"
       id="circle886"
       style="vector-effect:none;fill:#ffffff;stroke-width:0.09228044" />
    <circle
       style="vector-effect:none;fill:#ffffff;stroke-width:0.09228044"
       id="circle888"
       cx="210.99118"
       cy="144.36372"
       r="1.3087057" />
    <circle
       r="0.40579432"
       cy="144.36372"
       cx="210.99118"
       id="circle890"
       style="vector-effect:none;fill:#000000;stroke-width:0.02861368" />
    <circle
       style="vector-effect:none;fill:#000000;stroke-width:0.02861368"
       id="circle892"
       cx="207.70805"
       cy="144.36372"
       r="0.40579432" />
    <path
       style="vector-effect:none;fill:#333333;fill-opacity:1;stroke-width:0.1627112"
       d="m 204.15546,160.97545 c 0,-1.20122 -0.8432,-2.51445 -2.2028,-2.53322 -1.50355,-0.0208 -2.2028,1.332 -2.2028,2.53322 0,0.758 0.79182,0.67668 2.2028,0.67668 1.41097,0 2.2028,-0.0453 2.2028,-0.67668 z"
       id="path894"
       inkscape:connector-curvature="0"
       sodipodi:nodetypes="sssss" />
    <path
       sodipodi:nodetypes="sssss"
       inkscape:connector-curvature="0"
       id="path896"
       d="m 219.10834,161.30765 c 0,-1.20122 -0.8432,-2.51444 -2.2028,-2.53322 -1.50355,-0.0208 -2.2028,1.332 -2.2028,2.53322 0,0.75801 0.79183,0.67668 2.2028,0.67668 1.41097,0 2.2028,-0.0453 2.2028,-0.67668 z"
       style="vector-effect:none;fill:#333333;fill-opacity:1;stroke-width:0.1627112" />
    <circle
       style="vector-effect:none;fill:#333333;stroke-width:0.03109115"
       id="circle900"
       cx="205.13881"
       cy="137.34225"
       r="1.8873432" />
    <path
       style="fill:#333333;fill-opacity:1;fill-rule:evenodd;stroke:none;stroke-width:0.26458332px;stroke-linecap:butt;stroke-linejoin:miter;stroke-opacity:1"
       d="m 220.03493,142.75942 c 0,0 0.88175,0.43885 1.75886,1.39191 -0.67594,0.004 -0.82791,0.17292 -0.80493,0.37098 0.26464,0.0657 0.63916,0.22239 1.01421,0.88187 -1.09131,-0.0701 -0.77203,0.22818 -0.77203,0.22818 0,0 0.64298,0.40406 0.80514,1.196 -0.60714,-0.25245 -0.94663,-0.15221 -0.94663,-0.15221"
       id="path902"
       inkscape:connector-curvature="0"
       sodipodi:nodetypes="ccccccc" />
    <path
       style="fill:#333333;fill-opacity:1;fill-rule:evenodd;stroke:none;stroke-width:0.30836582px;stroke-linecap:butt;stroke-linejoin:miter;stroke-opacity:1"
       d="m 198.18876,144.78345 c 0,0 -1.41012,-0.22109 -1.73237,0.43804 0.90259,0.21864 1.24705,0.45896 1.24705,0.45896 0,0 -1.01115,-0.11797 -1.15979,0.66956 0.90727,-0.0421 0.84719,0.0922 0.84719,0.0922 0,0 -0.91387,0.21729 -0.93422,0.8165 0.63733,-0.16122 1.5678,-0.34884 1.5678,-0.34884"
       id="path908"
       inkscape:connector-curvature="0"
       sodipodi:nodetypes="ccccccc" />
    <path
       sodipodi:nodetypes="ccccc"
       inkscape:connector-curvature="0"
       id="path916"
       d="m 211.78606,142.0183 -2.33641,0.56667 0.23996,0.98931 3.23161,-0.78379 z"
       style="vector-effect:none;fill:#000000;fill-opacity:1;stroke:none;stroke-width:0.17113277" />
    <path
       style="vector-effect:none;fill:#000000;fill-opacity:1;stroke:none;stroke-width:0.17113277"
       d="m 206.72672,142.0183 2.33641,0.56667 -0.23996,0.98931 -3.23161,-0.78379 z"
       id="path918"
       inkscape:connector-curvature="0"
       sodipodi:nodetypes="ccccc" />
    <path
       sodipodi:nodetypes="ccccccc"
       inkscape:connector-curvature="0"
       id="path920"
       d="m 175.6972,137.46835 c 0,0 0.95937,-0.22288 2.24253,-0.0453 -0.51891,0.43317 -0.52867,0.66018 -0.38491,0.79836 0.24596,-0.1177 0.63457,-0.23515 1.34354,0.035 -0.88651,0.64031 -0.4504,0.66726 -0.4504,0.66726 0,0 0.75314,-0.0974 1.38213,0.41036 -0.62903,0.19151 -0.82713,0.4849 -0.82713,0.4849"
       style="fill:#333333;fill-opacity:1;fill-rule:evenodd;stroke:none;stroke-width:0.26458332px;stroke-linecap:butt;stroke-linejoin:miter;stroke-opacity:1" />
    <path
       sodipodi:nodetypes="ccccccc"
       inkscape:connector-curvature="0"
       id="path922"
       d="m 164.38831,138.04491 c 0,0 -0.88965,-1.11618 -1.57269,-0.84832 0.5173,0.77128 0.60867,1.18122 0.60867,1.18122 0,0 -0.66535,-0.77048 -1.30726,-0.29064 0.69701,0.58231 0.56195,0.64066 0.56195,0.64066 0,0 -0.82031,-0.45768 -1.24038,-0.0299 0.57863,0.31204 1.39112,0.8028 1.39112,0.8028"
       style="fill:#333333;fill-opacity:1;fill-rule:evenodd;stroke:none;stroke-width:0.30836582px;stroke-linecap:butt;stroke-linejoin:miter;stroke-opacity:1" />
    <circle
       style="vector-effect:none;fill:#803815;stroke-width:0.06934624;fill-opacity:1"
       id="circle924"
       cx="241.15649"
       cy="148.08432"
       r="12.017886" />
    <path
       style="vector-effect:none;fill:#1a1a1a;stroke-width:0.07227002"
       d="m 242.05997,146.31709 c 0,0.53353 -0.23825,1.12515 -0.9784,1.12515 -0.83216,0 -0.9784,-0.59162 -0.9784,-1.12515 0,-0.33668 0.3517,-0.30056 0.9784,-0.30056 0.6267,0 0.9784,0.0201 0.9784,0.30056 z"
       id="path928"
       inkscape:connector-curvature="0"
       sodipodi:nodetypes="sssss" />
    <circle
       style="vector-effect:none;fill:#ffffff;stroke-width:0.09228044"
       id="circle930"
       cx="239.38188"
       cy="144.36372"
       r="1.3087057" />
    <circle
       r="1.3087057"
       cy="144.36372"
       cx="242.74121"
       id="circle932"
       style="vector-effect:none;fill:#ffffff;stroke-width:0.09228044" />
    <circle
       style="vector-effect:none;fill:#000000;stroke-width:0.02861368"
       id="circle934"
       cx="242.74121"
       cy="144.36372"
       r="0.40579432" />
    <circle
       r="0.40579432"
       cy="144.36372"
       cx="239.45808"
       id="circle936"
       style="vector-effect:none;fill:#000000;stroke-width:0.02861368" />
    <path
       sodipodi:nodetypes="sssss"
       inkscape:connector-curvature="0"
       id="path938"
       d="m 235.90548,160.97545 c 0,-1.20122 -0.8432,-2.51445 -2.2028,-2.53322 -1.50355,-0.0208 -2.2028,1.332 -2.2028,2.53322 0,0.758 0.79182,0.67668 2.2028,0.67668 1.41097,0 2.2028,-0.0453 2.2028,-0.67668 z"
       style="vector-effect:none;fill:#803815;fill-opacity:1;stroke-width:0.1627112" />
    <path
       style="vector-effect:none;fill:#803815;fill-opacity:1;stroke-width:0.1627112"
       d="m 250.85836,161.30765 c 0,-1.20122 -0.8432,-2.51444 -2.2028,-2.53322 -1.50355,-0.0208 -2.2028,1.332 -2.2028,2.53322 0,0.75801 0.79183,0.67668 2.2028,0.67668 1.41097,0 2.2028,-0.0453 2.2028,-0.67668 z"
       id="path940"
       inkscape:connector-curvature="0"
       sodipodi:nodetypes="sssss" />
    <path
       sodipodi:nodetypes="ccccccc"
       inkscape:connector-curvature="0"
       id="path944"
       d="m 251.78495,142.75942 c 0,0 0.88175,0.43885 1.75886,1.39191 -0.67594,0.004 -0.82791,0.17292 -0.80493,0.37098 0.26464,0.0657 0.63916,0.22239 1.01421,0.88187 -1.09131,-0.0701 -0.77203,0.22818 -0.77203,0.22818 0,0 0.64298,0.40406 0.80514,1.196 -0.60714,-0.25245 -0.94663,-0.15221 -0.94663,-0.15221"
       style="fill:#803815;fill-opacity:1;fill-rule:evenodd;stroke:none;stroke-width:0.26458332px;stroke-linecap:butt;stroke-linejoin:miter;stroke-opacity:1" />
    <path
       sodipodi:nodetypes="ccccccc"
       inkscape:connector-curvature="0"
       id="path946"
       d="m 229.93878,144.78345 c 0,0 -1.41012,-0.22109 -1.73237,0.43804 0.90259,0.21864 1.24705,0.45896 1.24705,0.45896 0,0 -1.01115,-0.11797 -1.15979,0.66956 0.90727,-0.0421 0.84719,0.0922 0.84719,0.0922 0,0 -0.91387,0.21729 -0.93422,0.8165 0.63733,-0.16122 1.5678,-0.34884 1.5678,-0.34884"
       style="fill:#803815;fill-opacity:1;fill-rule:evenodd;stroke:none;stroke-width:0.30836582px;stroke-linecap:butt;stroke-linejoin:miter;stroke-opacity:1" />
    <path
       style="vector-effect:none;fill:#551c00;fill-opacity:1;stroke:none;stroke-width:0.17113277"
       d="m 243.53608,142.0183 -2.33641,0.56667 0.23996,0.98931 3.23161,-0.78379 z"
       id="path948"
       inkscape:connector-curvature="0"
       sodipodi:nodetypes="ccccc" />
    <path
       sodipodi:nodetypes="ccccc"
       inkscape:connector-curvature="0"
       id="path950"
       d="m 238.47674,142.0183 2.33641,0.56667 -0.23996,0.98931 -3.23161,-0.78379 z"
       style="vector-effect:none;fill:#551c00;fill-opacity:1;stroke:none;stroke-width:0.17113277" />
  </g>
</svg>
