<?xml version="1.0" encoding="UTF-8" standalone="no"?>
<!-- Created with Inkscape (http://www.inkscape.org/) -->

<svg
   xmlns:dc="http://purl.org/dc/elements/1.1/"
   xmlns:cc="http://creativecommons.org/ns#"
   xmlns:rdf="http://www.w3.org/1999/02/22-rdf-syntax-ns#"
   xmlns:svg="http://www.w3.org/2000/svg"
   xmlns="http://www.w3.org/2000/svg"
   xmlns:sodipodi="http://sodipodi.sourceforge.net/DTD/sodipodi-0.dtd"
   xmlns:inkscape="http://www.inkscape.org/namespaces/inkscape"
   width="646.24023"
   height="277.50537"
   viewBox="0 0 170.98439 73.423293"
   version="1.1"
   id="svg8"
   inkscape:version="0.91 r13725"
   sodipodi:docname="intro.svg">
  <defs
     id="defs2" />
  <sodipodi:namedview
     id="base"
     pagecolor="#ffffff"
     bordercolor="#666666"
     borderopacity="1.0"
     inkscape:pageopacity="0.0"
     inkscape:pageshadow="2"
     inkscape:zoom="0.35"
     inkscape:cx="782.70959"
     inkscape:cy="406.07466"
     inkscape:document-units="px"
     inkscape:current-layer="layer1"
     inkscape:document-rotation="0"
     showgrid="false"
     units="px"
     inkscape:window-width="1920"
     inkscape:window-height="1019"
     inkscape:window-x="0"
     inkscape:window-y="24"
     inkscape:window-maximized="1"
     fit-margin-top="0"
     fit-margin-left="0"
     fit-margin-right="0"
     fit-margin-bottom="0" />
  <metadata
     id="metadata5">
    <rdf:RDF>
      <cc:Work
         rdf:about="">
        <dc:format>image/svg+xml</dc:format>
        <dc:type
           rdf:resource="http://purl.org/dc/dcmitype/StillImage" />
        <dc:title></dc:title>
      </cc:Work>
    </rdf:RDF>
  </metadata>
  <g
     inkscape:label="Layer 1"
     inkscape:groupmode="layer"
     id="layer1"
     transform="translate(47.701445,-380.95476)">
    <g
       transform="matrix(0.26458331,0,0,0.26458333,0.11837076,101.98663)"
       style="font-style:normal;font-weight:normal;font-size:40px;line-height:125%;font-family:sans-serif;text-align:center;letter-spacing:0px;word-spacing:0px;text-anchor:middle;fill:#000000;fill-opacity:1;stroke:none;stroke-width:1px;stroke-linecap:butt;stroke-linejoin:miter;stroke-opacity:1"
       id="flowRoot4223">
      <path
         d="m 37.115234,1056.8678 q 1.289063,0.1562 2.34375,0.2343 1.015625,0.078 1.757813,0.1563 0.859375,0.078 1.523437,0.1172 0.703125,0 1.796875,-0.039 0.9375,-0.039 2.382813,-0.1172 1.445312,-0.078 3.554687,-0.2734 -1.015625,0.5859 -1.679687,1.1719 -0.625,0.5859 -0.976563,1.0546 -0.429687,0.5469 -0.625,1.0938 -0.117187,0.7422 0.07813,2.8906 0.07813,0.8985 0.234375,2.2266 0.195313,1.289 0.46875,3.0859 0.3125,1.7578 0.742188,4.0625 0.46875,2.3047 1.054687,5.2344 0.78125,-2.2266 1.289063,-3.9453 0.507812,-1.7578 0.859375,-3.0078 0.390625,-1.4063 0.664062,-2.5 0.273438,-1.1328 0.664063,-2.9297 0.3125,-1.5235 0.820312,-3.9453 0.507813,-2.4219 1.25,-5.9766 l 1.40625,0.1953 q 0.195313,2.7735 0.390625,4.8828 0.234375,2.1094 0.390625,3.5938 0.15625,1.7187 0.3125,2.9687 0.15625,1.1328 0.46875,2.6172 0.273438,1.25 0.703125,3.086 0.429688,1.7968 1.132813,4.0625 0.703125,-2.7735 1.25,-4.961 0.585937,-2.1875 0.976562,-3.8672 0.429688,-1.6797 0.703125,-2.8906 0.3125,-1.2109 0.507813,-2.0312 0.429687,-1.9532 0.507812,-2.6172 -0.03906,-0.7422 -0.351562,-1.4453 -0.273438,-0.625 -0.859375,-1.3672 -0.585938,-0.7422 -1.71875,-1.4453 2.382812,0.078 3.867187,0.1171 1.523438,0 2.421875,0 l 1.5625,0 1.40625,0 q 0.78125,0 2.03125,0 1.289063,-0.039 3.28125,-0.1171 -1.71875,0.8984 -2.773437,1.6406 -1.054688,0.7422 -1.640625,1.25 -0.703125,0.625 -1.015625,1.0547 -0.3125,0.7812 -1.015625,3.5156 -0.3125,1.1719 -0.703125,2.9297 -0.390625,1.7187 -0.9375,4.1406 -0.507813,2.4219 -1.171875,5.6641 -0.664063,3.2031 -1.484375,7.3437 l -6.757813,-0.7031 -2.890625,-12.1484 q -0.664062,3.3203 -1.054687,5.3906 -0.390625,2.0312 -0.585938,3.164 -0.234375,1.3672 -0.273437,1.9922 -0.03906,0.5469 -0.07813,1.0547 -0.03906,0.4297 -0.117188,0.9375 -0.03906,0.5078 -0.117187,0.9375 l -6.914063,0 q -1.015625,-4.4531 -1.835937,-7.8515 -0.78125,-3.4375 -1.40625,-6.0157 -0.625,-2.5781 -1.09375,-4.375 -0.429688,-1.7968 -0.78125,-3.0078 -0.78125,-2.8125 -1.132813,-3.4765 -0.273437,-0.3125 -0.703125,-0.7422 -0.351562,-0.3516 -0.859375,-0.8594 -0.546875,-0.5469 -1.25,-1.2109 z"
         style="font-style:normal;font-variant:normal;font-weight:normal;font-stretch:normal;font-family:'Lakki Reddy';-inkscape-font-specification:'Lakki Reddy';fill:#00ff00"
         id="path4322" />
      <path
         d="m 81.685547,1078.0396 q 1.09375,0 2.03125,-0.2343 0.78125,-0.1954 1.484375,-0.625 0.742187,-0.4688 0.976562,-1.3672 0.78125,0.1562 1.328125,0.2734 0.546875,0.078 0.9375,0.1563 0.429688,0.1171 0.742188,0.1562 0.3125,0.078 0.742187,0.1563 0.390625,0.078 0.9375,0.1953 0.585938,0.078 1.367188,0.2343 -0.585938,-0.078 -1.210938,0.1172 -0.585937,0.1953 -1.132812,0.4297 -0.625,0.2735 -1.171875,0.6641 -0.351563,0.2344 -0.820313,0.7031 -0.429687,0.4688 -1.25,0.8984 -0.820312,0.4297 -2.1875,0.7422 -1.328125,0.2735 -3.4375,0.1953 -2.539062,-0.078 -4.257812,-0.8984 -1.71875,-0.8594 -2.773438,-2.0703 -1.054687,-1.25 -1.523437,-2.6953 -0.46875,-1.4453 -0.507813,-2.6953 -0.03906,-1.25 0.742188,-2.6172 0.78125,-1.3672 2.1875,-2.5 1.445312,-1.1328 3.476562,-1.836 2.03125,-0.7421 4.453125,-0.7421 1.40625,0 2.578125,0.3515 1.210938,0.3125 2.1875,0.8594 1.015625,0.5469 1.757813,1.25 0.742187,0.6641 1.25,1.3672 0.507812,0.7422 0.859375,1.5625 0.3125,0.7031 0.507812,1.6015 0.195313,0.8985 0.117188,1.836 -2.96875,0.078 -4.804688,0.1172 -1.796875,0.039 -2.8125,0.039 l -1.757812,0 -1.328125,0 q -0.703125,0 -1.835938,0.039 -1.132812,0.039 -2.773437,0.1172 0.195312,1.5625 0.976562,2.4219 0.820313,0.8203 1.71875,1.25 1.015625,0.4687 2.226563,0.5468 z m -3.515625,-7.0312 q 1.25,0.078 2.070312,0.1172 0.859375,0.039 1.40625,0.078 0.585938,0.039 0.9375,0.039 l 0.976563,0 q 0.976562,0 3.632812,-0.1172 -0.117187,-1.7188 -0.742187,-2.6172 -0.585938,-0.8985 -1.25,-1.3281 -0.78125,-0.4688 -1.71875,-0.5469 -2.539063,0.039 -3.789063,1.0547 -1.210937,1.0156 -1.523437,3.3203 z"
         style="font-style:normal;font-variant:normal;font-weight:normal;font-stretch:normal;font-family:'Lakki Reddy';-inkscape-font-specification:'Lakki Reddy';fill:#00ff00"
         id="path4324" />
      <path
         d="m 94.537109,1085.4224 q 0.390625,-0.5859 0.625,-1.0937 0.234375,-0.5078 0.390625,-0.8594 0.15625,-0.4297 0.234375,-0.7812 0.03906,-0.2344 0.03906,-1.3672 0,-1.1328 -0.07813,-2.8516 -0.03906,-1.7187 -0.117188,-3.8672 -0.03906,-2.1484 -0.15625,-4.375 -0.07813,-2.2265 -0.195312,-4.3359 -0.07813,-2.1094 -0.15625,-3.7891 -0.07813,-1.7187 -0.15625,-2.8125 -0.07813,-1.0937 -0.117188,-1.25 -0.07813,-0.2343 -0.273437,-0.4687 -0.390625,-0.4688 -1.328125,-0.8985 1.992187,-0.5078 3.046875,-0.8203 0.625,-0.1562 1.09375,-0.3125 0.429687,-0.1562 0.859375,-0.3125 0.351562,-0.1562 0.78125,-0.3515 0.429687,-0.2344 0.78125,-0.5078 -0.195313,1.1328 -0.3125,2.1875 -0.117188,1.0546 -0.195313,1.9531 -0.07813,1.0156 -0.07813,1.9531 -0.195312,1.9141 -0.234375,4.1797 0,2.2266 0.03906,4.5312 0.03906,2.3047 0.15625,4.4922 0.117187,2.1875 0.234375,3.9844 0.15625,1.7578 0.273437,3.0078 0.15625,1.211 0.234375,1.5625 0.156246,0.586 0.312496,1.1328 0.15625,0.4688 0.35157,0.9766 0.19531,0.5469 0.46875,0.8594 l -3.789066,0 q -0.507812,0 -0.976562,0.039 -0.429688,0.039 -0.898438,0.078 -0.46875,0.039 -0.859375,0.1171 z"
         style="font-style:normal;font-variant:normal;font-weight:normal;font-stretch:normal;font-family:'Lakki Reddy';-inkscape-font-specification:'Lakki Reddy';fill:#00ff00"
         id="path4326" />
      <path
         d="m 124.30273,1070.4615 q -0.46875,-0.078 -1.17187,-0.1172 -0.66406,-0.039 -1.28906,-0.039 -0.70313,0 -1.48438,0.039 -0.82031,0.039 -1.64062,0.078 -0.70313,0.039 -1.60157,0.1172 -0.85937,0.039 -1.67968,0.1172 0.3125,-0.1562 0.54687,-0.4297 0.27344,-0.2734 0.46875,-0.5468 0.19531,-0.3125 0.35156,-0.6641 0.19532,-0.5859 -0.0391,-1.4063 -0.23437,-0.8593 -0.85937,-1.5625 -0.58594,-0.7031 -1.52344,-1.0937 -0.89844,-0.4297 -1.99219,-0.1953 -1.17187,0.2734 -2.10937,0.8203 -0.89844,0.5469 -1.52344,1.5234 -0.58594,0.9375 -0.85938,2.3438 -0.23437,1.3672 -0.11718,3.2812 0.15625,2.3828 0.78125,3.7891 0.625,1.4062 1.52343,2.1094 0.89844,0.7031 1.95313,0.8593 1.09375,0.1172 2.14844,0 0.74218,-0.1562 1.36718,-0.664 0.50782,-0.4297 0.9375,-1.25 0.42969,-0.8203 0.39063,-2.2656 l 4.76562,-0.1954 q -0.82031,2.3047 -1.99218,3.6719 -1.17188,1.3281 -2.26563,2.0703 -1.28906,0.8594 -2.57812,1.1719 -1.60157,0.2734 -2.85157,0.2344 -1.25,-0.078 -2.26562,-0.3906 -1.01563,-0.3125 -1.875,-0.7813 -0.85938,-0.4687 -1.64063,-1.0156 -0.50781,-0.3516 -1.13281,-1.1719 -0.625,-0.8203 -1.17187,-1.9531 -0.54688,-1.1719 -0.89844,-2.5781 -0.35156,-1.4063 -0.27344,-2.8907 0.0781,-1.5234 0.70313,-3.0468 0.625,-1.5235 1.99218,-2.9297 2.07032,-2.1094 4.41407,-2.7344 2.38281,-0.6641 4.49218,-0.3516 2.10938,0.2735 3.75,1.211 1.64063,0.9375 2.30469,2.0312 0.66406,1.0938 0.97656,1.6797 0.35157,0.5469 0.50782,0.8594 0.19531,0.2734 0.3125,0.4297 0.15625,0.1172 0.42968,0.3515 0.19532,0.1953 0.46875,0.4297 0.23438,0.1953 0.54688,0.4688 0.3125,0.2734 0.70312,0.5859 z"
         style="font-style:normal;font-variant:normal;font-weight:normal;font-stretch:normal;font-family:'Lakki Reddy';-inkscape-font-specification:'Lakki Reddy';fill:#00ff00"
         id="path4328" />
      <path
         d="m 134.18555,1066.8287 q 1.01562,0 2.10937,0.3906 1.09375,0.3516 2.10938,0.9375 1.01562,0.5469 1.83593,1.211 0.85938,0.625 1.40625,1.2109 0.97657,1.0547 1.32813,2.8516 0.39062,1.7578 0.15625,3.6328 -0.23438,1.8359 -1.09375,3.4765 -0.85938,1.6407 -2.38281,2.4219 -1.09375,0.5469 -2.14844,0.8594 -1.05469,0.3125 -2.03125,0.4687 -0.97656,0.1563 -1.83594,0.1563 -0.85937,0 -1.48437,-0.039 -1.17188,-0.078 -2.46094,-0.8203 -1.25,-0.7422 -2.38281,-1.8359 -1.09375,-1.0938 -1.875,-2.3828 -0.78125,-1.3282 -0.9375,-2.5 -0.23438,-1.6016 -0.0781,-3.3594 0.15625,-1.7578 1.13281,-3.2422 1.01563,-1.4844 3.04688,-2.4609 2.07031,-0.9766 5.58594,-0.9766 z m -1.28907,15.1562 q 0.42969,0.078 1.17188,-0.1953 0.74219,-0.3125 1.44531,-0.9765 0.74219,-0.6641 1.28906,-1.6797 0.58594,-1.0547 0.70313,-2.5391 0.11719,-1.4453 0,-2.6562 -0.0781,-1.211 -0.35156,-2.1094 -0.27344,-0.9375 -0.625,-1.5234 -0.35157,-0.586 -0.74219,-0.8204 -0.66406,-0.3515 -1.60156,-0.5468 -0.9375,-0.2344 -1.60157,0.078 -0.3125,0.1562 -0.78125,0.6641 -0.46875,0.5078 -0.9375,1.289 -0.46875,0.7422 -0.85937,1.7188 -0.35156,0.9765 -0.50781,2.0312 -0.15625,1.0547 -0.0781,2.2656 0.11719,1.211 0.50781,2.3047 0.39063,1.0547 1.09375,1.836 0.74219,0.7422 1.875,0.8593 z"
         style="font-style:normal;font-variant:normal;font-weight:normal;font-stretch:normal;font-family:'Lakki Reddy';-inkscape-font-specification:'Lakki Reddy';fill:#00ff00"
         id="path4330" />
      <path
         d="m 144.84961,1065.8131 q 0.89844,-0.078 1.52344,-0.1563 0.66406,-0.078 1.09375,-0.1562 0.50781,-0.078 0.85937,-0.1563 0.35156,-0.039 0.78125,-0.1562 0.39063,-0.078 0.85938,-0.1953 0.50781,-0.1563 1.09375,-0.3516 l -0.23438,4.9609 q 0.85938,-1.3672 1.99219,-2.0703 1.13281,-0.7422 2.14844,-1.0937 1.21093,-0.4297 2.42187,-0.5078 1.25,0.039 2.30469,0.3906 0.89844,0.3125 1.79687,0.9765 0.9375,0.6641 1.44532,1.9532 1.32812,-1.3672 2.61718,-2.1094 1.32813,-0.7813 2.34375,-1.1719 1.21094,-0.4297 2.26563,-0.5078 1.40625,-0.039 2.57812,0.4688 1.21094,0.5078 2.10938,1.289 0.89844,0.7422 1.44531,1.6016 0.54688,0.8203 0.625,1.4453 0.11719,0.8594 -0.11719,2.2266 -0.23437,1.3281 -0.54687,2.7343 -0.3125,1.3672 -0.58594,2.5391 -0.23437,1.1328 -0.19531,1.6016 0.11719,0.3906 0.54687,0.9375 0.39063,0.4687 1.13282,1.1718 0.78125,0.6641 2.22656,1.5625 -1.25,-0.039 -2.22656,-0.078 -0.9375,-0.039 -1.60157,-0.1172 -0.78125,-0.078 -1.36718,-0.1172 -0.46875,0 -1.13282,-0.078 -0.54687,-0.039 -1.44531,-0.1172 -0.85937,-0.078 -1.99219,-0.1562 0.42969,-0.1172 0.70313,-0.4297 0.27344,-0.3516 0.46875,-0.6641 0.19531,-0.3906 0.3125,-0.8594 0.0781,-0.3906 0.15625,-1.25 0.0781,-0.8593 0.11719,-1.9531 0.0781,-1.0937 0.0781,-2.3047 0.0391,-1.2109 0,-2.3047 -0.0391,-1.0937 -0.15625,-1.9921 -0.11719,-0.8985 -0.3125,-1.3672 -0.15625,-0.3516 -0.54687,-0.5469 -0.39063,-0.2344 -0.89844,-0.2734 -0.50781,-0.078 -1.01563,0.039 -0.50781,0.078 -0.89843,0.3125 -0.35157,0.2735 -0.9375,0.7422 -0.50782,0.4297 -1.32813,1.1719 -0.82031,0.7422 -2.07031,1.875 -0.11719,2.4609 -0.19531,3.9844 -0.0391,1.4843 -0.0781,2.2656 -0.0391,0.9375 -0.0391,1.289 -0.0391,0.3125 0.0391,0.586 0.0781,0.5859 0.46875,1.0937 -0.46875,-0.1172 -1.01562,-0.1562 -0.50782,-0.039 -0.9375,-0.078 -0.50782,-0.039 -1.01563,-0.039 -0.42969,0 -0.9375,0.039 -0.42969,0.039 -1.05469,0.1171 -0.625,0.039 -1.36718,0.1172 0.3125,-0.1953 0.50781,-0.4687 0.19531,-0.2735 0.3125,-0.5078 0.15625,-0.2735 0.23437,-0.5078 0.0391,-0.2344 0.15625,-1.1329 0.11719,-0.9375 0.15625,-2.1875 0.0391,-1.25 0,-2.6171 -0.0391,-1.4063 -0.27343,-2.5391 -0.23438,-1.1719 -0.74219,-1.9141 -0.46875,-0.7422 -1.25,-0.664 -0.9375,0.078 -1.91406,0.4687 -0.82032,0.3125 -1.75782,0.9375 -0.9375,0.625 -1.75781,1.6797 -0.15625,2.9297 -0.19531,4.6484 0,1.7188 0.0391,2.6172 0.0391,1.0547 0.0781,1.4453 0.0391,0.2735 0.19531,0.5469 0.11719,0.2344 0.27344,0.5469 0.19531,0.3125 0.42968,0.5859 l -6.21093,-0.3125 q 0.3125,-0.1562 0.54687,-0.3906 0.23438,-0.2734 0.39063,-0.5469 0.15625,-0.3125 0.3125,-0.625 0.11718,-0.2734 0.19531,-1.289 0.11719,-1.0157 0.19531,-2.3828 0.0781,-1.4063 0.11719,-2.9297 0.0781,-1.5625 0.0781,-2.8907 0.0391,-1.3671 0.0391,-2.3046 0,-0.9766 -0.0391,-1.1719 -0.11718,-0.3906 -0.42968,-0.8203 -0.27344,-0.3125 -0.74219,-0.6641 -0.46875,-0.3906 -1.25,-0.5859 z"
         style="font-style:normal;font-variant:normal;font-weight:normal;font-stretch:normal;font-family:'Lakki Reddy';-inkscape-font-specification:'Lakki Reddy';fill:#00ff00"
         id="path4332" />
      <path
         d="m 189.73242,1078.0396 q 1.09375,0 2.03125,-0.2343 0.78125,-0.1954 1.48438,-0.625 0.74218,-0.4688 0.97656,-1.3672 0.78125,0.1562 1.32812,0.2734 0.54688,0.078 0.9375,0.1563 0.42969,0.1171 0.74219,0.1562 0.3125,0.078 0.74219,0.1563 0.39062,0.078 0.9375,0.1953 0.58594,0.078 1.36719,0.2343 -0.58594,-0.078 -1.21094,0.1172 -0.58594,0.1953 -1.13281,0.4297 -0.625,0.2735 -1.17188,0.6641 -0.35156,0.2344 -0.82031,0.7031 -0.42969,0.4688 -1.25,0.8984 -0.82031,0.4297 -2.1875,0.7422 -1.32813,0.2735 -3.4375,0.1953 -2.53906,-0.078 -4.25781,-0.8984 -1.71875,-0.8594 -2.77344,-2.0703 -1.05469,-1.25 -1.52344,-2.6953 -0.46875,-1.4453 -0.50781,-2.6953 -0.0391,-1.25 0.74219,-2.6172 0.78125,-1.3672 2.1875,-2.5 1.44531,-1.1328 3.47656,-1.836 2.03125,-0.7421 4.45312,-0.7421 1.40625,0 2.57813,0.3515 1.21094,0.3125 2.1875,0.8594 1.01562,0.5469 1.75781,1.25 0.74219,0.6641 1.25,1.3672 0.50781,0.7422 0.85938,1.5625 0.3125,0.7031 0.50781,1.6015 0.19531,0.8985 0.11719,1.836 -2.96875,0.078 -4.80469,0.1172 -1.79688,0.039 -2.8125,0.039 l -1.75781,0 -1.32813,0 q -0.70312,0 -1.83594,0.039 -1.13281,0.039 -2.77343,0.1172 0.19531,1.5625 0.97656,2.4219 0.82031,0.8203 1.71875,1.25 1.01562,0.4687 2.22656,0.5468 z m -3.51562,-7.0312 q 1.25,0.078 2.07031,0.1172 0.85937,0.039 1.40625,0.078 0.58594,0.039 0.9375,0.039 l 0.97656,0 q 0.97656,0 3.63281,-0.1172 -0.11718,-1.7188 -0.74218,-2.6172 -0.58594,-0.8985 -1.25,-1.3281 -0.78125,-0.4688 -1.71875,-0.5469 -2.53907,0.039 -3.78907,1.0547 -1.21093,1.0156 -1.52343,3.3203 z"
         style="font-style:normal;font-variant:normal;font-weight:normal;font-stretch:normal;font-family:'Lakki Reddy';-inkscape-font-specification:'Lakki Reddy';fill:#00ff00"
         id="path4334" />
      <path
         d="m 210.9043,1059.7193 q 1.17187,0.1172 1.95312,0.1953 0.82031,0.078 1.32813,0.1172 0.58593,0.039 0.9375,0.039 0.35156,0.039 0.9375,0 0.50781,-0.039 1.32812,-0.078 0.82031,-0.078 2.07031,-0.2344 -0.27343,0.3906 -0.42968,0.7031 -0.15625,0.2734 -0.27344,0.5078 l -0.23438,0.4688 q -0.0781,0.2343 -0.15625,0.4687 -0.0781,0.1953 -0.15625,0.4688 -0.0391,0.2734 -0.0781,0.5859 l 6.01562,0 -0.54687,3.1641 -5.50781,-0.3125 q -0.19532,1.9922 -0.27344,3.0859 -0.0781,1.0938 -0.15625,1.6016 l -0.0781,0.7031 q -0.11718,1.4844 -0.23437,3.2422 -0.11719,1.7187 -0.0781,3.2031 0.0391,1.4844 0.27344,2.5 0.23438,0.9766 0.82031,0.9766 0.58594,0 1.09375,-0.3125 0.50782,-0.3125 0.85938,-0.7422 0.39062,-0.4297 0.58594,-0.8594 0.19531,-0.4687 0.19531,-0.7031 0,-0.2344 -0.11719,-0.5469 -0.19531,-0.5859 -0.70312,-1.4844 1.13281,0.2735 1.99218,0.5469 0.42969,0.1563 0.78125,0.3125 0.39063,0.1563 0.89844,0.3516 0.42969,0.1953 1.09375,0.4687 0.66406,0.2735 1.5625,0.6641 -0.85937,0.1562 -1.25,0.5078 -0.23437,0.1562 -0.35156,0.3516 -0.27344,0.4296 -0.625,1.1718 -0.35156,0.7032 -1.05469,1.4063 -0.70312,0.7031 -1.91406,1.25 -1.17188,0.5469 -3.16406,0.625 -2.07032,0.078 -3.16407,-0.7031 -1.05468,-0.7813 -1.5625,-1.7969 -0.46875,-1.0547 -0.54687,-2.0703 -0.0781,-1.0157 -0.11719,-1.3672 -0.0391,-0.3516 0,-1.7578 0.0391,-1.4063 0.11719,-3.086 0.0781,-1.7187 0.15625,-3.2812 0.0781,-1.6016 0.0781,-2.3438 0,-0.3906 0.0391,-0.8203 0,-0.3515 0,-0.7422 0.0391,-0.4297 0.0391,-0.8203 l -5.66406,-0.039 -0.23438,-2.2266 5.70313,0.1562 q -0.0781,-0.4296 -0.19532,-0.7812 -0.0781,-0.3906 -0.15625,-0.625 -0.11718,-0.2734 -0.23437,-0.4688 -0.15625,-0.1953 -0.35156,-0.4296 -0.19532,-0.1954 -0.50782,-0.5079 -0.3125,-0.3125 -0.74218,-0.7031 z"
         style="font-style:normal;font-variant:normal;font-weight:normal;font-stretch:normal;font-family:'Lakki Reddy';-inkscape-font-specification:'Lakki Reddy';fill:#00ff00"
         id="path4336" />
      <path
         d="m 235.51367,1066.8287 q 1.01563,0 2.10938,0.3906 1.09375,0.3516 2.10937,0.9375 1.01563,0.5469 1.83594,1.211 0.85937,0.625 1.40625,1.2109 0.97656,1.0547 1.32812,2.8516 0.39063,1.7578 0.15625,3.6328 -0.23437,1.8359 -1.09375,3.4765 -0.85937,1.6407 -2.38281,2.4219 -1.09375,0.5469 -2.14844,0.8594 -1.05468,0.3125 -2.03125,0.4687 -0.97656,0.1563 -1.83593,0.1563 -0.85938,0 -1.48438,-0.039 -1.17187,-0.078 -2.46094,-0.8203 -1.25,-0.7422 -2.38281,-1.8359 -1.09375,-1.0938 -1.875,-2.3828 -0.78125,-1.3282 -0.9375,-2.5 -0.23437,-1.6016 -0.0781,-3.3594 0.15625,-1.7578 1.13281,-3.2422 1.01562,-1.4844 3.04687,-2.4609 2.07032,-0.9766 5.58594,-0.9766 z m -1.28906,15.1562 q 0.42969,0.078 1.17187,-0.1953 0.74219,-0.3125 1.44532,-0.9765 0.74218,-0.6641 1.28906,-1.6797 0.58594,-1.0547 0.70312,-2.5391 0.11719,-1.4453 0,-2.6562 -0.0781,-1.211 -0.35156,-2.1094 -0.27344,-0.9375 -0.625,-1.5234 -0.35156,-0.586 -0.74219,-0.8204 -0.66406,-0.3515 -1.60156,-0.5468 -0.9375,-0.2344 -1.60156,0.078 -0.3125,0.1562 -0.78125,0.6641 -0.46875,0.5078 -0.9375,1.289 -0.46875,0.7422 -0.85938,1.7188 -0.35156,0.9765 -0.50781,2.0312 -0.15625,1.0547 -0.0781,2.2656 0.11718,1.211 0.50781,2.3047 0.39062,1.0547 1.09375,1.836 0.74219,0.7422 1.875,0.8593 z"
         style="font-style:normal;font-variant:normal;font-weight:normal;font-stretch:normal;font-family:'Lakki Reddy';-inkscape-font-specification:'Lakki Reddy';fill:#00ff00"
         id="path4338" />
      <path
         d="m -53.753906,1156.9661 q 2.90039,0.3516 5.273437,0.5274 2.285157,0.1758 3.955078,0.3515 1.933594,0.1758 3.427735,0.2637 1.582031,0 4.042969,-0.088 2.109375,-0.088 5.361328,-0.2637 3.251953,-0.1757 7.998047,-0.6152 -2.285157,1.3184 -3.779297,2.6367 -1.40625,1.3184 -2.197266,2.3731 -0.966797,1.2304 -1.40625,2.4609 -0.263672,1.6699 0.175781,6.5039 0.175782,2.0215 0.527344,5.0098 0.439453,2.9004 1.054688,6.9433 0.703125,3.9551 1.669921,9.1407 1.054688,5.1855 2.373047,11.7773 1.757813,-5.0097 2.900391,-8.8769 1.142578,-3.9551 1.933594,-6.7676 0.878906,-3.1641 1.49414,-5.625 0.615235,-2.5488 1.494141,-6.5918 0.703125,-3.4277 1.845703,-8.877 1.142578,-5.4492 2.8125,-13.4472 l 3.1640625,0.4394 q 0.4394531,6.2403 0.8789062,10.9864 0.5273438,4.746 0.8789063,8.0859 0.3515625,3.8672 0.703125,6.6797 0.3515625,2.5488 1.0546875,5.8886 0.6152344,2.8125 1.5820313,6.9434 0.9667968,4.043 2.5488281,9.1406 1.58203122,-6.2402 2.81249998,-11.1621 1.31835942,-4.9219 2.19726562,-8.7011 0.9667969,-3.7793 1.5820312,-6.504 0.703125,-2.7246 1.1425782,-4.5703 0.9667968,-4.3945 1.1425781,-5.8886 -0.087891,-1.67 -0.7910156,-3.252 -0.6152344,-1.4062 -1.9335938,-3.0762 -1.3183593,-1.6699 -3.86718747,-3.2519 5.36132807,0.1758 8.70117187,0.2637 3.427734,0 5.449219,0 l 3.515625,0 3.164062,0 q 1.757813,0 4.570313,0 2.90039,-0.088 7.382812,-0.2637 -3.867187,2.0215 -6.240234,3.6914 -2.373047,1.6699 -3.691406,2.8125 -1.582032,1.4062 -2.285157,2.373 -0.703125,1.7578 -2.285156,7.9102 -0.703125,2.6367 -1.582031,6.5918 -0.878906,3.8672 -2.109375,9.3164 -1.142578,5.4492 -2.636719,12.7441 -1.49414,7.2071 -3.3398436,16.5235 l -15.2050781,-1.5821 -6.5039063,-27.3339 q -1.494141,7.4707 -2.373047,12.1289 -0.878906,4.5703 -1.318359,7.1191 -0.527344,3.0762 -0.615235,4.4824 -0.08789,1.2305 -0.175781,2.3731 -0.08789,0.9668 -0.263672,2.1093 -0.08789,1.1426 -0.263672,2.1094 l -15.55664,0 q -2.285156,-10.0195 -4.13086,-17.666 -1.757812,-7.7344 -3.164062,-13.5351 -1.40625,-5.8008 -2.460938,-9.8438 -0.966796,-4.043 -1.757812,-6.7676 -1.757813,-6.3281 -2.548828,-7.8222 -0.615235,-0.7032 -1.582031,-1.67 -0.791016,-0.791 -1.933594,-1.9336 -1.230469,-1.2304 -2.8125,-2.7246 z"
         style="font-style:normal;font-variant:normal;font-weight:normal;font-stretch:normal;font-size:90px;font-family:'Lakki Reddy';-inkscape-font-specification:'Lakki Reddy';fill:#ffffff"
         id="path4340" />
      <path
         d="m 23.238281,1158.1966 q 2.988281,0.3516 5.009766,0.5273 2.109375,0.088 3.427734,0.2637 1.582031,0.1758 2.460938,0.1758 0.966797,0.088 2.90039,-0.088 1.669922,-0.1758 4.482422,-0.4394 2.900391,-0.2637 7.382813,-0.7911 -2.021485,1.7579 -3.251953,3.4278 -1.142579,1.582 -1.757813,2.8125 -0.791016,1.4941 -0.966797,2.8125 -0.351562,2.1093 -0.615234,5.8008 -0.175781,3.6035 -0.351563,7.9101 -0.175781,4.3067 -0.175781,8.877 0,4.5703 0.08789,8.7011 0.175781,4.043 0.527343,7.2071 0.439454,3.164 1.054688,4.5703 0.878906,1.582 1.845703,3.164 0.878906,1.3184 2.109375,2.7247 1.230469,1.4062 2.8125,2.2851 -5.185547,-0.2637 -8.261719,-0.2637 l -3.164062,0 q -1.40625,0 -3.603516,0.1758 -1.845703,0.1758 -4.658203,0.3516 -2.8125,0.1758 -6.767578,0.5273 2.021484,-2.1972 3.164062,-4.2187 1.142579,-2.0215 1.845704,-3.5157 0.791015,-1.7578 1.054687,-3.3398 0.351563,-2.2852 0.527344,-5.625 0.263672,-3.4277 0.351562,-7.2949 0.08789,-3.9551 0,-7.9981 0,-4.1308 -0.175781,-7.9101 -0.175781,-3.7793 -0.527344,-6.8555 -0.263672,-3.0762 -0.703125,-4.9219 -0.263672,-1.1425 -1.054687,-2.5488 -0.703125,-1.2305 -1.933594,-2.8125 -1.142578,-1.6699 -3.076172,-3.6914 z"
         style="font-style:normal;font-variant:normal;font-weight:normal;font-stretch:normal;font-size:90px;font-family:'Lakki Reddy';-inkscape-font-specification:'Lakki Reddy';fill:#ffffff"
         id="path4342" />
      <path
         d="m 51.099609,1157.4056 q 3.603516,0.4394 7.294922,0.6152 3.779297,0.1758 6.855469,0.1758 3.603516,0 7.03125,-0.1758 3.515625,-0.088 7.382812,-0.3515 3.339844,-0.1758 7.558594,-0.4395 4.21875,-0.2637 8.789063,-0.5273 l 0.527343,7.6464 q 0,0.7911 0.08789,2.0215 0,1.0547 0,2.6367 0.08789,1.5821 0.175781,3.6915 -3.164062,2.7246 -5.71289,5.1855 -2.460938,2.373 -4.21875,4.2188 -2.109375,2.1972 -3.691407,4.0429 -2.021484,2.3731 -4.30664,5.8008 -2.285156,3.3398 -4.306641,6.5918 -1.933594,3.1641 -3.164062,5.7129 -1.230469,2.4609 -1.054688,3.0762 0.08789,0.4394 1.757813,0.5273 1.669922,0 4.042968,-0.1758 2.460938,-0.1758 5.361329,-0.5273 2.988281,-0.4395 5.537109,-0.8789 2.636719,-0.5274 4.658203,-1.0547 2.021484,-0.5274 2.636719,-1.0547 0.791015,-0.7031 1.757812,-2.5488 0.878907,-1.5821 1.933594,-4.3946 1.142578,-2.9004 2.548827,-7.7343 0.0879,3.6035 0.0879,6.1523 0.0879,2.5488 0.26367,4.3066 0.0879,2.0215 0.26368,3.3399 0.0879,1.4062 0.35156,3.1641 0.17578,1.4941 0.43945,3.7793 0.26367,2.2851 0.70313,5.0976 -6.328129,-0.791 -10.634769,-1.0547 -4.306641,-0.3515 -6.94336,-0.4394 -3.076172,-0.088 -4.921875,0 -1.933594,0.2636 -5.273437,0.791 -2.8125,0.4394 -7.470703,1.4062 -4.658204,0.8789 -11.689454,2.3731 -0.175781,-1.6699 -0.351562,-2.9004 -0.175781,-1.2305 -0.351563,-2.1973 -0.175781,-0.9668 -0.351562,-1.8457 -0.175781,-0.791 -0.439453,-2.1972 -0.175781,-1.2305 -0.615235,-2.9883 -0.351562,-1.8457 -0.878906,-4.5703 5.273438,-5.4493 8.701172,-9.1407 3.515625,-3.7793 5.625,-6.1523 2.460938,-2.8125 3.867188,-4.4824 1.318359,-1.67 3.427734,-4.043 1.757812,-2.0215 4.570312,-5.0098 2.8125,-3.0761 6.767579,-7.2949 -4.042969,-0.1758 -7.558594,0 -3.427735,0.1758 -5.976563,0.5274 -2.988281,0.3515 -5.537109,0.9668 -2.373047,0.7031 -4.833984,2.2851 -2.109375,1.3184 -4.570313,3.6914 -2.460937,2.3731 -4.658203,6.1524 -0.175781,-2.9004 -0.263672,-4.9219 -0.08789,-2.0215 -0.175781,-3.3399 -0.08789,-1.4941 -0.175781,-2.4609 0,-0.9668 -0.175782,-2.5488 -0.175781,-1.3184 -0.351562,-3.3399 -0.175781,-2.1093 -0.351563,-5.1855 z"
         style="font-style:normal;font-variant:normal;font-weight:normal;font-stretch:normal;font-size:90px;font-family:'Lakki Reddy';-inkscape-font-specification:'Lakki Reddy';fill:#ffffff"
         id="path4344" />
      <path
         d="m 119.74219,1159.2513 q 4.39453,0.2637 7.38281,0.4394 3.07617,0.088 5.09766,0.1758 2.28515,0.088 3.86718,0 1.58203,-0.088 4.30664,-0.4394 2.28516,-0.2637 6.06446,-0.791 3.86718,-0.6153 9.58008,-1.5821 -2.02149,2.0215 -3.16407,3.6914 -1.05468,1.5821 -1.66992,2.7246 -0.70312,1.4063 -0.9668,2.3731 -0.17578,0.8789 0.35157,4.3945 0.52734,3.5156 1.49414,8.3496 0.96679,4.7461 2.10937,10.1953 1.14258,5.3614 2.28516,10.1075 1.14258,4.6582 2.02148,7.998 0.9668,3.252 1.40625,3.8672 1.31836,1.8457 1.66992,2.4609 0.35157,0.5274 1.23047,0.9668 0.35157,0.1758 1.14258,0.5274 0.70313,0.3515 1.8457,0.8789 1.23047,0.5273 3.07618,1.2304 -3.42774,0.1758 -5.88868,0.2637 -2.46093,0 -4.04296,0.088 -1.84571,0.088 -3.16407,0.1758 -1.31836,0 -3.16406,0.1758 -1.58203,0.1758 -4.13086,0.3515 -2.46094,0.1758 -5.80078,0.3516 1.75781,-1.2305 2.8125,-2.1973 1.14258,-1.0547 1.75781,-1.7578 0.70313,-0.8789 0.9668,-1.582 0.17578,-0.791 0.26367,-2.3731 0.0879,-1.4062 0,-3.6914 -0.0879,-2.373 -0.43945,-6.1523 l -23.11524,2.373 q -0.8789,1.4942 -1.31835,2.6368 -0.43946,1.0546 -0.61524,1.8457 -0.26367,0.9668 -0.17578,1.582 0.17578,0.7031 0.61523,1.6699 0.43946,0.8789 1.23047,2.1094 0.87891,1.1426 2.54883,2.7246 -2.19726,-0.088 -4.48242,-0.088 -2.28516,0 -4.21875,0.088 -2.28516,0.088 -4.48242,0.1758 -2.19727,0.088 -5.00977,0.2637 -2.37305,0.1757 -5.53711,0.4394 -3.25195,0.1758 -6.943358,0.5273 2.285157,-1.0546 3.867188,-2.1093 1.58203,-1.1426 2.63672,-2.1094 1.23047,-1.0547 2.10937,-2.0215 0.61524,-0.8789 2.46094,-4.043 1.8457,-3.2519 4.13086,-7.6464 2.37305,-4.3946 4.92188,-9.4043 2.63671,-5.0098 4.74609,-9.4043 2.10937,-4.4825 3.42773,-7.7344 1.31836,-3.252 1.31836,-4.2188 -0.17578,-1.1425 -0.8789,-2.5488 -0.61524,-1.2305 -1.9336,-2.8125 -1.23047,-1.582 -3.60351,-3.5156 z m 27.24609,34.7168 q -0.52734,-3.0762 -0.9668,-5.2735 -0.43945,-2.2851 -0.70312,-3.7792 -0.35156,-1.7579 -0.52734,-3.0762 -0.26368,-1.2305 -0.61524,-3.1641 -0.35156,-1.6699 -0.87891,-4.1308 -0.43945,-2.5489 -1.14257,-6.0645 -5.00977,10.0195 -7.82227,15.5566 -2.72461,5.4493 -3.95508,7.9981 -1.49414,2.9883 -1.66992,3.5156 l 18.28125,-1.582 z"
         style="font-style:normal;font-variant:normal;font-weight:normal;font-stretch:normal;font-size:90px;font-family:'Lakki Reddy';-inkscape-font-specification:'Lakki Reddy';fill:#ffffff"
         id="path4346" />
      <path
         d="m 161.22656,1154.5931 q 2.8125,0.4394 5.09766,0.791 2.28515,0.2637 3.95508,0.4395 1.93359,0.2636 3.42773,0.4394 1.8457,0.2637 5.53711,-0.6152 3.69141,-0.9668 8.08594,-1.7578 4.48242,-0.8789 9.14062,-0.9668 4.65821,-0.1758 8.52539,1.6699 3.86719,1.8457 6.32813,3.6914 2.46094,1.8457 3.86719,3.9551 1.49414,2.0215 2.10937,4.3066 0.61524,2.2852 0.70313,5.0098 -0.0879,4.0429 -1.9336,7.8222 -0.79101,1.5821 -2.10937,3.3399 -1.23047,1.6699 -3.07617,3.2519 -1.84571,1.5821 -4.39454,2.9883 -2.46093,1.4063 -5.80078,2.461 3.25196,0.9668 5.36133,2.2851 2.19727,1.3184 3.51563,2.461 1.58203,1.4062 2.37304,2.7246 0.9668,1.8457 1.31836,3.164 0.35156,1.3184 0.43946,2.5489 0.17578,1.1425 0.43945,2.373 0.26367,1.2305 1.14258,2.8125 0.70312,1.2305 1.66992,2.5488 0.8789,1.1426 2.02148,2.461 1.23047,1.3183 2.98828,2.5488 -2.46093,0.088 -4.57031,0.088 -2.02148,0 -3.51562,0 -1.75782,0 -3.33985,-0.088 -1.58203,-0.088 -3.95508,-0.088 -2.02148,0 -5.18554,0 -3.07617,0 -7.47071,0.088 1.9336,-1.4941 3.16407,-2.9883 1.23047,-1.4941 1.93359,-2.7246 0.79102,-1.4062 1.14258,-2.7246 0.43945,-2.3731 0.0879,-4.9219 -0.26367,-2.1972 -1.40625,-4.834 -1.14258,-2.7246 -3.69141,-5.4492 -2.54882,0.4395 -4.30664,0.7031 -1.66992,0.1758 -2.90039,0.3516 -1.40625,0.1758 -2.28515,0.2637 -0.79102,0.088 -1.75782,0.1758 -0.79101,0.088 -1.75781,0.2636 -0.87891,0.088 -1.66992,0.2637 -0.17578,3.7793 0,6.5918 0.17578,2.7246 0.43945,4.5703 0.35156,2.1973 0.79102,3.7793 0.43945,1.582 1.23047,3.0762 0.61523,1.2304 1.58203,2.6367 0.96679,1.3184 2.19726,2.1973 -2.28515,0 -4.39453,0 -2.02148,0 -3.6914,-0.088 -1.9336,0 -3.69141,-0.088 -1.75781,-0.088 -3.95508,-0.088 -1.8457,0 -4.39453,0 -2.46094,0 -5.36133,0.088 2.28516,-2.3731 3.60352,-4.043 1.31836,-1.6699 2.02148,-2.8125 0.79102,-1.2305 0.9668,-2.1094 0.17578,-1.4062 0.26367,-5.0097 0.17578,-3.6914 0.26367,-8.4375 0.0879,-4.7461 0.0879,-9.9317 0,-5.1855 -0.0879,-9.6679 -0.0879,-4.5704 -0.17578,-7.8223 -0.0879,-3.252 -0.17578,-4.1309 -0.26367,-1.582 -1.14258,-3.164 -0.70312,-1.4063 -2.02148,-3.1641 -1.31836,-1.7578 -3.60352,-3.5156 z m 33.22266,30.9375 q 0.8789,-0.5274 1.49414,-1.0547 0.61523,-0.5273 1.05469,-1.6699 0.43945,-1.2305 0.70312,-3.4278 0.35156,-2.1972 0.79102,-5.9765 0.35156,-3.7793 -0.52735,-6.2403 -0.79101,-2.4609 -2.19726,-3.8671 -1.31836,-1.4942 -2.98828,-2.0215 -1.58203,-0.6153 -2.8125,-0.6153 -2.46094,0 -4.83399,1.4942 -2.37304,1.4941 -3.60351,4.0429 -0.43946,1.1426 -0.79102,3.7793 -0.26367,2.2852 -0.35156,6.3282 -0.0879,4.0429 0.26367,10.6347 3.33984,0.5274 5.88867,0.4395 2.54883,-0.1758 4.30664,-0.6152 2.10938,-0.4395 3.60352,-1.2305 z"
         style="font-style:normal;font-variant:normal;font-weight:normal;font-stretch:normal;font-size:90px;font-family:'Lakki Reddy';-inkscape-font-specification:'Lakki Reddy';fill:#ffffff"
         id="path4348" />
      <path
         d="m 218.44336,1156.0872 q 3.07617,0.4395 5.36133,0.7032 2.28515,0.2636 3.77929,0.4394 1.75782,0.1758 2.98829,0.2637 1.40625,0.1758 3.42773,-0.1758 2.10937,-0.3516 4.48242,-0.7031 2.37305,-0.4395 4.92188,-0.7032 2.54882,-0.2636 4.92187,0 1.58203,0.1758 4.04297,0.7032 2.46094,0.5273 5.18555,1.6699 2.8125,1.1426 5.625,2.9883 2.8125,1.8457 5.09765,4.6582 2.28516,2.8125 3.7793,6.6797 1.49414,3.8672 1.66992,9.0527 0.26367,7.7344 -1.40625,14.0625 -1.66992,6.3281 -5.18554,10.8105 -3.42774,4.4825 -8.70118,7.0313 -5.27343,2.5488 -12.30468,2.8125 -5.36133,0.4394 -10.54688,0.791 -2.19726,0.1758 -4.6582,0.2637 -2.37305,0.088 -4.7461,0.1758 -2.37304,0 -4.57031,-0.088 -2.19726,-0.088 -4.04297,-0.2637 2.02149,-0.9668 3.25196,-1.9336 1.31836,-0.9668 2.02148,-1.6699 0.79102,-0.8789 1.14258,-1.582 0.17578,-0.9668 0.52734,-3.7793 0.26367,-2.3731 0.70313,-6.7676 0.43945,-4.3946 1.05468,-11.9531 l 0.52735,-6.2403 q 0.43945,-5.8008 0.35156,-9.4922 0,-3.6914 -0.17578,-5.8007 -0.26367,-2.461 -0.70313,-3.6036 -0.35156,-0.9668 -1.31835,-2.2851 -0.87891,-1.0547 -2.46094,-2.5488 -1.49414,-1.5821 -4.04297,-3.5157 z m 18.54492,32.3438 q 0.17578,7.8222 0.79102,12.041 0.70312,4.1309 1.49414,6.1523 0.96679,2.2852 2.10937,2.7246 1.66992,0 3.7793,-1.4062 2.10937,-1.4941 4.13086,-4.4824 2.10937,-2.9883 3.7793,-7.4707 1.75781,-4.4825 2.54882,-10.459 0.79102,-5.9766 -0.43945,-10.5469 -1.23047,-4.5703 -3.25195,-7.6465 -2.02149,-3.164 -4.13086,-4.7461 -2.10938,-1.6699 -3.16406,-1.6699 -1.23047,0 -2.19727,0.7031 -0.9668,0.6153 -2.72461,2.9004 -0.87891,1.2305 -1.58203,3.5157 -0.61524,2.0214 -1.05469,5.3613 -0.43945,3.3398 -0.26367,8.6133 l 0.17578,6.416 z"
         style="font-style:normal;font-variant:normal;font-weight:normal;font-stretch:normal;font-size:90px;font-family:'Lakki Reddy';-inkscape-font-specification:'Lakki Reddy';fill:#ffffff"
         id="path4350" />
      <path
         d="m 333.49219,1154.4173 q -1.23047,2.8125 -2.19727,4.9219 -0.9668,2.1094 -1.66992,3.6035 -0.79102,1.6699 -1.31836,2.9883 -0.43945,0.9668 -1.14258,2.6367 -0.70312,1.4941 -1.75781,3.9551 -0.9668,2.373 -2.54883,6.1523 -0.79101,-3.2519 -1.93359,-5.7129 -1.14258,-2.4609 -2.46094,-4.3066 -1.31836,-1.8457 -2.8125,-2.9883 -1.40625,-1.2305 -2.8125,-2.0215 -3.25195,-1.7578 -6.85547,-1.9336 -4.74609,0.2637 -7.4707,1.5821 -2.63672,1.2304 -3.86719,2.9003 -1.23047,1.5821 -1.31836,3.3399 -0.0879,1.6699 0.43945,2.8125 0.43946,1.0547 3.07618,2.4609 2.72461,1.4063 6.5039,3.252 3.86719,1.7578 8.26172,4.043 4.39453,2.1972 8.08594,4.9218 3.7793,2.6367 6.32812,5.8008 2.63672,3.0762 2.90039,6.5918 0.26368,4.4824 -0.0879,8.0859 -0.35156,3.6036 -2.46093,6.1524 -2.10938,2.5488 -6.5918,4.043 -4.39453,1.4941 -12.2168,1.8457 -8.08593,0.3515 -13.27148,-0.8789 -5.18555,-1.2305 -8.4375,-3.3399 -3.16406,-2.1094 -4.7461,-4.6582 -1.49414,-2.5488 -2.19726,-4.834 -0.70313,-2.373 -0.9668,-4.0429 -0.26367,-1.7579 -0.8789,-2.1094 -0.70313,-0.4395 -1.40625,-0.791 -0.61524,-0.3516 -1.31836,-0.6153 -0.70313,-0.3515 -1.40625,-0.6152 l 25.57617,-4.1309 q -2.19727,1.7578 -3.42774,3.252 -1.14257,1.4941 -1.75781,2.6367 -0.70312,1.3184 -0.9668,2.4609 -0.17578,1.2305 0.79102,3.0762 0.9668,1.8457 2.63672,3.6035 1.75781,1.67 4.04297,2.8125 2.28515,1.1426 4.74609,0.9668 3.07617,-0.2636 5.00977,-1.4941 1.93359,-1.3184 2.90039,-3.252 1.05469,-1.9336 1.23047,-4.2187 0.17578,-2.2852 -0.43946,-4.4824 -0.52734,-2.2852 -1.75781,-4.2188 -1.23047,-2.0215 -2.90039,-3.3398 -1.49414,-1.0547 -4.6582,-2.0215 -3.07617,-0.9668 -6.94336,-2.1094 -3.7793,-1.1426 -7.82227,-2.6367 -3.95508,-1.4942 -7.20703,-3.6914 -3.16406,-2.1973 -5.09766,-5.1856 -1.8457,-2.9882 -1.40625,-7.207 0.35157,-3.6035 2.28516,-5.9766 2.02149,-2.4609 5.00977,-3.8671 3.07617,-1.4942 6.76757,-2.1973 3.7793,-0.7031 7.64649,-0.791 3.95508,-0.1758 7.73437,0.088 3.86719,0.2636 6.94336,0.6152 3.07618,0.3516 5.18555,0.7031 2.19727,0.2637 2.72461,0.3516 2.28516,0.1758 4.57031,-0.088 2.02149,-0.1758 4.39453,-0.791 2.46094,-0.7031 4.7461,-2.1094 z"
         style="font-style:normal;font-variant:normal;font-weight:normal;font-stretch:normal;font-size:90px;font-family:'Lakki Reddy';-inkscape-font-specification:'Lakki Reddy';fill:#ffffff"
         id="path4352" />
      <path
         d="m -149.55469,1264.9837 q 4.7461,0.1758 9.58008,1.7578 4.92188,1.4942 9.05274,4.9219 4.13085,3.3398 7.03124,8.7012 2.9004,5.2734 3.60352,12.9199 0.61523,6.2402 -1.58203,12.3926 -2.10938,6.0644 -5.88867,11.1621 -3.7793,5.0976 -8.70117,8.7012 -4.92188,3.5156 -9.84375,4.6582 -2.98829,0.7031 -6.5918,0.1757 -3.51563,-0.6152 -7.20703,-2.1972 -3.60352,-1.67 -7.11914,-4.2188 -3.42774,-2.5488 -6.24024,-5.8008 -2.8125,-3.3398 -4.74609,-7.207 -1.8457,-3.8672 -2.28516,-8.0859 -0.43945,-3.5157 -0.0879,-7.7344 0.43946,-4.3066 1.66992,-8.5254 1.31836,-4.3066 3.60352,-8.2617 2.37305,-4.043 5.97656,-7.0313 3.60352,-3.0761 8.4375,-4.7461 4.92188,-1.7578 11.33789,-1.582 z m -15.73242,35.5957 q -1.23047,9.4043 1.75781,15.1172 3.07618,5.7129 9.22852,6.9434 2.98828,0.6152 5.71289,-1.2305 2.8125,-1.9336 5.09766,-5.5371 2.28515,-3.6035 3.95507,-8.4375 1.66993,-4.834 2.46094,-10.1074 0.79102,-5.2735 0.0879,-9.4922 -0.61523,-4.3067 -2.19726,-7.2949 -1.58203,-3.0762 -3.86719,-4.7461 -2.19727,-1.67 -4.57031,-1.8457 -4.13086,-0.2637 -7.20703,2.1972 -3.07618,2.3731 -5.18555,6.2403 -2.10938,3.8671 -3.42774,8.7011 -1.23046,4.834 -1.8457,9.4922 z"
         style="font-style:normal;font-variant:normal;font-weight:normal;font-stretch:normal;font-size:90px;font-family:'Lakki Reddy';-inkscape-font-specification:'Lakki Reddy';fill:#ffffff"
         id="path4354" />
      <path
         d="m -116.5957,1270.6087 q 5.27343,0.4395 9.22851,0.5274 4.04297,0.088 6.85547,0.088 3.251954,0 5.625001,-0.1757 2.460938,-0.2637 6.416016,-0.7032 3.339844,-0.4394 8.613281,-1.1425 5.273438,-0.7911 12.832031,-2.0215 -0.966796,1.4941 -1.669921,3.164 -0.615235,1.5821 -1.054688,2.9004 -0.439453,1.5821 -0.791016,3.0762 -0.263671,1.6699 -0.615234,4.1309 -0.351562,2.1093 -0.878906,5.3613 -0.439453,3.1641 -1.142578,7.5586 -2.636719,-6.8555 -5.361328,-10.5469 -2.636719,-3.6914 -4.921875,-5.4492 -2.636719,-2.0215 -5.009766,-2.2852 -3.427734,0 -5.625,1.3184 -2.197266,1.3184 -3.603516,3.4277 -1.318359,2.0215 -2.021484,4.4824 -0.703127,2.3731 -0.966797,4.6583 -0.26367,2.1972 -0.35156,3.955 -0.0879,1.67 -0.17578,2.2852 3.076168,-0.1758 5.185543,-0.4395 2.109375,-0.2636 3.339844,-0.5273 1.494141,-0.3516 2.373047,-0.7031 1.318359,-0.7032 2.636719,-1.67 1.142578,-0.8789 2.373046,-2.1093 1.31836,-1.2305 2.285157,-2.9883 -0.527344,3.164 -0.966797,5.2734 -0.351563,2.1094 -0.615235,3.3399 -0.351562,1.4941 -0.439453,2.2851 -0.175781,0.791 -0.439453,2.1973 -0.263672,1.2305 -0.615234,3.1641 -0.351563,1.9335 -0.791016,4.8339 -1.054687,-1.8457 -2.197265,-2.9882 -1.142579,-1.2305 -2.109375,-1.9336 -1.142579,-0.7911 -2.197266,-1.2305 -1.142578,-0.3516 -2.460938,-0.7031 -1.142578,-0.2637 -2.724609,-0.5274 -1.494145,-0.3515 -3.251955,-0.6152 0.17578,4.7461 0.52735,8.1738 0.35156,3.3399 0.61523,5.625 0.35156,2.6367 0.703125,4.3945 0.439453,1.7579 1.40625,3.7793 0.791016,1.7579 2.197266,4.043 1.49414,2.1973 3.779297,4.7461 -1.757813,-0.4394 -3.691407,-0.6152 -1.933593,-0.1758 -3.427734,-0.2637 -1.845707,-0.088 -3.515627,0 -1.75781,0.088 -3.86719,0.3516 -1.75781,0.1757 -4.04296,0.5273 -2.28516,0.3516 -4.83399,0.791 1.49414,-1.4941 2.46094,-2.9883 0.9668,-1.4941 1.40625,-2.6367 0.52734,-1.3183 0.70312,-2.5488 0.0879,-1.0547 0.0879,-4.5703 0,-3.6035 -0.0879,-8.3496 -0.0879,-4.834 -0.26367,-10.1953 -0.17578,-5.3614 -0.35156,-10.0196 -0.17578,-4.7461 -0.43945,-8.0859 -0.17579,-3.3399 -0.43946,-4.043 -0.35156,-0.8789 -0.79101,-2.0215 -0.70313,-1.8457 -2.90039,-5.3613 z"
         style="font-style:normal;font-variant:normal;font-weight:normal;font-stretch:normal;font-size:90px;font-family:'Lakki Reddy';-inkscape-font-specification:'Lakki Reddy';fill:#ffffff"
         id="path4356" />
      <path
         d="m -51.908203,1267.0931 q 5.888672,0.7031 10.195312,1.0547 4.306641,0.2636 7.119141,0.4394 3.251953,0.1758 5.449219,0.088 2.285156,-0.088 6.240234,-0.4394 3.339844,-0.2637 8.789063,-0.7032 5.4492184,-0.5273 13.6230465,-1.4062 0.0878906,2.0215 0.0878906,3.9551 0.0878906,1.8457 0.17578125,3.2519 0.0878906,1.6699 0.0878906,3.0762 0,1.4941 -0.17578125,3.7793 -0.17578125,1.9336 -0.61523438,4.9219 -0.35156247,2.9004 -1.14257817,6.9433 -1.2304687,-4.7461 -2.3730468,-7.6465 -1.1425781,-2.9882 -2.109375,-4.7461 -1.0546875,-2.0214 -2.109375,-3.0761 -1.1425782,-0.791 -2.7246094,-1.3184 -1.40625,-0.4394 -3.603516,-0.7031 -2.109375,-0.2637 -5.009765,0.088 -0.439453,11.6015 -0.615235,18.8086 -0.175781,7.207 -0.263671,11.25 -0.08789,4.834 -0.08789,6.9433 0.08789,2.9883 0.966797,5.8887 0.703125,2.4609 2.285156,5.0977 1.582031,2.6367 4.570312,4.6582 l -10.722656,0 q -1.49414,0 -3.691406,0.1757 -1.845703,0.1758 -4.746094,0.3516 -2.8125,0.1758 -6.591797,0.6152 1.31836,-2.2851 2.109375,-4.1308 0.791016,-1.8457 1.230469,-3.1641 0.527344,-1.582 0.791016,-2.8125 0.08789,-1.7578 0.439453,-7.1191 0.08789,-2.1973 0.175781,-5.4492 0.175781,-3.252 0.351563,-7.7344 0.263672,-4.4824 0.439453,-10.2832 0.263672,-5.8887 0.527344,-13.2715 -1.582032,-0.4395 -2.988282,0.088 -1.40625,0.4394 -2.460937,1.1426 -1.230469,0.8789 -2.373047,2.1093 -1.142578,1.4942 -2.548828,3.8672 -1.230469,2.0215 -2.8125,5.3614 -1.582031,3.2519 -3.603516,8.0859 -0.439453,-5.0977 -0.615234,-8.3496 -0.175781,-3.3399 -0.263672,-5.1856 -0.08789,-2.1972 -0.08789,-3.2519 0,-0.9668 -0.175781,-2.5488 -0.175781,-1.3184 -0.439453,-3.4278 -0.263672,-2.1972 -0.703125,-5.2734 z"
         style="font-style:normal;font-variant:normal;font-weight:normal;font-stretch:normal;font-size:90px;font-family:'Lakki Reddy';-inkscape-font-specification:'Lakki Reddy';fill:#ffffff"
         id="path4358" />
      <path
         d="m -5.4140625,1268.8509 q 3.0761719,0.3516 5.18554687,0.5273 2.10937503,0.088 3.33984373,0.1758 1.4941406,0.088 2.3730469,0.088 1.4941406,0 3.4277344,-0.088 1.6699216,-0.088 3.8671876,-0.2636 2.285156,-0.2637 4.921875,-0.7911 -1.230469,1.3184 -2.021484,2.5489 -0.791016,1.1425 -1.230469,2.1093 -0.527344,1.0547 -0.878906,1.9336 -0.351563,1.1426 -0.791016,3.5157 -0.439453,2.0214 -0.966797,5.7128 -0.439453,3.6915 -1.142578,9.668 2.988281,0.088 5.185547,0.088 2.197265,-0.088 3.691406,-0.088 l 2.900391,0 q 1.230468,-0.088 2.8125,-0.1758 2.636718,-0.088 7.998046,-0.5273 0.439454,-4.043 0.439454,-6.9434 0.08789,-2.9882 -0.08789,-5.0097 -0.175781,-2.2852 -0.527344,-3.8672 -0.263672,-0.8789 -0.791015,-2.1094 -0.439454,-1.0547 -1.230469,-2.5488 -0.703125,-1.5821 -1.933594,-3.7793 2.285156,0.3515 4.042969,0.5273 1.845703,0.088 3.076172,0.1758 1.40625,0.088 2.373047,0.088 0.966796,0 2.548828,-0.088 1.318359,-0.088 3.251953,-0.088 1.933594,-0.088 4.746094,-0.2637 -0.703125,1.2305 -1.230469,2.5489 -0.527344,1.3183 -0.878906,2.373 -0.351563,1.2305 -0.703125,2.461 -0.439454,1.8457 -0.791016,5.3613 -0.263672,3.5156 -0.527344,7.8222 -0.175781,4.3067 -0.351562,8.9649 -0.08789,4.6582 -0.175782,8.7891 0,4.1308 0.08789,7.3828 0.08789,3.164 0.351563,4.4824 0.263671,1.582 0.878906,3.2519 0.527344,1.4942 1.40625,3.252 0.878906,1.6699 2.285156,3.1641 l -21.181641,1.582 q 1.31836,-1.2305 2.109375,-2.3731 0.791016,-1.2304 1.230469,-2.1093 0.439453,-0.9668 0.615235,-1.8457 0.08789,-1.0547 0.263671,-3.6914 0.175782,-2.1973 0.351563,-6.2403 0.175781,-4.0429 0.351562,-10.7226 -1.230468,0 -2.988281,0.088 -1.669922,0 -3.164062,0.088 -1.757813,0.088 -3.691407,0.088 -1.933593,0.088 -4.042968,0.1758 -1.757813,0.1758 -3.955078,0.3516 -2.109375,0.088 -4.21875,0.2637 -0.175782,3.6914 0,6.5039 0.175781,2.7246 0.527343,4.6582 0.351563,2.2851 0.878907,3.955 0.527343,1.5821 1.142578,3.1641 0.527344,1.4063 1.230469,2.9883 0.791015,1.582 1.582031,2.8125 -1.669922,-0.1758 -3.076172,-0.2637 -1.40625,-0.1758 -2.460938,-0.3515 -1.2304684,-0.088 -2.3730465,-0.1758 -1.1425781,0 -2.7246094,-0.088 -1.40625,-0.088 -3.515625,-0.088 -2.10937497,-0.088 -4.921875,-0.088 1.6699219,-1.6699 2.63671877,-3.252 1.05468753,-1.6699 1.49414063,-2.9882 0.5273438,-1.5821 0.703125,-2.9004 0.087891,-1.1426 0.087891,-4.3067 0.087891,-3.164 0,-7.207 0,-4.1309 -0.087891,-8.6133 -0.087891,-4.5703 -0.2636719,-8.5254 -0.087891,-3.955 -0.2636719,-6.7675 -0.087891,-2.9004 -0.1757812,-3.6036 -0.4394531,-1.582 -1.31835937,-3.4277 -0.79101563,-1.4941 -2.10937503,-3.4277 -1.3183594,-2.0215 -3.6035156,-4.043 z"
         style="font-style:normal;font-variant:normal;font-weight:normal;font-stretch:normal;font-size:90px;font-family:'Lakki Reddy';-inkscape-font-specification:'Lakki Reddy';fill:#ffffff"
         id="path4360" />
      <path
         d="m 46.792969,1271.2239 q 6.152343,0.1758 10.195312,0.2637 4.13086,0 6.679688,0 l 4.658203,0 26.191406,0 q 0.175781,1.7578 0.263672,3.4278 0.175781,1.582 0.175781,2.8125 0,1.4941 -0.08789,2.7246 -0.08789,1.2304 -0.263672,2.6367 -0.175782,1.2304 -0.351563,2.6367 -0.175781,1.4062 -0.615234,2.9004 -1.230469,-4.7461 -3.339844,-7.207 -2.021484,-2.461 -4.130859,-3.6036 -2.460938,-1.3183 -5.185547,-1.4062 -3.603516,0.1758 -5.625,0.6152 -2.021485,0.4395 -3.164063,1.2305 -1.142578,0.791 -1.757812,1.8457 -0.527344,0.9668 -1.142578,2.1973 -0.527344,1.0547 -0.966797,3.2519 -0.439453,1.8457 -0.878906,5.0098 -0.351563,3.164 -0.791016,8.1738 2.373047,-0.7031 3.779297,-1.3183 1.49414,-0.6153 2.373047,-1.0547 0.966797,-0.5274 1.40625,-0.9668 0.351562,-0.5274 1.054687,-1.9336 0.527344,-1.2305 1.40625,-3.3399 0.966797,-2.1093 2.285156,-5.8008 0.175782,4.043 0.175782,6.7676 0,2.6367 0.08789,4.3067 0,1.9336 0.08789,3.0761 l 0,3.3399 q 0,1.8457 0,5.0097 0.08789,3.0762 0.263672,7.8223 -1.054688,-3.2519 -1.933594,-5.0976 -0.791016,-1.9336 -1.40625,-2.9004 -0.703125,-1.1426 -1.230469,-1.5821 -0.615234,-0.1757 -1.669922,-0.3515 -0.966796,-0.088 -2.460937,-0.088 -1.40625,0 -3.603516,0.4394 -0.263672,4.834 -0.08789,7.8223 0.263672,2.9004 0.703125,4.4824 0.439453,1.8457 1.054687,2.6367 0.791016,0.7911 3.164063,1.3184 2.373047,0.4395 5.361328,0.3516 3.076172,-0.1758 6.240234,-1.0547 3.164063,-0.8789 5.625,-2.9004 1.845703,-1.6699 3.955078,-4.2188 1.757813,-2.1972 3.867188,-5.5371 2.197265,-3.3398 4.306643,-8.0859 -0.35156,3.9551 -0.52735,6.5918 -0.0879,2.5488 -0.26367,4.1308 -0.17578,1.8457 -0.26367,2.8125 0,1.0547 -0.26367,2.9883 -0.175783,1.6699 -0.615236,4.5703 -0.351563,2.8125 -0.966797,7.2071 -4.13086,0.088 -7.822266,0.1758 -3.691406,0 -6.503906,0.088 -3.339844,0.088 -6.152344,0.1758 -2.90039,0 -6.416015,0.2637 -3.076172,0.1758 -7.294922,0.5273 -4.13086,0.3516 -9.140625,0.9668 0.439453,-5.9765 0.615234,-11.25 0.263672,-5.3613 0.351563,-9.4043 0.08789,-4.7461 0,-8.789 0.439453,-10.1074 -0.351563,-16.3477 -0.791016,-6.2402 -1.845703,-7.998 -0.527344,-0.6153 -1.494141,-1.4942 -0.791015,-0.7031 -2.197265,-1.6699 -1.40625,-0.9668 -3.515625,-2.1973 z"
         style="font-style:normal;font-variant:normal;font-weight:normal;font-stretch:normal;font-size:90px;font-family:'Lakki Reddy';-inkscape-font-specification:'Lakki Reddy';fill:#ffffff"
         id="path4362" />
      <path
         d="m 124.66406,1268.4114 q 2.8125,0.7032 5.36133,1.0547 2.54883,0.3516 4.48242,0.5274 2.28516,0.2636 4.21875,0.1758 2.46094,0 6.15235,-0.4395 3.77929,-0.4394 7.73437,-0.791 3.95508,-0.4395 7.55859,-0.5274 3.69141,-0.1757 5.97657,0.4395 2.28515,0.5273 4.6582,1.6699 2.46094,1.0547 4.48242,2.7246 2.02149,1.5821 3.33985,3.7793 1.31836,2.1094 1.49414,4.834 -0.0879,3.4277 -1.58203,6.416 -1.23047,2.5489 -4.13086,5.2735 -2.90039,2.6367 -8.34961,4.0429 2.72461,0.3516 4.6582,1.2305 2.02148,0.791 3.42773,1.9336 1.49414,1.0547 2.37305,2.373 0.9668,1.3184 1.49414,2.6368 1.31836,3.0761 1.23047,6.8554 -0.52734,4.9219 -2.02148,7.8223 -1.40625,2.9004 -3.25196,4.4824 -1.8457,1.582 -3.77929,2.1973 -1.9336,0.6152 -3.51563,0.9668 -1.58203,0.3515 -3.86719,0.3515 -2.28515,0 -4.92187,-0.088 -2.54883,-0.1758 -5.27344,-0.2637 -2.72461,-0.1758 -5.18555,0 -2.02148,0.1758 -4.92187,0.3515 -2.46094,0.1758 -6.15234,0.4395 -3.69141,0.1758 -8.61329,0.4394 0.9668,-0.7031 1.58204,-1.582 0.70312,-0.9668 1.14257,-1.6699 0.43946,-0.8789 0.79102,-1.6699 0.26367,-0.7032 0.43945,-3.8672 0.17578,-3.1641 0.26367,-7.5586 0.0879,-4.4824 0.0879,-9.5801 0.0879,-5.1855 -0.0879,-9.9316 -0.0879,-4.834 -0.35156,-8.5254 -0.17578,-3.7793 -0.52734,-5.4492 -0.52735,-1.8457 -1.40625,-3.7793 -0.70313,-1.67 -2.02149,-3.6035 -1.23046,-1.9336 -2.98828,-3.6915 z m 18.54492,8.9649 q 0,0.3516 0.0879,2.373 0.0879,1.7578 0.17579,5.4493 0.17578,3.6035 0.43945,10.2832 2.19726,0.9668 4.30664,1.0546 2.10937,0 3.7793,-0.1757 1.93359,-0.2637 3.6914,-0.8789 2.37305,-0.9668 3.69141,-3.1641 1.40625,-2.1973 1.8457,-4.5703 0.52735,-2.461 0.26367,-4.5703 -0.26367,-2.1973 -1.14257,-3.1641 -1.66993,-1.4941 -4.13086,-2.4609 -2.10938,-0.791 -5.36133,-1.0547 -3.16406,-0.3516 -7.64649,0.8789 z m -0.43945,41.6601 q 3.25195,1.67 5.71289,2.1973 2.46094,0.5274 4.13086,0.5274 1.93359,0 3.33984,-0.5274 1.66993,-0.791 3.25196,-2.1094 1.66992,-1.4062 2.46094,-3.2519 0.8789,-1.9336 0.70312,-4.2188 -0.17578,-2.373 -2.02148,-5.1855 -1.66993,-2.0215 -4.04297,-3.1641 -2.10938,-0.9668 -5.36133,-1.2304 -3.16406,-0.2637 -7.82227,1.4941 l -0.35156,15.4687 z"
         style="font-style:normal;font-variant:normal;font-weight:normal;font-stretch:normal;font-size:90px;font-family:'Lakki Reddy';-inkscape-font-specification:'Lakki Reddy';fill:#ffffff"
         id="path4364" />
      <path
         d="m 215.89453,1264.9837 q 4.74609,0.1758 9.58008,1.7578 4.92187,1.4942 9.05273,4.9219 4.13086,3.3398 7.03125,8.7012 2.90039,5.2734 3.60352,12.9199 0.61523,6.2402 -1.58203,12.3926 -2.10938,6.0644 -5.88867,11.1621 -3.7793,5.0976 -8.70118,8.7012 -4.92187,3.5156 -9.84375,4.6582 -2.98828,0.7031 -6.59179,0.1757 -3.51563,-0.6152 -7.20703,-2.1972 -3.60352,-1.67 -7.11914,-4.2188 -3.42774,-2.5488 -6.24024,-5.8008 -2.8125,-3.3398 -4.74609,-7.207 -1.84571,-3.8672 -2.28516,-8.0859 -0.43945,-3.5157 -0.0879,-7.7344 0.43945,-4.3066 1.66992,-8.5254 1.31836,-4.3066 3.60352,-8.2617 2.37304,-4.043 5.97656,-7.0313 3.60352,-3.0761 8.4375,-4.7461 4.92188,-1.7578 11.33789,-1.582 z m -15.73242,35.5957 q -1.23047,9.4043 1.75781,15.1172 3.07617,5.7129 9.22852,6.9434 2.98828,0.6152 5.71289,-1.2305 2.8125,-1.9336 5.09765,-5.5371 2.28516,-3.6035 3.95508,-8.4375 1.66992,-4.834 2.46094,-10.1074 0.79102,-5.2735 0.0879,-9.4922 -0.61523,-4.3067 -2.19727,-7.2949 -1.58203,-3.0762 -3.86718,-4.7461 -2.19727,-1.67 -4.57032,-1.8457 -4.13085,-0.2637 -7.20703,2.1972 -3.07617,2.3731 -5.18554,6.2403 -2.10938,3.8671 -3.42774,8.7011 -1.23047,4.834 -1.8457,9.4922 z"
         style="font-style:normal;font-variant:normal;font-weight:normal;font-stretch:normal;font-size:90px;font-family:'Lakki Reddy';-inkscape-font-specification:'Lakki Reddy';fill:#ffffff"
         id="path4366" />
      <path
         d="m 247.0957,1269.4661 q 2.63672,0.5274 4.48242,0.791 1.84571,0.2637 3.07618,0.4395 1.40625,0.1758 2.37304,0.1758 0.9668,0 2.63672,-0.088 1.49414,-0.088 3.7793,-0.088 2.28516,-0.088 5.80078,-0.2637 -2.02148,1.4063 -3.25195,2.3731 -1.23047,0.9668 -1.84571,1.6699 -0.79101,0.791 -0.96679,1.3184 -0.17578,0.3515 -0.35157,2.6367 -0.17578,2.1972 -0.35156,5.625 -0.0879,3.3398 0,7.5586 0.0879,4.1308 0.43946,8.4375 0.43945,4.3066 1.23046,8.3496 0.79102,3.9551 2.10938,6.9433 1.40625,2.9883 3.33984,4.6582 2.02149,1.67 4.83399,1.2305 3.6914,-0.5273 5.97656,-3.6035 2.28516,-3.0762 3.42773,-7.4707 1.23047,-4.3945 1.49414,-9.4043 0.35157,-5.0977 0.0879,-9.4922 -0.17579,-4.4824 -0.70313,-7.7344 -0.52734,-3.2519 -0.9668,-4.0429 -0.52734,-0.8789 -1.40625,-2.0215 -0.70312,-0.9668 -1.8457,-2.1973 -1.14258,-1.3183 -2.63672,-2.8125 2.72461,0.088 4.92188,0.1758 2.19726,0 3.6914,0.088 1.75782,0.088 3.16407,0.1758 1.40625,0.088 3.51562,0.2636 1.75781,0.1758 4.48242,0.3516 2.8125,0.1758 6.67969,0.5273 -1.49414,0.3516 -2.46094,0.9668 -0.8789,0.6153 -1.40625,1.3184 -0.61523,0.791 -0.8789,1.582 -0.26368,0.7032 -0.43946,4.2188 -0.0879,3.4277 -0.35156,8.3496 -0.17578,4.834 -0.61523,10.5469 -0.43946,5.625 -1.40625,10.7226 -0.87891,5.0977 -2.37305,9.0528 -1.40625,3.955 -3.69141,5.4492 -3.33984,2.1972 -7.03125,3.164 -3.6914,0.8789 -7.4707,0.9668 -3.7793,0 -7.4707,-0.6152 -3.60352,-0.7031 -6.94336,-1.6699 -3.42774,-1.0547 -5.71289,-4.7461 -2.19727,-3.6914 -3.51563,-8.7012 -1.23047,-5.0976 -1.8457,-10.8984 -0.52735,-5.8887 -0.70313,-11.3379 -0.0879,-5.4492 0,-9.8438 0.17578,-4.4824 0.26368,-6.7675 0,-1.1426 -0.35157,-2.1973 -0.26367,-0.9668 -0.96679,-2.0215 -0.61524,-1.1426 -1.84571,-2.1094 z"
         style="font-style:normal;font-variant:normal;font-weight:normal;font-stretch:normal;font-size:90px;font-family:'Lakki Reddy';-inkscape-font-specification:'Lakki Reddy';fill:#ffffff"
         id="path4368" />
      <path
         d="m 302.55469,1268.9388 q 3.95508,0.7031 6.5039,0.9668 2.54883,0.2637 4.13086,0.4394 1.84571,0.1758 2.90039,0.088 l 2.63672,0 q 1.40625,0 3.51563,0 2.19726,-0.088 5.44922,-0.088 1.8457,4.3067 3.33984,7.9102 1.58203,3.6035 2.63672,6.1523 1.23047,3.0762 2.28515,5.5371 1.23047,3.0762 2.63672,6.7676 1.40625,3.6914 2.54883,6.9434 1.23047,3.2519 2.02149,5.3613 0.79101,2.1094 0.79101,1.9336 0,-0.088 0.0879,-1.7578 0.0879,-1.7578 0.17578,-4.3066 0.0879,-2.6368 0.17578,-5.7129 0.17579,-3.1641 0.17579,-6.0645 0.0879,-2.9883 0.0879,-5.4492 0,-2.4609 -0.17578,-3.6914 -0.26368,-1.4942 -1.05469,-3.4277 -0.70313,-1.67 -1.9336,-3.9551 -1.23046,-2.3731 -3.42773,-5.3614 3.60352,0.088 5.88867,0.088 2.28516,0 3.69141,0 1.58203,0 2.46094,-0.088 1.14257,0 2.8125,-0.1757 1.49414,-0.1758 3.6914,-0.2637 2.28516,-0.1758 5.625,-0.4395 -1.93359,1.7579 -3.07617,3.3399 -1.14258,1.582 -1.8457,2.8125 -0.79102,1.4062 -1.05469,2.6367 -0.35156,1.582 -0.61524,5.1855 -0.17578,3.5157 -0.43945,7.9102 -0.17578,4.3945 -0.35156,9.1406 -0.17578,4.7461 -0.35156,8.7012 0,2.9883 -0.17578,6.416 -0.17579,2.9004 -0.35157,6.5918 -0.17578,3.6035 -0.43945,7.2949 l -7.82227,0.1758 q -3.42773,-6.0644 -5.80078,-10.3711 -2.28515,-4.3945 -3.77929,-7.207 -1.66993,-3.252 -2.8125,-5.4492 -0.9668,-2.1094 -2.54883,-4.834 -1.31836,-2.2852 -3.33985,-5.625 -1.93359,-3.3399 -4.6582,-7.6465 -0.26367,6.0645 -0.26367,10.3711 0.0879,4.2187 0.26367,7.0312 0.26367,3.252 0.61524,5.4493 0.43945,2.1093 1.23046,4.7461 0.70313,2.2851 1.66993,5.3613 1.05468,3.0762 2.54882,6.9433 -5.18554,-0.2636 -7.73437,-0.2636 l -2.63672,0 q -1.23047,0 -3.33984,0.2636 -1.75782,0.1758 -4.83399,0.5274 -2.98828,0.3516 -7.4707,0.9668 2.10937,-2.5488 3.33984,-4.6582 1.31836,-2.1973 2.02149,-3.6914 0.8789,-1.7578 1.23047,-3.0762 0.26367,-1.4062 0.35156,-4.834 0.0879,-3.5156 0,-7.9101 0,-4.4825 -0.17578,-9.4043 -0.0879,-4.9219 -0.26367,-9.1407 -0.17579,-4.2187 -0.43946,-7.207 -0.17578,-2.9883 -0.26367,-3.6914 -0.26367,-1.1426 -1.05469,-2.4609 -0.70312,-1.1426 -1.8457,-2.5489 -1.14258,-1.4941 -3.16406,-3.2519 z"
         style="font-style:normal;font-variant:normal;font-weight:normal;font-stretch:normal;font-size:90px;font-family:'Lakki Reddy';-inkscape-font-specification:'Lakki Reddy';fill:#ffffff"
         id="path4370" />
      <path
         d="m 387.63281,1266.3021 q 3.07617,0 5.53711,1.0547 2.54883,0.9668 4.6582,2.1972 2.19727,1.2305 4.13086,2.2852 1.9336,0.9668 3.95508,0.9668 1.58203,-0.088 3.60352,-0.4395 1.75781,-0.3515 4.04297,-1.0547 2.37304,-0.791 5.27343,-2.2851 -2.90039,2.8125 -4.74609,4.7461 -1.75781,1.8457 -2.72461,3.0761 -1.14258,1.4063 -1.66992,2.1973 -0.52734,0.9668 -1.58203,2.9004 -0.9668,1.7578 -2.63672,4.7461 -1.66992,2.9004 -4.21875,7.6465 0,-6.0645 -1.23047,-9.4043 -1.14258,-3.3399 -2.54883,-5.0977 -1.66992,-2.0215 -3.77929,-2.5488 -1.9336,-0.2637 -3.86719,0.7031 -1.9336,0.8789 -3.86719,2.6367 -1.8457,1.7579 -3.60352,4.2188 -1.66992,2.373 -3.07617,5.0098 -1.31836,2.6367 -2.19726,5.3613 -0.87891,2.6367 -1.14258,4.9219 -0.26367,2.0214 -0.0879,4.7461 0.17578,2.6367 0.79101,5.4492 0.61524,2.7246 1.58204,5.3613 0.96679,2.6367 2.37304,4.7461 1.49414,2.0215 3.33985,3.3398 1.8457,1.2305 4.21875,1.1426 2.63671,-0.1758 5.18554,-1.582 2.19727,-1.1426 4.48242,-3.5156 2.28516,-2.461 3.95508,-6.9434 l 13.00782,2.373 q -5.625,6.8555 -10.98633,10.2833 -5.27344,3.4277 -9.49219,4.8339 -4.92188,1.5821 -9.31641,1.4942 -5.53711,-0.6153 -10.37109,-3.3399 -4.83398,-2.7246 -8.34961,-6.5918 -3.42773,-3.955 -5.36133,-8.6132 -1.93359,-4.6582 -1.66992,-9.1407 0.17578,-2.9883 1.23047,-6.9433 1.05469,-4.043 2.8125,-8.2617 1.8457,-4.2188 4.39453,-8.2618 2.54883,-4.0429 5.625,-7.207 3.07617,-3.252 6.67969,-5.1855 3.6914,-2.0215 7.64648,-2.0215 z"
         style="font-style:normal;font-variant:normal;font-weight:normal;font-stretch:normal;font-size:90px;font-family:'Lakki Reddy';-inkscape-font-specification:'Lakki Reddy';fill:#ffffff"
         id="path4372" />
      <path
         d="m 410.83594,1271.2239 q 6.15234,0.1758 10.19531,0.2637 4.13086,0 6.67969,0 l 4.6582,0 26.19141,0 q 0.17578,1.7578 0.26367,3.4278 0.17578,1.582 0.17578,2.8125 0,1.4941 -0.0879,2.7246 -0.0879,1.2304 -0.26367,2.6367 -0.17578,1.2304 -0.35157,2.6367 -0.17578,1.4062 -0.61523,2.9004 -1.23047,-4.7461 -3.33984,-7.207 -2.02149,-2.461 -4.13086,-3.6036 -2.46094,-1.3183 -5.18555,-1.4062 -3.60352,0.1758 -5.625,0.6152 -2.02148,0.4395 -3.16406,1.2305 -1.14258,0.791 -1.75781,1.8457 -0.52735,0.9668 -1.14258,2.1973 -0.52735,1.0547 -0.9668,3.2519 -0.43945,1.8457 -0.87891,5.0098 -0.35156,3.164 -0.79101,8.1738 2.37305,-0.7031 3.7793,-1.3183 1.49414,-0.6153 2.37304,-1.0547 0.9668,-0.5274 1.40625,-0.9668 0.35156,-0.5274 1.05469,-1.9336 0.52734,-1.2305 1.40625,-3.3399 0.9668,-2.1093 2.28516,-5.8008 0.17578,4.043 0.17578,6.7676 0,2.6367 0.0879,4.3067 0,1.9336 0.0879,3.0761 l 0,3.3399 q 0,1.8457 0,5.0097 0.0879,3.0762 0.26367,7.8223 -1.05469,-3.2519 -1.93359,-5.0976 -0.79102,-1.9336 -1.40625,-2.9004 -0.70313,-1.1426 -1.23047,-1.5821 -0.61524,-0.1757 -1.66992,-0.3515 -0.9668,-0.088 -2.46094,-0.088 -1.40625,0 -3.60352,0.4394 -0.26367,4.834 -0.0879,7.8223 0.26367,2.9004 0.70313,4.4824 0.43945,1.8457 1.05468,2.6367 0.79102,0.7911 3.16407,1.3184 2.37304,0.4395 5.36133,0.3516 3.07617,-0.1758 6.24023,-1.0547 3.16406,-0.8789 5.625,-2.9004 1.8457,-1.6699 3.95508,-4.2188 1.75781,-2.1972 3.86719,-5.5371 2.19726,-3.3398 4.30664,-8.0859 -0.35157,3.9551 -0.52735,6.5918 -0.0879,2.5488 -0.26367,4.1308 -0.17578,1.8457 -0.26367,2.8125 0,1.0547 -0.26367,2.9883 -0.17578,1.6699 -0.61524,4.5703 -0.35156,2.8125 -0.96679,7.2071 -4.13086,0.088 -7.82227,0.1758 -3.69141,0 -6.50391,0.088 -3.33984,0.088 -6.15234,0.1758 -2.90039,0 -6.41602,0.2637 -3.07617,0.1758 -7.29492,0.5273 -4.13086,0.3516 -9.14062,0.9668 0.43945,-5.9765 0.61523,-11.25 0.26367,-5.3613 0.35156,-9.4043 0.0879,-4.7461 0,-8.789 0.43946,-10.1074 -0.35156,-16.3477 -0.79101,-6.2402 -1.8457,-7.998 -0.52735,-0.6153 -1.49414,-1.4942 -0.79102,-0.7031 -2.19727,-1.6699 -1.40625,-0.9668 -3.51562,-2.1973 z"
         style="font-style:normal;font-variant:normal;font-weight:normal;font-stretch:normal;font-size:90px;font-family:'Lakki Reddy';-inkscape-font-specification:'Lakki Reddy';fill:#ffffff"
         id="path4374" />
    </g>
    <text
       xml:space="preserve"
       style="font-style:normal;font-weight:normal;font-size:10.58333206px;line-height:125%;font-family:sans-serif;letter-spacing:0px;word-spacing:0px;fill:#000000;fill-opacity:1;stroke:none;stroke-width:1px;stroke-linecap:butt;stroke-linejoin:miter;stroke-opacity:1"
       x="386.27606"
       y="357.54959"
       id="text4311"
       sodipodi:linespacing="125%"><tspan
         sodipodi:role="line"
         id="tspan4313"
         x="386.27606"
         y="357.54959">Welcome to</tspan><tspan
         sodipodi:role="line"
         x="386.27606"
         y="370.77875"
         id="tspan4315"></tspan><tspan
         sodipodi:role="line"
         x="386.27606"
         y="384.00793"
         id="tspan4317">WIZARDS</tspan><tspan
         sodipodi:role="line"
         x="386.27606"
         y="397.23709"
         id="tspan4319">OF THE BOUNCE</tspan></text>
  </g>
</svg>
