<?xml version="1.0" encoding="UTF-8" standalone="no"?>
<!-- Created with Inkscape (http://www.inkscape.org/) -->

<svg
   xmlns:dc="http://purl.org/dc/elements/1.1/"
   xmlns:cc="http://creativecommons.org/ns#"
   xmlns:rdf="http://www.w3.org/1999/02/22-rdf-syntax-ns#"
   xmlns:svg="http://www.w3.org/2000/svg"
   xmlns="http://www.w3.org/2000/svg"
   xmlns:sodipodi="http://sodipodi.sourceforge.net/DTD/sodipodi-0.dtd"
   xmlns:inkscape="http://www.inkscape.org/namespaces/inkscape"
   width="468.39008"
   height="87.565094"
   viewBox="0 0 123.9282 23.168263"
   version="1.1"
   id="svg8"
   inkscape:version="0.92+devel (unknown)"
   sodipodi:docname="you-won-text.svg">
  <defs
     id="defs2" />
  <sodipodi:namedview
     id="base"
     pagecolor="#ffffff"
     bordercolor="#666666"
     borderopacity="1.0"
     inkscape:pageopacity="0.0"
     inkscape:pageshadow="2"
     inkscape:zoom="1.4"
     inkscape:cx="234.92885"
     inkscape:cy="94.043585"
     inkscape:document-units="px"
     inkscape:current-layer="flowRoot678"
     inkscape:document-rotation="0"
     showgrid="false"
     units="px" />
  <metadata
     id="metadata5">
    <rdf:RDF>
      <cc:Work
         rdf:about="">
        <dc:format>image/svg+xml</dc:format>
        <dc:type
           rdf:resource="http://purl.org/dc/dcmitype/StillImage" />
        <dc:title></dc:title>
      </cc:Work>
    </rdf:RDF>
  </metadata>
  <g
     inkscape:label="Layer 1"
     inkscape:groupmode="layer"
     id="layer1"
     transform="translate(-18.732732,-153.53197)">
    <g
       aria-label="Game Over !"
       transform="matrix(0.26458333,0,0,0.26458333,78.055106,16.488485)"
       style="font-style:normal;font-weight:normal;font-size:40px;line-height:125%;font-family:sans-serif;letter-spacing:0px;word-spacing:0px;fill:#aa0044;fill-opacity:1;stroke:none;stroke-width:1px;stroke-linecap:butt;stroke-linejoin:miter;stroke-opacity:1"
       id="flowRoot10">
      <g
         aria-label="You Win!"
         transform="matrix(3.02111,0,0,3.02111,-229.7276,12.30472)"
         style="font-style:normal;font-weight:normal;font-size:40px;line-height:125%;font-family:sans-serif;letter-spacing:0px;word-spacing:0px;fill:#aa0044;fill-opacity:1;stroke:none;stroke-width:1px;stroke-linecap:butt;stroke-linejoin:miter;stroke-opacity:1"
         id="flowRoot678">
        <path
           d="m 1.8261719,168.50674 q 1.6796875,0.15625 2.96875,0.23437 1.2890625,0.0781 2.1484375,0.15625 1.015625,0.0781 1.71875,0.11719 0.703125,0.0391 1.7187496,0.0391 0.859375,0.0391 2.148438,0.0391 1.289062,0 3.046875,0 -1.132813,0.54687 -1.757813,1.01562 -0.585937,0.46875 -0.898437,0.82031 -0.390625,0.42969 -0.46875,0.78125 -0.03906,0.3125 0.15625,1.05469 0.195312,0.74219 0.546875,1.67969 0.351562,0.89844 0.859375,1.91406 0.507812,1.01563 1.054687,1.83594 0.585938,0.78125 1.171875,1.28906 0.585938,0.50781 1.132813,0.46875 0.546875,-0.0391 1.328125,-0.50781 0.78125,-0.50781 1.601562,-1.25 0.859375,-0.74219 1.679688,-1.60156 0.820312,-0.85938 1.445312,-1.67969 0.664063,-0.82031 1.054688,-1.48438 0.429687,-0.70312 0.429687,-1.01562 -0.03906,-0.39063 -0.3125,-0.89844 -0.234375,-0.42969 -0.78125,-1.01562 -0.546875,-0.625 -1.523437,-1.40625 3.203125,0.11718 4.6875,0.11718 h 1.445312 1.640625 q 0.898438,0 2.382813,0 1.484375,-0.0391 3.710937,-0.11718 -1.523437,1.01562 -2.65625,1.83593 -1.09375,0.78125 -1.875,1.32813 -0.898437,0.66406 -1.484375,1.17187 -0.664062,0.54688 -1.835937,1.71875 -1.015625,1.01563 -2.695313,2.73438 -1.679687,1.67969 -4.21875,4.375 -0.351562,2.85156 -0.46875,4.60937 -0.07813,1.75782 -0.07813,2.77344 0,1.17188 0.15625,1.75781 0.195313,0.46875 0.664063,1.09375 0.390625,0.54688 1.09375,1.28907 0.742187,0.74218 1.953125,1.64062 -1.289063,-0.3125 -2.421875,-0.46875 -1.09375,-0.15625 -1.953125,-0.23437 -1.015625,-0.11719 -1.835938,-0.11719 -0.859375,0 -2.03125,0.0781 -1.015625,0.0781 -2.421875,0.19532 -1.40625,0.11718 -3.28125,0.35156 0.976563,-0.66406 1.601563,-1.32813 0.625,-0.66406 0.976562,-1.21093 0.429688,-0.625 0.625,-1.17188 0.15625,-0.625 0.234375,-1.79687 0.07813,-1.01563 0,-2.69532 -0.03906,-1.67968 -0.234375,-4.25781 -2.34375,-3.75 -3.828125,-5.89844 -1.4843746,-2.1875 -2.3046871,-3.32031 -0.9765625,-1.28906 -1.40625,-1.71875 -0.390625,-0.3125 -1.0546875,-0.78125 -0.546875,-0.42969 -1.40625,-1.01562 -0.8984375,-0.625 -2.1484375,-1.52344 z"
           style="font-style:normal;font-variant:normal;font-weight:normal;font-stretch:normal;font-family:'Lakki Reddy';-inkscape-font-specification:'Lakki Reddy';fill:#aa0044;fill-opacity:1"
           id="path686"
           inkscape:connector-curvature="0" />
        <path
           d="m 39.873047,178.74111 q 1.015625,0 2.109375,0.39063 1.09375,0.35156 2.109375,0.9375 1.015625,0.54687 1.835937,1.21094 0.859375,0.625 1.40625,1.21093 0.976563,1.05469 1.328125,2.85157 0.390625,1.75781 0.15625,3.63281 -0.234375,1.83594 -1.09375,3.47656 -0.859375,1.64063 -2.382812,2.42188 -1.09375,0.54687 -2.148438,0.85937 -1.054687,0.3125 -2.03125,0.46875 -0.976562,0.15625 -1.835937,0.15625 -0.859375,0 -1.484375,-0.0391 -1.171875,-0.0781 -2.460938,-0.82031 -1.25,-0.74219 -2.382812,-1.83594 -1.09375,-1.09375 -1.875,-2.38281 -0.78125,-1.32813 -0.9375,-2.5 -0.234375,-1.60157 -0.07813,-3.35938 0.15625,-1.75781 1.132812,-3.24219 1.015625,-1.48437 3.046875,-2.46093 2.070313,-0.97657 5.585938,-0.97657 z m -1.289063,15.15625 q 0.429688,0.0781 1.171875,-0.19531 0.742188,-0.3125 1.445313,-0.97656 0.742187,-0.66406 1.289062,-1.67969 0.585938,-1.05469 0.703125,-2.53906 0.117188,-1.44531 0,-2.65625 -0.07813,-1.21094 -0.351562,-2.10938 -0.273438,-0.9375 -0.625,-1.52343 -0.351563,-0.58594 -0.742188,-0.82032 -0.664062,-0.35156 -1.601562,-0.54687 -0.9375,-0.23438 -1.601563,0.0781 -0.3125,0.15625 -0.78125,0.66407 -0.46875,0.50781 -0.9375,1.28906 -0.46875,0.74219 -0.859375,1.71875 -0.351562,0.97656 -0.507812,2.03125 -0.15625,1.05469 -0.07813,2.26562 0.117187,1.21094 0.507812,2.30469 0.390625,1.05469 1.09375,1.83594 0.742188,0.74219 1.875,0.85937 z"
           style="font-style:normal;font-variant:normal;font-weight:normal;font-stretch:normal;font-family:'Lakki Reddy';-inkscape-font-specification:'Lakki Reddy';fill:#aa0044;fill-opacity:1"
           id="path688"
           inkscape:connector-curvature="0" />
        <path
           d="m 50.927734,178.27236 q 1.015625,0.19532 1.757813,0.3125 0.78125,0.0781 1.328125,0.15625 0.625,0.0781 1.09375,0.11719 0.46875,0.0391 1.09375,0.0781 1.054687,0.0391 2.96875,0 -1.132813,-0.0781 -1.796875,0.58593 -0.625,0.625 -0.9375,1.44532 -0.390625,0.97656 -0.429688,2.26562 -0.07813,1.71875 0.07813,3.125 0.195313,1.36719 0.664063,2.34375 0.507812,0.9375 1.328125,1.40625 0.820312,0.42969 2.109375,0.23438 1.289062,-0.19532 1.953125,-0.89844 0.703125,-0.74219 1.015625,-1.79688 0.3125,-1.09375 0.351562,-2.46093 0.07813,-1.36719 0.117188,-2.85157 0,-1.48437 -0.03906,-2.10937 0,-0.66406 -0.03906,-0.85938 -0.03906,-0.19531 -0.117188,-0.15625 -0.07813,0 -0.195312,-0.19531 -0.07813,-0.15625 -0.234375,-0.3125 -0.117188,-0.15625 -0.3125,-0.35156 -0.195313,-0.23438 -0.429688,-0.46875 1.015625,0.0391 1.796875,0.0781 0.820313,0 1.367188,0.0391 0.625,0.0391 1.09375,0.0781 0.429687,0.0391 1.132812,0.11719 0.585938,0.0781 1.523438,0.15625 0.9375,0.0781 2.226562,0.23437 -0.898437,0.19532 -1.445312,0.58594 -0.546875,0.39063 -0.859375,0.78125 -0.351563,0.42969 -0.507813,0.9375 -0.117187,0.66406 0,2.03125 0.07813,1.21094 0.390625,3.32031 0.3125,2.10938 0.976563,5.54688 l -3.085938,1.83594 -0.625,-5.19532 q -1.132812,1.91407 -2.421875,2.96875 -1.25,1.01563 -2.34375,1.48438 -1.289062,0.54687 -2.5,0.625 -1.601562,0 -2.773437,-0.19531 -1.132813,-0.23438 -1.953125,-0.58594 -0.820313,-0.35156 -1.328125,-0.78125 -0.46875,-0.46875 -0.703125,-0.9375 -0.546875,-0.97656 -0.585938,-2.5 -0.03906,-1.5625 0.117188,-3.08594 0.15625,-1.5625 0.351562,-2.85156 0.195313,-1.28906 0.117188,-1.75781 -0.07813,-0.35157 -0.234375,-0.78125 -0.15625,-0.35157 -0.390625,-0.78125 -0.234375,-0.46875 -0.664063,-0.97657 z"
           style="font-style:normal;font-variant:normal;font-weight:normal;font-stretch:normal;font-family:'Lakki Reddy';-inkscape-font-specification:'Lakki Reddy';fill:#aa0044;fill-opacity:1"
           id="path690"
           inkscape:connector-curvature="0" />
        <path
           d="m 78.271484,168.78018 q 1.289063,0.15625 2.34375,0.23437 1.015625,0.0781 1.757813,0.15625 0.859375,0.0781 1.523437,0.11719 0.703125,0 1.796875,-0.0391 0.9375,-0.0391 2.382813,-0.11719 1.445312,-0.0781 3.554687,-0.27344 -1.015625,0.58594 -1.679687,1.17188 -0.625,0.58593 -0.976563,1.05468 -0.429687,0.54688 -0.625,1.09375 -0.117187,0.74219 0.07813,2.89063 0.07813,0.89844 0.234375,2.22656 0.195313,1.28906 0.46875,3.08594 0.3125,1.75781 0.742188,4.0625 0.46875,2.30469 1.054687,5.23437 0.78125,-2.22656 1.289063,-3.94531 0.507812,-1.75781 0.859375,-3.00781 0.390625,-1.40625 0.664062,-2.5 0.273438,-1.13281 0.664063,-2.92969 0.3125,-1.52344 0.820312,-3.94531 0.507813,-2.42188 1.25,-5.97656 l 1.40625,0.19531 q 0.195313,2.77344 0.390625,4.88281 0.234375,2.10938 0.390625,3.59375 0.15625,1.71875 0.3125,2.96875 0.15625,1.13281 0.46875,2.61719 0.273438,1.25 0.703126,3.08594 0.42968,1.79687 1.13281,4.0625 0.70312,-2.77344 1.25,-4.96094 0.58594,-2.1875 0.97657,-3.86719 0.42968,-1.67969 0.70312,-2.89062 0.3125,-1.21094 0.50781,-2.03125 0.42969,-1.95313 0.50782,-2.61719 -0.0391,-0.74219 -0.35157,-1.44531 -0.27343,-0.625 -0.85938,-1.36719 -0.58593,-0.74219 -1.71875,-1.44531 2.38282,0.0781 3.86719,0.11718 1.52344,0 2.42187,0 h 1.5625 1.40625 q 0.78125,0 2.03125,0 1.28907,-0.0391 3.28125,-0.11718 -1.71875,0.89843 -2.77343,1.64062 -1.05469,0.74219 -1.64063,1.25 -0.70312,0.625 -1.01562,1.05469 -0.3125,0.78125 -1.01563,3.51562 -0.3125,1.17188 -0.70312,2.92969 -0.39063,1.71875 -0.9375,4.14063 -0.50782,2.42187 -1.17188,5.66406 -0.66406,3.20312 -1.48437,7.34375 l -6.757811,-0.70313 -2.890625,-12.14843 q -0.664062,3.32031 -1.054687,5.39062 -0.390625,2.03125 -0.585938,3.16406 -0.234375,1.36719 -0.273437,1.99219 -0.03906,0.54688 -0.07813,1.05469 -0.03906,0.42969 -0.117188,0.9375 -0.03906,0.50781 -0.117187,0.9375 h -6.914063 q -1.015625,-4.45313 -1.835937,-7.85156 -0.78125,-3.4375 -1.40625,-6.01563 -0.625,-2.57812 -1.09375,-4.375 -0.429688,-1.79687 -0.78125,-3.00781 -0.78125,-2.8125 -1.132813,-3.47656 -0.273437,-0.3125 -0.703125,-0.74219 -0.351562,-0.35156 -0.859375,-0.85938 -0.546875,-0.54687 -1.25,-1.21093 z"
           style="font-style:normal;font-variant:normal;font-weight:normal;font-stretch:normal;font-family:'Lakki Reddy';-inkscape-font-specification:'Lakki Reddy';fill:#aa0044;fill-opacity:1"
           id="path692"
           inkscape:connector-curvature="0" />
        <path
           d="m 112.68555,178.78018 7.1875,0.0781 q -0.625,2.38281 -0.9375,4.0625 -0.27344,1.67969 -0.35157,2.8125 -0.15625,1.28906 -0.0781,2.1875 0.11719,0.82031 0.39062,1.75781 0.23438,0.78125 0.70313,1.79688 0.46875,1.01562 1.25,2.03125 -0.46875,-0.15625 -1.01563,-0.23438 -0.54687,-0.0781 -1.01562,-0.11718 -0.54688,-0.0391 -1.09375,0 -0.54688,0.0391 -1.21094,0.11718 -0.54687,0.0781 -1.32812,0.19532 -0.78125,0.11718 -1.64063,0.3125 0.58594,-1.75782 0.89844,-3.04688 0.35156,-1.28906 0.50781,-2.14844 0.15625,-1.01562 0.19531,-1.64062 0,-0.78125 0,-1.75781 0,-1.01563 0,-1.95313 0,-0.9375 -0.0391,-1.64062 -0.0391,-0.74219 -0.15625,-0.9375 l -0.39062,-0.39063 q -0.23438,-0.19531 -0.70313,-0.54687 -0.42969,-0.39063 -1.17187,-0.9375 z m 2.77343,-6.01563 q 0.82032,-0.42969 1.64063,-0.23437 0.85937,0.19531 1.32812,0.74218 0.46875,0.54688 0.3125,1.28907 -0.11718,0.74218 -1.25,1.44531 -1.13281,0.66406 -1.99218,0.46875 -0.85938,-0.19531 -1.21094,-0.82031 -0.35156,-0.625 -0.11719,-1.44532 0.23438,-0.85937 1.28906,-1.44531 z"
           style="font-style:normal;font-variant:normal;font-weight:normal;font-stretch:normal;font-family:'Lakki Reddy';-inkscape-font-specification:'Lakki Reddy';fill:#aa0044;fill-opacity:1"
           id="path694"
           inkscape:connector-curvature="0" />
        <path
           d="m 123.50586,191.94424 q 0.27344,-1.28906 0.39062,-2.26563 0.15625,-1.01562 0.23438,-1.67968 0.0781,-0.78125 0.0781,-1.32813 -0.0391,-0.66406 -0.0781,-1.5625 0,-0.9375 -0.0781,-1.83594 -0.0391,-0.9375 -0.11718,-1.64062 -0.0781,-0.74219 -0.19532,-1.05469 -0.15625,-0.3125 -0.42968,-0.66406 -0.54688,-0.66406 -1.60157,-1.28906 0.89844,-0.19532 1.52344,-0.3125 0.66406,-0.15625 1.09375,-0.27344 0.46875,-0.15625 0.82031,-0.27344 0.3125,-0.11719 0.74219,-0.23437 0.35156,-0.0781 0.85938,-0.19532 0.50781,-0.11718 1.17187,-0.27343 l -0.11719,3.55468 q 1.25,-1.48437 2.53907,-2.22656 1.28906,-0.74219 2.42187,-1.05469 1.28906,-0.39062 2.53906,-0.39062 1.5625,0.0781 2.89063,0.50781 1.36719,0.42969 2.34375,1.01563 1.01562,0.54687 1.64062,1.17187 0.625,0.625 0.74219,1.09375 0.46875,1.52344 0.23438,2.8125 -0.23438,1.25 -0.625,2.46094 -0.35157,1.17187 -0.625,2.34375 -0.23438,1.17187 0.19531,2.53906 0.15625,0.35156 0.3125,0.70313 0.15625,0.3125 0.39062,0.625 0.23438,0.3125 0.54688,0.50781 -0.42969,-0.0391 -0.85938,-0.0391 -0.42968,-0.0391 -0.78125,-0.0781 -0.42968,-0.0391 -0.78125,-0.0781 -0.39062,-0.0391 -1.05468,-0.0391 -1.13282,0 -3.51563,0.11719 0.35156,-0.82031 0.54688,-1.36719 0.23437,-0.58593 0.39062,-0.9375 0.15625,-0.42968 0.23438,-0.66406 0.46875,-1.13281 0.54687,-2.57812 0.11719,-1.44532 -0.19531,-2.92969 -0.11719,-0.50781 -0.39063,-1.21094 -0.27343,-0.70312 -0.74218,-1.36719 -0.42969,-0.66406 -1.05469,-1.13281 -0.58594,-0.46875 -1.36719,-0.54687 -0.78125,-0.0781 -1.75781,0.39062 -0.9375,0.46875 -2.03125,1.71875 -0.82031,1.05469 -1.28906,2.57813 -0.42969,1.28906 -0.58594,3.24218 -0.15625,1.91407 0.46875,4.49219 -0.54688,-0.0781 -1.01563,-0.0781 -0.46875,-0.0391 -0.78125,-0.0781 -0.39062,-0.0391 -0.70312,-0.0781 -0.35156,0 -0.78125,-0.0391 -0.39063,0 -0.97656,0 -0.58594,-0.0391 -1.36719,-0.0781 z"
           style="font-style:normal;font-variant:normal;font-weight:normal;font-stretch:normal;font-family:'Lakki Reddy';-inkscape-font-specification:'Lakki Reddy';fill:#aa0044;fill-opacity:1"
           id="path696"
           inkscape:connector-curvature="0" />
        <path
           d="m 148.07617,168.07705 q 0.74219,0.19531 1.40625,0.3125 0.66406,0.0781 1.17188,0.15625 0.58593,0.0781 1.09375,0.11719 0.54687,0.0391 1.28906,0.0781 0.66406,0.0391 1.60156,0.0391 0.9375,0 2.22656,0 -1.13281,2.69531 -1.83593,4.57031 -0.70313,1.83594 -1.09375,3.04687 -0.42969,1.40625 -0.625,2.30469 -0.15625,0.89844 -0.39063,2.1875 -0.19531,1.13281 -0.54687,2.77344 -0.35157,1.64062 -0.78125,3.90625 l -3.4375,-0.15625 q 0.3125,-2.07031 0.42968,-3.51563 0.11719,-1.48437 0.19532,-2.46093 0.0781,-1.13282 0.0781,-1.875 0,-0.78125 -0.11719,-2.34375 -0.0781,-1.28907 -0.23437,-3.47657 -0.15625,-2.22656 -0.42969,-5.66406 z m 4.29688,22.46094 q 0.27343,0.42969 0.3125,0.97656 0.0781,0.50781 -0.0781,1.05469 -0.11719,0.50781 -0.50781,0.97656 -0.35156,0.46875 -0.97656,0.74219 -1.25,0.58594 -2.22657,0.3125 -0.97656,-0.3125 -1.44531,-1.01563 -0.27344,-0.39062 -0.3125,-0.85937 0,-0.50781 0.19531,-0.97656 0.19532,-0.50782 0.625,-0.9375 0.42969,-0.42969 1.09375,-0.70313 1.28907,-0.54687 2.10938,-0.39062 0.85937,0.15625 1.21094,0.82031 z"
           style="font-style:normal;font-variant:normal;font-weight:normal;font-stretch:normal;font-family:'Lakki Reddy';-inkscape-font-specification:'Lakki Reddy';fill:#aa0044;fill-opacity:1"
           id="path698"
           inkscape:connector-curvature="0" />
      </g>
    </g>
  </g>
</svg>
