<?xml version="1.0" encoding="UTF-8" standalone="no"?>
<!-- Created with Inkscape (http://www.inkscape.org/) -->

<svg
   xmlns:dc="http://purl.org/dc/elements/1.1/"
   xmlns:cc="http://creativecommons.org/ns#"
   xmlns:rdf="http://www.w3.org/1999/02/22-rdf-syntax-ns#"
   xmlns:svg="http://www.w3.org/2000/svg"
   xmlns="http://www.w3.org/2000/svg"
   xmlns:sodipodi="http://sodipodi.sourceforge.net/DTD/sodipodi-0.dtd"
   xmlns:inkscape="http://www.inkscape.org/namespaces/inkscape"
   width="109.53301"
   height="77.295067"
   viewBox="0 0 28.98061 20.450987"
   version="1.1"
   id="svg8"
   inkscape:version="0.92.2 (unknown)"
   sodipodi:docname="cow2.svg">
  <defs
     id="defs2" />
  <sodipodi:namedview
     id="base"
     pagecolor="#ffffff"
     bordercolor="#666666"
     borderopacity="1.0"
     inkscape:pageopacity="0.0"
     inkscape:pageshadow="2"
     inkscape:zoom="2.2121094"
     inkscape:cx="-62.667928"
     inkscape:cy="57.1933"
     inkscape:document-units="px"
     inkscape:current-layer="layer1"
     showgrid="false"
     units="px"
     inkscape:window-width="1455"
     inkscape:window-height="972"
     inkscape:window-x="40"
     inkscape:window-y="52"
     inkscape:window-maximized="0"
     inkscape:snap-global="false"
     showguides="false" />
  <metadata
     id="metadata5">
    <rdf:RDF>
      <cc:Work
         rdf:about="">
        <dc:format>image/svg+xml</dc:format>
        <dc:type
           rdf:resource="http://purl.org/dc/dcmitype/StillImage" />
        <dc:title></dc:title>
      </cc:Work>
    </rdf:RDF>
  </metadata>
  <g
     inkscape:label="Layer 1"
     inkscape:groupmode="layer"
     id="layer1"
     transform="translate(-53.671234,-177.67858)">
    <rect
       style="fill:#ff00ff;fill-opacity:1;stroke:none;stroke-width:0.237461;stroke-miterlimit:4;stroke-dasharray:none;stroke-opacity:1"
       id="rect5339"
       width="18.520834"
       height="18.520834"
       x="31.520142"
       y="179.63829" />
    <path
       style="fill:#ffffff;fill-rule:evenodd;stroke:#000000;stroke-width:0.14615224;stroke-linecap:butt;stroke-linejoin:miter;stroke-miterlimit:4;stroke-dasharray:none;stroke-opacity:1"
       d="m 79.008757,182.35171 c 0.742398,0.1965 1.295492,1.083 2.011593,1.584 1.401632,1.40164 1.747715,4.78253 1.45291,7.02564 -0.103234,0.78549 0.644521,1.44561 -0.780442,2.6758 -0.957775,-1.11882 -0.0041,-2.60149 0.123882,-2.72948 0.773754,-0.77376 -0.08543,-5.16341 -0.90797,-6.02764 -1.02966,-1.08187 -1.994842,-1.95908 -1.899973,-2.52832 z"
       id="path4644"
       inkscape:connector-curvature="0"
       sodipodi:nodetypes="ccsccsc" />
    <circle
       style="fill:#cccccc;fill-opacity:1;stroke:#000000;stroke-width:0.14615224;stroke-miterlimit:4;stroke-dasharray:none;stroke-opacity:1"
       id="path815"
       cx="70.924446"
       cy="187.48405"
       r="9.732399" />
    <path
       style="fill:#1a1a1a;fill-opacity:1;stroke:none;stroke-width:0.15067042;stroke-miterlimit:4;stroke-dasharray:none;stroke-opacity:1"
       d="m 69.772817,198.12183 c -2.29349,0.0265 -3.941808,-0.0257 -5.419284,0 0,-1.50925 1.213151,-2.73274 2.709645,-2.73274 1.496495,0 2.709639,1.22349 2.709639,2.73274 z"
       id="path4601"
       inkscape:connector-curvature="0"
       sodipodi:nodetypes="ccsc" />
    <path
       style="fill:#ffffff;fill-opacity:1;stroke:none;stroke-width:0.13179022;stroke-miterlimit:4;stroke-dasharray:none;stroke-opacity:1"
       d="m 79.487733,186.52439 c 0,4.75777 -4.002728,5.93891 -8.940354,5.93891 -4.93762,0 -8.940354,-1.18114 -8.940354,-5.93891 0,-4.75777 4.002734,-8.6147 8.940354,-8.6147 4.937626,0 8.940354,2.4554 8.940354,8.6147 z"
       id="circle4619"
       inkscape:connector-curvature="0"
       sodipodi:nodetypes="sssss" />
    <path
       style="fill:#ffffff;fill-opacity:1;stroke:#000000;stroke-width:0.19117492;stroke-miterlimit:4;stroke-dasharray:none;stroke-opacity:1"
       d="m 60.737038,180.69034 a 4.993958,4.993958 0 0 0 -3.917263,1.90525 c -0.349118,-0.0894 -1.771304,-0.327 -3.010609,1.30563 0.835556,0.55031 1.743743,0.24561 2.277351,-0.0225 a 4.993958,4.993958 0 0 0 -0.343469,1.80567 4.993958,4.993958 0 0 0 4.99399,4.99395 4.993958,4.993958 0 0 0 4.993949,-4.99395 4.993958,4.993958 0 0 0 -0.352513,-1.83889 c 0.522492,0.27458 1.471901,0.62903 2.342242,0.0558 -1.303179,-1.71678 -2.805167,-1.36638 -3.052395,-1.29404 a 4.993958,4.993958 0 0 0 -3.931283,-1.91683 z"
       id="circle817"
       inkscape:connector-curvature="0" />
    <circle
       style="fill:#ffffff;fill-opacity:1;stroke:#000000;stroke-width:0.19117492;stroke-miterlimit:4;stroke-dasharray:none;stroke-opacity:1"
       id="circle819"
       cx="62.04237"
       cy="184.90115"
       r="1.5269767" />
    <circle
       cy="184.90115"
       cx="58.626896"
       id="circle821"
       style="fill:#ffffff;fill-opacity:1;stroke:#000000;stroke-width:0.19117492;stroke-miterlimit:4;stroke-dasharray:none;stroke-opacity:1"
       r="1.5269767" />
    <circle
       r="0.47049299"
       cy="184.90115"
       cx="61.499748"
       id="circle825"
       style="fill:#000000;fill-opacity:1;stroke:none;stroke-width:0.00706544;stroke-miterlimit:4;stroke-dasharray:none;stroke-opacity:1" />
    <circle
       style="fill:#ffffff;fill-opacity:1;stroke:none;stroke-width:0.00206677;stroke-miterlimit:4;stroke-dasharray:none;stroke-opacity:1"
       id="circle827"
       cx="61.23925"
       cy="184.75642"
       r="0.13762823" />
    <circle
       style="fill:#000000;fill-opacity:1;stroke:none;stroke-width:0.00706544;stroke-miterlimit:4;stroke-dasharray:none;stroke-opacity:1"
       id="circle829"
       cx="59.116592"
       cy="184.90115"
       r="0.47049299" />
    <circle
       cy="184.75642"
       cx="58.856091"
       id="circle831"
       style="fill:#ffffff;fill-opacity:1;stroke:none;stroke-width:0.00206677;stroke-miterlimit:4;stroke-dasharray:none;stroke-opacity:1"
       r="0.13762823" />
    <path
       style="fill:#cccccc;fill-opacity:1;stroke:none;stroke-width:0.14615223;stroke-miterlimit:4;stroke-dasharray:none;stroke-opacity:1"
       d="m 65.471523,184.37755 c 1.027792,3.68311 -2.237514,6.51373 -4.967794,6.32686 2.018715,-1.82875 4.320435,-3.36137 4.967794,-6.32686 z"
       id="path4630"
       inkscape:connector-curvature="0"
       sodipodi:nodetypes="ccc" />
    <path
       style="fill:#f4d7ee;fill-opacity:1;stroke:#000000;stroke-width:0.19117492;stroke-miterlimit:4;stroke-dasharray:none;stroke-opacity:1"
       d="m 60.601062,187.8231 a 2.6140195,2.6140195 0 0 0 -2.555011,2.06764 4.993958,4.993958 0 0 0 2.690987,0.78751 4.993958,4.993958 0 0 0 2.445211,-0.64261 2.6140195,2.6140195 0 0 0 -2.581187,-2.21254 z"
       id="path4574"
       inkscape:connector-curvature="0" />
    <path
       style="fill:#333333;fill-opacity:1;stroke:#000000;stroke-width:0.14615224;stroke-miterlimit:4;stroke-dasharray:none;stroke-opacity:1"
       d="m 58.884974,182.18936 c -1.186534,1.37994 -2.579414,-1.43992 -2.149285,-1.95874 0.430128,-0.51883 3.335826,0.57881 2.149285,1.95874 z"
       id="path4612"
       inkscape:connector-curvature="0"
       sodipodi:nodetypes="zzz" />
    <path
       sodipodi:nodetypes="zzz"
       inkscape:connector-curvature="0"
       id="path4617"
       d="m 62.551172,182.25543 c 1.186534,1.37994 2.579415,-1.43992 2.149279,-1.95874 -0.430129,-0.51882 -3.33582,0.57881 -2.149279,1.95874 z"
       style="fill:#333333;fill-opacity:1;stroke:#000000;stroke-width:0.14615224;stroke-miterlimit:4;stroke-dasharray:none;stroke-opacity:1" />
    <path
       style="fill:#333333;fill-rule:evenodd;stroke:none;stroke-width:0.03861369px;stroke-linecap:butt;stroke-linejoin:miter;stroke-opacity:1"
       d="m 71.10139,188.25784 c -3.497251,2.35834 1.08863,2.44564 1.704144,3.06115 0.307129,0.30714 -0.118409,1.01715 0.123428,1.25898 0.876702,0.8767 2.532509,-0.0538 2.863566,-0.71589 0.3786,-0.7572 1.278857,-1.90563 0.394977,-2.78951 -1.189331,-1.18933 -1.740334,0.63568 -3.061058,-0.0247 -0.384691,-0.19235 -0.998827,-1.53656 -1.793812,-0.96347 z"
       id="path4608"
       inkscape:connector-curvature="0"
       sodipodi:nodetypes="ccscsccc" />
    <path
       style="fill:#333333;fill-rule:evenodd;stroke:none;stroke-width:0.04941098px;stroke-linecap:butt;stroke-linejoin:miter;stroke-opacity:1"
       d="m 69.028749,179.65377 c -1.761723,0.45208 -0.402385,1.74565 0.189527,2.33756 0.446493,0.44649 -0.999607,3.54812 1.29514,2.40074 1.181794,-0.59089 1.351631,-1.76228 2.211209,-2.62185 0.667797,-0.66781 1.607144,-0.75426 2.305977,-1.45308 0.566607,-0.56662 -0.616301,-1.32673 -1.074018,-1.32673 -1.858588,0 -1.65745,1.42149 -3.411582,1.42149 -0.641411,0 -0.510766,-1.09329 -1.516253,-0.75813 z"
       id="path4610"
       inkscape:connector-curvature="0" />
    <path
       sodipodi:nodetypes="ccccccsccc"
       inkscape:connector-curvature="0"
       id="path4624"
       d="m 68.920219,197.66778 c -0.238497,0.003 -1.868604,-6.8e-4 -1.868604,-6.8e-4 l -0.457438,-1.38149 -0.218262,0.0733 -0.363194,1.35129 c 0,0 -1.293509,0.0808 -1.600788,0.0861 0,-1.22624 1.394639,-2.40716 2.63956,-2.40716 1.244934,0 1.868726,1.05245 1.868726,2.27868 z"
       style="fill:#333333;fill-opacity:1;stroke:none;stroke-width:0.1238707;stroke-miterlimit:4;stroke-dasharray:none;stroke-opacity:1" />
    <path
       sodipodi:nodetypes="ccsc"
       inkscape:connector-curvature="0"
       id="path4626"
       d="m 77.800223,198.12183 c -2.293497,0.0265 -3.941808,-0.0257 -5.419284,0 0,-1.50925 1.213151,-2.73274 2.709639,-2.73274 1.496495,0 2.709645,1.22349 2.709645,2.73274 z"
       style="fill:#1a1a1a;fill-opacity:1;stroke:none;stroke-width:0.15067042;stroke-miterlimit:4;stroke-dasharray:none;stroke-opacity:1" />
    <path
       style="fill:#333333;fill-opacity:1;stroke:none;stroke-width:0.1238707;stroke-miterlimit:4;stroke-dasharray:none;stroke-opacity:1"
       d="m 76.947618,197.66778 c -0.238496,0.003 -1.868603,-6.8e-4 -1.868603,-6.8e-4 l -0.457438,-1.38149 -0.218263,0.0733 -0.363186,1.35129 c 0,0 -1.293517,0.0808 -1.600788,0.0861 0,-1.22624 1.394632,-2.40716 2.639559,-2.40716 1.244928,0 1.868719,1.05245 1.868719,2.27868 z"
       id="path4628"
       inkscape:connector-curvature="0"
       sodipodi:nodetypes="ccccccsccc" />
    <path
       style="fill:#cdabc6;fill-opacity:1;stroke:none;stroke-width:0.14615223;stroke-miterlimit:4;stroke-dasharray:none;stroke-opacity:1"
       d="m 62.578583,188.87569 c -0.703023,0.55717 -3.12597,1.00725 -4.159127,1.14313 1.37302,0.83093 3.285819,0.66666 4.464579,0.0614 0.06416,-0.0358 0.133415,-0.0436 0.195951,-0.0823 -0.09291,-0.50648 -0.263898,-0.80256 -0.501403,-1.12226 z"
       id="path4633"
       inkscape:connector-curvature="0"
       sodipodi:nodetypes="ccccc" />
    <ellipse
       style="fill:#333333;fill-opacity:1;stroke:none;stroke-width:0.19117489;stroke-miterlimit:4;stroke-dasharray:none;stroke-opacity:1"
       id="path4547"
       cx="-4.8087869"
       cy="198.44402"
       rx="0.41248968"
       ry="0.69512141"
       transform="rotate(-18.961187)" />
    <ellipse
       transform="matrix(-0.9457389,-0.32492757,-0.32492757,0.9457389,0,0)"
       ry="0.69512141"
       rx="0.41248968"
       cy="159.06349"
       cx="-119.43027"
       id="ellipse4551"
       style="fill:#333333;fill-opacity:1;stroke:none;stroke-width:0.19117489;stroke-miterlimit:4;stroke-dasharray:none;stroke-opacity:1" />
    <path
       style="fill:#333333;fill-opacity:1;fill-rule:evenodd;stroke:none;stroke-width:0.02831489px;stroke-linecap:butt;stroke-linejoin:miter;stroke-opacity:1"
       d="m 65.060806,190.41063 c -0.723732,-0.84081 -0.987446,-0.33299 -1.344454,0.19219 -0.217794,0.3204 0.694352,1.12056 0.588246,1.49622 -0.127243,0.45052 -0.885632,0.31011 -1.003505,0.72742 -0.300468,1.06382 1.878503,2.78055 2.7141,1.55134 0.964856,-1.41936 -0.875827,-1.65533 -0.677004,-2.35924 0.171045,-0.60559 0.345886,-0.9603 -0.277383,-1.60793 z"
       id="path4640"
       inkscape:connector-curvature="0"
       sodipodi:nodetypes="ccscssc" />
  </g>
</svg>
